<?xml version="1.0" encoding="UTF-8" standalone="no"?>
<!-- Created with Inkscape (http://www.inkscape.org/) -->

<svg
   version="1.1"
   id="svg1"
   width="115.22133"
   height="94.921333"
   viewBox="0 0 115.22133 94.921333"
   sodipodi:docname="Draft.pdf"
   xmlns:inkscape="http://www.inkscape.org/namespaces/inkscape"
   xmlns:sodipodi="http://sodipodi.sourceforge.net/DTD/sodipodi-0.dtd"
   xmlns="http://www.w3.org/2000/svg"
   xmlns:svg="http://www.w3.org/2000/svg">
  <defs
     id="defs1" />
  <sodipodi:namedview
     id="namedview1"
     pagecolor="#ffffff"
     bordercolor="#000000"
     borderopacity="0.25"
     inkscape:showpageshadow="2"
     inkscape:pageopacity="0.0"
     inkscape:pagecheckerboard="0"
     inkscape:deskcolor="#d1d1d1">
    <inkscape:page
       x="0"
       y="0"
       inkscape:label="1"
       id="page1"
       width="115.22133"
       height="94.921333"
       margin="0"
       bleed="0" />
  </sodipodi:namedview>
  <g
     id="g1"
     inkscape:groupmode="layer"
     inkscape:label="1">
    <path
       id="path1"
       d="m 0.16536719,1.3012422 0.10546875,0.1289062 0.3515625,-0.1875 c 0.53906246,0.4453125 1.21874996,0.84375 1.93359376,0.84375 0.070312,0 0.234375,-0.046875 0.3515625,-0.082031 C 3.4934922,1.4301484 4.0208359,0.80905469 4.5364609,0.16452344 L 4.2434922,-1.0893828 c -0.023437,-0.1289063 -0.046875,-0.2695313 -0.046875,-0.4101563 0,-1.2421875 -0.082031,-2.4492187 0.2226562,-3.0703125 l -0.070312,-0.058594 -0.7148437,0.3984375 c -0.3984375,-0.09375 -0.796875,-0.2226563 -1.1367188,-0.4570313 -0.5390625,0.328125 -1.078125,0.65625 -1.60546871,1.0195313 -0.10546875,0.65625 -0.15234375,1.3242187 -0.15234375,1.9921875 0,0.3398437 0.0234375,0.69140624 0.0351563,1.03124999 L 1.5013047,0.23483594 C 1.0442734,0.63327344 0.61067969,0.99655469 0.16536719,1.3012422 Z M 3.4114609,-0.96047656 c 0.1054688,0.45703125 0.2695313,1.1953125 0.2695313,1.40625 0,0.45703125 -0.2578125,0.90234376 -0.7382813,0.90234376 -0.5625,0 -1.0664062,-0.38671876 -1.4765625,-0.79687501 0.6210938,-0.52734375 1.2773438,-1.0546875 1.9453125,-1.51171875 z M 2.2747422,-0.40969531 C 2.0286484,-0.63235156 1.7473984,-0.94875781 1.5950547,-1.2300078 c -0.035156,-0.4570313 -0.046875,-0.9140625 -0.046875,-1.359375 0,-0.4335938 0.011719,-0.9375 0.1757812,-1.3359375 0.4804688,0.2226562 1.171875,0.3515625 1.7578125,0.4335937 -0.070312,0.7382813 -0.09375,1.5117188 -0.09375,2.2617188 z m 0,0"
       style="fill:#000000;fill-opacity:1;fill-rule:nonzero;stroke:none"
       aria-label="g"
       transform="matrix(1.3333333,0,0,1.3333333,5.8146667,18.362667)" />
    <path
       id="path2"
       d="m 0.16489063,1.3012422 0.10546875,0.1289062 0.3515625,-0.1875 c 0.53906252,0.4453125 1.21875002,0.84375 1.93359372,0.84375 0.070312,0 0.234375,-0.046875 0.3515625,-0.082031 C 3.4930156,1.4301484 4.0203594,0.80905469 4.5359844,0.16452344 L 4.2430156,-1.0893828 c -0.023437,-0.1289063 -0.046875,-0.2695313 -0.046875,-0.4101563 0,-1.2421875 -0.082031,-2.4492187 0.2226563,-3.0703125 l -0.070312,-0.058594 -0.7148438,0.3984375 c -0.3984375,-0.09375 -0.796875,-0.2226563 -1.1367187,-0.4570313 -0.5390625,0.328125 -1.078125,0.65625 -1.60546877,1.0195313 -0.10546875,0.65625 -0.15234375,1.3242187 -0.15234375,1.9921875 0,0.3398437 0.0234375,0.69140624 0.0351563,1.03124999 L 1.5008281,0.23483594 C 1.0437969,0.63327344 0.61020313,0.99655469 0.16489063,1.3012422 Z M 3.4109844,-0.96047656 c 0.1054687,0.45703125 0.2695312,1.1953125 0.2695312,1.40625 0,0.45703125 -0.2578125,0.90234376 -0.7382812,0.90234376 -0.5625,0 -1.0664063,-0.38671876 -1.4765625,-0.79687501 0.6210937,-0.52734375 1.2773437,-1.0546875 1.9453125,-1.51171875 z M 2.2742656,-0.40969531 C 2.0281719,-0.63235156 1.7469219,-0.94875781 1.5945781,-1.2300078 c -0.035156,-0.4570313 -0.046875,-0.9140625 -0.046875,-1.359375 0,-0.4335938 0.011719,-0.9375 0.1757813,-1.3359375 0.4804687,0.2226562 1.171875,0.3515625 1.7578125,0.4335937 -0.070312,0.7382813 -0.09375,1.5117188 -0.09375,2.2617188 z m 0,0"
       style="fill:#000000;fill-opacity:1;fill-rule:nonzero;stroke:none"
       aria-label="g"
       transform="matrix(1.3333333,0,0,1.3333333,87.897333,18.362667)" />
    <path
       id="path3"
       d="m 2.2738516,1.8279297 0.1523437,0.140625 c 0.6210938,-0.46875 1.1953125,-1.00781251 1.640625,-1.66406251 0.2460938,-0.83203125 0.2695313,-1.82812499 0.2695313,-2.75390629 0,-0.5742187 -0.035156,-1.1367187 -0.070312,-1.6992187 -0.421875,-0.140625 -0.8320313,-0.3164063 -1.1601563,-0.609375 -0.4921875,0.3398437 -1.1484375,0.8085937 -1.4765625,1.0664062 l 0.011719,-1.1015625 c 0,-0.5507812 0.058594,-1.1953125 0.9023437,-1.9570312 L 2.3676016,-6.8673828 c -0.011719,0 -0.8085938,0.5859375 -1.2070313,0.8789062 l -0.23437499,-0.75 -0.1171875,0.011719 c 0.046875,0.8085937 0.0585938,1.6289062 0.0585938,2.4375 0,1.2070312 -0.0351563,2.4257812 -0.10546875,3.64453124 l 0.53906244,0.90234375 0.8203126,-0.75 -0.5390626,-0.76171879 0.046875,-2.1445312 c 0.2578125,-0.1992188 0.6328126,-0.4921875 0.9375001,-0.4921875 0.328125,0 0.6210938,0.1757812 0.8789063,0.3632812 0.046875,0.5390625 0.1054687,1.3242188 0.1054687,1.6054688 0,1.03124999 0.035156,2.71874999 -0.6445312,3.2109375 z m 0,0"
       style="fill:#000000;fill-opacity:1;fill-rule:nonzero;stroke:none"
       aria-label="h"
       transform="matrix(1.3333333,0,0,1.3333333,5.6986667,87.566667)" />
    <path
       id="path4"
       d="m 2.274375,1.8279297 0.1523438,0.140625 C 3.0478125,1.4998047 3.6220313,0.96074219 4.0673438,0.30449219 4.3134375,-0.52753906 4.336875,-1.5236328 4.336875,-2.4494141 c 0,-0.5742187 -0.035156,-1.1367187 -0.070312,-1.6992187 -0.421875,-0.140625 -0.8320312,-0.3164063 -1.1601562,-0.609375 -0.4921875,0.3398437 -1.1484375,0.8085937 -1.4765625,1.0664062 l 0.011719,-1.1015625 c 0,-0.5507812 0.058594,-1.1953125 0.9023438,-1.9570312 L 2.368125,-6.8673828 c -0.011719,0 -0.8085937,0.5859375 -1.2070312,0.8789062 l -0.23437505,-0.75 -0.1171875,0.011719 c 0.046875,0.8085937 0.0585938,1.6289062 0.0585938,2.4375 0,1.2070312 -0.0351563,2.4257812 -0.10546875,3.64453124 l 0.5390625,0.90234375 0.8203126,-0.75 -0.5390626,-0.76171879 0.046875,-2.1445312 c 0.2578125,-0.1992188 0.6328126,-0.4921875 0.9375001,-0.4921875 0.328125,0 0.6210936,0.1757812 0.8789061,0.3632812 0.046875,0.5390625 0.1054689,1.3242188 0.1054689,1.6054688 0,1.03124999 0.035156,2.71874999 -0.6445314,3.2109375 z m 0,0"
       style="fill:#000000;fill-opacity:1;fill-rule:nonzero;stroke:none"
       aria-label="h"
       transform="matrix(1.3333333,0,0,1.3333333,87.78,87.566667)" />
    <path
       id="path5"
       d="M -23.79878,27.01646 H 23.4003"
       style="fill:none;stroke:#000000;stroke-width:0.39848;stroke-linecap:butt;stroke-linejoin:miter;stroke-miterlimit:10;stroke-dasharray:none;stroke-opacity:1"
       transform="matrix(1.3333333,0,0,-1.3333333,50.201333,51.062667)" />
    <path
       id="path6"
       d="M -2.07213,2.39091 C -1.69356,0.95633 -0.84995,0.27893 0,0 -0.84995,-0.27893 -1.69356,-0.95633 -2.07213,-2.39091"
       style="fill:none;stroke:#000000;stroke-width:0.39848;stroke-linecap:round;stroke-linejoin:round;stroke-miterlimit:10;stroke-dasharray:none;stroke-opacity:1"
       transform="matrix(1.3333333,0,0,-1.3333333,81.6674,15.04072)" />
    <g
       id="g6"
       aria-label="Ad&#10;g"
       transform="matrix(1.3333333,0,0,1.3333333,40.569333,9.3066667)">
      <path
         id="path7"
         d="m 3.1296406,-4.8149609 c -0.035156,-0.1054688 -0.058594,-0.1523438 -0.1992187,-0.1523438 -0.1289063,0 -0.1523438,0.046875 -0.1875,0.1523438 l -1.6171875,4.08984371 c -0.070312,0.1640625 -0.18750002,0.48046875 -0.80859377,0.48046875 v 0.24609375 c 0.234375,-0.0234375 0.48046875,-0.0234375 0.71484377,-0.0234375 0.28125,0 0.796875,0.0234375 0.8320312,0.0234375 v -0.24609375 c -0.3046875,0 -0.4921875,-0.140625 -0.4921875,-0.33984375 0,-0.0585938 0,-0.0703125 0.035156,-0.140625 l 0.328125,-0.85546871 h 1.9804687 l 0.4101563,1.01953121 c 0.011719,0.0351563 0.035156,0.0820312 0.035156,0.1171875 0,0.19921875 -0.3867187,0.19921875 -0.5742187,0.19921875 v 0.24609375 c 0.3515625,-0.01171875 0.796875,-0.0234375 1.0429687,-0.0234375 0.328125,0 0.8554688,0.01171875 0.9257813,0.0234375 v -0.24609375 h -0.140625 c -0.46875,0 -0.515625,-0.0703125 -0.5859375,-0.26953125 z m -0.3984375,0.7148437 0.890625,2.2734375 H 1.8288594 Z m 5.6337891,-0.65625 v 0.2460938 c 0.46875,0 0.515625,0.046875 0.515625,0.3867187 v 1.453125 C 8.6228047,-2.9282422 8.2946797,-3.0688672 7.9079609,-3.0688672 c -0.9257812,0 -1.7109375,0.6914063 -1.7109375,1.5703125 0,0.86718751 0.7382813,1.57031251 1.6289063,1.57031251 0.5742187,0 0.9140625,-0.3046875 1.03125,-0.43359375 v 0.43359375 l 1.078125,-0.0703125 v -0.24609375 c -0.46875,0 -0.5273438,-0.0585938 -0.5273438,-0.3984375 V -4.8383984 Z m 0.4921875,4.03125001 c -0.1757813,0.31640625 -0.5390625,0.59765625 -0.984375,0.59765625 -0.3984375,0 -0.6796875,-0.22265625 -0.8085938,-0.43359375 -0.140625,-0.19921875 -0.2226562,-0.48046871 -0.2226562,-0.92578121 0,-0.1640625 0,-0.6914063 0.28125,-1.0195313 0.28125,-0.3046875 0.6210937,-0.375 0.8203125,-0.375 0.3398437,0 0.6328125,0.1523438 0.8320312,0.4101563 0.082031,0.1054687 0.082031,0.1171875 0.082031,0.2460937 z m 0,0"
         style="fill:#000000;fill-opacity:1;fill-rule:nonzero;stroke:none" />
      <path
         id="path8"
         d="m 13.421633,-0.82179688 c 0.02344,-0.0820313 0.02344,-0.09375 0.02344,-0.10546875 0,-0.09375 -0.07031,-0.17578127 -0.1875,-0.17578127 -0.09375,0 -0.210937,0.070312 -0.246093,0.18750002 -0.164063,-0.21093752 -0.375,-0.29296872 -0.597657,-0.29296872 -0.679687,0 -1.382812,0.64453122 -1.382812,1.34765622 0,0.52734375 0.398437,0.85546875 0.867187,0.85546875 0.316407,0 0.585938,-0.17578125 0.703125,-0.26953125 -0.01172,0.046875 -0.09375,0.38671878 -0.117187,0.46874998 -0.04687,0.1875 -0.08203,0.328125 -0.304688,0.4921875 -0.234375,0.1640625 -0.457031,0.1640625 -0.597656,0.1640625 -0.04687,0 -0.410156,-0.011719 -0.410156,-0.035156 l 0.02344,-0.023437 c 0.08203,-0.070312 0.117188,-0.1875 0.117188,-0.234375 0,-0.082031 -0.07031,-0.1992188 -0.234375,-0.1992188 -0.152344,0 -0.304688,0.140625 -0.304688,0.328125 0,0.328125 0.503907,0.328125 0.808594,0.328125 0.679688,0 1.195313,-0.2226562 1.3125,-0.7148437 z m -0.714844,1.11328125 c -0.01172,0.0703125 -0.02344,0.09375 -0.117187,0.19921875 -0.1875,0.17578125 -0.410157,0.33984375 -0.667969,0.33984375 -0.199219,0 -0.445313,-0.10546875 -0.445313,-0.50390625 0,-0.19921875 0.09375,-0.66796875 0.28125,-0.9609375 0.128907,-0.2109375 0.386719,-0.39843752 0.65625,-0.39843752 0.410157,0 0.515625,0.38671877 0.515625,0.43359377 0,0 0,0.0351563 -0.01172,0.0703125 z m 0,0"
         style="fill:#000000;fill-opacity:1;fill-rule:nonzero;stroke:none" />
    </g>
    <path
       id="path9"
       d="M -30.78117,18.81006 V -16.25897"
       style="fill:none;stroke:#000000;stroke-width:0.39848;stroke-linecap:butt;stroke-linejoin:miter;stroke-miterlimit:10;stroke-dasharray:none;stroke-opacity:1"
       transform="matrix(1.3333333,0,0,-1.3333333,50.201333,51.062667)" />
    <path
       id="path10"
       d="M -2.07213,2.39091 C -1.69356,0.95633 -0.84995,0.27893 0,0 -0.84995,-0.27893 -1.69356,-0.95633 -2.07213,-2.39091"
       style="fill:none;stroke:#000000;stroke-width:0.39848;stroke-linecap:round;stroke-linejoin:round;stroke-miterlimit:10;stroke-dasharray:none;stroke-opacity:1"
       transform="matrix(0,1.3333333,1.3333333,0,9.1597733,73.00696)" />
    <g
       id="g10"
       aria-label="d&#10;e&#10;φ"
       transform="matrix(1.3333333,0,0,1.3333333,12.276,51.952)">
      <path
         id="path11"
         d="m 2.4853828,-4.7569687 v 0.2460937 c 0.46875,0 0.515625,0.046875 0.515625,0.3867188 v 1.453125 C 2.7431953,-2.9288437 2.4150703,-3.0694687 2.0283516,-3.0694687 c -0.9257813,0 -1.71093754,0.6914062 -1.71093754,1.5703125 0,0.86718745 0.73828124,1.57031245 1.62890624,1.57031245 0.5742188,0 0.9140625,-0.3046875 1.03125,-0.43359375 V 0.07115625 L 4.0556953,8.4375e-4 V -0.24525 c -0.46875,0 -0.5273437,-0.0585938 -0.5273437,-0.3984375 V -4.839 Z m 0.4921875,4.03124995 c -0.1757812,0.31640625 -0.5390625,0.59765625 -0.984375,0.59765625 -0.3984375,0 -0.6796875,-0.22265625 -0.8085937,-0.43359375 C 1.0439766,-0.760875 0.96194531,-1.042125 0.96194531,-1.4874375 c 0,-0.1640625 0,-0.6914062 0.28124999,-1.0195312 0.28125,-0.3046875 0.6210938,-0.375 0.8203125,-0.375 0.3398438,0 0.6328125,0.1523437 0.8320313,0.4101562 0.082031,0.1054688 0.082031,0.1171875 0.082031,0.2460938 z m 0,0"
         style="fill:#000000;fill-opacity:1;fill-rule:nonzero;stroke:none" />
      <path
         id="path12"
         d="m 5.8193672,-0.1280625 c 0.5039062,0 1.3945312,-0.0585938 1.3945312,-0.6328125 0,-0.2460937 -0.2578125,-0.4453125 -0.7148437,-0.4453125 -0.6796875,0 -1.5351563,0.45703125 -1.5351563,1.27734375 0,0.45703125 0.2929688,0.98437505 1.0429688,0.98437505 0.09375,0 0.4921875,0 0.8320312,-0.1289063 0.328125,-0.12890625 0.5273438,-0.36328125 0.5273438,-0.421875 0,-0.0351563 -0.058594,-0.10546875 -0.1054688,-0.10546875 -0.023437,0 -0.035156,0 -0.1054687,0.0820313 C 6.9092109,0.75084375 6.4638984,0.87975 6.0185859,0.87975 c -0.4101562,0 -0.609375,-0.24609375 -0.609375,-0.62109375 0,-0.0585937 0,-0.1875 0.058594,-0.38671875 z M 5.5029609,-0.292125 c 0.2226563,-0.69140625 0.84375,-0.7382812 0.9960938,-0.7382812 0.2460937,0 0.4570312,0.09375 0.4570312,0.28124995 0,0.45703125 -0.9257812,0.45703125 -1.1601562,0.45703125 z m 0,0"
         style="fill:#000000;fill-opacity:1;fill-rule:nonzero;stroke:none" />
      <path
         id="path13"
         d="m 10.471711,0.0594375 c 0.08203,0.01171875 0.164062,0.01171875 0.234375,0.01171875 1.253906,0 2.414062,-1.03125 2.414062,-2.13281245 0,-0.609375 -0.375,-1.0078125 -0.914062,-1.0078125 -0.972656,0 -1.476563,1.21875 -1.675781,1.7460937 -0.08203,0.2578125 -0.234375,0.75 -0.28125,0.87890625 C 9.4873359,-0.5499375 8.9951484,-0.9015 8.9951484,-1.417125 c 0,0 0.035156,-0.7851562 0.609375,-1.4179687 0.046875,-0.046875 0.046875,-0.058594 0.046875,-0.082031 0,-0.082031 -0.082031,-0.082031 -0.1054687,-0.082031 -0.058594,0 -0.09375,0 -0.2226563,0.1523437 -0.3867187,0.4804688 -0.5742187,1.2070313 -0.5742187,1.5 0,0.62109375 0.4570312,1.16015625 1.3476563,1.359375 -0.3398438,1.078125 -0.3867188,1.2070313 -0.3867188,1.265625 0,0.1992188 0.1640625,0.234375 0.234375,0.234375 0.082031,0 0.2226558,-0.058594 0.2812498,-0.1640625 0.04687,-0.09375 0.105469,-0.45703125 0.246094,-1.289063 z m 0.09375,-0.46875 c 0.140625,-0.8085937 0.1875,-1.1132812 0.527344,-1.5703125 0.316406,-0.421875 0.679687,-0.6210937 1.03125,-0.6210937 0.480468,0 0.738281,0.3164062 0.738281,0.6796875 0,0.703125 -0.878906,1.5117187 -2.074219,1.5117187 -0.07031,0 -0.164062,0 -0.222656,0 z m 0,0"
         style="fill:#000000;fill-opacity:1;fill-rule:nonzero;stroke:none" />
    </g>
    <path
       id="path14"
       d="M 30.78117,18.81006 V -16.25897"
       style="fill:none;stroke:#000000;stroke-width:0.39848;stroke-linecap:butt;stroke-linejoin:miter;stroke-miterlimit:10;stroke-dasharray:none;stroke-opacity:1"
       transform="matrix(1.3333333,0,0,-1.3333333,50.201333,51.062667)" />
    <path
       id="path15"
       d="M -2.07213,2.39091 C -1.69356,0.95633 -0.84995,0.27893 0,0 -0.84995,-0.27893 -1.69356,-0.95633 -2.07213,-2.39091"
       style="fill:none;stroke:#000000;stroke-width:0.39848;stroke-linecap:round;stroke-linejoin:round;stroke-miterlimit:10;stroke-dasharray:none;stroke-opacity:1"
       transform="matrix(0,1.3333333,1.3333333,0,91.242893,73.00696)" />
    <g
       id="g15"
       aria-label="d&#10;e&#10;φ"
       transform="matrix(1.3333333,0,0,1.3333333,94.357333,51.952)">
      <path
         id="path16"
         d="m 2.4829766,-4.7569687 v 0.2460937 c 0.46875,0 0.515625,0.046875 0.515625,0.3867188 v 1.453125 C 2.7407891,-2.9288437 2.4126641,-3.0694687 2.0259453,-3.0694687 c -0.9257812,0 -1.71093749,0.6914062 -1.71093749,1.5703125 0,0.86718745 0.73828129,1.57031245 1.62890629,1.57031245 0.5742187,0 0.9140625,-0.3046875 1.03125,-0.43359375 V 0.07115625 L 4.0532891,8.4375e-4 V -0.24525 c -0.46875,0 -0.5273438,-0.0585938 -0.5273438,-0.3984375 V -4.839 Z m 0.4921875,4.03124995 c -0.1757813,0.31640625 -0.5390625,0.59765625 -0.984375,0.59765625 -0.3984375,0 -0.6796875,-0.22265625 -0.8085938,-0.43359375 C 1.0415703,-0.760875 0.95953906,-1.042125 0.95953906,-1.4874375 c 0,-0.1640625 0,-0.6914062 0.28125004,-1.0195312 0.28125,-0.3046875 0.6210937,-0.375 0.8203125,-0.375 0.3398437,0 0.6328125,0.1523437 0.8320312,0.4101562 0.082031,0.1054688 0.082031,0.1171875 0.082031,0.2460938 z m 0,0"
         style="fill:#000000;fill-opacity:1;fill-rule:nonzero;stroke:none" />
      <path
         id="path17"
         d="m 5.8169609,-0.1280625 c 0.5039063,0 1.3945313,-0.0585938 1.3945313,-0.6328125 0,-0.2460937 -0.2578125,-0.4453125 -0.7148438,-0.4453125 -0.6796875,0 -1.5351562,0.45703125 -1.5351562,1.27734375 0,0.45703125 0.2929687,0.98437505 1.0429687,0.98437505 0.09375,0 0.4921875,0 0.8320313,-0.1289063 0.328125,-0.12890625 0.5273437,-0.36328125 0.5273437,-0.421875 0,-0.0351563 -0.058594,-0.10546875 -0.1054687,-0.10546875 -0.023437,0 -0.035156,0 -0.1054688,0.0820313 C 6.9068047,0.75084375 6.4614922,0.87975 6.0161797,0.87975 c -0.4101563,0 -0.609375,-0.24609375 -0.609375,-0.62109375 0,-0.0585937 0,-0.1875 0.058594,-0.38671875 z M 5.5005547,-0.292125 c 0.2226562,-0.69140625 0.84375,-0.7382812 0.9960937,-0.7382812 0.2460938,0 0.4570313,0.09375 0.4570313,0.28124995 0,0.45703125 -0.9257813,0.45703125 -1.1601563,0.45703125 z m 0,0"
         style="fill:#000000;fill-opacity:1;fill-rule:nonzero;stroke:none" />
      <path
         id="path18"
         d="m 10.475164,0.0594375 c 0.08203,0.01171875 0.164063,0.01171875 0.234375,0.01171875 1.253906,0 2.414063,-1.03125 2.414063,-2.13281245 0,-0.609375 -0.375,-1.0078125 -0.914063,-1.0078125 -0.972656,0 -1.476562,1.21875 -1.675781,1.7460937 -0.08203,0.2578125 -0.234375,0.75 -0.28125,0.87890625 C 9.4907891,-0.5499375 8.9986016,-0.9015 8.9986016,-1.417125 c 0,0 0.035156,-0.7851562 0.609375,-1.4179687 0.046875,-0.046875 0.046875,-0.058594 0.046875,-0.082031 0,-0.082031 -0.082031,-0.082031 -0.1054688,-0.082031 -0.058594,0 -0.09375,0 -0.2226562,0.1523437 -0.3867188,0.4804688 -0.5742188,1.2070313 -0.5742188,1.5 0,0.62109375 0.4570313,1.16015625 1.3476562,1.359375 -0.3398437,1.078125 -0.3867187,1.2070313 -0.3867187,1.265625 0,0.1992188 0.1640625,0.234375 0.234375,0.234375 0.082032,0 0.2226567,-0.058594 0.2812497,-0.1640625 0.04687,-0.09375 0.105469,-0.45703125 0.246094,-1.289063 z m 0.09375,-0.46875 c 0.140625,-0.8085937 0.1875,-1.1132812 0.527344,-1.5703125 0.316406,-0.421875 0.679687,-0.6210937 1.03125,-0.6210937 0.480469,0 0.738281,0.3164062 0.738281,0.6796875 0,0.703125 -0.878906,1.5117187 -2.074219,1.5117187 -0.07031,0 -0.164062,0 -0.222656,0 z m 0,0"
         style="fill:#000000;fill-opacity:1;fill-rule:nonzero;stroke:none" />
    </g>
    <path
       id="path19"
       d="M -23.71132,-24.88727 H 23.31285"
       style="fill:none;stroke:#000000;stroke-width:0.39848;stroke-linecap:butt;stroke-linejoin:miter;stroke-miterlimit:10;stroke-dasharray:none;stroke-opacity:1"
       transform="matrix(1.3333333,0,0,-1.3333333,50.201333,51.062667)" />
    <path
       id="path20"
       d="M -2.07213,2.39091 C -1.69356,0.95633 -0.84995,0.27893 0,0 -0.84995,-0.27893 -1.69356,-0.95633 -2.07213,-2.39091"
       style="fill:none;stroke:#000000;stroke-width:0.39848;stroke-linecap:round;stroke-linejoin:round;stroke-miterlimit:10;stroke-dasharray:none;stroke-opacity:1"
       transform="matrix(1.3333333,0,0,-1.3333333,81.550773,84.245693)" />
    <g
       id="g20"
       aria-label="Ad&#10;φ(g)"
       transform="matrix(1.3333333,0,0,1.3333333,33.924,77.690667)">
      <path
         id="path21"
         d="m 3.1302422,-4.8158516 c -0.035156,-0.1054687 -0.058594,-0.1523437 -0.1992188,-0.1523437 -0.1289062,0 -0.1523437,0.046875 -0.1875,0.1523437 l -1.6171875,4.08984379 c -0.070312,0.1640625 -0.18749996,0.48046875 -0.80859371,0.48046875 V 5.546875e-4 C 0.55211719,-0.02288281 0.79821094,-0.02288281 1.0325859,-0.02288281 c 0.28125,0 0.796875,0.0234374975 0.8320313,0.0234374975 V -0.24553906 c -0.3046875,0 -0.4921875,-0.140625 -0.4921875,-0.33984375 0,-0.0585938 0,-0.0703125 0.035156,-0.140625 l 0.328125,-0.85546879 h 1.9804688 l 0.4101562,1.01953129 c 0.011719,0.0351563 0.035156,0.0820313 0.035156,0.1171875 0,0.19921875 -0.3867188,0.19921875 -0.5742188,0.19921875 V 5.546875e-4 C 3.9388359,-0.01116406 4.3841484,-0.02288281 4.6302422,-0.02288281 c 0.328125,0 0.8554687,0.01171875 0.9257812,0.0234374975 V -0.24553906 h -0.140625 c -0.46875,0 -0.515625,-0.0703125 -0.5859375,-0.26953125 z m -0.3984375,0.7148438 0.890625,2.2734375 H 1.8294609 Z m 5.6337891,-0.65625 v 0.2460937 c 0.46875,0 0.515625,0.046875 0.515625,0.3867188 v 1.453125 C 8.6234063,-2.9291328 8.2952813,-3.0697578 7.9085625,-3.0697578 c -0.9257812,0 -1.7109375,0.6914062 -1.7109375,1.5703125 0,0.86718749 0.7382813,1.57031249 1.6289063,1.57031249 0.5742187,0 0.9140625,-0.3046875 1.03125,-0.43359375 V 0.07086719 L 9.9359063,5.546875e-4 V -0.24553906 c -0.46875,0 -0.5273438,-0.0585937 -0.5273438,-0.3984375 V -4.8392891 Z m 0.4921875,4.03124999 C 8.682,-0.40960156 8.3187188,-0.12835156 7.8734063,-0.12835156 c -0.3984375,0 -0.6796875,-0.22265625 -0.8085938,-0.43359375 -0.140625,-0.19921875 -0.2226562,-0.48046879 -0.2226562,-0.92578129 0,-0.1640625 0,-0.6914062 0.28125,-1.0195312 0.28125,-0.3046875 0.6210937,-0.375 0.8203125,-0.375 0.3398437,0 0.6328125,0.1523437 0.8320312,0.4101562 0.082031,0.1054688 0.082031,0.1171875 0.082031,0.2460938 z m 0,0"
         style="fill:#000000;fill-opacity:1;fill-rule:nonzero;stroke:none" />
      <path
         id="path22"
         d="m 12.273797,1.3804375 c 0.05859,0.011719 0.128906,0.011719 0.1875,0.011719 1.019531,0 1.898437,-0.7148437 1.898437,-1.4882812 0,-0.48046875 -0.339843,-0.7734375 -0.761718,-0.7734375 -0.398438,0 -0.738282,0.26953125 -0.984375,0.62109375 -0.269532,0.38671875 -0.375,0.7265625 -0.527344,1.23046875 -0.386719,-0.0351563 -1.03125,-0.17578125 -1.03125,-0.66796875 0,-0.1171875 0.105469,-0.6328125 0.421875,-0.9375 0.08203,-0.09375 0.08203,-0.09375 0.08203,-0.1171875 0,-0.0703125 -0.07031,-0.0703125 -0.105469,-0.0703125 -0.04687,0 -0.07031,0 -0.199218,0.140625 -0.269532,0.3046875 -0.410157,0.80859375 -0.410157,1.04296875 0,0.50390625 0.457032,0.8554687 1.125,0.9726562 -0.09375,0.3046875 -0.117187,0.3867188 -0.234375,0.7382813 -0.04687,0.1171875 -0.04687,0.140625 -0.04687,0.1640625 0,0.1054687 0.09375,0.1757812 0.1875,0.1757812 0.117188,0 0.222657,-0.09375 0.246094,-0.1992187 0,-0.011719 0.140625,-0.7617188 0.152344,-0.84375 z m 0.140625,-0.375 c -0.02344,0 -0.07031,0 -0.07031,-0.0234375 0,-0.0117188 0.03516,-0.1875 0.05859,-0.28125 0.140625,-0.8203125 0.714844,-1.1953125 1.136719,-1.1953125 0.292969,0 0.597656,0.15234375 0.597656,0.48046875 0,0.48046875 -0.621094,1.01953125 -1.617187,1.01953125 z m 0,0"
         style="fill:#000000;fill-opacity:1;fill-rule:nonzero;stroke:none" />
      <path
         id="path23"
         d="m 17.046258,-2.2875313 c 0,0 0.02344,-0.023437 0.02344,-0.046875 0,-0.023437 -0.01172,-0.070312 -0.09375,-0.070312 -0.09375,0 -1.371093,0.796875 -1.371093,2.4960938 0,1.6875 1.277343,2.484375 1.371093,2.484375 0.08203,0 0.09375,-0.046875 0.09375,-0.070312 0,-0.035156 -0.02344,-0.046875 -0.04687,-0.058594 -0.878906,-0.703125 -1.042968,-1.71093745 -1.042968,-2.3554687 0,-1.21875 0.574218,-2.0273438 1.066406,-2.3789063 z m 0,0"
         style="fill:#000000;fill-opacity:1;fill-rule:nonzero;stroke:none" />
      <path
         id="path24"
         d="m 20.693719,-0.48284375 c 0.02344,-0.0820313 0.02344,-0.09375 0.02344,-0.10546875 0,-0.09375 -0.07031,-0.17578125 -0.1875,-0.17578125 -0.09375,0 -0.210937,0.0703125 -0.246093,0.1875 -0.164063,-0.2109375 -0.375,-0.29296875 -0.597657,-0.29296875 -0.679687,0 -1.382812,0.64453125 -1.382812,1.34765625 0,0.52734375 0.398437,0.85546875 0.867187,0.85546875 0.316407,0 0.585938,-0.1757813 0.703125,-0.2695313 -0.01172,0.046875 -0.09375,0.3867188 -0.117187,0.46875 -0.04687,0.1875 -0.08203,0.328125 -0.304688,0.4921875 -0.234375,0.1640625 -0.457031,0.1640625 -0.597656,0.1640625 -0.04687,0 -0.410156,-0.011719 -0.410156,-0.035156 l 0.02344,-0.023437 c 0.08203,-0.070312 0.117188,-0.1875 0.117188,-0.234375 0,-0.082031 -0.07031,-0.1992188 -0.234375,-0.1992188 -0.152344,0 -0.304688,0.140625 -0.304688,0.328125 0,0.328125 0.503907,0.328125 0.808594,0.328125 0.679688,0 1.195313,-0.2226562 1.3125,-0.7148437 z M 19.978875,0.6304375 C 19.967156,0.70075 19.955438,0.7241875 19.861688,0.82965625 19.674188,1.0054375 19.451531,1.1695 19.193719,1.1695 c -0.199219,0 -0.445313,-0.1054688 -0.445313,-0.50390625 0,-0.19921875 0.09375,-0.66796875 0.28125,-0.9609375 0.128907,-0.2109375 0.386719,-0.3984375 0.65625,-0.3984375 0.410157,0 0.515625,0.38671875 0.515625,0.43359375 0,0 0,0.0351563 -0.01172,0.0703125 z m 0,0"
         style="fill:#000000;fill-opacity:1;fill-rule:nonzero;stroke:none" />
      <path
         id="path25"
         d="m 23.166375,0.091375 c 0,-1.6875 -1.277344,-2.4960938 -1.382812,-2.4960938 -0.07031,0 -0.07031,0.058594 -0.07031,0.070312 0,0.011719 0,0.035156 0.02344,0.070312 0.75,0.5859375 1.042968,1.45312505 1.042968,2.3554688 0,0.4453125 -0.08203,0.9140625 -0.246093,1.3242187 -0.246094,0.5625 -0.550782,0.84375 -0.796875,1.0429688 -0.01172,0 -0.02344,0.035156 -0.02344,0.046875 0,0.011719 0,0.070312 0.07031,0.070312 0.105468,0 1.382812,-0.796875 1.382812,-2.484375 z m 0,0"
         style="fill:#000000;fill-opacity:1;fill-rule:nonzero;stroke:none" />
    </g>
  </g>
</svg>
