<?xml version="1.0" encoding="UTF-8"?>
<svg xmlns="http://www.w3.org/2000/svg" xmlns:xlink="http://www.w3.org/1999/xlink" width="153.673" height="80.149" viewBox="0 0 153.673 80.149">
<defs>
<g>
<g id="glyph-0-0">
<path d="M 3.703125 -3.25 C 3.796875 -3.34375 3.796875 -3.390625 3.796875 -3.40625 C 3.796875 -3.453125 3.765625 -3.515625 3.734375 -3.546875 L 1.6875 -6.5 L 3.984375 -6.5 C 5.671875 -6.5 6.171875 -6.140625 6.375 -4.5625 L 6.625 -4.5625 L 6.34375 -6.8125 L 0.8125 -6.8125 C 0.578125 -6.8125 0.5625 -6.8125 0.5625 -6.578125 L 3.046875 -2.96875 L 0.671875 -0.265625 C 0.5625 -0.15625 0.5625 -0.140625 0.5625 -0.109375 C 0.5625 0 0.671875 0 0.8125 0 L 6.34375 0 L 6.625 -2.359375 L 6.375 -2.359375 C 6.203125 -0.6875 5.515625 -0.421875 3.953125 -0.421875 L 1.203125 -0.421875 Z M 3.703125 -3.25 "/>
</g>
<g id="glyph-1-0">
<path d="M 6.4375 -6.921875 C 6.4375 -6.953125 6.40625 -7.03125 6.3125 -7.03125 C 6.265625 -7.03125 6.265625 -7.015625 6.140625 -6.875 L 5.65625 -6.3125 C 5.40625 -6.78125 4.890625 -7.03125 4.234375 -7.03125 C 2.96875 -7.03125 1.78125 -5.875 1.78125 -4.671875 C 1.78125 -3.875 2.296875 -3.40625 2.8125 -3.265625 L 3.875 -2.984375 C 4.25 -2.890625 4.796875 -2.734375 4.796875 -1.921875 C 4.796875 -1.03125 3.984375 -0.09375 3 -0.09375 C 2.359375 -0.09375 1.25 -0.3125 1.25 -1.546875 C 1.25 -1.78125 1.3125 -2.03125 1.3125 -2.078125 C 1.328125 -2.125 1.328125 -2.140625 1.328125 -2.15625 C 1.328125 -2.25 1.265625 -2.265625 1.21875 -2.265625 C 1.171875 -2.265625 1.140625 -2.25 1.109375 -2.21875 C 1.078125 -2.1875 0.515625 0.09375 0.515625 0.125 C 0.515625 0.171875 0.5625 0.21875 0.625 0.21875 C 0.671875 0.21875 0.6875 0.203125 0.8125 0.0625 L 1.296875 -0.5 C 1.71875 0.078125 2.40625 0.21875 2.984375 0.21875 C 4.34375 0.21875 5.515625 -1.109375 5.515625 -2.34375 C 5.515625 -3.03125 5.171875 -3.375 5.03125 -3.515625 C 4.796875 -3.734375 4.640625 -3.78125 3.765625 -4 C 3.53125 -4.0625 3.1875 -4.171875 3.09375 -4.1875 C 2.828125 -4.28125 2.484375 -4.5625 2.484375 -5.09375 C 2.484375 -5.90625 3.28125 -6.75 4.234375 -6.75 C 5.046875 -6.75 5.65625 -6.3125 5.65625 -5.203125 C 5.65625 -4.890625 5.625 -4.703125 5.625 -4.640625 C 5.625 -4.640625 5.625 -4.546875 5.734375 -4.546875 C 5.84375 -4.546875 5.859375 -4.578125 5.890625 -4.75 Z M 6.4375 -6.921875 "/>
</g>
<g id="glyph-2-0">
<path d="M 2.328125 -4.4375 C 2.328125 -4.625 2.328125 -4.625 2.125 -4.625 C 1.671875 -4.1875 1.046875 -4.1875 0.765625 -4.1875 L 0.765625 -3.9375 C 0.921875 -3.9375 1.390625 -3.9375 1.765625 -4.125 L 1.765625 -0.578125 C 1.765625 -0.34375 1.765625 -0.25 1.078125 -0.25 L 0.8125 -0.25 L 0.8125 0 C 0.9375 0 1.796875 -0.03125 2.046875 -0.03125 C 2.265625 -0.03125 3.140625 0 3.296875 0 L 3.296875 -0.25 L 3.03125 -0.25 C 2.328125 -0.25 2.328125 -0.34375 2.328125 -0.578125 Z M 2.328125 -4.4375 "/>
</g>
<g id="glyph-3-0">
<path d="M 2.015625 -3.296875 C 2.078125 -3.40625 2.078125 -3.46875 2.078125 -3.515625 C 2.078125 -3.734375 1.890625 -3.890625 1.671875 -3.890625 C 1.40625 -3.890625 1.328125 -3.671875 1.296875 -3.5625 L 0.375 -0.546875 C 0.359375 -0.53125 0.328125 -0.453125 0.328125 -0.4375 C 0.328125 -0.359375 0.546875 -0.28125 0.609375 -0.28125 C 0.65625 -0.28125 0.65625 -0.296875 0.703125 -0.40625 Z M 2.015625 -3.296875 "/>
</g>
<g id="glyph-4-0">
<path d="M 2.84375 -2.75 L 3.515625 -2.75 C 3.65625 -2.75 3.75 -2.75 3.75 -2.90625 C 3.75 -3 3.65625 -3 3.53125 -3 L 2.890625 -3 C 3.046875 -3.890625 3.09375 -4.203125 3.15625 -4.40625 C 3.1875 -4.5625 3.34375 -4.703125 3.515625 -4.703125 C 3.515625 -4.703125 3.703125 -4.703125 3.84375 -4.625 C 3.546875 -4.53125 3.53125 -4.28125 3.53125 -4.25 C 3.53125 -4.09375 3.65625 -3.984375 3.8125 -3.984375 C 4 -3.984375 4.203125 -4.140625 4.203125 -4.40625 C 4.203125 -4.734375 3.875 -4.90625 3.515625 -4.90625 C 3.203125 -4.90625 2.859375 -4.734375 2.671875 -4.390625 C 2.53125 -4.125 2.484375 -3.8125 2.328125 -3 L 1.78125 -3 C 1.640625 -3 1.546875 -3 1.546875 -2.84375 C 1.546875 -2.75 1.640625 -2.75 1.765625 -2.75 L 2.28125 -2.75 C 2.28125 -2.703125 1.84375 -0.203125 1.671875 0.546875 C 1.640625 0.703125 1.515625 1.21875 1.1875 1.21875 C 1.171875 1.21875 1.015625 1.21875 0.875 1.140625 C 1.15625 1.046875 1.1875 0.796875 1.1875 0.765625 C 1.1875 0.609375 1.0625 0.5 0.90625 0.5 C 0.71875 0.5 0.515625 0.65625 0.515625 0.921875 C 0.515625 1.234375 0.84375 1.421875 1.1875 1.421875 C 1.625 1.421875 1.9375 0.96875 2.015625 0.8125 C 2.265625 0.34375 2.4375 -0.515625 2.453125 -0.59375 Z M 2.84375 -2.75 "/>
</g>
<g id="glyph-4-1">
<path d="M 3.109375 -0.96875 C 3.078125 -1.375 2.84375 -3.078125 1.703125 -3.078125 C 1.296875 -3.078125 0.9375 -2.84375 0.75 -2.671875 C 0.328125 -2.28125 0.234375 -1.84375 0.234375 -1.8125 C 0.234375 -1.734375 0.328125 -1.734375 0.34375 -1.734375 C 0.4375 -1.734375 0.453125 -1.75 0.484375 -1.859375 C 0.625 -2.265625 1.140625 -2.515625 1.609375 -2.515625 C 2.734375 -2.515625 2.875 -1.390625 2.875 -0.6875 C 2.875 -0.328125 2.859375 -0.265625 2.828125 -0.1875 C 2.671875 0.34375 2.453125 1.109375 2.453125 1.328125 C 2.453125 1.40625 2.484375 1.484375 2.578125 1.484375 C 2.625 1.484375 2.703125 1.484375 2.8125 1.125 C 2.90625 0.859375 3.03125 0.34375 3.09375 -0.15625 C 3.109375 -0.40625 3.5 -1.34375 3.65625 -1.671875 C 3.75 -1.890625 3.890625 -2.21875 4.21875 -2.828125 C 4.25 -2.859375 4.265625 -2.890625 4.265625 -2.921875 C 4.265625 -3 4.171875 -3 4.140625 -3 C 4.125 -3 4.0625 -3 4.046875 -2.96875 C 3.953125 -2.828125 3.421875 -1.828125 3.109375 -0.96875 Z M 3.109375 -0.96875 "/>
</g>
<g id="glyph-5-0">
<path d="M 4.390625 -1.109375 C 4.46875 -1.109375 4.59375 -1.109375 4.59375 -1.25 C 4.59375 -1.390625 4.46875 -1.390625 4.390625 -1.390625 L 1.015625 -1.390625 C 0.9375 -1.390625 0.796875 -1.390625 0.796875 -1.25 C 0.796875 -1.109375 0.9375 -1.109375 1.015625 -1.109375 Z M 4.390625 -1.109375 "/>
</g>
<g id="glyph-5-1">
<path d="M 1.796875 -2.3125 C 1.796875 -2.328125 1.84375 -2.421875 1.84375 -2.5 C 1.84375 -2.671875 1.6875 -2.78125 1.53125 -2.78125 C 1.328125 -2.78125 1.28125 -2.625 1.25 -2.5625 L 0.484375 -0.40625 C 0.46875 -0.34375 0.46875 -0.328125 0.46875 -0.3125 C 0.46875 -0.234375 0.671875 -0.1875 0.671875 -0.1875 C 0.71875 -0.1875 0.734375 -0.21875 0.765625 -0.28125 Z M 1.796875 -2.3125 "/>
</g>
<g id="glyph-6-0">
<path d="M 2.703125 -1.109375 L 4.4375 -1.109375 C 4.5 -1.109375 4.640625 -1.109375 4.640625 -1.25 C 4.640625 -1.390625 4.5 -1.390625 4.4375 -1.390625 L 2.703125 -1.390625 L 2.703125 -3.125 C 2.703125 -3.1875 2.703125 -3.328125 2.5625 -3.328125 C 2.421875 -3.328125 2.421875 -3.1875 2.421875 -3.125 L 2.421875 -1.390625 L 0.6875 -1.390625 C 0.625 -1.390625 0.484375 -1.390625 0.484375 -1.25 C 0.484375 -1.109375 0.625 -1.109375 0.6875 -1.109375 L 2.421875 -1.109375 L 2.421875 0.625 C 2.421875 0.703125 2.421875 0.828125 2.5625 0.828125 C 2.703125 0.828125 2.703125 0.703125 2.703125 0.625 Z M 2.703125 -1.109375 "/>
</g>
</g>
</defs>
<g fill="rgb(0%, 0%, 0%)" fill-opacity="1">
<use xlink:href="#glyph-0-0" x="73.239" y="10.454"/>
</g>
<g fill="rgb(0%, 0%, 0%)" fill-opacity="1">
<use xlink:href="#glyph-1-0" x="4.289" y="43.788"/>
</g>
<g fill="rgb(0%, 0%, 0%)" fill-opacity="1">
<use xlink:href="#glyph-2-0" x="10.973" y="40.173"/>
</g>
<g fill="rgb(0%, 0%, 0%)" fill-opacity="1">
<use xlink:href="#glyph-1-0" x="138.231" y="43.788"/>
</g>
<g fill="rgb(0%, 0%, 0%)" fill-opacity="1">
<use xlink:href="#glyph-2-0" x="144.915" y="40.173"/>
</g>
<g fill="rgb(0%, 0%, 0%)" fill-opacity="1">
<use xlink:href="#glyph-0-0" x="71.842" y="76.503"/>
</g>
<g fill="rgb(0%, 0%, 0%)" fill-opacity="1">
<use xlink:href="#glyph-3-0" x="79.037" y="72.888"/>
</g>
<path fill="none" stroke-width="0.39848" stroke-linecap="butt" stroke-linejoin="miter" stroke="rgb(0%, 0%, 0%)" stroke-opacity="1" stroke-miterlimit="10" d="M -0.0010625 25.777125 L -0.0010625 -24.695531 " transform="matrix(1, 0, 0, -1, 76.837, 40.074)"/>
<path fill="none" stroke-width="0.39848" stroke-linecap="round" stroke-linejoin="round" stroke="rgb(0%, 0%, 0%)" stroke-opacity="1" stroke-miterlimit="10" d="M -2.073989 2.389562 C -1.695082 0.955969 -0.851332 0.280187 0.00023 -0.0010625 C -0.851332 -0.278406 -1.695082 -0.958094 -2.073989 -2.391688 " transform="matrix(0, 1, 1, 0, 76.837, 64.96852)"/>
<g fill="rgb(0%, 0%, 0%)" fill-opacity="1">
<use xlink:href="#glyph-4-0" x="79.181" y="41.477"/>
</g>
<path fill="none" stroke-width="0.39848" stroke-linecap="butt" stroke-linejoin="miter" stroke="rgb(0%, 0%, 0%)" stroke-opacity="1" stroke-miterlimit="10" d="M -55.622156 4.421656 L -8.442469 27.913844 " transform="matrix(1, 0, 0, -1, 76.837, 40.074)"/>
<path fill="none" stroke-width="0.39848" stroke-linecap="round" stroke-linejoin="miter" stroke="rgb(0%, 0%, 0%)" stroke-opacity="1" stroke-miterlimit="10" d="M 0.0000700335 1.953501 C 0.681415 1.95234 1.234485 1.516384 1.237059 0.976543 C 1.234395 0.438458 0.679837 0.000894966 0.000232906 -0.00144108 " transform="matrix(-0.89513, 0.44566, -0.44566, -0.89513, 21.21441, 35.65095)"/>
<path fill="none" stroke-width="0.39848" stroke-linecap="round" stroke-linejoin="round" stroke="rgb(0%, 0%, 0%)" stroke-opacity="1" stroke-miterlimit="10" d="M -2.071659 2.39069 C -1.695374 0.955267 -0.850416 0.277098 -0.000897575 0.00249967 C -0.847732 -0.278453 -1.692149 -0.957723 -2.074078 -2.39093 " transform="matrix(0.89513, -0.44568, -0.44568, -0.89513, 68.57223, 12.07215)"/>
<g fill="rgb(0%, 0%, 0%)" fill-opacity="1">
<use xlink:href="#glyph-4-1" x="31.917" y="19.967"/>
</g>
<g fill="rgb(0%, 0%, 0%)" fill-opacity="1">
<use xlink:href="#glyph-5-0" x="36.102" y="20.963"/>
</g>
<path fill="none" stroke-width="0.39848" stroke-linecap="butt" stroke-linejoin="miter" stroke="rgb(0%, 0%, 0%)" stroke-opacity="1" stroke-miterlimit="10" d="M -55.61825 -6.765844 L -9.840906 -29.133031 " transform="matrix(1, 0, 0, -1, 76.837, 40.074)"/>
<path fill="none" stroke-width="0.39848" stroke-linecap="round" stroke-linejoin="miter" stroke="rgb(0%, 0%, 0%)" stroke-opacity="1" stroke-miterlimit="10" d="M -0.000453303 1.95056 C 0.680923 1.953064 1.234226 1.514732 1.236292 0.976619 C 1.234849 0.436791 0.682292 0.00158589 0.000915734 -0.000917405 " transform="matrix(-0.89845, -0.439, -0.439, 0.89845, 21.21917, 46.84107)"/>
<path fill="none" stroke-width="0.39848" stroke-linecap="round" stroke-linejoin="round" stroke="rgb(0%, 0%, 0%)" stroke-opacity="1" stroke-miterlimit="10" d="M -2.07106 2.391812 C -1.691106 0.955748 -0.85172 0.278947 0.00179104 0.000346448 C -0.848098 -0.280145 -1.691133 -0.957282 -2.072881 -2.39162 " transform="matrix(0.89845, 0.439, 0.439, -0.89845, 67.17402, 69.2964)"/>
<g fill="rgb(0%, 0%, 0%)" fill-opacity="1">
<use xlink:href="#glyph-4-1" x="31.219" y="65.916"/>
</g>
<g fill="rgb(0%, 0%, 0%)" fill-opacity="1">
<use xlink:href="#glyph-5-1" x="35.832" y="62.909"/>
</g>
<g fill="rgb(0%, 0%, 0%)" fill-opacity="1">
<use xlink:href="#glyph-5-0" x="35.403" y="67.908"/>
</g>
<path fill="none" stroke-width="0.39848" stroke-linecap="butt" stroke-linejoin="miter" stroke="rgb(0%, 0%, 0%)" stroke-opacity="1" stroke-miterlimit="10" d="M 55.623937 4.421656 L 8.44425 27.913844 " transform="matrix(1, 0, 0, -1, 76.837, 40.074)"/>
<path fill="none" stroke-width="0.39848" stroke-linecap="round" stroke-linejoin="miter" stroke="rgb(0%, 0%, 0%)" stroke-opacity="1" stroke-miterlimit="10" d="M -0.00183236 1.952554 C 0.68301 1.953134 1.23608 1.517178 1.235157 0.975596 C 1.23599 0.439252 0.681432 0.0016889 0.00182756 -0.000647144 " transform="matrix(0.89513, 0.44566, 0.44566, -0.89513, 132.45959, 35.65095)"/>
<path fill="none" stroke-width="0.39848" stroke-linecap="round" stroke-linejoin="round" stroke="rgb(0%, 0%, 0%)" stroke-opacity="1" stroke-miterlimit="10" d="M -2.072176 2.391878 C -1.693743 0.956929 -0.849327 0.277659 0.00100479 -0.0015525 C -0.852011 -0.277892 -1.693472 -0.95432 -2.073253 -2.391484 " transform="matrix(-0.89513, -0.44568, -0.44568, 0.89513, 85.10177, 12.07215)"/>
<g fill="rgb(0%, 0%, 0%)" fill-opacity="1">
<use xlink:href="#glyph-4-1" x="111.677" y="19.967"/>
</g>
<g fill="rgb(0%, 0%, 0%)" fill-opacity="1">
<use xlink:href="#glyph-6-0" x="115.862" y="20.963"/>
</g>
<path fill="none" stroke-width="0.39848" stroke-linecap="butt" stroke-linejoin="miter" stroke="rgb(0%, 0%, 0%)" stroke-opacity="1" stroke-miterlimit="10" d="M 55.616125 -6.765844 L 9.842687 -29.133031 " transform="matrix(1, 0, 0, -1, 76.837, 40.074)"/>
<path fill="none" stroke-width="0.39848" stroke-linecap="round" stroke-linejoin="miter" stroke="rgb(0%, 0%, 0%)" stroke-opacity="1" stroke-miterlimit="10" d="M 0.00114717 1.951342 C 0.682523 1.953846 1.235826 1.515514 1.234383 0.975686 C 1.236449 0.437573 0.680382 0.000652949 -0.0009936 -0.00185034 " transform="matrix(0.89845, -0.439, 0.439, 0.89845, 132.45483, 46.84107)"/>
<path fill="none" stroke-width="0.39848" stroke-linecap="round" stroke-linejoin="round" stroke="rgb(0%, 0%, 0%)" stroke-opacity="1" stroke-miterlimit="10" d="M -2.070972 2.390687 C -1.692733 0.958064 -0.849699 0.280927 0.000190569 0.000435573 C -0.849811 -0.27988 -1.692707 -0.954966 -2.072661 -2.39103 " transform="matrix(-0.89845, 0.439, 0.439, 0.89845, 86.49998, 69.2964)"/>
<g fill="rgb(0%, 0%, 0%)" fill-opacity="1">
<use xlink:href="#glyph-4-1" x="112.376" y="65.916"/>
</g>
<g fill="rgb(0%, 0%, 0%)" fill-opacity="1">
<use xlink:href="#glyph-5-1" x="116.99" y="62.909"/>
</g>
<g fill="rgb(0%, 0%, 0%)" fill-opacity="1">
<use xlink:href="#glyph-6-0" x="116.561" y="67.908"/>
</g>
</svg>
