<?xml version="1.0" encoding="UTF-8"?>
<svg xmlns="http://www.w3.org/2000/svg" xmlns:xlink="http://www.w3.org/1999/xlink" width="449.376" height="177.826" viewBox="0 0 449.376 177.826">
<defs>
<g>
<g id="glyph-0-0">
<path d="M 5.953125 -5.671875 L 6.09375 -5.8125 C 6.390625 -6.109375 6.71875 -6.453125 7.390625 -6.5 C 7.5 -6.515625 7.59375 -6.515625 7.59375 -6.6875 C 7.59375 -6.765625 7.546875 -6.8125 7.46875 -6.8125 C 7.203125 -6.8125 6.921875 -6.78125 6.65625 -6.78125 C 6.3125 -6.78125 5.96875 -6.8125 5.65625 -6.8125 C 5.59375 -6.8125 5.46875 -6.8125 5.46875 -6.625 C 5.46875 -6.515625 5.5625 -6.5 5.609375 -6.5 C 5.6875 -6.5 5.96875 -6.484375 5.96875 -6.265625 C 5.96875 -6.09375 5.734375 -5.84375 5.703125 -5.796875 L 3.390625 -3.125 L 2.296875 -6.09375 C 2.234375 -6.234375 2.234375 -6.25 2.234375 -6.265625 C 2.234375 -6.5 2.71875 -6.5 2.828125 -6.5 C 2.953125 -6.5 3.0625 -6.5 3.0625 -6.703125 C 3.0625 -6.8125 2.9375 -6.8125 2.90625 -6.8125 C 2.625 -6.8125 1.9375 -6.78125 1.65625 -6.78125 C 1.40625 -6.78125 0.78125 -6.8125 0.53125 -6.8125 C 0.484375 -6.8125 0.34375 -6.8125 0.34375 -6.609375 C 0.34375 -6.5 0.453125 -6.5 0.578125 -6.5 C 1.171875 -6.5 1.21875 -6.40625 1.3125 -6.15625 L 2.53125 -2.875 C 2.546875 -2.84375 2.578125 -2.734375 2.578125 -2.71875 C 2.578125 -2.6875 2.171875 -1.078125 2.125 -0.890625 C 2 -0.34375 1.984375 -0.3125 1.1875 -0.3125 C 1 -0.3125 0.921875 -0.3125 0.921875 -0.109375 C 0.921875 0 1.03125 0 1.0625 0 C 1.328125 0 2.03125 -0.03125 2.3125 -0.03125 C 2.59375 -0.03125 3.3125 0 3.59375 0 C 3.65625 0 3.78125 0 3.78125 -0.203125 C 3.78125 -0.3125 3.6875 -0.3125 3.5 -0.3125 C 3.484375 -0.3125 3.296875 -0.3125 3.125 -0.328125 C 2.90625 -0.34375 2.84375 -0.375 2.84375 -0.484375 C 2.84375 -0.5625 2.9375 -0.90625 2.984375 -1.109375 L 3.34375 -2.515625 C 3.390625 -2.71875 3.40625 -2.734375 3.484375 -2.828125 Z M 5.953125 -5.671875 "/>
</g>
<g id="glyph-0-1">
<path d="M 1.78125 -1.140625 C 1.390625 -0.484375 1 -0.34375 0.5625 -0.3125 C 0.4375 -0.296875 0.34375 -0.296875 0.34375 -0.109375 C 0.34375 -0.046875 0.40625 0 0.484375 0 C 0.75 0 1.0625 -0.03125 1.328125 -0.03125 C 1.671875 -0.03125 2.015625 0 2.328125 0 C 2.390625 0 2.515625 0 2.515625 -0.1875 C 2.515625 -0.296875 2.4375 -0.3125 2.359375 -0.3125 C 2.140625 -0.328125 1.890625 -0.40625 1.890625 -0.65625 C 1.890625 -0.78125 1.953125 -0.890625 2.03125 -1.03125 L 2.796875 -2.296875 L 5.296875 -2.296875 C 5.3125 -2.09375 5.453125 -0.734375 5.453125 -0.640625 C 5.453125 -0.34375 4.9375 -0.3125 4.734375 -0.3125 C 4.59375 -0.3125 4.5 -0.3125 4.5 -0.109375 C 4.5 0 4.609375 0 4.640625 0 C 5.046875 0 5.46875 -0.03125 5.875 -0.03125 C 6.125 -0.03125 6.765625 0 7.015625 0 C 7.0625 0 7.1875 0 7.1875 -0.203125 C 7.1875 -0.3125 7.09375 -0.3125 6.953125 -0.3125 C 6.34375 -0.3125 6.34375 -0.375 6.3125 -0.671875 L 5.703125 -6.890625 C 5.6875 -7.09375 5.6875 -7.140625 5.515625 -7.140625 C 5.359375 -7.140625 5.3125 -7.0625 5.25 -6.96875 Z M 2.984375 -2.609375 L 4.9375 -5.90625 L 5.265625 -2.609375 Z M 2.984375 -2.609375 "/>
</g>
<g id="glyph-0-2">
<path d="M 3.71875 -3.765625 C 3.53125 -4.140625 3.25 -4.40625 2.796875 -4.40625 C 1.640625 -4.40625 0.40625 -2.9375 0.40625 -1.484375 C 0.40625 -0.546875 0.953125 0.109375 1.71875 0.109375 C 1.921875 0.109375 2.421875 0.0625 3.015625 -0.640625 C 3.09375 -0.21875 3.453125 0.109375 3.921875 0.109375 C 4.28125 0.109375 4.5 -0.125 4.671875 -0.4375 C 4.828125 -0.796875 4.96875 -1.40625 4.96875 -1.421875 C 4.96875 -1.53125 4.875 -1.53125 4.84375 -1.53125 C 4.75 -1.53125 4.734375 -1.484375 4.703125 -1.34375 C 4.53125 -0.703125 4.359375 -0.109375 3.953125 -0.109375 C 3.671875 -0.109375 3.65625 -0.375 3.65625 -0.5625 C 3.65625 -0.78125 3.671875 -0.875 3.78125 -1.3125 C 3.890625 -1.71875 3.90625 -1.828125 4 -2.203125 L 4.359375 -3.59375 C 4.421875 -3.875 4.421875 -3.890625 4.421875 -3.9375 C 4.421875 -4.109375 4.3125 -4.203125 4.140625 -4.203125 C 3.890625 -4.203125 3.75 -3.984375 3.71875 -3.765625 Z M 3.078125 -1.1875 C 3.015625 -1 3.015625 -0.984375 2.875 -0.8125 C 2.4375 -0.265625 2.03125 -0.109375 1.75 -0.109375 C 1.25 -0.109375 1.109375 -0.65625 1.109375 -1.046875 C 1.109375 -1.546875 1.421875 -2.765625 1.65625 -3.234375 C 1.96875 -3.8125 2.40625 -4.1875 2.8125 -4.1875 C 3.453125 -4.1875 3.59375 -3.375 3.59375 -3.3125 C 3.59375 -3.25 3.578125 -3.1875 3.5625 -3.140625 Z M 3.078125 -1.1875 "/>
</g>
<g id="glyph-0-3">
<path d="M 4.828125 -4.09375 L 4 -6.078125 C 3.96875 -6.15625 3.953125 -6.203125 3.953125 -6.203125 C 3.953125 -6.265625 4.109375 -6.453125 4.53125 -6.5 C 4.640625 -6.515625 4.734375 -6.515625 4.734375 -6.6875 C 4.734375 -6.8125 4.609375 -6.8125 4.578125 -6.8125 C 4.171875 -6.8125 3.75 -6.78125 3.328125 -6.78125 C 3.078125 -6.78125 2.46875 -6.8125 2.21875 -6.8125 C 2.15625 -6.8125 2.03125 -6.8125 2.03125 -6.609375 C 2.03125 -6.5 2.140625 -6.5 2.265625 -6.5 C 2.859375 -6.5 2.921875 -6.40625 3.015625 -6.1875 L 4.1875 -3.40625 L 2.078125 -1.140625 L 1.953125 -1.03125 C 1.46875 -0.5 1 -0.34375 0.484375 -0.3125 C 0.359375 -0.296875 0.265625 -0.296875 0.265625 -0.109375 C 0.265625 -0.09375 0.265625 0 0.40625 0 C 0.703125 0 1.03125 -0.03125 1.328125 -0.03125 C 1.703125 -0.03125 2.09375 0 2.453125 0 C 2.515625 0 2.625 0 2.625 -0.203125 C 2.625 -0.296875 2.53125 -0.3125 2.515625 -0.3125 C 2.421875 -0.3125 2.109375 -0.34375 2.109375 -0.625 C 2.109375 -0.78125 2.265625 -0.9375 2.375 -1.0625 L 3.40625 -2.140625 L 4.296875 -3.125 L 5.296875 -0.734375 C 5.34375 -0.625 5.359375 -0.625 5.359375 -0.59375 C 5.359375 -0.515625 5.15625 -0.34375 4.78125 -0.3125 C 4.671875 -0.296875 4.578125 -0.296875 4.578125 -0.125 C 4.578125 0 4.6875 0 4.71875 0 C 5 0 5.703125 -0.03125 5.984375 -0.03125 C 6.234375 -0.03125 6.84375 0 7.09375 0 C 7.15625 0 7.28125 0 7.28125 -0.1875 C 7.28125 -0.3125 7.171875 -0.3125 7.09375 -0.3125 C 6.4375 -0.3125 6.40625 -0.34375 6.234375 -0.75 C 5.859375 -1.671875 5.1875 -3.234375 4.953125 -3.828125 C 5.625 -4.53125 6.671875 -5.71875 7 -5.984375 C 7.28125 -6.234375 7.671875 -6.46875 8.265625 -6.5 C 8.390625 -6.515625 8.484375 -6.515625 8.484375 -6.703125 C 8.484375 -6.703125 8.484375 -6.8125 8.359375 -6.8125 C 8.0625 -6.8125 7.71875 -6.78125 7.421875 -6.78125 C 7.046875 -6.78125 6.671875 -6.8125 6.3125 -6.8125 C 6.25 -6.8125 6.125 -6.8125 6.125 -6.609375 C 6.125 -6.546875 6.171875 -6.515625 6.234375 -6.5 C 6.328125 -6.484375 6.640625 -6.46875 6.640625 -6.1875 C 6.640625 -6.046875 6.53125 -5.921875 6.453125 -5.828125 Z M 4.828125 -4.09375 "/>
</g>
<g id="glyph-0-4">
<path d="M 3.65625 -3.984375 L 4.515625 -3.984375 C 4.71875 -3.984375 4.8125 -3.984375 4.8125 -4.1875 C 4.8125 -4.296875 4.71875 -4.296875 4.546875 -4.296875 L 3.71875 -4.296875 L 3.921875 -5.4375 C 3.96875 -5.640625 4.109375 -6.34375 4.171875 -6.46875 C 4.25 -6.65625 4.421875 -6.8125 4.640625 -6.8125 C 4.671875 -6.8125 4.9375 -6.8125 5.125 -6.625 C 4.6875 -6.59375 4.578125 -6.234375 4.578125 -6.09375 C 4.578125 -5.859375 4.765625 -5.734375 4.953125 -5.734375 C 5.21875 -5.734375 5.5 -5.96875 5.5 -6.34375 C 5.5 -6.796875 5.046875 -7.03125 4.640625 -7.03125 C 4.296875 -7.03125 3.671875 -6.84375 3.375 -5.859375 C 3.3125 -5.65625 3.28125 -5.546875 3.046875 -4.296875 L 2.359375 -4.296875 C 2.15625 -4.296875 2.046875 -4.296875 2.046875 -4.109375 C 2.046875 -3.984375 2.140625 -3.984375 2.328125 -3.984375 L 2.984375 -3.984375 L 2.25 -0.046875 C 2.0625 0.921875 1.890625 1.828125 1.375 1.828125 C 1.328125 1.828125 1.09375 1.828125 0.890625 1.640625 C 1.359375 1.609375 1.453125 1.25 1.453125 1.109375 C 1.453125 0.875 1.265625 0.75 1.078125 0.75 C 0.8125 0.75 0.53125 0.984375 0.53125 1.359375 C 0.53125 1.796875 0.96875 2.046875 1.375 2.046875 C 1.921875 2.046875 2.328125 1.453125 2.5 1.078125 C 2.828125 0.453125 3.046875 -0.75 3.0625 -0.828125 Z M 3.65625 -3.984375 "/>
</g>
<g id="glyph-0-5">
<path d="M 4.5 -4.296875 C 4.5 -4.34375 4.46875 -4.390625 4.40625 -4.390625 C 4.296875 -4.390625 3.890625 -4 3.734375 -3.703125 C 3.515625 -4.25 3.125 -4.40625 2.796875 -4.40625 C 1.625 -4.40625 0.40625 -2.9375 0.40625 -1.484375 C 0.40625 -0.515625 0.984375 0.109375 1.71875 0.109375 C 2.140625 0.109375 2.53125 -0.125 2.890625 -0.484375 C 2.796875 -0.140625 2.46875 1.203125 2.4375 1.296875 C 2.359375 1.578125 2.28125 1.609375 1.71875 1.625 C 1.59375 1.625 1.5 1.625 1.5 1.828125 C 1.5 1.828125 1.5 1.9375 1.625 1.9375 C 1.9375 1.9375 2.296875 1.90625 2.625 1.90625 C 2.953125 1.90625 3.3125 1.9375 3.65625 1.9375 C 3.703125 1.9375 3.828125 1.9375 3.828125 1.734375 C 3.828125 1.625 3.734375 1.625 3.5625 1.625 C 3.09375 1.625 3.09375 1.5625 3.09375 1.46875 C 3.09375 1.390625 3.109375 1.328125 3.125 1.25 Z M 1.75 -0.109375 C 1.140625 -0.109375 1.109375 -0.875 1.109375 -1.046875 C 1.109375 -1.53125 1.390625 -2.609375 1.5625 -3.03125 C 1.875 -3.765625 2.390625 -4.1875 2.796875 -4.1875 C 3.453125 -4.1875 3.59375 -3.375 3.59375 -3.3125 C 3.59375 -3.25 3.046875 -1.0625 3.015625 -1.03125 C 2.859375 -0.75 2.296875 -0.109375 1.75 -0.109375 Z M 1.75 -0.109375 "/>
</g>
<g id="glyph-1-0">
<path d="M 3.296875 2.390625 C 3.296875 2.359375 3.296875 2.34375 3.125 2.171875 C 1.890625 0.921875 1.5625 -0.96875 1.5625 -2.5 C 1.5625 -4.234375 1.9375 -5.96875 3.171875 -7.203125 C 3.296875 -7.328125 3.296875 -7.34375 3.296875 -7.375 C 3.296875 -7.453125 3.265625 -7.484375 3.203125 -7.484375 C 3.09375 -7.484375 2.203125 -6.796875 1.609375 -5.53125 C 1.109375 -4.4375 0.984375 -3.328125 0.984375 -2.5 C 0.984375 -1.71875 1.09375 -0.515625 1.640625 0.625 C 2.25 1.84375 3.09375 2.5 3.203125 2.5 C 3.265625 2.5 3.296875 2.46875 3.296875 2.390625 Z M 3.296875 2.390625 "/>
</g>
<g id="glyph-1-1">
<path d="M 2.875 -2.5 C 2.875 -3.265625 2.765625 -4.46875 2.21875 -5.609375 C 1.625 -6.828125 0.765625 -7.484375 0.671875 -7.484375 C 0.609375 -7.484375 0.5625 -7.4375 0.5625 -7.375 C 0.5625 -7.34375 0.5625 -7.328125 0.75 -7.140625 C 1.734375 -6.15625 2.296875 -4.578125 2.296875 -2.5 C 2.296875 -0.78125 1.9375 0.96875 0.703125 2.21875 C 0.5625 2.34375 0.5625 2.359375 0.5625 2.390625 C 0.5625 2.453125 0.609375 2.5 0.671875 2.5 C 0.765625 2.5 1.671875 1.8125 2.25 0.546875 C 2.765625 -0.546875 2.875 -1.65625 2.875 -2.5 Z M 2.875 -2.5 "/>
</g>
<g id="glyph-1-2">
<path d="M 2.546875 2.5 L 2.546875 2.09375 L 1.578125 2.09375 L 1.578125 -7.078125 L 2.546875 -7.078125 L 2.546875 -7.484375 L 1.171875 -7.484375 L 1.171875 2.5 Z M 2.546875 2.5 "/>
</g>
<g id="glyph-1-3">
<path d="M 1.578125 -7.484375 L 0.21875 -7.484375 L 0.21875 -7.078125 L 1.1875 -7.078125 L 1.1875 2.09375 L 0.21875 2.09375 L 0.21875 2.5 L 1.578125 2.5 Z M 1.578125 -7.484375 "/>
</g>
<g id="glyph-1-4">
<path d="M 6.84375 -3.265625 C 7 -3.265625 7.1875 -3.265625 7.1875 -3.453125 C 7.1875 -3.65625 7 -3.65625 6.859375 -3.65625 L 0.890625 -3.65625 C 0.75 -3.65625 0.5625 -3.65625 0.5625 -3.453125 C 0.5625 -3.265625 0.75 -3.265625 0.890625 -3.265625 Z M 6.859375 -1.328125 C 7 -1.328125 7.1875 -1.328125 7.1875 -1.53125 C 7.1875 -1.71875 7 -1.71875 6.84375 -1.71875 L 0.890625 -1.71875 C 0.75 -1.71875 0.5625 -1.71875 0.5625 -1.53125 C 0.5625 -1.328125 0.75 -1.328125 0.890625 -1.328125 Z M 6.859375 -1.328125 "/>
</g>
<g id="glyph-2-0">
<path d="M 6.03125 -5.609375 C 6.03125 -5.78125 6.03125 -5.96875 5.828125 -5.96875 C 5.625 -5.96875 5.625 -5.78125 5.625 -5.609375 L 5.625 -0.40625 L 1 -0.40625 L 1 -5.609375 C 1 -5.78125 1 -5.96875 0.8125 -5.96875 C 0.609375 -5.96875 0.609375 -5.78125 0.609375 -5.609375 L 0.609375 -0.359375 C 0.609375 -0.046875 0.640625 0 0.96875 0 L 5.671875 0 C 6 0 6.03125 -0.03125 6.03125 -0.359375 Z M 6.03125 -5.609375 "/>
</g>
<g id="glyph-2-1">
<path d="M 6.09375 -5.609375 C 6.09375 -5.78125 6.09375 -5.96875 5.890625 -5.96875 C 5.6875 -5.96875 5.6875 -5.78125 5.6875 -5.609375 L 5.6875 -2 C 5.6875 -0.5 4.0625 -0.171875 3.3125 -0.171875 C 2.875 -0.171875 2.25 -0.265625 1.71875 -0.609375 C 0.953125 -1.09375 0.953125 -1.734375 0.953125 -2 L 0.953125 -5.609375 C 0.953125 -5.78125 0.953125 -5.96875 0.75 -5.96875 C 0.546875 -5.96875 0.546875 -5.78125 0.546875 -5.609375 L 0.546875 -1.953125 C 0.546875 -0.4375 2.078125 0.21875 3.3125 0.21875 C 4.609375 0.21875 6.09375 -0.484375 6.09375 -1.9375 Z M 6.09375 -5.609375 "/>
</g>
<g id="glyph-3-0">
<path d="M 2.84375 -2.75 L 3.515625 -2.75 C 3.65625 -2.75 3.75 -2.75 3.75 -2.90625 C 3.75 -3 3.65625 -3 3.53125 -3 L 2.890625 -3 C 3.046875 -3.890625 3.09375 -4.203125 3.15625 -4.40625 C 3.1875 -4.5625 3.34375 -4.703125 3.515625 -4.703125 C 3.515625 -4.703125 3.703125 -4.703125 3.84375 -4.625 C 3.546875 -4.53125 3.53125 -4.28125 3.53125 -4.25 C 3.53125 -4.09375 3.65625 -3.984375 3.8125 -3.984375 C 4 -3.984375 4.203125 -4.140625 4.203125 -4.40625 C 4.203125 -4.734375 3.875 -4.90625 3.515625 -4.90625 C 3.203125 -4.90625 2.859375 -4.734375 2.671875 -4.390625 C 2.53125 -4.125 2.484375 -3.8125 2.328125 -3 L 1.78125 -3 C 1.640625 -3 1.546875 -3 1.546875 -2.84375 C 1.546875 -2.75 1.640625 -2.75 1.765625 -2.75 L 2.28125 -2.75 C 2.28125 -2.703125 1.84375 -0.203125 1.671875 0.546875 C 1.640625 0.703125 1.515625 1.21875 1.1875 1.21875 C 1.171875 1.21875 1.015625 1.21875 0.875 1.140625 C 1.15625 1.046875 1.1875 0.796875 1.1875 0.765625 C 1.1875 0.609375 1.0625 0.5 0.90625 0.5 C 0.71875 0.5 0.515625 0.65625 0.515625 0.921875 C 0.515625 1.234375 0.84375 1.421875 1.1875 1.421875 C 1.625 1.421875 1.9375 0.96875 2.015625 0.8125 C 2.265625 0.34375 2.4375 -0.515625 2.453125 -0.59375 Z M 2.84375 -2.75 "/>
</g>
</g>
</defs>
<path fill-rule="nonzero" fill="rgb(89.99939%, 89.99939%, 100%)" fill-opacity="1" d="M 44.644531 38.972656 C 44.644531 20.96875 60.507812 6.375 80.078125 6.375 C 99.648438 6.375 115.511719 20.96875 115.511719 38.972656 C 115.511719 44.609375 99.648438 49.175781 80.078125 49.175781 C 60.507812 49.175781 44.644531 44.609375 44.644531 38.972656 Z M 44.644531 38.972656 "/>
<path fill="none" stroke-width="0.79701" stroke-linecap="butt" stroke-linejoin="miter" stroke="rgb(0%, 0%, 0%)" stroke-opacity="1" stroke-miterlimit="10" d="M -35.432469 79.371344 C -35.432469 97.37525 -19.569187 111.969 0.001125 111.969 C 19.571438 111.969 35.434719 97.37525 35.434719 79.371344 " transform="matrix(1, 0, 0, -1, 80.077, 118.344)"/>
<path fill="none" stroke-width="1.19553" stroke-linecap="butt" stroke-linejoin="miter" stroke="rgb(75%, 0%, 0%)" stroke-opacity="1" stroke-dasharray="2.98883 2.98883" stroke-miterlimit="10" d="M -35.432469 79.371344 C -35.432469 85.008063 -19.569187 89.574469 0.001125 89.574469 C 19.571438 89.574469 35.434719 85.008063 35.434719 79.371344 " transform="matrix(1, 0, 0, -1, 80.077, 118.344)"/>
<path fill="none" stroke-width="1.19553" stroke-linecap="butt" stroke-linejoin="miter" stroke="rgb(75%, 0%, 0%)" stroke-opacity="1" stroke-miterlimit="10" d="M 35.434719 79.371344 C 35.434719 73.734625 19.571438 69.168219 0.001125 69.168219 C -19.569187 69.168219 -35.432469 73.734625 -35.432469 79.371344 " transform="matrix(1, 0, 0, -1, 80.077, 118.344)"/>
<g fill="rgb(0%, 0%, 0%)" fill-opacity="1">
<use xlink:href="#glyph-0-0" x="76.078" y="25.37"/>
</g>
<g fill="rgb(75%, 0%, 0%)" fill-opacity="1">
<use xlink:href="#glyph-0-1" x="94.766" y="62.788"/>
</g>
<path fill-rule="nonzero" fill="rgb(75%, 0%, 0%)" fill-opacity="1" d="M 64.054688 47.808594 C 64.054688 46.875 63.296875 46.117188 62.359375 46.117188 C 61.425781 46.117188 60.667969 46.875 60.667969 47.808594 C 60.667969 48.746094 61.425781 49.503906 62.359375 49.503906 C 63.296875 49.503906 64.054688 48.746094 64.054688 47.808594 Z M 64.054688 47.808594 "/>
<g fill="rgb(75%, 0%, 0%)" fill-opacity="1">
<use xlink:href="#glyph-0-2" x="59.727" y="55.688"/>
</g>
<path fill-rule="nonzero" fill="rgb(100%, 93.998718%, 87.998962%)" fill-opacity="1" stroke-width="0.79701" stroke-linecap="butt" stroke-linejoin="miter" stroke="rgb(0%, 0%, 0%)" stroke-opacity="1" stroke-miterlimit="10" d="M 73.700344 0.00025 C 73.700344 14.090094 40.70425 25.511969 0.001125 25.511969 C -40.705906 25.511969 -73.702 14.090094 -73.702 0.00025 C -73.702 -14.089594 -40.705906 -25.511469 0.001125 -25.511469 C 40.70425 -25.511469 73.700344 -14.089594 73.700344 0.00025 Z M 73.700344 0.00025 " transform="matrix(1, 0, 0, -1, 80.077, 118.344)"/>
<path fill="none" stroke-width="1.19553" stroke-linecap="butt" stroke-linejoin="miter" stroke="rgb(75%, 0%, 0%)" stroke-opacity="1" stroke-miterlimit="10" d="M 35.434719 0.00025 C 35.434719 5.636969 19.571438 10.203375 0.001125 10.203375 C -19.569187 10.203375 -35.432469 5.636969 -35.432469 0.00025 C -35.432469 -5.636469 -19.569187 -10.206781 0.001125 -10.206781 C 19.571438 -10.206781 35.434719 -5.636469 35.434719 0.00025 Z M 35.434719 0.00025 " transform="matrix(1, 0, 0, -1, 80.077, 118.344)"/>
<g fill="rgb(0%, 0%, 0%)" fill-opacity="1">
<use xlink:href="#glyph-0-3" x="18.866" y="111.827"/>
</g>
<g fill="rgb(75%, 0%, 0%)" fill-opacity="1">
<use xlink:href="#glyph-0-4" x="72.326" y="120.835"/>
</g>
<g fill="rgb(75%, 0%, 0%)" fill-opacity="1">
<use xlink:href="#glyph-1-0" x="78.27965" y="120.835"/>
</g>
<g fill="rgb(75%, 0%, 0%)" fill-opacity="1">
<use xlink:href="#glyph-0-1" x="82.154105" y="120.835"/>
</g>
<g fill="rgb(75%, 0%, 0%)" fill-opacity="1">
<use xlink:href="#glyph-1-1" x="89.626055" y="120.835"/>
</g>
<path fill-rule="nonzero" fill="rgb(75%, 0%, 0%)" fill-opacity="1" d="M 64.054688 127.179688 C 64.054688 126.246094 63.296875 125.488281 62.359375 125.488281 C 61.425781 125.488281 60.667969 126.246094 60.667969 127.179688 C 60.667969 128.117188 61.425781 128.875 62.359375 128.875 C 63.296875 128.875 64.054688 128.117188 64.054688 127.179688 Z M 64.054688 127.179688 "/>
<g fill="rgb(75%, 0%, 0%)" fill-opacity="1">
<use xlink:href="#glyph-0-4" x="52.878" y="138.24"/>
</g>
<g fill="rgb(75%, 0%, 0%)" fill-opacity="1">
<use xlink:href="#glyph-1-0" x="58.83165" y="138.24"/>
</g>
<g fill="rgb(75%, 0%, 0%)" fill-opacity="1">
<use xlink:href="#glyph-0-2" x="62.706105" y="138.24"/>
</g>
<g fill="rgb(75%, 0%, 0%)" fill-opacity="1">
<use xlink:href="#glyph-1-1" x="67.972335" y="138.24"/>
</g>
<path fill="none" stroke-width="1.19553" stroke-linecap="butt" stroke-linejoin="miter" stroke="rgb(75%, 0%, 0%)" stroke-opacity="1" stroke-miterlimit="10" d="M 41.102688 77.101813 C 67.751125 64.676031 67.751125 14.129156 43.993313 3.047125 " transform="matrix(1, 0, 0, -1, 80.077, 118.344)"/>
<path fill-rule="nonzero" fill="rgb(75%, 0%, 0%)" fill-opacity="1" d="M 121.179688 116.644531 L 126.878906 116.800781 L 124.070312 115.296875 L 124.726562 112.175781 "/>
<g fill="rgb(75%, 0%, 0%)" fill-opacity="1">
<use xlink:href="#glyph-0-4" x="145.085" y="81.433"/>
</g>
<g fill="rgb(0%, 0%, 0%)" fill-opacity="1">
<use xlink:href="#glyph-0-3" x="66.026" y="167.103"/>
</g>
<g fill="rgb(0%, 0%, 0%)" fill-opacity="1">
<use xlink:href="#glyph-2-0" x="77.278757" y="167.103"/>
</g>
<g fill="rgb(0%, 0%, 0%)" fill-opacity="1">
<use xlink:href="#glyph-0-0" x="86.132519" y="167.103"/>
</g>
<path fill-rule="nonzero" fill="rgb(100%, 93.998718%, 87.998962%)" fill-opacity="1" stroke-width="0.79701" stroke-linecap="butt" stroke-linejoin="miter" stroke="rgb(0%, 0%, 0%)" stroke-opacity="1" stroke-miterlimit="10" d="M 300.477688 0.00025 C 300.477688 14.090094 267.477688 25.511969 226.774563 25.511969 C 186.071438 25.511969 153.071438 14.090094 153.071438 0.00025 C 153.071438 -14.089594 186.071438 -25.511469 226.774563 -25.511469 C 267.477688 -25.511469 300.477688 -14.089594 300.477688 0.00025 Z M 300.477688 0.00025 " transform="matrix(1, 0, 0, -1, 80.077, 118.344)"/>
<path fill-rule="nonzero" fill="rgb(89.99939%, 89.99939%, 100%)" fill-opacity="1" d="M 271.417969 118.34375 C 271.417969 100.339844 287.28125 85.746094 306.851562 85.746094 C 326.421875 85.746094 342.285156 100.339844 342.285156 118.34375 C 342.285156 123.980469 326.421875 128.550781 306.851562 128.550781 C 287.28125 128.550781 271.417969 123.980469 271.417969 118.34375 Z M 271.417969 118.34375 "/>
<path fill="none" stroke-width="0.79701" stroke-linecap="butt" stroke-linejoin="miter" stroke="rgb(0%, 0%, 0%)" stroke-opacity="1" stroke-miterlimit="10" d="M 191.340969 0.00025 C 191.340969 18.004156 207.20425 32.597906 226.774563 32.597906 C 246.344875 32.597906 262.208156 18.004156 262.208156 0.00025 " transform="matrix(1, 0, 0, -1, 80.077, 118.344)"/>
<path fill="none" stroke-width="1.19553" stroke-linecap="butt" stroke-linejoin="miter" stroke="rgb(75%, 0%, 0%)" stroke-opacity="1" stroke-dasharray="2.98883 2.98883" stroke-miterlimit="10" d="M 191.340969 0.00025 C 191.340969 5.636969 207.20425 10.203375 226.774563 10.203375 C 246.344875 10.203375 262.208156 5.636969 262.208156 0.00025 " transform="matrix(1, 0, 0, -1, 80.077, 118.344)"/>
<path fill="none" stroke-width="1.19553" stroke-linecap="butt" stroke-linejoin="miter" stroke="rgb(75%, 0%, 0%)" stroke-opacity="1" stroke-miterlimit="10" d="M 262.208156 0.00025 C 262.208156 -5.636469 246.344875 -10.206781 226.774563 -10.206781 C 207.20425 -10.206781 191.340969 -5.636469 191.340969 0.00025 " transform="matrix(1, 0, 0, -1, 80.077, 118.344)"/>
<g fill="rgb(0%, 0%, 0%)" fill-opacity="1">
<use xlink:href="#glyph-0-0" x="302.85" y="104.74"/>
</g>
<g fill="rgb(0%, 0%, 0%)" fill-opacity="1">
<use xlink:href="#glyph-0-3" x="245.638" y="111.827"/>
</g>
<path fill-rule="nonzero" fill="rgb(75%, 0%, 0%)" fill-opacity="1" d="M 290.828125 127.179688 C 290.828125 126.246094 290.070312 125.488281 289.132812 125.488281 C 288.199219 125.488281 287.441406 126.246094 287.441406 127.179688 C 287.441406 128.117188 288.199219 128.875 289.132812 128.875 C 290.070312 128.875 290.828125 128.117188 290.828125 127.179688 Z M 290.828125 127.179688 "/>
<path fill="none" stroke-width="0.3985" stroke-linecap="butt" stroke-linejoin="miter" stroke="rgb(75%, 0%, 0%)" stroke-opacity="1" stroke-miterlimit="10" d="M 207.071438 -10.253656 L 148.821438 -17.573969 " transform="matrix(1, 0, 0, -1, 80.077, 118.344)"/>
<g fill="rgb(75%, 0%, 0%)" fill-opacity="1">
<use xlink:href="#glyph-1-2" x="178.12" y="138.41"/>
</g>
<g fill="rgb(75%, 0%, 0%)" fill-opacity="1">
<use xlink:href="#glyph-0-2" x="180.88761" y="138.41"/>
</g>
<g fill="rgb(75%, 0%, 0%)" fill-opacity="1">
<use xlink:href="#glyph-1-3" x="186.153841" y="138.41"/>
</g>
<g fill="rgb(75%, 0%, 0%)" fill-opacity="1">
<use xlink:href="#glyph-1-4" x="191.691054" y="138.41"/>
</g>
<g fill="rgb(75%, 0%, 0%)" fill-opacity="1">
<use xlink:href="#glyph-1-2" x="202.199604" y="138.41"/>
</g>
<g fill="rgb(75%, 0%, 0%)" fill-opacity="1">
<use xlink:href="#glyph-0-4" x="204.967214" y="138.41"/>
</g>
<g fill="rgb(75%, 0%, 0%)" fill-opacity="1">
<use xlink:href="#glyph-1-0" x="210.920864" y="138.41"/>
</g>
<g fill="rgb(75%, 0%, 0%)" fill-opacity="1">
<use xlink:href="#glyph-0-2" x="214.795319" y="138.41"/>
</g>
<g fill="rgb(75%, 0%, 0%)" fill-opacity="1">
<use xlink:href="#glyph-1-1" x="220.06155" y="138.41"/>
<use xlink:href="#glyph-1-3" x="223.936005" y="138.41"/>
</g>
<path fill="none" stroke-width="0.3985" stroke-linecap="butt" stroke-linejoin="miter" stroke="rgb(75%, 0%, 0%)" stroke-opacity="1" stroke-miterlimit="10" d="M 259.446438 -6.519281 L 306.145656 -14.171625 " transform="matrix(1, 0, 0, -1, 80.077, 118.344)"/>
<g fill="rgb(75%, 0%, 0%)" fill-opacity="1">
<use xlink:href="#glyph-1-2" x="388.41" y="135.008"/>
</g>
<g fill="rgb(75%, 0%, 0%)" fill-opacity="1">
<use xlink:href="#glyph-0-1" x="391.17761" y="135.008"/>
</g>
<g fill="rgb(75%, 0%, 0%)" fill-opacity="1">
<use xlink:href="#glyph-1-3" x="398.64956" y="135.008"/>
</g>
<g fill="rgb(75%, 0%, 0%)" fill-opacity="1">
<use xlink:href="#glyph-1-4" x="404.186773" y="135.008"/>
</g>
<g fill="rgb(75%, 0%, 0%)" fill-opacity="1">
<use xlink:href="#glyph-1-2" x="414.705286" y="135.008"/>
</g>
<g fill="rgb(75%, 0%, 0%)" fill-opacity="1">
<use xlink:href="#glyph-0-4" x="417.472897" y="135.008"/>
</g>
<g fill="rgb(75%, 0%, 0%)" fill-opacity="1">
<use xlink:href="#glyph-1-0" x="423.416584" y="135.008"/>
</g>
<g fill="rgb(75%, 0%, 0%)" fill-opacity="1">
<use xlink:href="#glyph-0-1" x="427.291039" y="135.008"/>
</g>
<g fill="rgb(75%, 0%, 0%)" fill-opacity="1">
<use xlink:href="#glyph-1-1" x="434.762989" y="135.008"/>
<use xlink:href="#glyph-1-3" x="438.637444" y="135.008"/>
</g>
<g fill="rgb(0%, 0%, 0%)" fill-opacity="1">
<use xlink:href="#glyph-0-3" x="290.215" y="165.677"/>
</g>
<g fill="rgb(0%, 0%, 0%)" fill-opacity="1">
<use xlink:href="#glyph-2-1" x="301.467757" y="165.677"/>
</g>
<g fill="rgb(0%, 0%, 0%)" fill-opacity="1">
<use xlink:href="#glyph-3-0" x="308.106" y="167.172"/>
</g>
<g fill="rgb(0%, 0%, 0%)" fill-opacity="1">
<use xlink:href="#glyph-0-0" x="315.485" y="165.677"/>
</g>
<path fill="none" stroke-width="0.79701" stroke-linecap="butt" stroke-linejoin="miter" stroke="rgb(0%, 0%, 0%)" stroke-opacity="1" stroke-miterlimit="10" d="M 96.380031 51.023688 L 144.813625 51.023688 " transform="matrix(1, 0, 0, -1, 80.077, 118.344)"/>
<path fill-rule="nonzero" fill="rgb(0%, 0%, 0%)" fill-opacity="1" d="M 227.480469 67.320312 L 223.335938 65.246094 L 224.890625 67.320312 L 223.335938 69.390625 "/>
<g fill="rgb(0%, 0%, 0%)" fill-opacity="1">
<use xlink:href="#glyph-0-5" x="199.564" y="61.664"/>
</g>
</svg>
