<?xml version="1.0" encoding="UTF-8"?>
<svg xmlns="http://www.w3.org/2000/svg" xmlns:xlink="http://www.w3.org/1999/xlink" width="108.777" height="43.58" viewBox="0 0 108.777 43.58">
<defs>
<clipPath id="clip-0">
<path clip-rule="nonzero" d="M 0 0 L 108.777344 0 L 108.777344 43.578125 L 0 43.578125 Z M 0 0 "/>
</clipPath>
<clipPath id="clip-1">
<path clip-rule="nonzero" d="M 0 10 L 108.777344 10 L 108.777344 43.578125 L 0 43.578125 Z M 0 10 "/>
</clipPath>
<clipPath id="clip-2">
<path clip-rule="nonzero" d="M 0 0 L 108.777344 0 L 108.777344 43.578125 L 0 43.578125 Z M 0 0 "/>
</clipPath>
</defs>
<g clip-path="url(#clip-0)">
<path fill="none" stroke-width="0.79701" stroke-linecap="butt" stroke-linejoin="miter" stroke="rgb(0%, 0%, 0%)" stroke-opacity="1" stroke-miterlimit="10" d="M -0.00075 34.01675 L 36.850813 34.01675 C 49.608625 34.01675 49.608625 17.008938 62.362531 17.008938 L 65.198469 17.008938 C 70.93675 17.008938 74.096906 13.563625 76.995344 9.774563 M 78.913313 7.231594 C 81.81175 3.442531 84.968 0.001125 90.710188 0.001125 L 99.214094 0.001125 " transform="matrix(1, 0, 0, -1, 4.782, 38.798)"/>
</g>
<g clip-path="url(#clip-1)">
<path fill="none" stroke-width="0.79701" stroke-linecap="butt" stroke-linejoin="miter" stroke="rgb(0%, 0%, 0%)" stroke-opacity="1" stroke-miterlimit="10" d="M -0.00075 17.008938 L 8.503156 17.008938 C 14.245344 17.008938 17.401594 13.563625 20.300031 9.774563 M 22.221906 7.231594 C 25.120344 3.442531 28.276594 0.001125 34.014875 0.001125 L 65.198469 0.001125 C 77.952375 0.001125 77.952375 17.008938 90.710188 17.008938 L 99.214094 17.008938 " transform="matrix(1, 0, 0, -1, 4.782, 38.798)"/>
</g>
<g clip-path="url(#clip-2)">
<path fill="none" stroke-width="0.79701" stroke-linecap="butt" stroke-linejoin="miter" stroke="rgb(0%, 0%, 0%)" stroke-opacity="1" stroke-miterlimit="10" d="M -0.00075 0.001125 L 8.503156 0.001125 C 21.260969 0.001125 21.260969 17.008938 34.014875 17.008938 L 36.850813 17.008938 C 42.593 17.008938 45.74925 20.450344 48.647688 24.239406 M 50.565656 26.782375 C 53.464094 30.571438 56.62425 34.01675 62.362531 34.01675 L 99.214094 34.01675 " transform="matrix(1, 0, 0, -1, 4.782, 38.798)"/>
</g>
<path fill-rule="nonzero" fill="rgb(0%, 0%, 0%)" fill-opacity="1" d="M 6.574219 38.796875 C 6.574219 37.808594 5.773438 37.003906 4.78125 37.003906 C 3.792969 37.003906 2.988281 37.808594 2.988281 38.796875 C 2.988281 39.789062 3.792969 40.589844 4.78125 40.589844 C 5.773438 40.589844 6.574219 39.789062 6.574219 38.796875 Z M 6.574219 38.796875 "/>
<path fill-rule="nonzero" fill="rgb(0%, 0%, 0%)" fill-opacity="1" d="M 6.574219 21.789062 C 6.574219 20.800781 5.773438 19.996094 4.78125 19.996094 C 3.792969 19.996094 2.988281 20.800781 2.988281 21.789062 C 2.988281 22.78125 3.792969 23.582031 4.78125 23.582031 C 5.773438 23.582031 6.574219 22.78125 6.574219 21.789062 Z M 6.574219 21.789062 "/>
<path fill-rule="nonzero" fill="rgb(0%, 0%, 0%)" fill-opacity="1" d="M 6.574219 4.78125 C 6.574219 3.792969 5.773438 2.988281 4.78125 2.988281 C 3.792969 2.988281 2.988281 3.792969 2.988281 4.78125 C 2.988281 5.773438 3.792969 6.574219 4.78125 6.574219 C 5.773438 6.574219 6.574219 5.773438 6.574219 4.78125 Z M 6.574219 4.78125 "/>
<path fill-rule="nonzero" fill="rgb(0%, 0%, 0%)" fill-opacity="1" d="M 105.789062 4.78125 C 105.789062 3.792969 104.984375 2.988281 103.996094 2.988281 C 103.003906 2.988281 102.203125 3.792969 102.203125 4.78125 C 102.203125 5.773438 103.003906 6.574219 103.996094 6.574219 C 104.984375 6.574219 105.789062 5.773438 105.789062 4.78125 Z M 105.789062 4.78125 "/>
<path fill-rule="nonzero" fill="rgb(0%, 0%, 0%)" fill-opacity="1" d="M 105.789062 21.789062 C 105.789062 20.800781 104.984375 19.996094 103.996094 19.996094 C 103.003906 19.996094 102.203125 20.800781 102.203125 21.789062 C 102.203125 22.78125 103.003906 23.582031 103.996094 23.582031 C 104.984375 23.582031 105.789062 22.78125 105.789062 21.789062 Z M 105.789062 21.789062 "/>
<path fill-rule="nonzero" fill="rgb(0%, 0%, 0%)" fill-opacity="1" d="M 105.789062 38.796875 C 105.789062 37.808594 104.984375 37.003906 103.996094 37.003906 C 103.003906 37.003906 102.203125 37.808594 102.203125 38.796875 C 102.203125 39.789062 103.003906 40.589844 103.996094 40.589844 C 104.984375 40.589844 105.789062 39.789062 105.789062 38.796875 Z M 105.789062 38.796875 "/>
</svg>
