<?xml version="1.0" encoding="UTF-8"?>
<svg xmlns="http://www.w3.org/2000/svg" xmlns:xlink="http://www.w3.org/1999/xlink" width="138.958" height="22.517" viewBox="0 0 138.958 22.517">
<defs>
<g>
<g id="glyph-0-0">
<path d="M 4.421875 -2.5 C 4.421875 -3.5625 3.53125 -4.421875 2.5 -4.421875 C 1.421875 -4.421875 0.546875 -3.53125 0.546875 -2.5 C 0.546875 -1.4375 1.421875 -0.5625 2.5 -0.5625 C 3.53125 -0.5625 4.421875 -1.421875 4.421875 -2.5 Z M 4.421875 -2.5 "/>
</g>
</g>
<clipPath id="clip-0">
<path clip-rule="nonzero" d="M 59 0 L 89 0 L 89 22.515625 L 59 22.515625 Z M 59 0 "/>
</clipPath>
<clipPath id="clip-1">
<path clip-rule="nonzero" d="M 105 0 L 134 0 L 134 22.515625 L 105 22.515625 Z M 105 0 "/>
</clipPath>
</defs>
<path fill="none" stroke-width="0.44832" stroke-linecap="butt" stroke-linejoin="miter" stroke="rgb(0%, 0%, 0%)" stroke-opacity="1" stroke-miterlimit="10" d="M -6.376469 0.00153125 L 6.377437 0.00153125 " transform="matrix(1, 0, 0, -1, 23.646, 11.357)"/>
<g fill="rgb(0%, 0%, 0%)" fill-opacity="1">
<use xlink:href="#glyph-0-0" x="12.287" y="13.571"/>
</g>
<g fill="rgb(0%, 0%, 0%)" fill-opacity="1">
<use xlink:href="#glyph-0-0" x="30.024" y="13.571"/>
</g>
<g clip-path="url(#clip-0)">
<path fill="none" stroke-width="0.3985" stroke-linecap="butt" stroke-linejoin="miter" stroke="rgb(0%, 0%, 0%)" stroke-opacity="1" stroke-miterlimit="10" d="M 0.001375 12.754531 L 2.763094 12.754531 C 5.345125 12.754531 6.767 10.1725 8.071687 7.332656 M 8.934969 5.426406 C 10.239656 2.582656 11.661531 0.000625 14.243562 0.000625 L 17.009187 0.000625 " transform="matrix(1, 0, 0, -1, 65.358, 17.735)"/>
<path fill="none" stroke-width="0.3985" stroke-linecap="butt" stroke-linejoin="miter" stroke="rgb(0%, 0%, 0%)" stroke-opacity="1" stroke-miterlimit="10" d="M 0.001375 0.000625 L 2.763094 0.000625 C 8.505281 0.000625 8.505281 12.754531 14.243562 12.754531 L 17.009187 12.754531 " transform="matrix(1, 0, 0, -1, 65.358, 17.735)"/>
</g>
<path fill-rule="nonzero" fill="rgb(0%, 0%, 0%)" fill-opacity="1" d="M 67.152344 17.734375 C 67.152344 16.746094 66.347656 15.941406 65.359375 15.941406 C 64.367188 15.941406 63.566406 16.746094 63.566406 17.734375 C 63.566406 18.726562 64.367188 19.527344 65.359375 19.527344 C 66.347656 19.527344 67.152344 18.726562 67.152344 17.734375 Z M 67.152344 17.734375 "/>
<path fill-rule="nonzero" fill="rgb(0%, 0%, 0%)" fill-opacity="1" d="M 67.152344 4.980469 C 67.152344 3.988281 66.347656 3.1875 65.359375 3.1875 C 64.367188 3.1875 63.566406 3.988281 63.566406 4.980469 C 63.566406 5.96875 64.367188 6.773438 65.359375 6.773438 C 66.347656 6.773438 67.152344 5.96875 67.152344 4.980469 Z M 67.152344 4.980469 "/>
<path fill-rule="nonzero" fill="rgb(0%, 0%, 0%)" fill-opacity="1" d="M 84.160156 4.980469 C 84.160156 3.988281 83.355469 3.1875 82.367188 3.1875 C 81.375 3.1875 80.574219 3.988281 80.574219 4.980469 C 80.574219 5.96875 81.375 6.773438 82.367188 6.773438 C 83.355469 6.773438 84.160156 5.96875 84.160156 4.980469 Z M 84.160156 4.980469 "/>
<path fill-rule="nonzero" fill="rgb(0%, 0%, 0%)" fill-opacity="1" d="M 84.160156 17.734375 C 84.160156 16.746094 83.355469 15.941406 82.367188 15.941406 C 81.375 15.941406 80.574219 16.746094 80.574219 17.734375 C 80.574219 18.726562 81.375 19.527344 82.367188 19.527344 C 83.355469 19.527344 84.160156 18.726562 84.160156 17.734375 Z M 84.160156 17.734375 "/>
<g clip-path="url(#clip-1)">
<path fill="none" stroke-width="0.3985" stroke-linecap="butt" stroke-linejoin="miter" stroke="rgb(0%, 0%, 0%)" stroke-opacity="1" stroke-miterlimit="10" d="M 0.00040625 12.754531 L 2.762125 12.754531 C 8.504312 12.754531 8.504312 0.000625 14.242594 0.000625 L 17.008219 0.000625 " transform="matrix(1, 0, 0, -1, 111.191, 17.735)"/>
<path fill="none" stroke-width="0.3985" stroke-linecap="butt" stroke-linejoin="miter" stroke="rgb(0%, 0%, 0%)" stroke-opacity="1" stroke-miterlimit="10" d="M 0.00040625 0.000625 L 2.762125 0.000625 C 5.348062 0.000625 6.766031 2.582656 8.070719 5.426406 M 8.937906 7.332656 C 10.238687 10.1725 11.660562 12.754531 14.242594 12.754531 L 17.008219 12.754531 " transform="matrix(1, 0, 0, -1, 111.191, 17.735)"/>
</g>
<path fill-rule="nonzero" fill="rgb(0%, 0%, 0%)" fill-opacity="1" d="M 112.984375 17.734375 C 112.984375 16.746094 112.179688 15.941406 111.191406 15.941406 C 110.199219 15.941406 109.398438 16.746094 109.398438 17.734375 C 109.398438 18.726562 110.199219 19.527344 111.191406 19.527344 C 112.179688 19.527344 112.984375 18.726562 112.984375 17.734375 Z M 112.984375 17.734375 "/>
<path fill-rule="nonzero" fill="rgb(0%, 0%, 0%)" fill-opacity="1" d="M 112.984375 4.980469 C 112.984375 3.988281 112.179688 3.1875 111.191406 3.1875 C 110.199219 3.1875 109.398438 3.988281 109.398438 4.980469 C 109.398438 5.96875 110.199219 6.773438 111.191406 6.773438 C 112.179688 6.773438 112.984375 5.96875 112.984375 4.980469 Z M 112.984375 4.980469 "/>
<path fill-rule="nonzero" fill="rgb(0%, 0%, 0%)" fill-opacity="1" d="M 129.992188 4.980469 C 129.992188 3.988281 129.191406 3.1875 128.199219 3.1875 C 127.207031 3.1875 126.40625 3.988281 126.40625 4.980469 C 126.40625 5.96875 127.207031 6.773438 128.199219 6.773438 C 129.191406 6.773438 129.992188 5.96875 129.992188 4.980469 Z M 129.992188 4.980469 "/>
<path fill-rule="nonzero" fill="rgb(0%, 0%, 0%)" fill-opacity="1" d="M 129.992188 17.734375 C 129.992188 16.746094 129.191406 15.941406 128.199219 15.941406 C 127.207031 15.941406 126.40625 16.746094 126.40625 17.734375 C 126.40625 18.726562 127.207031 19.527344 128.199219 19.527344 C 129.191406 19.527344 129.992188 18.726562 129.992188 17.734375 Z M 129.992188 17.734375 "/>
</svg>
