<svg xmlns="http://www.w3.org/2000/svg" xmlns:xlink="http://www.w3.org/1999/xlink" xmlns:inkscape="http://www.inkscape.org/namespaces/inkscape" version="1.1" width="543" height="227.02" viewBox="0 0 543 227.02">
<defs>
<path id="font_0_3" d="M.7630005 .60565188C.7719879 .6416168 .7739868 .6516113 .8470001 .6516113 .8730011 .6516113 .8809967 .6516113 .8809967 .6716156 .8809967 .6826172 .8699951 .6826172 .86698916 .6826172 .83898928 .6826172 .7669983 .6796112 .7389984 .6796112 .70999148 .6796112 .6389923 .6826172 .6100006 .6826172 .60198977 .6826172 .59098818 .6826172 .59098818 .6626129 .59098818 .6516113 .59999087 .6516113 .61898806 .6516113 .62098696 .6516113 .6399994 .6516113 .6569977 .6496124 .6749878 .6476135 .6839905 .6466217 .6839905 .6336212 .6839905 .6296234 .68299868 .6276245 .6799927 .6146393L.6199951 .37083436H.31498719L.37399293 .60565188C.3829956 .6416168 .38598634 .6516113 .45799256 .6516113 .48399354 .6516113 .49198915 .6516113 .49198915 .6716156 .49198915 .6826172 .48098756 .6826172 .47799684 .6826172 .44999696 .6826172 .37799073 .6796112 .34999085 .6796112 .32099916 .6796112 .25 .6826172 .22099304 .6826172 .21299744 .6826172 .20199585 .6826172 .20199585 .6626129 .20199585 .6516113 .21099854 .6516113 .22999573 .6516113 .23199463 .6516113 .25099183 .6516113 .2679901 .6496124 .28599549 .6476135 .29499818 .6466217 .29499818 .6336212 .29499818 .6296234 .2939911 .6266327 .29100038 .6146393L.15699768 .07797241C.14698792 .038986207 .14498902 .0309906 .06599426 .0309906 .04798889 .0309906 .038986207 .0309906 .038986207 .010986328 .038986207 0 .050994874 0 .052993776 0 .08099365 0 .1519928 .0029907227 .17999268 .0029907227 .20098877 .0029907227 .22299195 .0019989014 .24398804 .0019989014 .2659912 .0019989014 .28799439 0 .30899049 0 .31698609 0 .32899476 0 .32899476 .019989014 .32899476 .0309906 .31999208 .0309906 .30099488 .0309906 .2639923 .0309906 .23599243 .0309906 .23599243 .048980714 .23599243 .054977418 .23799134 .0599823 .23899842 .065979007L.30699159 .33984376H.6119995C.56999209 .17391968 .5469971 .07896423 .54299929 .0639801 .5329895 .03199768 .5139923 .0309906 .45199586 .0309906 .43699647 .0309906 .42799378 .0309906 .42799378 .010986328 .42799378 0 .43998719 0 .44198609 0 .46998597 0 .54100039 .0029907227 .56900027 .0029907227 .58999636 .0029907227 .6119995 .0019989014 .6329956 .0019989014 .6549988 .0019989014 .6769867 0 .69799807 0 .70599368 0 .71798709 0 .71798709 .019989014 .71798709 .0309906 .70899966 .0309906 .6899872 .0309906 .6529999 .0309906 .625 .0309906 .625 .048980714 .625 .054977418 .6269989 .0599823 .6279907 .065979007L.7630005 .60565188Z"/>
<path id="font_1_5" d="M.12199402 .06324768C.117996219 .050247194 .11199951 .025222779 .11199951 .022232056 .11199951 .00022888184 .12998963-.009765625 .1459961-.009765625 .1639862-.009765625 .17999268 .0032196046 .18499756 .01222229 .18998719 .021224976 .19799805 .053237916 .20298767 .07424927 .20799256 .09326172 .21899414 .13928223 .22499085 .16429138 .23098755 .18629456 .23699951 .20831299 .24198914 .23132324 .25299073 .27233888 .25498963 .28033448 .28399659 .32136537 .31199647 .3613739 .35899354 .4133911 .43399049 .4133911 .49198915 .4133911 .49299623 .36238099 .49299623 .34336854 .49299623 .28334046 .44999696 .17228699 .43399049 .13027954 .4229889 .102264408 .4189911 .09326172 .4189911 .07624817 .4189911 .023223877 .46299745-.009765625 .5139923-.009765625 .6139984-.009765625 .6579895 .12828064 .6579895 .14328003 .6579895 .15628052 .644989 .15628052 .6419983 .15628052 .6279907 .15628052 .6269989 .15028382 .6230011 .13928223 .59999087 .059249879 .5569916 .018234253 .5169983 .018234253 .49598695 .018234253 .49198915 .032226564 .49198915 .053237916 .49198915 .07624817 .49699403 .089263919 .5149994 .13427735 .5269928 .1652832 .56799319 .2713318 .56799319 .32736207 .56799319 .4243927 .4909973 .44140626 .43798829 .44140626 .35499574 .44140626 .29899598 .39038087 .2689972 .3503723 .2619934 .41940309 .20298767 .44140626 .1619873 .44140626 .11898804 .44140626 .09599304 .4104004 .08299255 .38739015 .06098938 .3503723 .04699707 .29335023 .04699707 .28834535 .04699707 .27534486 .06098938 .27534486 .06399536 .27534486 .07798767 .27534486 .07899475 .27833558 .085998538 .3053589 .100997928 .36437989 .11999512 .4133911 .15899658 .4133911 .18499756 .4133911 .19198609 .39138795 .19198609 .36437989 .19198609 .34536744 .18299866 .3083496 .17599488 .28134156 .16899109 .2543335 .15899658 .21331787 .1539917 .19129944L.12199402 .06324768Z"/>
<path id="font_2_1" d="M.41299439-1.1491852C.41299439-1.1451874 .41099549-1.1431885 .40899659-1.1401825 .36299134-1.0911713 .29499818-1.0101624 .25299073-.84713748 .22999573-.7561188 .22099304-.65309146 .22099304-.56007388 .22099304-.2970276 .28399659-.11299133 .4039917 .017044068 .41299439 .026031495 .41299439 .028030396 .41299439 .030029297 .41299439 .040039064 .40499879 .040039064 .40098573 .040039064 .38598634 .040039064 .33198548-.019973755 .31900025-.034973146 .21699524-.1559906 .1519928-.33602906 .1519928-.5590668 .1519928-.7010956 .1769867-.9021454 .30799867-1.071167 .31799317-1.0831757 .3829956-1.1591797 .40098573-1.1591797 .40499879-1.1591797 .41299439-1.1591797 .41299439-1.1491852Z"/>
<path id="font_0_4" d="M.4850006 .41075135 .40098573 .6096344C.397995 .61763 .3959961 .6216278 .3959961 .6226196 .3959961 .62861636 .41299439 .6476135 .45498658 .6516113 .46499635 .65260317 .47499085 .6536102 .47499085 .6706085 .47499085 .6826172 .46299745 .6826172 .45999146 .6826172 .4189911 .6826172 .37599183 .6796112 .33399964 .6796112 .30899049 .6796112 .24699402 .6826172 .22200012 .6826172 .21598816 .6826172 .20399475 .6826172 .20399475 .6626129 .20399475 .6516113 .21398926 .6516113 .22698975 .6516113 .2869873 .6516113 .29299928 .6416168 .3019867 .6196289L.41999818 .34080506 .20899964 .11393738 .19599915 .10295105C.14698792 .049987794 .099990848 .033996583 .04899597 .0309906 .035995485 .02999878 .026992798 .02999878 .026992798 .010986328 .026992798 .009994507 .026992798 0 .039993287 0 .069992069 0 .102996829 .0029907227 .13398743 .0029907227 .17098999 .0029907227 .20999146 0 .24598694 0 .2519989 0 .2639923 0 .2639923 .019989014 .2639923 .02999878 .2539978 .0309906 .2519989 .0309906 .24299622 .03199768 .21199036 .033996583 .21199036 .061965944 .21199036 .07795715 .22698975 .093948367 .23899842 .10694885L.34098817 .21487427 .43099977 .31282044 .5319977 .07395935C.5359955 .06297302 .5369873 .061965944 .5369873 .05996704 .5369873 .051986696 .5179901 .034988405 .47898866 .0309906 .46798707 .02999878 .45899964 .0289917 .45899964 .011993408 .45899964 0 .46998597 0 .47399903 0 .5019989 0 .57199099 .0029907227 .59999087 .0029907227 .625 .0029907227 .6859894 0 .71099856 0 .71798709 0 .7299957 0 .7299957 .018997193 .7299957 .0309906 .7200012 .0309906 .71199038 .0309906 .644989 .03199768 .6429901 .034988405 .6259918 .07496643 .58699038 .16790772 .519989 .32380677 .49699403 .3837738 .5649872 .45373536 .66999819 .5726471 .70199587 .6006317 .73098757 .62461856 .7689972 .64860537 .82899478 .6516113 .84199526 .65260317 .8509979 .65260317 .8509979 .6716156 .8509979 .6726074 .8509979 .6826172 .83799746 .6826172 .80799868 .6826172 .7749939 .6796112 .74398806 .6796112 .70700076 .6796112 .6689911 .6826172 .6329956 .6826172 .6269989 .6826172 .6139984 .6826172 .6139984 .6626129 .6139984 .65560916 .61898806 .65260317 .6259918 .6516113 .6349945 .65060427 .66600039 .64860537 .66600039 .6206207 .66600039 .6066284 .6549988 .5936432 .6469879 .5846405L.4850006 .41075135Z"/>
<path id="font_3_1" d="M.46299745 .2263794H.7689972C.7819977 .2263794 .80599978 .2263794 .80599978 .25038148 .80599978 .27539063 .7829895 .27539063 .7689972 .27539063H.46299745V.5821533C.46299745 .59513857 .46299745 .6191406 .43899537 .6191406 .4139862 .6191406 .4139862 .5961304 .4139862 .5821533V.27539063H.10699463C.09399414 .27539063 .069992069 .27539063 .069992069 .25138856 .069992069 .2263794 .09298706 .2263794 .10699463 .2263794H.4139862V-.08114624C.4139862-.09416199 .4139862-.11816406 .43798829-.11816406 .46299745-.11816406 .46299745-.09516907 .46299745-.08114624V.2263794Z"/>
<path id="font_3_2" d="M.33499146 .63612368C.33499146 .6630554 .33299256 .6640625 .30499269 .6640625 .24099732 .6014404 .1499939 .6004486 .10899353 .6004486V.5644531C.1329956 .5644531 .19898987 .5644531 .2539978 .592453V.08203125C.2539978 .04899597 .2539978 .035995485 .1539917 .035995485H.115997318V0C.13398743 .0009918213 .25698854 .0039978029 .2939911 .0039978029 .32499696 .0039978029 .45098878 .0009918213 .47299195 0V.035995485H.43499757C.33499146 .035995485 .33499146 .04899597 .33499146 .08203125V.63612368Z"/>
<path id="font_0_1" d="M.20298767 .0009918213C.20298767 .066986087 .17799378 .10598755 .13899231 .10598755 .10598755 .10598755 .085998538 .08099365 .085998538 .052993776 .085998538 .025985718 .10598755 0 .13899231 0 .15098572 0 .1639862 .0039978029 .17399597 .0129852299 .1769867 .01499939 .17799378 .015991211 .1789856 .015991211 .17999268 .015991211 .18099976 .01499939 .18099976 .0009918213 .18099976-.07316589 .1459961-.13328552 .11299133-.16635132 .101989749-.17736817 .101989749-.17936707 .101989749-.18237305 .101989749-.18936157 .10699463-.19335938 .11199951-.19335938 .12298584-.19335938 .20298767-.116256717 .20298767 .0009918213Z"/>
<path id="font_2_2" d="M.30499269-.56007388C.30499269-.41804505 .27999879-.2170105 .14898682-.047973634 .13899231-.035964967 .07398987 .040039064 .055999757 .040039064 .050994874 .040039064 .04399109 .038024904 .04399109 .030029297 .04399109 .026031495 .04598999 .023025513 .049987794 .02003479 .09799194-.031967164 .16299439-.11299133 .20399475-.27201844 .22698975-.3630371 .23599243-.4660492 .23599243-.5590668 .23599243-.6600952 .22698975-.7621155 .20098877-.86013796 .16299439-1.0001679 .10398865-1.0801697 .052993776-1.1361847 .04399109-1.1451874 .04399109-1.1471863 .04399109-1.1491852 .04399109-1.1571808 .050994874-1.1591797 .055999757-1.1591797 .070999149-1.1591797 .12599182-1.098175 .13798523-1.0841827 .23999024-.96315 .30499269-.7831116 .30499269-.56007388Z"/>
<path id="font_4_1" d="M.7220001 .33418275C.7220001 .3561859 .71598818 .36618043 .70799258 .36618043 .7029877 .36618043 .69499209 .35917665 .69400027 .34017945 .6899872 .24397278 .6239929 .18881226 .55400088 .18881226 .4909973 .18881226 .44299317 .2319336 .3939972 .2750702 .34298707 .32118226 .29100038 .3671875 .22299195 .3671875 .11399841 .3671875 .054992677 .25701905 .054992677 .165802 .054992677 .13380432 .067993167 .13380432 .068984989 .13380432 .07998657 .13380432 .08299255 .1538086 .08299255 .15679932 .08699036 .26704408 .1619873 .3111725 .22299195 .3111725 .28599549 .3111725 .33399964 .26805116 .3829956 .22491455 .43399049 .17880249 .48599244 .1328125 .55400088 .1328125 .6629944 .1328125 .7220001 .2429657 .7220001 .33418275Z"/>
<path id="font_5_4" d="M.68699648 .32714845C.70199587 .32714845 .72099307 .32714845 .72099307 .34713746 .72099307 .36714173 .70199587 .36714173 .6879883 .36714173H.08898926C.07499695 .36714173 .055999757 .36714173 .055999757 .34713746 .055999757 .32714845 .07499695 .32714845 .08999634 .32714845H.68699648M.6879883 .13284302C.70199587 .13284302 .72099307 .13284302 .72099307 .15284729 .72099307 .17285156 .70199587 .17285156 .68699648 .17285156H.08999634C.07499695 .17285156 .055999757 .17285156 .055999757 .15284729 .055999757 .13284302 .07499695 .13284302 .08898926 .13284302H.6879883Z"/>
<path id="font_5_3" d="M.45999146 .31976319C.45999146 .39982606 .45498658 .47988893 .41999818 .5539398 .37399293 .65000918 .2919922 .6660156 .25 .6660156 .18998719 .6660156 .116989139 .64001467 .07598877 .54693606 .04399109 .47789 .038986207 .39982606 .038986207 .31976319 .038986207 .24472046 .042999269 .15464783 .083999637 .07859802 .1269989-.0024719239 .19999695-.022460938 .24899292-.022460938 .30299378-.022460938 .3789978-.0014648438 .4229889 .09359741 .45498658 .16265869 .45999146 .2407074 .45999146 .31976319M.24899292-.00047302247C.20999146-.00047302247 .15098572 .024551392 .1329956 .12062073 .12199402 .18066406 .12199402 .2727356 .12199402 .3317871 .12199402 .39582826 .12199402 .46188355 .12998963 .5159149 .14898682 .63500979 .22399903 .64401248 .24899292 .64401248 .28199769 .64401248 .34799195 .6259918 .36698915 .52693179 .3769989 .47088624 .3769989 .39482118 .3769989 .3317871 .3769989 .25672914 .3769989 .18867493 .3659973 .12461853 .35099793 .029556275 .2939911-.00047302247 .24899292-.00047302247Z"/>
<path id="font_6_1" d="M.74398806 .2263794C.7599945 .2263794 .7839966 .2263794 .7839966 .25038148 .7839966 .27539063 .7609863 .27539063 .74398806 .27539063H.147995C.13198853 .27539063 .10798645 .27539063 .10798645 .25138856 .10798645 .2263794 .1309967 .2263794 .147995 .2263794H.74398806Z"/>
<path id="font_5_1" d="M.33099366-.2400055C.33099366-.23701477 .33099366-.23500061 .31399537-.21800232 .18899536-.0920105 .15699768 .09700012 .15699768 .25 .15699768 .42399598 .19499207 .59799197 .31799317 .72299197 .33099366 .73498538 .33099366 .7369995 .33099366 .73999026 .33099366 .746994 .32699586 .75 .32099916 .75 .31098939 .75 .22099304 .6819916 .1619873 .5549927 .11099243 .44499208 .09899902 .33399964 .09899902 .25 .09899902 .17199707 .10998535 .050994874 .16499329-.06201172 .22499085-.18501282 .31098939-.25 .32099916-.25 .32699586-.25 .33099366-.24700928 .33099366-.2400055Z"/>
<path id="font_5_2" d="M.2889862 .25C.2889862 .32798768 .27799989 .44898988 .22299195 .56199648 .16299439 .68499758 .07699585 .75 .066986087 .75 .06098938 .75 .056991579 .74598696 .056991579 .73999026 .056991579 .7369995 .056991579 .73498538 .07598877 .71699526 .17399597 .6179962 .23098755 .45899964 .23098755 .25 .23098755 .07899475 .19400025-.09700012 .069992069-.2230072 .056991579-.23500061 .056991579-.23701477 .056991579-.2400055 .056991579-.2460022 .06098938-.25 .066986087-.25 .07699585-.25 .16699219-.18200684 .22599793-.055007936 .2769928 .054992677 .2889862 .16600037 .2889862 .25Z"/>
<path id="font_0_2" d="M.7599945 .69506838C.7599945 .69807437 .7579956 .7050781 .7489929 .7050781 .74598696 .7050781 .7449951 .70407107 .73399356 .69306948L.6639862 .61602786C.6549988 .6300354 .60899356 .7050781 .49798585 .7050781 .2749939 .7050781 .049987794 .48391725 .049987794 .25172425 .049987794 .08659363 .16799927-.022460938 .32099916-.022460938 .4079895-.022460938 .48399354 .017532349 .5369873 .063583377 .6299896 .14564514 .6469879 .2367096 .6469879 .23971558 .6469879 .24972534 .6369934 .24972534 .6349945 .24972534 .6289978 .24972534 .6239929 .24772644 .621994 .23971558 .61299136 .21069336 .58999636 .13963318 .5209961 .081588748 .45199586 .025543213 .3889923 .008529663 .33699037 .008529663 .24699402 .008529663 .14099121 .060577394 .14099121 .21670532 .14099121 .27374269 .1619873 .43588258 .2619934 .55296328 .32299806 .62402346 .4169922 .67407229 .5059967 .67407229 .60798647 .67407229 .6669922 .5970001 .6669922 .48091126 .6669922 .44088746 .6639862 .43988038 .6639862 .4298706 .6639862 .41986085 .6749878 .41986085 .67900088 .41986085 .69200137 .41986085 .69200137 .42185975 .69699099 .43988038L.7599945 .69506838Z"/>
<path id="font_3_4" d="M.74398806 .677124C.74398806 .6941223 .74398806 .703125 .7299957 .703125 .7259979 .703125 .72099307 .703125 .71299746 .69111636L.6599884 .6151428C.6179962 .65711978 .548996 .703125 .45298768 .703125 .24299622 .703125 .069992069 .5411835 .069992069 .34228517 .069992069 .13938904 .24598694-.01953125 .45298768-.01953125 .6299896-.01953125 .74398806 .1124115 .74398806 .23434448 .74398806 .24534607 .7429962 .25334168 .72698977 .25334168 .72099307 .25334168 .71099856 .25334168 .70999148 .24034119 .70199587 .079422 .56599429 .016464234 .46699525 .016464234 .3600006 .016464234 .1769867 .0814209 .1769867 .34129334 .1769867 .61213687 .37098695 .66711428 .46499635 .66711428 .56399539 .66711428 .6819916 .6011505 .70799258 .429245 .70999148 .4172516 .71899417 .4172516 .7259979 .4172516 .74398806 .4172516 .74398806 .4232483 .74398806 .4432373V.677124Z"/>
<path id="font_3_5" d="M1.0179901 .5806885C1.0309906 .6166382 1.0549927 .64660647 1.1210022 .64660647V.6826172C1.1109924 .6816101 1.0569916 .6786041 1.0279999 .6786041 .98599246 .6786041 .94299319 .680603 .901001 .6826172V.64660647C.95799258 .6456146 .9850006 .62164309 .9850006 .5956726 .9850006 .5916748 .9850006 .5896759 .9799957 .57670596L.8149872 .11531067 .6399994 .60466006C.6359863 .61564639 .6359863 .61764529 .6359863 .6186371 .6359863 .64660647 .69299319 .64660647 .71899417 .64660647V.6826172C.6689911 .680603 .6049957 .6786041 .56999209 .6786041 .5289917 .6786041 .4889984 .6796112 .44799806 .6826172V.64660647C.5009918 .64660647 .5179901 .64460757 .5289917 .6316223 .5359955 .62364199 .548996 .5866852 .5569916 .5637207L.3959961 .11531067 .22200012 .60066226C.21699524 .61364749 .21699524 .61564639 .21699524 .6186371 .21699524 .64660647 .27398683 .64660647 .2999878 .64660647V.6826172C.25 .680603 .18598938 .6786041 .15098572 .6786041 .10998535 .6786041 .069992069 .6796112 .0289917 .6826172V.64660647C.09098816 .64660647 .10899353 .64660647 .12199402 .60964968L.33898927 .0034637452C.34498597-.013534546 .34999085-.01953125 .3659973-.01953125 .38398744-.01953125 .3869934-.009536743 .3919983 .0034637452L.57499697 .5137787 .7579956 .0034637452C.7630005-.009536743 .7659912-.01953125 .7839966-.01953125 .8009949-.01953125 .8049927-.012542725 .8109894 .0034637452L1.0179901 .5806885Z"/>
<path id="font_3_3" d="M.5049896 .18203736H.47099305C.46798707 .16001892 .45799256 .100997928 .44499208 .09098816 .43699647 .084991458 .3600006 .084991458 .34599305 .084991458H.1619873C.2669983 .17803955 .3019867 .20603943 .3619995 .25306703 .43598939 .312088 .5049896 .374115 .5049896 .46914674 .5049896 .5900879 .39898683 .6640625 .2709961 .6640625 .14698792 .6640625 .06298828 .57710269 .06298828 .4851532 .06298828 .43414308 .10598755 .42915345 .115997318 .42915345 .13999939 .42915345 .16899109 .44615174 .16899109 .48214723 .16899109 .5001526 .1619873 .53515627 .10998535 .53515627 .14099121 .6060791 .20899964 .62805178 .2559967 .62805178 .35598756 .62805178 .4079895 .5501404 .4079895 .46914674 .4079895 .38212586 .34599305 .3130951 .31399537 .27708436L.07299805 .038986207C.06298828 .02999878 .06298828 .027999878 .06298828 0H.47499085L.5049896 .18203736Z"/>
<path id="font_1_3" d="M.32398988 .6253052C.32398988 .64131167 .31199647 .66329959 .28399659 .66329959 .25698854 .66329959 .22799683 .6372986 .22799683 .6083069 .22799683 .5913086 .24099732 .5703125 .2679901 .5703125 .29699708 .5703125 .32398988 .5983124 .32398988 .6253052M.11999512 .117263797C.115997318 .104263309 .11099243 .09225464 .11099243 .07525635 .11099243 .02822876 .15098572-.009765625 .20599365-.009765625 .30599977-.009765625 .34999085 .12828064 .34999085 .14328003 .34999085 .15628052 .33699037 .15628052 .33399964 .15628052 .31999208 .15628052 .31900025 .15028382 .31498719 .13928223 .2919922 .059249879 .24798584 .018234253 .20899964 .018234253 .18899536 .018234253 .18399048 .031234742 .18399048 .053237916 .18399048 .07624817 .19099427 .09526062 .19999695 .117263797 .20999146 .14428711 .22099304 .17129517 .23199463 .1973114 .24099732 .22131348 .2769928 .3123474 .2809906 .32435609 .28399659 .33436585 .2869873 .3463745 .2869873 .35636903 .2869873 .4033966 .24699402 .44140626 .19198609 .44140626 .09298706 .44140626 .04699707 .3053589 .04699707 .28834535 .04699707 .27534486 .06098938 .27534486 .06399536 .27534486 .07798767 .27534486 .07899475 .28033448 .08198547 .29135133 .10798645 .37738038 .1519928 .4133911 .18899536 .4133911 .20498657 .4133911 .21398926 .4053955 .21398926 .37838746 .21398926 .3553772 .20799256 .34036256 .18299866 .27833558L.11999512 .117263797Z"/>
<path id="font_7_1" d="M.19499207 .09828186C.18899536 .073272708 .17799378 .029251099 .17799378 .024246216 .17799378 .002243042 .19599915-.0107421879 .21499634-.0107421879 .22999573-.0107421879 .2519989-.002746582 .2630005 .022247315 .2639923 .027252198 .27598573 .07426453 .28199769 .10028076 .31599427 .23532105 .31599427 .23731995 .31799317 .24131775 .33099366 .2683258 .40299989 .40837098 .5249939 .40837098 .57398989 .40837098 .59498599 .38136292 .59498599 .3363495 .59498599 .27934266 .5529938 .17630005 .5299988 .119277957 .5249939 .107284549 .519989 .0942688 .519989 .07727051 .519989 .025253296 .56999209-.0107421879 .6289978-.0107421879 .73599246-.0107421879 .79100039 .119277957 .79100039 .14428711 .79100039 .15829468 .7739868 .15829468 .769989 .15829468 .7529907 .15829468 .7519989 .15429688 .74598696 .13528443 .72698977 .07527161 .68099978 .023254395 .6329956 .023254395 .6100006 .023254395 .6029968 .039260866 .6029968 .061264039 .6029968 .08227539 .6069946 .0922699 .6159973 .11427307 .6329956 .15429688 .67900088 .2683258 .67900088 .323349 .67900088 .39736939 .6259918 .4423828 .5309906 .4423828 .43998719 .4423828 .3769989 .38737489 .34199525 .34335328 .33699037 .42536927 .25698854 .4423828 .21998596 .4423828 .11999512 .4423828 .09098816 .28933717 .09098816 .28733827 .09098816 .2733307 .10699463 .2733307 .11199951 .2733307 .1289978 .2733307 .1309967 .27934266 .1349945 .29234315 .1499939 .35035707 .17298889 .40837098 .21499634 .40837098 .24899292 .40837098 .2559967 .3763733 .2559967 .35536195 .2559967 .34135438 .24598694 .30334474 .23999024 .2773285 .23298645 .25032044 .22299195 .20930481 .21798706 .18730164L.19499207 .09828186Z"/>
<path id="font_1_4" d="M.43899537 .6253052C.43899537 .64230349 .42599488 .66329959 .39898683 .66329959 .36999513 .66329959 .34298707 .6352997 .34298707 .6083069 .34298707 .5923004 .35499574 .5703125 .3829956 .5703125 .4099884 .5703125 .43899537 .5962982 .43899537 .6253052M.22698975-.04901123C.20999146-.11804199 .15699768-.17610169 .09799194-.17610169 .084991458-.17610169 .07299805-.17408753 .06199646-.17004395 .08799744-.15803528 .09599304-.1340332 .09599304-.11903381 .09599304-.09503174 .07699585-.08203125 .056991579-.08203125 .025985718-.08203125 0-.10903931 0-.14103699 0-.17910767 .038986207-.20410156 .09899902-.20410156 .15899658-.20410156 .27598573-.16804505 .30699159-.04600525L.39698792 .31230165C.3999939 .32331849 .4019928 .33232118 .4019928 .34733583 .4019928 .40238954 .35499574 .44140626 .29499818 .44140626 .18399048 .44140626 .11999512 .30230714 .11999512 .2882843 .11999512 .27526856 .13398743 .27526856 .13699341 .27526856 .14898682 .27526856 .1499939 .27827455 .15699768 .29328919 .18199158 .35134889 .23399353 .4133911 .2919922 .4133911 .31698609 .4133911 .32598878 .39637757 .32598878 .36434938 .32598878 .35334779 .32398988 .33932496 .32299806 .33433534L.22698975-.04901123Z"/>
<path id="font_1_1" d="M.5249939 .33813478C.5109863 .3960724 .46598817 .4560547 .37199403 .4560547 .23199463 .4560547 .115997318 .35112 .07998657 .2612152 .07398987 .24423218 .05999756 .20327759 .05999756 .16331482 .05999756 .09437561 .11399841-.01953125 .269989-.01953125 .5289917-.01953125 .6339874 .30317689 .6339874 .4450531 .6339874 .61631777 .5219879 .7138672 .3880005 .7138672 .22499085 .7138672 .17999268 .58436587 .17999268 .55336 .17999268 .5453644 .18499756 .5173645 .21998596 .5173645 .25498963 .5173645 .27598573 .54837039 .27598573 .57237246 .27598573 .59936526 .2559967 .6083679 .23699951 .6103668 .2869873 .6848602 .36898805 .6848602 .38598634 .6848602 .46099855 .6848602 .5499878 .63816836 .5499878 .4962616 .5499878 .4530487 .54499819 .4180603 .526001 .33813478H.5249939M.27198792 .012466431C.15899658 .012466431 .1459961 .09738159 .1459961 .12834168 .1459961 .16731262 .17298889 .265213 .18299866 .29019166 .20098877 .33613587 .2630005 .42803956 .37599183 .42803956 .47299195 .42803956 .5049896 .35212709 .5049896 .2921753 .5049896 .22525025 .43998719 .012466431 .27198792 .012466431Z"/>
<path id="font_8_1" d="M.5419922 .22167969H.8899994C.9029999 .22167969 .9299927 .22167969 .9299927 .24967957 .9299927 .27767945 .9029999 .27767945 .8899994 .27767945H.5419922V.6259613C.5419922 .63998416 .5419922 .6669922 .5139923 .6669922 .48599244 .6669922 .48599244 .63998416 .48599244 .6259613V.27767945H.13699341C.12399292 .27767945 .09700012 .27767945 .09700012 .24967957 .09700012 .22167969 .12399292 .22167969 .13699341 .22167969H.48599244V-.12602234C.48599244-.13999939 .48599244-.16699219 .5139923-.16699219 .5419922-.16699219 .5419922-.13999939 .5419922-.12602234V.22167969Z"/>
<path id="font_8_2" d="M.397995 .63591006C.397995 .6660156 .394989 .6660156 .3619995 .6660156 .29100038 .6016083 .17999268 .6016083 .1599884 .6016083H.14299011V.5576172H.1599884C.18299866 .5576172 .24798584 .5606079 .30599977 .58561709V.08596802C.30599977 .054977418 .30599977 .04399109 .19999695 .04399109H.1499939V0C.20498657 .0039978029 .2939911 .0039978029 .35198976 .0039978029 .4099884 .0039978029 .49899293 .0039978029 .55400088 0V.04399109H.5039978C.397995 .04399109 .397995 .054977418 .397995 .08596802V.63591006Z"/>
<path id="font_1_2" d="M.57099917 .66430667C.57199099 .66630557 .57499697 .67930606 .57499697 .68029788 .57499697 .68530276 .57099917 .6943054 .5589905 .6943054 .5389862 .6943054 .45599366 .6863098 .43099977 .6843109 .4229889 .68330386 .40899659 .682312 .40899659 .66130068 .40899659 .64730837 .4229889 .64730837 .43499757 .64730837 .48298646 .64730837 .48298646 .64030459 .48298646 .63230898 .48298646 .62532046 .48098756 .61932376 .47898866 .61032107L.42199708 .38238526C.40098573 .41540528 .36698915 .44140626 .31900025 .44140626 .19099427 .44140626 .06098938 .300354 .06098938 .15628052 .06098938 .059249879 .12599182-.009765625 .21199036-.009765625 .2659912-.009765625 .31399537 .021224976 .35398866 .0602417 .37298585 .00022888184 .43099977-.009765625 .45700074-.009765625 .49299623-.009765625 .5179901 .01222229 .5359955 .04324341 .55799868 .08226013 .57099917 .13928223 .57099917 .14328003 .57099917 .15628052 .55799868 .15628052 .5549927 .15628052 .54100039 .15628052 .5399933 .15228272 .5329895 .12527466 .5209961 .07725525 .5019989 .018234253 .45999146 .018234253 .43399049 .018234253 .4269867 .040237428 .4269867 .06724548 .4269867 .086257938 .42900086 .09526062 .43199159 .10826111L.57099917 .66430667M.35798646 .12527466C.35099793 .09725952 .32899476 .07725525 .30699159 .058242799 .2979889 .050247194 .2579956 .018234253 .21499634 .018234253 .17799378 .018234253 .14199829 .04423523 .14199829 .11526489 .14199829 .16828919 .17098999 .27833558 .19400025 .31835938 .23999024 .39839173 .29100038 .4133911 .31900025 .4133911 .3889923 .4133911 .4079895 .33737184 .4079895 .32635499 .4079895 .32235719 .4059906 .3153534 .40499879 .3123474L.35798646 .12527466Z"/>
<path id="font_8_3" d="M.8600006 .677063C.8600006 .69407656 .8600006 .7050781 .84399417 .7050781 .83399966 .7050781 .83099368 .70106509 .82499697 .69306948L.7659912 .61602786C.7049866 .66807559 .6279907 .7050781 .5289917 .7050781 .2869873 .7050781 .09700012 .53796389 .09700012 .34179688 .09700012 .14363098 .2869873-.022460938 .5299988-.022460938 .72299197-.022460938 .8600006 .1006012 .8600006 .23370362 .8600006 .24972534 .85598757 .25473023 .83898928 .25473023 .8279877 .25473023 .81900027 .25473023 .81799319 .23771668 .80999758 .08558655 .6649933 .021530152 .5479889 .021530152 .4059906 .021530152 .21398926 .099594119 .21398926 .34179688 .21398926 .58000186 .4019928 .6610718 .5469971 .6610718 .6369934 .6610718 .7839966 .61302188 .81599429 .42686463 .81799319 .41485597 .8299866 .41485597 .83799746 .41485597 .8600006 .41485597 .8600006 .42185975 .8600006 .44288636V.677063Z"/>
<path id="font_8_4" d="M1.1619873 .5765991C1.17099 .5986023 1.1869965 .63861086 1.2740021 .63861086V.6826172C1.2269898 .6786041 1.1699982 .6786041 1.1669922 .6786041 1.121994 .6786041 1.0619965 .680603 1.0309906 .6826172V.63861086C1.0820007 .63861086 1.1199951 .62060549 1.1199951 .5915985 1.1199951 .58461 1.1149902 .5736084 1.1149902 .5726013L.9319916 .11553955 .73799136 .5976105C.73298647 .60861209 .73298647 .61061099 .73298647 .61460879 .73298647 .63861086 .79299929 .63861086 .82099917 .63861086V.6826172C.7829895 .6816101 .70700076 .6786041 .6619873 .6786041 .6159973 .6786041 .57099917 .6796112 .5249939 .6826172V.63861086H.54499819C.59999087 .63861086 .60798647 .63160708 .61499026 .6246033 .6199951 .61961367 .6329956 .5866089 .6409912 .56759646L.6359863 .5536041 .45999146 .11553955 .2659912 .6006012C.2630005 .6096039 .2619934 .6116028 .2619934 .61460879 .2619934 .63861086 .32199098 .63861086 .34999085 .63861086V.6826172C.31399537 .6816101 .23599243 .6786041 .18998719 .6786041 .14399719 .6786041 .09899902 .6796112 .052993776 .6826172V.63861086H.07398987C.14099121 .63861086 .14498902 .6286011 .15499878 .6026001L.394989 .0035247803C.4019928-.012466431 .40499879-.022460938 .42799378-.022460938 .44999696-.022460938 .45399476-.013473511 .45999146 .002532959L.6629944 .5105896 .86698916 .002532959C.8730011-.013473511 .8769989-.022460938 .8989868-.022460938 .9219971-.022460938 .9249878-.012466431 .9319916 .0035247803L1.1619873 .5765991Z"/>
<path id="font_9_1" d="M.8799896 .2223053C.8959961 .2223053 .9229889 .2223053 .9229889 .25030519 .9229889 .2783203 .8959961 .2783203 .8799896 .2783203H.20298767C.18699646 .2783203 .1599884 .2783203 .1599884 .25030519 .1599884 .2223053 .18699646 .2223053 .20298767 .2223053H.8799896Z"/>
</defs>
<use data-text="H" xlink:href="#font_0_3" transform="matrix(9.9626,0,0,-9.9626,321.67604,12.100998)"/>
<use data-text="n" xlink:href="#font_1_5" transform="matrix(6.9738,0,0,-6.9738,329.95704,13.595993)"/>
<use data-text="&#xfffd;" xlink:href="#font_2_1" transform="matrix(9.9626,0,0,-9.9626,337.04005,4.0319979)"/>
<use data-text="X" xlink:href="#font_0_4" transform="matrix(9.9626,0,0,-9.9626,341.60704,12.100998)"/>
<use data-text="n" xlink:href="#font_1_5" transform="matrix(6.9738,0,0,-6.9738,350.64204,8.485992)"/>
<use data-text="+" xlink:href="#font_3_1" transform="matrix(6.9738,0,0,-6.9738,355.56703,8.485992)"/>
<use data-text="1" xlink:href="#font_3_2" transform="matrix(6.9738,0,0,-6.9738,361.68305,8.485992)"/>
<use data-text="," xlink:href="#font_0_1" transform="matrix(9.9626,0,0,-9.9626,366.152,12.100998)"/>
<use data-text="X" xlink:href="#font_0_4" transform="matrix(9.9626,0,0,-9.9626,370.58537,12.100998)"/>
<use data-text="n" xlink:href="#font_1_5" transform="matrix(6.9738,0,0,-6.9738,379.616,8.485992)"/>
<use data-text="&#xfffd;" xlink:href="#font_2_2" transform="matrix(9.9626,0,0,-9.9626,385.039,4.0319979)"/>
<use data-text="&#x223c;" xlink:href="#font_4_1" transform="matrix(9.9626,0,0,-9.9626,392.372,9.442993)"/>
<use data-text="=" xlink:href="#font_5_4" transform="matrix(9.9626,0,0,-9.9626,392.372,12.598999)"/>
<use data-text="0" xlink:href="#font_5_3" transform="matrix(9.9626,0,0,-9.9626,402.888,12.100998)"/>
<use data-text="0" xlink:href="#font_5_3" transform="matrix(9.9626,0,0,-9.9626,14.5540089,49.25499)"/>
<use data-text="&#x223c;" xlink:href="#font_4_1" transform="matrix(9.9626,0,0,-9.9626,22.303009,46.595994)"/>
<use data-text="=" xlink:href="#font_5_4" transform="matrix(9.9626,0,0,-9.9626,22.303009,49.75299)"/>
<use data-text="H" xlink:href="#font_0_3" transform="matrix(9.9626,0,0,-9.9626,32.819009,49.25499)"/>
<use data-text="n" xlink:href="#font_1_5" transform="matrix(6.9738,0,0,-6.9738,41.101007,50.749986)"/>
<use data-text="&#xfffd;" xlink:href="#font_2_1" transform="matrix(9.9626,0,0,-9.9626,48.184007,41.184984)"/>
<use data-text="X" xlink:href="#font_0_4" transform="matrix(9.9626,0,0,-9.9626,52.750009,49.254976)"/>
<use data-text="n" xlink:href="#font_1_5" transform="matrix(6.9738,0,0,-6.9738,61.786008,45.63997)"/>
<use data-text="&#x2212;" xlink:href="#font_6_1" transform="matrix(6.9738,0,0,-6.9738,66.711009,45.63997)"/>
<use data-text="1" xlink:href="#font_3_2" transform="matrix(6.9738,0,0,-6.9738,72.937007,45.63997)"/>
<use data-text="&#xfffd;" xlink:href="#font_2_2" transform="matrix(9.9626,0,0,-9.9626,77.407009,41.184968)"/>
<use data-text="H" xlink:href="#font_0_3" transform="matrix(9.9626,0,0,-9.9626,194.742,49.25499)"/>
<use data-text="n" xlink:href="#font_1_5" transform="matrix(6.9738,0,0,-6.9738,203.02301,50.749986)"/>
<use data-text="&#xfffd;" xlink:href="#font_2_1" transform="matrix(9.9626,0,0,-9.9626,210.10701,41.184984)"/>
<use data-text="X" xlink:href="#font_0_4" transform="matrix(9.9626,0,0,-9.9626,214.673,49.254976)"/>
<use data-text="n" xlink:href="#font_1_5" transform="matrix(6.9738,0,0,-6.9738,223.70801,45.63997)"/>
<use data-text="+" xlink:href="#font_3_1" transform="matrix(6.9738,0,0,-6.9738,228.63301,45.63997)"/>
<use data-text="1" xlink:href="#font_3_2" transform="matrix(6.9738,0,0,-6.9738,234.74904,45.63997)"/>
<use data-text="&#xfffd;" xlink:href="#font_2_2" transform="matrix(9.9626,0,0,-9.9626,239.21901,41.184968)"/>
<use data-text="&#x223c;" xlink:href="#font_4_1" transform="matrix(9.9626,0,0,-9.9626,246.552,46.595964)"/>
<use data-text="=" xlink:href="#font_5_4" transform="matrix(9.9626,0,0,-9.9626,246.552,49.75296)"/>
<use data-text="H" xlink:href="#font_0_3" transform="matrix(9.9626,0,0,-9.9626,257.068,49.25496)"/>
<use data-text="n" xlink:href="#font_1_5" transform="matrix(6.9738,0,0,-6.9738,265.35,50.749956)"/>
<use data-text="(" xlink:href="#font_5_1" transform="matrix(9.9626,0,0,-9.9626,272.433,49.25496)"/>
<use data-text="X" xlink:href="#font_0_4" transform="matrix(9.9626,0,0,-9.9626,276.307,49.25496)"/>
<use data-text=")" xlink:href="#font_5_2" transform="matrix(9.9626,0,0,-9.9626,285.34303,49.25496)"/>
<use data-text="H" xlink:href="#font_0_3" transform="matrix(9.9626,0,0,-9.9626,124.71101,85.412998)"/>
<use data-text="n" xlink:href="#font_1_5" transform="matrix(6.9738,0,0,-6.9738,132.99301,86.907)"/>
<use data-text="(" xlink:href="#font_5_1" transform="matrix(9.9626,0,0,-9.9626,140.076,85.412998)"/>
<use data-text="X" xlink:href="#font_0_4" transform="matrix(9.9626,0,0,-9.9626,143.951,85.412998)"/>
<use data-text="n" xlink:href="#font_1_5" transform="matrix(6.9738,0,0,-6.9738,152.98601,81.797)"/>
<use data-text=")" xlink:href="#font_5_2" transform="matrix(9.9626,0,0,-9.9626,158.40901,85.412998)"/>
<use data-text="H" xlink:href="#font_0_3" transform="matrix(9.9626,0,0,-9.9626,9.256013,121.56999)"/>
<use data-text="n" xlink:href="#font_1_5" transform="matrix(6.9738,0,0,-6.9738,17.538012,123.064998)"/>
<use data-text="+" xlink:href="#font_3_1" transform="matrix(6.9738,0,0,-6.9738,22.46301,123.064998)"/>
<use data-text="1" xlink:href="#font_3_2" transform="matrix(6.9738,0,0,-6.9738,28.579035,123.064998)"/>
<use data-text="&#xfffd;" xlink:href="#font_2_1" transform="matrix(9.9626,0,0,-9.9626,34.708009,113.49999)"/>
<use data-text="X" xlink:href="#font_0_4" transform="matrix(9.9626,0,0,-9.9626,39.27501,121.56999)"/>
<use data-text="n" xlink:href="#font_1_5" transform="matrix(6.9738,0,0,-6.9738,48.310014,117.954998)"/>
<use data-text="+" xlink:href="#font_3_1" transform="matrix(6.9738,0,0,-6.9738,53.23501,117.954998)"/>
<use data-text="1" xlink:href="#font_3_2" transform="matrix(6.9738,0,0,-6.9738,59.351037,117.954998)"/>
<use data-text="," xlink:href="#font_0_1" transform="matrix(9.9626,0,0,-9.9626,63.820009,121.56999)"/>
<use data-text="X" xlink:href="#font_0_4" transform="matrix(9.9626,0,0,-9.9626,68.25337,121.56999)"/>
<use data-text="n" xlink:href="#font_1_5" transform="matrix(6.9738,0,0,-6.9738,77.28401,117.954998)"/>
<use data-text="&#xfffd;" xlink:href="#font_2_2" transform="matrix(9.9626,0,0,-9.9626,82.70701,113.49999)"/>
<use data-text="&#x223c;" xlink:href="#font_4_1" transform="matrix(9.9626,0,0,-9.9626,44.390008,130.86699)"/>
<use data-text="=" xlink:href="#font_5_4" transform="matrix(9.9626,0,0,-9.9626,44.390008,134.02399)"/>
<use data-text="C" xlink:href="#font_0_2" transform="matrix(9.9626,0,0,-9.9626,28.557005,145.49298)"/>
<use data-text="C" xlink:href="#font_3_4" transform="matrix(6.9738,0,0,-6.9738,36.390008,141.87699)"/>
<use data-text="W" xlink:href="#font_3_5" transform="matrix(6.9738,0,0,-6.9738,42.080629,141.87699)"/>
<use data-text="n" xlink:href="#font_1_5" transform="matrix(6.9738,0,0,-6.9738,35.678,147.96599)"/>
<use data-text="+" xlink:href="#font_3_1" transform="matrix(6.9738,0,0,-6.9738,40.602006,147.96599)"/>
<use data-text="1" xlink:href="#font_3_2" transform="matrix(6.9738,0,0,-6.9738,46.718027,147.96599)"/>
<use data-text="(" xlink:href="#font_5_1" transform="matrix(9.9626,0,0,-9.9626,51.188005,145.49298)"/>
<use data-text="X" xlink:href="#font_0_4" transform="matrix(9.9626,0,0,-9.9626,55.062005,145.49298)"/>
<use data-text=")" xlink:href="#font_5_2" transform="matrix(9.9626,0,0,-9.9626,64.09801,145.49298)"/>
<use data-text="H" xlink:href="#font_0_3" transform="matrix(9.9626,0,0,-9.9626,207.96103,121.56999)"/>
<use data-text="n" xlink:href="#font_1_5" transform="matrix(6.9738,0,0,-6.9738,216.24204,123.064998)"/>
<use data-text="&#xfffd;" xlink:href="#font_2_1" transform="matrix(9.9626,0,0,-9.9626,223.32503,113.49999)"/>
<use data-text="X" xlink:href="#font_0_4" transform="matrix(9.9626,0,0,-9.9626,227.89203,121.56999)"/>
<use data-text="n" xlink:href="#font_1_5" transform="matrix(6.9738,0,0,-6.9738,236.92704,117.954998)"/>
<use data-text="," xlink:href="#font_0_1" transform="matrix(9.9626,0,0,-9.9626,242.35004,121.56999)"/>
<use data-text="X" xlink:href="#font_0_4" transform="matrix(9.9626,0,0,-9.9626,246.7834,121.56999)"/>
<use data-text="n" xlink:href="#font_1_5" transform="matrix(6.9738,0,0,-6.9738,255.81304,117.954998)"/>
<use data-text="&#x2212;" xlink:href="#font_6_1" transform="matrix(6.9738,0,0,-6.9738,260.73805,117.954998)"/>
<use data-text="1" xlink:href="#font_3_2" transform="matrix(6.9738,0,0,-6.9738,266.96504,117.954998)"/>
<use data-text="&#xfffd;" xlink:href="#font_2_2" transform="matrix(9.9626,0,0,-9.9626,271.43403,113.49999)"/>
<use data-text="&#x223c;" xlink:href="#font_4_1" transform="matrix(9.9626,0,0,-9.9626,238.106,130.86699)"/>
<use data-text="=" xlink:href="#font_5_4" transform="matrix(9.9626,0,0,-9.9626,238.106,134.02399)"/>
<use data-text="C" xlink:href="#font_0_2" transform="matrix(9.9626,0,0,-9.9626,222.513,145.49298)"/>
<use data-text="C" xlink:href="#font_3_4" transform="matrix(6.9738,0,0,-6.9738,230.346,141.87699)"/>
<use data-text="W" xlink:href="#font_3_5" transform="matrix(6.9738,0,0,-6.9738,236.03662,141.87699)"/>
<use data-text="n" xlink:href="#font_1_5" transform="matrix(6.9738,0,0,-6.9738,229.633,147.956)"/>
<use data-text="(" xlink:href="#font_5_1" transform="matrix(9.9626,0,0,-9.9626,244.664,145.493)"/>
<use data-text="X" xlink:href="#font_0_4" transform="matrix(9.9626,0,0,-9.9626,248.538,145.493)"/>
<use data-text=")" xlink:href="#font_5_2" transform="matrix(9.9626,0,0,-9.9626,257.57398,145.493)"/>
<use data-text="H" xlink:href="#font_0_3" transform="matrix(9.9626,0,0,-9.9626,445.31,121.56999)"/>
<use data-text="n" xlink:href="#font_1_5" transform="matrix(6.9738,0,0,-6.9738,453.592,123.064998)"/>
<use data-text="&#x2212;" xlink:href="#font_6_1" transform="matrix(6.9738,0,0,-6.9738,458.51603,123.064998)"/>
<use data-text="1" xlink:href="#font_3_2" transform="matrix(6.9738,0,0,-6.9738,464.743,123.064998)"/>
<use data-text="&#xfffd;" xlink:href="#font_2_1" transform="matrix(9.9626,0,0,-9.9626,470.87303,113.49999)"/>
<use data-text="X" xlink:href="#font_0_4" transform="matrix(9.9626,0,0,-9.9626,475.43904,121.56999)"/>
<use data-text="n" xlink:href="#font_1_5" transform="matrix(6.9738,0,0,-6.9738,484.47505,117.954998)"/>
<use data-text="&#x2212;" xlink:href="#font_6_1" transform="matrix(6.9738,0,0,-6.9738,489.40003,117.954998)"/>
<use data-text="1" xlink:href="#font_3_2" transform="matrix(6.9738,0,0,-6.9738,495.62605,117.954998)"/>
<use data-text="," xlink:href="#font_0_1" transform="matrix(9.9626,0,0,-9.9626,500.09605,121.56999)"/>
<use data-text="X" xlink:href="#font_0_4" transform="matrix(9.9626,0,0,-9.9626,504.5294,121.56999)"/>
<use data-text="n" xlink:href="#font_1_5" transform="matrix(6.9738,0,0,-6.9738,513.5591,117.954998)"/>
<use data-text="&#x2212;" xlink:href="#font_6_1" transform="matrix(6.9738,0,0,-6.9738,518.484,117.954998)"/>
<use data-text="2" xlink:href="#font_3_3" transform="matrix(6.9738,0,0,-6.9738,524.7101,117.954998)"/>
<use data-text="&#xfffd;" xlink:href="#font_2_2" transform="matrix(9.9626,0,0,-9.9626,529.18008,113.49999)"/>
<use data-text="&#x223c;" xlink:href="#font_4_1" transform="matrix(9.9626,0,0,-9.9626,485.65403,130.86699)"/>
<use data-text="=" xlink:href="#font_5_4" transform="matrix(9.9626,0,0,-9.9626,485.65403,134.02399)"/>
<use data-text="C" xlink:href="#font_0_2" transform="matrix(9.9626,0,0,-9.9626,469.765,145.49298)"/>
<use data-text="C" xlink:href="#font_3_4" transform="matrix(6.9738,0,0,-6.9738,477.59803,141.87699)"/>
<use data-text="W" xlink:href="#font_3_5" transform="matrix(6.9738,0,0,-6.9738,483.28865,141.87699)"/>
<use data-text="n" xlink:href="#font_1_5" transform="matrix(6.9738,0,0,-6.9738,476.88603,147.96599)"/>
<use data-text="&#x2212;" xlink:href="#font_6_1" transform="matrix(6.9738,0,0,-6.9738,481.811,147.96599)"/>
<use data-text="1" xlink:href="#font_3_2" transform="matrix(6.9738,0,0,-6.9738,488.03703,147.96599)"/>
<use data-text="(" xlink:href="#font_5_1" transform="matrix(9.9626,0,0,-9.9626,492.50703,145.49298)"/>
<use data-text="X" xlink:href="#font_0_4" transform="matrix(9.9626,0,0,-9.9626,496.381,145.49298)"/>
<use data-text=")" xlink:href="#font_5_2" transform="matrix(9.9626,0,0,-9.9626,505.41703,145.49298)"/>
<use data-text="H" xlink:href="#font_0_3" transform="matrix(9.9626,0,0,-9.9626,335.09803,182.746)"/>
<use data-text="n" xlink:href="#font_1_5" transform="matrix(6.9738,0,0,-6.9738,343.37904,184.241)"/>
<use data-text="&#x2212;" xlink:href="#font_6_1" transform="matrix(6.9738,0,0,-6.9738,348.30403,184.241)"/>
<use data-text="1" xlink:href="#font_3_2" transform="matrix(6.9738,0,0,-6.9738,354.531,184.241)"/>
<use data-text="&#xfffd;" xlink:href="#font_2_1" transform="matrix(9.9626,0,0,-9.9626,360.661,174.67601)"/>
<use data-text="X" xlink:href="#font_0_4" transform="matrix(9.9626,0,0,-9.9626,365.22703,182.746)"/>
<use data-text="n" xlink:href="#font_1_5" transform="matrix(6.9738,0,0,-6.9738,374.26203,179.13101)"/>
<use data-text="&#x2212;" xlink:href="#font_6_1" transform="matrix(6.9738,0,0,-6.9738,379.187,179.13101)"/>
<use data-text="1" xlink:href="#font_3_2" transform="matrix(6.9738,0,0,-6.9738,385.414,179.13101)"/>
<use data-text="&#xfffd;" xlink:href="#font_2_2" transform="matrix(9.9626,0,0,-9.9626,389.883,174.676)"/>
<use data-text="0" xlink:href="#font_5_3" transform="matrix(9.9626,0,0,-9.9626,203.17203,219.9)"/>
<use data-text="&#x223c;" xlink:href="#font_4_1" transform="matrix(9.9626,0,0,-9.9626,210.92102,217.241)"/>
<use data-text="=" xlink:href="#font_5_4" transform="matrix(9.9626,0,0,-9.9626,210.92102,220.398)"/>
<use data-text="H" xlink:href="#font_0_3" transform="matrix(9.9626,0,0,-9.9626,221.43703,219.9)"/>
<use data-text="n" xlink:href="#font_1_5" transform="matrix(6.9738,0,0,-6.9738,229.71903,221.39398)"/>
<use data-text="&#x2212;" xlink:href="#font_6_1" transform="matrix(6.9738,0,0,-6.9738,234.64302,221.39398)"/>
<use data-text="1" xlink:href="#font_3_2" transform="matrix(6.9738,0,0,-6.9738,240.87003,221.39398)"/>
<use data-text="&#xfffd;" xlink:href="#font_2_1" transform="matrix(9.9626,0,0,-9.9626,247.00003,211.82999)"/>
<use data-text="X" xlink:href="#font_0_4" transform="matrix(9.9626,0,0,-9.9626,251.56603,219.9)"/>
<use data-text="n" xlink:href="#font_1_5" transform="matrix(6.9738,0,0,-6.9738,260.60206,216.28499)"/>
<use data-text="&#x2212;" xlink:href="#font_6_1" transform="matrix(6.9738,0,0,-6.9738,265.52607,216.28499)"/>
<use data-text="2" xlink:href="#font_3_3" transform="matrix(6.9738,0,0,-6.9738,271.75306,216.28499)"/>
<use data-text="&#xfffd;" xlink:href="#font_2_2" transform="matrix(9.9626,0,0,-9.9626,276.22206,211.82999)"/>
<path transform="matrix(1,0,0,-1,271.5,113.51)" stroke-width=".39848" stroke-linecap="butt" stroke-miterlimit="10" stroke-linejoin="miter" fill="none" stroke="#d65c5c" d="M-195.46921 56.20123-151.58095 39.54335"/>
<path transform="matrix(-.93489,-.35483,-.35483,.93489,76.21707,57.379484)" stroke-width=".39848" stroke-linecap="round" stroke-linejoin="round" fill="none" stroke="#d65c5c" d="M2.07213 2.39091C1.69356 .95633 .84995 .27893 0 0 .84995-.27893 1.69356-.95633 2.07213-2.39091"/>
<path transform="matrix(.93489,.35483,.35483,-.93489,120.105319,74.03733)" stroke-width=".39848" stroke-linecap="round" stroke-linejoin="round" fill="none" stroke="#d65c5c" d="M-2.07213 2.39091C-1.69356 .95633-.84995 .27893 0 0-.84995-.27893-1.69356-.95633-2.07213-2.39091"/>
<use data-text="i" xlink:href="#font_1_3" transform="matrix(6.9738,0,0,-6.9738,99.531009,62.009004)" fill="#d65c5c"/>
<use data-text="n" xlink:href="#font_7_1" transform="matrix(4.9813,0,0,-4.9813,102.350009,63.005006)" fill="#d65c5c"/>
<path transform="matrix(1,0,0,-1,271.5,113.51)" stroke-width=".39848" stroke-linecap="butt" stroke-miterlimit="10" stroke-linejoin="miter" fill="none" stroke="#30c030" d="M2.89217 76.55627 60.47653 93.97543"/>
<path transform="matrix(.95712,-.28952,-.28952,-.95712,332.16725,19.47689)" stroke-width=".39848" stroke-linecap="round" stroke-linejoin="round" fill="none" stroke="#30c030" d="M-2.07213 2.39091C-1.69356 .95633-.84995 .27893 0 0-.84995-.27893-1.69356-.95633-2.07213-2.39091"/>
<use data-text="j" xlink:href="#font_1_4" transform="matrix(6.9738,0,0,-6.9738,292.856,24.494996)" fill="#30c030"/>
<use data-text="n" xlink:href="#font_7_1" transform="matrix(4.9813,0,0,-4.9813,296.15299,25.49199)" fill="#30c030"/>
<path transform="matrix(1,0,0,-1,271.5,113.51)" stroke-width=".39848" stroke-linecap="butt" stroke-miterlimit="10" stroke-linejoin="miter" fill="none" stroke="#30c030" d="M-104.74477 39.12015-56.60316 56.79913"/>
<path transform="matrix(.93867,-.3447,-.3447,-.93867,213.73728,57.13668)" stroke-width=".39848" stroke-linecap="round" stroke-linejoin="round" fill="none" stroke="#30c030" d="M-2.07213 2.39091C-1.69356 .95633-.84995 .27893 0 0-.84995-.27893-1.69356-.95633-2.07213-2.39091"/>
<path transform="matrix(.93867,-.3447,-.3447,-.93867,215.08383,56.6422)" stroke-width=".39848" stroke-linecap="round" stroke-linejoin="round" fill="none" stroke="#30c030" d="M-2.07213 2.39091C-1.69356 .95633-.84995 .27893 0 0-.84995-.27893-1.69356-.95633-2.07213-2.39091"/>
<use data-text="i" xlink:href="#font_1_3" transform="matrix(6.9738,0,0,-6.9738,180.974,62.149995)" fill="#30c030"/>
<use data-text="n" xlink:href="#font_7_1" transform="matrix(4.9813,0,0,-4.9813,183.79199,63.145998)" fill="#30c030"/>
<path transform="matrix(1,0,0,-1,271.5,113.51)" stroke-width=".39848" stroke-linecap="butt" stroke-miterlimit="10" stroke-linejoin="miter" fill="none" stroke="#d65c5c" d="M-110.01274 21.77483-73.35402 3.82709"/>
<path transform="matrix(.8981,.43971,.43971,-.8981,198.32492,109.7705)" stroke-width=".39848" stroke-linecap="round" stroke-linejoin="round" fill="none" stroke="#d65c5c" d="M-2.07213 2.39091C-1.69356 .95633-.84995 .27893 0 0-.84995-.27893-1.69356-.95633-2.07213-2.39091"/>
<use data-text="j" xlink:href="#font_1_4" transform="matrix(6.9738,0,0,-6.9738,182.33301,97.104999)" fill="#d65c5c"/>
<use data-text="n" xlink:href="#font_7_1" transform="matrix(4.9813,0,0,-4.9813,185.63,98.101)" fill="#d65c5c"/>
<path transform="matrix(1,0,0,-1,271.5,113.51)" stroke-width=".39848" stroke-linecap="butt" stroke-miterlimit="10" stroke-linejoin="miter" fill="none" stroke="#30c030" d="M-180.09429 4.24031-145.77899 21.59502"/>
<path transform="matrix(.89233,-.45128,-.45128,-.89233,125.89877,91.8251)" stroke-width=".39848" stroke-linecap="round" stroke-linejoin="round" fill="none" stroke="#30c030" d="M-2.07213 2.39091C-1.69356 .95633-.84995 .27893 0 0-.84995-.27893-1.69356-.95633-2.07213-2.39091"/>
<use data-text="&#x2202;" xlink:href="#font_1_1" transform="matrix(6.9738,0,0,-6.9738,88.757,96.34)" fill="#30c030"/>
<use data-text="n" xlink:href="#font_7_1" transform="matrix(4.9813,0,0,-4.9813,93.012,97.336)" fill="#30c030"/>
<use data-text="+" xlink:href="#font_8_1" transform="matrix(4.9813,0,0,-4.9813,97.399,97.336)" fill="#30c030"/>
<use data-text="1" xlink:href="#font_8_2" transform="matrix(4.9813,0,0,-4.9813,102.519779,97.336)" fill="#30c030"/>
<path transform="matrix(1,0,0,-1,271.5,113.51)" stroke-width=".39848" stroke-linecap="butt" stroke-miterlimit="10" stroke-linejoin="miter" fill="none" stroke="#000000" d="M-174.776-17.58083H-73.39462"/>
<path transform="matrix(1,0,0,-1,198.30461,131.09084)" stroke-width=".39848" stroke-linecap="round" stroke-linejoin="round" fill="none" stroke="#000000" d="M-2.07213 2.39091C-1.69356 .95633-.84995 .27893 0 0-.84995-.27893-1.69356-.95633-2.07213-2.39091"/>
<use data-text="d" xlink:href="#font_1_2" transform="matrix(6.9738,0,0,-6.9738,138.844,125.93199)"/>
<use data-text="C" xlink:href="#font_8_3" transform="matrix(4.9813,0,0,-4.9813,142.99199,122.92499)"/>
<use data-text="W" xlink:href="#font_8_4" transform="matrix(4.9813,0,0,-4.9813,147.76407,122.92499)"/>
<use data-text="n" xlink:href="#font_7_1" transform="matrix(4.9813,0,0,-4.9813,142.99199,127.92399)"/>
<use data-text="+" xlink:href="#font_8_1" transform="matrix(4.9813,0,0,-4.9813,147.37899,127.92399)"/>
<use data-text="1" xlink:href="#font_8_2" transform="matrix(4.9813,0,0,-4.9813,152.49976,127.92399)"/>
<path transform="matrix(1,0,0,-1,271.5,113.51)" stroke-width=".39848" stroke-linecap="butt" stroke-miterlimit="10" stroke-linejoin="miter" fill="none" stroke="#000000" d="M13.9541-17.58083H163.95812"/>
<path transform="matrix(1,0,0,-1,435.65736,131.09084)" stroke-width=".39848" stroke-linecap="round" stroke-linejoin="round" fill="none" stroke="#000000" d="M-2.07213 2.39091C-1.69356 .95633-.84995 .27893 0 0-.84995-.27893-1.69356-.95633-2.07213-2.39091"/>
<use data-text="d" xlink:href="#font_1_2" transform="matrix(6.9738,0,0,-6.9738,352.594,126.762)"/>
<use data-text="C" xlink:href="#font_8_3" transform="matrix(4.9813,0,0,-4.9813,356.742,123.755008)"/>
<use data-text="W" xlink:href="#font_8_4" transform="matrix(4.9813,0,0,-4.9813,361.5141,123.755008)"/>
<use data-text="n" xlink:href="#font_7_1" transform="matrix(4.9813,0,0,-4.9813,356.742,128.755)"/>
<path transform="matrix(1,0,0,-1,271.5,113.51)" stroke-width=".39848" stroke-linecap="butt" stroke-miterlimit="10" stroke-linejoin="miter" fill="none" stroke="#d65c5c" d="M13.9541-34.98055 68.40297-56.78835"/>
<path transform="matrix(.92828,.37177,.37177,-.92828,340.08793,170.3724)" stroke-width=".39848" stroke-linecap="round" stroke-linejoin="round" fill="none" stroke="#d65c5c" d="M-2.07213 2.39091C-1.69356 .95633-.84995 .27893 0 0-.84995-.27893-1.69356-.95633-2.07213-2.39091"/>
<use data-text="&#x2202;" xlink:href="#font_1_1" transform="matrix(6.9738,0,0,-6.9738,301.387,166.647)" fill="#d65c5c"/>
<use data-text="n" xlink:href="#font_7_1" transform="matrix(4.9813,0,0,-4.9813,305.641,167.643)" fill="#d65c5c"/>
<path transform="matrix(1,0,0,-1,271.5,113.51)" stroke-width=".39848" stroke-linecap="butt" stroke-miterlimit="10" stroke-linejoin="miter" fill="none" stroke="#424bf0" d="M120.07468-56.17651 163.98592-38.8642"/>
<path transform="matrix(-.93025,.36676,.36676,.93025,391.76005,169.61342)" stroke-width=".39848" stroke-linecap="round" stroke-linejoin="round" fill="none" stroke="#424bf0" d="M2.07213 2.39091C1.69356 .95633 .84995 .27893 0 0 .84995-.27893 1.69356-.95633 2.07213-2.39091"/>
<path transform="matrix(.93025,-.36676,-.36676,-.93025,435.67127,152.30115)" stroke-width=".39848" stroke-linecap="round" stroke-linejoin="round" fill="none" stroke="#424bf0" d="M-2.07213 2.39091C-1.69356 .95633-.84995 .27893 0 0-.84995-.27893-1.69356-.95633-2.07213-2.39091"/>
<use data-text="j" xlink:href="#font_1_4" transform="matrix(6.9738,0,0,-6.9738,415.086,168.288)" fill="#424bf0"/>
<use data-text="n" xlink:href="#font_7_1" transform="matrix(4.9813,0,0,-4.9813,418.383,169.284)" fill="#424bf0"/>
<use data-text="&#x2212;" xlink:href="#font_9_1" transform="matrix(4.9813,0,0,-4.9813,422.771,169.284)" fill="#424bf0"/>
<use data-text="1" xlink:href="#font_8_2" transform="matrix(4.9813,0,0,-4.9813,428.167,169.284)" fill="#424bf0"/>
<path transform="matrix(1,0,0,-1,271.5,113.51)" stroke-width=".39848" stroke-linecap="butt" stroke-miterlimit="10" stroke-linejoin="miter" fill="none" stroke="#424bf0" d="M2.89217-94.09079 60.47653-76.67163"/>
<path transform="matrix(.95712,-.28952,-.28952,-.95712,332.16725,190.12397)" stroke-width=".39848" stroke-linecap="round" stroke-linejoin="round" fill="none" stroke="#424bf0" d="M-2.07213 2.39091C-1.69356 .95633-.84995 .27893 0 0-.84995-.27893-1.69356-.95633-2.07213-2.39091"/>
<use data-text="i" xlink:href="#font_1_3" transform="matrix(6.9738,0,0,-6.9738,305.711,205.783)" fill="#424bf0"/>
<use data-text="n" xlink:href="#font_7_1" transform="matrix(4.9813,0,0,-4.9813,308.53,206.78)" fill="#424bf0"/>
<use data-text="&#x2212;" xlink:href="#font_9_1" transform="matrix(4.9813,0,0,-4.9813,312.917,206.78)" fill="#424bf0"/>
<use data-text="1" xlink:href="#font_8_2" transform="matrix(4.9813,0,0,-4.9813,318.314,206.78)" fill="#424bf0"/>
</svg>
