<?xml version="1.0" encoding="UTF-8" standalone="no"?>
<!-- Created with Inkscape (http://www.inkscape.org/) -->

<svg
   version="1.1"
   id="svg1"
   width="159.664"
   height="47.679413"
   viewBox="0 0 159.664 47.679413"
   sodipodi:docname="Hatcher - 2001 - Algebraic topology.pdf"
   xmlns:inkscape="http://www.inkscape.org/namespaces/inkscape"
   xmlns:sodipodi="http://sodipodi.sourceforge.net/DTD/sodipodi-0.dtd"
   xmlns="http://www.w3.org/2000/svg"
   xmlns:svg="http://www.w3.org/2000/svg">
  <defs
     id="defs1" />
  <sodipodi:namedview
     id="namedview1"
     pagecolor="#ffffff"
     bordercolor="#000000"
     borderopacity="0.25"
     inkscape:showpageshadow="2"
     inkscape:pageopacity="0.0"
     inkscape:pagecheckerboard="0"
     inkscape:deskcolor="#d1d1d1">
    <inkscape:page
       x="0"
       y="0"
       width="159.664"
       height="47.679413"
       id="page2"
       margin="0"
       bleed="0" />
  </sodipodi:namedview>
  <g
     id="g1"
     inkscape:groupmode="layer"
     inkscape:label="37"
     transform="translate(-548.47999,-281.12061)">
    <path
       id="path66"
       d="m 4297.98,5518.48 -5.77,7.23 -7.05,-5.54 5.77,-7.23 7.05,5.54"
       style="fill:#000000;fill-opacity:1;fill-rule:nonzero;stroke:none"
       transform="matrix(0.13333333,0,0,-0.13333333,0,1056)"
       inkscape:export-filename="/Users/yiranmao/Downloads/path66.svg"
       inkscape:export-xdpi="96"
       inkscape:export-ydpi="96" />
    <path
       id="path67"
       d="m 4767.09,5507.11 c -4.59,-5.88 -10.15,-11.75 -14.62,-15.83 -4.35,-3.84 -8.34,-5.76 -12.09,-5.76 -1.81,0 -3.38,0.36 -6.28,1.44 l 5.2,10.68 c 1.69,-0.85 2.77,-1.2 4.95,-1.2 1.45,0 2.78,0.24 4.23,0.72 2.18,0.59 4.11,1.68 5.92,3.11 3.63,2.88 8.58,7.8 12.33,12.24 l 3.5,4.19 -7.97,18.84 c -2.18,5.03 -3.87,7.07 -5.92,7.07 -2.54,0 -5.56,-2.64 -10.64,-9.36 h -0.12 l 1.57,7.44 c 2.78,3.6 3.75,4.92 5.56,6.6 3.26,3.12 6.29,4.67 9.18,4.67 2.06,0 4.24,-0.96 5.93,-2.75 1.81,-1.92 2.9,-3.84 4.95,-8.64 l 6.53,-15.35 3.86,4.92 c 4.96,6.23 11.48,13.07 16.32,16.91 3.87,3.11 8.34,4.91 11.97,4.91 2.05,0 3.86,-0.59 6.04,-1.91 l -6.04,-10.68 c -1.7,1.08 -3.03,1.44 -4.72,1.44 -3.02,0 -7.73,-1.68 -10.63,-3.96 -3.27,-2.4 -9.07,-8.03 -12.33,-12.11 l -2.78,-3.36 8.7,-20.5 c 2.3,-5.4 3.87,-7.2 6.29,-7.2 0.84,0 2.05,0.24 3.02,0.72 1.21,0.6 2.17,1.31 3.14,2.15 1.69,1.45 2.54,2.29 5.44,5.52 h 0.12 l -1.45,-6.71 c -6.17,-6.72 -11.36,-9.84 -16.07,-9.84 -4.6,0 -7.86,3 -10.76,9.71 l -7.62,17.88 -4.71,-6"
       style="fill:#000000;fill-opacity:1;fill-rule:nonzero;stroke:none"
       transform="matrix(0.13333333,0,0,-0.13333333,0,1056)" />
    <path
       id="path68"
       d="m 4846.34,5498.9 c -0.14,2.23 -0.29,2.52 -1.38,2.52 -0.57,0 -1.23,-0.07 -1.8,-0.14 l -3.12,-0.58 -3.56,-0.65 v 2.16 l 17.04,4.25 v -43.32 l 0.22,-3.53 c 0.22,-2.73 0.51,-3.02 3.33,-3.23 l 2.4,-0.15 4.13,-0.07 V 5454 h -27.12 v 2.16 l 4.21,0.07 2.39,0.15 c 2.83,0.21 3.12,0.5 3.26,3.23 l 0.22,3.53 v 32.24 l -0.22,3.52"
       style="fill:#000000;fill-opacity:1;fill-rule:nonzero;stroke:none"
       transform="matrix(0.13333333,0,0,-0.13333333,0,1056)" />
    <path
       id="path69"
       d="m 4146.59,5514.87 c -4.59,-5.88 -10.15,-11.76 -14.62,-15.83 -4.35,-3.84 -8.34,-5.76 -12.09,-5.76 -1.81,0 -3.38,0.36 -6.28,1.44 l 5.19,10.67 c 1.7,-0.84 2.78,-1.19 4.96,-1.19 1.45,0 2.78,0.23 4.23,0.71 2.17,0.6 4.11,1.68 5.92,3.12 3.63,2.88 8.58,7.8 12.33,12.24 l 3.5,4.19 -7.98,18.83 c -2.17,5.04 -3.86,7.08 -5.91,7.08 -2.54,0 -5.56,-2.64 -10.64,-9.35 h -0.12 l 1.57,7.43 c 2.78,3.6 3.75,4.92 5.56,6.6 3.26,3.11 6.28,4.67 9.18,4.67 2.06,0 4.24,-0.95 5.93,-2.76 1.81,-1.91 2.89,-3.83 4.95,-8.63 l 6.53,-15.35 3.86,4.91 c 4.96,6.24 11.48,13.08 16.32,16.91 3.86,3.13 8.34,4.92 11.96,4.92 2.06,0 3.87,-0.59 6.04,-1.92 l -6.04,-10.67 c -1.69,1.08 -3.02,1.44 -4.71,1.44 -3.02,0 -7.73,-1.68 -10.64,-3.96 -3.26,-2.4 -9.06,-8.03 -12.32,-12.11 l -2.78,-3.36 8.7,-20.51 c 2.29,-5.4 3.86,-7.19 6.28,-7.19 0.85,0 2.06,0.24 3.03,0.72 1.2,0.59 2.17,1.32 3.14,2.16 1.69,1.43 2.54,2.27 5.43,5.51 h 0.13 l -1.45,-6.72 c -6.17,-6.71 -11.36,-9.83 -16.08,-9.83 -4.59,0 -7.85,3 -10.75,9.72 l -7.62,17.86 -4.71,-5.99"
       style="fill:#000000;fill-opacity:1;fill-rule:nonzero;stroke:none"
       transform="matrix(0.13333333,0,0,-0.13333333,0,1056)" />
    <path
       id="path70"
       d="m 4200.7,5485.83 c 0,16.77 7.18,27.49 18.34,27.49 11.24,0 18.35,-10.72 18.35,-27.49 0,-16.47 -7.18,-27.12 -18.35,-27.12 -11.09,0 -18.34,10.65 -18.34,27.12 z m 27.12,-17.56 c 1.66,4.25 2.17,8.5 2.17,17.71 0,9.28 -0.51,13.24 -2.17,17.77 -1.74,4.54 -5.15,7.41 -8.92,7.41 -3.48,0 -6.74,-2.8 -8.56,-7.41 -1.67,-4.17 -2.25,-8.49 -2.25,-17.77 0,-9.21 0.51,-13.1 2.25,-17.71 1.67,-4.53 5.08,-7.41 8.7,-7.41 3.7,0 6.89,2.74 8.78,7.41"
       style="fill:#000000;fill-opacity:1;fill-rule:nonzero;stroke:none"
       transform="matrix(0.13333333,0,0,-0.13333333,0,1056)" />
    <path
       id="path71"
       d="m 4520.77,5709.91 c 9.79,13.2 17.04,18.59 25.26,18.59 5.68,0 9.54,-4.31 9.54,-10.55 0,-2.4 -0.23,-5.28 -0.96,-8.51 l -5.68,-28.55 -1.09,-5.75 c -0.12,-1.09 -0.24,-2.04 -0.24,-2.88 0,-2.64 1.21,-3.84 3.75,-3.84 3.38,0 10.15,4.92 17.28,12.83 l -1.09,-5.39 c -8.82,-9.48 -16.19,-13.8 -23.2,-13.8 -5.44,0 -8.46,3.12 -8.46,8.76 0,1.92 0.48,5.39 1.45,10.07 l 5.68,28.66 c 0.36,2.04 0.72,4.2 0.72,5.4 0,3.24 -1.33,4.92 -3.62,4.92 -3.39,0 -7.86,-3 -12.69,-8.51 -6.29,-7.32 -12.33,-15.96 -18.61,-26.99 l -4.11,-20.87 h -11.72 l 15.59,77.36 0.72,5.75 c 0.12,0.73 0.12,1.57 0.12,2.41 0,2.39 -0.48,2.75 -4.47,2.99 l -3.99,0.24 -1.09,0.12 0.73,3.6 h 22.6 l -12.21,-60.69 h 0.85 c 2.78,5.88 4.11,7.92 8.94,14.63"
       style="fill:#000000;fill-opacity:1;fill-rule:nonzero;stroke:none"
       transform="matrix(0.13333333,0,0,-0.13333333,0,1056)" />
    <path
       id="path72"
       d="m 5269.02,5486.91 c -0.97,-4.43 -3.86,-12.59 -6.16,-17.14 -4.83,-9.24 -14.26,-15.36 -23.93,-15.36 -4.35,0 -8.94,0.72 -12.45,2.04 l 3.02,15.35 h 5.8 l -0.12,-1.08 c -0.24,-2.15 -0.48,-3.72 -0.72,-4.79 -0.12,-0.97 -0.24,-1.92 -0.24,-2.64 0,-3.12 2.9,-4.8 8.21,-4.8 3.51,0 6.29,1.8 8.71,5.76 1.32,2.16 2.29,4.44 2.9,6.71 0.36,1.33 1.09,4.68 2.05,10.08 l 10.52,52.17 H 5255 l 0.85,4.68 h 11.72 c 2.54,11.75 3.87,15.95 7.13,21.82 5.2,9.6 14.14,15.36 23.81,15.36 4.35,0 9.06,-0.72 12.57,-1.92 l -3.14,-15.35 h -5.8 l 0.12,1.08 c 0.36,2.03 0.6,3.71 0.72,4.79 0.24,0.96 0.36,1.8 0.36,2.52 0,3.12 -3.02,4.92 -8.34,4.92 -3.38,0 -6.16,-1.8 -8.7,-5.88 -1.33,-2.04 -2.29,-4.32 -2.9,-6.71 -0.24,-1.32 -0.96,-4.56 -2.05,-9.96 l -2.18,-10.67 h 18.98 l -0.97,-4.68 h -18.97 l -9.19,-46.3"
       style="fill:#000000;fill-opacity:1;fill-rule:nonzero;stroke:none"
       transform="matrix(0.13333333,0,0,-0.13333333,0,1056)" />
    <path
       id="path74"
       d="m 4796,5580 c 9.37,-0.37 17.26,6.91 17.64,16.28 0.37,9.36 -6.92,17.26 -16.28,17.63 -9.37,0.38 -17.26,-6.91 -17.64,-16.27 -0.37,-9.37 6.92,-17.26 16.28,-17.64"
       style="fill:#000000;fill-opacity:1;fill-rule:nonzero;stroke:none"
       transform="matrix(0.13333333,0,0,-0.13333333,0,1056)" />
    <path
       id="path75"
       d="m 4290.31,5502.96 c 9.36,-0.37 17.26,6.92 17.63,16.28 0.38,9.36 -6.91,17.26 -16.28,17.64 -9.36,0.37 -17.26,-6.92 -17.63,-16.29 -0.37,-9.36 6.91,-17.25 16.28,-17.63"
       style="fill:#000000;fill-opacity:1;fill-rule:nonzero;stroke:none"
       transform="matrix(0.13333333,0,0,-0.13333333,0,1056)" />
    <path
       id="path76"
       d="M 4290.98,5519.92 C 4456,5686 4592,5530 4792,5594"
       style="fill:none;stroke:#000000;stroke-width:12;stroke-linecap:butt;stroke-linejoin:miter;stroke-miterlimit:4;stroke-dasharray:none;stroke-opacity:1"
       transform="matrix(0.13333333,0,0,-0.13333333,0,1056)" />
    <path
       id="path77"
       d="m 4796,5598 c 158,-44 170.16,-94.77 310,-88 248,12 163.71,333.01 -34,292 -135,-28 -168,-106 -276,-204"
       style="fill:none;stroke:#000000;stroke-width:12;stroke-linecap:butt;stroke-linejoin:miter;stroke-miterlimit:4;stroke-dasharray:none;stroke-opacity:1"
       transform="matrix(0.13333333,0,0,-0.13333333,0,1056)" />
    <path
       id="path78"
       d="m 4573.21,5589.1 c -21.18,-5.19 -47.87,-15.14 -65.05,-26.95 l 16.22,32.59 -8.37,35.42 c 14.04,-15.41 37.76,-31.18 57.2,-41.06"
       style="fill:#000000;fill-opacity:1;fill-rule:nonzero;stroke:none"
       transform="matrix(0.13333333,0,0,-0.13333333,0,1056)" />
    <path
       id="path79"
       d="m 5252.14,5695.76 c 10.36,-19.19 26.72,-42.51 42.47,-56.17 l -35.63,7.49 -32.17,-17.03 c 11.38,17.48 20.67,44.41 25.33,65.71"
       style="fill:#000000;fill-opacity:1;fill-rule:nonzero;stroke:none"
       transform="matrix(0.13333333,0,0,-0.13333333,0,1056)" />
    <g
       id="g87"
       aria-label="hbasedatx&#10;0&#10;.&#10;Strictlyspeaking,weshouldchooseanorderofformingtheproducth"
       transform="matrix(1.3333333,0,0,1.3333333,416.16,331.04)">
      <path
         id="path87"
         d="M 2.5196484,-3.0124219 H 2.4376172 L 3.5860547,-8.7546094 H 1.4649609 l -0.070312,0.3398438 0.1054688,0.011719 0.375,0.023437 c 0.375,0.023437 0.421875,0.058594 0.421875,0.28125 0,0.082031 0,0.1640625 -0.011719,0.2226563 L 2.2149609,-7.3249219 0.75011719,-7.03125e-4 H 1.8516797 L 2.2383984,-1.9811719 c 0.5859375,-1.0429687 1.1601563,-1.8632812 1.7460938,-2.5546875 0.4570312,-0.515625 0.8789062,-0.796875 1.1953125,-0.796875 0.2109375,0 0.3398437,0.1523438 0.3398437,0.4570313 0,0.1171875 -0.035156,0.3164062 -0.070312,0.515625 l -0.5273437,2.7070312 c -0.09375,0.4453125 -0.140625,0.77343753 -0.140625,0.96093753 0,0.52734375 0.28125,0.83203125 0.796875,0.83203125 0.65625,0 1.3476562,-0.41015625 2.1796875,-1.31249998 l 0.1054687,-0.5039063 c -0.6796875,0.75000003 -1.3125,1.20703128 -1.6289062,1.20703128 -0.234375,0 -0.3515625,-0.10546875 -0.3515625,-0.36328125 0,-0.0820313 0.011719,-0.1640625 0.023437,-0.26953123 l 0.1054687,-0.5507813 0.5273438,-2.6953125 c 0.070312,-0.3046875 0.09375,-0.5859375 0.09375,-0.8085937 0,-0.5859375 -0.3632813,-0.9960938 -0.9023438,-0.9960938 -0.7734375,0 -1.453125,0.5039063 -2.3671875,1.7578125 -0.4570312,0.6328125 -0.5859375,0.8320313 -0.84375,1.3828125 z m 0,0"
         style="fill:#000000;fill-opacity:1;fill-rule:nonzero;stroke:none" />
      <path
         id="path88"
         d="m 15.193477,-4.8991406 v -3.8554688 h -2.132813 v 0.3398438 l 0.105469,0.011719 0.375,0.023437 c 0.445312,0.035156 0.492187,0.082031 0.515625,0.5039063 l 0.03516,0.5507812 v 7.39453128 h 0.890625 l 0.140625,-0.75 h 0.07031 c 0.492187,0.5390625 1.101562,0.8203125 1.804687,0.8203125 1.523438,0 2.53125,-1.32421878 2.53125,-3.32812498 0,-1.8046875 -0.867187,-2.9648438 -2.226562,-2.9648438 -0.832032,0 -1.605469,0.4570313 -2.109375,1.2539063 z m 0,3.7851562 v -3.3984375 c 0.433593,-0.5742187 1.101562,-0.9375 1.699218,-0.9375 0.761719,0 1.195313,0.4335938 1.359375,1.3828125 0.08203,0.421875 0.117188,0.8085938 0.117188,1.171875 0,1.5703125 -0.539063,2.41406253 -1.511719,2.41406253 -0.5625,0 -1.054687,-0.17578125 -1.664062,-0.63281253 z m 9.231445,0.28125003 c 0.164062,0.69140625 0.445312,0.97265625 1.03125,0.97265625 0.246094,0 0.375,-0.0234375 0.703125,-0.140625005 l -0.03516,-0.410156245 c -0.152344,0.046875 -0.210938,0.046875 -0.292969,0.046875 -0.410156,0 -0.5625,-0.33984375 -0.5625,-1.30078123 v -2.6835938 c 0,-0.703125 -0.105469,-0.9960937 -0.46875,-1.3242187 -0.386719,-0.328125 -0.867188,-0.4804688 -1.523438,-0.4804688 -0.5625,0 -1.195312,0.1171875 -1.804687,0.375 -0.05859,0.023437 -0.164063,0.070312 -0.304688,0.1289063 v 1.0898437 h 0.738282 l 0.01172,-0.09375 c 0.05859,-0.5390625 0.117188,-0.65625 0.398438,-0.8554687 0.234375,-0.1523438 0.503906,-0.2226563 0.785156,-0.2226563 0.726563,0 1.078125,0.4570313 1.078125,1.4296875 v 0.75 H 23.95617 c -1.277344,0 -1.863281,0.1171875 -2.4375,0.4921875 -0.503906,0.3398438 -0.808594,0.890625 -0.808594,1.4882813 0,0.98437498 0.761719,1.71093748 1.792969,1.71093748 0.597656,0 1.136719,-0.234375 1.640625,-0.69140625 0.09375,-0.0820313 0.1875,-0.17578125 0.28125,-0.28125 z m -0.246094,-0.10546875 c -0.492187,0.31640625 -0.773437,0.421875 -1.125,0.421875 -0.679687,0 -1.183594,-0.50390628 -1.183594,-1.19531248 0,-0.9492188 0.761719,-1.5 2.050782,-1.5 h 0.257812 z m 4.608399,-1.69921878 0.574218,0.234375 c 0.714844,0.2695313 0.960938,0.5625 0.960938,1.125 0,0.63281253 -0.46875,1.07812503 -1.136719,1.07812503 -0.398437,0 -0.867187,-0.15234375 -1.171875,-0.36328125 -0.199219,-0.140625 -0.269531,-0.29296875 -0.292969,-0.59765628 l -0.04687,-0.5742187 -0.01172,-0.1054688 h -0.609375 v 1.53515628 c 0.457031,0.19921875 0.632812,0.2578125 1.183593,0.36328125 0.328125,0.05859375 0.632813,0.08203125 0.902344,0.08203125 1.324219,0 2.273438,-0.76171875 2.273438,-1.81640628 0,-0.4921875 -0.234375,-0.9726562 -0.609375,-1.21875 -0.222657,-0.1523437 -0.527344,-0.2929687 -0.890625,-0.4453125 l -0.515625,-0.2109375 c -1.042969,-0.4335937 -1.289063,-0.65625 -1.289063,-1.1835937 0,-0.6210938 0.480469,-1.078125 1.113281,-1.078125 0.246094,0 0.539063,0.070312 0.75,0.1875 0.257813,0.1523437 0.304688,0.234375 0.339844,0.6445312 l 0.05859,0.5039063 v 0.09375 h 0.609375 v -1.4296875 c -0.644531,-0.234375 -1.21875,-0.3398438 -1.828125,-0.3398438 -1.207031,0 -2.0625,0.703125 -2.0625,1.6757813 0,0.5507812 0.269531,1.0546875 0.738281,1.359375 0.257813,0.1757812 0.585938,0.3398437 0.960938,0.4804687 z m 8.689453,-0.609375 v -0.1054687 c 0,-0.9375 -0.152344,-1.5 -0.539063,-2.0039063 -0.410156,-0.5390625 -0.972656,-0.796875 -1.699219,-0.796875 -1.546875,0 -2.648437,1.265625 -2.648437,3.0820313 0,1.8984375 1.207031,3.21093748 2.976562,3.21093748 0.492188,0 0.984375,-0.08203125 1.453125,-0.24609375 0.105469,-0.0351563 0.257813,-0.0820313 0.457032,-0.1640625 v -0.5625 c -0.445313,0.2578125 -1.113282,0.41015625 -1.734375,0.41015625 -0.855469,0 -1.546875,-0.5390625 -1.792969,-1.42968748 -0.128906,-0.4335938 -0.152344,-0.6679688 -0.152344,-1.2890625 v -0.1054688 z m -1.160157,-0.5976562 v 0.2578125 H 33.82043 c 0.01172,-1.3828125 0.515625,-2.2265625 1.335937,-2.2265625 0.375,0 0.75,0.2226562 0.9375,0.5507812 0.175781,0.328125 0.222656,0.609375 0.222656,1.3125 z m 6.679688,2.71875 v 1.124999975 h 2.121094 V -0.34054687 l -0.105469,-0.0117188 -0.375,-0.0234375 c -0.445313,-0.0351563 -0.480469,-0.0820313 -0.515625,-0.515625 l -0.03516,-0.55078123 v -7.3125001 h -2.121094 v 0.3398438 l 0.105469,0.011719 0.386718,0.023437 c 0.445313,0.035156 0.480469,0.082031 0.515625,0.5039063 l 0.02344,0.5507812 v 1.9921875 c -0.503906,-0.5625 -1.101563,-0.8203125 -1.816406,-0.8203125 -1.523438,0 -2.53125,1.3125 -2.53125,3.328125 0,1.8046875 0.878906,2.96484383 2.238281,2.96484383 0.832031,0 1.59375,-0.45703125 2.109375,-1.26562503 z m 0,-3.7851563 v 3.3984375 c -0.421875,0.57421878 -1.101563,0.94921878 -1.710938,0.94921878 -0.761718,0 -1.183593,-0.43359375 -1.347656,-1.39453128 -0.08203,-0.421875 -0.128906,-0.8085937 -0.128906,-1.171875 0,-1.5585937 0.550781,-2.4140625 1.523437,-2.4140625 0.5625,0 1.066407,0.1875 1.664063,0.6328125 z m 10.470703,4.07812503 c 0.164063,0.69140625 0.445313,0.97265625 1.03125,0.97265625 0.246094,0 0.375,-0.0234375 0.703125,-0.140625005 l -0.03516,-0.410156245 c -0.152344,0.046875 -0.210938,0.046875 -0.292969,0.046875 -0.410156,0 -0.5625,-0.33984375 -0.5625,-1.30078123 v -2.6835938 c 0,-0.703125 -0.105469,-0.9960937 -0.46875,-1.3242187 -0.386719,-0.328125 -0.867187,-0.4804688 -1.523437,-0.4804688 -0.5625,0 -1.195313,0.1171875 -1.804688,0.375 -0.05859,0.023437 -0.164062,0.070312 -0.304687,0.1289063 v 1.0898437 h 0.738281 l 0.01172,-0.09375 c 0.05859,-0.5390625 0.117187,-0.65625 0.398437,-0.8554687 0.234375,-0.1523438 0.503906,-0.2226563 0.785156,-0.2226563 0.726563,0 1.078125,0.4570313 1.078125,1.4296875 v 0.75 h -0.222656 c -1.277344,0 -1.863281,0.1171875 -2.4375,0.4921875 -0.503906,0.3398438 -0.808594,0.890625 -0.808594,1.4882813 0,0.98437498 0.761719,1.71093748 1.792969,1.71093748 0.597656,0 1.136719,-0.234375 1.640625,-0.69140625 0.09375,-0.0820313 0.1875,-0.17578125 0.28125,-0.28125 z M 53.22082,-0.93820312 c -0.492187,0.31640625 -0.773437,0.421875 -1.125,0.421875 -0.679687,0 -1.183593,-0.50390628 -1.183593,-1.19531248 0,-0.9492188 0.761718,-1.5 2.050781,-1.5 h 0.257812 z m 4.561524,-4.64062498 h 1.675781 v -0.4453125 h -1.675781 v -1.3710938 l -1.089844,0.28125 v 1.0898438 h -0.890625 v 0.4453125 H 56.6925 v 3.6914062 c 0,0.8203125 0.08203,1.14843753 0.386719,1.47656253 0.1875,0.1875 0.398437,0.328125 0.632812,0.410156245 0.257813,0.093750005 0.539063,0.140625005 0.820313,0.140625005 0.292968,0 0.457031,-0.0351563 0.785156,-0.17578125 v -0.4453125 c -0.292969,0.140625 -0.421875,0.17578125 -0.621094,0.17578125 -0.386719,0 -0.691406,-0.1875 -0.808594,-0.4921875 -0.07031,-0.140625 -0.09375,-0.30468748 -0.105468,-0.45703128 z m 0,0"
         style="fill:#000000;fill-opacity:1;fill-rule:nonzero;stroke:none" />
      <path
         id="path89"
         d="m 68.59875,-2.4733594 0.714844,1.68750003 c 0.269531,0.6328125 0.574218,0.92578125 1.007812,0.92578125 0.445313,0 0.9375,-0.3046875 1.511719,-0.9375 L 71.97375,-1.4303906 h -0.01172 c -0.269531,0.3046875 -0.351562,0.3867187 -0.515625,0.51562498 -0.09375,0.0820313 -0.175781,0.15234375 -0.292969,0.2109375 -0.09375,0.046875 -0.199218,0.0703125 -0.28125,0.0703125 -0.234375,0 -0.375,-0.17578125 -0.597656,-0.67968748 l -0.808594,-1.9453125 0.257813,-0.3164063 c 0.304687,-0.3867187 0.855469,-0.9257812 1.160156,-1.1484375 0.269531,-0.2226562 0.714844,-0.375 0.996094,-0.375 0.164062,0 0.28125,0.035156 0.445312,0.140625 l 0.5625,-1.0195312 c -0.199218,-0.1171875 -0.375,-0.1757813 -0.5625,-0.1757813 -0.339843,0 -0.761718,0.1640625 -1.125,0.46875 -0.457031,0.3632813 -1.066406,1.0078125 -1.535156,1.59375 l -0.363281,0.46875 -0.609375,-1.453125 c -0.199219,-0.4570312 -0.292969,-0.6328125 -0.46875,-0.8203125 -0.164063,-0.1640625 -0.363281,-0.2578125 -0.5625,-0.2578125 -0.269531,0 -0.550781,0.140625 -0.855469,0.4453125 -0.175781,0.1523438 -0.257812,0.28125 -0.527344,0.6210938 l -0.140625,0.703125 h 0.01172 c 0.46875,-0.6328125 0.761719,-0.890625 0.996094,-0.890625 0.1875,0 0.351562,0.1992187 0.550781,0.6796875 l 0.75,1.78125 -0.328125,0.3984375 c -0.351562,0.4101562 -0.820312,0.8789062 -1.160156,1.1484375 -0.164063,0.140625 -0.351563,0.2460937 -0.550781,0.30468748 -0.140625,0.046875 -0.257813,0.0585938 -0.398438,0.0585938 -0.199219,0 -0.304687,-0.0234375 -0.46875,-0.10546868 l -0.480469,1.007812425 c 0.269532,0.105468755 0.410157,0.140625005 0.585938,0.140625005 0.351562,0 0.726562,-0.1875 1.136719,-0.55078125 0.421875,-0.38671875 0.9375,-0.93749998 1.371093,-1.49999998 z m 0,0"
         style="fill:#000000;fill-opacity:1;fill-rule:nonzero;stroke:none" />
      <path
         id="path90"
         d="m 76.538203,3.1985156 c 1.746094,0 2.871094,-1.6757812 2.871094,-4.2773437 0,-2.6484375 -1.113281,-4.3359375 -2.871094,-4.3359375 -1.757812,0 -2.882812,1.6875 -2.882812,4.3359375 0,2.6015625 1.136718,4.2773437 2.882812,4.2773437 z m 0,-0.3398437 c -0.574219,0 -1.101562,-0.4453125 -1.371094,-1.1601563 -0.269531,-0.72656247 -0.351562,-1.34765622 -0.351562,-2.8007812 0,-1.4648438 0.09375,-2.1445313 0.351562,-2.8007813 0.292969,-0.7265625 0.796875,-1.171875 1.347657,-1.171875 0.585937,0 1.125,0.4570313 1.394531,1.171875 0.257812,0.7148438 0.339844,1.3359375 0.339844,2.8007813 0,1.45312498 -0.08203,2.1210937 -0.339844,2.8007812 -0.292969,0.7382813 -0.796875,1.1601563 -1.371094,1.1601563 z m 5.452149,-4.21875 h -1.371094 v 1.359374975 h 1.371094 z m -319.508792,15.4687501 0.57422,0.328125 c 0.73828,0.410156 1.03125,0.679687 1.1836,1.054687 0.082,0.199219 0.1289,0.457032 0.1289,0.714844 0,0.984375 -0.58594,1.59375 -1.54687,1.59375 -0.45703,0 -0.84375,-0.105469 -1.24219,-0.328125 -0.375,-0.199219 -0.42188,-0.292969 -0.43359,-0.703125 0,-0.164062 -0.0117,-0.316406 -0.0117,-0.421875 l -0.0117,-0.09375 h -0.58594 v 1.570313 c 0.42188,0.164062 0.55078,0.199218 1.20703,0.292968 0.46875,0.05859 0.83203,0.08203 1.11328,0.08203 1.52344,0 2.66016,-1.019532 2.66016,-2.378907 0,-0.714843 -0.32813,-1.324218 -0.92578,-1.769531 -0.29297,-0.222656 -0.67969,-0.457031 -1.13672,-0.703125 L -237.12,13.007109 c -0.89062,-0.503906 -1.17187,-0.902343 -1.17187,-1.628906 0,-0.855469 0.53906,-1.4179686 1.32421,-1.4179686 0.36329,0 0.73829,0.082032 1.03125,0.2109376 0.28125,0.128906 0.35157,0.269531 0.35157,0.691406 0,0.117188 0.0117,0.269531 0.0234,0.433594 l 0.0117,0.105469 h 0.60938 V 9.9367969 c -0.87891,-0.2578125 -1.42969,-0.3515625 -2.07422,-0.3515625 -1.38281,0 -2.39063,0.9257816 -2.39063,2.1914066 0,0.914062 0.52735,1.558593 1.88672,2.332031 z m 5.97949,-1.6875 h 1.67579 v -0.445313 h -1.67579 v -1.371093 l -1.08984,0.28125 v 1.089843 h -0.89062 v 0.445313 h 0.89062 v 3.691406 c 0,0.820313 0.082,1.148438 0.38672,1.476563 0.1875,0.1875 0.39844,0.328125 0.63281,0.410156 0.25781,0.09375 0.53906,0.140625 0.82031,0.140625 0.29297,0 0.45704,-0.03516 0.78516,-0.175781 v -0.445313 c -0.29297,0.140625 -0.42187,0.175781 -0.62109,0.175781 -0.38672,0 -0.69141,-0.1875 -0.8086,-0.492187 -0.0703,-0.140625 -0.0937,-0.304688 -0.10547,-0.457031 z m 4.30958,0.679687 v -1.125 h -2.13282 v 0.351563 h 0.10547 l 0.375,0.02344 c 0.44531,0.03516 0.49219,0.08203 0.51563,0.515625 l 0.0352,0.550782 v 3.140625 l -0.0352,0.550781 c -0.0234,0.433594 -0.0703,0.480469 -0.51563,0.515625 l -0.375,0.02344 -0.10547,0.01172 v 0.339844 h 3.28125 V 17.65946 l -0.23437,-0.01172 -0.375,-0.02344 c -0.44531,-0.03516 -0.49219,-0.08203 -0.50391,-0.515625 l -0.0351,-0.550781 v -2.941407 c 0.29296,-0.492187 0.46875,-0.644531 0.9375,-0.796875 0.15234,-0.04687 0.30468,-0.08203 0.41015,-0.08203 0.21094,0 0.26953,0.05859 0.29297,0.304688 l 0.0586,0.398437 v 0.105469 h 0.6211 v -1.640625 c -0.16406,-0.04687 -0.23438,-0.05859 -0.375,-0.05859 -0.79688,0 -1.46485,0.433594 -1.94531,1.253906 z m 5.04199,3.457032 v -4.582032 h -2.13282 v 0.351563 h 0.10547 l 0.375,0.02344 c 0.44532,0.03516 0.49219,0.08203 0.51563,0.515625 l 0.0351,0.550782 v 3.140625 l -0.0351,0.550781 c -0.0234,0.433594 -0.0703,0.480469 -0.51563,0.515625 l -0.375,0.02344 -0.10547,0.01172 v 0.339844 h 3.15235 V 17.65946 l -0.10547,-0.01172 -0.375,-0.02344 c -0.44531,-0.03516 -0.49219,-0.08203 -0.50391,-0.515625 z m 0,-5.671875 V 9.7844531 h -1.10157 v 1.1015629 z m 5.67187,2.660156 h 0.67969 v -1.429688 c -0.49219,-0.128906 -0.67969,-0.164062 -1.01953,-0.210937 -0.29297,-0.03516 -0.55078,-0.05859 -0.77344,-0.05859 -1.72266,0 -2.85937,1.242188 -2.85937,3.117188 0,1.886718 1.19531,3.175781 2.95312,3.175781 0.46875,0 0.94922,-0.08203 1.37109,-0.222656 0.0703,-0.02344 0.17579,-0.07031 0.32813,-0.117188 v -0.480469 c -0.38672,0.164063 -0.94922,0.269532 -1.44141,0.269532 -1.28906,0 -2.07422,-1.03125 -2.07422,-2.707032 0,-1.652343 0.67969,-2.671875 1.75782,-2.671875 0.41015,0 0.82031,0.199219 0.9375,0.480469 0.0351,0.05859 0.0586,0.1875 0.0937,0.375 0.0234,0.140625 0.0351,0.269531 0.0351,0.375 z m 3.69727,-1.125 h 1.67578 v -0.445313 h -1.67578 v -1.371093 l -1.08985,0.28125 v 1.089843 h -0.89062 v 0.445313 h 0.89062 v 3.691406 c 0,0.820313 0.082,1.148438 0.38672,1.476563 0.1875,0.1875 0.39844,0.328125 0.63282,0.410156 0.25781,0.09375 0.53906,0.140625 0.82031,0.140625 0.29297,0 0.45703,-0.03516 0.78515,-0.175781 v -0.445313 c -0.29296,0.140625 -0.42187,0.175781 -0.62109,0.175781 -0.38672,0 -0.69141,-0.1875 -0.80859,-0.492187 -0.0703,-0.140625 -0.0937,-0.304688 -0.10547,-0.457031 z m 4.30957,4.136719 V 9.2453906 h -2.13281 v 0.3398438 l 0.10546,0.011719 0.375,0.023437 c 0.44532,0.035156 0.49219,0.082031 0.51563,0.5039066 l 0.0352,0.550781 v 5.882813 l -0.0352,0.550781 c -0.0234,0.433594 -0.0703,0.480469 -0.51563,0.515625 l -0.375,0.02344 -0.10546,0.01172 v 0.339844 h 3.15234 v -0.339844 l -0.10547,-0.01172 -0.375,-0.02344 c -0.44531,-0.03516 -0.49219,-0.08203 -0.50391,-0.515625 z m 6.62402,-3.128907 c 0.11719,-0.246093 0.1875,-0.398437 0.21094,-0.46875 0.1875,-0.480468 0.31641,-0.621093 0.58594,-0.632812 h 0.10547 v -0.351563 h -1.78125 v 0.351563 h 0.42187 c 0.29297,0 0.41016,0.05859 0.41016,0.222656 0,0.04687 -0.0117,0.105469 -0.0352,0.140625 l -0.16406,0.386719 -0.12891,0.339844 -1.4414,3.257812 -1.34766,-3.246094 c -0.0469,-0.117187 -0.0937,-0.246093 -0.14063,-0.363281 -0.0586,-0.210937 -0.10546,-0.339844 -0.11718,-0.375 -0.0352,-0.07031 -0.0469,-0.128906 -0.0469,-0.164062 0,-0.140625 0.11719,-0.199219 0.38672,-0.199219 h 0.46875 v -0.351563 h -2.74219 v 0.351563 h 0.11719 c 0.1875,0.01172 0.33984,0.07031 0.42188,0.164062 0.0937,0.128907 0.23437,0.398438 0.45703,0.9375 l 1.89843,4.570313 -1.98046,2.191406 h 1.39453 z m 7.35352,1.933594 0.57422,0.234375 c 0.71484,0.269531 0.96093,0.5625 0.96093,1.125 0,0.632813 -0.46875,1.078125 -1.13672,1.078125 -0.39843,0 -0.86718,-0.152344 -1.17187,-0.363281 -0.19922,-0.140625 -0.26953,-0.292969 -0.29297,-0.597656 l -0.0469,-0.574219 -0.0117,-0.105469 h -0.60938 v 1.535156 c 0.45703,0.199219 0.63281,0.257813 1.1836,0.363282 0.32812,0.05859 0.63281,0.08203 0.90234,0.08203 1.32422,0 2.27344,-0.761719 2.27344,-1.816406 0,-0.492188 -0.23438,-0.972657 -0.60938,-1.21875 -0.22265,-0.152344 -0.52734,-0.292969 -0.89062,-0.445313 l -0.51563,-0.210937 c -1.04297,-0.433594 -1.28906,-0.65625 -1.28906,-1.183594 0,-0.621094 0.48047,-1.078125 1.11328,-1.078125 0.24609,0 0.53906,0.07031 0.75,0.1875 0.25781,0.152344 0.30469,0.234375 0.33984,0.644531 l 0.0586,0.503906 v 0.09375 h 0.60937 v -1.429687 c -0.64453,-0.234375 -1.21875,-0.339844 -1.82812,-0.339844 -1.20703,0 -2.0625,0.703125 -2.0625,1.675781 0,0.550782 0.26953,1.054688 0.73828,1.359375 0.25781,0.175782 0.58594,0.339844 0.96094,0.480469 z m 5.58398,-2.261719 v -1.125 h -2.13281 v 0.351563 h 0.10547 l 0.375,0.02344 c 0.44531,0.03516 0.49219,0.08203 0.51562,0.515625 l 0.0352,0.550782 V 18.7493 l -0.0352,0.539062 c -0.0234,0.445313 -0.0703,0.492188 -0.51562,0.527344 l -0.375,0.02344 -0.10547,0.01172 v 0.339844 h 3.15234 v -0.339844 l -0.10547,-0.01172 -0.375,-0.02344 c -0.44531,-0.03516 -0.49218,-0.08203 -0.5039,-0.527344 l -0.0352,-0.539062 v -1.429688 c 0.49219,0.539063 1.10156,0.820313 1.80469,0.820313 1.53516,0 2.53125,-1.324219 2.53125,-3.328125 0,-1.804688 -0.86719,-2.964844 -2.22656,-2.964844 -0.83203,0 -1.59375,0.457031 -2.10938,1.253906 z m 0,3.785157 v -3.398438 c 0.4336,-0.574219 1.10156,-0.9375 1.69922,-0.9375 0.76172,0 1.19531,0.433594 1.35938,1.382813 0.082,0.421875 0.11718,0.808593 0.11718,1.171875 0,1.570312 -0.53906,2.414062 -1.51172,2.414062 -0.5625,0 -1.05468,-0.175781 -1.66406,-0.632812 z m 10.42383,-2.132813 v -0.105469 c 0,-0.9375 -0.15234,-1.5 -0.53906,-2.003906 -0.41016,-0.539062 -0.97266,-0.796875 -1.69922,-0.796875 -1.54688,0 -2.64844,1.265625 -2.64844,3.082031 0,1.898438 1.20703,3.210938 2.97656,3.210938 0.49219,0 0.98438,-0.08203 1.45313,-0.246094 0.10547,-0.03516 0.25781,-0.08203 0.45703,-0.164062 v -0.5625 c -0.44531,0.257812 -1.11328,0.410156 -1.73438,0.410156 -0.85546,0 -1.54687,-0.539063 -1.79296,-1.429688 -0.12891,-0.433593 -0.15235,-0.667968 -0.15235,-1.289062 v -0.105469 z m -1.16016,-0.597656 v 0.257812 h -2.49609 c 0.0117,-1.382812 0.51562,-2.226562 1.33594,-2.226562 0.375,0 0.75,0.222656 0.9375,0.550781 0.17578,0.328125 0.22265,0.609375 0.22265,1.3125 z m 5.98828,3.011719 c 0.16407,0.691406 0.44532,0.972656 1.03125,0.972656 0.2461,0 0.375,-0.02344 0.70313,-0.140625 l -0.0352,-0.410156 c -0.15234,0.04687 -0.21093,0.04687 -0.29297,0.04687 -0.41015,0 -0.5625,-0.339844 -0.5625,-1.300782 v -2.683593 c 0,-0.703125 -0.10546,-0.996094 -0.46875,-1.324219 -0.38671,-0.328125 -0.86718,-0.480469 -1.52343,-0.480469 -0.5625,0 -1.19532,0.117188 -1.80469,0.375 -0.0586,0.02344 -0.16406,0.07031 -0.30469,0.128906 v 1.089844 h 0.73828 l 0.0117,-0.09375 c 0.0586,-0.539062 0.11719,-0.65625 0.39844,-0.855469 0.23437,-0.152343 0.50391,-0.222656 0.78516,-0.222656 0.72656,0 1.07812,0.457031 1.07812,1.429688 v 0.75 h -0.22266 c -1.27734,0 -1.86328,0.117187 -2.4375,0.492187 -0.5039,0.339844 -0.80859,0.890625 -0.80859,1.488281 0,0.984375 0.76172,1.710938 1.79297,1.710938 0.59766,0 1.13672,-0.234375 1.64062,-0.691406 0.0937,-0.08203 0.1875,-0.175782 0.28125,-0.28125 z m -0.24609,-0.105469 c -0.49219,0.316406 -0.77344,0.421875 -1.125,0.421875 -0.67969,0 -1.18359,-0.503906 -1.18359,-1.195313 0,-0.949218 0.76172,-1.5 2.05078,-1.5 h 0.25781 z m 5.53418,-2.578125 1.05469,-1.054688 c 0.80859,-0.785156 0.96094,-0.9375 1.11328,-1.007812 0.12891,-0.05859 0.1875,-0.07031 0.67969,-0.09375 h 0.10547 v -0.351563 h -2.35547 v 0.351563 h 0.1289 c 0.0586,0 0.15235,0 0.26953,0 0.14063,0 0.21094,0.01172 0.2461,0.01172 0.1289,0 0.21094,0.03516 0.21094,0.09375 0,0.04687 -0.0352,0.09375 -0.0937,0.152343 -0.082,0.08203 -0.17579,0.164063 -0.28125,0.28125 -0.2461,0.269532 -0.42188,0.457032 -0.52735,0.550782 l -1.40625,1.347656 h -0.24609 V 9.2453906 h -2.13281 v 0.3398438 l 0.10546,0.011719 0.375,0.023437 c 0.44532,0.035156 0.49219,0.082031 0.51563,0.5039066 l 0.0352,0.550781 v 5.882813 l -0.0352,0.550781 c -0.0234,0.433594 -0.0703,0.480469 -0.51563,0.515625 l -0.375,0.02344 -0.10546,0.01172 v 0.339844 h 3.01171 v -0.339844 l -0.0937,-0.01172 c -0.44531,-0.02344 -0.60937,-0.05859 -0.67968,-0.128906 -0.0469,-0.05859 -0.0703,-0.1875 -0.082,-0.410156 l -0.0234,-0.550781 v -1.523438 h 0.24609 l 2.54297,2.964844 h 1.6875 v -0.339844 l -0.0937,-0.01172 c -0.16406,-0.01172 -0.25781,-0.01172 -0.29297,-0.01172 -0.0937,-0.01172 -0.1875,-0.04687 -0.24609,-0.08203 -0.0937,-0.05859 -0.19922,-0.152343 -0.33985,-0.304687 l -0.59765,-0.65625 z m 5.73926,2.074219 v -4.582032 h -2.13281 v 0.351563 h 0.10546 l 0.375,0.02344 c 0.44532,0.03516 0.49219,0.08203 0.51563,0.515625 l 0.0352,0.550782 v 3.140625 l -0.0352,0.550781 c -0.0234,0.433594 -0.0703,0.480469 -0.51563,0.515625 l -0.375,0.02344 -0.10546,0.01172 v 0.339844 h 3.15234 V 17.65946 l -0.10547,-0.01172 -0.375,-0.02344 c -0.44531,-0.03516 -0.49219,-0.08203 -0.50391,-0.515625 z m 0,-5.671875 V 9.7844531 h -1.10156 v 1.1015629 z m 3.48047,2.214843 v -1.125 h -2.13282 v 0.351563 h 0.10547 l 0.375,0.02344 c 0.44532,0.03516 0.49219,0.08203 0.51563,0.515625 l 0.0351,0.550782 v 3.140625 l -0.0351,0.550781 c -0.0234,0.433594 -0.0703,0.480469 -0.51563,0.515625 l -0.375,0.02344 -0.10547,0.01172 v 0.339844 h 3.15235 V 17.65946 l -0.10547,-0.01172 -0.375,-0.02344 c -0.44531,-0.03516 -0.49219,-0.08203 -0.50391,-0.515625 l -0.0351,-0.550781 v -3.082032 c 0.35156,-0.316406 0.43359,-0.386718 0.71484,-0.5625 0.36328,-0.234375 0.75,-0.363281 1.10156,-0.363281 0.31641,0 0.6211,0.140625 0.76172,0.363281 0.10547,0.1875 0.15235,0.445313 0.15235,1.019532 v 2.625 l -0.0352,0.550781 c -0.0352,0.433594 -0.082,0.480469 -0.50391,0.515625 l -0.38672,0.02344 -0.10546,0.01172 v 0.339844 h 3.15234 V 17.65946 l -0.10547,-0.01172 -0.375,-0.02344 c -0.44531,-0.03516 -0.48047,-0.08203 -0.51562,-0.515625 l -0.0352,-0.550781 v -2.789063 c 0,-1.207031 -0.62109,-1.921875 -1.65234,-1.921875 -0.83204,0 -1.66407,0.480469 -2.16797,1.253906 z m 8.62793,4.757813 c 0.62109,0 0.89062,0.09375 1.04297,0.351562 0.082,0.128907 0.11718,0.292969 0.11718,0.46875 0,0.808594 -0.70312,1.324219 -1.78125,1.324219 -1.04297,0 -1.69922,-0.445312 -1.69922,-1.148437 0,-0.375 0.16407,-0.738282 0.42188,-0.996094 z m -2.82422,-0.878906 c 0,0.339843 0.21094,0.585937 0.63281,0.796875 -0.82031,0.351562 -1.20703,0.761718 -1.20703,1.253906 0,0.785156 1.08984,1.300781 2.75391,1.300781 1.71093,0 2.85937,-0.773437 2.85937,-1.910156 0,-0.550781 -0.23437,-0.960938 -0.63281,-1.148438 -0.39844,-0.1875 -0.77344,-0.222656 -1.79297,-0.222656 h -0.94922 c -0.49219,0 -0.69141,-0.128906 -0.69141,-0.398437 0,-0.234375 0.14063,-0.492188 0.38672,-0.679688 0.33985,0.09375 0.46875,0.105469 0.78516,0.105469 1.27734,0 2.21484,-0.878906 2.21484,-2.132813 0,-0.433593 -0.16406,-0.9375 -0.38672,-1.253906 -0.0586,-0.08203 -0.17578,-0.199219 -0.32812,-0.351562 l 1.44141,0.246093 0.28125,-0.667968 -2.10938,0.152343 c -0.375,-0.152343 -0.70312,-0.222656 -1.14844,-0.222656 -1.38281,0 -2.27343,0.832031 -2.27343,2.121094 0,0.867187 0.45703,1.582031 1.23046,1.921875 -0.78515,0.398437 -1.0664,0.667969 -1.0664,1.089844 z m 0.92578,-3.058594 c 0,-1.125 0.42187,-1.734375 1.18359,-1.734375 0.73828,0 1.14844,0.609375 1.14844,1.734375 0,1.195312 -0.39844,1.816406 -1.16016,1.816406 -0.76171,0 -1.17187,-0.621094 -1.17187,-1.816406 z m 6.80859,2.71875 h -1.37109 v 1.359375 h 0.53906 v 0.363281 c 0,0.539063 0,0.585938 -0.0937,0.796875 -0.11719,0.1875 -0.21094,0.257813 -0.44531,0.28125 v 0.339844 c 0.50391,-0.03516 0.91406,-0.304688 1.18359,-0.761719 0.0937,-0.1875 0.16407,-0.386719 0.17578,-0.550781 0.0117,-0.05859 0.0117,-0.28125 0.0117,-0.65625 z m 9.1875,-3.152344 1.82813,4.582031 h 0.29297 l 1.64062,-4.652343 c 0.0703,-0.234375 0.12891,-0.386719 0.16406,-0.503907 0.14063,-0.421875 0.26954,-0.574218 0.5625,-0.585937 h 0.11719 v -0.351563 h -1.95703 v 0.351563 h 0.42188 c 0.42187,0 0.55078,0.05859 0.55078,0.234375 0,0.117187 -0.11719,0.492187 -0.22266,0.855469 l -1.08984,3.117187 -1.78125,-4.523437 h -0.33985 l -1.74609,4.40625 -0.92578,-3 c -0.0352,-0.07031 -0.0703,-0.210938 -0.11719,-0.386719 -0.0352,-0.152344 -0.0586,-0.292969 -0.0703,-0.386719 -0.0117,-0.02344 -0.0117,-0.04687 -0.0117,-0.07031 0,-0.175782 0.14062,-0.246094 0.45703,-0.246094 h 0.51563 v -0.351563 h -2.70704 v 0.351563 h 0.11719 c 0.22266,0.01172 0.2461,0.02344 0.33985,0.140625 0.10546,0.164062 0.22265,0.421875 0.38671,0.949219 l 1.48829,4.652343 h 0.33984 z m 10.01953,1.265625 v -0.105469 c 0,-0.9375 -0.15234,-1.5 -0.53906,-2.003906 -0.41015,-0.539062 -0.97265,-0.796875 -1.69922,-0.796875 -1.54687,0 -2.64843,1.265625 -2.64843,3.082031 0,1.898438 1.20703,3.210938 2.97656,3.210938 0.49219,0 0.98437,-0.08203 1.45312,-0.246094 0.10547,-0.03516 0.25782,-0.08203 0.45703,-0.164062 v -0.5625 c -0.44531,0.257812 -1.11328,0.410156 -1.73437,0.410156 -0.85547,0 -1.54688,-0.539063 -1.79297,-1.429688 -0.12891,-0.433593 -0.15234,-0.667968 -0.15234,-1.289062 v -0.105469 z m -1.16015,-0.597656 v 0.257812 h -2.4961 c 0.0117,-1.382812 0.51563,-2.226562 1.33594,-2.226562 0.375,0 0.75,0.222656 0.9375,0.550781 0.17578,0.328125 0.22266,0.609375 0.22266,1.3125 z m 8.1914,1.207031 0.57422,0.234375 c 0.71485,0.269531 0.96094,0.5625 0.96094,1.125 0,0.632813 -0.46875,1.078125 -1.13672,1.078125 -0.39844,0 -0.86719,-0.152344 -1.17187,-0.363281 -0.19922,-0.140625 -0.26953,-0.292969 -0.29297,-0.597656 l -0.0469,-0.574219 -0.0117,-0.105469 h -0.60937 v 1.535156 c 0.45703,0.199219 0.63281,0.257813 1.18359,0.363282 0.32813,0.05859 0.63282,0.08203 0.90235,0.08203 1.32422,0 2.27343,-0.761719 2.27343,-1.816406 0,-0.492188 -0.23437,-0.972657 -0.60937,-1.21875 -0.22266,-0.152344 -0.52734,-0.292969 -0.89063,-0.445313 l -0.51562,-0.210937 c -1.04297,-0.433594 -1.28906,-0.65625 -1.28906,-1.183594 0,-0.621094 0.48047,-1.078125 1.11328,-1.078125 0.24609,0 0.53906,0.07031 0.75,0.1875 0.25781,0.152344 0.30469,0.234375 0.33984,0.644531 l 0.0586,0.503906 v 0.09375 h 0.60937 v -1.429687 c -0.64453,-0.234375 -1.21875,-0.339844 -1.82812,-0.339844 -1.20704,0 -2.0625,0.703125 -2.0625,1.675781 0,0.550782 0.26953,1.054688 0.73828,1.359375 0.25781,0.175782 0.58593,0.339844 0.96093,0.48047 z m 5.58399,-6.1171874 h -2.13281 v 0.3398438 l 0.10546,0.011719 0.375,0.023437 c 0.44532,0.035156 0.49219,0.082031 0.51563,0.5039066 l 0.0352,0.550781 v 5.882813 l -0.0352,0.550781 c -0.0234,0.433594 -0.0703,0.480469 -0.51563,0.515625 l -0.375,0.02344 -0.10546,0.01172 v 0.339844 h 3.15234 v -0.339844 l -0.10547,-0.01172 -0.375,-0.02344 c -0.44531,-0.03516 -0.49219,-0.08203 -0.50391,-0.515625 l -0.0351,-0.550781 v -3.082032 c 0.35156,-0.316406 0.43359,-0.386718 0.71484,-0.5625 0.36328,-0.234375 0.75,-0.363281 1.10156,-0.363281 0.31641,0 0.6211,0.140625 0.76172,0.363281 0.10547,0.1875 0.15235,0.445313 0.15235,1.019532 v 2.625 l -0.0352,0.550781 c -0.0352,0.433594 -0.082,0.480469 -0.50391,0.515625 l -0.38671,0.02344 -0.10547,0.01172 v 0.339844 h 3.15234 v -0.339844 l -0.10547,-0.01172 -0.375,-0.02344 c -0.44531,-0.03516 -0.48047,-0.08203 -0.51562,-0.515625 l -0.0352,-0.550781 v -2.789063 c 0,-1.207031 -0.62109,-1.921875 -1.65234,-1.921875 -0.83203,0 -1.66407,0.480469 -2.16797,1.253906 z m 8.28808,8.8945314 c 1.78125,0 2.8711,-1.207031 2.8711,-3.152344 0,-1.945312 -1.08985,-3.140625 -2.8711,-3.140625 -1.76953,0 -2.87109,1.207031 -2.87109,3.140625 0,1.945313 1.10156,3.152344 2.87109,3.152344 z m 0,-0.339844 c -0.99609,0 -1.71093,-1.195312 -1.71093,-2.8125 0,-1.605469 0.72656,-2.800781 1.71093,-2.800781 0.97266,0 1.71094,1.195312 1.71094,2.800781 0,1.617188 -0.72656,2.8125 -1.71094,2.8125 z m 8.282231,-0.925781 v 1.125 h 2.121094 v -0.339844 l -0.117188,-0.01172 -0.375,-0.02344 c -0.445312,-0.03516 -0.46875,-0.08203 -0.503906,-0.515625 l -0.03516,-0.550781 v -4.582032 h -2.121094 v 0.351563 h 0.09375 l 0.386719,0.02344 c 0.433594,0.03516 0.480469,0.08203 0.515625,0.515625 l 0.03516,0.550782 v 3.082031 c -0.234375,0.246094 -0.304687,0.304687 -0.703125,0.5625 -0.457031,0.28125 -0.703125,0.375 -1.054687,0.375 -0.363282,0 -0.65625,-0.140625 -0.796875,-0.363281 -0.140625,-0.222657 -0.1875,-0.480469 -0.1875,-1.03125 V 11.975859 H -102.12 v 0.351563 h 0.10547 l 0.375,0.02344 c 0.43359,0.03516 0.48047,0.08203 0.5039,0.515625 l 0.0352,0.550782 v 2.800781 c 0,1.195312 0.63281,1.921875 1.675782,1.921875 0.820313,0 1.640625,-0.480469 2.167969,-1.265625 z m 4.669922,-0.316406 V 9.2453906 h -2.132812 v 0.3398438 l 0.105468,0.011719 0.375,0.023437 c 0.445313,0.035156 0.492188,0.082031 0.515625,0.5039066 l 0.03516,0.550781 v 5.882813 l -0.03516,0.550781 c -0.02344,0.433594 -0.07031,0.480469 -0.515625,0.515625 l -0.375,0.02344 -0.105468,0.01172 v 0.339844 h 3.152343 v -0.339844 l -0.105468,-0.01172 -0.375,-0.02344 c -0.445313,-0.03516 -0.492188,-0.08203 -0.503907,-0.515625 z m 6.222656,0.316406 v 1.125 h 2.121094 v -0.339844 l -0.105469,-0.01172 -0.375,-0.02344 c -0.445312,-0.03516 -0.480468,-0.08203 -0.515625,-0.515625 l -0.03516,-0.550781 V 9.2453906 h -2.121094 v 0.3398438 l 0.105469,0.011719 0.386719,0.023437 c 0.445312,0.035156 0.480469,0.082031 0.515625,0.5039066 l 0.02344,0.550781 v 1.992188 c -0.503906,-0.5625 -1.101562,-0.820313 -1.816406,-0.820313 -1.523437,0 -2.53125,1.3125 -2.53125,3.328125 0,1.804688 0.878906,2.964844 2.238281,2.964844 0.832032,0 1.59375,-0.457031 2.109375,-1.265625 z m 0,-3.785156 v 3.398437 c -0.421875,0.574219 -1.101562,0.949219 -1.710937,0.949219 -0.761719,0 -1.183594,-0.433594 -1.347656,-1.394531 -0.08203,-0.421875 -0.128907,-0.808594 -0.128907,-1.171875 0,-1.558594 0.550782,-2.414063 1.523438,-2.414063 0.5625,0 1.066406,0.1875 1.664062,0.632813 z m 10.728516,0.457031 h 0.679687 v -1.429688 c -0.492187,-0.128906 -0.679687,-0.164062 -1.019531,-0.210937 -0.292969,-0.03516 -0.550781,-0.05859 -0.773437,-0.05859 -1.722657,0 -2.859375,1.242188 -2.859375,3.117188 0,1.886718 1.195312,3.175781 2.953125,3.175781 0.46875,0 0.949218,-0.08203 1.371093,-0.222656 0.07031,-0.02344 0.175782,-0.07031 0.328125,-0.117188 v -0.480469 c -0.386718,0.164063 -0.949218,0.269532 -1.441406,0.269532 -1.289062,0 -2.074219,-1.03125 -2.074219,-2.707032 0,-1.652343 0.679688,-2.671875 1.757813,-2.671875 0.410156,0 0.820312,0.199219 0.9375,0.480469 0.03516,0.05859 0.05859,0.1875 0.09375,0.375 0.02344,0.140625 0.03516,0.269531 0.03516,0.375 z m 3.568359,-4.3007814 h -2.132812 v 0.3398438 l 0.105469,0.011719 0.375,0.023437 c 0.445312,0.035156 0.492187,0.082031 0.515625,0.5039066 l 0.03516,0.550781 v 5.882813 l -0.03516,0.550781 c -0.02344,0.433594 -0.07031,0.480469 -0.515625,0.515625 l -0.375,0.02344 -0.105469,0.01172 v 0.339844 h 3.152344 v -0.339844 l -0.105469,-0.01172 -0.375,-0.02344 c -0.445313,-0.03516 -0.492188,-0.08203 -0.503906,-0.515625 l -0.03516,-0.550781 v -3.082032 c 0.351563,-0.316406 0.433594,-0.386718 0.714844,-0.5625 0.363281,-0.234375 0.75,-0.363281 1.101563,-0.363281 0.316406,0 0.621093,0.140625 0.761718,0.363281 0.105469,0.1875 0.152344,0.445313 0.152344,1.019532 v 2.625 l -0.03516,0.550781 c -0.03516,0.433594 -0.08203,0.480469 -0.503906,0.515625 l -0.386719,0.02344 -0.105469,0.01172 v 0.339844 h 3.152344 v -0.339844 l -0.105469,-0.01172 -0.375,-0.02344 c -0.445312,-0.03516 -0.480469,-0.08203 -0.515625,-0.515625 l -0.03516,-0.550781 v -2.789063 c 0,-1.207031 -0.621094,-1.921875 -1.652344,-1.921875 -0.832031,0 -1.664062,0.480469 -2.167969,1.253906 z m 8.288086,8.8945314 c 1.78125,0 2.871094,-1.207031 2.871094,-3.152344 0,-1.945312 -1.089844,-3.140625 -2.871094,-3.140625 -1.769531,0 -2.871093,1.207031 -2.871093,3.140625 0,1.945313 1.101562,3.152344 2.871093,3.152344 z m 0,-0.339844 c -0.996093,0 -1.710937,-1.195312 -1.710937,-2.8125 0,-1.605469 0.726562,-2.800781 1.710937,-2.800781 0.972657,0 1.710938,1.195312 1.710938,2.800781 0,1.617188 -0.726563,2.8125 -1.710938,2.8125 z m 6.840821,0.339844 c 1.78125,0 2.871093,-1.207031 2.871093,-3.152344 0,-1.945312 -1.089843,-3.140625 -2.871093,-3.140625 -1.769532,0 -2.871094,1.207031 -2.871094,3.140625 0,1.945313 1.101562,3.152344 2.871094,3.152344 z m 0,-0.339844 c -0.996094,0 -1.710938,-1.195312 -1.710938,-2.8125 0,-1.605469 0.726563,-2.800781 1.710938,-2.800781 0.972656,0 1.710937,1.195312 1.710937,2.800781 0,1.617188 -0.726562,2.8125 -1.710937,2.8125 z m 5.926757,-2.4375 0.574219,0.234375 c 0.714844,0.269531 0.960938,0.5625 0.960938,1.125 0,0.632813 -0.46875,1.078125 -1.136719,1.078125 -0.398438,0 -0.867188,-0.152344 -1.171875,-0.363281 -0.199219,-0.140625 -0.269531,-0.292969 -0.292969,-0.597656 l -0.04687,-0.574219 -0.01172,-0.105469 h -0.609375 v 1.535156 c 0.457032,0.199219 0.632813,0.257813 1.183594,0.363282 0.328125,0.05859 0.632813,0.08203 0.902344,0.08203 1.324219,0 2.273437,-0.761719 2.273437,-1.816406 0,-0.492188 -0.234375,-0.972657 -0.609375,-1.21875 -0.222656,-0.152344 -0.527343,-0.292969 -0.890625,-0.445313 l -0.515625,-0.210937 c -1.042968,-0.433594 -1.289062,-0.65625 -1.289062,-1.183594 0,-0.621094 0.480469,-1.078125 1.113281,-1.078125 0.246094,0 0.539063,0.07031 0.75,0.1875 0.257813,0.152344 0.304688,0.234375 0.339844,0.644531 l 0.05859,0.503906 v 0.09375 h 0.609375 v -1.429687 c -0.644532,-0.234375 -1.21875,-0.339844 -1.828125,-0.339844 -1.207032,0 -2.0625,0.703125 -2.0625,1.675781 0,0.550782 0.269531,1.054688 0.738281,1.359375 0.257812,0.175782 0.585937,0.339844 0.960937,0.48047 z m 8.689454,-0.609375 v -0.105469 c 0,-0.9375 -0.152344,-1.5 -0.539063,-2.003906 -0.410156,-0.539062 -0.972656,-0.796875 -1.699219,-0.796875 -1.546875,0 -2.648437,1.265625 -2.648437,3.082031 0,1.898438 1.207031,3.210938 2.976562,3.210938 0.492188,0 0.984375,-0.08203 1.453125,-0.246094 0.105469,-0.03516 0.257813,-0.08203 0.457032,-0.164062 v -0.5625 c -0.445313,0.257812 -1.113282,0.410156 -1.734375,0.410156 -0.855469,0 -1.546875,-0.539063 -1.792969,-1.429688 -0.128906,-0.433593 -0.152344,-0.667968 -0.152344,-1.289062 v -0.105469 z m -1.160157,-0.597656 v 0.257812 h -2.496093 c 0.01172,-1.382812 0.515625,-2.226562 1.335937,-2.226562 0.375,0 0.75,0.222656 0.9375,0.550781 0.175781,0.328125 0.222656,0.609375 0.222656,1.3125 z m 9.949219,3.011719 c 0.164063,0.691406 0.445313,0.972656 1.03125,0.972656 0.246094,0 0.375,-0.02344 0.703125,-0.140625 l -0.03516,-0.410156 c -0.152344,0.04687 -0.210938,0.04687 -0.292969,0.04687 -0.410156,0 -0.5625,-0.339844 -0.5625,-1.300782 v -2.683593 c 0,-0.703125 -0.105469,-0.996094 -0.46875,-1.324219 -0.386719,-0.328125 -0.867187,-0.480469 -1.523437,-0.480469 -0.5625,0 -1.195313,0.117188 -1.804688,0.375 -0.05859,0.02344 -0.164062,0.07031 -0.304687,0.128906 v 1.089844 h 0.738281 l 0.01172,-0.09375 c 0.05859,-0.539062 0.117187,-0.65625 0.398437,-0.855469 0.234375,-0.152343 0.503906,-0.222656 0.785156,-0.222656 0.726563,0 1.078125,0.457031 1.078125,1.429688 v 0.75 h -0.222656 c -1.277344,0 -1.863281,0.117187 -2.4375,0.492187 -0.503906,0.339844 -0.808594,0.890625 -0.808594,1.488281 0,0.984375 0.761719,1.710938 1.792969,1.710938 0.597656,0 1.136719,-0.234375 1.640625,-0.691406 0.09375,-0.08203 0.1875,-0.175782 0.28125,-0.28125 z m -0.246094,-0.105469 c -0.492187,0.316406 -0.773437,0.421875 -1.125,0.421875 -0.679687,0 -1.183593,-0.503906 -1.183593,-1.195313 0,-0.949218 0.761718,-1.5 2.050781,-1.5 h 0.257812 z m 4.432617,-3.960938 v -1.125 h -2.132812 v 0.351563 h 0.105469 l 0.375,0.02344 c 0.445312,0.03516 0.492187,0.08203 0.515625,0.515625 l 0.03516,0.550782 v 3.140625 l -0.03516,0.550781 c -0.02344,0.433594 -0.07031,0.480469 -0.515625,0.515625 l -0.375,0.02344 -0.105469,0.01172 v 0.339844 h 3.152344 V 17.65946 l -0.105469,-0.01172 -0.375,-0.02344 c -0.445313,-0.03516 -0.492188,-0.08203 -0.503906,-0.515625 l -0.03516,-0.550781 v -3.082032 c 0.351563,-0.316406 0.433594,-0.386718 0.714844,-0.5625 0.363281,-0.234375 0.75,-0.363281 1.101563,-0.363281 0.316406,0 0.621093,0.140625 0.761718,0.363281 0.105469,0.1875 0.152344,0.445313 0.152344,1.019532 v 2.625 l -0.03516,0.550781 c -0.03516,0.433594 -0.08203,0.480469 -0.503906,0.515625 l -0.386719,0.02344 -0.105469,0.01172 v 0.339844 H -24.495 V 17.65946 l -0.105469,-0.01172 -0.375,-0.02344 c -0.445312,-0.03516 -0.480469,-0.08203 -0.515625,-0.515625 l -0.03516,-0.550781 v -2.789063 c 0,-1.207031 -0.621094,-1.921875 -1.652344,-1.921875 -0.832031,0 -1.664062,0.480469 -2.167969,1.253906 z m 12.249024,5.039063 c 1.78125,0 2.871094,-1.207031 2.871094,-3.152344 0,-1.945312 -1.089844,-3.140625 -2.871094,-3.140625 -1.769531,0 -2.871094,1.207031 -2.871094,3.140625 0,1.945313 1.101563,3.152344 2.871094,3.152344 z m 0,-0.339844 c -0.996094,0 -1.710938,-1.195312 -1.710938,-2.8125 0,-1.605469 0.726563,-2.800781 1.710938,-2.800781 0.972656,0 1.710937,1.195312 1.710937,2.800781 0,1.617188 -0.726562,2.8125 -1.710937,2.8125 z m 5.750976,-4.699219 v -1.125 h -2.132812 v 0.351563 h 0.105469 l 0.375,0.02344 c 0.445312,0.03516 0.492187,0.08203 0.515625,0.515625 l 0.03516,0.550782 v 3.140625 l -0.03516,0.550781 c -0.02344,0.433594 -0.07031,0.480469 -0.515625,0.515625 l -0.375,0.02344 -0.105469,0.01172 v 0.339844 h 3.28125 V 17.65946 l -0.234375,-0.01172 -0.375,-0.02344 c -0.445313,-0.03516 -0.492188,-0.08203 -0.503906,-0.515625 l -0.03516,-0.550781 v -2.941407 c 0.292969,-0.492187 0.46875,-0.644531 0.9375,-0.796875 0.152344,-0.04687 0.304688,-0.08203 0.4101567,-0.08203 0.2109375,0 0.2695313,0.05859 0.2929688,0.304688 l 0.058594,0.398437 v 0.105469 H -9.02625 v -1.640625 c -0.1640625,-0.04687 -0.234375,-0.05859 -0.375,-0.05859 -0.796875,0 -1.464844,0.433594 -1.945313,1.253906 z m 7.664063,3.773438 v 1.125 h 2.1210937 v -0.339844 l -0.1054687,-0.01172 -0.375,-0.02344 C -2.4871875,17.589133 -2.5223438,17.542263 -2.5575,17.108668 L -2.592656,16.557887 V 9.2453906 H -4.71375 v 0.3398438 l 0.1054687,0.011719 0.3867188,0.023437 c 0.4453125,0.035156 0.4804687,0.082031 0.515625,0.5039066 l 0.023437,0.550781 v 1.992188 c -0.5039063,-0.5625 -1.1015625,-0.820313 -1.8164063,-0.820313 -1.5234375,0 -2.53125,1.3125 -2.53125,3.328125 0,1.804688 0.8789063,2.964844 2.2382813,2.964844 0.8320312,0 1.59375,-0.457031 2.1093755,-1.265625 z m 0,-3.785156 v 3.398437 c -0.421875,0.574219 -1.1015625,0.949219 -1.7109375,0.949219 -0.7617188,0 -1.1835938,-0.433594 -1.3476563,-1.394531 C -6.823125,15.620391 -6.87,15.233672 -6.87,14.870391 c 0,-1.558594 0.5507812,-2.414063 1.5234375,-2.414063 0.5625,0 1.0664062,0.1875 1.6640625,0.632813 z m 7.8017578,1.664062 v -0.105469 c 0,-0.9375 -0.1523437,-1.5 -0.5390625,-2.003906 -0.4101562,-0.539062 -0.9726562,-0.796875 -1.6992187,-0.796875 -1.54687504,0 -2.64843754,1.265625 -2.64843754,3.082031 0,1.898438 1.20703125,3.210938 2.97656254,3.210938 0.4921875,0 0.984375,-0.08203 1.453125,-0.246094 0.1054687,-0.03516 0.2578125,-0.08203 0.4570312,-0.164062 v -0.5625 c -0.4453125,0.257812 -1.1132812,0.410156 -1.734375,0.410156 -0.8554687,0 -1.54687499,-0.539063 -1.79296874,-1.429688 C 0.46300781,15.714141 0.43957031,15.479766 0.43957031,14.858672 V 14.753203 Z M 2.9591016,14.155547 v 0.257812 H 0.46300781 c 0.0117188,-1.382812 0.515625,-2.226562 1.33593749,-2.226562 0.375,0 0.75,0.222656 0.9375,0.550781 0.1757813,0.328125 0.2226563,0.609375 0.2226563,1.3125 z m 4.0546875,-1.054688 v -1.125 H 4.8809766 v 0.351563 h 0.1054687 l 0.375,0.02344 c 0.4453125,0.03516 0.4921875,0.08203 0.515625,0.515625 l 0.035156,0.550782 v 3.140625 l -0.035156,0.550781 c -0.023437,0.433594 -0.070312,0.480469 -0.515625,0.515625 l -0.375,0.02344 -0.1054687,0.01172 v 0.339844 h 3.28125 V 17.65946 l -0.234375,-0.01172 -0.375,-0.02344 C 7.1075391,17.589141 7.0606641,17.542266 7.0489453,17.108672 l -0.035156,-0.550781 v -2.941407 c 0.2929687,-0.492187 0.46875,-0.644531 0.9375,-0.796875 0.1523437,-0.04687 0.3046875,-0.08203 0.4101562,-0.08203 0.2109375,0 0.2695313,0.05859 0.2929688,0.304688 l 0.058594,0.398437 v 0.105469 h 0.6210938 v -1.640625 c -0.1640625,-0.04687 -0.234375,-0.05859 -0.375,-0.05859 -0.796875,0 -1.4648438,0.433594 -1.9453125,1.253906 z m 9.8496089,5.039063 c 1.78125,0 2.871094,-1.207031 2.871094,-3.152344 0,-1.945312 -1.089844,-3.140625 -2.871094,-3.140625 -1.769531,0 -2.871093,1.207031 -2.871093,3.140625 0,1.945313 1.101562,3.152344 2.871093,3.152344 z m 0,-0.339844 c -0.996093,0 -1.710937,-1.195312 -1.710937,-2.8125 0,-1.605469 0.726562,-2.800781 1.710937,-2.800781 0.972657,0 1.710938,1.195312 1.710938,2.800781 0,1.617188 -0.726563,2.8125 -1.710938,2.8125 z m 5.876954,-5.378906 h 1.5 v -0.445313 h -1.5 v -1.5 c 0,-0.175781 0.03516,-0.351562 0.08203,-0.4921871 0.09375,-0.3046875 0.363281,-0.5273438 0.667969,-0.5273438 0.199218,0 0.398437,0.058594 0.5625,0.1523438 0.164062,0.1054687 0.234375,0.2460937 0.234375,0.5859371 0,0.1875 0.01172,0.351563 0.02344,0.515625 v 0.105469 H 25.00207 V 9.5149219 C 24.638789,9.3039844 24.486445,9.2453906 24.123164,9.1750781 c -0.199219,-0.046875 -0.398437,-0.070312 -0.609375,-0.070312 -0.609375,0 -1.160156,0.2578125 -1.464844,0.65625 -0.316406,0.4453129 -0.410156,0.8789069 -0.410156,1.9218759 v 0.292968 h -0.878906 v 0.480469 h 0.878906 v 4.101562 l -0.03516,0.550781 c -0.02344,0.433594 -0.05859,0.480469 -0.503906,0.515625 l -0.375,0.02344 -0.105469,0.01172 v 0.339844 h 3.28125 v -0.339844 l -0.164063,-0.01172 -0.398437,-0.02344 c -0.246094,-0.02344 -0.398438,-0.05859 -0.445313,-0.105468 -0.04687,-0.04687 -0.09375,-0.1875 -0.117187,-0.410157 -0.02344,-0.210937 -0.03516,-0.386718 -0.03516,-0.550781 z m 8.52246,0 h 1.5 v -0.445313 h -1.5 v -1.5 c 0,-0.175781 0.03516,-0.351562 0.08203,-0.4921871 0.09375,-0.3046875 0.363281,-0.5273438 0.667968,-0.5273438 0.199219,0 0.398438,0.058594 0.5625,0.1523438 0.164063,0.1054687 0.234375,0.2460937 0.234375,0.5859371 0,0.1875 0.01172,0.351563 0.02344,0.515625 v 0.105469 h 0.691406 V 9.5149219 C 33.16125,9.3039844 33.008906,9.2453906 32.645625,9.1750781 32.446406,9.1282031 32.247187,9.1047656 32.03625,9.1047656 c -0.609375,0 -1.160156,0.2578125 -1.464844,0.65625 C 30.255,10.206328 30.16125,10.639922 30.16125,11.682891 v 0.292968 h -0.878906 v 0.480469 h 0.878906 v 4.101563 l -0.03516,0.550781 c -0.02344,0.433594 -0.05859,0.480469 -0.503907,0.515625 l -0.375,0.02344 -0.105468,0.01172 v 0.339844 h 3.28125 v -0.339844 l -0.164063,-0.01172 -0.398437,-0.02344 c -0.246094,-0.02344 -0.398438,-0.05859 -0.445313,-0.105469 -0.04687,-0.04687 -0.09375,-0.1875 -0.117187,-0.410156 -0.02344,-0.210938 -0.03516,-0.386719 -0.03516,-0.550781 z m 5.519532,5.71875 c 1.78125,0 2.871093,-1.207031 2.871093,-3.152344 0,-1.945312 -1.089843,-3.140625 -2.871093,-3.140625 -1.769532,0 -2.871094,1.207031 -2.871094,3.140625 0,1.945313 1.101562,3.152344 2.871094,3.152344 z m 0,-0.339844 c -0.996094,0 -1.710938,-1.195312 -1.710938,-2.8125 0,-1.605469 0.726563,-2.800781 1.710938,-2.800781 0.972656,0 1.710937,1.195312 1.710937,2.800781 0,1.617188 -0.726562,2.8125 -1.710937,2.8125 z m 5.750976,-4.699219 v -1.125 h -2.132812 v 0.351563 h 0.105469 l 0.375,0.02344 c 0.445312,0.03516 0.492187,0.08203 0.515625,0.515625 l 0.03516,0.550782 v 3.140625 l -0.03516,0.550781 c -0.02344,0.433594 -0.07031,0.480469 -0.515625,0.515625 l -0.375,0.02344 -0.105469,0.01172 v 0.339844 h 3.28125 V 17.65946 l -0.234375,-0.01172 -0.375,-0.02344 C 42.62707,17.58914 42.580195,17.54227 42.568477,17.108675 l -0.03516,-0.550781 v -2.941407 c 0.292969,-0.492187 0.46875,-0.644531 0.9375,-0.796875 0.152344,-0.04687 0.304688,-0.08203 0.410157,-0.08203 0.210937,0 0.269531,0.05859 0.292968,0.304688 l 0.05859,0.398437 v 0.105469 h 0.621094 v -1.640625 c -0.164063,-0.04687 -0.234375,-0.05859 -0.375,-0.05859 -0.796875,0 -1.464844,0.433594 -1.945313,1.253906 z m 5.039063,0 v -1.125 H 45.43957 v 0.351563 h 0.105469 l 0.375,0.02344 c 0.445313,0.03516 0.492188,0.08203 0.515625,0.515625 l 0.03516,0.550782 v 3.140625 l -0.03516,0.550781 c -0.02344,0.433594 -0.07031,0.480469 -0.515625,0.515625 l -0.375,0.02344 -0.105469,0.01172 v 0.339844 h 3.152344 V 17.65946 l -0.105469,-0.01172 -0.375,-0.02344 c -0.445312,-0.03516 -0.492187,-0.08203 -0.503906,-0.515625 l -0.03516,-0.550781 v -3.082032 c 0.574219,-0.597656 1.195312,-0.914062 1.757812,-0.914062 0.292969,0 0.515625,0.105469 0.65625,0.28125 0.152344,0.210937 0.1875,0.398437 0.1875,0.972656 v 2.742188 l -0.03516,0.550781 c -0.03516,0.433594 -0.08203,0.480469 -0.515625,0.515625 l -0.386719,0.02344 -0.105468,0.01172 v 0.339844 h 3.152343 V 17.65946 l -0.105468,-0.01172 -0.375,-0.02344 c -0.445313,-0.03516 -0.480469,-0.08203 -0.515625,-0.515625 l -0.02344,-0.550781 v -3.082032 c 0.65625,-0.632812 1.195313,-0.914062 1.757813,-0.914062 0.28125,0 0.527343,0.105469 0.65625,0.28125 0.140625,0.199219 0.175781,0.421875 0.175781,0.972656 v 2.742188 l -0.02344,0.550781 c -0.02344,0.433594 -0.07031,0.480469 -0.515625,0.515625 l -0.375,0.02344 -0.105468,0.01172 v 0.339844 h 3.152343 V 17.65946 l -0.105468,-0.01172 -0.375,-0.02344 c -0.445313,-0.03516 -0.492188,-0.08203 -0.527344,-0.515625 l -0.03516,-0.550781 v -2.941407 c 0,-1.101562 -0.597657,-1.769531 -1.605469,-1.769531 -0.46875,0 -0.972656,0.164063 -1.335938,0.457031 -0.292968,0.199219 -0.421875,0.339844 -0.808593,0.796875 -0.09375,-0.480468 -0.199219,-0.691406 -0.515625,-0.925781 -0.28125,-0.222656 -0.644532,-0.328125 -1.03125,-0.328125 -0.46875,0 -0.949219,0.164063 -1.324219,0.46875 -0.316406,0.222656 -0.433594,0.363281 -0.75,0.785156 z m 10.801758,3.457032 v -4.582032 h -2.132813 v 0.351563 h 0.105469 l 0.375,0.02344 c 0.445312,0.03516 0.492187,0.08203 0.515625,0.515625 l 0.03516,0.550782 v 3.140625 l -0.03516,0.550781 c -0.02344,0.433594 -0.07031,0.480469 -0.515625,0.515625 l -0.375,0.02344 -0.105469,0.01172 v 0.339844 h 3.152344 V 17.65946 l -0.105469,-0.01172 -0.375,-0.02344 c -0.445312,-0.03516 -0.492187,-0.08203 -0.503906,-0.515625 z m 0,-5.671875 V 9.7844531 h -1.101563 v 1.1015629 z m 3.477539,2.214843 v -1.125 h -2.132813 v 0.351563 h 0.105469 l 0.375,0.02344 c 0.445312,0.03516 0.492187,0.08203 0.515625,0.515625 l 0.03516,0.550782 v 3.140625 l -0.03516,0.550781 c -0.02344,0.433594 -0.07031,0.480469 -0.515625,0.515625 l -0.375,0.02344 -0.105469,0.01172 v 0.339844 h 3.152344 V 17.65946 l -0.105469,-0.01172 -0.375,-0.02344 C 61.94543,17.58914 61.898555,17.54227 61.886836,17.108675 l -0.03516,-0.550781 v -3.082032 c 0.351562,-0.316406 0.433593,-0.386718 0.714843,-0.5625 0.363282,-0.234375 0.75,-0.363281 1.101563,-0.363281 0.316406,0 0.621094,0.140625 0.761719,0.363281 0.105468,0.1875 0.152343,0.445313 0.152343,1.019532 v 2.625 l -0.03516,0.550781 c -0.03516,0.433594 -0.08203,0.480469 -0.503906,0.515625 l -0.386719,0.02344 -0.105469,0.01172 v 0.339844 h 3.152344 V 17.65946 l -0.105469,-0.01172 -0.375,-0.02344 C 65.777453,17.58914 65.742297,17.54227 65.70714,17.108675 l -0.03516,-0.550781 v -2.789063 c 0,-1.207031 -0.621094,-1.921875 -1.652344,-1.921875 -0.832031,0 -1.664062,0.480469 -2.167968,1.253906 z m 8.630859,4.757813 c 0.621094,0 0.890625,0.09375 1.042969,0.351562 0.08203,0.128907 0.117187,0.292969 0.117187,0.46875 0,0.808594 -0.703125,1.324219 -1.78125,1.324219 -1.042968,0 -1.699218,-0.445312 -1.699218,-1.148437 0,-0.375 0.164062,-0.738282 0.421875,-0.996094 z M 67.65832,16.979766 c 0,0.339843 0.210938,0.585937 0.632813,0.796875 -0.820313,0.351562 -1.207031,0.761718 -1.207031,1.253906 0,0.785156 1.089843,1.300781 2.753906,1.300781 1.710937,0 2.859375,-0.773437 2.859375,-1.910156 0,-0.550781 -0.234375,-0.960938 -0.632813,-1.148438 -0.398437,-0.1875 -0.773437,-0.222656 -1.792968,-0.222656 h -0.949219 c -0.492188,0 -0.691406,-0.128906 -0.691406,-0.398437 0,-0.234375 0.140625,-0.492188 0.386718,-0.679688 0.339844,0.09375 0.46875,0.105469 0.785157,0.105469 1.277343,0 2.214843,-0.878906 2.214843,-2.132813 0,-0.433593 -0.164062,-0.9375 -0.386718,-1.253906 -0.05859,-0.08203 -0.175782,-0.199219 -0.328125,-0.351562 l 1.441406,0.246093 0.28125,-0.667968 -2.109375,0.152343 c -0.375,-0.152343 -0.703125,-0.222656 -1.148438,-0.222656 -1.382812,0 -2.273437,0.832031 -2.273437,2.121094 0,0.867187 0.457031,1.582031 1.230469,1.921875 -0.785157,0.398437 -1.066407,0.667969 -1.066407,1.089844 z m 0.925782,-3.058594 c 0,-1.125 0.421875,-1.734375 1.183593,-1.734375 0.738282,0 1.148438,0.609375 1.148438,1.734375 0,1.195312 -0.398438,1.816406 -1.160156,1.816406 -0.761719,0 -1.171875,-0.621094 -1.171875,-1.816406 z m 10.916015,-1.5 h 1.675781 v -0.445313 h -1.675781 v -1.371093 l -1.089844,0.28125 v 1.089843 h -0.890625 v 0.445313 h 0.890625 v 3.691406 c 0,0.820313 0.08203,1.148438 0.386719,1.476563 0.1875,0.1875 0.398438,0.328125 0.632813,0.410156 0.257812,0.09375 0.539062,0.140625 0.820312,0.140625 0.292969,0 0.457031,-0.03516 0.785156,-0.175781 v -0.445313 c -0.292968,0.140625 -0.421875,0.175781 -0.621093,0.175781 -0.386719,0 -0.691407,-0.1875 -0.808594,-0.492187 -0.07031,-0.140625 -0.09375,-0.304688 -0.105469,-0.457031 z m 4.3125,-3.1757814 h -2.132812 v 0.3398438 l 0.105468,0.011719 0.375,0.023437 c 0.445313,0.035156 0.492188,0.082031 0.515625,0.5039066 l 0.03516,0.550781 v 5.882813 l -0.03516,0.550781 c -0.02344,0.433594 -0.07031,0.480469 -0.515625,0.515625 l -0.375,0.02344 -0.105468,0.01172 v 0.339844 h 3.152343 v -0.339844 l -0.105468,-0.01172 -0.375,-0.02344 c -0.445313,-0.03516 -0.492188,-0.08203 -0.503907,-0.515625 l -0.03516,-0.550781 v -3.082032 c 0.351563,-0.316406 0.433594,-0.386718 0.714844,-0.5625 0.363281,-0.234375 0.75,-0.363281 1.101562,-0.363281 0.316407,0 0.621094,0.140625 0.761719,0.363281 0.105469,0.1875 0.152344,0.445313 0.152344,1.019532 v 2.625 l -0.03516,0.550781 c -0.03516,0.433594 -0.08203,0.480469 -0.503907,0.515625 l -0.386718,0.02344 -0.105469,0.01172 v 0.339844 h 3.152344 v -0.339844 l -0.105469,-0.01172 -0.375,-0.02344 c -0.445313,-0.03516 -0.480469,-0.08203 -0.515625,-0.515625 l -0.03516,-0.550781 v -2.789063 c 0,-1.207031 -0.621094,-1.921875 -1.652344,-1.921875 -0.832031,0 -1.664063,0.480469 -2.167969,1.253906 z m 10.306641,5.5078124 v -0.105469 c 0,-0.9375 -0.152344,-1.5 -0.539063,-2.003906 -0.410156,-0.539062 -0.972656,-0.796875 -1.699218,-0.796875 -1.546875,0 -2.648438,1.265625 -2.648438,3.082031 0,1.898438 1.207031,3.210938 2.976563,3.210938 0.492187,0 0.984375,-0.08203 1.453125,-0.246094 0.105468,-0.03516 0.257812,-0.08203 0.457031,-0.164062 v -0.5625 c -0.445313,0.257812 -1.113281,0.410156 -1.734375,0.410156 -0.855469,0 -1.546875,-0.539063 -1.792969,-1.429688 -0.128906,-0.433593 -0.152344,-0.667968 -0.152344,-1.289062 v -0.105469 z m -1.160156,-0.597656 v 0.257812 h -2.496094 c 0.01172,-1.382812 0.515625,-2.226562 1.335937,-2.226562 0.375,0 0.75,0.222656 0.9375,0.550781 0.175782,0.328125 0.222657,0.609375 0.222657,1.3125 z m 8.012698,-1.054688 v -1.125 h -2.132816 v 0.351563 h 0.105469 l 0.375,0.02344 c 0.445313,0.03516 0.492188,0.08203 0.515625,0.515625 l 0.03516,0.550782 V 18.7493 l -0.03516,0.539062 c -0.02344,0.445313 -0.07031,0.492188 -0.515625,0.527344 l -0.375,0.02344 -0.105469,0.01172 v 0.339844 h 3.152346 v -0.339844 l -0.10547,-0.01172 -0.375,-0.02344 c -0.44531,-0.03516 -0.49219,-0.08203 -0.50391,-0.527344 l -0.0352,-0.539062 v -1.429688 c 0.49218,0.539063 1.10156,0.820313 1.80468,0.820313 1.53516,0 2.53125,-1.324219 2.53125,-3.328125 0,-1.804688 -0.86718,-2.964844 -2.22656,-2.964844 -0.83203,0 -1.59375,0.457031 -2.10937,1.253906 z m 0,3.785157 v -3.398438 c 0.43359,-0.574219 1.10156,-0.9375 1.69922,-0.9375 0.76171,0 1.19531,0.433594 1.35937,1.382813 0.082,0.421875 0.11719,0.808593 0.11719,1.171875 0,1.570312 -0.53906,2.414062 -1.51172,2.414062 -0.5625,0 -1.05469,-0.175781 -1.66406,-0.632812 z m 7.32129,-3.785157 v -1.125 h -2.13282 v 0.351563 h 0.10547 l 0.375,0.02344 c 0.44531,0.03516 0.49219,0.08203 0.51563,0.515625 l 0.0352,0.550782 v 3.140625 l -0.0352,0.550781 c -0.0234,0.433594 -0.0703,0.480469 -0.51563,0.515625 l -0.375,0.02344 -0.10547,0.01172 v 0.339844 h 3.28125 V 17.65946 l -0.23437,-0.01172 -0.375,-0.02344 c -0.44531,-0.03516 -0.49219,-0.08203 -0.50391,-0.515625 l -0.0351,-0.550781 v -2.941407 c 0.29296,-0.492187 0.46875,-0.644531 0.9375,-0.796875 0.15234,-0.04687 0.30468,-0.08203 0.41015,-0.08203 0.21094,0 0.26953,0.05859 0.29297,0.304688 l 0.0586,0.398437 v 0.105469 h 0.6211 v -1.640625 c -0.16406,-0.04687 -0.23438,-0.05859 -0.375,-0.05859 -0.79688,0 -1.46485,0.433594 -1.94531,1.253906 z m 6.1289,5.039063 c 1.78125,0 2.8711,-1.207031 2.8711,-3.152344 0,-1.945312 -1.08985,-3.140625 -2.8711,-3.140625 -1.76953,0 -2.87109,1.207031 -2.87109,3.140625 0,1.945313 1.10156,3.152344 2.87109,3.152344 z m 0,-0.339844 c -0.99609,0 -1.71094,-1.195312 -1.71094,-2.8125 0,-1.605469 0.72657,-2.800781 1.71094,-2.800781 0.97266,0 1.71094,1.195312 1.71094,2.800781 0,1.617188 -0.72656,2.8125 -1.71094,2.8125 z m 8.37598,-0.925781 v 1.125 h 2.12109 v -0.339844 l -0.10547,-0.01172 -0.375,-0.02344 c -0.44531,-0.03516 -0.48047,-0.08203 -0.51562,-0.515625 l -0.0352,-0.550781 V 9.2453906 h -2.12109 v 0.3398438 l 0.10547,0.011719 0.38672,0.023437 c 0.44531,0.035156 0.48046,0.082031 0.51562,0.5039066 l 0.0234,0.550781 v 1.992188 c -0.50391,-0.5625 -1.10156,-0.820313 -1.81641,-0.820313 -1.52344,0 -2.53125,1.3125 -2.53125,3.328125 0,1.804688 0.87891,2.964844 2.23828,2.964844 0.83203,0 1.59375,-0.457031 2.10938,-1.265625 z m 0,-3.785156 v 3.398437 c -0.42188,0.574219 -1.10156,0.949219 -1.71094,0.949219 -0.76172,0 -1.18359,-0.433594 -1.34766,-1.394531 -0.082,-0.421875 -0.1289,-0.808594 -0.1289,-1.171875 0,-1.558594 0.55078,-2.414063 1.52344,-2.414063 0.5625,0 1.0664,0.1875 1.66406,0.632813 z m 7.22754,3.785156 v 1.125 h 2.12109 v -0.339844 l -0.11719,-0.01172 -0.375,-0.02344 c -0.44531,-0.03516 -0.46875,-0.08203 -0.5039,-0.515625 l -0.0352,-0.550781 v -4.582032 h -2.12109 v 0.351563 h 0.0937 l 0.38672,0.02344 c 0.43359,0.03516 0.48047,0.08203 0.51562,0.515625 l 0.0352,0.550782 v 3.082031 c -0.23438,0.246094 -0.30469,0.304687 -0.70313,0.5625 -0.45703,0.28125 -0.70312,0.375 -1.05468,0.375 -0.36329,0 -0.65625,-0.140625 -0.79688,-0.363281 -0.14062,-0.222657 -0.1875,-0.480469 -0.1875,-1.03125 v -4.066407 h -2.12109 v 0.351563 h 0.10547 l 0.375,0.02344 c 0.43359,0.03516 0.48046,0.08203 0.5039,0.515625 l 0.0352,0.550782 v 2.800781 c 0,1.195312 0.63281,1.921875 1.67578,1.921875 0.82031,0 1.64062,-0.480469 2.16797,-1.265625 z m 6.8584,-3.328125 h 0.67968 v -1.429688 c -0.49218,-0.128906 -0.67968,-0.164062 -1.01953,-0.210937 -0.29297,-0.03516 -0.55078,-0.05859 -0.77344,-0.05859 -1.72265,0 -2.85937,1.242188 -2.85937,3.117188 0,1.886718 1.19531,3.175781 2.95312,3.175781 0.46875,0 0.94922,-0.08203 1.3711,-0.222656 0.0703,-0.02344 0.17578,-0.07031 0.32812,-0.117188 v -0.480469 c -0.38672,0.164063 -0.94922,0.269532 -1.4414,0.269532 -1.28907,0 -2.07422,-1.03125 -2.07422,-2.707032 0,-1.652343 0.67969,-2.671875 1.75781,-2.671875 0.41016,0 0.82031,0.199219 0.9375,0.480469 0.0352,0.05859 0.0586,0.1875 0.0937,0.375 0.0234,0.140625 0.0352,0.269531 0.0352,0.375 z m 3.69726,-1.125 h 1.67578 v -0.445313 h -1.67578 v -1.371093 l -1.08984,0.28125 v 1.089843 h -0.89063 v 0.445313 h 0.89063 v 3.691406 c 0,0.820313 0.082,1.148438 0.38672,1.476563 0.1875,0.1875 0.39843,0.328125 0.63281,0.410156 0.25781,0.09375 0.53906,0.140625 0.82031,0.140625 0.29297,0 0.45703,-0.03516 0.78516,-0.175781 v -0.445313 c -0.29297,0.140625 -0.42188,0.175781 -0.6211,0.175781 -0.38671,0 -0.6914,-0.1875 -0.80859,-0.492187 -0.0703,-0.140625 -0.0937,-0.304688 -0.10547,-0.457031 z m 0,0"
         style="fill:#000000;fill-opacity:1;fill-rule:nonzero;stroke:none" />
      <path
         id="path91"
         d="m 150.12023,14.987578 h -0.082 l 1.14844,-5.7421874 h -2.12109 l -0.0703,0.3398438 0.10547,0.011719 0.375,0.023437 c 0.375,0.023437 0.42188,0.058594 0.42188,0.28125 0,0.082031 0,0.1640626 -0.0117,0.2226566 l -0.0703,0.550781 -1.46485,7.324219 h 1.10157 l 0.38671,-1.980469 c 0.58594,-1.042969 1.16016,-1.863281 1.7461,-2.554687 0.45703,-0.515625 0.8789,-0.796875 1.19531,-0.796875 0.21094,0 0.33984,0.152343 0.33984,0.457031 0,0.117187 -0.0351,0.316406 -0.0703,0.515625 l -0.52734,2.707031 c -0.0937,0.445313 -0.14063,0.773438 -0.14063,0.960938 0,0.527343 0.28125,0.832031 0.79688,0.832031 0.65625,0 1.34765,-0.410156 2.17969,-1.3125 l 0.10546,-0.503906 c -0.67968,0.75 -1.3125,1.207031 -1.6289,1.207031 -0.23438,0 -0.35156,-0.105469 -0.35156,-0.363281 0,-0.08203 0.0117,-0.164063 0.0234,-0.269532 l 0.10547,-0.550781 0.52735,-2.695312 c 0.0703,-0.304688 0.0937,-0.585938 0.0937,-0.808594 0,-0.585938 -0.36329,-0.996094 -0.90235,-0.996094 -0.77344,0 -1.45312,0.503906 -2.36719,1.757813 -0.45703,0.632812 -0.58593,0.832031 -0.84375,1.382812 z m 0,0"
         style="fill:#000000;fill-opacity:1;fill-rule:nonzero;stroke:none" />
    </g>
  </g>
</svg>
