<?xml version="1.0" encoding="UTF-8" standalone="no"?>
<svg
   xmlns:dc="http://purl.org/dc/elements/1.1/"
   xmlns:cc="http://creativecommons.org/ns#"
   xmlns:rdf="http://www.w3.org/1999/02/22-rdf-syntax-ns#"
   xmlns:svg="http://www.w3.org/2000/svg"
   xmlns="http://www.w3.org/2000/svg"
   xmlns:sodipodi="http://sodipodi.sourceforge.net/DTD/sodipodi-0.dtd"
   xmlns:inkscape="http://www.inkscape.org/namespaces/inkscape"
   width="300"
   height="120"
   viewBox="0 0 200 200"
   version="1.0"
   id="svg2486"
   sodipodi:version="0.32"
   inkscape:version="0.46"
   sodipodi:docname="Sum of knots3.svg"
   inkscape:output_extension="org.inkscape.output.svg.inkscape">
  <metadata
     id="metadata2511">
    <rdf:RDF>
      <cc:Work
         rdf:about="">
        <dc:format>image/svg+xml</dc:format>
        <dc:type
           rdf:resource="http://purl.org/dc/dcmitype/StillImage" />
      </cc:Work>
    </rdf:RDF>
  </metadata>
  <sodipodi:namedview
     inkscape:window-height="968"
     inkscape:window-width="1280"
     inkscape:pageshadow="2"
     inkscape:pageopacity="0.0"
     guidetolerance="10.0"
     gridtolerance="10.0"
     objecttolerance="10.0"
     borderopacity="1.0"
     bordercolor="#666666"
     pagecolor="#ffffff"
     id="base"
     showgrid="false"
     inkscape:zoom="1.8101934"
     inkscape:cx="155.06608"
     inkscape:cy="-62.681617"
     inkscape:window-x="-4"
     inkscape:window-y="-4"
     inkscape:current-layer="svg2486" />
  <defs
     id="defs2488">
    <inkscape:perspective
       sodipodi:type="inkscape:persp3d"
       inkscape:vp_x="0 : 125 : 1"
       inkscape:vp_y="0 : 1000 : 0"
       inkscape:vp_z="250 : 125 : 1"
       inkscape:persp3d-origin="125 : 83.333333 : 1"
       id="perspective2513" />
    <clipPath
       id="clip0">
      <rect
         width="200"
         height="200"
         id="rect2491"
         x="0"
         y="0" />
    </clipPath>
    <inkscape:perspective
       id="perspective2550"
       inkscape:persp3d-origin="372.04724 : 350.78739 : 1"
       inkscape:vp_z="744.09448 : 526.18109 : 1"
       inkscape:vp_y="0 : 1000 : 0"
       inkscape:vp_x="0 : 526.18109 : 1"
       sodipodi:type="inkscape:persp3d" />
  </defs>
  <path
     style="fill:none;fill-rule:evenodd;stroke:#000000;stroke-width:3.33333332999999990;stroke-linecap:round;stroke-linejoin:miter;stroke-opacity:1;stroke-miterlimit:4;stroke-dasharray:none"
     d="M -47.455705,43.018611 C -76.803399,47.391993 -148.15858,85.601539 -148.15858,124.7318 C -148.15858,163.86206 -7.7500023,146.59871 32.991502,95.959549"
     id="path2558"
     sodipodi:nodetypes="css" />
  <path
     style="fill:none;fill-rule:evenodd;stroke:#000000;stroke-width:3.33333332999999990;stroke-linecap:round;stroke-linejoin:miter;stroke-opacity:1;stroke-miterlimit:4;stroke-dasharray:none"
     d="M 45.881469,80.997979 C 50.600118,74.437906 64.756065,51.880463 64.756065,51.880463 C 64.756065,51.880463 84.551372,50.384307 104.80703,54.52751 C 125.0627,58.670714 140.13936,69.143813 140.13936,69.143813 C 140.13936,69.143813 128.97572,86.522251 128.97572,105.8572 C 128.97572,125.19215 148.0805,171.45793 209.7682,176.75202"
     id="path3330"
     sodipodi:nodetypes="ccscss" />
  <path
     style="fill:none;fill-rule:evenodd;stroke:#000000;stroke-width:3.33333332999999990;stroke-linecap:round;stroke-linejoin:miter;stroke-opacity:1;stroke-miterlimit:4;stroke-dasharray:none"
     d="M 226.46485,178.27148 C 226.46485,178.27148 347.87499,193.09466 347.87499,89.514565 C 347.87499,58.47189 333.24301,47.553675 321.46645,37.193789 C 293.94818,12.985841 253.04514,23.403544 247.28721,34.732203"
     id="path3332"
     sodipodi:nodetypes="csss" />
  <path
     style="fill:none;fill-rule:evenodd;stroke:#000000;stroke-width:3.33333332999999990;stroke-linecap:round;stroke-linejoin:miter;stroke-opacity:1;stroke-miterlimit:4;stroke-dasharray:none"
     d="M 239.46116,49.233417 C 229.39977,71.627861 227.61432,98.059627 238.04955,120.5295 C 250.35009,141.70475 266.08562,163.99984 268.00323,171.22775"
     id="path3334"
     sodipodi:nodetypes="ccs" />
  <path
     style="fill:none;fill-rule:evenodd;stroke:#000000;stroke-width:3.33333332999999990;stroke-linecap:round;stroke-linejoin:miter;stroke-opacity:1;stroke-miterlimit:4;stroke-dasharray:none"
     d="M 265.70145,188.72128 C 261.21298,193.32484 253.73219,198.9642 238.19518,198.9642 C 222.65817,198.9642 218.86023,188.83637 218.86023,183.42718 C 218.86023,178.018 224.83724,154.42708 236.88151,136.36068"
     id="path3336"
     sodipodi:nodetypes="csss" />
  <path
     style="fill:none;fill-rule:evenodd;stroke:#000000;stroke-width:3.33333332999999990;stroke-linecap:round;stroke-linejoin:miter;stroke-opacity:1;stroke-miterlimit:4;stroke-dasharray:none"
     d="M 246.32162,122.20052 C 253.97136,111.94661 265.52735,93.554687 265.52735,78.092447 C 265.52735,62.630208 244.85677,27.473957 201.39974,27.473957 C 169.91112,27.473957 152.40886,50.748697 152.40886,50.748697 C 152.40886,50.748697 123.76302,37.239583 111.71875,34.635416 C 99.67448,32.031249 69.807944,28.61328 69.807944,28.61328 C 69.807944,28.61328 68.42448,1.595051 33.26823,1.595051 C -1.8880201,1.595051 -27.766926,21.126301 -44.205729,57.421874 C -60.644531,93.717447 -57.389322,132.77995 -57.389322,132.77995"
     id="path3338"
     sodipodi:nodetypes="csscscssc" />
  <path
     style="fill:none;fill-rule:evenodd;stroke:#000000;stroke-width:3.33333332999999990;stroke-linecap:round;stroke-linejoin:miter;stroke-opacity:1;stroke-miterlimit:4;stroke-dasharray:none"
     d="M -53.900689,152.81351 C -53.900689,152.81351 -44.808659,193.78519 -6.3689344,193.78519 C 32.07079,193.78519 47.722893,152.35316 47.722893,123.81109 C 47.722893,95.269015 27.927586,46.701459 -25.934063,43.478967"
     id="path3342"
     sodipodi:nodetypes="csss" />
</svg>
