<?xml version="1.0" encoding="UTF-8" standalone="no"?>
<!-- Created with Inkscape (http://www.inkscape.org/) -->

<svg
   version="1.1"
   id="svg1"
   width="646.12134"
   height="284.50134"
   viewBox="0 0 646.12134 284.50134"
   sodipodi:docname="Honours.pdf"
   xmlns:inkscape="http://www.inkscape.org/namespaces/inkscape"
   xmlns:sodipodi="http://sodipodi.sourceforge.net/DTD/sodipodi-0.dtd"
   xmlns="http://www.w3.org/2000/svg"
   xmlns:svg="http://www.w3.org/2000/svg">
  <defs
     id="defs1">
    <mask
       maskUnits="userSpaceOnUse"
       x="0"
       y="0"
       width="1"
       height="1"
       id="mask1"
       opacity="0.8">
      <g
         id="g4"
         clip-path="url(#clipPath5)">
        <path
           d="M -28.3468,-28.3468 V 0 h 56.6936 v -28.3468 z"
           style="fill:#000000;fill-opacity:0;fill-rule:nonzero;stroke:none"
           transform="matrix(1.8213467,0,0,-1.8213467,71.101119,53.683974)"
           clip-path="url(#clipPath1)"
           id="path3" />
        <path
           d="M -28.3468,0 V 28.3468 H 28.3468 V 0 Z"
           style="fill:#ffffff;fill-opacity:1;fill-rule:nonzero;stroke:none"
           transform="matrix(1.8213467,0,0,-1.8213467,71.101119,53.683974)"
           clip-path="url(#clipPath2)"
           id="path4" />
      </g>
    </mask>
    <clipPath
       clipPathUnits="userSpaceOnUse"
       id="clipPath1">
      <path
         d="M 0,0 H 56.693 V 56.693 H 0 Z"
         transform="translate(-28.345999,-28.346)"
         id="path1" />
    </clipPath>
    <clipPath
       clipPathUnits="userSpaceOnUse"
       id="clipPath2">
      <path
         d="M 0,0 H 56.693 V 56.693 H 0 Z"
         transform="translate(-28.345999,-28.346)"
         id="path2" />
    </clipPath>
    <clipPath
       clipPathUnits="userSpaceOnUse"
       id="clipPath5">
      <path
         d="M 0,0 H 56.693 V 56.693 H 0 Z"
         transform="matrix(1.8213467,0,0,-1.8213467,19.473227,105.31187)"
         id="path5" />
    </clipPath>
    <radialGradient
       fx="40.000519"
       fy="60.000759"
       cx="50.000641"
       cy="50.000641"
       r="50.000641"
       gradientUnits="userSpaceOnUse"
       id="radialGradient9">
      <stop
         style="stop-opacity:1;stop-color:#fdfdfd"
         offset="0"
         id="stop5" />
      <stop
         style="stop-opacity:1;stop-color:#f5f5f5"
         offset="0.1799995"
         id="stop6" />
      <stop
         style="stop-opacity:1;stop-color:#aaaaaa"
         offset="0.35999959"
         id="stop7" />
      <stop
         style="stop-opacity:1;stop-color:#797979"
         offset="0.5"
         id="stop8" />
      <stop
         style="stop-opacity:1;stop-color:#000000"
         offset="1"
         id="stop9" />
    </radialGradient>
    <clipPath
       clipPathUnits="userSpaceOnUse"
       id="clipPath9">
      <path
         d="m 34.01608,138.89917 c 0,18.7868 -15.22929,34.0161 -34.01608,34.0161 -18.78679,0 -34.01608,-15.2293 -34.01608,-34.0161 0,-18.78679 15.22929,-34.01608 34.01608,-34.01608 18.78679,0 34.01608,15.22929 34.01608,34.01608 z"
         transform="matrix(1.3335536,0,0,-1.3335536,71.111027,238.90296)"
         id="path9" />
    </clipPath>
    <mask
       maskUnits="userSpaceOnUse"
       x="0"
       y="0"
       width="1"
       height="1"
       id="mask14"
       opacity="0.8">
      <g
         id="g18"
         clip-path="url(#clipPath19)">
        <path
           d="M -28.3468,-28.3468 V 0 h 56.6936 v -28.3468 z"
           style="fill:#ffffff;fill-opacity:1;fill-rule:nonzero;stroke:none"
           transform="matrix(1.8213467,0,0,-1.8213467,71.101119,83.920107)"
           clip-path="url(#clipPath15)"
           id="path17" />
        <path
           d="M -28.3468,0 V 28.3468 H 28.3468 V 0 Z"
           style="fill:#000000;fill-opacity:0;fill-rule:nonzero;stroke:none"
           transform="matrix(1.8213467,0,0,-1.8213467,71.101119,83.920107)"
           clip-path="url(#clipPath16)"
           id="path18" />
      </g>
    </mask>
    <clipPath
       clipPathUnits="userSpaceOnUse"
       id="clipPath15">
      <path
         d="M 0,0 H 56.693 V 56.693 H 0 Z"
         transform="translate(-28.345999,-28.346)"
         id="path15" />
    </clipPath>
    <clipPath
       clipPathUnits="userSpaceOnUse"
       id="clipPath16">
      <path
         d="M 0,0 H 56.693 V 56.693 H 0 Z"
         transform="translate(-28.345999,-28.346)"
         id="path16" />
    </clipPath>
    <clipPath
       clipPathUnits="userSpaceOnUse"
       id="clipPath19">
      <path
         d="M 0,0 H 56.693 V 56.693 H 0 Z"
         transform="matrix(1.8213467,0,0,-1.8213467,19.473227,135.548)"
         id="path19" />
    </clipPath>
    <radialGradient
       fx="40.000519"
       fy="60.000759"
       cx="50.000641"
       cy="50.000641"
       r="50.000641"
       gradientUnits="userSpaceOnUse"
       id="radialGradient23">
      <stop
         style="stop-opacity:1;stop-color:#fdfdfd"
         offset="0"
         id="stop19" />
      <stop
         style="stop-opacity:1;stop-color:#f5f5f5"
         offset="0.1799995"
         id="stop20" />
      <stop
         style="stop-opacity:1;stop-color:#aaaaaa"
         offset="0.35999959"
         id="stop21" />
      <stop
         style="stop-opacity:1;stop-color:#797979"
         offset="0.5"
         id="stop22" />
      <stop
         style="stop-opacity:1;stop-color:#000000"
         offset="1"
         id="stop23" />
    </radialGradient>
    <clipPath
       clipPathUnits="userSpaceOnUse"
       id="clipPath23">
      <path
         d="m 34.01608,116.22208 c 0,18.7868 -15.22929,34.01608 -34.01608,34.01608 -18.78679,0 -34.01608,-15.22928 -34.01608,-34.01608 C -34.01608,97.43527 -18.78679,82.206 0,82.206 c 18.78679,0 34.01608,15.22927 34.01608,34.01608 z"
         transform="matrix(1.3335536,0,0,-1.3335536,71.111027,238.89806)"
         id="path23" />
    </clipPath>
    <radialGradient
       fx="40.000519"
       fy="60.000759"
       cx="50.000641"
       cy="50.000641"
       r="50.000641"
       gradientUnits="userSpaceOnUse"
       id="radialGradient36">
      <stop
         style="stop-opacity:1;stop-color:#fdfdfd"
         offset="0"
         id="stop32" />
      <stop
         style="stop-opacity:1;stop-color:#f5f5f5"
         offset="0.1799995"
         id="stop33" />
      <stop
         style="stop-opacity:1;stop-color:#aaaaaa"
         offset="0.35999959"
         id="stop34" />
      <stop
         style="stop-opacity:1;stop-color:#797979"
         offset="0.5"
         id="stop35" />
      <stop
         style="stop-opacity:1;stop-color:#000000"
         offset="1"
         id="stop36" />
    </radialGradient>
    <clipPath
       clipPathUnits="userSpaceOnUse"
       id="clipPath37">
      <path
         d="m 232.44374,127.56062 c 0,18.78681 -15.22928,34.01608 -34.01608,34.01608 -18.78681,0 -34.01608,-15.22927 -34.01608,-34.01608 0,-18.7868 15.22927,-34.01608 34.01608,-34.01608 18.7868,0 34.01608,15.22928 34.01608,34.01608 z"
         transform="matrix(1.3333333,0,0,-1.3333333,71.102667,238.88133)"
         id="path37" />
    </clipPath>
    <mask
       maskUnits="userSpaceOnUse"
       x="0"
       y="0"
       width="1"
       height="1"
       id="mask51"
       opacity="0.8">
      <g
         id="g55"
         clip-path="url(#clipPath56)">
        <path
           d="M -28.3468,-28.3468 V 0 h 56.6936 v -28.3468 z"
           style="fill:#000000;fill-opacity:0;fill-rule:nonzero;stroke:none"
           transform="matrix(1.8213467,0,0,-1.8213467,600.24152,49.904201)"
           clip-path="url(#clipPath52)"
           id="path54" />
        <path
           d="M -28.3468,0 V 28.3468 H 28.3468 V 0 Z"
           style="fill:#ffffff;fill-opacity:1;fill-rule:nonzero;stroke:none"
           transform="matrix(1.8213467,0,0,-1.8213467,600.24152,49.904201)"
           clip-path="url(#clipPath53)"
           id="path55" />
      </g>
    </mask>
    <clipPath
       clipPathUnits="userSpaceOnUse"
       id="clipPath52">
      <path
         d="M 0,0 H 56.693 V 56.693 H 0 Z"
         transform="translate(-28.346,-28.345999)"
         id="path52" />
    </clipPath>
    <clipPath
       clipPathUnits="userSpaceOnUse"
       id="clipPath53">
      <path
         d="M 0,0 H 56.693 V 56.693 H 0 Z"
         transform="translate(-28.346,-28.345999)"
         id="path53" />
    </clipPath>
    <clipPath
       clipPathUnits="userSpaceOnUse"
       id="clipPath56">
      <path
         d="M 0,0 H 56.693 V 56.693 H 0 Z"
         transform="matrix(1.8213467,0,0,-1.8213467,548.61363,101.53209)"
         id="path56" />
    </clipPath>
    <radialGradient
       fx="40.000519"
       fy="60.000759"
       cx="50.000641"
       cy="50.000641"
       r="50.000641"
       gradientUnits="userSpaceOnUse"
       id="radialGradient60">
      <stop
         style="stop-opacity:1;stop-color:#fdfdfd"
         offset="0"
         id="stop56" />
      <stop
         style="stop-opacity:1;stop-color:#f5f5f5"
         offset="0.1799995"
         id="stop57" />
      <stop
         style="stop-opacity:1;stop-color:#aaaaaa"
         offset="0.35999959"
         id="stop58" />
      <stop
         style="stop-opacity:1;stop-color:#797979"
         offset="0.5"
         id="stop59" />
      <stop
         style="stop-opacity:1;stop-color:#000000"
         offset="1"
         id="stop60" />
    </radialGradient>
    <clipPath
       clipPathUnits="userSpaceOnUse"
       id="clipPath60">
      <path
         d="m 430.87141,141.73402 c 0,18.78681 -15.22927,34.01608 -34.01608,34.01608 -18.7868,0 -34.01608,-15.22927 -34.01608,-34.01608 0,-18.7868 15.22928,-34.01608 34.01608,-34.01608 18.78681,0 34.01608,15.22928 34.01608,34.01608 z"
         transform="matrix(1.3335536,0,0,-1.3335536,71.025276,238.90358)"
         id="path60" />
    </clipPath>
    <mask
       maskUnits="userSpaceOnUse"
       x="0"
       y="0"
       width="1"
       height="1"
       id="mask65"
       opacity="0.8">
      <g
         id="g69"
         clip-path="url(#clipPath70)">
        <path
           d="M -28.3468,-28.3468 V 0 h 56.6936 v -28.3468 z"
           style="fill:#ffffff;fill-opacity:1;fill-rule:nonzero;stroke:none"
           transform="matrix(1.8213467,0,0,-1.8213467,600.24152,87.699934)"
           clip-path="url(#clipPath66)"
           id="path68" />
        <path
           d="M -28.3468,0 V 28.3468 H 28.3468 V 0 Z"
           style="fill:#000000;fill-opacity:0;fill-rule:nonzero;stroke:none"
           transform="matrix(1.8213467,0,0,-1.8213467,600.24152,87.699934)"
           clip-path="url(#clipPath67)"
           id="path69" />
      </g>
    </mask>
    <clipPath
       clipPathUnits="userSpaceOnUse"
       id="clipPath66">
      <path
         d="M 0,0 H 56.693 V 56.693 H 0 Z"
         transform="translate(-28.346,-28.346)"
         id="path66" />
    </clipPath>
    <clipPath
       clipPathUnits="userSpaceOnUse"
       id="clipPath67">
      <path
         d="M 0,0 H 56.693 V 56.693 H 0 Z"
         transform="translate(-28.346,-28.346)"
         id="path67" />
    </clipPath>
    <clipPath
       clipPathUnits="userSpaceOnUse"
       id="clipPath70">
      <path
         d="M 0,0 H 56.693 V 56.693 H 0 Z"
         transform="matrix(1.8213467,0,0,-1.8213467,548.61363,139.32783)"
         id="path70" />
    </clipPath>
    <radialGradient
       fx="40.000519"
       fy="60.000759"
       cx="50.000641"
       cy="50.000641"
       r="50.000641"
       gradientUnits="userSpaceOnUse"
       id="radialGradient74">
      <stop
         style="stop-opacity:1;stop-color:#fdfdfd"
         offset="0"
         id="stop70" />
      <stop
         style="stop-opacity:1;stop-color:#f5f5f5"
         offset="0.1799995"
         id="stop71" />
      <stop
         style="stop-opacity:1;stop-color:#aaaaaa"
         offset="0.35999959"
         id="stop72" />
      <stop
         style="stop-opacity:1;stop-color:#797979"
         offset="0.5"
         id="stop73" />
      <stop
         style="stop-opacity:1;stop-color:#000000"
         offset="1"
         id="stop74" />
    </radialGradient>
    <clipPath
       clipPathUnits="userSpaceOnUse"
       id="clipPath74">
      <path
         d="m 430.87141,113.38724 c 0,18.7868 -15.22927,34.01608 -34.01608,34.01608 -18.7868,0 -34.01608,-15.22928 -34.01608,-34.01608 0,-18.78681 15.22928,-34.01609 34.01608,-34.01609 18.78681,0 34.01608,15.22928 34.01608,34.01609 z"
         transform="matrix(1.3335536,0,0,-1.3335536,71.025276,238.89746)"
         id="path74" />
    </clipPath>
    <radialGradient
       fx="40.000519"
       fy="60.000759"
       cx="50.000641"
       cy="50.000641"
       r="50.000641"
       gradientUnits="userSpaceOnUse"
       id="radialGradient85">
      <stop
         style="stop-opacity:1;stop-color:#fdfdfd"
         offset="0"
         id="stop81" />
      <stop
         style="stop-opacity:1;stop-color:#f5f5f5"
         offset="0.1799995"
         id="stop82" />
      <stop
         style="stop-opacity:1;stop-color:#aaaaaa"
         offset="0.35999959"
         id="stop83" />
      <stop
         style="stop-opacity:1;stop-color:#797979"
         offset="0.5"
         id="stop84" />
      <stop
         style="stop-opacity:1;stop-color:#000000"
         offset="1"
         id="stop85" />
    </radialGradient>
    <clipPath
       clipPathUnits="userSpaceOnUse"
       id="clipPath86">
      <path
         d="m 232.44374,0 c 0,18.78679 -15.22928,34.01608 -34.01608,34.01608 -18.78681,0 -34.01608,-15.22929 -34.01608,-34.01608 0,-18.78679 15.22927,-34.01608 34.01608,-34.01608 18.7868,0 34.01608,15.22929 34.01608,34.01608 z"
         transform="matrix(1.3333333,0,0,-1.3333333,71.102667,238.88133)"
         id="path86" />
    </clipPath>
  </defs>
  <sodipodi:namedview
     id="namedview1"
     pagecolor="#ffffff"
     bordercolor="#000000"
     borderopacity="0.25"
     inkscape:showpageshadow="2"
     inkscape:pageopacity="0.0"
     inkscape:pagecheckerboard="0"
     inkscape:deskcolor="#d1d1d1">
    <inkscape:page
       x="0"
       y="0"
       inkscape:label="1"
       id="page1"
       width="646.12134"
       height="284.50134"
       margin="0"
       bleed="0" />
  </sodipodi:namedview>
  <g
     id="g1"
     inkscape:groupmode="layer"
     inkscape:label="1">
    <g
       mask="url(#mask1)"
       id="g11">
      <g
         clip-path="url(#clipPath9)"
         id="g10">
        <path
           d="M 0,0 H 100 V 100 H 0 Z"
           transform="matrix(1.8147131,0,0,-1.8147131,-19.624626,144.40913)"
           style="fill:url(#radialGradient9);stroke:none"
           id="path10" />
      </g>
    </g>
    <path
       id="path11"
       d="m 34.01608,138.89917 c 0,18.7868 -15.22929,34.0161 -34.01608,34.0161 -18.78679,0 -34.01608,-15.2293 -34.01608,-34.0161"
       style="fill:none;stroke:#000000;stroke-width:0.3985;stroke-linecap:butt;stroke-linejoin:miter;stroke-miterlimit:10;stroke-dasharray:none;stroke-opacity:1"
       transform="matrix(1.3333333,0,0,-1.3333333,71.102667,238.88133)" />
    <path
       id="path12"
       d="m 34.01608,138.89917 c 0,3.1311 -15.22929,5.66928 -34.01608,5.66928 -18.78679,0 -34.01608,-2.53818 -34.01608,-5.66928 0,-3.13109 15.22929,-5.66927 34.01608,-5.66927 18.78679,0 34.01608,2.53818 34.01608,5.66927 z"
       style="fill:#ffe6e6;fill-opacity:1;fill-rule:nonzero;stroke:#ff0000;stroke-width:0.79701;stroke-linecap:butt;stroke-linejoin:miter;stroke-miterlimit:10;stroke-dasharray:none;stroke-opacity:1"
       transform="matrix(1.3333333,0,0,-1.3333333,71.102667,238.88133)" />
    <g
       id="g12"
       aria-label="D&#10;+"
       transform="matrix(1.3333333,0,0,1.3333333,4.5013333,37.776)">
      <path
         id="path13"
         d="m 1.5810312,-0.77242969 c -0.09375,0.38671875 -0.1171875,0.46875 -0.9023437,0.46875 -0.17578125,0 -0.28125,0 -0.28125,0.1875 0,0.1171875 0.09375,0.1171875 0.28125,0.1171875 h 3.2929687 c 2.0742188,0 4.03125,-2.09765621 4.03125,-4.28906251 0,-1.3945312 -0.84375,-2.5195312 -2.3320312,-2.5195312 H 2.3193125 c -0.1875,0 -0.2929688,0 -0.2929688,0.1992187 0,0.1171875 0.082031,0.1171875 0.28125,0.1171875 0.1289063,0 0.3164063,0.011719 0.4335938,0.011719 0.1523437,0.023437 0.2109375,0.058594 0.2109375,0.1640625 0,0.035156 0,0.070312 -0.035156,0.1875 z m 2.15625,-5.34375001 c 0.082031,-0.3515625 0.1054688,-0.375 0.5390625,-0.375 H 5.34275 c 0.9726562,0 1.7929687,0.5273438 1.7929687,1.8398438 0,0.4921875 -0.1992187,2.1210937 -1.0429687,3.2226562 -0.28125,0.3632813 -1.078125,1.12500001 -2.296875,1.12500001 h -1.125 c -0.140625,0 -0.1640625,0 -0.2226563,-0.0117188 -0.09375,-0.0117188 -0.1289062,-0.0234375 -0.1289062,-0.10546875 0,-0.0234375 0,-0.046875 0.046875,-0.22265625 z m 0,0"
         style="fill:#000000;fill-opacity:1;fill-rule:nonzero;stroke:none" />
      <path
         id="path14"
         d="m 11.471656,-0.07516406 h 2.144531 c 0.08203,0 0.257813,0 0.257813,-0.17578125 0,-0.17578125 -0.164063,-0.17578125 -0.257813,-0.17578125 H 11.471656 V -2.5595391 c 0,-0.09375 0,-0.2578125 -0.164062,-0.2578125 -0.175782,0 -0.175782,0.1523438 -0.175782,0.2578125 v 2.13281254 H 8.999 c -0.09375,0 -0.2578125,0 -0.2578125,0.17578125 0,0.17578125 0.1523437,0.17578125 0.2578125,0.17578125 h 2.132812 V 2.0576484 c 0,0.09375 0,0.2578125 0.175782,0.2578125 0.164062,0 0.164062,-0.1523437 0.164062,-0.2578125 z m 0,0"
         style="fill:#000000;fill-opacity:1;fill-rule:nonzero;stroke:none" />
    </g>
    <g
       mask="url(#mask14)"
       id="g25">
      <g
         clip-path="url(#clipPath23)"
         id="g24">
        <path
           d="M 0,0 H 100 V 100 H 0 Z"
           transform="matrix(1.8147131,0,0,-1.8147131,-19.624626,174.64534)"
           style="fill:url(#radialGradient23);stroke:none"
           id="path24" />
      </g>
    </g>
    <path
       id="path25"
       d="M 34.01608,116.22208 C 34.01608,97.43527 18.78679,82.206 0,82.206 c -18.78679,0 -34.01608,15.22927 -34.01608,34.01608"
       style="fill:none;stroke:#000000;stroke-width:0.3985;stroke-linecap:butt;stroke-linejoin:miter;stroke-miterlimit:10;stroke-dasharray:none;stroke-opacity:1"
       transform="matrix(1.3333333,0,0,-1.3333333,71.102667,238.88133)" />
    <path
       id="path26"
       d="m 34.01608,116.22208 c 0,4.69676 -15.22929,8.50413 -34.01608,8.50413 -18.78679,0 -34.01608,-3.80737 -34.01608,-8.50413 0,-4.69675 15.22929,-8.50412 34.01608,-8.50412 18.78679,0 34.01608,3.80737 34.01608,8.50412 z"
       style="fill:#ffe6e6;fill-opacity:1;fill-rule:nonzero;stroke:#ff0000;stroke-width:0.79701;stroke-linecap:butt;stroke-linejoin:miter;stroke-miterlimit:10;stroke-dasharray:none;stroke-opacity:1"
       transform="matrix(1.3333333,0,0,-1.3333333,71.102667,238.88133)" />
    <g
       id="g26"
       aria-label="D&#10;−"
       transform="matrix(1.3333333,0,0,1.3333333,4.428,105.80667)">
      <path
         id="path27"
         d="m 1.5832969,-0.77199219 c -0.09375,0.38671875 -0.1171875,0.46875 -0.90234377,0.46875 -0.17578125,0 -0.28125,0 -0.28125,0.1875 0,0.1171875 0.09375,0.1171875 0.28125,0.1171875 H 3.9739219 c 2.0742187,0 4.03125,-2.09765621 4.03125,-4.28906251 0,-1.3945312 -0.84375,-2.5195312 -2.3320313,-2.5195312 H 2.3215781 c -0.1875,0 -0.2929687,0 -0.2929687,0.1992187 0,0.1171875 0.082031,0.1171875 0.28125,0.1171875 0.1289062,0 0.3164062,0.011719 0.4335937,0.011719 0.1523438,0.023437 0.2109375,0.058594 0.2109375,0.1640625 0,0.035156 0,0.070312 -0.035156,0.1875 z m 2.15625,-5.34375001 c 0.082031,-0.3515625 0.1054687,-0.375 0.5390625,-0.375 h 1.0664062 c 0.9726563,0 1.7929688,0.5273438 1.7929688,1.8398438 0,0.4921875 -0.1992188,2.1210937 -1.0429688,3.2226562 -0.28125,0.3632813 -1.078125,1.12500001 -2.296875,1.12500001 h -1.125 c -0.140625,0 -0.1640625,0 -0.2226562,-0.0117188 -0.09375,-0.0117188 -0.1289063,-0.0234375 -0.1289063,-0.10546875 0,-0.0234375 0,-0.046875 0.046875,-0.22265625 z m 0,0"
         style="fill:#000000;fill-opacity:1;fill-rule:nonzero;stroke:none" />
      <path
         id="path28"
         d="m 13.439742,-0.07472656 c 0.105469,0 0.269531,0 0.269531,-0.17578125 0,-0.17578125 -0.152343,-0.17578125 -0.269531,-0.17578125 H 9.2795859 c -0.1054687,0 -0.28125,0 -0.28125,0.17578125 0,0.17578125 0.1640625,0.17578125 0.28125,0.17578125 z m 0,0"
         style="fill:#000000;fill-opacity:1;fill-rule:nonzero;stroke:none" />
    </g>
    <path
       id="path29"
       d="m 48.18947,127.56062 h 97.93835"
       style="fill:none;stroke:#000000;stroke-width:0.79701;stroke-linecap:butt;stroke-linejoin:miter;stroke-miterlimit:10;stroke-dasharray:none;stroke-opacity:1"
       transform="matrix(1.3333333,0,0,-1.3333333,71.102667,238.88133)" />
    <path
       id="path30"
       d="M 5.44046,0 1.28699,1.5706 2.66432,0 1.28699,-1.5706 Z"
       style="fill:#000000;fill-opacity:1;fill-rule:nonzero;stroke:#000000;stroke-width:0.79701;stroke-linecap:butt;stroke-linejoin:miter;stroke-miterlimit:10;stroke-dasharray:none;stroke-opacity:1"
       transform="matrix(1.3333333,0,0,-1.3333333,262.653,68.800507)" />
    <g
       id="g30"
       aria-label="f-welding"
       transform="matrix(1.3333333,0,0,1.3333333,175.46267,60.709333)">
      <path
         id="path31"
         d="m 3.6549531,-3.9831719 h 0.8554688 c 0.1992187,0 0.3046875,0 0.3046875,-0.1992187 0,-0.1054688 -0.1054688,-0.1054688 -0.2695313,-0.1054688 H 3.7135469 l 0.2109375,-1.1367187 c 0.035156,-0.2109375 0.1757812,-0.9140625 0.234375,-1.0429688 0.09375,-0.1875 0.2578125,-0.3398437 0.46875,-0.3398437 0.046875,0 0.3046875,0 0.4921875,0.1875 -0.4335938,0.035156 -0.5390625,0.3867187 -0.5390625,0.5390625 0,0.2226562 0.1757812,0.3398437 0.3632812,0.3398437 0.2695313,0 0.5507813,-0.2109375 0.5507813,-0.5976562 0,-0.4570313 -0.4570313,-0.6796875 -0.8671875,-0.6796875 -0.3398438,0 -0.9609375,0.1757812 -1.265625,1.1601562 -0.058594,0.2109375 -0.082031,0.3164063 -0.328125,1.5703125 H 2.3541719 c -0.1992188,0 -0.3046875,0 -0.3046875,0.1875 0,0.1171875 0.09375,0.1171875 0.28125,0.1171875 h 0.65625 l -0.75,3.93750002 C 2.0612031,0.91526562 1.8971406,1.8293281 1.3697969,1.8293281 c -0.035156,0 -0.28125,0 -0.46875002,-0.1875 C 1.3580781,1.6183906 1.4401094,1.2551094 1.4401094,1.1027656 c 0,-0.22265623 -0.1757813,-0.33984373 -0.3632813,-0.33984373 -0.25781247,0 -0.55078122,0.2109375 -0.55078122,0.59765623 0,0.4453125 0.43359375,0.6796875 0.84375002,0.6796875 0.5507812,0 0.9492187,-0.5859375 1.125,-0.9609375 0.328125,-0.63281248 0.5507812,-1.83984373 0.5625,-1.91015623 z m 0,0"
         style="fill:#000000;fill-opacity:1;fill-rule:nonzero;stroke:none" />
      <path
         id="path32"
         d=""
         style="fill:#000000;fill-opacity:1;fill-rule:nonzero;stroke:none" />
    </g>
    <g
       id="g36"
       clip-path="url(#clipPath37)">
      <path
         d="M 0,0 H 100 V 100 H 0 Z"
         transform="matrix(1.8144133,0,0,-1.8144133,244.95221,159.52117)"
         style="fill:url(#radialGradient36);stroke:none"
         id="path36" />
    </g>
    <path
       id="path38"
       d="m 232.44374,127.56062 c 0,18.78681 -15.22928,34.01608 -34.01608,34.01608 -18.78681,0 -34.01608,-15.22927 -34.01608,-34.01608 0,-18.7868 15.22927,-34.01608 34.01608,-34.01608 18.7868,0 34.01608,15.22928 34.01608,34.01608 z"
       style="fill:none;stroke:#999999;stroke-width:0.3985;stroke-linecap:butt;stroke-linejoin:miter;stroke-miterlimit:10;stroke-dasharray:none;stroke-opacity:1"
       transform="matrix(1.3333333,0,0,-1.3333333,71.102667,238.88133)" />
    <path
       id="path39"
       d="m 164.41158,127.56062 c 19.84268,-8.50412 48.18948,8.50414 68.03216,0"
       style="fill:none;stroke:#800080;stroke-width:0.79701;stroke-linecap:butt;stroke-linejoin:miter;stroke-miterlimit:10;stroke-dasharray:none;stroke-opacity:1"
       transform="matrix(1.3333333,0,0,-1.3333333,71.102667,238.88133)" />
    <path
       id="path40"
       d="m 232.44374,127.56062 c -19.84268,-2.83484 -48.18948,2.83486 -68.03216,0"
       style="fill:none;stroke:#800080;stroke-width:0.3985;stroke-linecap:butt;stroke-linejoin:miter;stroke-miterlimit:10;stroke-dasharray:2.98883, 2.98883;stroke-dashoffset:0;stroke-opacity:1"
       transform="matrix(1.3333333,0,0,-1.3333333,71.102667,238.88133)" />
    <path
       id="path41"
       d="m 2.4949844,-6.9138047 -1.3359375,1.359375 0.1757812,0.1757813 1.1601563,-1.0195313 1.1367187,1.0195313 0.1875,-0.1757813 z m 0,0"
       style="fill:#000000;fill-opacity:1;fill-rule:nonzero;stroke:none"
       aria-label="ˆ"
       transform="matrix(1.3333333,0,0,1.3333333,305.11867,13.652)" />
    <path
       id="path42"
       d=""
       style="fill:#000000;fill-opacity:1;fill-rule:nonzero;stroke:none"
       aria-label="C(via"
       transform="matrix(1.3333333,0,0,1.3333333,303.64267,17.082667)" />
    <g
       id="g42"
       aria-label="Φ&#10;(1)&#10;)"
       transform="matrix(1.3333333,0,0,1.3333333,339.88262,17.082667)">
      <path
         id="path43"
         d="m 3.9728003,-1.3481328 c 1.546875,-0.1171875 2.6484375,-1.0429688 2.6484375,-2.0507813 0,-1.03125 -1.1367187,-1.9453125 -2.6484375,-2.0625 v -0.5507812 c 0,-0.3398438 0,-0.4804688 0.9492188,-0.4804688 h 0.328125 v -0.3164062 c -0.3632813,0.035156 -1.2773438,0.035156 -1.6875,0.035156 -0.4101563,0 -1.3359375,0 -1.6875,-0.035156 v 0.3164062 h 0.328125 c 0.9492187,0 0.9492187,0.1289063 0.9492187,0.4804688 v 0.5507812 c -1.5234375,0.1523438 -2.58984374,1.0664063 -2.58984374,2.0507813 0,1.03125 1.10156254,1.9101562 2.58984374,2.0625 v 0.56249999 c 0,0.33984375 0,0.48046875 -0.9492187,0.48046875 H 1.8751441 V -4.765625e-4 C 2.2267066,-0.03563281 3.1524878,-0.03563281 3.5509253,-0.03563281 c 0.4101563,0 1.3359375,0 1.6992188,0.0351562475 V -0.30516406 h -0.328125 c -0.9492188,0 -0.9492188,-0.12890625 -0.9492188,-0.48046875 z M 3.1524878,-1.5707891 c -1.4179687,-0.1875 -1.59375,-1.2070312 -1.59375,-1.828125 0,-0.515625 0.09375,-1.6289062 1.59375,-1.828125 z m 0.8203125,-3.6679687 c 1.3710938,0.1523437 1.6523438,1.078125 1.6523438,1.828125 0,0.5976562 -0.140625,1.6640625 -1.6523438,1.8515625 z m 0,0"
         style="fill:#000000;fill-opacity:1;fill-rule:nonzero;stroke:none" />
      <path
         id="path44"
         d="m 9.6681128,-8.8422734 c -1.3242187,0.9257812 -1.6757812,2.4140625 -1.6757812,3.4804687 0,0.984375 0.2929687,2.5078125 1.6757812,3.4804688 0.058594,0 0.140625,0 0.140625,-0.082031 0,-0.046875 -0.023437,-0.058594 -0.070312,-0.1054687 -0.9257812,-0.8320313 -1.265625,-2.015625 -1.265625,-3.2929688 0,-1.875 0.7148438,-2.8007812 1.2890625,-3.3164062 0.023437,-0.023437 0.046875,-0.046875 0.046875,-0.082031 0,-0.082031 -0.082031,-0.082031 -0.1406255,-0.082032 z m 2.9707032,0.796875 c 0,-0.1875 -0.01172,-0.1992188 -0.210938,-0.1992188 -0.445312,0.4335938 -1.078125,0.4453125 -1.359375,0.4453125 v 0.2460938 c 0.164063,0 0.621094,0 1.007813,-0.1875 v 3.5507812 c 0,0.234375 0,0.328125 -0.691406,0.328125 h -0.269532 v 0.2460938 c 0.128907,-0.011719 0.984375,-0.023437 1.242188,-0.023437 0.210937,0 1.089844,0.011719 1.242187,0.023437 v -0.2460938 h -0.257812 c -0.703125,0 -0.703125,-0.09375 -0.703125,-0.328125 z m 2.273437,-0.796875 c -0.05859,0 -0.140625,0 -0.140625,0.082031 0,0.035156 0.02344,0.058594 0.07031,0.1054688 0.597656,0.5507812 1.265625,1.4882812 1.265625,3.2929687 0,1.453125 -0.457031,2.5546875 -1.207031,3.234375 -0.117188,0.1171875 -0.128907,0.1289063 -0.128907,0.1640625 0,0.035156 0.02344,0.082031 0.09375,0.082031 0.08203,0 0.75,-0.4570313 1.207032,-1.3242188 0.304687,-0.5859375 0.503906,-1.3359375 0.503906,-2.15625 0,-0.984375 -0.292969,-2.5078125 -1.664063,-3.4804687 z m 0,0"
         style="fill:#000000;fill-opacity:1;fill-rule:nonzero;stroke:none" />
      <path
         id="path45"
         d=""
         style="fill:#000000;fill-opacity:1;fill-rule:nonzero;stroke:none" />
    </g>
    <path
       id="path46"
       d="m 3.9715391,-1.3483594 c 1.546875,-0.1171875 2.6484375,-1.0429687 2.6484375,-2.0507812 0,-1.03125 -1.1367188,-1.9453125 -2.6484375,-2.0625 v -0.5507813 c 0,-0.3398437 0,-0.4804687 0.9492187,-0.4804687 h 0.328125 v -0.3164063 c -0.3632812,0.035156 -1.2773437,0.035156 -1.6875,0.035156 -0.4101562,0 -1.3359375,0 -1.6875,-0.035156 v 0.3164063 h 0.328125 c 0.9492188,0 0.9492188,0.1289062 0.9492188,0.4804687 v 0.5507813 c -1.5234375,0.1523437 -2.58984379,1.0664062 -2.58984379,2.0507812 0,1.03125 1.10156249,1.9101563 2.58984379,2.0625 v 0.56250003 c 0,0.33984375 0,0.48046875 -0.9492188,0.48046875 H 1.8738828 V -7.03125e-4 C 2.2254453,-0.03585937 3.1512266,-0.03585937 3.5496641,-0.03585937 c 0.4101562,0 1.3359375,0 1.6992187,0.035156245 V -0.30539062 h -0.328125 c -0.9492187,0 -0.9492187,-0.12890625 -0.9492187,-0.48046875 z M 3.1512266,-1.5710156 c -1.4179688,-0.1875 -1.59375,-1.2070313 -1.59375,-1.828125 0,-0.515625 0.09375,-1.6289063 1.59375,-1.828125 z m 0.8203125,-3.6679688 c 1.3710937,0.1523438 1.6523437,1.078125 1.6523437,1.828125 0,0.5976563 -0.140625,1.6640625 -1.6523437,1.8515625 z m 0,0"
       style="fill:#000000;fill-opacity:1;fill-rule:nonzero;stroke:none"
       aria-label="Φ"
       transform="matrix(1.3333333,0,0,1.3333333,384.84133,73.04)" />
    <g
       id="g46"
       aria-label="(1)&#10;(S&#10;1&#10;)"
       transform="matrix(1.3333333,0,0,1.3333333,394.43467,68.218667)">
      <path
         id="path47"
         d="m 2.4718516,-5.2265 c -1.3242188,0.9257812 -1.67578129,2.4140625 -1.67578129,3.4804687 0,0.98437505 0.29296879,2.50781255 1.67578129,3.4804688 0.058594,0 0.140625,0 0.140625,-0.082031 0,-0.046875 -0.023437,-0.058594 -0.070312,-0.1054687 -0.9257813,-0.83203125 -1.265625,-2.015625 -1.265625,-3.2929688 0,-1.875 0.7148437,-2.8007812 1.2890625,-3.3164062 0.023437,-0.023437 0.046875,-0.046875 0.046875,-0.082031 0,-0.082031 -0.082031,-0.082031 -0.1406255,-0.082032 z m 2.9736328,0.796875 c 0,-0.1875 -0.011719,-0.1992188 -0.2109375,-0.1992188 -0.4453125,0.4335938 -1.078125,0.4453125 -1.359375,0.4453125 v 0.2460938 c 0.1640625,0 0.6210937,0 1.0078125,-0.1875 v 3.55078125 c 0,0.234375 0,0.328125 -0.6914063,0.328125 H 3.9220469 V 6.25e-5 c 0.1289062,-0.01171875 0.984375,-0.0234375 1.2421875,-0.0234375 0.2109375,0 1.0898437,0.01171875 1.2421875,0.0234375 V -0.24603125 H 6.1486094 c -0.703125,0 -0.703125,-0.09375 -0.703125,-0.328125 z M 7.7189219,-5.2265 c -0.058594,0 -0.140625,0 -0.140625,0.082031 0,0.035156 0.023437,0.058594 0.070312,0.1054688 0.5976562,0.5507812 1.265625,1.4882812 1.265625,3.2929687 0,1.45312505 -0.4570313,2.55468755 -1.2070313,3.234375 -0.117187,0.1171877 -0.1289057,0.1289065 -0.1289057,0.1640627 0,0.035156 0.023437,0.082031 0.09375,0.082031 0.082031,0 0.75,-0.4570313 1.2070312,-1.32421875 0.3046875,-0.5859375 0.5039063,-1.3359375 0.5039063,-2.15625005 0,-0.984375 -0.2929688,-2.5078125 -1.6640625,-3.4804684 z m 0,0"
         style="fill:#000000;fill-opacity:1;fill-rule:nonzero;stroke:none" />
      <path
         id="path48"
         d="m 13.988453,6.0059219 c 0,-0.035156 0,-0.046875 -0.164062,-0.2226563 -1.242188,-1.2539062 -1.570313,-3.1289062 -1.570313,-4.6640625 0,-1.72265623 0.386719,-3.4570312 1.605469,-4.7109375 0.128906,-0.1171875 0.128906,-0.1289062 0.128906,-0.1640625 0,-0.070312 -0.03516,-0.1054687 -0.09375,-0.1054687 -0.105469,0 -0.996094,0.6796875 -1.582031,1.9453125 -0.515625,1.10156247 -0.632813,2.20312497 -0.632813,3.0351562 0,0.7851563 0.117188,1.9921875 0.65625,3.1171875 0.597657,1.21875 1.453125,1.875 1.558594,1.875 0.05859,0 0.09375,-0.035156 0.09375,-0.1054687 z m 0,0"
         style="fill:#000000;fill-opacity:1;fill-rule:nonzero;stroke:none" />
      <path
         id="path49"
         d="m 20.993336,-3.3104844 c 0,-0.023437 -0.01172,-0.09375 -0.105469,-0.09375 -0.04687,0 -0.05859,0.011719 -0.175781,0.140625 l -0.480469,0.5742188 c -0.257812,-0.46875 -0.773437,-0.7148438 -1.429687,-0.7148438 -1.265625,0 -2.460938,1.1367188 -2.460938,2.34375 0,0.80859377 0.527344,1.26562502 1.042969,1.41796877 l 1.066406,0.28125 c 0.363281,0.0820313 0.914063,0.234375 0.914063,1.05468753 0,0.890625 -0.820313,1.828125 -1.792969,1.828125 -0.644531,0 -1.746094,-0.2109375 -1.746094,-1.453125 0,-0.234375 0.04687,-0.4804688 0.05859,-0.5390625 0.01172,-0.035156 0.02344,-0.046875 0.02344,-0.070312 0,-0.09375 -0.07031,-0.1054688 -0.117187,-0.1054688 -0.05859,0 -0.07031,0.011719 -0.105469,0.035156 -0.03516,0.046875 -0.597656,2.3203125 -0.597656,2.34375 0,0.058594 0.04687,0.1054687 0.117187,0.1054687 0.04687,0 0.05859,-0.011719 0.175782,-0.1523437 l 0.492187,-0.5742188 c 0.421875,0.5859375 1.101563,0.7265625 1.675781,0.7265625 1.359375,0 2.53125,-1.3242187 2.53125,-2.5664062 0,-0.67968753 -0.339843,-1.01953128 -0.492187,-1.16015628 -0.222656,-0.234375 -0.375,-0.26953125 -1.265625,-0.50390625 -0.210938,-0.0585938 -0.574219,-0.15234375 -0.65625,-0.17578125 -0.269531,-0.09375 -0.609375,-0.375 -0.609375,-0.90234372 0,-0.8085938 0.796875,-1.6523438 1.734375,-1.6523438 0.832031,0 1.441406,0.421875 1.441406,1.5351563 0,0.3164062 -0.04687,0.5039062 -0.04687,0.5625 0,0.011719 0,0.09375 0.128906,0.09375 0.09375,0 0.105469,-0.0234375 0.140625,-0.1992188 z m 0,0"
         style="fill:#000000;fill-opacity:1;fill-rule:nonzero;stroke:none" />
      <path
         id="path50"
         d="m 23.586109,-4.429625 c 0,-0.1875 -0.01172,-0.1992188 -0.210937,-0.1992188 -0.445313,0.4335938 -1.078125,0.4453125 -1.359375,0.4453125 v 0.2460938 c 0.164062,0 0.621094,0 1.007812,-0.1875 v 3.55078125 c 0,0.234375 0,0.328125 -0.691406,0.328125 H 22.062672 V 6.25e-5 c 0.128906,-0.01171875 0.984375,-0.0234375 1.242187,-0.0234375 0.210938,0 1.089844,0.01171875 1.242188,0.0234375 v -0.24609375 h -0.257813 c -0.703125,0 -0.703125,-0.09375 -0.703125,-0.328125 z m 0,0"
         style="fill:#000000;fill-opacity:1;fill-rule:nonzero;stroke:none" />
      <path
         id="path51"
         d="m 28.604664,1.1192031 c 0,-0.77343748 -0.117187,-1.98046873 -0.65625,-3.1054687 -0.597656,-1.21875 -1.464844,-1.875 -1.558594,-1.875 -0.05859,0 -0.105468,0.046875 -0.105468,0.1054687 0,0.035156 0,0.046875 0.199218,0.234375 0.972657,0.984375 1.535157,2.56640627 1.535157,4.640625 0,1.7109375 -0.363282,3.4570313 -1.59375,4.7226563 -0.140625,0.1171875 -0.140625,0.1289062 -0.140625,0.1640625 0,0.058594 0.04687,0.1054687 0.105468,0.1054687 0.09375,0 0.996094,-0.6796875 1.582032,-1.9453125 0.503906,-1.1015625 0.632812,-2.203125 0.632812,-3.046875 z m 0,0"
         style="fill:#000000;fill-opacity:1;fill-rule:nonzero;stroke:none" />
    </g>
    <g
       mask="url(#mask51)"
       id="g62">
      <g
         clip-path="url(#clipPath60)"
         id="g61">
        <path
           d="M 0,0 H 100 V 100 H 0 Z"
           transform="matrix(1.8147131,0,0,-1.8147131,509.51746,140.62933)"
           style="fill:url(#radialGradient60);stroke:none"
           id="path61" />
      </g>
    </g>
    <path
       id="path62"
       d="m 430.87141,141.73402 c 0,18.78681 -15.22927,34.01608 -34.01608,34.01608 -18.7868,0 -34.01608,-15.22927 -34.01608,-34.01608"
       style="fill:none;stroke:#000000;stroke-width:0.3985;stroke-linecap:butt;stroke-linejoin:miter;stroke-miterlimit:10;stroke-dasharray:none;stroke-opacity:1"
       transform="matrix(1.3333333,0,0,-1.3333333,71.102667,238.88133)" />
    <path
       id="path63"
       d="m 430.87141,141.73402 c 0,3.13109 -15.22927,5.66928 -34.01608,5.66928 -18.7868,0 -34.01608,-2.53819 -34.01608,-5.66928 0,-3.13108 15.22928,-5.66926 34.01608,-5.66926 18.78681,0 34.01608,2.53818 34.01608,5.66926 z"
       style="fill:#b3b3ff;fill-opacity:1;fill-rule:nonzero;stroke:#0000ff;stroke-width:0.79701;stroke-linecap:butt;stroke-linejoin:miter;stroke-miterlimit:10;stroke-dasharray:none;stroke-opacity:1"
       transform="matrix(1.3333333,0,0,-1.3333333,71.102667,238.88133)" />
    <g
       id="g63"
       aria-label="D&#10;+"
       transform="matrix(1.3333333,0,0,1.3333333,533.63467,33.996)">
      <path
         id="path64"
         d="m 1.5806406,-0.77336719 c -0.09375,0.38671875 -0.1171875,0.46875 -0.90234372,0.46875 -0.17578125,0 -0.28125,0 -0.28125,0.1875 0,0.1171875025 0.09375,0.1171875025 0.28125,0.1171875025 H 3.9712656 c 2.0742188,0 4.03125,-2.0976562125 4.03125,-4.2890625125 0,-1.3945312 -0.84375,-2.5195312 -2.3320312,-2.5195312 H 2.3189219 c -0.1875,0 -0.2929688,0 -0.2929688,0.1992187 0,0.1171875 0.082031,0.1171875 0.28125,0.1171875 0.1289063,0 0.3164063,0.011719 0.4335938,0.011719 0.1523437,0.023437 0.2109375,0.058594 0.2109375,0.1640625 0,0.035156 0,0.070312 -0.035156,0.1875 z m 2.15625,-5.34375001 c 0.082031,-0.3515625 0.1054688,-0.375 0.5390625,-0.375 h 1.0664063 c 0.9726562,0 1.7929687,0.5273438 1.7929687,1.8398438 0,0.4921875 -0.1992187,2.1210937 -1.0429687,3.2226562 -0.28125,0.3632813 -1.078125,1.12500001 -2.296875,1.12500001 h -1.125 c -0.140625,0 -0.1640625,0 -0.2226563,-0.0117188 -0.09375,-0.0117188 -0.1289062,-0.0234375 -0.1289062,-0.10546875 0,-0.0234375 0,-0.046875 0.046875,-0.22265625 z m 0,0"
         style="fill:#000000;fill-opacity:1;fill-rule:nonzero;stroke:none" />
      <path
         id="path65"
         d="m 11.471266,-0.07610156 h 2.144531 c 0.08203,0 0.257812,0 0.257812,-0.17578125 0,-0.17578125 -0.164062,-0.17578125 -0.257812,-0.17578125 H 11.471266 V -2.5604766 c 0,-0.09375 0,-0.2578125 -0.164063,-0.2578125 -0.175781,0 -0.175781,0.1523438 -0.175781,0.2578125 v 2.13281254 H 8.9986094 c -0.09375,0 -0.2578125,0 -0.2578125,0.17578125 0,0.17578125 0.1523437,0.17578125 0.2578125,0.17578125 H 11.131422 V 2.0567109 c 0,0.09375 0,0.2578125 0.175781,0.2578125 0.164063,0 0.164063,-0.1523437 0.164063,-0.2578125 z m 0,0"
         style="fill:#000000;fill-opacity:1;fill-rule:nonzero;stroke:none" />
    </g>
    <g
       mask="url(#mask65)"
       id="g76">
      <g
         clip-path="url(#clipPath74)"
         id="g75">
        <path
           d="M 0,0 H 100 V 100 H 0 Z"
           transform="matrix(1.8147131,0,0,-1.8147131,509.51746,178.42518)"
           style="fill:url(#radialGradient74);stroke:none"
           id="path75" />
      </g>
    </g>
    <path
       id="path76"
       d="m 430.87141,113.38724 c 0,-18.78681 -15.22927,-34.01609 -34.01608,-34.01609 -18.7868,0 -34.01608,15.22928 -34.01608,34.01609"
       style="fill:none;stroke:#000000;stroke-width:0.3985;stroke-linecap:butt;stroke-linejoin:miter;stroke-miterlimit:10;stroke-dasharray:none;stroke-opacity:1"
       transform="matrix(1.3333333,0,0,-1.3333333,71.102667,238.88133)" />
    <path
       id="path77"
       d="m 430.87141,113.38724 c 0,4.69674 -15.22927,8.50412 -34.01608,8.50412 -18.7868,0 -34.01608,-3.80738 -34.01608,-8.50412 0,-4.69676 15.22928,-8.50414 34.01608,-8.50414 18.78681,0 34.01608,3.80738 34.01608,8.50414 z"
       style="fill:#b3b3ff;fill-opacity:1;fill-rule:nonzero;stroke:#0000ff;stroke-width:0.79701;stroke-linecap:butt;stroke-linejoin:miter;stroke-miterlimit:10;stroke-dasharray:none;stroke-opacity:1"
       transform="matrix(1.3333333,0,0,-1.3333333,71.102667,238.88133)" />
    <g
       id="g77"
       aria-label="D&#10;−"
       transform="matrix(1.3333333,0,0,1.3333333,533.56133,109.58667)">
      <path
         id="path78"
         d="m 1.5829063,-0.77398437 c -0.09375,0.38671875 -0.1171875,0.46875 -0.9023438,0.46875 -0.17578125,0 -0.28125,0 -0.28125,0.1875 0,0.117187495 0.09375,0.117187495 0.28125,0.117187495 h 3.2929688 c 2.0742187,0 4.03125,-2.097656225 4.03125,-4.289062525 0,-1.3945312 -0.84375,-2.5195312 -2.3320313,-2.5195312 H 2.3211875 c -0.1875,0 -0.2929687,0 -0.2929687,0.1992187 0,0.1171875 0.082031,0.1171875 0.28125,0.1171875 0.1289062,0 0.3164062,0.011719 0.4335937,0.011719 0.1523438,0.023437 0.2109375,0.058594 0.2109375,0.1640625 0,0.035156 0,0.070312 -0.035156,0.1875 z m 2.15625,-5.34375003 c 0.082031,-0.3515625 0.1054687,-0.375 0.5390625,-0.375 H 5.344625 c 0.9726563,0 1.7929688,0.5273438 1.7929688,1.8398438 0,0.4921875 -0.1992188,2.1210937 -1.0429688,3.2226562 -0.28125,0.3632813 -1.078125,1.12500003 -2.296875,1.12500003 h -1.125 c -0.140625,0 -0.1640625,0 -0.2226562,-0.0117188 -0.09375,-0.0117188 -0.1289063,-0.0234375 -0.1289063,-0.10546875 0,-0.0234375 0,-0.046875 0.046875,-0.22265625 z m 0,0"
         style="fill:#000000;fill-opacity:1;fill-rule:nonzero;stroke:none" />
      <path
         id="path79"
         d="m 13.439352,-0.07671875 c 0.105468,0 0.269531,0 0.269531,-0.17578125 0,-0.17578125 -0.152344,-0.17578125 -0.269531,-0.17578125 H 9.2791953 c -0.1054687,0 -0.28125,0 -0.28125,0.17578125 0,0.17578125 0.1640625,0.17578125 0.28125,0.17578125 z m 0,0"
         style="fill:#000000;fill-opacity:1;fill-rule:nonzero;stroke:none" />
    </g>
    <text
       id="text79"
       xml:space="preserve"
       transform="matrix(1.0666667,0,0,1.0666667,559.976,71.276)"><tspan
         id="tspan79"
         style="font-variant:normal;font-weight:normal;font-size:9.9626px;font-family:'Libertinus Serif';writing-mode:lr-tb;fill:#808080;fill-opacity:1;fill-rule:nonzero;stroke:none"
         x="0"
         dx="0 0 -0.079700798 0 0 0 0 0 0 0 0 0 0 0 0 0 0.069738202"
         y="0">(re-parameterized)</tspan></text>
    <path
       id="path80"
       d="m 274.96396,127.56062 h 66.75668"
       style="fill:none;stroke:#000000;stroke-width:0.79701;stroke-linecap:butt;stroke-linejoin:miter;stroke-miterlimit:10;stroke-dasharray:none;stroke-opacity:1"
       transform="matrix(1.3333333,0,0,-1.3333333,71.102667,238.88133)" />
    <path
       id="path81"
       d="M 5.44046,0 1.28699,1.5706 2.66432,0 1.28699,-1.5706 Z"
       style="fill:#000000;fill-opacity:1;fill-rule:nonzero;stroke:#000000;stroke-width:0.79701;stroke-linecap:butt;stroke-linejoin:miter;stroke-miterlimit:10;stroke-dasharray:none;stroke-opacity:1"
       transform="matrix(1.3333333,0,0,-1.3333333,523.44343,68.800507)" />
    <text
       id="text81"
       xml:space="preserve"
       transform="matrix(1.3333333,0,0,1.3333333,476.492,63.690667)"><tspan
         id="tspan81"
         style="font-variant:normal;font-weight:normal;font-size:9.9626px;font-family:'Libertinus Serif';writing-mode:lr-tb;fill:#000000;fill-opacity:1;fill-rule:nonzero;stroke:none"
         x="0"
         y="0">cut</tspan></text>
    <g
       id="g85"
       clip-path="url(#clipPath86)">
      <path
         d="M 0,0 H 100 V 100 H 0 Z"
         transform="matrix(1.8144133,0,0,-1.8144133,244.95221,329.602)"
         style="fill:url(#radialGradient85);stroke:none"
         id="path85" />
    </g>
    <path
       id="path87"
       d="m 232.44374,0 c 0,18.78679 -15.22928,34.01608 -34.01608,34.01608 -18.78681,0 -34.01608,-15.22929 -34.01608,-34.01608 0,-18.78679 15.22927,-34.01608 34.01608,-34.01608 18.7868,0 34.01608,15.22929 34.01608,34.01608 z"
       style="fill:none;stroke:#999999;stroke-width:0.3985;stroke-linecap:butt;stroke-linejoin:miter;stroke-miterlimit:10;stroke-dasharray:none;stroke-opacity:1"
       transform="matrix(1.3333333,0,0,-1.3333333,71.102667,238.88133)" />
    <path
       id="path88"
       d="m 164.41158,0 c 17.00784,11.33855 51.02433,-11.33855 68.03216,0"
       style="fill:none;stroke:#86592d;stroke-width:0.79701;stroke-linecap:butt;stroke-linejoin:miter;stroke-miterlimit:10;stroke-dasharray:none;stroke-opacity:1"
       transform="matrix(1.3333333,0,0,-1.3333333,71.102667,238.88133)" />
    <path
       id="path89"
       d="M 232.44374,0 C 215.43591,2.83484 181.41942,-2.83484 164.41158,0"
       style="fill:none;stroke:#86592d;stroke-width:0.3985;stroke-linecap:butt;stroke-linejoin:miter;stroke-miterlimit:10;stroke-dasharray:2.98883, 2.98883;stroke-dashoffset:0;stroke-opacity:1"
       transform="matrix(1.3333333,0,0,-1.3333333,71.102667,238.88133)" />
    <path
       id="path90"
       d="m 2.4949844,-6.9142109 -1.3359375,1.359375 0.1757812,0.1757812 1.1601563,-1.0195312 1.1367187,1.0195312 0.1875,-0.1757812 z m 0,0"
       style="fill:#000000;fill-opacity:1;fill-rule:nonzero;stroke:none"
       aria-label="ˆ"
       transform="matrix(1.3333333,0,0,1.3333333,305.11867,183.73067)" />
    <path
       id="path91"
       d=""
       style="fill:#000000;fill-opacity:1;fill-rule:nonzero;stroke:none"
       aria-label="C(via"
       transform="matrix(1.3333333,0,0,1.3333333,303.64267,187.16133)" />
    <g
       id="g91"
       aria-label="Φ&#10;(2)&#10;)"
       transform="matrix(1.3333333,0,0,1.3333333,339.88262,187.16133)">
      <path
         id="path92"
         d="m 3.9728003,-1.3485391 c 1.546875,-0.1171875 2.6484375,-1.0429687 2.6484375,-2.0507812 0,-1.03125 -1.1367187,-1.9453125 -2.6484375,-2.0625 v -0.5507813 c 0,-0.3398437 0,-0.4804687 0.9492188,-0.4804687 h 0.328125 v -0.3164063 c -0.3632813,0.035156 -1.2773438,0.035156 -1.6875,0.035156 -0.4101563,0 -1.3359375,0 -1.6875,-0.035156 v 0.3164063 h 0.328125 c 0.9492187,0 0.9492187,0.1289062 0.9492187,0.4804687 v 0.5507813 c -1.5234375,0.1523437 -2.58984374,1.0664062 -2.58984374,2.0507812 0,1.03125 1.10156254,1.9101563 2.58984374,2.0625 v 0.56250004 c 0,0.33984375 0,0.48046875 -0.9492187,0.48046875 H 1.8751441 V -8.828125e-4 C 2.2267066,-0.03603906 3.1524878,-0.03603906 3.5509253,-0.03603906 c 0.4101563,0 1.3359375,0 1.6992188,0.0351562475 V -0.30557031 h -0.328125 c -0.9492188,0 -0.9492188,-0.12890625 -0.9492188,-0.48046875 z M 3.1524878,-1.5711953 c -1.4179687,-0.1875 -1.59375,-1.2070313 -1.59375,-1.828125 0,-0.515625 0.09375,-1.6289063 1.59375,-1.828125 z m 0.8203125,-3.6679688 c 1.3710938,0.1523438 1.6523438,1.078125 1.6523438,1.828125 0,0.5976563 -0.140625,1.6640625 -1.6523438,1.8515625 z m 0,0"
         style="fill:#000000;fill-opacity:1;fill-rule:nonzero;stroke:none" />
      <path
         id="path93"
         d="m 9.6681128,-8.8426797 c -1.3242187,0.9257813 -1.6757812,2.4140625 -1.6757812,3.4804688 0,0.984375 0.2929687,2.5078125 1.6757812,3.4804687 0.058594,0 0.140625,0 0.140625,-0.082031 0,-0.046875 -0.023437,-0.058594 -0.070312,-0.1054688 -0.9257812,-0.8320312 -1.265625,-2.015625 -1.265625,-3.2929687 0,-1.875 0.7148438,-2.8007813 1.2890625,-3.3164063 0.023437,-0.023437 0.046875,-0.046875 0.046875,-0.082031 0,-0.082031 -0.082031,-0.082031 -0.1406255,-0.082032 z m 4.1542972,3.9609375 h -0.234375 c -0.02344,0.1523438 -0.08203,0.5625 -0.175782,0.6328125 -0.05859,0.035156 -0.597656,0.035156 -0.691406,0.035156 h -1.289062 c 0.738281,-0.6445313 0.984375,-0.84375 1.394531,-1.171875 0.515625,-0.4101563 0.996094,-0.84375 0.996094,-1.5 0,-0.84375 -0.738282,-1.359375 -1.628907,-1.359375 -0.867187,0 -1.453125,0.609375 -1.453125,1.2421875 0,0.3632812 0.304688,0.3984375 0.375,0.3984375 0.164063,0 0.375,-0.1171875 0.375,-0.375 0,-0.1289063 -0.05859,-0.3632813 -0.421875,-0.3632813 0.222657,-0.5039062 0.691407,-0.65625 1.019532,-0.65625 0.703125,0 1.066406,0.5507813 1.066406,1.1132813 0,0.609375 -0.433594,1.0898437 -0.65625,1.3359375 l -1.6875,1.6640625 c -0.07031,0.058594 -0.07031,0.070312 -0.07031,0.2695312 h 2.882813 z m 1.089843,-3.9609375 c -0.05859,0 -0.140625,0 -0.140625,0.082031 0,0.035156 0.02344,0.058594 0.07031,0.1054687 0.597656,0.5507813 1.265625,1.4882813 1.265625,3.2929688 0,1.453125 -0.457031,2.5546875 -1.207031,3.234375 -0.117188,0.1171875 -0.128907,0.1289062 -0.128907,0.1640625 0,0.035156 0.02344,0.082031 0.09375,0.082031 0.08203,0 0.75,-0.4570312 1.207032,-1.3242187 0.304687,-0.5859375 0.503906,-1.3359375 0.503906,-2.15625 0,-0.984375 -0.292969,-2.5078125 -1.664063,-3.4804688 z m 0,0"
         style="fill:#000000;fill-opacity:1;fill-rule:nonzero;stroke:none" />
      <path
         id="path94"
         d=""
         style="fill:#000000;fill-opacity:1;fill-rule:nonzero;stroke:none" />
    </g>
    <path
       id="path95"
       d="m 3.9715391,-1.3487656 c 1.546875,-0.1171875 2.6484375,-1.0429688 2.6484375,-2.0507813 0,-1.03125 -1.1367188,-1.9453125 -2.6484375,-2.0625 v -0.5507812 c 0,-0.3398438 0,-0.4804688 0.9492187,-0.4804688 h 0.328125 v -0.3164062 c -0.3632812,0.035156 -1.2773437,0.035156 -1.6875,0.035156 -0.4101562,0 -1.3359375,0 -1.6875,-0.035156 v 0.3164062 h 0.328125 c 0.9492188,0 0.9492188,0.1289063 0.9492188,0.4804688 v 0.5507812 c -1.5234375,0.1523438 -2.58984379,1.0664063 -2.58984379,2.0507813 0,1.03125 1.10156249,1.9101562 2.58984379,2.0625 v 0.56249998 c 0,0.33984375 0,0.48046875 -0.9492188,0.48046875 h -0.328125 v 0.3046875 c 0.3515625,-0.03515625 1.2773438,-0.03515625 1.6757813,-0.03515625 0.4101562,0 1.3359375,0 1.6992187,0.03515625 v -0.3046875 h -0.328125 c -0.9492187,0 -0.9492187,-0.12890625 -0.9492187,-0.48046875 z M 3.1512266,-1.5714219 c -1.4179688,-0.1875 -1.59375,-1.2070312 -1.59375,-1.828125 0,-0.515625 0.09375,-1.6289062 1.59375,-1.828125 z m 0.8203125,-3.6679687 c 1.3710937,0.1523437 1.6523437,1.078125 1.6523437,1.828125 0,0.5976562 -0.140625,1.6640625 -1.6523437,1.8515625 z m 0,0"
       style="fill:#000000;fill-opacity:1;fill-rule:nonzero;stroke:none"
       aria-label="Φ"
       transform="matrix(1.3333333,0,0,1.3333333,384.84133,243.11867)" />
    <g
       id="g95"
       aria-label="(2)&#10;(S&#10;1&#10;)"
       transform="matrix(1.3333333,0,0,1.3333333,394.43467,238.29733)">
      <path
         id="path96"
         d="m 2.4718516,-5.2269062 c -1.3242188,0.9257812 -1.67578129,2.4140625 -1.67578129,3.4804687 0,0.984375 0.29296879,2.5078125 1.67578129,3.4804688 0.058594,0 0.140625,0 0.140625,-0.082031 0,-0.046875 -0.023437,-0.058594 -0.070312,-0.1054687 C 1.6163828,0.7145 1.2765391,-0.46909375 1.2765391,-1.7464375 c 0,-1.875 0.7148437,-2.8007812 1.2890625,-3.3164062 0.023437,-0.023437 0.046875,-0.046875 0.046875,-0.082031 0,-0.082031 -0.082031,-0.082031 -0.140625,-0.082032 z m 4.1572265,3.9609375 H 6.3947031 C 6.3712656,-1.113625 6.3126719,-0.70346875 6.2189219,-0.63315625 6.1603281,-0.598 5.6212656,-0.598 5.5275156,-0.598 H 4.2384531 c 0.7382813,-0.6445312 0.984375,-0.84375 1.3945313,-1.171875 0.515625,-0.4101562 0.9960937,-0.84375 0.9960937,-1.5 0,-0.84375 -0.7382812,-1.359375 -1.6289062,-1.359375 -0.8671875,0 -1.453125,0.609375 -1.453125,1.2421875 0,0.3632813 0.3046875,0.3984375 0.375,0.3984375 0.1640625,0 0.375,-0.1171875 0.375,-0.375 0,-0.1289062 -0.058594,-0.3632812 -0.421875,-0.3632812 0.2226562,-0.5039063 0.6914062,-0.65625 1.0195312,-0.65625 0.703125,0 1.0664063,0.5507812 1.0664063,1.1132812 0,0.609375 -0.4335938,1.0898438 -0.65625,1.3359375 l -1.6875,1.6640625 c -0.070312,0.0585937 -0.070312,0.0703125 -0.070312,0.26953125 h 2.8828125 z m 1.0898438,-3.9609375 c -0.058594,0 -0.140625,0 -0.140625,0.082031 0,0.035156 0.023437,0.058594 0.070312,0.1054688 0.5976562,0.5507812 1.265625,1.4882812 1.265625,3.2929687 0,1.453125 -0.4570313,2.5546875 -1.2070313,3.234375 C 7.5900156,1.605125 7.5782969,1.6168438 7.5782969,1.652 c 0,0.035156 0.023437,0.082031 0.09375,0.082031 0.082031,0 0.75,-0.4570313 1.2070312,-1.3242188 0.3046875,-0.5859375 0.5039063,-1.3359375 0.5039063,-2.15625 0,-0.984375 -0.2929688,-2.5078125 -1.6640625,-3.4804684 z m 0,0"
         style="fill:#000000;fill-opacity:1;fill-rule:nonzero;stroke:none" />
      <path
         id="path97"
         d="m 13.988453,6.0055156 c 0,-0.035156 0,-0.046875 -0.164062,-0.2226562 -1.242188,-1.2539063 -1.570313,-3.1289063 -1.570313,-4.6640625 0,-1.72265627 0.386719,-3.4570313 1.605469,-4.7109375 0.128906,-0.1171875 0.128906,-0.1289063 0.128906,-0.1640625 0,-0.070312 -0.03516,-0.1054688 -0.09375,-0.1054688 -0.105469,0 -0.996094,0.6796875 -1.582031,1.9453125 -0.515625,1.10156253 -0.632813,2.20312503 -0.632813,3.0351563 0,0.7851562 0.117188,1.9921875 0.65625,3.1171875 0.597657,1.21875 1.453125,1.875 1.558594,1.875 0.05859,0 0.09375,-0.035156 0.09375,-0.1054688 z m 0,0"
         style="fill:#000000;fill-opacity:1;fill-rule:nonzero;stroke:none" />
      <path
         id="path98"
         d="m 20.993336,-3.3108906 c 0,-0.023437 -0.01172,-0.09375 -0.105469,-0.09375 -0.04687,0 -0.05859,0.011719 -0.175781,0.140625 l -0.480469,0.5742187 c -0.257812,-0.46875 -0.773437,-0.7148437 -1.429687,-0.7148437 -1.265625,0 -2.460938,1.1367187 -2.460938,2.34375 0,0.80859373 0.527344,1.26562498 1.042969,1.41796873 l 1.066406,0.28125 c 0.363281,0.0820313 0.914063,0.234375 0.914063,1.05468747 0,0.890625 -0.820313,1.828125 -1.792969,1.828125 -0.644531,0 -1.746094,-0.2109375 -1.746094,-1.453125 0,-0.234375 0.04687,-0.4804687 0.05859,-0.5390625 0.01172,-0.035156 0.02344,-0.046875 0.02344,-0.070312 0,-0.09375 -0.07031,-0.1054687 -0.117187,-0.1054687 -0.05859,0 -0.07031,0.011719 -0.105469,0.035156 -0.03516,0.046875 -0.597656,2.3203125 -0.597656,2.34375 0,0.058594 0.04687,0.1054688 0.117187,0.1054688 0.04687,0 0.05859,-0.011719 0.175782,-0.1523438 l 0.492187,-0.5742187 c 0.421875,0.5859375 1.101563,0.7265625 1.675781,0.7265625 1.359375,0 2.53125,-1.3242188 2.53125,-2.5664063 0,-0.67968747 -0.339843,-1.01953122 -0.492187,-1.16015622 -0.222656,-0.234375 -0.375,-0.26953125 -1.265625,-0.50390625 -0.210938,-0.0585938 -0.574219,-0.15234375 -0.65625,-0.17578125 -0.269531,-0.09375 -0.609375,-0.375 -0.609375,-0.90234378 0,-0.8085937 0.796875,-1.6523437 1.734375,-1.6523437 0.832031,0 1.441406,0.421875 1.441406,1.5351562 0,0.3164063 -0.04687,0.5039063 -0.04687,0.5625 0,0.011719 0,0.09375 0.128906,0.09375 0.09375,0 0.105469,-0.0234375 0.140625,-0.1992187 z m 0,0"
         style="fill:#000000;fill-opacity:1;fill-rule:nonzero;stroke:none" />
      <path
         id="path99"
         d="m 23.586109,-4.4300312 c 0,-0.1875 -0.01172,-0.1992188 -0.210937,-0.1992188 -0.445313,0.4335938 -1.078125,0.4453125 -1.359375,0.4453125 v 0.2460938 c 0.164062,0 0.621094,0 1.007812,-0.1875 v 3.5507812 c 0,0.234375 0,0.328125 -0.691406,0.328125 h -0.269531 v 0.24609375 c 0.128906,-0.01171875 0.984375,-0.0234375 1.242187,-0.0234375 0.210938,0 1.089844,0.01171875 1.242188,0.0234375 V -0.2464375 h -0.257813 c -0.703125,0 -0.703125,-0.09375 -0.703125,-0.328125 z m 0,0"
         style="fill:#000000;fill-opacity:1;fill-rule:nonzero;stroke:none" />
      <path
         id="path100"
         d="m 28.604664,1.1187969 c 0,-0.77343752 -0.117187,-1.98046877 -0.65625,-3.1054688 -0.597656,-1.21875 -1.464844,-1.875 -1.558594,-1.875 -0.05859,0 -0.105468,0.046875 -0.105468,0.1054688 0,0.035156 0,0.046875 0.199218,0.234375 0.972657,0.984375 1.535157,2.56640623 1.535157,4.640625 0,1.7109375 -0.363282,3.4570312 -1.59375,4.7226562 -0.140625,0.1171875 -0.140625,0.1289063 -0.140625,0.1640625 0,0.058594 0.04687,0.1054688 0.105468,0.1054688 0.09375,0 0.996094,-0.6796875 1.582032,-1.9453125 0.503906,-1.1015625 0.632812,-2.203125 0.632812,-3.046875 z m 0,0"
         style="fill:#000000;fill-opacity:1;fill-rule:nonzero;stroke:none" />
    </g>
    <path
       id="path101"
       d="M 198.42766,87.87527 V 52.29984"
       style="fill:none;stroke:#000000;stroke-width:0.79701;stroke-linecap:butt;stroke-linejoin:miter;stroke-miterlimit:10;stroke-dasharray:none;stroke-opacity:1"
       transform="matrix(1.3333333,0,0,-1.3333333,71.102667,238.88133)" />
    <path
       id="path102"
       d="M 5.44046,0 1.28699,1.5706 2.66432,0 1.28699,-1.5706 Z"
       style="fill:#000000;fill-opacity:1;fill-rule:nonzero;stroke:#000000;stroke-width:0.79701;stroke-linecap:butt;stroke-linejoin:miter;stroke-miterlimit:10;stroke-dasharray:none;stroke-opacity:1"
       transform="matrix(0,1.3333333,1.3333333,0,335.67288,165.86145)" />
    <path
       id="path103"
       d=""
       style="fill:#000000;fill-opacity:1;fill-rule:nonzero;stroke:none"
       aria-label="g-welding"
       transform="matrix(1.3333333,0,0,1.3333333,340.628,151.264)" />
    <path
       id="path104"
       d="M 48.18947,79.37115 146.99373,2.52335"
       style="fill:none;stroke:#000000;stroke-width:0.79701;stroke-linecap:butt;stroke-linejoin:miter;stroke-miterlimit:10;stroke-dasharray:none;stroke-opacity:1"
       transform="matrix(1.3333333,0,0,-1.3333333,71.102667,238.88133)" />
    <path
       id="path105"
       d="M 5.44046,0 1.28699,1.5706 2.66432,0 1.28699,-1.5706 Z"
       style="fill:#000000;fill-opacity:1;fill-rule:nonzero;stroke:#000000;stroke-width:0.79701;stroke-linecap:butt;stroke-linejoin:miter;stroke-miterlimit:10;stroke-dasharray:none;stroke-opacity:1"
       transform="matrix(1.0524533,0.81853333,0.81853333,-1.0524533,264.49995,233.49907)" />
    <path
       id="path106"
       d="m 3.2929375,2.3904219 c 0,-0.035156 0,-0.046875 -0.1640625,-0.2226563 -1.2421875,-1.25390622 -1.5703125,-3.12890622 -1.5703125,-4.6640625 0,-1.7226562 0.3867188,-3.4570312 1.6054688,-4.7109375 0.1289062,-0.1171875 0.1289062,-0.1289062 0.1289062,-0.1640625 0,-0.070312 -0.035156,-0.1054687 -0.09375,-0.1054687 -0.1054687,0 -0.9960937,0.6796875 -1.5820312,1.9453125 -0.515625,1.1015625 -0.63281255,2.203125 -0.63281255,3.0351562 0,0.7851563 0.11718755,1.99218753 0.65625005,3.11718753 0.5976562,1.21874997 1.453125,1.87499997 1.5585937,1.87499997 0.058594,0 0.09375,-0.035156 0.09375,-0.1054687 z m 0,0"
       style="fill:#000000;fill-opacity:1;fill-rule:nonzero;stroke:none"
       aria-label="("
       transform="matrix(1.3333333,0,0,1.3333333,112.89067,189.28933)" />
    <g
       id="g106"
       aria-label="g◦f)-welding"
       transform="matrix(1.3333333,0,0,1.3333333,118.05661,189.28933)">
      <path
         id="path107"
         d="m 4.6860605,-3.7502031 c 0.011719,-0.070312 0.035156,-0.1171875 0.035156,-0.1875 0,-0.1640625 -0.1171875,-0.2695313 -0.2929687,-0.2695313 -0.09375,0 -0.3632813,0.070312 -0.4101563,0.4335938 -0.1757812,-0.375 -0.5273437,-0.6328125 -0.9257812,-0.6328125 -1.1367188,0 -2.36718751,1.3945312 -2.36718751,2.8359375 0,0.98437498 0.60937501,1.570312475 1.32421871,1.570312475 0.5859375,0 1.0546875,-0.468749995 1.1601563,-0.574218745 l 0.011719,0.0117188 c -0.2109375,0.87890625 -0.328125,1.2890625 -0.328125,1.3125 -0.046875,0.0820313 -0.3867187,1.07812497 -1.4414062,1.07812497 -0.1875,0 -0.51562501,-0.011719 -0.79687501,-0.1054688 0.3046875,-0.09375 0.41015621,-0.3515625 0.41015621,-0.515625 0,-0.1640625 -0.10546871,-0.35156242 -0.37499996,-0.35156242 -0.22265625,0 -0.5390625,0.17578122 -0.5390625,0.57421872 0,0.4101562 0.36328125,0.6093751 1.32421876,0.6093751 1.2421875,0 1.9570312,-0.7734376 2.109375,-1.37109382 z M 3.396998,-1.2775469 c -0.058594,0.2578125 -0.2929688,0.51562503 -0.5039063,0.70312503 -0.2109375,0.17578125 -0.5273437,0.3515625 -0.8085937,0.3515625 -0.5039063,0 -0.65625,-0.515625 -0.65625,-0.91406253 0,-0.4804687 0.2929687,-1.6523437 0.5625,-2.15625 0.2695312,-0.4921875 0.703125,-0.890625 1.1132812,-0.890625 0.65625,0 0.796875,0.8085938 0.796875,0.8554688 0,0.046875 -0.011719,0.1054687 -0.023437,0.1523437 z m 0,0"
         style="fill:#000000;fill-opacity:1;fill-rule:nonzero;stroke:none" />
      <path
         id="path108"
         d="m 11.740748,-2.4962969 c 0,-1.0546875 -0.878906,-1.921875 -1.921875,-1.921875 -1.078125,0 -1.9453125,0.8789063 -1.9453125,1.921875 0,1.0664063 0.8671875,1.93359378 1.9453125,1.93359378 1.042969,0 1.921875,-0.86718748 1.921875,-1.93359378 z m -1.921875,1.53515628 c -0.8671875,0 -1.546875,-0.69140628 -1.546875,-1.53515628 0,-0.8320312 0.6796875,-1.5234375 1.546875,-1.5234375 0.820312,0 1.523437,0.6679688 1.523437,1.5234375 0,0.8671875 -0.703125,1.53515628 -1.523437,1.53515628 z m 0,0"
         style="fill:#000000;fill-opacity:1;fill-rule:nonzero;stroke:none" />
      <path
         id="path109"
         d="m 18.171412,-3.9845781 h 0.855469 c 0.199219,0 0.304687,0 0.304687,-0.1992188 0,-0.1054687 -0.105468,-0.1054687 -0.269531,-0.1054687 h -0.832031 l 0.210937,-1.1367188 c 0.03516,-0.2109375 0.175782,-0.9140625 0.234375,-1.0429687 0.09375,-0.1875 0.257813,-0.3398438 0.46875,-0.3398438 0.04687,0 0.304688,0 0.492188,0.1875 -0.433594,0.035156 -0.539063,0.3867188 -0.539063,0.5390625 0,0.2226563 0.175782,0.3398438 0.363282,0.3398438 0.269531,0 0.550781,-0.2109375 0.550781,-0.5976563 0,-0.4570312 -0.457031,-0.6796875 -0.867188,-0.6796875 -0.339843,0 -0.960937,0.1757813 -1.265625,1.1601563 -0.05859,0.2109375 -0.08203,0.3164062 -0.328125,1.5703125 h -0.679687 c -0.199219,0 -0.304688,0 -0.304688,0.1875 0,0.1171875 0.09375,0.1171875 0.28125,0.1171875 h 0.65625 l -0.75,3.93749998 C 16.577662,0.91385938 16.4136,1.8279219 15.886256,1.8279219 c -0.03516,0 -0.28125,0 -0.46875,-0.1875 0.457031,-0.023437 0.539062,-0.3867188 0.539062,-0.5390625 0,-0.22265627 -0.175781,-0.33984377 -0.363281,-0.33984377 -0.257812,0 -0.550781,0.2109375 -0.550781,0.59765627 0,0.4453125 0.433594,0.6796875 0.84375,0.6796875 0.550781,0 0.949219,-0.5859375 1.125,-0.9609375 0.328125,-0.63281252 0.550781,-1.83984377 0.5625,-1.91015627 z m 0,0"
         style="fill:#000000;fill-opacity:1;fill-rule:nonzero;stroke:none" />
      <path
         id="path110"
         d=""
         style="fill:#000000;fill-opacity:1;fill-rule:nonzero;stroke:none" />
    </g>
    <path
       id="path111"
       d="M 348.66585,79.37115 277.76071,3.01195"
       style="fill:none;stroke:#000000;stroke-width:0.79701;stroke-linecap:butt;stroke-linejoin:miter;stroke-miterlimit:10;stroke-dasharray:none;stroke-opacity:1"
       transform="matrix(1.3333333,0,0,-1.3333333,71.102667,238.88133)" />
    <path
       id="path112"
       d="M 5.44046,0 1.28699,1.5706 2.66432,0 1.28699,-1.5706 Z"
       style="fill:#000000;fill-opacity:1;fill-rule:nonzero;stroke:#000000;stroke-width:0.79701;stroke-linecap:butt;stroke-linejoin:miter;stroke-miterlimit:10;stroke-dasharray:none;stroke-opacity:1"
       transform="matrix(-0.90722667,0.97702667,0.97702667,0.90722667,443.68667,232.45696)" />
    <path
       id="path113"
       d="M 4.1477266,-6.5034922 3.9836641,-6.6558359 c 0,0.011719 -0.375,0.4804687 -0.8203125,0.4804687 -0.2226563,0 -0.46875,-0.1523437 -0.6445313,-0.2460937 -0.2695312,-0.1640625 -0.4453125,-0.234375 -0.6210937,-0.234375 -0.375,0 -0.5625,0.2226562 -1.06640629,0.7734375 l 0.15234375,0.1523437 c 0,-0.011719 0.37500004,-0.4804687 0.82031254,-0.4804687 0.2226562,0 0.4804687,0.1523437 0.6445312,0.2578125 0.2695313,0.1523437 0.4453125,0.2226562 0.6210938,0.2226562 0.375,0 0.5625,-0.2109375 1.078125,-0.7734375 z m 0,0"
       style="fill:#000000;fill-opacity:1;fill-rule:nonzero;stroke:none"
       aria-label="˜"
       transform="matrix(1.3333333,0,0,1.3333333,492.26267,190.69867)" />
    <g
       id="g113"
       aria-label="g=Φ&#10;(1)&#10;+&#10;◦g◦(Φ&#10;(1)&#10;+&#10;)&#10;−1"
       transform="matrix(1.3333333,0,0,1.3333333,491.81103,190.69867)">
      <path
         id="path114"
         d="m 4.6886034,-3.7495859 c 0.011719,-0.070312 0.035156,-0.1171875 0.035156,-0.1875 0,-0.1640625 -0.1171875,-0.2695313 -0.2929688,-0.2695313 -0.09375,0 -0.3632812,0.070312 -0.4101562,0.4335938 -0.1757813,-0.375 -0.5273438,-0.6328125 -0.9257813,-0.6328125 -1.1367187,0 -2.3671875,1.3945312 -2.3671875,2.8359375 0,0.98437496 0.609375,1.5703124625 1.3242188,1.5703124625 0.5859375,0 1.0546875,-0.4687500025 1.1601562,-0.5742187525 l 0.011719,0.0117188 c -0.2109375,0.87890625 -0.328125,1.2890625 -0.328125,1.3125 -0.046875,0.0820313 -0.3867188,1.07812509 -1.4414063,1.07812509 -0.1875,0 -0.515625,-0.011719 -0.796875,-0.1054688 0.3046875,-0.09375 0.4101563,-0.3515625 0.4101563,-0.515625 0,-0.1640625 -0.1054688,-0.35156254 -0.37500005,-0.35156254 -0.22265625,0 -0.5390625,0.17578134 -0.5390625,0.57421884 0,0.4101562 0.36328125,0.609375 1.32421875,0.609375 1.2421875,0 1.9570313,-0.7734375 2.109375,-1.37109384 z m -1.2890625,2.4726562 c -0.058594,0.2578125 -0.2929687,0.51562501 -0.5039062,0.70312501 -0.2109375,0.17578125 -0.5273438,0.3515625 -0.8085938,0.3515625 -0.5039062,0 -0.65625,-0.515625 -0.65625,-0.91406251 0,-0.4804687 0.2929688,-1.6523437 0.5625,-2.15625 0.2695313,-0.4921875 0.703125,-0.890625 1.1132813,-0.890625 0.65625,0 0.796875,0.8085938 0.796875,0.8554688 0,0.046875 -0.011719,0.1054687 -0.023437,0.1523437 z m 0,0"
         style="fill:#000000;fill-opacity:1;fill-rule:nonzero;stroke:none" />
      <path
         id="path115"
         d="m 14.713994,-3.2573984 c 0.152344,0 0.339844,0 0.339844,-0.1992188 0,-0.1992187 -0.1875,-0.1992187 -0.328125,-0.1992187 H 8.760869 c -0.140625,0 -0.328125,0 -0.328125,0.1992187 0,0.1992188 0.1875,0.1992188 0.3398438,0.1992188 z m 0.01172,1.9335937 c 0.140625,0 0.328125,0 0.328125,-0.1992187 0,-0.1992188 -0.1875,-0.1992188 -0.339844,-0.1992188 H 8.7725878 c -0.1523438,0 -0.3398438,0 -0.3398438,0.1992188 0,0.1992187 0.1875,0.1992187 0.328125,0.1992187 z m 7.634765,-0.023437 c 1.546875,-0.1171875 2.648438,-1.0429687 2.648438,-2.0507812 0,-1.03125 -1.136719,-1.9453125 -2.648438,-2.0625 v -0.5507813 c 0,-0.3398437 0,-0.4804687 0.949219,-0.4804687 h 0.328125 v -0.3164063 c -0.363281,0.035156 -1.277344,0.035156 -1.6875,0.035156 -0.410156,0 -1.335937,0 -1.6875,-0.035156 v 0.3164063 h 0.328125 c 0.949219,0 0.949219,0.1289062 0.949219,0.4804687 v 0.5507813 c -1.523438,0.1523437 -2.589844,1.0664062 -2.589844,2.0507812 0,1.03125 1.101563,1.9101563 2.589844,2.0625 v 0.56250001 c 0,0.33984375 0,0.48046875 -0.949219,0.48046875 H 20.262822 V 4.140625e-4 C 20.614385,-0.03474219 21.540166,-0.03474219 21.938603,-0.03474219 c 0.410157,0 1.335938,0 1.699219,0.0351562525 V -0.30427344 h -0.328125 c -0.949219,0 -0.949219,-0.12890625 -0.949219,-0.48046875 z m -0.820312,-0.2226562 c -1.417969,-0.1875 -1.59375,-1.2070313 -1.59375,-1.828125 0,-0.515625 0.09375,-1.6289063 1.59375,-1.828125 z m 0.820312,-3.6679688 c 1.371094,0.1523438 1.652344,1.078125 1.652344,1.828125 0,0.5976563 -0.140625,1.6640625 -1.652344,1.8515625 z m 0,0"
         style="fill:#000000;fill-opacity:1;fill-rule:nonzero;stroke:none" />
      <path
         id="path116"
         d="m 28.058721,-10.402906 c -1.324219,0.925781 -1.675782,2.4140622 -1.675782,3.4804685 0,0.984375 0.292969,2.5078125 1.675782,3.4804687 0.05859,0 0.140625,0 0.140625,-0.082031 0,-0.046875 -0.02344,-0.058594 -0.07031,-0.1054688 -0.925781,-0.8320312 -1.265625,-2.015625 -1.265625,-3.2929687 0,-1.875 0.714844,-2.8007813 1.289063,-3.3164067 0.02344,-0.02344 0.04687,-0.04687 0.04687,-0.08203 0,-0.08203 -0.08203,-0.08203 -0.140625,-0.08203 z m 2.973632,0.7968747 c 0,-0.1875 -0.01172,-0.1992187 -0.210937,-0.1992187 -0.445313,0.4335937 -1.078125,0.4453125 -1.359375,0.4453125 v 0.2460937 c 0.164062,0 0.621094,0 1.007812,-0.1875 v 3.5507813 c 0,0.234375 0,0.328125 -0.691406,0.328125 h -0.269531 v 0.2460937 c 0.128906,-0.011719 0.984375,-0.023437 1.242187,-0.023437 0.210938,0 1.089844,0.011719 1.242188,0.023437 v -0.2460937 h -0.257813 c -0.703125,0 -0.703125,-0.09375 -0.703125,-0.328125 z m 2.270508,-0.7968747 c -0.05859,0 -0.140625,0 -0.140625,0.08203 0,0.03516 0.02344,0.05859 0.07031,0.105469 0.597656,0.550781 1.265625,1.488281 1.265625,3.2929685 0,1.453125 -0.457032,2.5546875 -1.207032,3.234375 -0.117187,0.1171875 -0.128906,0.1289062 -0.128906,0.1640625 0,0.035156 0.02344,0.082031 0.09375,0.082031 0.08203,0 0.75,-0.4570312 1.207031,-1.3242187 0.304688,-0.5859375 0.503907,-1.3359375 0.503907,-2.15625 0,-0.984375 -0.292969,-2.5078125 -1.664063,-3.4804683 z m -4.49414,11.31152319 h 2.144531 c 0.08203,0 0.257812,0 0.257812,-0.17578125 0,-0.17578125 -0.164062,-0.17578125 -0.257812,-0.17578125 H 28.808721 V -1.5757578 c 0,-0.09375 0,-0.2578125 -0.164063,-0.2578125 -0.175781,0 -0.175781,0.1523437 -0.175781,0.2578125 v 2.13281249 h -2.132813 c -0.09375,0 -0.257812,0 -0.257812,0.17578125 0,0.17578125 0.152344,0.17578125 0.257812,0.17578125 h 2.132813 V 3.0414297 c 0,0.09375 0,0.2578125 0.175781,0.2578125 0.164063,0 0.164063,-0.1523438 0.164063,-0.2578125 z m 0,0"
         style="fill:#000000;fill-opacity:1;fill-rule:nonzero;stroke:none" />
      <path
         id="path117"
         d="m 42.915166,-2.4956797 c 0,-1.0546875 -0.878906,-1.921875 -1.921875,-1.921875 -1.078125,0 -1.945313,0.8789063 -1.945313,1.921875 0,1.0664063 0.867188,1.93359376 1.945313,1.93359376 1.042969,0 1.921875,-0.86718746 1.921875,-1.93359376 z m -1.921875,1.53515626 c -0.867188,0 -1.546875,-0.69140626 -1.546875,-1.53515626 0,-0.8320312 0.679687,-1.5234375 1.546875,-1.5234375 0.820312,0 1.523437,0.6679688 1.523437,1.5234375 0,0.8671875 -0.703125,1.53515626 -1.523437,1.53515626 z m 0,0"
         style="fill:#000000;fill-opacity:1;fill-rule:nonzero;stroke:none" />
      <path
         id="path118"
         d="m 50.37708,-3.7495859 c 0.01172,-0.070312 0.03516,-0.1171875 0.03516,-0.1875 0,-0.1640625 -0.117187,-0.2695313 -0.292969,-0.2695313 -0.09375,0 -0.363281,0.070312 -0.410156,0.4335938 -0.175781,-0.375 -0.527344,-0.6328125 -0.925781,-0.6328125 -1.136719,0 -2.367188,1.3945312 -2.367188,2.8359375 0,0.98437496 0.609375,1.5703124625 1.324219,1.5703124625 0.585938,0 1.054688,-0.4687500025 1.160156,-0.5742187525 l 0.01172,0.0117188 c -0.210937,0.87890625 -0.328125,1.2890625 -0.328125,1.3125 -0.04687,0.0820313 -0.386719,1.07812509 -1.441406,1.07812509 -0.1875,0 -0.515625,-0.011719 -0.796875,-0.1054688 0.304687,-0.09375 0.410156,-0.3515625 0.410156,-0.515625 0,-0.1640625 -0.105469,-0.35156254 -0.375,-0.35156254 -0.222656,0 -0.539062,0.17578134 -0.539062,0.57421884 0,0.4101562 0.363281,0.609375 1.324218,0.609375 1.242188,0 1.957032,-0.7734375 2.109375,-1.37109384 z m -1.289063,2.4726562 c -0.05859,0.2578125 -0.292968,0.51562501 -0.503906,0.70312501 -0.210937,0.17578125 -0.527344,0.3515625 -0.808594,0.3515625 -0.503906,0 -0.65625,-0.515625 -0.65625,-0.91406251 0,-0.4804687 0.292969,-1.6523437 0.5625,-2.15625 0.269532,-0.4921875 0.703125,-0.890625 1.113282,-0.890625 0.65625,0 0.796875,0.8085938 0.796875,0.8554688 0,0.046875 -0.01172,0.1054687 -0.02344,0.1523437 z m 0,0"
         style="fill:#000000;fill-opacity:1;fill-rule:nonzero;stroke:none" />
      <path
         id="path119"
         d="m 57.428838,-2.4956797 c 0,-1.0546875 -0.878906,-1.921875 -1.921875,-1.921875 -1.078125,0 -1.945313,0.8789063 -1.945313,1.921875 0,1.0664063 0.867188,1.93359376 1.945313,1.93359376 1.042969,0 1.921875,-0.86718746 1.921875,-1.93359376 z m -1.921875,1.53515626 c -0.867188,0 -1.546875,-0.69140626 -1.546875,-1.53515626 0,-0.8320312 0.679687,-1.5234375 1.546875,-1.5234375 0.820312,0 1.523437,0.6679688 1.523437,1.5234375 0,0.8671875 -0.703125,1.53515626 -1.523437,1.53515626 z m 0,0"
         style="fill:#000000;fill-opacity:1;fill-rule:nonzero;stroke:none" />
      <path
         id="path120"
         d="m 63.49915,2.3910391 c 0,-0.035156 0,-0.046875 -0.164062,-0.2226563 -1.242188,-1.25390624 -1.570313,-3.12890624 -1.570313,-4.6640625 0,-1.7226562 0.386719,-3.4570312 1.605469,-4.7109375 0.128906,-0.1171875 0.128906,-0.1289062 0.128906,-0.1640625 0,-0.070312 -0.03516,-0.1054687 -0.09375,-0.1054687 -0.105468,0 -0.996093,0.6796875 -1.582031,1.9453125 -0.515625,1.1015625 -0.632812,2.203125 -0.632812,3.0351562 0,0.7851563 0.117187,1.99218751 0.65625,3.11718751 0.597656,1.21874999 1.453125,1.87499999 1.558593,1.87499999 0.05859,0 0.09375,-0.035156 0.09375,-0.1054687 z m 4.552735,-3.7382813 c 1.546875,-0.1171875 2.648437,-1.0429687 2.648437,-2.0507812 0,-1.03125 -1.136719,-1.9453125 -2.648437,-2.0625 v -0.5507813 c 0,-0.3398437 0,-0.4804687 0.949218,-0.4804687 h 0.328125 v -0.3164063 c -0.363281,0.035156 -1.277343,0.035156 -1.6875,0.035156 -0.410156,0 -1.335937,0 -1.6875,-0.035156 v 0.3164063 h 0.328125 c 0.949219,0 0.949219,0.1289062 0.949219,0.4804687 v 0.5507813 c -1.523437,0.1523437 -2.589844,1.0664062 -2.589844,2.0507812 0,1.03125 1.101563,1.9101563 2.589844,2.0625 v 0.56250001 c 0,0.33984375 0,0.48046875 -0.949219,0.48046875 H 65.954228 V 4.140625e-4 C 66.305791,-0.03474219 67.231572,-0.03474219 67.63001,-0.03474219 c 0.410156,0 1.335937,0 1.699218,0.0351562525 V -0.30427344 h -0.328125 c -0.949218,0 -0.949218,-0.12890625 -0.949218,-0.48046875 z m -0.820313,-0.2226562 c -1.417969,-0.1875 -1.59375,-1.2070313 -1.59375,-1.828125 0,-0.515625 0.09375,-1.6289063 1.59375,-1.828125 z m 0.820313,-3.6679688 c 1.371093,0.1523438 1.652343,1.078125 1.652343,1.828125 0,0.5976563 -0.140625,1.6640625 -1.652343,1.8515625 z m 0,0"
         style="fill:#000000;fill-opacity:1;fill-rule:nonzero;stroke:none" />
      <path
         id="path121"
         d="m 73.753057,-10.402906 c -1.324219,0.925781 -1.675782,2.4140622 -1.675782,3.4804685 0,0.984375 0.292969,2.5078125 1.675782,3.4804687 0.05859,0 0.140625,0 0.140625,-0.082031 0,-0.046875 -0.02344,-0.058594 -0.07031,-0.1054688 -0.925781,-0.8320312 -1.265625,-2.015625 -1.265625,-3.2929687 0,-1.875 0.714844,-2.8007813 1.289063,-3.3164067 0.02344,-0.02344 0.04687,-0.04687 0.04687,-0.08203 0,-0.08203 -0.08203,-0.08203 -0.140625,-0.08203 z m 2.970703,0.7968747 c 0,-0.1875 -0.01172,-0.1992187 -0.210938,-0.1992187 -0.445312,0.4335937 -1.078125,0.4453125 -1.359375,0.4453125 v 0.2460937 c 0.164063,0 0.621094,0 1.007813,-0.1875 v 3.5507813 c 0,0.234375 0,0.328125 -0.691407,0.328125 h -0.269531 v 0.2460937 c 0.128906,-0.011719 0.984375,-0.023437 1.242188,-0.023437 0.210937,0 1.089843,0.011719 1.242187,0.023437 v -0.2460937 h -0.257812 c -0.703125,0 -0.703125,-0.09375 -0.703125,-0.328125 z m 2.273437,-0.7968747 c -0.05859,0 -0.140625,0 -0.140625,0.08203 0,0.03516 0.02344,0.05859 0.07031,0.105469 0.597656,0.550781 1.265625,1.488281 1.265625,3.2929685 0,1.453125 -0.457032,2.5546875 -1.207032,3.234375 -0.117187,0.1171875 -0.128906,0.1289062 -0.128906,0.1640625 0,0.035156 0.02344,0.082031 0.09375,0.082031 0.08203,0 0.75,-0.4570312 1.207031,-1.3242187 0.304688,-0.5859375 0.503907,-1.3359375 0.503907,-2.15625 0,-0.984375 -0.292969,-2.5078125 -1.664063,-3.4804683 z m -4.49414,11.31152319 h 2.144531 c 0.08203,0 0.257812,0 0.257812,-0.17578125 0,-0.17578125 -0.164062,-0.17578125 -0.257812,-0.17578125 H 74.503057 V -1.5757578 c 0,-0.09375 0,-0.2578125 -0.164063,-0.2578125 -0.175781,0 -0.175781,0.1523437 -0.175781,0.2578125 V 0.55705469 H 72.0304 c -0.09375,0 -0.257812,0 -0.257812,0.17578125 0,0.17578125 0.152344,0.17578125 0.257812,0.17578125 h 2.132813 V 3.0414297 c 0,0.09375 0,0.2578125 0.175781,0.2578125 0.164063,0 0.164063,-0.1523438 0.164063,-0.2578125 z m 0,0"
         style="fill:#000000;fill-opacity:1;fill-rule:nonzero;stroke:none" />
      <path
         id="path122"
         d="m 84.859502,-2.4956797 c 0,-0.7734375 -0.117188,-1.9804687 -0.65625,-3.1054687 -0.597656,-1.21875 -1.464844,-1.875 -1.558594,-1.875 -0.05859,0 -0.105469,0.046875 -0.105469,0.1054687 0,0.035156 0,0.046875 0.199219,0.234375 0.972656,0.984375 1.535156,2.5664063 1.535156,4.640625 0,1.71093751 -0.363281,3.45703126 -1.59375,4.7226563 -0.140625,0.1171875 -0.140625,0.1289062 -0.140625,0.1640625 0,0.058594 0.04687,0.1054687 0.105469,0.1054687 0.09375,0 0.996094,-0.6796875 1.582031,-1.94531249 0.503907,-1.1015625 0.632813,-2.20312501 0.632813,-3.04687501 z m 0,0"
         style="fill:#000000;fill-opacity:1;fill-rule:nonzero;stroke:none" />
      <path
         id="path123"
         d="m 91.041142,-5.1851328 c 0.105469,0 0.269532,0 0.269532,-0.1757813 0,-0.1757812 -0.152344,-0.1757812 -0.269532,-0.1757812 h -4.160156 c -0.105469,0 -0.28125,0 -0.28125,0.1757812 0,0.1757813 0.164063,0.1757813 0.28125,0.1757813 z m 0,0"
         style="fill:#000000;fill-opacity:1;fill-rule:nonzero;stroke:none" />
      <path
         id="path124"
         d="m 94.407353,-8.0445078 c 0,-0.1875 -0.01172,-0.1992188 -0.210937,-0.1992188 -0.445313,0.4335938 -1.078125,0.4453125 -1.359375,0.4453125 v 0.2460938 c 0.164062,0 0.621094,0 1.007812,-0.1875 v 3.5507812 c 0,0.234375 0,0.328125 -0.691406,0.328125 h -0.269531 v 0.2460938 c 0.128906,-0.011719 0.984375,-0.023437 1.242187,-0.023437 0.210938,0 1.089844,0.011719 1.242188,0.023437 v -0.2460938 h -0.257813 c -0.703125,0 -0.703125,-0.09375 -0.703125,-0.328125 z m 0,0"
         style="fill:#000000;fill-opacity:1;fill-rule:nonzero;stroke:none" />
    </g>
  </g>
</svg>
