<?xml version="1.0" encoding="UTF-8" standalone="no"?>
<!-- Created with Inkscape (http://www.inkscape.org/) -->

<svg
   version="1.1"
   id="svg1"
   width="156.15256"
   height="33.482811"
   viewBox="0 0 156.15256 33.482811"
   sodipodi:docname="Untitled 2025-08-23 (3).pdf"
   xmlns:inkscape="http://www.inkscape.org/namespaces/inkscape"
   xmlns:sodipodi="http://sodipodi.sourceforge.net/DTD/sodipodi-0.dtd"
   xmlns="http://www.w3.org/2000/svg"
   xmlns:svg="http://www.w3.org/2000/svg">
  <defs
     id="defs1" />
  <sodipodi:namedview
     id="namedview1"
     pagecolor="#ffffff"
     bordercolor="#000000"
     borderopacity="0.25"
     inkscape:showpageshadow="2"
     inkscape:pageopacity="0.0"
     inkscape:pagecheckerboard="0"
     inkscape:deskcolor="#d1d1d1">
    <inkscape:page
       x="0"
       y="0"
       width="156.15256"
       height="33.482811"
       id="page2"
       margin="0"
       bleed="0" />
  </sodipodi:namedview>
  <g
     id="g1"
     inkscape:groupmode="layer"
     inkscape:label="1"
     transform="translate(-148.02628,-64.022331)">
    <path
       id="path1"
       d="m 545.90234,399.19922 -0.24786,-1.09116 -0.43042,-1.1484 -0.50732,-1.06739 -0.56122,-1.01645 -0.64789,-1.03314 -0.70154,-1.00967 -0.65588,-0.8487 -0.82007,-0.98364 -0.81348,-0.90072 -0.89062,-0.91587 -0.72071,-0.69403 -0.89587,-0.81198 -0.80823,-0.69525 -0.85357,-0.69779 -0.89801,-0.6968 -0.94172,-0.69571 -1.13641,-0.80292 -0.893,-0.60446 -1.15052,-0.74933 -1.08233,-0.67056 -1.01618,-0.60208 -1.02984,-0.58759 -1.15644,-0.62222 -1.18774,-0.6026 -1.11041,-0.53034 -1.12506,-0.50775 -1.25849,-0.52679 -1.28644,-0.49948 -1.31201,-0.47138 -1.33343,-0.43896 -1.11859,-0.34311 -1.35499,-0.38202 -1.38287,-0.34961 -1.40613,-0.31455 -1.42593,-0.27823 -1.19284,-0.20516 -1.45056,-0.2092 -1.47538,-0.17133 -0.99645,-0.0888 -1.00449,-0.07 -1.01093,-0.0541 -1.25863,-0.0498 -1.00983,-0.0233 -1.01337,-0.009 -1.01513,0.009 -1.01663,0.0259 -1.01618,0.0409 -1.26199,0.0688 -1.0015,0.0714 -0.99676,0.0878 -1.48484,0.16241 -1.47213,0.20328 -1.45633,0.24548 -1.19672,0.23139 -1.41064,0.31002 -1.38556,0.34803 -1.35678,0.38455 -1.32709,0.422 -1.07877,0.37155 -1.26513,0.47949 -1.22803,0.51321 -1.19132,0.55017 -1.05807,0.53519 -1.0256,0.55881 -1.08497,0.64819 -1.05236,0.68628 -1.01914,0.72428 -0.82239,0.62704 -0.95456,0.77579 -0.91687,0.81177 -0.87933,0.84136 -0.83603,0.8563 -0.73596,0.80975 -0.69922,0.82999 -0.72372,0.93069 -0.67914,0.9542 -0.63339,0.97439 -0.685,1.14649 -0.53638,0.99835 -0.48877,1.01391 -0.43924,1.02881 -0.39447,1.04294 -0.41186,1.21939 -0.31043,1.05655 -0.26974,1.06561 -0.22986,1.01737 -0.18512,1.01687 -0.18637,1.33265 -0.10315,1.06958 -0.063,1.07022 -0.0256,1.06973 0.007,1.23321 0.0419,1.04871 0.0776,1.03964 0.11004,1.02817 0.16428,1.1853 0.16849,1.00138 0.19595,0.99084 0.22012,0.982 0.2865,1.12741 0.36725,1.25479 0.41553,1.22043 0.46792,1.18878 0.45066,1.00744 0.55856,1.11115 0.61118,1.07397 0.65536,1.03757 0.59934,0.8732 0.72641,0.96466 0.76767,0.93002 0.75598,0.84034 0.78671,0.80267 0.88229,0.82028 0.92185,0.78259 0.82904,0.65088 0.97275,0.70374 1.00112,0.66052 0.9632,0.57953 0.9776,0.54214 1.0625,0.53965 1.07788,0.49862 0.94657,0.40287 1.08258,0.42587 1.09445,0.39017 1.11069,0.35165 0.97592,0.27737 1.11844,0.27942 1.04916,0.22824 1.04407,0.19864 1.10244,0.18244 1.09794,0.15155 1.09445,0.12366 1.21704,0.10501 1.04315,0.066 1.07495,0.0468 1.18646,0.0149 1.03882,-0.0172 1.02182,-0.0468 1.13828,-0.0886 1.12051,-0.12188 1.35068,-0.19544 1.20111,-0.21036 1.06015,-0.21609 1.04996,-0.24872 1.14224,-0.30856 1.01691,-0.31159 0.99435,-0.32925 1.19113,-0.43506 0.95801,-0.3826 0.94327,-0.40063 0.92694,-0.4173 1.00839,-0.47717 0.99042,-0.49417 1.20428,-0.63904 0.93384,-0.52423 1.04303,-0.61783 1.02112,-0.64182 0.91656,-0.6055 0.90845,-0.62881 1.07532,-0.77139 0.89361,-0.66565 0.81739,-0.62897 0.99133,-0.78049 0.90894,-0.74563 0.81427,-0.67908 0.8023,-0.69144 0.88178,-0.78125 0.80188,-0.7363 0.79937,-0.76113 0.95655,-0.92939 0.91717,-0.91467 0.71717,-0.73428 0.75616,-0.78742 0.83203,-0.88659 0.90607,-0.9748 0.73999,-0.81909 0.7569,-0.86044 0.80627,-0.94696 0.716,-0.84058 0.72809,-0.86346 0.81043,-0.94687 0.70361,-0.80808 0.77094,-0.86648 0.80358,-0.85639 0.72974,-0.75119 0.75714,-0.74194 0.86609,-0.81277 0.85968,-0.79084 0.93323,-0.83838 0.96808,-0.82937 0.80865,-0.68225 0.70337,-0.59861"
       style="fill:#ffffff;fill-opacity:0;fill-rule:nonzero;stroke:#000000;stroke-width:2;stroke-linecap:round;stroke-linejoin:round;stroke-miterlimit:10;stroke-dasharray:none;stroke-opacity:1"
       transform="matrix(0.32012816,0,0,0.32012804,81.383585,-48.041173)" />
    <path
       id="path2"
       d="m 546.11902,400.03973 -0.40802,0.86264 0.49841,0.1998 0.55054,-0.75 0.33417,-0.4964 -0.69141,0.51288 0.3222,-0.3009 0.52472,0.33972 -0.73175,-0.33926 -0.20117,-0.16208 -0.22467,0.26916"
       style="fill:#ffffff;fill-opacity:0;fill-rule:nonzero;stroke:#000000;stroke-width:2;stroke-linecap:round;stroke-linejoin:round;stroke-miterlimit:10;stroke-dasharray:none;stroke-opacity:1"
       transform="matrix(0.32012804,0,0,0.32012803,81.383647,-48.041173)" />
    <path
       id="path3"
       d="m 546.71558,401.42218 0.27874,-1.00629 0.32849,-1.09008 0.29102,-0.97852 0.3169,-1.00891 0.37622,-1.08814 0.4439,-1.08914 0.43738,-0.95788 0.50482,-1.00544 0.50367,-0.9234 0.56353,-0.95349 0.66065,-1.02124 0.6253,-0.87872 0.68439,-0.86673 0.80029,-0.905 0.73218,-0.7391 0.87396,-0.79978 0.95429,-0.79153 0.95172,-0.71393 0.85754,-0.59458 0.87171,-0.56802 0.92535,-0.56213 1.15106,-0.65125 0.96265,-0.50113 1.2088,-0.59042 1.13733,-0.51926 1.02667,-0.44424 1.05396,-0.43024 1.13434,-0.43497 1.15472,-0.41577 0.98328,-0.33362 1.10949,-0.3522 1.10816,-0.32922 0.99737,-0.27927 1.2865,-0.32995 1.13422,-0.26062 1.22345,-0.24479 1.30402,-0.20181 1.03942,-0.13003 1.17127,-0.10379 1.00427,-0.0535 1.289,-0.036 1.02967,-0.004 1.2835,0.0285 1.01044,0.054 1.23462,0.10602 1.13483,0.15207 1.19757,0.22076 1.02276,0.22742 1.04987,0.2732 1.13068,0.32272 1.07965,0.33414 1.06939,0.36358 1.09326,0.40994 1.13001,0.46787 1.08459,0.49805 0.97748,0.48153 0.9505,0.49878 1.04261,0.5976 0.98919,0.63727 0.82263,0.58932 1.00867,0.772 0.79468,0.63486 0.94763,0.79227 0.90576,0.8161 0.78913,0.79004 0.80029,0.9086 0.72156,0.9046 0.64264,0.8667 0.63208,0.90497 0.62359,0.98257 0.51709,0.90442 0.52338,0.99265 0.52081,1.0386 0.43689,0.93677 0.42676,1.02661 0.37768,1.12222 0.27503,1.08017 0.21844,1.08866 0.18634,1.13556 0.1684,1.07583 0.16315,1.08481 0.18451,2.23874"
       style="fill:#ffffff;fill-opacity:0;fill-rule:nonzero;stroke:#000000;stroke-width:2;stroke-linecap:round;stroke-linejoin:round;stroke-miterlimit:10;stroke-dasharray:none;stroke-opacity:1"
       transform="matrix(0.32012804,0,0,0.32012804,81.383647,-48.041173)" />
    <path
       id="path4"
       d="m 547.28467,400.69028 -0.19592,1.08569 0.11877,1.16446 0.20154,1.19022 0.21405,1.0588 0.27844,1.24463 0.30927,1.18915 0.29583,0.97604 0.43457,1.20832 0.4809,1.16262 0.5658,1.21216 0.54412,1.04917 0.54132,0.97189 0.58643,0.98071 0.55341,0.888 0.6502,0.96775 0.69117,0.94424 0.66308,0.83908 0.75183,0.88983 0.70081,0.77661 0.87909,0.89896 0.83575,0.79913 0.78174,0.69797 0.81683,0.67789 0.92975,0.71097 0.87586,0.62249 0.99945,0.64789 0.93042,0.54859 1.04736,0.55923 1.15521,0.55548 1.16999,0.4993 0.98175,0.37454 1.07843,0.36441 1.09131,0.3161 1.20178,0.28794 1.00946,0.19497 1.01092,0.15842 1.14716,0.14551 1.25726,0.11194 1.28498,0.0576 1.23468,-0.005 1.03839,-0.0581 1.17157,-0.1088 1.21112,-0.16494 1.00384,-0.17374 1.14252,-0.23334 0.99365,-0.23565 1.12085,-0.29419 1.16803,-0.34708 1.24078,-0.40851 1.16352,-0.42962 1.12097,-0.45667 1.04199,-0.46808 0.94592,-0.44955 1.14588,-0.5777 1.07849,-0.5679 1.08716,-0.60584 0.97595,-0.57547 0.90894,-0.57156 0.90826,-0.60416 0.89325,-0.62097 1.06824,-0.77688 0.81823,-0.62375 0.95636,-0.77115 0.90961,-0.77307 0.91608,-0.8266 0.90204,-0.84326 0.84484,-0.80216 0.81598,-0.78988 0.77729,-0.75266 0.77337,-0.76978 0.86725,-0.89282 0.82855,-0.91287 0.78797,-0.90887 0.7677,-0.89734 0.77215,-0.87867 0.72901,-0.82083 0.66894,-0.79547 0.69788,-0.89422"
       style="fill:#ffffff;fill-opacity:0;fill-rule:nonzero;stroke:#000000;stroke-width:2;stroke-linecap:round;stroke-linejoin:round;stroke-miterlimit:10;stroke-dasharray:none;stroke-opacity:1"
       transform="matrix(0.32012804,0,0,0.32012803,81.383647,-48.041173)" />
    <path
       id="path5"
       d="m 614.45667,406.6817 0.51794,-0.77289 0.0242,-0.92413 0.66296,-0.9707 0.75879,-1.00952 0.69898,-0.9076 0.79156,-1.0086 0.63025,-0.77988 0.7641,-0.8978 0.71747,-0.78396 0.70032,-0.72458 0.83862,-0.81821 0.90112,-0.82968 0.84534,-0.74347 0.77777,-0.65658 0.80884,-0.65079 0.84473,-0.64331 0.98291,-0.71207 0.9121,-0.61914 0.94526,-0.60321 1.08844,-0.66232 0.99334,-0.5644 0.96857,-0.51492 1.00854,-0.50494 0.97559,-0.45847 1.04883,-0.46225 1.05316,-0.43081 1.17804,-0.44739 1.04248,-0.36203 1.04456,-0.33222 1.17492,-0.34011 1.05207,-0.275 1.05944,-0.24927 1.06513,-0.22515 1.18921,-0.22483 1.05115,-0.17288 1.04467,-0.14548 1.1576,-0.13434 1.01281,-0.0886 1.25281,-0.068 1.10907,-0.0177 1.20587,0.029 1.07025,0.0799 0.99341,0.11938 1.19641,0.19534 1.12714,0.26328 1.09058,0.31634 1.0581,0.3674 1.03473,0.42591 0.90802,0.4234 0.98981,0.52283 0.96435,0.5729 0.84864,0.55054 0.91955,0.65634 0.89765,0.69006 0.9494,0.79279 0.82904,0.75296 0.87268,0.87128 0.74866,0.83493 0.68048,0.85171 0.61535,0.87036 0.61463,0.97867 0.56988,1.02503 0.47785,0.95056 0.4906,1.09073 0.44903,1.13156 0.37061,1.04071 0.37042,1.19357 0.26495,0.97782 0.266,1.11474 0.20373,1.00611 0.17102,1.02529 0.13806,1.04621 0.12079,1.18786 0.0745,1.07184 0.0465,1.08505 0.0208,1.22687 -0.0123,1.09461 -0.0432,1.10061 -0.0726,1.1034 -0.11682,1.23718 -0.13824,1.09897 -0.17279,1.08801 -0.20295,1.06638 -0.23913,1.04672 -0.29797,1.13757 -0.30512,1.012 -0.39172,1.11294 -0.44556,1.0827 -0.51843,1.06253 -0.50659,0.89328 -0.60437,0.88038 -0.75922,0.90887 -0.78949,0.77676 -0.89203,0.73551 -0.8656,0.62802 -1.03052,0.6506 -1.1911,0.65763 -1.11194,0.54425 -1.1391,0.48196 -1.04864,0.37521 -1.1897,0.34415 -0.98932,0.21778 -1.14685,0.18707 -1.04181,0.11365 -1.07104,0.0636 -1.09906,0.0136 -1.25177,-0.0351 -1.11829,-0.0728 -1.11432,-0.10047 -1.03991,-0.11917 -1.03821,-0.14596 -1.09613,-0.18787 -1.01062,-0.20758 -0.99353,-0.23194 -1.10803,-0.29705 -1.09369,-0.3375 -0.97608,-0.33853 -1.03357,-0.38425 -1.1004,-0.45089 -0.96667,-0.43173 -1.05842,-0.49939 -0.91546,-0.45639 -0.88617,-0.4675 -1.1709,-0.64353 -1.11908,-0.65802 -0.97229,-0.60538 -0.93597,-0.61483 -0.90265,-0.63065 -0.9878,-0.73837 -0.80609,-0.64023 -0.80432,-0.67468 -0.95862,-0.8526 -0.94043,-0.87891 -0.71936,-0.70267 -0.77765,-0.78161 -0.73107,-0.75766 -0.82593,-0.89386 -0.69483,-0.77954 -0.68444,-0.7862 -0.73542,-0.8797 -0.6513,-0.81393 -0.62561,-0.80988 -0.63404,-0.85839 -0.70361,-0.98014 -0.7301,-1.04507 -0.61804,-0.9043 -0.64582,-0.97519 -0.61749,-0.95422 -0.57593,-0.98108 -0.51843,-1.04425 -0.46594,-0.98139 -0.90503,-1.39263"
       style="fill:#ffffff;fill-opacity:0;fill-rule:nonzero;stroke:#000000;stroke-width:2;stroke-linecap:round;stroke-linejoin:round;stroke-miterlimit:10;stroke-dasharray:none;stroke-opacity:1"
       transform="matrix(0.32012804,0,0,0.32012804,81.383647,-48.041173)" />
    <path
       id="path6"
       d="m 457.11508,397.1929 0.87097,0.44589 0.73337,1.04267 0.47638,0.89004 0.46387,0.99851 0.37686,0.95755 0.33914,0.97912 0.29013,0.96424 0.25568,1.1007 0.18548,1.01154 0.25547,0.78574 0.56656,-1.04682 0.71838,-1.05194 0.62067,-0.82977 0.82098,-0.88175 0.74274,-0.76458 0.71591,-0.90079 0.89227,-0.83524"
       style="fill:#ffffff;fill-opacity:0;fill-rule:nonzero;stroke:#000000;stroke-width:1.54773;stroke-linecap:round;stroke-linejoin:round;stroke-miterlimit:10;stroke-dasharray:none;stroke-opacity:1"
       transform="matrix(0.32012983,0,0,0.32012804,81.382812,-48.041253)" />
    <path
       id="path7"
       d="m 575.54706,372.90219 0.58478,0.29889 0.97906,0.50876 1.03375,0.61801 0.87036,0.56021 0.94794,0.6091 0.61548,0.89826 -0.68152,0.89502 -0.72052,0.7727 -0.88598,0.89902 -0.70209,0.79199 -0.68073,0.78674 -0.46594,0.62986"
       style="fill:#ffffff;fill-opacity:0;fill-rule:nonzero;stroke:#000000;stroke-width:1.57129;stroke-linecap:round;stroke-linejoin:round;stroke-miterlimit:10;stroke-dasharray:none;stroke-opacity:1"
       transform="matrix(0.32012804,0,0,0.32012803,81.383627,-48.041173)" />
    <path
       id="path8"
       d="m 570.31531,429.18304 1.14087,0.2129 0.95489,0.64041 0.94513,0.88067 0.76428,0.85553 0.66577,0.92279 0.62525,1.04224"
       style="fill:#ffffff;fill-opacity:0;fill-rule:nonzero;stroke:#000000;stroke-width:1.54773;stroke-linecap:round;stroke-linejoin:round;stroke-miterlimit:10;stroke-dasharray:none;stroke-opacity:1"
       transform="matrix(0.32012804,0,0,0.32012804,81.383627,-48.041173)" />
    <path
       id="path9"
       d="m 576.76685,424.35739 -0.71833,0.84635 -0.77374,0.86602 -0.78906,0.83475 -1.02063,0.77585 -0.90711,0.47052 -0.96521,0.53323 -0.15741,0.12555"
       style="fill:#ffffff;fill-opacity:0;fill-rule:nonzero;stroke:#000000;stroke-width:1.52123;stroke-linecap:round;stroke-linejoin:round;stroke-miterlimit:10;stroke-dasharray:none;stroke-opacity:1"
       transform="matrix(0.32012804,0,0,0.32012804,81.383647,-48.041173)" />
    <path
       id="path10"
       d="m 672.21167,388.73434 0.16534,1.07233 0.14466,1.05905 0.12512,1.21567 0.0692,1.2583 0.0894,1.2001 0.0694,1.23984 0.0536,1.017 0.0143,1.02329 -0.0367,1.13647 -0.82752,0.11386 -1.14422,-0.4144 -1.02222,-0.38607 -1.16663,-0.39325 -1.1336,-0.42453 -0.99359,-0.4065 -1.04877,-0.40042 -0.4057,-0.103"
       style="fill:#ffffff;fill-opacity:0;fill-rule:nonzero;stroke:#000000;stroke-width:1.53227;stroke-linecap:round;stroke-linejoin:round;stroke-miterlimit:10;stroke-dasharray:none;stroke-opacity:1"
       transform="matrix(0.32012804,0,0,0.32012804,81.383647,-48.041173)" />
    <path
       id="path11"
       d="m 536.46973,245.46286 -0.44739,-1.09128 -0.56091,-1.06642 -0.67157,-1.10374 -0.63654,-0.94584 -0.67651,-0.91896 -0.77527,-0.95036 -0.77191,-0.86333 -0.74512,-0.76777 -0.8028,-0.76728 -0.95691,-0.84874 -0.91003,-0.7367 -0.96539,-0.71485 -0.98584,-0.68596 -0.91278,-0.59948 -1.07318,-0.66144 -1.11145,-0.6471 -1.07721,-0.58894 -0.9953,-0.51799 -1.00361,-0.48381 -0.93634,-0.41979 -1.11413,-0.46521 -0.96973,-0.37538 -0.9953,-0.34874 -1.0213,-0.3143 -1.04608,-0.27687 -1.2348,-0.27469 -1.08033,-0.19006 -1.09726,-0.15126 -1.11367,-0.11391 -1.13266,-0.0718 -1.32556,-0.038 -1.14719,0.0178 -1.15787,0.0697 -1.16656,0.12712 -1.36542,0.21661 -1.17444,0.25137 -1.17721,0.31658 -1.18058,0.38083 -1.18115,0.44363 -0.9761,0.4041 -1.17081,0.53741 -1.11923,0.56595 -1.20523,0.65337 -1.17069,0.69206 -0.96582,0.59889 -1.14923,0.75217 -1.13736,0.78737 -1.12308,0.82594 -1.10623,0.86348 -0.90375,0.73482 -1.06375,0.91611 -1.04056,0.95498 -1.01904,0.99099 -0.90985,0.93589 -0.77936,0.8326 -0.71936,0.80762 -0.89972,1.07963 -0.84271,1.07433 -0.71008,0.93939 -0.77756,1.09727 -0.74185,1.12673 -0.69657,1.13682 -0.65185,1.14272 -0.51187,0.95343 -0.54993,1.08716 -0.51099,1.07289 -0.53167,1.2648 -0.43424,1.16232 -0.36056,1.06893 -0.30908,0.99615 -0.34189,1.21228 -0.27353,1.15729 -0.2294,1.12833 -0.22977,1.34845 -0.14041,1.14251 -0.0961,1.13837 -0.0539,1.12689 -0.0138,1.0195 0.0312,1.35916 0.0752,1.06522 0.0993,1.00021 0.1521,1.06549 0.20853,1.17096 0.28079,1.29782 0.32636,1.23713 0.362,1.20208 0.38092,1.04908 0.47952,1.12359 0.53268,1.07859 0.63666,1.15267 0.62201,0.97498 0.66461,0.93121 0.70749,0.88602 0.78317,0.90015 0.81174,0.83914 0.83771,0.75439 0.97735,0.79212 0.89103,0.65207 0.91214,0.60144 0.86743,0.51608 1.10806,0.58746 0.94772,0.43598 0.96234,0.38589 1.08951,0.3725 0.97245,0.28155 0.97271,0.23655 1.05771,0.21133 0.98978,0.16293 1.14972,0.12799 1.11795,0.0704 1.11346,0.006 1.03043,-0.048 1.30835,-0.14511 1.16049,-0.19354 1.04669,-0.24237 1.0686,-0.30021 1.07743,-0.34991 1.13012,-0.41119 1.11619,-0.47065 1.04403,-0.48947 1.02902,-0.52743 1.0582,-0.58826 0.93057,-0.55225 1.07492,-0.69403 0.96204,-0.66693 0.90241,-0.66491 0.97186,-0.76087 0.94922,-0.77539 0.93448,-0.79691 0.91034,-0.81317 0.80743,-0.74688 0.80548,-0.7742 0.84839,-0.84131 0.82562,-0.83991 0.72431,-0.75995 0.70367,-0.75183 0.76477,-0.83847 0.67639,-0.76376 0.66315,-0.75797 0.72949,-0.84906 0.70972,-0.8475 0.84082,-1.02231 0.75629,-0.94357 0.67089,-0.86408 0.71497,-0.93921 0.75976,-1.02462 0.66907,-0.94608 0.70514,-1.03226 0.73956,-1.12622 0.54999,-0.86764 0.64704,-1.02439 0.68188,-1.12451 0.52918,-0.8808 0.63745,-1.06848 0.57238,-0.98663 0.57898,-1.03751 0.55433,-0.9967 0.48907,-0.89923 0.54053,-0.98351 0.49627,-0.88754 0.53327,-0.93111 0.59631,-1.06117 0.49738,-0.89451 0.52057,-0.92885 0.58239,-1.02744 0.57709,-0.99453 0.61237,-1.00142"
       style="fill:#ffffff;fill-opacity:0;fill-rule:nonzero;stroke:#000000;stroke-width:2;stroke-linecap:round;stroke-linejoin:round;stroke-miterlimit:10;stroke-dasharray:none;stroke-opacity:1"
       transform="matrix(0.32012804,0,0,0.32012804,0,-2.4e-4)" />
    <path
       id="path12"
       d="m 537.51788,247.31149 0.58509,-0.87793 0.56793,-0.88588 0.70526,-0.9283 0.7077,-0.80732 0.81336,-0.87163 0.84088,-0.82143 0.95764,-0.86641 1.00641,-0.84368 0.80627,-0.63295 0.87409,-0.65644 0.8407,-0.60827 1.00622,-0.70029 0.86829,-0.58331 1.03155,-0.66398 0.9635,-0.60125 1.00238,-0.60982 0.97004,-0.57185 0.98388,-0.56614 1.07935,-0.59709 1.10675,-0.58087 0.98273,-0.49278 1.13739,-0.54427 1.15911,-0.51927 1.1045,-0.46249 1.11383,-0.43706 1.2102,-0.43811 1.23072,-0.41101 1.16522,-0.36244 1.16595,-0.33918 1.25208,-0.33688 1.2605,-0.3076 1.10162,-0.24599 1.27167,-0.25024 1.27929,-0.22096 1.11597,-0.16665 1.26465,-0.1575 1.25342,-0.11714 1.24511,-0.0773 1.07099,-0.0329 1.05627,-1.3e-4 1.04401,0.0396 1.16491,0.085 1.05048,0.11754 1.05097,0.15402 1.08557,0.22783 1.04345,0.26501 1.10859,0.34302 1.05444,0.3773 0.99542,0.41665 1.09271,0.51367 0.94861,0.50314 0.92883,0.55315 0.9068,0.60435 0.99164,0.73107 0.84894,0.7091 0.81799,0.75849 0.84363,0.85374 0.77814,0.86128 0.78015,0.94754 0.69824,0.92176 0.64484,0.94168 0.61865,0.98336 0.55176,0.96052 0.52161,0.99049 0.5216,1.10397 0.48718,1.14289 0.44819,1.17149 0.36358,1.02866 0.38001,1.18281 0.32434,1.14905 0.33813,1.35844 0.24213,1.21013 0.19989,1.21999 0.14581,1.1185 0.12006,1.14514 0.0806,1.21298 0.0367,1.22434 0.002,1.07223 -0.0316,1.22037 -0.071,1.22262 -0.1037,1.14411 -0.12885,1.12704 -0.17376,1.19458 -0.211,1.18439 -0.22895,1.10141 -0.25433,1.08548 -0.30963,1.14813 -0.34174,1.14081 -0.31872,0.991 -0.39136,1.10949 -0.42657,1.08823 -0.39978,0.92926 -0.44092,0.96555 -0.51831,1.05658 -0.54059,1.01687 -0.52075,0.89493 -0.59626,0.94498 -0.5838,0.83307 -0.61645,0.79696 -0.71704,0.8371 -0.83441,0.85471 -0.87519,0.77972 -0.80761,0.63647 -0.87909,0.60959 -0.97907,0.58509 -1.05273,0.54644 -0.99451,0.42069 -1.13245,0.38858 -1.05121,0.27737 -1.07556,0.1995 -1.20306,0.12548 -1.10474,0.0288 -1.11609,-0.0411 -0.99658,-0.0935 -0.98938,-0.14749 -1.09625,-0.23544 -1.17102,-0.3274 -1.13422,-0.39178 -1.11841,-0.47229 -1.00213,-0.49555 -0.99182,-0.5708 -0.87891,-0.56958 -1.05041,-0.74707 -0.84259,-0.64551 -0.82886,-0.66583 -0.81433,-0.68802 -0.80933,-0.70462 -0.79474,-0.7182 -0.8742,-0.82416 -0.86548,-0.86462 -0.76837,-0.80493 -0.83692,-0.91892 -0.74646,-0.8395 -0.80456,-0.92499 -0.69715,-0.82233 -0.82226,-0.99524 -0.64704,-0.79342 -0.77173,-0.95331 -0.74597,-0.9419 -0.66357,-0.85675 -0.72009,-0.93097 -0.64417,-0.83319 -0.70691,-0.92611 -0.64331,-0.84342 -0.64154,-0.83682 -0.789,-1.02191 -0.81659,-1.0419 -0.64172,-0.79441 -0.78614,-0.94745 -0.78021,-0.89846 -0.69781,-0.7818 -0.71827,-0.78992 -0.77868,-0.84778 -0.74677,-0.80934 -0.82171,-0.88946 -0.76465,-0.80968 -0.85205,-0.86739 -0.84412,-0.82503 -0.73077,-0.70059 -0.88941,-0.82585 -0.89081,-0.76834 -0.86492,-0.71822 -0.88898,-0.71939 -0.88172,-0.62358 -0.94628,-0.53523 -0.37012,-0.20345"
       style="fill:#ffffff;fill-opacity:0;fill-rule:nonzero;stroke:#000000;stroke-width:2;stroke-linecap:round;stroke-linejoin:round;stroke-miterlimit:10;stroke-dasharray:none;stroke-opacity:1"
       transform="matrix(0.32012804,0,0,0.32012804,0,-2.4e-4)" />
    <path
       id="path13"
       d="m 538.56635,245.65594 -0.74848,-0.0941 0.0836,0.79314 0.17529,-0.61405 0.3501,0.3732 -0.66138,-0.53834 0.0811,0.54478 -0.66358,-0.24031 0.33405,-0.20717 0.0919,0.65498 0.31372,-0.6846 0.11657,0.66111 0.0411,-0.73882 -0.29578,0.84978 0.90766,-0.12425 -0.66095,-0.3436 0.38403,0.4261 -0.84595,-0.24382 0.26459,0.67065 -0.1637,-0.74858 -0.0668,0.74912 0.26862,-0.70485 -0.32526,0.6723 0.58667,-0.46074 -0.73352,0.16915 0.67963,0.12286 -0.34156,-0.79776 0.0856,0.83325 0.17419,-0.81851 -0.32806,0.64249 0.80236,-0.41443 -1.00921,0.0249"
       style="fill:#ffffff;fill-opacity:0;fill-rule:nonzero;stroke:#000000;stroke-width:2;stroke-linecap:round;stroke-linejoin:round;stroke-miterlimit:10;stroke-dasharray:none;stroke-opacity:1"
       transform="matrix(0.32012804,0,0,0.32012804,0,-2.4e-4)" />
    <path
       id="path14"
       d="m 538.16724,244.85406 -0.98664,0.0477 -0.31573,0.94156 0.75818,0.66849 0.7782,-0.46966 -0.52594,0.0187 0.47119,0.775 0.29077,-0.86551 -0.91443,-0.23076 -0.31549,0.86046 0.87915,-0.28272 -0.40772,-0.79329 0.0494,0.95398 0.77887,-0.24196 -0.6308,-0.0994 0.003,0.20236"
       style="fill:#ffffff;fill-opacity:0;fill-rule:nonzero;stroke:#000000;stroke-width:2;stroke-linecap:round;stroke-linejoin:round;stroke-miterlimit:10;stroke-dasharray:none;stroke-opacity:1"
       transform="matrix(0.32012804,0,0,0.32012804,0,-2.4e-4)" />
    <path
       id="path15"
       d="m 538.52411,244.96777 -0.92365,-0.22604 -0.84124,0.62689 -0.18555,1.02146 0.48224,0.9183 0.9118,0.5817 1.04029,-0.12828 0.8031,-0.7073 0.28814,-1.02623 -0.41143,-0.92227 -0.81623,-0.61012 -1.01733,-0.0467 -0.61774,0.77397 0.32575,1.00723 0.82867,0.57067 0.52808,-0.70804 -0.75025,-0.65914 -0.99231,0.0853 -0.68561,0.7552 0.26972,0.99942 0.86957,0.61543 0.92871,-0.27629 0.28802,-0.97081 -0.60119,-0.81645 -0.99738,-0.093 -0.52228,0.8147 2.10645,0.99998"
       style="fill:#ffffff;fill-opacity:0;fill-rule:nonzero;stroke:#000000;stroke-width:2;stroke-linecap:round;stroke-linejoin:round;stroke-miterlimit:10;stroke-dasharray:none;stroke-opacity:1"
       transform="matrix(0.32012804,0,0,0.32012804,0,-2.4e-4)" />
    <path
       id="path16"
       d="m 801.94055,249.62659 -0.96722,-0.42954 -0.86646,0.51522 0.0867,1.0157 0.95832,0.0749 -0.40094,-0.82972 -0.70404,0.72998 0.59533,0.69156 0.32349,-0.82776 -0.3454,0.52433 0.91522,0.54701 0.74054,-0.64856 -0.54999,-0.71317 -0.4541,0.78232 0.68848,-0.23019 -0.4751,-0.83066 -0.35589,0.83928 0.76232,0.0972 -0.58648,-0.69154 -0.69324,0.7308 0.71454,0.62074 0.61206,-0.73269 -0.75568,-0.61412 -0.27972,0.93013 0.88263,0.20791 -0.25427,-0.80038 -0.47675,0.75131 0.82941,0.13089 -0.24262,-0.92632 -0.64923,0.66903 0.75421,0.37936 0.19678,-0.93376 -0.89905,-0.36441 -0.22607,0.89009 0.99005,0.1315 0.15332,-0.96263 -0.87885,0.014 -0.0632,1.07976 0.87494,0.0485 -0.12536,-0.96311 -1.01581,-0.22392 -0.28559,0.86551 0.67206,-0.46404 -0.5343,-0.51828 0.38056,1.79456"
       style="fill:#ffffff;fill-opacity:0;fill-rule:nonzero;stroke:#000000;stroke-width:2;stroke-linecap:round;stroke-linejoin:round;stroke-miterlimit:10;stroke-dasharray:none;stroke-opacity:1"
       transform="matrix(0.32012804,0,0,0.32012804,0,-2.4e-4)" />
    <path
       id="path17"
       d="m 869.48608,254.40607 -1.01794,-0.1095 -0.62927,0.82513 0.48938,0.90796 0.96905,-0.0457 0.0477,-0.92203 -0.55505,0.72627 0.76434,0.39058 0.0859,-1.00581 -0.87476,-0.21932 -0.0497,0.98444 0.9779,0.11713 0.33936,-0.89939 -0.84009,0.0909 0.10596,0.98482 0.93353,-0.10083 -0.11682,-0.91538 -0.71198,0.69084 0.6684,0.49373 -0.13879,-0.9588 -0.91016,-0.30376 0.0764,0.94576 0.96899,-0.20906 -0.0359,-1.00414 -0.86706,0.31075 0.23156,0.93239 0.65399,-0.5354 -0.75402,-0.44651 -0.19056,0.96155 0.90125,0.0636 0.0175,-1.02586 -0.9032,-0.0914 0.0914,0.96744 0.92553,-0.009 0.0795,-0.99779 -0.91296,-0.0368 -0.3504,0.97622 0.72619,0.59951 0.62183,-0.77131 -0.39105,-0.97365 -0.9737,-0.28958 -0.69726,0.75949 0.42676,0.8313 1.06359,-0.26312 0.3805,-0.90275 -0.62537,-0.71443 -0.5285,0.84349 0.42755,0.91361 1.01355,0.0952 0.56091,-0.88174 -0.48266,-0.9276 -1.0243,0.0228 -0.65338,0.77945 0.25189,1.01285 0.9231,0.18057 0.16809,-0.94177 -0.74249,-0.74747 -0.8136,0.38301 0.11902,0.59447"
       style="fill:#ffffff;fill-opacity:0;fill-rule:nonzero;stroke:#000000;stroke-width:2;stroke-linecap:round;stroke-linejoin:round;stroke-miterlimit:10;stroke-dasharray:none;stroke-opacity:1"
       transform="matrix(0.32012804,0,0,0.32012804,0,-2.4e-4)" />
    <path
       id="path18"
       d="m 800.46704,250.25745 -0.94092,-0.27631 -0.51696,0.92 0.32836,0.96223 1.01429,-0.15979 0.65265,-0.85498 -0.53345,-0.5146 -0.39563,0.92795 0.73169,0.59387 0.31341,-0.92838 -0.68243,-0.62724 -0.27106,0.89015 0.35987,-0.41569 -0.78595,-0.233 -0.0586,0.99881 -0.24225,-0.97635 0.6532,-0.87041 0.98572,-0.47055 1.04199,9.9e-4 0.77045,0.66469 -0.0325,1.04237 -0.42865,0.96279 -0.97968,0.1804 -0.86102,-0.59158 -0.34851,-0.97038 0.4566,-0.91028 0.95722,-0.10422"
       style="fill:#ffffff;fill-opacity:0;fill-rule:nonzero;stroke:#000000;stroke-width:2;stroke-linecap:round;stroke-linejoin:round;stroke-miterlimit:10;stroke-dasharray:none;stroke-opacity:1"
       transform="matrix(0.32012804,0,0,0.32012804,0,-2.4e-4)" />
    <path
       id="path19"
       d="m 869.95337,256.25659 -0.87622,-0.62465 -0.28424,-0.9704 0.86505,-0.33146 -0.50818,0.82762 -0.61499,-0.15584 -0.60693,0.94299"
       style="fill:#ffffff;fill-opacity:0;fill-rule:nonzero;stroke:#000000;stroke-width:2;stroke-linecap:round;stroke-linejoin:round;stroke-miterlimit:10;stroke-dasharray:none;stroke-opacity:1"
       transform="matrix(0.32012804,0,0,0.32012804,0,-2.4e-4)" />
    <path
       id="path20"
       d="m 469.1019,254.89326 0.38919,0.91413 0.27746,1.19578 0.24213,1.0839 0.1864,1.11993 0.1113,0.99756 0.12494,0.99866 1.09393,-0.13007 0.96237,-0.54327 1.06235,-0.61216 1.11319,-0.64999 1.09415,-0.57974 0.92944,-0.46399 0.51776,-0.23825"
       style="fill:#ffffff;fill-opacity:0;fill-rule:nonzero;stroke:#000000;stroke-width:1.51534;stroke-linecap:round;stroke-linejoin:round;stroke-miterlimit:10;stroke-dasharray:none;stroke-opacity:1"
       transform="matrix(0.32012804,0,0,0.32012804,0,-2.4e-4)" />
    <path
       id="path21"
       d="m 599.47528,253.67107 0.77722,0.76585 0.61688,0.80701 0.58124,0.95038 0.61292,0.91268 0.56891,1.08753 0.32245,1.08282 0.63403,0.31891 0.67761,-0.89721 0.48755,-0.87574 0.7644,-1.19577 0.5647,-1.08833 0.61414,-1.09277 0.48455,-0.9592 0.67218,-0.78873"
       style="fill:#ffffff;fill-opacity:0;fill-rule:nonzero;stroke:#000000;stroke-width:1.51607;stroke-linecap:round;stroke-linejoin:round;stroke-miterlimit:10;stroke-dasharray:none;stroke-opacity:1"
       transform="matrix(0.32012804,0,0,0.32012804,0,-2.4e-4)" />
    <text
       id="text21"
       xml:space="preserve"
       transform="matrix(1.3333333,0,0,1.3305484,147.80267,77.604)"><tspan
         id="tspan21"
         style="font-style:italic;font-variant:normal;font-weight:normal;font-size:5.41024px;font-family:'STIX Two Text';writing-mode:lr-tb;fill:#000000;fill-opacity:1;fill-rule:nonzero;stroke:none"
         x="0"
         y="0">a</tspan></text>
    <text
       id="text22"
       xml:space="preserve"
       transform="matrix(1.3333333,0,0,1.3305702,221.54,80.537333)"><tspan
         id="tspan22"
         style="font-style:italic;font-variant:normal;font-weight:normal;font-size:5.41015px;font-family:'STIX Two Text';writing-mode:lr-tb;fill:#000000;fill-opacity:1;fill-rule:nonzero;stroke:none"
         x="0"
         y="0">a</tspan></text>
    <text
       id="text23"
       xml:space="preserve"
       transform="matrix(1.3333333,0,0,1.3304879,265.58267,69.181333)"><tspan
         id="tspan23"
         style="font-style:italic;font-variant:normal;font-weight:normal;font-size:5.50004px;font-family:'STIX Two Text';writing-mode:lr-tb;fill:#000000;fill-opacity:1;fill-rule:nonzero;stroke:none"
         x="0"
         y="0">b</tspan></text>
    <text
       id="text24"
       xml:space="preserve"
       transform="matrix(1.3333333,0,0,1.3304879,264.95867,97.417333)"><tspan
         id="tspan24"
         style="font-style:italic;font-variant:normal;font-weight:normal;font-size:5.50004px;font-family:'STIX Two Text';writing-mode:lr-tb;fill:#000000;fill-opacity:1;fill-rule:nonzero;stroke:none"
         x="0"
         y="0">b</tspan></text>
    <text
       id="text25"
       xml:space="preserve"
       transform="matrix(1.3333333,0,0,1.3305702,300.536,81.445333)"><tspan
         id="tspan25"
         style="font-style:italic;font-variant:normal;font-weight:normal;font-size:5.41015px;font-family:'STIX Two Text';writing-mode:lr-tb;fill:#000000;fill-opacity:1;fill-rule:nonzero;stroke:none"
         x="0"
         y="0">a</tspan></text>
    <text
       id="text26"
       xml:space="preserve"
       transform="matrix(1.3333333,0,0,1.3304879,195.64267,77.985333)"><tspan
         id="tspan26"
         style="font-style:italic;font-variant:normal;font-weight:normal;font-size:5.50004px;font-family:'STIX Two Text';writing-mode:lr-tb;fill:#000000;fill-opacity:1;fill-rule:nonzero;stroke:none"
         x="0"
         y="0">b</tspan></text>
  </g>
</svg>
