<?xml version="1.0" encoding="UTF-8" standalone="no"?>
<!-- Created with Inkscape (http://www.inkscape.org/) -->

<svg
   version="1.1"
   id="svg1"
   width="442.40533"
   height="116.73467"
   viewBox="0 0 442.40533 116.73467"
   sodipodi:docname="Draft-1.pdf"
   xmlns:inkscape="http://www.inkscape.org/namespaces/inkscape"
   xmlns:sodipodi="http://sodipodi.sourceforge.net/DTD/sodipodi-0.dtd"
   xmlns="http://www.w3.org/2000/svg"
   xmlns:svg="http://www.w3.org/2000/svg">
  <defs
     id="defs1" />
  <sodipodi:namedview
     id="namedview1"
     pagecolor="#ffffff"
     bordercolor="#000000"
     borderopacity="0.25"
     inkscape:showpageshadow="2"
     inkscape:pageopacity="0.0"
     inkscape:pagecheckerboard="0"
     inkscape:deskcolor="#d1d1d1">
    <inkscape:page
       x="0"
       y="0"
       inkscape:label="1"
       id="page1"
       width="442.40533"
       height="116.73467"
       margin="0"
       bleed="0" />
  </sodipodi:namedview>
  <g
     id="g1"
     inkscape:groupmode="layer"
     inkscape:label="1">
    <g
       id="g2"
       aria-label="1⊗C(X,Y)"
       transform="matrix(1.3333333,0,0,1.3333333,27.346667,14.806667)">
      <path
         id="path2"
         d="m 0.55152344,-5.6821484 v 0.3164062 c 0.51562496,-0.011719 1.04296876,-0.1171875 1.48828126,-0.375 v 4.83984376 c 0,0.15234375 0.023437,0.328125 -0.082031,0.4453125 -0.070312,0.09375 -0.1992187,0.10546875 -0.3164062,0.1171875 -0.234375,0.0234375 -0.46875,0.0234375 -0.70312501,0.0234375 v 0.3046875 H 5.1452734 v -0.3046875 c -0.2460937,0 -0.46875,0 -0.7148437,-0.0234375 -0.1054688,-0.0117188 -0.234375,-0.0234375 -0.3164063,-0.1171875 -0.09375,-0.1171875 -0.082031,-0.26953125 -0.082031,-0.41015625 V -6.2329297 c 0,-0.082031 0,-0.1640625 0,-0.2460937 0,-0.046875 0,-0.09375 -0.035156,-0.1289063 -0.046875,-0.058594 -0.1757812,-0.035156 -0.2460937,-0.035156 h -0.914063 c -0.035156,0 -0.082031,-0.011719 -0.1289063,0.011719 -0.035156,0.023437 -0.058594,0.058594 -0.082031,0.09375 -0.046875,0.046875 -0.082031,0.09375 -0.1289063,0.1289063 -0.140625,0.140625 -0.2929687,0.2578125 -0.46875,0.3515625 -0.4453125,0.2578125 -0.9609375,0.375 -1.47656266,0.3749995 z m 3.17578126,-0.65625 v 6.02343746 H 2.9304297 V -6.3383984 Z m 0,0"
         style="fill:#000000;fill-opacity:1;fill-rule:nonzero;stroke:none" />
      <path
         id="path3"
         d="m 15.495859,-2.4946484 c 0,-1.828125 -1.5,-3.3164063 -3.316406,-3.3164063 -1.851562,0 -3.3281249,1.5117188 -3.3281249,3.3164063 0,1.83984371 1.4882809,3.32812496 3.3164059,3.32812496 1.851563,0 3.328125,-1.51171875 3.328125,-3.32812496 z m -5.296875,-2.1328125 c -0.02344,-0.023437 -0.09375,-0.09375 -0.09375,-0.1171875 0,-0.035156 0.808594,-0.8085938 2.0625,-0.8085938 0.351563,0 1.265625,0.046875 2.074219,0.8085938 l -2.0625,2.0859375 z M 9.9060156,-0.40871094 C 9.2966406,-1.0883984 9.0974219,-1.8501172 9.0974219,-2.4946484 c 0,-0.7617188 0.2929687,-1.4882813 0.8085937,-2.0742188 l 2.0859374,2.0742188 z M 14.429453,-4.5688672 c 0.480469,0.5039063 0.808594,1.265625 0.808594,2.0742188 0,0.7734375 -0.28125,1.49999996 -0.796875,2.08593746 L 12.355234,-2.4946484 Z m -0.28125,4.21875001 c 0.02344,0.0234375 0.09375,0.09375 0.09375,0.1171875 0,0.0351563 -0.808594,0.80859375 -2.0625,0.80859375 -0.351562,0 -1.265625,-0.046875 -2.085937,-0.80859375 l 2.074218,-2.08593751 z m 0,0"
         style="fill:#000000;fill-opacity:1;fill-rule:nonzero;stroke:none" />
      <path
         id="path4"
         d="m 25.89332,-6.6665234 c 0,-0.1875 0,-0.2695313 -0.175781,-0.2695313 -0.09375,0 -0.117187,0.011719 -0.1875,0.082031 l -0.65625,0.5859375 c -0.621094,-0.4921875 -1.289062,-0.6679688 -1.96875,-0.6679688 -2.484375,0 -4.007812,1.4765625 -4.007812,3.515625 0,2.0507813 1.523437,3.52734376 4.007812,3.52734376 1.863281,0 2.988281,-1.21874996 2.988281,-2.36718746 0,-0.1992188 -0.07031,-0.2109375 -0.234375,-0.2109375 -0.128906,0 -0.222656,0 -0.234375,0.1757812 -0.07031,1.33593751 -1.277343,1.93359376 -2.273437,1.93359376 -0.785156,0 -1.617188,-0.234375 -2.132813,-0.84374996 -0.46875,-0.5625 -0.597656,-1.3125 -0.597656,-2.2148438 0,-0.5507812 0.03516,-1.6289062 0.667969,-2.2851562 0.644531,-0.65625 1.511719,-0.7734375 2.027344,-0.7734375 1.078125,0 2.027343,0.7617187 2.238281,2.0273437 0.03516,0.1875 0.04687,0.2109375 0.269531,0.2109375 0.257813,0 0.269531,-0.023437 0.269531,-0.28125 z m 0,0"
         style="fill:#000000;fill-opacity:1;fill-rule:nonzero;stroke:none" />
      <path
         id="path5"
         d="m 29.83082,2.3920703 c 0,-0.035156 0,-0.046875 -0.164062,-0.2226562 -1.242188,-1.25390629 -1.570313,-3.12890629 -1.570313,-4.6640625 0,-1.7226563 0.386719,-3.4570313 1.605469,-4.7109375 0.128906,-0.1171875 0.128906,-0.1289063 0.128906,-0.1640625 0,-0.070312 -0.03516,-0.1054688 -0.09375,-0.1054688 -0.105468,0 -0.996093,0.6796875 -1.582031,1.9453125 -0.515625,1.1015625 -0.632812,2.203125 -0.632812,3.0351563 0,0.7851562 0.117187,1.99218746 0.65625,3.11718746 0.597656,1.21875004 1.453125,1.87500004 1.558593,1.87500004 0.05859,0 0.09375,-0.035156 0.09375,-0.1054688 z m 0,0"
         style="fill:#000000;fill-opacity:1;fill-rule:nonzero;stroke:none" />
      <path
         id="path6"
         d="m 35.241953,-4.0883984 -0.832031,-1.9921875 c -0.03516,-0.070312 -0.04687,-0.1171875 -0.04687,-0.1289063 0,-0.058594 0.164062,-0.2460937 0.585937,-0.28125 0.09375,-0.011719 0.199219,-0.023437 0.199219,-0.1875 0,-0.1289062 -0.117187,-0.1289062 -0.152344,-0.1289062 -0.410156,0 -0.832031,0.035156 -1.253906,0.035156 -0.246094,0 -0.867187,-0.035156 -1.113281,-0.035156 -0.05859,0 -0.1875,0 -0.1875,0.1992187 0,0.1171875 0.105469,0.1171875 0.234375,0.1171875 0.597656,0 0.65625,0.09375 0.75,0.3164063 l 1.171875,2.7773437 -2.097656,2.2617188 -0.128907,0.1054687 c -0.492187,0.52734376 -0.960937,0.69140626 -1.464843,0.72656251 -0.128907,0 -0.222657,0 -0.222657,0.19921875 0,0 0,0.10546875 0.128907,0.10546875 0.304687,0 0.632812,-0.03515625 0.9375,-0.03515625 0.363281,0 0.761718,0.03515625 1.113281,0.03515625 0.05859,0 0.175781,0 0.175781,-0.19921875 0,-0.10546875 -0.09375,-0.10546875 -0.117187,-0.10546875 -0.08203,-0.0117188 -0.398438,-0.0351563 -0.398438,-0.31640625 0,-0.15234375 0.152344,-0.31640625 0.269531,-0.44531246 l 1.019532,-1.078125 0.890625,-0.9726563 1.007812,2.37890626 c 0.04687,0.10546875 0.04687,0.1171875 0.04687,0.140625 0,0.0820313 -0.1875,0.24609375 -0.574219,0.29296875 -0.105468,0 -0.199218,0.0117188 -0.199218,0.1875 0,0.1171875 0.117187,0.1171875 0.152343,0.1171875 0.28125,0 0.972657,-0.03515625 1.253907,-0.03515625 0.246093,0 0.855468,0.03515625 1.101562,0.03515625 0.07031,0 0.199219,0 0.199219,-0.1875 0,-0.1171875 -0.105469,-0.1171875 -0.1875,-0.1171875 -0.667969,-0.0117188 -0.679688,-0.046875 -0.855469,-0.4453125 -0.386719,-0.92578121 -1.054687,-2.47265621 -1.289062,-3.07031251 0.679687,-0.703125 1.734375,-1.8867187 2.050781,-2.1679687 0.28125,-0.234375 0.667969,-0.4804688 1.265625,-0.5039063 0.128906,-0.011719 0.210937,-0.011719 0.210937,-0.1992187 0,-0.011719 0,-0.1171875 -0.128906,-0.1171875 -0.292969,0 -0.621094,0.035156 -0.9375,0.035156 -0.363281,0 -0.738281,-0.035156 -1.101562,-0.035156 -0.05859,0 -0.1875,0 -0.1875,0.1992187 0,0.070312 0.04687,0.1054688 0.117187,0.1171875 0.09375,0.011719 0.398438,0.023437 0.398438,0.3046875 0,0.140625 -0.105469,0.2695313 -0.1875,0.3632813 z m 5.683594,4.07812496 c 0,-0.65625 -0.257813,-1.04296876 -0.644531,-1.04296876 -0.328125,0 -0.527344,0.24609376 -0.527344,0.52734376 0,0.26953125 0.199219,0.52734375 0.527344,0.52734375 0.117187,0 0.246093,-0.03515625 0.351562,-0.12890625 0.02344,-0.0234375 0.03516,-0.0351563 0.04687,-0.0351563 0.01172,0 0.02344,0.0117188 0.02344,0.15234375 0,0.73828125 -0.351563,1.33593759 -0.679688,1.66406259 -0.105469,0.1054687 -0.105469,0.1289062 -0.105469,0.1640625 0,0.070312 0.04687,0.1054687 0.09375,0.1054687 0.117188,0 0.914063,-0.7617187 0.914063,-1.93359379 z m 8.334961,-5.66015626 0.140625,-0.140625 c 0.304687,-0.2929687 0.632812,-0.6328125 1.3125,-0.6796875 0.105469,-0.011719 0.199219,-0.011719 0.199219,-0.1875 0,-0.082031 -0.05859,-0.1289062 -0.128907,-0.1289062 -0.257812,0 -0.550781,0.035156 -0.820312,0.035156 -0.328125,0 -0.679688,-0.035156 -0.996094,-0.035156 -0.05859,0 -0.1875,0 -0.1875,0.1992187 0,0.1054688 0.09375,0.1171875 0.152344,0.1171875 0.07031,0 0.351562,0.011719 0.351562,0.2226563 0,0.1757812 -0.222656,0.4335937 -0.269531,0.4804687 l -2.308594,2.6601563 -1.089843,-2.953125 c -0.07031,-0.140625 -0.07031,-0.1640625 -0.07031,-0.1757813 0,-0.234375 0.492188,-0.234375 0.597656,-0.234375 0.128907,0 0.234375,0 0.234375,-0.1992187 0,-0.1171875 -0.117187,-0.1171875 -0.152343,-0.1171875 -0.28125,0 -0.972657,0.035156 -1.253907,0.035156 -0.246093,0 -0.867187,-0.035156 -1.113281,-0.035156 -0.05859,0 -0.1875,0 -0.1875,0.1992187 0,0.1171875 0.09375,0.1171875 0.222656,0.1171875 0.597657,0 0.644532,0.082031 0.726563,0.3398438 l 1.230469,3.2695312 c 0.01172,0.035156 0.03516,0.140625 0.03516,0.1757813 0,0.023437 -0.398438,1.6289062 -0.445313,1.80468746 -0.128906,0.55078125 -0.140625,0.5859375 -0.9375,0.59765625 -0.1875,0 -0.269531,0 -0.269531,0.19921875 0,0.10546875 0.117188,0.10546875 0.140625,0.10546875 0.28125,0 0.972656,-0.03515625 1.253906,-0.03515625 0.28125,0 0.996094,0.03515625 1.277344,0.03515625 0.07031,0 0.1875,0 0.1875,-0.19921875 0,-0.10546875 -0.08203,-0.10546875 -0.28125,-0.10546875 -0.01172,0 -0.199219,0 -0.375,-0.0234375 -0.210937,-0.0234375 -0.269531,-0.0351563 -0.269531,-0.1640625 0,-0.0703125 0.09375,-0.41015625 0.140625,-0.62109371 l 0.351562,-1.40625 c 0.04687,-0.1875 0.05859,-0.2226563 0.140625,-0.3046875 z m 0,0"
         style="fill:#000000;fill-opacity:1;fill-rule:nonzero;stroke:none" />
      <path
         id="path7"
         d="m 54.202891,-2.4946484 c 0,-0.7734375 -0.117188,-1.9804688 -0.65625,-3.1054688 -0.597657,-1.21875 -1.464844,-1.875 -1.558594,-1.875 -0.05859,0 -0.105469,0.046875 -0.105469,0.1054688 0,0.035156 0,0.046875 0.199219,0.234375 0.972656,0.984375 1.535156,2.5664062 1.535156,4.640625 0,1.71093746 -0.363281,3.45703121 -1.59375,4.7226562 -0.140625,0.1171875 -0.140625,0.1289063 -0.140625,0.1640625 0,0.058594 0.04687,0.1054688 0.105469,0.1054688 0.09375,0 0.996094,-0.6796875 1.582031,-1.94531254 0.503906,-1.1015625 0.632813,-2.20312496 0.632813,-3.04687496 z m 0,0"
         style="fill:#000000;fill-opacity:1;fill-rule:nonzero;stroke:none" />
    </g>
    <g
       id="g7"
       aria-label="C(X,Y)⊗1"
       transform="matrix(1.3333333,0,0,1.3333333,340.884,14.806667)">
      <path
         id="path8"
         d="m 7.6280156,-6.6665234 c 0,-0.1875 0,-0.2695313 -0.1757812,-0.2695313 -0.09375,0 -0.1171875,0.011719 -0.1875,0.082031 l -0.65625,0.5859375 C 5.9873906,-6.7602737 5.3194219,-6.936055 4.6397344,-6.936055 c -2.484375,0 -4.00781253,1.4765625 -4.00781253,3.515625 0,2.0507813 1.52343753,3.52734376 4.00781253,3.52734376 1.8632812,0 2.9882812,-1.21874996 2.9882812,-2.36718746 0,-0.1992188 -0.070312,-0.2109375 -0.234375,-0.2109375 -0.1289062,0 -0.2226562,0 -0.234375,0.1757812 -0.070312,1.33593751 -1.2773437,1.93359376 -2.2734375,1.93359376 -0.7851562,0 -1.6171875,-0.234375 -2.1328125,-0.84374996 -0.46875,-0.5625 -0.5976562,-1.3125 -0.5976562,-2.2148438 0,-0.5507812 0.035156,-1.6289062 0.6679687,-2.2851562 0.6445313,-0.65625 1.5117188,-0.7734375 2.0273438,-0.7734375 1.078125,0 2.0273437,0.7617187 2.2382812,2.0273437 0.035156,0.1875 0.046875,0.2109375 0.2695313,0.2109375 0.2578125,0 0.2695312,-0.023437 0.2695312,-0.28125 z m 0,0"
         style="fill:#000000;fill-opacity:1;fill-rule:nonzero;stroke:none" />
      <path
         id="path9"
         d="m 11.565516,2.3920703 c 0,-0.035156 0,-0.046875 -0.164063,-0.2226562 -1.242187,-1.25390629 -1.5703124,-3.12890629 -1.5703124,-4.6640625 0,-1.7226563 0.3867184,-3.4570313 1.6054684,-4.7109375 0.128907,-0.1171875 0.128907,-0.1289063 0.128907,-0.1640625 0,-0.070312 -0.03516,-0.1054688 -0.09375,-0.1054688 -0.105469,0 -0.996094,0.6796875 -1.5820316,1.9453125 -0.515625,1.1015625 -0.6328125,2.203125 -0.6328125,3.0351563 0,0.7851562 0.1171875,1.99218746 0.65625,3.11718746 0.5976561,1.21875004 1.4531251,1.87500004 1.5585941,1.87500004 0.05859,0 0.09375,-0.035156 0.09375,-0.1054688 z m 0,0"
         style="fill:#000000;fill-opacity:1;fill-rule:nonzero;stroke:none" />
      <path
         id="path10"
         d="m 16.976648,-4.0883984 -0.832031,-1.9921875 c -0.03516,-0.070312 -0.04687,-0.1171875 -0.04687,-0.1289063 0,-0.058594 0.164063,-0.2460937 0.585938,-0.28125 0.09375,-0.011719 0.199218,-0.023437 0.199218,-0.1875 0,-0.1289062 -0.117187,-0.1289062 -0.152343,-0.1289062 -0.410157,0 -0.832032,0.035156 -1.253907,0.035156 -0.246093,0 -0.867187,-0.035156 -1.113281,-0.035156 -0.05859,0 -0.1875,0 -0.1875,0.1992187 0,0.1171875 0.105469,0.1171875 0.234375,0.1171875 0.597656,0 0.65625,0.09375 0.75,0.3164063 l 1.171875,2.7773437 -2.097656,2.2617188 -0.128906,0.1054687 c -0.492188,0.52734376 -0.960938,0.69140626 -1.464844,0.72656251 -0.128906,0 -0.222656,0 -0.222656,0.19921875 0,0 0,0.10546875 0.128906,0.10546875 0.304687,0 0.632812,-0.03515625 0.9375,-0.03515625 0.363281,0 0.761719,0.03515625 1.113281,0.03515625 0.05859,0 0.175781,0 0.175781,-0.19921875 0,-0.10546875 -0.09375,-0.10546875 -0.117187,-0.10546875 -0.08203,-0.0117188 -0.398438,-0.0351563 -0.398438,-0.31640625 0,-0.15234375 0.152344,-0.31640625 0.269532,-0.44531246 l 1.019531,-1.078125 0.890625,-0.9726563 1.007812,2.37890626 c 0.04687,0.10546875 0.04687,0.1171875 0.04687,0.140625 0,0.0820313 -0.1875,0.24609375 -0.574218,0.29296875 -0.105469,0 -0.199219,0.0117188 -0.199219,0.1875 0,0.1171875 0.117187,0.1171875 0.152344,0.1171875 0.28125,0 0.972656,-0.03515625 1.253906,-0.03515625 0.246094,0 0.855469,0.03515625 1.101562,0.03515625 0.07031,0 0.199219,0 0.199219,-0.1875 0,-0.1171875 -0.105469,-0.1171875 -0.1875,-0.1171875 -0.667969,-0.0117188 -0.679687,-0.046875 -0.855469,-0.4453125 -0.386718,-0.92578121 -1.054687,-2.47265621 -1.289062,-3.07031251 0.679687,-0.703125 1.734375,-1.8867187 2.050781,-2.1679687 0.28125,-0.234375 0.667969,-0.4804688 1.265625,-0.5039063 0.128906,-0.011719 0.210938,-0.011719 0.210938,-0.1992187 0,-0.011719 0,-0.1171875 -0.128907,-0.1171875 -0.292968,0 -0.621093,0.035156 -0.9375,0.035156 -0.363281,0 -0.738281,-0.035156 -1.101562,-0.035156 -0.05859,0 -0.1875,0 -0.1875,0.1992187 0,0.070312 0.04687,0.1054688 0.117187,0.1171875 0.09375,0.011719 0.398438,0.023437 0.398438,0.3046875 0,0.140625 -0.105469,0.2695313 -0.1875,0.3632813 z m 5.680664,4.07812496 c 0,-0.65625 -0.257812,-1.04296876 -0.644531,-1.04296876 -0.328125,0 -0.527344,0.24609376 -0.527344,0.52734376 0,0.26953125 0.199219,0.52734375 0.527344,0.52734375 0.117188,0 0.246094,-0.03515625 0.351563,-0.12890625 0.02344,-0.0234375 0.03516,-0.0351563 0.04687,-0.0351563 0.01172,0 0.02344,0.0117188 0.02344,0.15234375 0,0.73828125 -0.351562,1.33593759 -0.679687,1.66406259 C 21.6495,1.7592578 21.6495,1.7826953 21.6495,1.8178516 c 0,0.070312 0.04687,0.1054687 0.09375,0.1054687 0.117187,0 0.914062,-0.7617187 0.914062,-1.93359374 z m 8.34668,-5.66015626 0.140625,-0.140625 c 0.304688,-0.2929687 0.632813,-0.6328125 1.3125,-0.6796875 0.105469,-0.011719 0.199219,-0.011719 0.199219,-0.1875 0,-0.082031 -0.05859,-0.1289062 -0.128906,-0.1289062 -0.257813,0 -0.550782,0.035156 -0.820313,0.035156 -0.328125,0 -0.679687,-0.035156 -0.996094,-0.035156 -0.05859,0 -0.1875,0 -0.1875,0.1992187 0,0.1054688 0.09375,0.1171875 0.152344,0.1171875 0.07031,0 0.351563,0.011719 0.351563,0.2226563 0,0.1757812 -0.222657,0.4335937 -0.269532,0.4804687 l -2.308593,2.6601563 -1.089844,-2.953125 c -0.07031,-0.140625 -0.07031,-0.1640625 -0.07031,-0.1757813 0,-0.234375 0.492188,-0.234375 0.597657,-0.234375 0.128906,0 0.234375,0 0.234375,-0.1992187 0,-0.1171875 -0.117188,-0.1171875 -0.152344,-0.1171875 -0.28125,0 -0.972656,0.035156 -1.253906,0.035156 -0.246094,0 -0.867188,-0.035156 -1.113282,-0.035156 -0.05859,0 -0.1875,0 -0.1875,0.1992187 0,0.1171875 0.09375,0.1171875 0.222657,0.1171875 0.597656,0 0.644531,0.082031 0.726562,0.3398438 l 1.230469,3.2695312 c 0.01172,0.035156 0.03516,0.140625 0.03516,0.1757813 0,0.023437 -0.398437,1.6289062 -0.445312,1.80468746 -0.128907,0.55078125 -0.140625,0.5859375 -0.9375,0.59765625 -0.1875,0 -0.269532,0 -0.269532,0.19921875 0,0.10546875 0.117188,0.10546875 0.140625,0.10546875 0.28125,0 0.972657,-0.03515625 1.253907,-0.03515625 0.28125,0 0.996093,0.03515625 1.277343,0.03515625 0.07031,0 0.1875,0 0.1875,-0.19921875 0,-0.10546875 -0.08203,-0.10546875 -0.28125,-0.10546875 -0.01172,0 -0.199218,0 -0.375,-0.0234375 -0.210937,-0.0234375 -0.269531,-0.0351563 -0.269531,-0.1640625 0,-0.0703125 0.09375,-0.41015625 0.140625,-0.62109371 l 0.351563,-1.40625 c 0.04687,-0.1875 0.05859,-0.2226563 0.140625,-0.3046875 z m 0,0"
         style="fill:#000000;fill-opacity:1;fill-rule:nonzero;stroke:none" />
      <path
         id="path11"
         d="m 35.937586,-2.4946484 c 0,-0.7734375 -0.117188,-1.9804688 -0.65625,-3.1054688 -0.597656,-1.21875 -1.464844,-1.875 -1.558594,-1.875 -0.05859,0 -0.105469,0.046875 -0.105469,0.1054688 0,0.035156 0,0.046875 0.199219,0.234375 0.972656,0.984375 1.535156,2.5664062 1.535156,4.640625 0,1.71093746 -0.363281,3.45703121 -1.59375,4.7226562 -0.140625,0.1171875 -0.140625,0.1289063 -0.140625,0.1640625 0,0.058594 0.04687,0.1054688 0.105469,0.1054688 0.09375,0 0.996094,-0.6796875 1.582031,-1.94531254 0.503907,-1.1015625 0.632813,-2.20312496 0.632813,-3.04687496 z m 0,0"
         style="fill:#000000;fill-opacity:1;fill-rule:nonzero;stroke:none" />
      <path
         id="path12"
         d="m 46.337977,-2.4946484 c 0,-1.828125 -1.5,-3.3164063 -3.316407,-3.3164063 -1.851562,0 -3.328125,1.5117188 -3.328125,3.3164063 0,1.83984371 1.488282,3.32812496 3.316407,3.32812496 1.851562,0 3.328125,-1.51171875 3.328125,-3.32812496 z m -5.296875,-2.1328125 c -0.02344,-0.023437 -0.09375,-0.09375 -0.09375,-0.1171875 0,-0.035156 0.808593,-0.8085938 2.0625,-0.8085938 0.351562,0 1.265625,0.046875 2.074218,0.8085938 l -2.0625,2.0859375 z m -0.292969,4.21874996 C 40.138758,-1.0883984 39.939539,-1.8501172 39.939539,-2.4946484 c 0,-0.7617188 0.292969,-1.4882813 0.808594,-2.0742188 l 2.085937,2.0742188 z M 45.27157,-4.5688672 c 0.480469,0.5039063 0.808594,1.265625 0.808594,2.0742188 0,0.7734375 -0.28125,1.49999996 -0.796875,2.08593746 L 43.197352,-2.4946484 Z m -0.28125,4.21875001 c 0.02344,0.0234375 0.09375,0.09375 0.09375,0.1171875 0,0.0351563 -0.808593,0.80859375 -2.0625,0.80859375 -0.351562,0 -1.265625,-0.046875 -2.085937,-0.80859375 l 2.074219,-2.08593751 z m 0,0"
         style="fill:#000000;fill-opacity:1;fill-rule:nonzero;stroke:none" />
      <path
         id="path13"
         d="m 49.657312,-5.6821484 v 0.3164062 c 0.515625,-0.011719 1.042969,-0.1171875 1.488282,-0.375 v 4.83984376 c 0,0.15234375 0.02344,0.328125 -0.08203,0.4453125 -0.07031,0.09375 -0.199218,0.10546875 -0.316406,0.1171875 -0.234375,0.0234375 -0.46875,0.0234375 -0.703125,0.0234375 v 0.3046875 h 4.207031 v -0.3046875 c -0.246093,0 -0.46875,0 -0.714843,-0.0234375 -0.105469,-0.0117188 -0.234375,-0.0234375 -0.316407,-0.1171875 -0.09375,-0.1171875 -0.08203,-0.26953125 -0.08203,-0.41015625 V -6.2329297 c 0,-0.082031 0,-0.1640625 0,-0.2460937 0,-0.046875 0,-0.09375 -0.03516,-0.1289063 -0.04687,-0.058594 -0.175781,-0.035156 -0.246094,-0.035156 h -0.914062 c -0.03516,0 -0.08203,-0.011719 -0.128907,0.011719 -0.03516,0.023437 -0.05859,0.058594 -0.08203,0.09375 -0.04687,0.046875 -0.08203,0.09375 -0.128906,0.1289063 -0.140625,0.140625 -0.292969,0.2578125 -0.46875,0.3515625 -0.445313,0.2578125 -0.960938,0.375 -1.476563,0.3749995 z m 3.175782,-0.65625 v 6.02343746 H 52.036219 V -6.3383984 Z m 0,0"
         style="fill:#000000;fill-opacity:1;fill-rule:nonzero;stroke:none" />
    </g>
    <g
       id="g13"
       aria-label="C(X,Y)"
       transform="matrix(1.3333333,0,0,1.3333333,195.23067,61.688)">
      <path
         id="path14"
         d="m 7.6287578,-6.6683438 c 0,-0.1875 0,-0.2695312 -0.1757812,-0.2695312 -0.09375,0 -0.1171875,0.011719 -0.1875,0.082031 l -0.65625,0.5859375 C 5.9881328,-6.7620938 5.3201641,-6.937875 4.6404766,-6.937875 c -2.484375,0 -4.00781254,1.4765625 -4.00781254,3.515625 0,2.0507812 1.52343754,3.52734375 4.00781254,3.52734375 1.8632812,0 2.9882812,-1.21875005 2.9882812,-2.36718755 0,-0.1992187 -0.070312,-0.2109375 -0.234375,-0.2109375 -0.1289062,0 -0.2226562,0 -0.234375,0.1757813 -0.070312,1.3359375 -1.2773437,1.93359375 -2.2734375,1.93359375 -0.7851562,0 -1.6171875,-0.234375 -2.1328125,-0.84375005 -0.46875,-0.5625 -0.5976562,-1.3125 -0.5976562,-2.2148437 0,-0.5507813 0.035156,-1.6289063 0.6679687,-2.2851563 0.6445313,-0.65625 1.5117188,-0.7734375 2.0273438,-0.7734375 1.078125,0 2.0273437,0.7617188 2.2382812,2.0273438 0.035156,0.1875 0.046875,0.2109375 0.2695313,0.2109375 0.2578125,0 0.2695312,-0.023437 0.2695312,-0.28125 z m 0,0"
         style="fill:#000000;fill-opacity:1;fill-rule:nonzero;stroke:none" />
      <path
         id="path15"
         d="m 11.569187,2.39025 c 0,-0.035156 0,-0.046875 -0.164062,-0.2226563 -1.242188,-1.2539062 -1.5703125,-3.1289062 -1.5703125,-4.6640625 0,-1.7226562 0.3867185,-3.4570312 1.6054685,-4.7109375 0.128906,-0.1171875 0.128906,-0.1289062 0.128906,-0.1640625 0,-0.070312 -0.03516,-0.1054687 -0.09375,-0.1054687 -0.105468,0 -0.996093,0.6796875 -1.5820308,1.9453125 -0.515625,1.1015625 -0.6328125,2.203125 -0.6328125,3.0351562 0,0.7851563 0.1171875,1.99218755 0.65625,3.11718755 C 10.5145,1.8394687 11.369969,2.4957187 11.475437,2.4957187 c 0.05859,0 0.09375,-0.035156 0.09375,-0.1054687 z m 0,0"
         style="fill:#000000;fill-opacity:1;fill-rule:nonzero;stroke:none" />
      <path
         id="path16"
         d="m 16.977391,-4.0902188 -0.832032,-1.9921875 c -0.03516,-0.070312 -0.04687,-0.1171875 -0.04687,-0.1289062 0,-0.058594 0.164063,-0.2460938 0.585938,-0.28125 0.09375,-0.011719 0.199219,-0.023437 0.199219,-0.1875 0,-0.1289063 -0.117188,-0.1289063 -0.152344,-0.1289063 -0.410156,0 -0.832031,0.035156 -1.253906,0.035156 -0.246094,0 -0.867188,-0.035156 -1.113282,-0.035156 -0.05859,0 -0.1875,0 -0.1875,0.1992188 0,0.1171875 0.105469,0.1171875 0.234375,0.1171875 0.597657,0 0.65625,0.09375 0.75,0.3164062 l 1.171875,2.7773438 -2.097656,2.2617187 -0.128906,0.1054688 c -0.492188,0.52734375 -0.960938,0.69140625 -1.464844,0.7265625 -0.128906,0 -0.222656,0 -0.222656,0.19921875 0,0 0,0.10546875 0.128906,0.10546875 0.304688,0 0.632813,-0.03515625 0.9375,-0.03515625 0.363281,0 0.761719,0.03515625 1.113281,0.03515625 0.05859,0 0.175782,0 0.175782,-0.19921875 0,-0.10546875 -0.09375,-0.10546875 -0.117188,-0.10546875 -0.08203,-0.0117188 -0.398437,-0.0351563 -0.398437,-0.31640625 0,-0.15234375 0.152343,-0.31640625 0.269531,-0.44531255 l 1.019531,-1.078125 0.890625,-0.9726562 1.007813,2.37890625 c 0.04687,0.10546875 0.04687,0.1171875 0.04687,0.140625 0,0.0820313 -0.1875,0.24609375 -0.574219,0.29296875 -0.105469,0 -0.199219,0.0117188 -0.199219,0.1875 0,0.1171875 0.117188,0.1171875 0.152344,0.1171875 0.28125,0 0.972656,-0.03515625 1.253906,-0.03515625 0.246094,0 0.855469,0.03515625 1.101563,0.03515625 0.07031,0 0.199218,0 0.199218,-0.1875 0,-0.1171875 -0.105468,-0.1171875 -0.1875,-0.1171875 -0.667968,-0.0117188 -0.679687,-0.046875 -0.855468,-0.4453125 -0.386719,-0.9257813 -1.054688,-2.4726563 -1.289063,-3.0703125 0.679688,-0.703125 1.734375,-1.8867188 2.050781,-2.1679688 0.28125,-0.234375 0.667969,-0.4804687 1.265625,-0.5039062 0.128907,-0.011719 0.210938,-0.011719 0.210938,-0.1992188 0,-0.011719 0,-0.1171875 -0.128906,-0.1171875 -0.292969,0 -0.621094,0.035156 -0.9375,0.035156 -0.363282,0 -0.738282,-0.035156 -1.101563,-0.035156 -0.05859,0 -0.1875,0 -0.1875,0.1992188 0,0.070312 0.04687,0.1054687 0.117188,0.1171875 0.09375,0.011719 0.398437,0.023437 0.398437,0.3046875 0,0.140625 -0.105469,0.2695312 -0.1875,0.3632812 z m 5.680664,4.07812505 c 0,-0.65625 -0.257813,-1.04296875 -0.644532,-1.04296875 -0.328125,0 -0.527343,0.24609375 -0.527343,0.52734375 0,0.26953125 0.199218,0.52734375 0.527343,0.52734375 0.117188,0 0.246094,-0.03515625 0.351563,-0.12890625 0.02344,-0.0234375 0.03516,-0.0351563 0.04687,-0.0351563 0.01172,0 0.02344,0.0117188 0.02344,0.15234375 0,0.73828125 -0.351562,1.3359375 -0.679687,1.6640625 -0.105469,0.1054687 -0.105469,0.1289062 -0.105469,0.1640625 0,0.070312 0.04687,0.1054687 0.09375,0.1054687 0.117188,0 0.914063,-0.7617187 0.914063,-1.9335937 z M 31.004734,-5.67225 31.145359,-5.812875 c 0.304688,-0.2929688 0.632813,-0.6328125 1.3125,-0.6796875 0.105469,-0.011719 0.199219,-0.011719 0.199219,-0.1875 0,-0.082031 -0.05859,-0.1289063 -0.128906,-0.1289063 -0.257813,0 -0.550781,0.035156 -0.820313,0.035156 -0.328125,0 -0.679687,-0.035156 -0.996093,-0.035156 -0.05859,0 -0.1875,0 -0.1875,0.1992188 0,0.1054687 0.09375,0.1171875 0.152343,0.1171875 0.07031,0 0.351563,0.011719 0.351563,0.2226562 0,0.1757813 -0.222656,0.4335938 -0.269531,0.4804688 l -2.308594,2.6601562 -1.089844,-2.953125 c -0.07031,-0.140625 -0.07031,-0.1640625 -0.07031,-0.1757812 0,-0.234375 0.492187,-0.234375 0.597656,-0.234375 0.128906,0 0.234375,0 0.234375,-0.1992188 0,-0.1171875 -0.117188,-0.1171875 -0.152344,-0.1171875 -0.28125,0 -0.972656,0.035156 -1.253906,0.035156 -0.246094,0 -0.867188,-0.035156 -1.113281,-0.035156 -0.05859,0 -0.1875,0 -0.1875,0.1992188 0,0.1171875 0.09375,0.1171875 0.222656,0.1171875 0.597656,0 0.644531,0.082031 0.726562,0.3398437 l 1.230469,3.2695313 c 0.01172,0.035156 0.03516,0.140625 0.03516,0.1757812 0,0.023437 -0.398437,1.6289063 -0.445312,1.80468755 -0.128906,0.55078125 -0.140625,0.5859375 -0.9375,0.59765625 -0.1875,0 -0.269531,0 -0.269531,0.19921875 0,0.10546875 0.117187,0.10546875 0.140625,0.10546875 0.28125,0 0.972656,-0.03515625 1.253906,-0.03515625 0.28125,0 0.996094,0.03515625 1.277344,0.03515625 0.07031,0 0.1875,0 0.1875,-0.19921875 0,-0.10546875 -0.08203,-0.10546875 -0.28125,-0.10546875 -0.01172,0 -0.199219,0 -0.375,-0.0234375 -0.210938,-0.0234375 -0.269532,-0.0351563 -0.269532,-0.1640625 0,-0.0703125 0.09375,-0.41015625 0.140625,-0.6210938 l 0.351563,-1.40625 c 0.04687,-0.1875 0.05859,-0.2226562 0.140625,-0.3046875 z m 0,0"
         style="fill:#000000;fill-opacity:1;fill-rule:nonzero;stroke:none" />
      <path
         id="path17"
         d="m 35.941258,-2.4964688 c 0,-0.7734375 -0.117188,-1.9804687 -0.65625,-3.1054687 -0.597656,-1.21875 -1.464844,-1.875 -1.558594,-1.875 -0.05859,0 -0.105469,0.046875 -0.105469,0.1054687 0,0.035156 0,0.046875 0.199219,0.234375 0.972656,0.984375 1.535156,2.5664063 1.535156,4.640625 0,1.71093755 -0.363281,3.4570313 -1.59375,4.7226563 -0.140625,0.1171875 -0.140625,0.1289062 -0.140625,0.1640625 0,0.058594 0.04687,0.1054687 0.105469,0.1054687 0.09375,0 0.996094,-0.6796875 1.582031,-1.94531245 0.503907,-1.1015625 0.632813,-2.20312505 0.632813,-3.04687505 z m 0,0"
         style="fill:#000000;fill-opacity:1;fill-rule:nonzero;stroke:none" />
    </g>
    <g
       id="g17"
       aria-label="C(Y,Y)⊗C(X,Y)"
       transform="matrix(1.3333333,0,0,1.3333333,8.216,108.56933)">
      <path
         id="path18"
         d="m 7.6280391,-6.6672344 c 0,-0.1875 0,-0.2695312 -0.1757813,-0.2695312 -0.09375,0 -0.1171875,0.011719 -0.1875,0.082031 l -0.65625,0.5859375 c -0.6210937,-0.4921875 -1.2890625,-0.6679687 -1.96875,-0.6679687 -2.484375,0 -4.00781249,1.4765625 -4.00781249,3.515625 0,2.0507812 1.52343749,3.52734373 4.00781249,3.52734373 1.8632813,0 2.9882813,-1.21875003 2.9882813,-2.36718753 0,-0.1992187 -0.070312,-0.2109375 -0.234375,-0.2109375 -0.1289063,0 -0.2226563,0 -0.234375,0.1757813 -0.070312,1.33593748 -1.2773438,1.93359373 -2.2734375,1.93359373 -0.7851563,0 -1.6171875,-0.234375 -2.1328125,-0.84375003 -0.46875,-0.5625 -0.5976563,-1.3125 -0.5976563,-2.2148437 0,-0.5507813 0.035156,-1.6289063 0.6679688,-2.2851563 0.6445312,-0.65625 1.5117187,-0.7734375 2.0273437,-0.7734375 1.078125,0 2.0273438,0.7617188 2.2382813,2.0273438 0.035156,0.1875 0.046875,0.2109375 0.2695312,0.2109375 0.2578125,0 0.2695313,-0.023437 0.2695313,-0.28125 z m 0,0"
         style="fill:#000000;fill-opacity:1;fill-rule:nonzero;stroke:none" />
      <path
         id="path19"
         d="m 11.565539,2.3913594 c 0,-0.035156 0,-0.046875 -0.164062,-0.2226563 -1.242188,-1.25390622 -1.5703129,-3.12890622 -1.5703129,-4.6640625 0,-1.7226562 0.3867189,-3.4570312 1.6054689,-4.7109375 0.128906,-0.1171875 0.128906,-0.1289062 0.128906,-0.1640625 0,-0.070312 -0.03516,-0.1054687 -0.09375,-0.1054687 -0.105469,0 -0.996094,0.6796875 -1.5820312,1.9453125 -0.515625,1.1015625 -0.6328125,2.203125 -0.6328125,3.0351562 0,0.7851563 0.1171875,1.99218753 0.65625,3.11718753 0.5976567,1.21874997 1.4531247,1.87499997 1.5585937,1.87499997 0.05859,0 0.09375,-0.035156 0.09375,-0.1054687 z m 0,0"
         style="fill:#000000;fill-opacity:1;fill-rule:nonzero;stroke:none" />
      <path
         id="path20"
         d="m 18.089953,-5.6711406 0.140625,-0.140625 c 0.304688,-0.2929688 0.632813,-0.6328125 1.3125,-0.6796875 0.105469,-0.011719 0.199219,-0.011719 0.199219,-0.1875 0,-0.082031 -0.05859,-0.1289063 -0.128906,-0.1289063 -0.257813,0 -0.550782,0.035156 -0.820313,0.035156 -0.328125,0 -0.679687,-0.035156 -0.996094,-0.035156 -0.05859,0 -0.1875,0 -0.1875,0.1992188 0,0.1054687 0.09375,0.1171875 0.152344,0.1171875 0.07031,0 0.351563,0.011719 0.351563,0.2226562 0,0.1757813 -0.222657,0.4335938 -0.269532,0.4804688 l -2.308593,2.6601562 -1.089844,-2.953125 c -0.07031,-0.140625 -0.07031,-0.1640625 -0.07031,-0.1757812 0,-0.234375 0.492188,-0.234375 0.597657,-0.234375 0.128906,0 0.234375,0 0.234375,-0.1992188 0,-0.1171875 -0.117188,-0.1171875 -0.152344,-0.1171875 -0.28125,0 -0.972656,0.035156 -1.253906,0.035156 -0.246094,0 -0.867188,-0.035156 -1.113282,-0.035156 -0.05859,0 -0.1875,0 -0.1875,0.1992188 0,0.1171875 0.09375,0.1171875 0.222657,0.1171875 0.597656,0 0.644531,0.082031 0.726562,0.3398437 l 1.230469,3.2695313 c 0.01172,0.035156 0.03516,0.140625 0.03516,0.1757812 0,0.023437 -0.398437,1.6289063 -0.445312,1.80468753 -0.128907,0.55078125 -0.140625,0.5859375 -0.9375,0.59765625 -0.1875,0 -0.269532,0 -0.269532,0.19921875 0,0.105468745 0.117188,0.105468745 0.140625,0.105468745 0.28125,0 0.972657,-0.035156245 1.253907,-0.035156245 0.28125,0 0.996093,0.035156245 1.277343,0.035156245 0.07031,0 0.1875,0 0.1875,-0.199218745 0,-0.10546875 -0.08203,-0.10546875 -0.28125,-0.10546875 -0.01172,0 -0.199218,0 -0.375,-0.0234375 -0.210937,-0.0234375 -0.269531,-0.0351563 -0.269531,-0.1640625 0,-0.0703125 0.09375,-0.41015625 0.140625,-0.62109378 l 0.351563,-1.40625 c 0.04687,-0.1875 0.05859,-0.2226562 0.140625,-0.3046875 z m 2.428711,5.66015623 c 0,-0.65625 -0.257812,-1.04296873 -0.644531,-1.04296873 -0.328125,0 -0.527344,0.24609373 -0.527344,0.52734373 0,0.26953125 0.199219,0.527343745 0.527344,0.527343745 0.117187,0 0.246094,-0.035156245 0.351562,-0.128906245 0.02344,-0.0234375 0.03516,-0.0351563 0.04687,-0.0351563 0.01172,0 0.02344,0.0117188 0.02344,0.15234375 0,0.73828125 -0.351563,1.33593742 -0.679688,1.66406242 -0.105468,0.1054688 -0.105468,0.1289063 -0.105468,0.1640625 0,0.070312 0.04687,0.1054688 0.09375,0.1054688 0.117187,0 0.914062,-0.7617188 0.914062,-1.93359372 z m 8.334961,-5.66015623 0.140625,-0.140625 c 0.304687,-0.2929688 0.632812,-0.6328125 1.3125,-0.6796875 0.105469,-0.011719 0.199219,-0.011719 0.199219,-0.1875 0,-0.082031 -0.05859,-0.1289063 -0.128907,-0.1289063 -0.257812,0 -0.550781,0.035156 -0.820312,0.035156 -0.328125,0 -0.679688,-0.035156 -0.996094,-0.035156 -0.05859,0 -0.1875,0 -0.1875,0.1992188 0,0.1054687 0.09375,0.1171875 0.152344,0.1171875 0.07031,0 0.351562,0.011719 0.351562,0.2226562 0,0.1757813 -0.222656,0.4335938 -0.269531,0.4804688 l -2.308594,2.6601562 -1.089843,-2.953125 c -0.07031,-0.140625 -0.07031,-0.1640625 -0.07031,-0.1757812 0,-0.234375 0.492188,-0.234375 0.597656,-0.234375 0.128907,0 0.234375,0 0.234375,-0.1992188 0,-0.1171875 -0.117187,-0.1171875 -0.152343,-0.1171875 -0.28125,0 -0.972657,0.035156 -1.253907,0.035156 -0.246093,0 -0.867187,-0.035156 -1.113281,-0.035156 -0.05859,0 -0.1875,0 -0.1875,0.1992188 0,0.1171875 0.09375,0.1171875 0.222656,0.1171875 0.597657,0 0.644532,0.082031 0.726563,0.3398437 l 1.230469,3.2695313 c 0.01172,0.035156 0.03516,0.140625 0.03516,0.1757812 0,0.023437 -0.398438,1.6289063 -0.445313,1.80468753 -0.128906,0.55078125 -0.140625,0.5859375 -0.9375,0.59765625 -0.1875,0 -0.269531,0 -0.269531,0.19921875 0,0.105468745 0.117188,0.105468745 0.140625,0.105468745 0.28125,0 0.972656,-0.035156245 1.253906,-0.035156245 0.28125,0 0.996094,0.035156245 1.277344,0.035156245 0.07031,0 0.1875,0 0.1875,-0.199218745 0,-0.10546875 -0.08203,-0.10546875 -0.28125,-0.10546875 -0.01172,0 -0.199219,0 -0.375,-0.0234375 -0.210937,-0.0234375 -0.269531,-0.0351563 -0.269531,-0.1640625 0,-0.0703125 0.09375,-0.41015625 0.140625,-0.62109378 l 0.351562,-1.40625 c 0.04687,-0.1875 0.05859,-0.2226562 0.140625,-0.3046875 z m 0,0"
         style="fill:#000000;fill-opacity:1;fill-rule:nonzero;stroke:none" />
      <path
         id="path21"
         d="m 33.796008,-2.4953594 c 0,-0.7734375 -0.117188,-1.9804687 -0.65625,-3.1054687 -0.597656,-1.21875 -1.464844,-1.875 -1.558594,-1.875 -0.05859,0 -0.105469,0.046875 -0.105469,0.1054687 0,0.035156 0,0.046875 0.199219,0.234375 0.972656,0.984375 1.535156,2.5664063 1.535156,4.640625 0,1.71093753 -0.363281,3.45703128 -1.59375,4.7226563 -0.140625,0.1171875 -0.140625,0.1289062 -0.140625,0.1640625 0,0.058594 0.04687,0.1054687 0.105469,0.1054687 0.09375,0 0.996094,-0.6796875 1.582031,-1.94531247 0.503907,-1.1015625 0.632813,-2.20312503 0.632813,-3.04687503 z m 0,0"
         style="fill:#000000;fill-opacity:1;fill-rule:nonzero;stroke:none" />
      <path
         id="path22"
         d="m 44.196398,-2.4953594 c 0,-1.828125 -1.5,-3.3164062 -3.316406,-3.3164062 -1.851562,0 -3.328125,1.5117187 -3.328125,3.3164062 0,1.83984378 1.488281,3.32812503 3.316406,3.32812503 1.851563,0 3.328125,-1.51171875 3.328125,-3.32812503 z m -5.296875,-2.1328125 c -0.02344,-0.023437 -0.09375,-0.09375 -0.09375,-0.1171875 0,-0.035156 0.808594,-0.8085937 2.0625,-0.8085937 0.351563,0 1.265625,0.046875 2.074219,0.8085937 l -2.0625,2.0859375 z m -0.292968,4.21875003 C 37.99718,-1.0891094 37.797961,-1.8508281 37.797961,-2.4953594 c 0,-0.7617187 0.292969,-1.4882812 0.808594,-2.0742187 l 2.085937,2.0742187 z m 4.523437,-4.16015623 c 0.480469,0.5039062 0.808594,1.265625 0.808594,2.0742187 0,0.7734375 -0.28125,1.50000003 -0.796875,2.08593753 L 41.055773,-2.4953594 Z m -0.28125,4.21874998 c 0.02344,0.0234375 0.09375,0.09375 0.09375,0.1171875 0,0.0351563 -0.808594,0.80859375 -2.0625,0.80859375 -0.351562,0 -1.265625,-0.046875 -2.085937,-0.80859375 l 2.074218,-2.08593748 z m 0,0"
         style="fill:#000000;fill-opacity:1;fill-rule:nonzero;stroke:none" />
      <path
         id="path23"
         d="m 54.59093,-6.6672344 c 0,-0.1875 0,-0.2695312 -0.175782,-0.2695312 -0.09375,0 -0.117187,0.011719 -0.1875,0.082031 l -0.65625,0.5859375 c -0.621093,-0.4921875 -1.289062,-0.6679687 -1.96875,-0.6679687 -2.484375,0 -4.007812,1.4765625 -4.007812,3.515625 0,2.0507812 1.523437,3.52734373 4.007812,3.52734373 1.863282,0 2.988282,-1.21875003 2.988282,-2.36718753 0,-0.1992187 -0.07031,-0.2109375 -0.234375,-0.2109375 -0.128907,0 -0.222657,0 -0.234375,0.1757813 -0.07031,1.33593748 -1.277344,1.93359373 -2.273438,1.93359373 -0.785156,0 -1.617187,-0.234375 -2.132812,-0.84375003 -0.46875,-0.5625 -0.597657,-1.3125 -0.597657,-2.2148437 0,-0.5507813 0.03516,-1.6289063 0.667969,-2.2851563 0.644531,-0.65625 1.511719,-0.7734375 2.027344,-0.7734375 1.078125,0 2.027344,0.7617188 2.238281,2.0273438 0.03516,0.1875 0.04687,0.2109375 0.269531,0.2109375 0.257813,0 0.269532,-0.023437 0.269532,-0.28125 z m 0,0"
         style="fill:#000000;fill-opacity:1;fill-rule:nonzero;stroke:none" />
      <path
         id="path24"
         d="m 58.531359,2.3913594 c 0,-0.035156 0,-0.046875 -0.164062,-0.2226563 -1.242188,-1.25390622 -1.570313,-3.12890622 -1.570313,-4.6640625 0,-1.7226562 0.386719,-3.4570312 1.605469,-4.7109375 0.128906,-0.1171875 0.128906,-0.1289062 0.128906,-0.1640625 0,-0.070312 -0.03516,-0.1054687 -0.09375,-0.1054687 -0.105468,0 -0.996093,0.6796875 -1.582031,1.9453125 -0.515625,1.1015625 -0.632812,2.203125 -0.632812,3.0351562 0,0.7851563 0.117187,1.99218753 0.65625,3.11718753 0.597656,1.21874997 1.453125,1.87499997 1.558593,1.87499997 0.05859,0 0.09375,-0.035156 0.09375,-0.1054687 z m 0,0"
         style="fill:#000000;fill-opacity:1;fill-rule:nonzero;stroke:none" />
      <path
         id="path25"
         d="m 63.939562,-4.0891094 -0.832031,-1.9921875 c -0.03516,-0.070312 -0.04687,-0.1171875 -0.04687,-0.1289062 0,-0.058594 0.164063,-0.2460938 0.585938,-0.28125 0.09375,-0.011719 0.199218,-0.023437 0.199218,-0.1875 0,-0.1289063 -0.117187,-0.1289063 -0.152343,-0.1289063 -0.410157,0 -0.832032,0.035156 -1.253907,0.035156 -0.246093,0 -0.867187,-0.035156 -1.113281,-0.035156 -0.05859,0 -0.1875,0 -0.1875,0.1992188 0,0.1171875 0.105469,0.1171875 0.234375,0.1171875 0.597656,0 0.65625,0.09375 0.75,0.3164062 l 1.171875,2.7773438 -2.097656,2.2617187 -0.128906,0.1054688 c -0.492188,0.52734373 -0.960938,0.69140623 -1.464844,0.72656248 -0.128906,0 -0.222656,0 -0.222656,0.19921875 0,0 0,0.105468745 0.128906,0.105468745 0.304687,0 0.632812,-0.035156245 0.9375,-0.035156245 0.363281,0 0.761719,0.035156245 1.113281,0.035156245 0.05859,0 0.175781,0 0.175781,-0.199218745 0,-0.10546875 -0.09375,-0.10546875 -0.117187,-0.10546875 -0.08203,-0.0117188 -0.398438,-0.0351563 -0.398438,-0.31640625 0,-0.15234375 0.152344,-0.31640625 0.269532,-0.44531253 l 1.019531,-1.078125 0.890625,-0.9726562 1.007812,2.37890623 c 0.04687,0.10546875 0.04687,0.1171875 0.04687,0.140625 0,0.0820313 -0.1875,0.24609375 -0.574218,0.29296875 -0.105469,0 -0.199219,0.0117188 -0.199219,0.1875 0,0.117187495 0.117187,0.117187495 0.152344,0.117187495 0.28125,0 0.972656,-0.035156245 1.253906,-0.035156245 0.246094,0 0.855469,0.035156245 1.101562,0.035156245 0.07031,0 0.199219,0 0.199219,-0.187499995 0,-0.1171875 -0.105469,-0.1171875 -0.1875,-0.1171875 -0.667969,-0.0117188 -0.679687,-0.046875 -0.855469,-0.4453125 -0.386718,-0.92578128 -1.054687,-2.47265628 -1.289062,-3.07031248 0.679687,-0.703125 1.734375,-1.8867188 2.050781,-2.1679688 0.28125,-0.234375 0.667969,-0.4804687 1.265625,-0.5039062 0.128906,-0.011719 0.210938,-0.011719 0.210938,-0.1992188 0,-0.011719 0,-0.1171875 -0.128907,-0.1171875 -0.292968,0 -0.621093,0.035156 -0.9375,0.035156 -0.363281,0 -0.738281,-0.035156 -1.101562,-0.035156 -0.05859,0 -0.1875,0 -0.1875,0.1992188 0,0.070312 0.04687,0.1054687 0.117187,0.1171875 0.09375,0.011719 0.398438,0.023437 0.398438,0.3046875 0,0.140625 -0.105469,0.2695312 -0.1875,0.3632812 z m 5.683594,4.07812503 c 0,-0.65625 -0.257812,-1.04296873 -0.644531,-1.04296873 -0.328125,0 -0.527344,0.24609373 -0.527344,0.52734373 0,0.26953125 0.199219,0.527343745 0.527344,0.527343745 0.117187,0 0.246094,-0.035156245 0.351562,-0.128906245 0.02344,-0.0234375 0.03516,-0.0351563 0.04687,-0.0351563 0.01172,0 0.02344,0.0117188 0.02344,0.15234375 0,0.73828125 -0.351563,1.33593742 -0.679688,1.66406242 -0.105468,0.1054688 -0.105468,0.1289063 -0.105468,0.1640625 0,0.070312 0.04687,0.1054688 0.09375,0.1054688 0.117187,0 0.914062,-0.7617188 0.914062,-1.93359372 z m 8.334961,-5.66015623 0.140625,-0.140625 c 0.304688,-0.2929688 0.632813,-0.6328125 1.3125,-0.6796875 0.105469,-0.011719 0.199219,-0.011719 0.199219,-0.1875 0,-0.082031 -0.05859,-0.1289063 -0.128906,-0.1289063 -0.257813,0 -0.550782,0.035156 -0.820313,0.035156 -0.328125,0 -0.679687,-0.035156 -0.996094,-0.035156 -0.05859,0 -0.1875,0 -0.1875,0.1992188 0,0.1054687 0.09375,0.1171875 0.152344,0.1171875 0.07031,0 0.351563,0.011719 0.351563,0.2226562 0,0.1757813 -0.222657,0.4335938 -0.269532,0.4804688 l -2.308593,2.6601562 -1.089844,-2.953125 c -0.07031,-0.140625 -0.07031,-0.1640625 -0.07031,-0.1757812 0,-0.234375 0.492188,-0.234375 0.597657,-0.234375 0.128906,0 0.234375,0 0.234375,-0.1992188 0,-0.1171875 -0.117188,-0.1171875 -0.152344,-0.1171875 -0.28125,0 -0.972656,0.035156 -1.253906,0.035156 -0.246094,0 -0.867188,-0.035156 -1.113282,-0.035156 -0.05859,0 -0.1875,0 -0.1875,0.1992188 0,0.1171875 0.09375,0.1171875 0.222657,0.1171875 0.597656,0 0.644531,0.082031 0.726562,0.3398437 l 1.230469,3.2695313 c 0.01172,0.035156 0.03516,0.140625 0.03516,0.1757812 0,0.023437 -0.398437,1.6289063 -0.445312,1.80468753 -0.128907,0.55078125 -0.140625,0.5859375 -0.9375,0.59765625 -0.1875,0 -0.269532,0 -0.269532,0.19921875 0,0.105468745 0.117188,0.105468745 0.140625,0.105468745 0.28125,0 0.972657,-0.035156245 1.253907,-0.035156245 0.28125,0 0.996093,0.035156245 1.277343,0.035156245 0.07031,0 0.1875,0 0.1875,-0.199218745 0,-0.10546875 -0.08203,-0.10546875 -0.28125,-0.10546875 -0.01172,0 -0.199218,0 -0.375,-0.0234375 -0.210937,-0.0234375 -0.269531,-0.0351563 -0.269531,-0.1640625 0,-0.0703125 0.09375,-0.41015625 0.140625,-0.62109378 l 0.351563,-1.40625 c 0.04687,-0.1875 0.05859,-0.2226562 0.140625,-0.3046875 z m 0,0"
         style="fill:#000000;fill-opacity:1;fill-rule:nonzero;stroke:none" />
      <path
         id="path26"
         d="m 82.9005,-2.4953594 c 0,-0.7734375 -0.117188,-1.9804687 -0.65625,-3.1054687 -0.597656,-1.21875 -1.464844,-1.875 -1.558594,-1.875 -0.05859,0 -0.105469,0.046875 -0.105469,0.1054687 0,0.035156 0,0.046875 0.199219,0.234375 0.972656,0.984375 1.535156,2.5664063 1.535156,4.640625 0,1.71093753 -0.363281,3.45703128 -1.59375,4.7226563 -0.140625,0.1171875 -0.140625,0.1289062 -0.140625,0.1640625 0,0.058594 0.04687,0.1054687 0.105469,0.1054687 0.09375,0 0.996094,-0.6796875 1.582031,-1.94531247 0.503907,-1.1015625 0.632813,-2.20312503 0.632813,-3.04687503 z m 0,0"
         style="fill:#000000;fill-opacity:1;fill-rule:nonzero;stroke:none" />
    </g>
    <g
       id="g26"
       aria-label="C(X,Y)⊗C(X,X)"
       transform="matrix(1.3333333,0,0,1.3333333,319.63067,108.56933)">
      <path
         id="path27"
         d="m 7.6275859,-6.6672344 c 0,-0.1875 0,-0.2695312 -0.1757812,-0.2695312 -0.09375,0 -0.1171875,0.011719 -0.1875,0.082031 l -0.65625,0.5859375 c -0.6210938,-0.4921875 -1.2890625,-0.6679687 -1.96875,-0.6679687 -2.484375,0 -4.00781251,1.4765625 -4.00781251,3.515625 0,2.0507812 1.52343751,3.52734373 4.00781251,3.52734373 1.8632812,0 2.9882812,-1.21875003 2.9882812,-2.36718753 0,-0.1992187 -0.070312,-0.2109375 -0.234375,-0.2109375 -0.1289062,0 -0.2226562,0 -0.234375,0.1757813 -0.070312,1.33593748 -1.2773437,1.93359373 -2.2734375,1.93359373 -0.7851562,0 -1.6171875,-0.234375 -2.1328125,-0.84375003 -0.46875,-0.5625 -0.5976562,-1.3125 -0.5976562,-2.2148437 0,-0.5507813 0.035156,-1.6289063 0.6679687,-2.2851563 0.6445313,-0.65625 1.5117188,-0.7734375 2.0273438,-0.7734375 1.078125,0 2.0273437,0.7617188 2.2382812,2.0273438 0.035156,0.1875 0.046875,0.2109375 0.2695313,0.2109375 0.2578125,0 0.2695312,-0.023437 0.2695312,-0.28125 z m 0,0"
         style="fill:#000000;fill-opacity:1;fill-rule:nonzero;stroke:none" />
      <path
         id="path28"
         d="m 11.568016,2.3913594 c 0,-0.035156 0,-0.046875 -0.164063,-0.2226563 -1.242187,-1.25390622 -1.5703124,-3.12890622 -1.5703124,-4.6640625 0,-1.7226562 0.3867184,-3.4570312 1.6054684,-4.7109375 0.128907,-0.1171875 0.128907,-0.1289062 0.128907,-0.1640625 0,-0.070312 -0.03516,-0.1054687 -0.09375,-0.1054687 -0.105469,0 -0.996094,0.6796875 -1.5820316,1.9453125 -0.515625,1.1015625 -0.6328125,2.203125 -0.6328125,3.0351562 0,0.7851563 0.1171875,1.99218753 0.65625,3.11718753 0.5976561,1.21874997 1.4531251,1.87499997 1.5585941,1.87499997 0.05859,0 0.09375,-0.035156 0.09375,-0.1054687 z m 0,0"
         style="fill:#000000;fill-opacity:1;fill-rule:nonzero;stroke:none" />
      <path
         id="path29"
         d="m 16.976219,-4.0891094 -0.832031,-1.9921875 c -0.03516,-0.070312 -0.04687,-0.1171875 -0.04687,-0.1289062 0,-0.058594 0.164062,-0.2460938 0.585937,-0.28125 0.09375,-0.011719 0.199219,-0.023437 0.199219,-0.1875 0,-0.1289063 -0.117188,-0.1289063 -0.152344,-0.1289063 -0.410156,0 -0.832031,0.035156 -1.253906,0.035156 -0.246094,0 -0.867188,-0.035156 -1.113281,-0.035156 -0.05859,0 -0.1875,0 -0.1875,0.1992188 0,0.1171875 0.105468,0.1171875 0.234375,0.1171875 0.597656,0 0.65625,0.09375 0.75,0.3164062 l 1.171875,2.7773438 -2.097657,2.2617187 -0.128906,0.1054688 c -0.492187,0.52734373 -0.960937,0.69140623 -1.464844,0.72656248 -0.128906,0 -0.222656,0 -0.222656,0.19921875 0,0 0,0.105468745 0.128906,0.105468745 0.304688,0 0.632813,-0.035156245 0.9375,-0.035156245 0.363282,0 0.761719,0.035156245 1.113282,0.035156245 0.05859,0 0.175781,0 0.175781,-0.199218745 0,-0.10546875 -0.09375,-0.10546875 -0.117188,-0.10546875 -0.08203,-0.0117188 -0.398437,-0.0351563 -0.398437,-0.31640625 0,-0.15234375 0.152344,-0.31640625 0.269531,-0.44531253 l 1.019531,-1.078125 0.890625,-0.9726562 1.007813,2.37890623 c 0.04687,0.10546875 0.04687,0.1171875 0.04687,0.140625 0,0.0820313 -0.1875,0.24609375 -0.574219,0.29296875 -0.105469,0 -0.199219,0.0117188 -0.199219,0.1875 0,0.117187495 0.117188,0.117187495 0.152344,0.117187495 0.28125,0 0.972656,-0.035156245 1.253906,-0.035156245 0.246094,0 0.855469,0.035156245 1.101563,0.035156245 0.07031,0 0.199219,0 0.199219,-0.187499995 0,-0.1171875 -0.105469,-0.1171875 -0.1875,-0.1171875 -0.667969,-0.0117188 -0.679688,-0.046875 -0.855469,-0.4453125 -0.386719,-0.92578128 -1.054688,-2.47265628 -1.289063,-3.07031248 0.679688,-0.703125 1.734375,-1.8867188 2.050782,-2.1679688 0.28125,-0.234375 0.667968,-0.4804687 1.265625,-0.5039062 0.128906,-0.011719 0.210937,-0.011719 0.210937,-0.1992188 0,-0.011719 0,-0.1171875 -0.128906,-0.1171875 -0.292969,0 -0.621094,0.035156 -0.9375,0.035156 -0.363281,0 -0.738281,-0.035156 -1.101563,-0.035156 -0.05859,0 -0.1875,0 -0.1875,0.1992188 0,0.070312 0.04687,0.1054687 0.117188,0.1171875 0.09375,0.011719 0.398437,0.023437 0.398437,0.3046875 0,0.140625 -0.105468,0.2695312 -0.1875,0.3632812 z m 5.683594,4.07812503 c 0,-0.65625 -0.257813,-1.04296873 -0.644532,-1.04296873 -0.328125,0 -0.527343,0.24609373 -0.527343,0.52734373 0,0.26953125 0.199218,0.527343745 0.527343,0.527343745 0.117188,0 0.246094,-0.035156245 0.351563,-0.128906245 0.02344,-0.0234375 0.03516,-0.0351563 0.04687,-0.0351563 0.01172,0 0.02344,0.0117188 0.02344,0.15234375 0,0.73828125 -0.351562,1.33593742 -0.679687,1.66406242 C 21.652,1.7585469 21.652,1.7819844 21.652,1.8171406 c 0,0.070312 0.04687,0.1054688 0.09375,0.1054688 0.117188,0 0.914063,-0.7617188 0.914063,-1.93359377 z m 8.34375,-5.66015623 0.140625,-0.140625 c 0.304687,-0.2929688 0.632812,-0.6328125 1.3125,-0.6796875 0.105468,-0.011719 0.199218,-0.011719 0.199218,-0.1875 0,-0.082031 -0.05859,-0.1289063 -0.128906,-0.1289063 -0.257812,0 -0.550781,0.035156 -0.820312,0.035156 -0.328125,0 -0.679688,-0.035156 -0.996094,-0.035156 -0.05859,0 -0.1875,0 -0.1875,0.1992188 0,0.1054687 0.09375,0.1171875 0.152344,0.1171875 0.07031,0 0.351562,0.011719 0.351562,0.2226562 0,0.1757813 -0.222656,0.4335938 -0.269531,0.4804688 l -2.308594,2.6601562 -1.089844,-2.953125 c -0.07031,-0.140625 -0.07031,-0.1640625 -0.07031,-0.1757812 0,-0.234375 0.492187,-0.234375 0.597656,-0.234375 0.128906,0 0.234375,0 0.234375,-0.1992188 0,-0.1171875 -0.117187,-0.1171875 -0.152344,-0.1171875 -0.28125,0 -0.972656,0.035156 -1.253906,0.035156 -0.246094,0 -0.867187,-0.035156 -1.113281,-0.035156 -0.05859,0 -0.1875,0 -0.1875,0.1992188 0,0.1171875 0.09375,0.1171875 0.222656,0.1171875 0.597656,0 0.644531,0.082031 0.726563,0.3398437 l 1.230468,3.2695313 c 0.01172,0.035156 0.03516,0.140625 0.03516,0.1757812 0,0.023437 -0.398438,1.6289063 -0.445313,1.80468753 -0.128906,0.55078125 -0.140625,0.5859375 -0.9375,0.59765625 -0.1875,0 -0.269531,0 -0.269531,0.19921875 0,0.105468745 0.117187,0.105468745 0.140625,0.105468745 0.28125,0 0.972656,-0.035156245 1.253906,-0.035156245 0.28125,0 0.996094,0.035156245 1.277344,0.035156245 0.07031,0 0.1875,0 0.1875,-0.199218745 0,-0.10546875 -0.08203,-0.10546875 -0.28125,-0.10546875 -0.01172,0 -0.199219,0 -0.375,-0.0234375 -0.210938,-0.0234375 -0.269531,-0.0351563 -0.269531,-0.1640625 0,-0.0703125 0.09375,-0.41015625 0.140625,-0.62109378 l 0.351562,-1.40625 c 0.04687,-0.1875 0.05859,-0.2226562 0.140625,-0.3046875 z m 0,0"
         style="fill:#000000;fill-opacity:1;fill-rule:nonzero;stroke:none" />
      <path
         id="path30"
         d="m 35.940086,-2.4953594 c 0,-0.7734375 -0.117188,-1.9804687 -0.65625,-3.1054687 -0.597656,-1.21875 -1.464844,-1.875 -1.558594,-1.875 -0.05859,0 -0.105469,0.046875 -0.105469,0.1054687 0,0.035156 0,0.046875 0.199219,0.234375 0.972656,0.984375 1.535156,2.5664063 1.535156,4.640625 0,1.71093753 -0.363281,3.45703128 -1.59375,4.7226563 -0.140625,0.1171875 -0.140625,0.1289062 -0.140625,0.1640625 0,0.058594 0.04687,0.1054687 0.105469,0.1054687 0.09375,0 0.996094,-0.6796875 1.582031,-1.94531247 0.503907,-1.1015625 0.632813,-2.20312503 0.632813,-3.04687503 z m 0,0"
         style="fill:#000000;fill-opacity:1;fill-rule:nonzero;stroke:none" />
      <path
         id="path31"
         d="m 46.340477,-2.4953594 c 0,-1.828125 -1.5,-3.3164062 -3.316407,-3.3164062 -1.851562,0 -3.328125,1.5117187 -3.328125,3.3164062 0,1.83984378 1.488282,3.32812503 3.316407,3.32812503 1.851562,0 3.328125,-1.51171875 3.328125,-3.32812503 z m -5.296875,-2.1328125 c -0.02344,-0.023437 -0.09375,-0.09375 -0.09375,-0.1171875 0,-0.035156 0.808593,-0.8085937 2.0625,-0.8085937 0.351562,0 1.265625,0.046875 2.074218,0.8085937 l -2.0625,2.0859375 z m -0.292969,4.21875003 C 40.141258,-1.0891094 39.942039,-1.8508281 39.942039,-2.4953594 c 0,-0.7617187 0.292969,-1.4882812 0.808594,-2.0742187 l 2.085937,2.0742187 z M 45.27407,-4.5695781 c 0.480469,0.5039062 0.808594,1.265625 0.808594,2.0742187 0,0.7734375 -0.28125,1.50000003 -0.796875,2.08593753 L 43.199852,-2.4953594 Z m -0.28125,4.21874998 c 0.02344,0.0234375 0.09375,0.09375 0.09375,0.1171875 0,0.0351563 -0.808593,0.80859375 -2.0625,0.80859375 -0.351562,0 -1.265625,-0.046875 -2.085937,-0.80859375 l 2.074219,-2.08593748 z m 0,0"
         style="fill:#000000;fill-opacity:1;fill-rule:nonzero;stroke:none" />
      <path
         id="path32"
         d="m 56.737938,-6.6672344 c 0,-0.1875 0,-0.2695312 -0.175782,-0.2695312 -0.09375,0 -0.117187,0.011719 -0.1875,0.082031 l -0.65625,0.5859375 c -0.621093,-0.4921875 -1.289062,-0.6679687 -1.96875,-0.6679687 -2.484375,0 -4.007812,1.4765625 -4.007812,3.515625 0,2.0507812 1.523437,3.52734373 4.007812,3.52734373 1.863282,0 2.988282,-1.21875003 2.988282,-2.36718753 0,-0.1992187 -0.07031,-0.2109375 -0.234375,-0.2109375 -0.128907,0 -0.222657,0 -0.234375,0.1757813 -0.07031,1.33593748 -1.277344,1.93359373 -2.273438,1.93359373 -0.785156,0 -1.617187,-0.234375 -2.132812,-0.84375003 -0.46875,-0.5625 -0.597657,-1.3125 -0.597657,-2.2148437 0,-0.5507813 0.03516,-1.6289063 0.667969,-2.2851563 0.644531,-0.65625 1.511719,-0.7734375 2.027344,-0.7734375 1.078125,0 2.027344,0.7617188 2.238281,2.0273438 0.03516,0.1875 0.04687,0.2109375 0.269531,0.2109375 0.257813,0 0.269532,-0.023437 0.269532,-0.28125 z m 0,0"
         style="fill:#000000;fill-opacity:1;fill-rule:nonzero;stroke:none" />
      <path
         id="path33"
         d="m 60.675438,2.3913594 c 0,-0.035156 0,-0.046875 -0.164063,-0.2226563 -1.242187,-1.25390622 -1.570312,-3.12890622 -1.570312,-4.6640625 0,-1.7226562 0.386718,-3.4570312 1.605468,-4.7109375 0.128907,-0.1171875 0.128907,-0.1289062 0.128907,-0.1640625 0,-0.070312 -0.03516,-0.1054687 -0.09375,-0.1054687 -0.105469,0 -0.996094,0.6796875 -1.582032,1.9453125 -0.515625,1.1015625 -0.632812,2.203125 -0.632812,3.0351562 0,0.7851563 0.117187,1.99218753 0.65625,3.11718753 0.597656,1.21874997 1.453125,1.87499997 1.558594,1.87499997 0.05859,0 0.09375,-0.035156 0.09375,-0.1054687 z m 0,0"
         style="fill:#000000;fill-opacity:1;fill-rule:nonzero;stroke:none" />
      <path
         id="path34"
         d="m 66.08657,-4.0891094 -0.832031,-1.9921875 c -0.03516,-0.070312 -0.04687,-0.1171875 -0.04687,-0.1289062 0,-0.058594 0.164063,-0.2460938 0.585938,-0.28125 0.09375,-0.011719 0.199218,-0.023437 0.199218,-0.1875 0,-0.1289063 -0.117187,-0.1289063 -0.152343,-0.1289063 -0.410157,0 -0.832032,0.035156 -1.253907,0.035156 -0.246093,0 -0.867187,-0.035156 -1.113281,-0.035156 -0.05859,0 -0.1875,0 -0.1875,0.1992188 0,0.1171875 0.105469,0.1171875 0.234375,0.1171875 0.597656,0 0.65625,0.09375 0.75,0.3164062 l 1.171875,2.7773438 -2.097656,2.2617187 -0.128906,0.1054688 c -0.492188,0.52734373 -0.960938,0.69140623 -1.464844,0.72656248 -0.128906,0 -0.222656,0 -0.222656,0.19921875 0,0 0,0.105468745 0.128906,0.105468745 0.304687,0 0.632812,-0.035156245 0.9375,-0.035156245 0.363281,0 0.761719,0.035156245 1.113281,0.035156245 0.05859,0 0.175781,0 0.175781,-0.199218745 0,-0.10546875 -0.09375,-0.10546875 -0.117187,-0.10546875 -0.08203,-0.0117188 -0.398438,-0.0351563 -0.398438,-0.31640625 0,-0.15234375 0.152344,-0.31640625 0.269532,-0.44531253 l 1.019531,-1.078125 0.890625,-0.9726562 1.007812,2.37890623 c 0.04687,0.10546875 0.04687,0.1171875 0.04687,0.140625 0,0.0820313 -0.1875,0.24609375 -0.574218,0.29296875 -0.105469,0 -0.199219,0.0117188 -0.199219,0.1875 0,0.117187495 0.117187,0.117187495 0.152344,0.117187495 0.28125,0 0.972656,-0.035156245 1.253906,-0.035156245 0.246094,0 0.855469,0.035156245 1.101562,0.035156245 0.07031,0 0.199219,0 0.199219,-0.187499995 0,-0.1171875 -0.105469,-0.1171875 -0.1875,-0.1171875 -0.667969,-0.0117188 -0.679687,-0.046875 -0.855469,-0.4453125 -0.386718,-0.92578128 -1.054687,-2.47265628 -1.289062,-3.07031248 0.679687,-0.703125 1.734375,-1.8867188 2.050781,-2.1679688 0.28125,-0.234375 0.667969,-0.4804687 1.265625,-0.5039062 0.128906,-0.011719 0.210938,-0.011719 0.210938,-0.1992188 0,-0.011719 0,-0.1171875 -0.128907,-0.1171875 -0.292968,0 -0.621093,0.035156 -0.9375,0.035156 -0.363281,0 -0.738281,-0.035156 -1.101562,-0.035156 -0.05859,0 -0.1875,0 -0.1875,0.1992188 0,0.070312 0.04687,0.1054687 0.117187,0.1171875 0.09375,0.011719 0.398438,0.023437 0.398438,0.3046875 0,0.140625 -0.105469,0.2695312 -0.1875,0.3632812 z m 5.680664,4.07812503 c 0,-0.65625 -0.257812,-1.04296873 -0.644531,-1.04296873 -0.328125,0 -0.527344,0.24609373 -0.527344,0.52734373 0,0.26953125 0.199219,0.527343745 0.527344,0.527343745 0.117188,0 0.246094,-0.035156245 0.351563,-0.128906245 0.02344,-0.0234375 0.03516,-0.0351563 0.04687,-0.0351563 0.01172,0 0.02344,0.0117188 0.02344,0.15234375 0,0.73828125 -0.351562,1.33593742 -0.679687,1.66406242 -0.105469,0.1054688 -0.105469,0.1289063 -0.105469,0.1640625 0,0.070312 0.04687,0.1054688 0.09375,0.1054688 0.117187,0 0.914062,-0.7617188 0.914062,-1.93359372 z m 7.22168,-4.07812503 -0.832031,-1.9921875 c -0.03516,-0.070312 -0.04687,-0.1171875 -0.04687,-0.1289062 0,-0.058594 0.164062,-0.2460938 0.585937,-0.28125 0.09375,-0.011719 0.199219,-0.023437 0.199219,-0.1875 0,-0.1289063 -0.117187,-0.1289063 -0.152344,-0.1289063 -0.410156,0 -0.832031,0.035156 -1.253906,0.035156 -0.246094,0 -0.867187,-0.035156 -1.113281,-0.035156 -0.05859,0 -0.1875,0 -0.1875,0.1992188 0,0.1171875 0.105469,0.1171875 0.234375,0.1171875 0.597656,0 0.65625,0.09375 0.75,0.3164062 l 1.171875,2.7773438 -2.097656,2.2617187 -0.128907,0.1054688 c -0.492187,0.52734373 -0.960937,0.69140623 -1.464843,0.72656248 -0.128907,0 -0.222657,0 -0.222657,0.19921875 0,0 0,0.105468745 0.128907,0.105468745 0.304687,0 0.632812,-0.035156245 0.9375,-0.035156245 0.363281,0 0.761718,0.035156245 1.113281,0.035156245 0.05859,0 0.175781,0 0.175781,-0.199218745 0,-0.10546875 -0.09375,-0.10546875 -0.117187,-0.10546875 -0.08203,-0.0117188 -0.398438,-0.0351563 -0.398438,-0.31640625 0,-0.15234375 0.152344,-0.31640625 0.269531,-0.44531253 l 1.019532,-1.078125 0.890625,-0.9726562 1.007812,2.37890623 c 0.04687,0.10546875 0.04687,0.1171875 0.04687,0.140625 0,0.0820313 -0.1875,0.24609375 -0.574219,0.29296875 -0.105468,0 -0.199218,0.0117188 -0.199218,0.1875 0,0.117187495 0.117187,0.117187495 0.152343,0.117187495 0.28125,0 0.972657,-0.035156245 1.253907,-0.035156245 0.246093,0 0.855468,0.035156245 1.101562,0.035156245 0.07031,0 0.199219,0 0.199219,-0.187499995 0,-0.1171875 -0.105469,-0.1171875 -0.1875,-0.1171875 -0.667969,-0.0117188 -0.679688,-0.046875 -0.855469,-0.4453125 -0.386719,-0.92578128 -1.054687,-2.47265628 -1.289062,-3.07031248 0.679687,-0.703125 1.734375,-1.8867188 2.050781,-2.1679688 0.28125,-0.234375 0.667969,-0.4804687 1.265625,-0.5039062 0.128906,-0.011719 0.210937,-0.011719 0.210937,-0.1992188 0,-0.011719 0,-0.1171875 -0.128906,-0.1171875 -0.292969,0 -0.621094,0.035156 -0.9375,0.035156 -0.363281,0 -0.738281,-0.035156 -1.101562,-0.035156 -0.05859,0 -0.1875,0 -0.1875,0.1992188 0,0.070312 0.04687,0.1054687 0.117187,0.1171875 0.09375,0.011719 0.398438,0.023437 0.398438,0.3046875 0,0.140625 -0.105469,0.2695312 -0.1875,0.3632812 z m 0,0"
         style="fill:#000000;fill-opacity:1;fill-rule:nonzero;stroke:none" />
      <path
         id="path35"
         d="m 86.084617,-2.4953594 c 0,-0.7734375 -0.117187,-1.9804687 -0.65625,-3.1054687 -0.597656,-1.21875 -1.464844,-1.875 -1.558594,-1.875 -0.05859,0 -0.105468,0.046875 -0.105468,0.1054687 0,0.035156 0,0.046875 0.199218,0.234375 0.972657,0.984375 1.535157,2.5664063 1.535157,4.640625 0,1.71093753 -0.363282,3.45703128 -1.59375,4.7226563 -0.140625,0.1171875 -0.140625,0.1289062 -0.140625,0.1640625 0,0.058594 0.04687,0.1054687 0.105468,0.1054687 0.09375,0 0.996094,-0.6796875 1.582032,-1.94531247 0.503906,-1.1015625 0.632812,-2.20312503 0.632812,-3.04687503 z m 0,0"
         style="fill:#000000;fill-opacity:1;fill-rule:nonzero;stroke:none" />
    </g>
    <path
       id="path36"
       d="M -89.11137,26.34808 -24.91171,7.02003"
       style="fill:none;stroke:#000000;stroke-width:0.39848;stroke-linecap:butt;stroke-linejoin:miter;stroke-miterlimit:10;stroke-dasharray:none;stroke-opacity:1"
       transform="matrix(1.3333333,0,0,-1.3333333,221.97333,58.368)" />
    <path
       id="path37"
       d="M -2.07213,2.39091 C -1.69356,0.95633 -0.84995,0.27893 0,0 -0.84995,-0.27893 -1.69356,-0.95633 -2.07213,-2.39091"
       style="fill:none;stroke:#000000;stroke-width:0.39848;stroke-linecap:round;stroke-linejoin:round;stroke-miterlimit:10;stroke-dasharray:none;stroke-opacity:1"
       transform="matrix(1.2766533,0.38433333,0.38433333,-1.2766533,189.01205,49.084507)" />
    <path
       id="path38"
       d="m 2.8125937,-1.9907344 c 0.3515625,0.796875 0.75,1.80468752 0.8320313,1.89843752 0.1289062,0.1640625 0.2578125,0.1640625 0.3632812,0.1640625 h 0.140625 c 0.1289063,0 0.1992188,0 0.1992188,-0.08203125 0,-0.03515625 -0.023437,-0.05859375 -0.035156,-0.0703125 -0.082031,-0.08203125 -0.1523437,-0.234375 -0.1757812,-0.3046875 L 2.4375937,-4.3930781 C 2.379,-4.5219844 2.2500937,-4.8383906 1.5118125,-4.8383906 c -0.09375,0 -0.1875,0 -0.1875,0.09375 0,0.09375 0.070312,0.09375 0.1054687,0.1054687 0.140625,0.023437 0.28125,0.035156 0.4570313,0.4335938 l 0.8203125,1.9570312 -2.05078125,1.85156252 c -0.0820313,0.0703125 -0.140625,0.12890625 -0.140625,0.24609375 0,0.1640625 0.140625,0.234375 0.234375,0.234375 0.140625,0 0.22265625,-0.09375 0.234375,-0.10546875 z m 0,0"
       style="fill:#000000;fill-opacity:1;fill-rule:nonzero;stroke:none"
       aria-label="λ"
       transform="matrix(1.3333333,0,0,1.3333333,149.328,33.084)" />
    <path
       id="path39"
       d="M -118.37343,26.34808 V -25.9496"
       style="fill:none;stroke:#000000;stroke-width:0.39848;stroke-linecap:butt;stroke-linejoin:miter;stroke-miterlimit:10;stroke-dasharray:none;stroke-opacity:1"
       transform="matrix(1.3333333,0,0,-1.3333333,221.97333,58.368)" />
    <path
       id="path40"
       d="M -2.07213,2.39091 C -1.69356,0.95633 -0.84995,0.27893 0,0 -0.84995,-0.27893 -1.69356,-0.95633 -2.07213,-2.39091"
       style="fill:none;stroke:#000000;stroke-width:0.39848;stroke-linecap:round;stroke-linejoin:round;stroke-miterlimit:10;stroke-dasharray:none;stroke-opacity:1"
       transform="matrix(0,1.3333333,1.3333333,0,64.142093,93.233107)" />
    <g
       id="g40"
       aria-label="i&#10;Y&#10;⊗1&#10;C(X,Y)"
       transform="matrix(1.3333333,0,0,1.3333333,2.8493333,59.724)">
      <path
         id="path41"
         d="m 2.2604609,-4.3603828 c 0,-0.1054688 -0.082031,-0.2578125 -0.28125,-0.2578125 -0.1875,0 -0.3867187,0.1757812 -0.3867187,0.375 0,0.1171875 0.082031,0.2695312 0.2695312,0.2695312 0.2109375,0 0.3984375,-0.1992187 0.3984375,-0.3867187 z m -1.42968746,3.53906249 c -0.0234375,0.09375 -0.0585938,0.17578125 -0.0585938,0.29296875 0,0.328125 0.28124996,0.59765625 0.66796866,0.59765625 0.6914064,0 0.9960939,-0.9609375 0.9960939,-1.06640625 0,-0.09375 -0.082031,-0.09375 -0.1054689,-0.09375 -0.1054686,0 -0.1054686,0.046875 -0.140625,0.11718758 -0.1523436,0.5625 -0.4570312,0.84375 -0.7382812,0.84375 -0.140625,0 -0.1757813,-0.0820313 -0.1757813,-0.24609375 0,-0.15234375 0.058594,-0.29296875 0.1171875,-0.4453125 0.070312,-0.18750003 0.140625,-0.37500003 0.2226563,-0.55078133 0.058594,-0.1640625 0.3164062,-0.8085937 0.3398437,-0.890625 0.023437,-0.070312 0.046875,-0.1523437 0.046875,-0.2226562 0,-0.328125 -0.28125,-0.5859375 -0.6679687,-0.5859375 -0.69140631,0 -1.00781256,0.9492187 -1.00781256,1.0664062 0,0.082031 0.09375,0.082031 0.1171875,0.082031 0.09375,0 0.10546875,-0.035156 0.12890625,-0.1054688 0.17578125,-0.5976562 0.48046881,-0.8554687 0.73828131,-0.8554687 0.1171875,0 0.1757812,0.058594 0.1757812,0.2460937 0,0.1640625 -0.035156,0.2695313 -0.2109375,0.703125 z m 0,0"
         style="fill:#000000;fill-opacity:1;fill-rule:nonzero;stroke:none" />
      <path
         id="path42"
         d="m 6.7926875,-1.7763984 0.140625,-0.1171875 c 0.1289062,-0.1054688 0.328125,-0.2578125 0.6679687,-0.28125 0.070312,-0.011719 0.140625,-0.011719 0.140625,-0.140625 0,-0.070312 -0.058594,-0.082031 -0.070312,-0.082031 -0.070312,0 -0.1523437,0.011719 -0.234375,0.011719 -0.070312,0 -0.1523437,0 -0.234375,0 0,0 -0.2929687,0 -0.2929687,0 -0.082031,0 -0.1757813,-0.011719 -0.2695313,-0.011719 -0.058594,0 -0.1171875,0.035156 -0.1171875,0.140625 0,0.070312 0.058594,0.082031 0.09375,0.082031 0.1289063,0 0.1523438,0.035156 0.1523438,0.070312 0,0.070312 -0.1171875,0.1757812 -0.1523438,0.2109375 l -1.3125,1.26562496 -0.7734375,-1.41796876 c -0.035156,-0.046875 -0.035156,-0.058594 -0.035156,-0.070312 0,-0.058594 0.2226562,-0.058594 0.2578125,-0.058594 0.070312,0 0.1523437,0 0.1523437,-0.140625 0,-0.058594 -0.046875,-0.082031 -0.09375,-0.082031 -0.1054687,0 -0.234375,0.011719 -0.3515625,0.011719 -0.1171875,0 -0.2460937,0 -0.3632812,0 -0.1054688,0 -0.2109375,0 -0.3164063,0 -0.058594,0 -0.3164062,-0.011719 -0.3164062,-0.011719 -0.070312,0 -0.1171875,0.035156 -0.1171875,0.140625 0,0.082031 0.070312,0.082031 0.1523437,0.082031 0.3164063,0 0.3398438,0.035156 0.3984375,0.140625 l 0.9140625,1.67578121 -0.2226562,0.90234375 c -0.058594,0.22265625 -0.082031,0.234375 -0.4570313,0.234375 -0.1171875,0 -0.1875,0 -0.1875,0.140625 0,0.0351563 0.035156,0.0820312 0.082031,0.0820312 0.1054687,0 0.2226562,-0.0117187 0.3398437,-0.0117187 0.1171875,0 0.234375,-0.0117188 0.3515625,-0.0117188 0.1289063,0 0.2460938,0.0117188 0.375,0.0117188 0.1054688,0 0.234375,0.0117187 0.3398438,0.0117187 0.035156,0 0.1171875,0 0.1171875,-0.14062503 0,-0.0820313 -0.070312,-0.0820313 -0.1640625,-0.0820313 -0.011719,0 -0.1289063,0 -0.2109375,-0.0117188 -0.1289063,-0.0117188 -0.1289063,-0.0117188 -0.1289063,-0.0585938 0,-0.0351563 0,-0.0351563 0.058594,-0.26953125 l 0.1992187,-0.796875 z m 0,0"
         style="fill:#000000;fill-opacity:1;fill-rule:nonzero;stroke:none" />
      <path
         id="path43"
         d="m 14.491906,-1.7471016 c 0,-1.4296875 -1.160156,-2.5664062 -2.578125,-2.5664062 -1.417969,0 -2.566406,1.1601562 -2.566406,2.5664062 0,1.42968754 1.160156,2.56640629 2.566406,2.56640629 1.429688,0 2.578125,-1.16015625 2.578125,-2.56640629 z m -4.136719,-1.734375 c 0.28125,-0.2578125 0.820313,-0.5976562 1.558594,-0.5976562 0.738281,0 1.277344,0.3398437 1.570313,0.5976562 l -1.570313,1.5585938 z m -0.164062,3.29296879 C 9.8044062,-0.58694531 9.58175,-1.1728828 9.58175,-1.7471016 c 0,-0.609375 0.2460937,-1.1835937 0.609375,-1.5585937 l 1.558594,1.5585937 z m 3.457031,-3.11718749 c 0.386719,0.3984375 0.609375,0.984375 0.609375,1.5585937 0,0.609375 -0.246094,1.18359379 -0.609375,1.55859379 L 12.089562,-1.7471016 Z m -0.164062,3.29296874 c -0.292969,0.2578125 -0.832032,0.59765625 -1.570313,0.59765625 -0.738281,0 -1.277344,-0.33984375 -1.558594,-0.59765625 l 1.558594,-1.55859374 z m 0,0"
         style="fill:#000000;fill-opacity:1;fill-rule:nonzero;stroke:none" />
      <path
         id="path44"
         d="m 17.36593,-4.4306953 c 0,-0.1875 -0.01172,-0.1992188 -0.210938,-0.1992188 -0.445312,0.4335938 -1.078125,0.4453125 -1.359375,0.4453125 v 0.2460938 c 0.164063,0 0.621094,0 1.007813,-0.1875 v 3.55078124 c 0,0.234375 0,0.328125 -0.691407,0.328125 h -0.269531 v 0.24609375 c 0.128906,-0.01171875 0.984375,-0.0234375 1.242188,-0.0234375 0.210937,0 1.089843,0.01171875 1.242187,0.0234375 v -0.24609375 h -0.257812 c -0.703125,0 -0.703125,-0.09375 -0.703125,-0.328125 z m 0,0"
         style="fill:#000000;fill-opacity:1;fill-rule:nonzero;stroke:none" />
      <path
         id="path45"
         d="m 23.902062,-1.9931953 c 0,-0.1054688 0,-0.1757813 -0.152343,-0.1757813 -0.07031,0 -0.08203,0.011719 -0.140625,0.058594 l -0.339844,0.2929687 c -0.5625,-0.3515625 -1.148438,-0.3515625 -1.3125,-0.3515625 -1.710938,0 -2.460938,0.9023438 -2.460938,1.79296879 0,0.87890625 0.714844,1.79296871 2.472657,1.79296871 1.195312,0 1.933593,-0.55078121 1.933593,-1.23046871 0,-0.140625 -0.08203,-0.140625 -0.175781,-0.140625 h -0.07031 c -0.128907,0 -0.164063,0.01171875 -0.164063,0.1640625 -0.03516,0.5390625 -0.644531,0.87890621 -1.371094,0.87890621 -1.089843,0 -1.769531,-0.43359371 -1.769531,-1.46484371 0,-0.41015625 0.105469,-0.85546879 0.492188,-1.13671879 0.28125,-0.1757812 0.65625,-0.3164062 1.253906,-0.3164062 0.210937,0 0.527344,0.023437 0.867187,0.2578125 0.363282,0.2578125 0.433594,0.57421874 0.46875,0.74999999 0.02344,0.0820313 0.09375,0.0820313 0.175782,0.0820313 h 0.117187 c 0.152344,0 0.175781,-0.0234375 0.175781,-0.17578125 z m 0,0"
         style="fill:#000000;fill-opacity:1;fill-rule:nonzero;stroke:none" />
      <path
         id="path46"
         d="m 26.579797,-2.2861641 c 0,0 0.02344,-0.023437 0.02344,-0.046875 0,-0.023437 -0.01172,-0.070312 -0.09375,-0.070312 -0.09375,0 -1.371093,0.796875 -1.371093,2.49609379 0,1.68750001 1.277343,2.48437501 1.371093,2.48437501 0.08203,0 0.09375,-0.046875 0.09375,-0.070312 0,-0.035156 -0.02344,-0.046875 -0.04687,-0.058594 -0.878906,-0.703125 -1.042968,-1.71093746 -1.042968,-2.35546871 0,-1.21874999 0.574218,-2.02734379 1.066406,-2.37890629 z m 0,0"
         style="fill:#000000;fill-opacity:1;fill-rule:nonzero;stroke:none" />
      <path
         id="path47"
         d="m 30.329797,-0.56350781 1.066406,-0.94921879 c 0.292969,-0.2695312 0.5625,-0.3164062 0.855469,-0.328125 0.07031,-0.011719 0.105469,-0.09375 0.105469,-0.140625 0,-0.046875 -0.04687,-0.082031 -0.09375,-0.082031 -0.07031,0 -0.175782,0.011719 -0.257813,0.011719 -0.08203,0 -0.175781,0 -0.257812,0 -0.117188,0 -0.210938,0 -0.316407,0 -0.09375,0 -0.210937,-0.011719 -0.304687,-0.011719 -0.03516,0 -0.128906,0 -0.128906,0.140625 0,0.070312 0.05859,0.082031 0.105468,0.082031 0.07031,0 0.152344,0.023437 0.152344,0.09375 0,0.070312 -0.04687,0.1171875 -0.199219,0.2578125 l -0.832031,0.75000004 -0.609375,-1.01953124 c 0.08203,-0.058594 0.175781,-0.082031 0.269531,-0.082031 0.02344,0 0.117188,-0.011719 0.117188,-0.140625 0,-0.058594 -0.05859,-0.082031 -0.09375,-0.082031 -0.117188,0 -0.246094,0.011719 -0.363281,0.011719 -0.105469,0 -0.234375,0 -0.339844,0 -0.105469,0 -0.222656,0 -0.328125,0 -0.09375,0 -0.210938,-0.011719 -0.304688,-0.011719 -0.09375,0 -0.128906,0.058594 -0.128906,0.140625 0,0.082031 0.08203,0.082031 0.164063,0.082031 0.339843,0 0.363281,0.058594 0.410156,0.1289063 l 0.796875,1.33593749 -1.207031,1.08984375 c -0.01172,0.0234375 -0.05859,0.046875 -0.07031,0.0585938 -0.210937,0.1640625 -0.398437,0.32812496 -0.878906,0.33984366 -0.08203,0 -0.09375,0.1289063 -0.09375,0.140625 0,0.046875 0.04687,0.082031 0.08203,0.082031 0.08203,0 0.175781,-0.011719 0.269531,-0.011719 0.08203,0 0.164063,-0.011719 0.257813,-0.011719 0.105469,0 0.210937,0.011719 0.316406,0.011719 0.09375,0 0.210938,0.011719 0.304688,0.011719 0.07031,0 0.117187,-0.035156 0.117187,-0.140625 0,-0.082031 -0.07031,-0.082031 -0.09375,-0.082031 -0.140625,-0.011719 -0.152344,-0.070312 -0.152344,-0.1054687 0,-0.0468749 0.07031,-0.12890621 0.08203,-0.14062496 0.02344,-0.0351563 0.984375,-0.890625 1.171875,-1.06640625 l 0.691406,1.16015625 c 0.01172,0.0117188 0.03516,0.046875 0.03516,0.0585937 0,0.011719 -0.08203,0.082031 -0.269531,0.09375 -0.02344,0 -0.105469,0 -0.105469,0.140625 0,0.046875 0.03516,0.082031 0.08203,0.082031 0.117188,0 0.246094,-0.011719 0.363282,-0.011719 0.117187,0 0.234375,-0.011719 0.351562,-0.011719 0.105469,0 0.210938,0.011719 0.316406,0.011719 0.09375,0 0.210938,0.011719 0.316407,0.011719 0.08203,0 0.117187,-0.058594 0.117187,-0.140625 0,-0.082031 -0.08203,-0.082031 -0.164062,-0.082031 -0.328125,0 -0.351563,-0.058594 -0.398438,-0.12890617 z m 3.682617,1.82812501 c 0,0.4804687 -0.257812,0.75 -0.398437,0.8671875 -0.04687,0.035156 -0.05859,0.046875 -0.05859,0.082031 0,0.023437 0.04687,0.082031 0.09375,0.082031 0.05859,0 0.527344,-0.3867188 0.527344,-1.0078125 0,-0.33984376 -0.152344,-0.56250001 -0.375,-0.56250001 -0.1875,0 -0.304688,0.15234375 -0.304688,0.30468751 0,0.1640625 0.117188,0.3046875 0.304688,0.3046875 0.08203,0 0.152343,-0.023437 0.210937,-0.070312 z m 4.907227,-2.7070313 0.140625,-0.1171875 c 0.128906,-0.1054687 0.328125,-0.2578125 0.667968,-0.28125 0.07031,-0.011719 0.140625,-0.011719 0.140625,-0.140625 0,-0.070313 -0.05859,-0.082031 -0.07031,-0.082031 -0.07031,0 -0.152344,0.011719 -0.234375,0.011719 -0.07031,0 -0.152344,0 -0.234375,0 0,0 -0.292969,0 -0.292969,0 -0.08203,0 -0.175781,-0.011719 -0.269531,-0.011719 -0.05859,0 -0.117188,0.035156 -0.117188,0.140625 0,0.070312 0.05859,0.082031 0.09375,0.082031 0.128907,0 0.152344,0.035156 0.152344,0.070312 0,0.070312 -0.117187,0.1757813 -0.152344,0.2109375 l -1.3125,1.26562504 -0.773437,-1.41796874 c -0.03516,-0.046875 -0.03516,-0.058594 -0.03516,-0.070312 0,-0.058594 0.222656,-0.058594 0.257812,-0.058594 0.07031,0 0.152344,0 0.152344,-0.140625 0,-0.058594 -0.04687,-0.082031 -0.09375,-0.082031 -0.105469,0 -0.234375,0.011719 -0.351563,0.011719 -0.117187,0 -0.246093,0 -0.363281,0 -0.105469,0 -0.210937,0 -0.316406,0 -0.05859,0 -0.316406,-0.011719 -0.316406,-0.011719 -0.07031,0 -0.117188,0.035156 -0.117188,0.140625 0,0.082031 0.07031,0.082031 0.152344,0.082031 0.316406,0 0.339844,0.035156 0.398437,0.140625 l 0.914063,1.67578129 -0.222656,0.90234375 c -0.05859,0.22265626 -0.08203,0.23437496 -0.457032,0.23437496 -0.117187,0 -0.1875,0 -0.1875,0.140625 0,0.035156 0.03516,0.082031 0.08203,0.082031 0.105468,0 0.222656,-0.011719 0.339843,-0.011719 0.117188,0 0.234375,-0.011719 0.351563,-0.011719 0.128906,0 0.246094,0.011719 0.375,0.011719 0.105469,0 0.234375,0.011719 0.339844,0.011719 0.03516,0 0.117187,0 0.117187,-0.140625 0,-0.082031 -0.07031,-0.082031 -0.164062,-0.082031 -0.01172,0 -0.128907,0 -0.210938,-0.011719 -0.128906,-0.011719 -0.128906,-0.011719 -0.128906,-0.058594 0,-0.035156 0,-0.035156 0.05859,-0.26953121 l 0.199218,-0.796875 z m 0,0"
         style="fill:#000000;fill-opacity:1;fill-rule:nonzero;stroke:none" />
      <path
         id="path48"
         d="m 42.382531,0.09274219 c 0,-1.68749999 -1.277344,-2.49609379 -1.382812,-2.49609379 -0.07031,0 -0.07031,0.058594 -0.07031,0.070312 0,0.011719 0,0.035156 0.02344,0.070312 0.75,0.5859375 1.042968,1.45312504 1.042968,2.35546879 0,0.4453125 -0.08203,0.91406251 -0.246093,1.32421871 -0.246094,0.5625 -0.550782,0.84375 -0.796875,1.0429688 -0.01172,0 -0.02344,0.035156 -0.02344,0.046875 0,0.011719 0,0.070312 0.07031,0.070312 0.105468,0 1.382812,-0.796875 1.382812,-2.48437501 z m 0,0"
         style="fill:#000000;fill-opacity:1;fill-rule:nonzero;stroke:none" />
    </g>
    <path
       id="path49"
       d="M 87.12688,26.34808 21.72963,6.91995"
       style="fill:none;stroke:#000000;stroke-width:0.39848;stroke-linecap:butt;stroke-linejoin:miter;stroke-miterlimit:10;stroke-dasharray:none;stroke-opacity:1"
       transform="matrix(1.3333333,0,0,-1.3333333,221.97333,58.368)" />
    <path
       id="path50"
       d="M -2.07213,2.39091 C -1.69356,0.95633 -0.84995,0.27893 0,0 -0.84995,-0.27893 -1.69356,-0.95633 -2.07213,-2.39091"
       style="fill:none;stroke:#000000;stroke-width:0.39848;stroke-linecap:round;stroke-linejoin:round;stroke-miterlimit:10;stroke-dasharray:none;stroke-opacity:1"
       transform="matrix(-1.27804,0.37968,0.37968,1.27804,250.69153,49.21704)" />
    <path
       id="path51"
       d="m 0.37604687,1.1238828 c -0.0234375,0.1054688 -0.0234375,0.140625 -0.0234375,0.140625 0,0.1523438 0.1171875,0.2226563 0.234375,0.2226563 0.24609375,0 0.3046875,-0.2109375 0.3515625,-0.4335938 0.10546873,-0.35156249 0.29296873,-1.14843749 0.36328123,-1.41796874 0.070312,0.10546875 0.2929688,0.43359375 0.7734375,0.43359375 0.890625,0 1.8398438,-0.94921875 1.8398438,-1.96875001 0,-0.7382812 -0.4921875,-1.171875 -1.1132813,-1.171875 -0.6796875,0 -1.5234375,0.5976563 -1.7695312,1.5820313 z M 2.0635469,-0.13002344 c -0.515625,0 -0.6679688,-0.515625 -0.6679688,-0.59765625 0,-0.0234375 0.046875,-0.17578125 0.058594,-0.2578125 0.2109375,-0.85546871 0.2578125,-1.01953121 0.4570312,-1.32421871 0.2460938,-0.3632813 0.5976563,-0.5742188 0.8789063,-0.5742188 0.28125,0 0.5625,0.2109375 0.5625,0.703125 0,0.328125 -0.1875,1.1015625 -0.3984375,1.45312501 -0.328125,0.4921875 -0.6679688,0.59765625 -0.8906252,0.59765625 z m 0,0"
       style="fill:#000000;fill-opacity:1;fill-rule:nonzero;stroke:none"
       aria-label="ρ"
       transform="matrix(1.3333333,0,0,1.3333333,285.66267,31.341333)" />
    <path
       id="path52"
       d="M 116.78218,26.34808 V -25.9496"
       style="fill:none;stroke:#000000;stroke-width:0.39848;stroke-linecap:butt;stroke-linejoin:miter;stroke-miterlimit:10;stroke-dasharray:none;stroke-opacity:1"
       transform="matrix(1.3333333,0,0,-1.3333333,221.97333,58.368)" />
    <path
       id="path53"
       d="M -2.07213,2.39091 C -1.69356,0.95633 -0.84995,0.27893 0,0 -0.84995,-0.27893 -1.69356,-0.95633 -2.07213,-2.39091"
       style="fill:none;stroke:#000000;stroke-width:0.39848;stroke-linecap:round;stroke-linejoin:round;stroke-miterlimit:10;stroke-dasharray:none;stroke-opacity:1"
       transform="matrix(0,1.3333333,1.3333333,0,377.68291,93.233107)" />
    <g
       id="g53"
       aria-label="1&#10;C(X,Y)&#10;⊗i&#10;X"
       transform="matrix(1.3333333,0,0,1.3333333,380.796,59.724)">
      <path
         id="path54"
         d="m 2.3326875,-4.4306953 c 0,-0.1875 -0.011719,-0.1992188 -0.2109375,-0.1992188 -0.4453125,0.4335938 -1.078125,0.4453125 -1.359375,0.4453125 v 0.2460938 c 0.1640625,0 0.6210937,0 1.0078125,-0.1875 v 3.55078124 c 0,0.234375 0,0.328125 -0.6914063,0.328125 H 0.80925 v 0.24609375 c 0.12890625,-0.01171875 0.984375,-0.0234375 1.2421875,-0.0234375 0.2109375,0 1.0898437,0.01171875 1.2421875,0.0234375 V -0.24710156 H 3.0358125 c -0.703125,0 -0.703125,-0.09375 -0.703125,-0.328125 z m 0,0"
         style="fill:#000000;fill-opacity:1;fill-rule:nonzero;stroke:none" />
      <path
         id="path55"
         d="m 8.8688203,-1.9931953 c 0,-0.1054688 0,-0.1757813 -0.1523437,-0.1757813 -0.070312,0 -0.082031,0.011719 -0.140625,0.058594 l -0.3398438,0.2929687 c -0.5625,-0.3515625 -1.1484375,-0.3515625 -1.3125,-0.3515625 -1.7109375,0 -2.4609375,0.9023438 -2.4609375,1.79296879 0,0.87890625 0.7148438,1.79296871 2.4726563,1.79296871 1.1953125,0 1.9335937,-0.55078121 1.9335937,-1.23046871 0,-0.140625 -0.082031,-0.140625 -0.1757812,-0.140625 h -0.070312 c -0.1289063,0 -0.1640625,0.01171875 -0.1640625,0.1640625 -0.035156,0.5390625 -0.6445313,0.87890621 -1.3710938,0.87890621 -1.0898437,0 -1.7695312,-0.43359371 -1.7695312,-1.46484371 0,-0.41015625 0.1054687,-0.85546879 0.4921875,-1.13671879 0.28125,-0.1757812 0.65625,-0.3164062 1.2539062,-0.3164062 0.2109375,0 0.5273438,0.023437 0.8671875,0.2578125 0.3632813,0.2578125 0.4335938,0.57421874 0.46875,0.74999999 0.023437,0.0820313 0.09375,0.0820313 0.1757813,0.0820313 h 0.1171875 c 0.1523437,0 0.1757812,-0.0234375 0.1757812,-0.17578125 z m 0,0"
         style="fill:#000000;fill-opacity:1;fill-rule:nonzero;stroke:none" />
      <path
         id="path56"
         d="m 11.543625,-2.2861641 c 0,0 0.02344,-0.023437 0.02344,-0.046875 0,-0.023437 -0.01172,-0.070312 -0.09375,-0.070312 -0.09375,0 -1.371093,0.796875 -1.371093,2.49609379 0,1.68750001 1.277343,2.48437501 1.371093,2.48437501 0.08203,0 0.09375,-0.046875 0.09375,-0.070312 0,-0.035156 -0.02344,-0.046875 -0.04687,-0.058594 -0.878906,-0.703125 -1.042968,-1.71093746 -1.042968,-2.35546871 0,-1.21874999 0.574218,-2.02734379 1.066406,-2.37890629 z m 0,0"
         style="fill:#000000;fill-opacity:1;fill-rule:nonzero;stroke:none" />
      <path
         id="path57"
         d="m 15.299484,-0.56350781 1.066407,-0.94921879 c 0.292968,-0.2695312 0.5625,-0.3164062 0.855468,-0.328125 0.07031,-0.011719 0.105469,-0.09375 0.105469,-0.140625 0,-0.046875 -0.04687,-0.082031 -0.09375,-0.082031 -0.07031,0 -0.175781,0.011719 -0.257812,0.011719 -0.08203,0 -0.175782,0 -0.257813,0 -0.117187,0 -0.210937,0 -0.316406,0 -0.09375,0 -0.210938,-0.011719 -0.304688,-0.011719 -0.03516,0 -0.128906,0 -0.128906,0.140625 0,0.070312 0.05859,0.082031 0.105469,0.082031 0.07031,0 0.152344,0.023437 0.152344,0.09375 0,0.070312 -0.04687,0.1171875 -0.199219,0.2578125 l -0.832031,0.75000004 -0.609375,-1.01953124 c 0.08203,-0.058594 0.175781,-0.082031 0.269531,-0.082031 0.02344,0 0.117187,-0.011719 0.117187,-0.140625 0,-0.058594 -0.05859,-0.082031 -0.09375,-0.082031 -0.117187,0 -0.246093,0.011719 -0.363281,0.011719 -0.105469,0 -0.234375,0 -0.339844,0 -0.105468,0 -0.222656,0 -0.328125,0 -0.09375,0 -0.210937,-0.011719 -0.304687,-0.011719 -0.09375,0 -0.128906,0.058594 -0.128906,0.140625 0,0.082031 0.08203,0.082031 0.164062,0.082031 0.339844,0 0.363281,0.058594 0.410156,0.1289063 l 0.796875,1.33593749 -1.207031,1.08984375 c -0.01172,0.0234375 -0.05859,0.046875 -0.07031,0.0585938 -0.210938,0.1640625 -0.398438,0.32812496 -0.878907,0.33984366 -0.08203,0 -0.09375,0.1289063 -0.09375,0.140625 0,0.046875 0.04687,0.082031 0.08203,0.082031 0.08203,0 0.175781,-0.011719 0.269531,-0.011719 0.08203,0 0.164062,-0.011719 0.257812,-0.011719 0.105469,0 0.210938,0.011719 0.316407,0.011719 0.09375,0 0.210937,0.011719 0.304687,0.011719 0.07031,0 0.117188,-0.035156 0.117188,-0.140625 0,-0.082031 -0.07031,-0.082031 -0.09375,-0.082031 -0.140625,-0.011719 -0.152344,-0.070312 -0.152344,-0.1054687 0,-0.0468749 0.07031,-0.12890621 0.08203,-0.14062496 0.02344,-0.0351563 0.984375,-0.890625 1.171875,-1.06640625 l 0.691406,1.16015625 c 0.01172,0.0117188 0.03516,0.046875 0.03516,0.0585937 0,0.011719 -0.08203,0.082031 -0.269532,0.09375 -0.02344,0 -0.105468,0 -0.105468,0.140625 0,0.046875 0.03516,0.082031 0.08203,0.082031 0.117187,0 0.246094,-0.011719 0.363281,-0.011719 0.117188,0 0.234375,-0.011719 0.351563,-0.011719 0.105468,0 0.210937,0.011719 0.316406,0.011719 0.09375,0 0.210937,0.011719 0.316406,0.011719 0.08203,0 0.117188,-0.058594 0.117188,-0.140625 0,-0.082031 -0.08203,-0.082031 -0.164063,-0.082031 -0.328125,0 -0.351562,-0.058594 -0.398437,-0.12890617 z m 3.679688,1.82812501 c 0,0.4804687 -0.257813,0.75 -0.398438,0.8671875 -0.04687,0.035156 -0.05859,0.046875 -0.05859,0.082031 0,0.023437 0.04687,0.082031 0.09375,0.082031 0.05859,0 0.527343,-0.3867188 0.527343,-1.0078125 0,-0.33984376 -0.152343,-0.56250001 -0.375,-0.56250001 -0.1875,0 -0.304687,0.15234375 -0.304687,0.30468751 0,0.1640625 0.117187,0.3046875 0.304687,0.3046875 0.08203,0 0.152344,-0.023437 0.210938,-0.070312 z m 4.907226,-2.7070313 0.140625,-0.1171875 c 0.128907,-0.1054687 0.328125,-0.2578125 0.667969,-0.28125 0.07031,-0.011719 0.140625,-0.011719 0.140625,-0.140625 0,-0.070313 -0.05859,-0.082031 -0.07031,-0.082031 -0.07031,0 -0.152344,0.011719 -0.234375,0.011719 -0.07031,0 -0.152344,0 -0.234375,0 0,0 -0.292969,0 -0.292969,0 -0.08203,0 -0.175781,-0.011719 -0.269531,-0.011719 -0.05859,0 -0.117188,0.035156 -0.117188,0.140625 0,0.070312 0.05859,0.082031 0.09375,0.082031 0.128906,0 0.152344,0.035156 0.152344,0.070312 0,0.070312 -0.117188,0.1757813 -0.152344,0.2109375 l -1.3125,1.26562504 -0.773437,-1.41796874 c -0.03516,-0.046875 -0.03516,-0.058594 -0.03516,-0.070312 0,-0.058594 0.222657,-0.058594 0.257813,-0.058594 0.07031,0 0.152344,0 0.152344,-0.140625 0,-0.058594 -0.04687,-0.082031 -0.09375,-0.082031 -0.105469,0 -0.234375,0.011719 -0.351563,0.011719 -0.117187,0 -0.246094,0 -0.363281,0 -0.105469,0 -0.210938,0 -0.316406,0 -0.05859,0 -0.316407,-0.011719 -0.316407,-0.011719 -0.07031,0 -0.117187,0.035156 -0.117187,0.140625 0,0.082031 0.07031,0.082031 0.152344,0.082031 0.316406,0 0.339843,0.035156 0.398437,0.140625 l 0.914063,1.67578129 -0.222657,0.90234375 c -0.05859,0.22265626 -0.08203,0.23437496 -0.457031,0.23437496 -0.117187,0 -0.1875,0 -0.1875,0.140625 0,0.035156 0.03516,0.082031 0.08203,0.082031 0.105469,0 0.222657,-0.011719 0.339844,-0.011719 0.117188,0 0.234375,-0.011719 0.351563,-0.011719 0.128906,0 0.246093,0.011719 0.375,0.011719 0.105468,0 0.234375,0.011719 0.339843,0.011719 0.03516,0 0.117188,0 0.117188,-0.140625 0,-0.082031 -0.07031,-0.082031 -0.164063,-0.082031 -0.01172,0 -0.128906,0 -0.210937,-0.011719 -0.128906,-0.011719 -0.128906,-0.011719 -0.128906,-0.058594 0,-0.035156 0,-0.035156 0.05859,-0.26953121 l 0.199219,-0.796875 z m 0,0"
         style="fill:#000000;fill-opacity:1;fill-rule:nonzero;stroke:none" />
      <path
         id="path58"
         d="m 27.349289,0.09274219 c 0,-1.68749999 -1.277344,-2.49609379 -1.382812,-2.49609379 -0.07031,0 -0.07031,0.058594 -0.07031,0.070312 0,0.011719 0,0.035156 0.02344,0.070312 0.75,0.5859375 1.042968,1.45312504 1.042968,2.35546879 0,0.4453125 -0.08203,0.91406251 -0.246093,1.32421871 -0.246094,0.5625 -0.550782,0.84375 -0.796875,1.0429688 -0.01172,0 -0.02344,0.035156 -0.02344,0.046875 0,0.011719 0,0.070312 0.07031,0.070312 0.105468,0 1.382812,-0.796875 1.382812,-2.48437501 z m 0,0"
         style="fill:#000000;fill-opacity:1;fill-rule:nonzero;stroke:none" />
      <path
         id="path59"
         d="m 34.283859,-1.7471016 c 0,-1.4296875 -1.160156,-2.5664062 -2.578125,-2.5664062 -1.417968,0 -2.566406,1.1601562 -2.566406,2.5664062 0,1.42968754 1.160156,2.56640629 2.566406,2.56640629 1.429688,0 2.578125,-1.16015625 2.578125,-2.56640629 z m -4.136718,-1.734375 c 0.28125,-0.2578125 0.820312,-0.5976562 1.558593,-0.5976562 0.738282,0 1.277344,0.3398437 1.570313,0.5976562 l -1.570313,1.5585938 z m -0.164063,3.29296879 c -0.386719,-0.3984375 -0.609375,-0.98437499 -0.609375,-1.55859379 0,-0.609375 0.246094,-1.1835937 0.609375,-1.5585937 l 1.558594,1.5585937 z m 3.457031,-3.11718749 c 0.386719,0.3984375 0.609375,0.984375 0.609375,1.5585937 0,0.609375 -0.246093,1.18359379 -0.609375,1.55859379 L 31.881516,-1.7471016 Z m -0.164062,3.29296874 c -0.292969,0.2578125 -0.832031,0.59765625 -1.570313,0.59765625 -0.738281,0 -1.277343,-0.33984375 -1.558593,-0.59765625 l 1.558593,-1.55859374 z m 0,0"
         style="fill:#000000;fill-opacity:1;fill-rule:nonzero;stroke:none" />
      <path
         id="path60"
         d="m 37.0905,-4.3603828 c 0,-0.1054688 -0.08203,-0.2578125 -0.28125,-0.2578125 -0.1875,0 -0.386719,0.1757812 -0.386719,0.375 0,0.1171875 0.08203,0.2695312 0.269531,0.2695312 0.210938,0 0.398438,-0.1992187 0.398438,-0.3867187 z m -1.429688,3.53906249 c -0.02344,0.09375 -0.05859,0.17578125 -0.05859,0.29296875 0,0.328125 0.28125,0.59765625 0.667968,0.59765625 0.691407,0 0.996094,-0.9609375 0.996094,-1.06640625 0,-0.09375 -0.08203,-0.09375 -0.105469,-0.09375 -0.105468,0 -0.105468,0.046875 -0.140625,0.11718758 -0.152343,0.5625 -0.457031,0.84375 -0.738281,0.84375 -0.140625,0 -0.175781,-0.0820313 -0.175781,-0.24609375 0,-0.15234375 0.05859,-0.29296875 0.117187,-0.4453125 0.07031,-0.18750003 0.140625,-0.37500003 0.222657,-0.55078133 0.05859,-0.1640625 0.316406,-0.8085937 0.339843,-0.890625 0.02344,-0.070312 0.04687,-0.1523437 0.04687,-0.2226562 0,-0.328125 -0.28125,-0.5859375 -0.667968,-0.5859375 -0.691407,0 -1.007813,0.9492187 -1.007813,1.0664062 0,0.082031 0.09375,0.082031 0.117188,0.082031 0.09375,0 0.105468,-0.035156 0.128906,-0.1054688 0.175781,-0.5976562 0.480469,-0.8554687 0.738281,-0.8554687 0.117188,0 0.175781,0.058594 0.175781,0.2460937 0,0.1640625 -0.03516,0.2695313 -0.210937,0.703125 z m 0,0"
         style="fill:#000000;fill-opacity:1;fill-rule:nonzero;stroke:none" />
      <path
         id="path61"
         d="m 40.893234,-0.89749219 1.066407,-0.94921871 c 0.292968,-0.2695313 0.5625,-0.3164063 0.855468,-0.328125 0.07031,-0.011719 0.105469,-0.09375 0.105469,-0.140625 0,-0.046875 -0.04687,-0.082031 -0.09375,-0.082031 -0.07031,0 -0.175781,0.011719 -0.257812,0.011719 -0.08203,0 -0.175782,0 -0.257813,0 -0.117187,0 -0.210937,0 -0.316406,0 -0.09375,0 -0.210938,-0.011719 -0.304688,-0.011719 -0.03516,0 -0.128906,0 -0.128906,0.140625 0,0.070312 0.05859,0.082031 0.105469,0.082031 0.07031,0 0.152344,0.023437 0.152344,0.09375 0,0.070312 -0.04687,0.1171875 -0.199219,0.2578125 l -0.832031,0.75 -0.609375,-1.0195313 c 0.08203,-0.058594 0.175781,-0.082031 0.269531,-0.082031 0.02344,0 0.117187,-0.011719 0.117187,-0.140625 0,-0.058594 -0.05859,-0.082031 -0.09375,-0.082031 -0.117187,0 -0.246093,0.011719 -0.363281,0.011719 -0.105469,0 -0.234375,0 -0.339844,0 -0.105468,0 -0.222656,0 -0.328125,0 -0.09375,0 -0.210937,-0.011719 -0.304687,-0.011719 -0.09375,0 -0.128906,0.058594 -0.128906,0.140625 0,0.082031 0.08203,0.082031 0.164062,0.082031 0.339844,0 0.363281,0.058594 0.410156,0.1289062 l 0.796875,1.33593751 -1.207031,1.08984375 c -0.01172,0.0234375 -0.05859,0.046875 -0.07031,0.0585938 -0.210938,0.1640625 -0.398438,0.328125 -0.878907,0.33984375 -0.08203,0 -0.09375,0.12890625 -0.09375,0.140625 0,0.046875 0.04687,0.0820312 0.08203,0.0820312 0.08203,0 0.175781,-0.0117187 0.269531,-0.0117187 0.08203,0 0.164062,-0.0117188 0.257812,-0.0117188 0.105469,0 0.210938,0.0117188 0.316407,0.0117188 0.09375,0 0.210937,0.0117187 0.304687,0.0117187 0.07031,0 0.117188,-0.0351562 0.117188,-0.14062498 0,-0.0820313 -0.07031,-0.0820313 -0.09375,-0.0820313 -0.140625,-0.0117188 -0.152344,-0.0703125 -0.152344,-0.10546875 0,-0.046875 0.07031,-0.12890625 0.08203,-0.140625 0.02344,-0.0351563 0.984375,-0.890625 1.171875,-1.06640625 l 0.691406,1.16015625 c 0.01172,0.0117188 0.03516,0.046875 0.03516,0.0585938 0,0.0117188 -0.08203,0.0820313 -0.269532,0.09375 -0.02344,0 -0.105468,0 -0.105468,0.140625 0,0.046875 0.03516,0.0820312 0.08203,0.0820312 0.117187,0 0.246094,-0.0117187 0.363281,-0.0117187 0.117188,0 0.234375,-0.0117188 0.351563,-0.0117188 0.105468,0 0.210937,0.0117188 0.316406,0.0117188 0.09375,0 0.210937,0.0117187 0.316406,0.0117187 0.08203,0 0.117188,-0.0585937 0.117188,-0.14062502 0,-0.0820313 -0.08203,-0.0820313 -0.164063,-0.0820313 -0.328125,0 -0.351562,-0.0585938 -0.398437,-0.12890625 z m 0,0"
         style="fill:#000000;fill-opacity:1;fill-rule:nonzero;stroke:none" />
    </g>
    <path
       id="path62"
       d="m -89.11137,-26.34808 64.19966,19.32805"
       style="fill:none;stroke:#000000;stroke-width:0.39848;stroke-linecap:butt;stroke-linejoin:miter;stroke-miterlimit:10;stroke-dasharray:none;stroke-opacity:1"
       transform="matrix(1.3333333,0,0,-1.3333333,221.97333,58.368)" />
    <path
       id="path63"
       d="M -2.07213,2.39091 C -1.69356,0.95633 -0.84995,0.27893 0,0 -0.84995,-0.27893 -1.69356,-0.95633 -2.07213,-2.39091"
       style="fill:none;stroke:#000000;stroke-width:0.39848;stroke-linecap:round;stroke-linejoin:round;stroke-miterlimit:10;stroke-dasharray:none;stroke-opacity:1"
       transform="matrix(1.2766533,-0.38433333,-0.38433333,-1.2766533,189.01205,67.651493)" />
    <path
       id="path64"
       d="m 3.0235312,-0.5613125 c -0.035156,0.140625 -0.09375,0.375 -0.09375,0.41015625 0,0.15234375 0.1289063,0.22265625 0.234375,0.22265625 0.1289063,0 0.234375,-0.09375 0.2695313,-0.15234375 0.035156,-0.05859375 0.09375,-0.29296875 0.1289062,-0.43359375 0.035156,-0.12890625 0.1171875,-0.45703125 0.1523438,-0.6328125 0.046875,-0.1523437 0.082031,-0.3046875 0.1171875,-0.4570312 0.082031,-0.3046875 0.082031,-0.3164063 0.2226562,-0.5390625 0.2226563,-0.3398438 0.5625,-0.7382813 1.1132813,-0.7382813 0.3867187,0 0.4101562,0.328125 0.4101562,0.4921875 0,0.421875 -0.3046875,1.1953125 -0.4101562,1.48828125 -0.082031,0.1875 -0.1054688,0.2578125 -0.1054688,0.375 0,0.36328125 0.3046875,0.59765625 0.65625,0.59765625 0.703125,0 1.0078125,-0.9609375 1.0078125,-1.06640625 0,-0.0937498 -0.09375,-0.0937498 -0.1054687,-0.0937498 -0.1054688,0 -0.1054688,0.046875 -0.140625,0.1171874 -0.1523438,0.5625 -0.4570313,0.84375 -0.7382813,0.84375 -0.140625,0 -0.1757812,-0.09375 -0.1757812,-0.24609375 0,-0.15234375 0.035156,-0.24609375 0.1640625,-0.5625 0.082031,-0.21093745 0.375,-0.94921865 0.375,-1.34765625 0,-0.1054688 0,-0.3984375 -0.2578125,-0.5976563 -0.1289063,-0.09375 -0.328125,-0.1875 -0.65625,-0.1875 -0.6210938,0 -1.0078125,0.4101563 -1.2304688,0.703125 -0.058594,-0.5976562 -0.5507812,-0.703125 -0.9023437,-0.703125 -0.5859375,0 -0.9726563,0.3515625 -1.1835938,0.6328125 -0.046875,-0.4804687 -0.4570312,-0.6328125 -0.75,-0.6328125 -0.2929687,0 -0.4570312,0.2109375 -0.5507812,0.375 -0.15234375,0.2578125 -0.24609375,0.65625 -0.24609375,0.6914063 0,0.082031 0.09375,0.082031 0.1171875,0.082031 0.09375,0 0.10546875,-0.011719 0.15234375,-0.1992187 0.10546875,-0.421875 0.234375,-0.7617188 0.515625,-0.7617188 0.1757812,0 0.2226562,0.1523438 0.2226562,0.3398438 0,0.140625 -0.058594,0.3984375 -0.1054687,0.5859375 -0.046875,0.1875 -0.1171875,0.46875 -0.1523438,0.6210937 L 0.8555625,-0.43240625 C 0.82040625,-0.350375 0.78525,-0.17459375 0.78525,-0.15115625 0.78525,0.0011875 0.9024375,0.0715 1.019625,0.0715 c 0.1289062,0 0.234375,-0.09375 0.2695312,-0.15234375 0.035156,-0.05859375 0.09375,-0.29296875 0.1289063,-0.43359375 0.035156,-0.12890625 0.1054687,-0.45703125 0.1523437,-0.6328125 0.035156,-0.1523437 0.082031,-0.3046875 0.1171875,-0.4570312 0.082031,-0.2929688 0.09375,-0.3515625 0.2929688,-0.6328125 0.1992187,-0.28125 0.5273437,-0.6445313 1.0429687,-0.6445313 0.4101563,0 0.4101563,0.3632813 0.4101563,0.4921875 0,0.1757813 -0.011719,0.2695313 -0.1171875,0.65625 z m 0,0"
       style="fill:#000000;fill-opacity:1;fill-rule:nonzero;stroke:none"
       aria-label="m"
       transform="matrix(1.3333333,0,0,1.3333333,149.328,87.654667)" />
    <path
       id="path65"
       d="M 87.12688,-26.34808 21.72963,-6.91995"
       style="fill:none;stroke:#000000;stroke-width:0.39848;stroke-linecap:butt;stroke-linejoin:miter;stroke-miterlimit:10;stroke-dasharray:none;stroke-opacity:1"
       transform="matrix(1.3333333,0,0,-1.3333333,221.97333,58.368)" />
    <path
       id="path66"
       d="M -2.07213,2.39091 C -1.69356,0.95633 -0.84995,0.27893 0,0 -0.84995,-0.27893 -1.69356,-0.95633 -2.07213,-2.39091"
       style="fill:none;stroke:#000000;stroke-width:0.39848;stroke-linecap:round;stroke-linejoin:round;stroke-miterlimit:10;stroke-dasharray:none;stroke-opacity:1"
       transform="matrix(-1.27804,-0.37968,-0.37968,1.27804,250.69153,67.51896)" />
    <path
       id="path67"
       d="m 3.0221953,-0.56189844 c -0.035156,0.140625 -0.09375,0.375 -0.09375,0.41015625 0,0.1523437525 0.1289063,0.22265625 0.234375,0.22265625 0.1289063,0 0.234375,-0.09375 0.2695313,-0.15234375 0.035156,-0.05859375 0.09375,-0.29296875 0.1289062,-0.43359375 0.035156,-0.12890625 0.1171875,-0.45703125 0.1523438,-0.63281246 0.046875,-0.1523438 0.082031,-0.3046875 0.1171875,-0.4570313 0.082031,-0.3046875 0.082031,-0.3164062 0.2226562,-0.5390625 0.2226563,-0.3398437 0.5625,-0.7382812 1.1132813,-0.7382812 0.3867187,0 0.4101562,0.328125 0.4101562,0.4921875 0,0.421875 -0.3046875,1.1953125 -0.4101562,1.48828121 -0.082031,0.1875 -0.1054688,0.2578125 -0.1054688,0.375 0,0.36328125 0.3046875,0.59765625 0.65625,0.59765625 0.703125,0 1.0078125,-0.9609375 1.0078125,-1.06640625 0,-0.09375 -0.09375,-0.09375 -0.1054687,-0.09375 -0.1054688,0 -0.1054688,0.046875 -0.140625,0.11718752 -0.1523438,0.5625 -0.4570313,0.84375 -0.7382813,0.84375 -0.140625,0 -0.1757812,-0.09375 -0.1757812,-0.24609375 0,-0.15234375 0.035156,-0.24609375 0.1640625,-0.5625 0.082031,-0.21093747 0.375,-0.94921877 0.375,-1.34765627 0,-0.1054687 0,-0.3984375 -0.2578125,-0.5976562 -0.1289063,-0.09375 -0.328125,-0.1875 -0.65625,-0.1875 -0.6210938,0 -1.0078125,0.4101562 -1.2304688,0.703125 -0.058594,-0.5976563 -0.5507812,-0.703125 -0.9023437,-0.703125 -0.5859375,0 -0.9726563,0.3515625 -1.1835938,0.6328125 -0.046875,-0.4804688 -0.4570312,-0.6328125 -0.75,-0.6328125 -0.29296874,0 -0.45703124,0.2109375 -0.55078124,0.375 -0.15234375,0.2578125 -0.24609375,0.65625 -0.24609375,0.6914062 0,0.082031 0.09375,0.082031 0.1171875,0.082031 0.09375,0 0.10546875,-0.011719 0.15234375,-0.1992188 0.10546875,-0.421875 0.234375,-0.7617187 0.51562504,-0.7617187 0.1757812,0 0.2226562,0.1523437 0.2226562,0.3398437 0,0.140625 -0.058594,0.3984375 -0.1054687,0.5859375 -0.046875,0.1875 -0.1171875,0.46875 -0.1523438,0.6210938 l -0.22265624,0.90234372 c -0.0351563,0.0820313 -0.0703125,0.2578125 -0.0703125,0.28125 0,0.1523437525 0.1171875,0.22265625 0.23437504,0.22265625 0.1289062,0 0.234375,-0.09375 0.2695312,-0.15234375 0.035156,-0.05859375 0.09375,-0.29296875 0.1289063,-0.43359375 0.035156,-0.12890625 0.1054687,-0.45703125 0.1523437,-0.63281247 0.035156,-0.1523438 0.082031,-0.3046875 0.1171875,-0.4570313 0.082031,-0.2929687 0.09375,-0.3515625 0.2929688,-0.6328125 0.1992187,-0.28125 0.5273437,-0.6445312 1.0429687,-0.6445312 0.4101563,0 0.4101563,0.3632812 0.4101563,0.4921875 0,0.1757812 -0.011719,0.2695312 -0.1171875,0.65625 z m 0,0"
       style="fill:#000000;fill-opacity:1;fill-rule:nonzero;stroke:none"
       aria-label="m"
       transform="matrix(1.3333333,0,0,1.3333333,297.404,77.354667)" />
  </g>
</svg>
