<?xml version="1.0" encoding="UTF-8" standalone="no"?>
<!-- Created with Inkscape (http://www.inkscape.org/) -->

<svg
   version="1.1"
   id="svg1"
   width="123.68749"
   height="95.335938"
   viewBox="0 0 123.68749 95.335936"
   sodipodi:docname="Draft.pdf"
   xmlns:inkscape="http://www.inkscape.org/namespaces/inkscape"
   xmlns:sodipodi="http://sodipodi.sourceforge.net/DTD/sodipodi-0.dtd"
   xmlns="http://www.w3.org/2000/svg"
   xmlns:svg="http://www.w3.org/2000/svg">
  <defs
     id="defs1" />
  <sodipodi:namedview
     id="namedview1"
     pagecolor="#ffffff"
     bordercolor="#000000"
     borderopacity="0.25"
     inkscape:showpageshadow="2"
     inkscape:pageopacity="0.0"
     inkscape:pagecheckerboard="0"
     inkscape:deskcolor="#d1d1d1">
    <inkscape:page
       x="-6.1992183"
       y="-4.84375"
       inkscape:label="1"
       id="page1"
       width="136.53067"
       height="105.024"
       margin="0"
       bleed="0" />
  </sodipodi:namedview>
  <g
     id="g1"
     inkscape:groupmode="layer"
     inkscape:label="1"
     transform="translate(-6.1992184,-4.8437502)">
    <path
       id="path1"
       d="m 3.7276719,-6.0220313 c 0.09375,-0.3632812 0.1171875,-0.46875 1.0546875,-0.46875 0.3046875,0 0.375,0 0.375,-0.1875 0,-0.1289062 -0.1054688,-0.1289062 -0.1523438,-0.1289062 -0.328125,0 -1.1484375,0.035156 -1.4765625,0.035156 -0.3046875,0 -1.03125,-0.035156 -1.3242187,-0.035156 -0.070312,0 -0.1875,0 -0.1875,0.1992187 0,0.1171875 0.082031,0.1171875 0.28125,0.1171875 0.011719,0 0.1992187,0 0.375,0.011719 0.1757812,0.023437 0.2695312,0.035156 0.2695312,0.1640625 0,0.035156 -0.011719,0.070312 -0.046875,0.1875 l -1.3359375,5.35546875 c -0.09375,0.38671875 -0.1171875,0.46875 -0.90234373,0.46875 -0.1640625,0 -0.26953125,0 -0.26953125,0.19921875 0,0.10546875 0.09375,0.10546875 0.26953125,0.10546875 H 5.2745469 c 0.234375,0 0.2460937,0 0.3046875,-0.1640625 L 6.3643906,-2.3189063 c 0.046875,-0.1054687 0.046875,-0.1289062 0.046875,-0.140625 0,-0.035156 -0.035156,-0.1054687 -0.1289062,-0.1054687 -0.082031,0 -0.09375,0.046875 -0.1640625,0.2109375 C 5.7784531,-1.44 5.3448594,-0.30328125 3.6222031,-0.30328125 h -0.9375 c -0.140625,0 -0.1640625,0 -0.2226562,-0.0117188 -0.1054688,-0.0117188 -0.1289063,-0.0234375 -0.1289063,-0.10546875 0,-0.0234375 0,-0.046875 0.046875,-0.22265625 z m 0,0"
       style="fill:#000000;fill-opacity:1;fill-rule:nonzero;stroke:none"
       aria-label="L"
       transform="matrix(1.3333333,0,0,1.3333333,61.881333,13.92)" />
    <path
       id="path2"
       d="m 5.0746328,-4.0206016 c -0.011719,-0.035156 -0.058594,-0.1171875 -0.058594,-0.140625 0,-0.011719 0.1875,-0.1523437 0.2929687,-0.234375 l 1.7460938,-1.3476562 c 0.9375,-0.6796875 1.3242187,-0.7265625 1.6171875,-0.75 0.082031,-0.011719 0.1875,-0.023437 0.1875,-0.1992188 0,-0.046875 -0.035156,-0.1171875 -0.1171875,-0.1171875 -0.2109375,0 -0.46875,0.035156 -0.703125,0.035156 -0.3632813,0 -0.75,-0.035156 -1.1015625,-0.035156 -0.070312,0 -0.1992188,0 -0.1992188,0.1992188 0,0.070312 0.058594,0.1054687 0.1289063,0.1171875 0.2109375,0.011719 0.3046875,0.070312 0.3046875,0.2109375 0,0.1757812 -0.2929688,0.3984375 -0.3632813,0.4570312 l -3.8789062,2.9882813 0.796875,-3.1992188 c 0.09375,-0.3632812 0.1054687,-0.4570312 0.8320312,-0.4570312 0.2578125,0 0.3398438,0 0.3398438,-0.1992188 0,-0.09375 -0.082031,-0.1171875 -0.140625,-0.1171875 -0.2695313,0 -0.9960938,0.035156 -1.265625,0.035156 -0.2929688,0 -0.9960938,-0.035156 -1.2890625,-0.035156 -0.070312,0 -0.1992188,0 -0.1992188,0.1992188 0,0.1171875 0.09375,0.1171875 0.2929688,0.1171875 0.1289062,0 0.3046875,0.011719 0.421875,0.011719 0.1640625,0.023437 0.2226562,0.058594 0.2226562,0.1640625 0,0.035156 -0.011719,0.070312 -0.046875,0.1875 l -1.3359375,5.35546879 c -0.09375,0.38671875 -0.1171875,0.46875 -0.90234374,0.46875 -0.1640625,0 -0.28125,0 -0.28125,0.1875 0,0.1171875 0.12890625,0.1171875 0.15234375,0.1171875 0.28125,0 0.98437499,-0.03515625 1.26562499,-0.03515625 0.2109375,0 0.4335938,0.01171875 0.6328125,0.01171875 0.2226563,0 0.4453125,0.0234375 0.65625,0.0234375 0.070312,0 0.1992188,0 0.1992188,-0.19921875 0,-0.10546875 -0.09375,-0.10546875 -0.28125,-0.10546875 -0.375,0 -0.6445313,0 -0.6445313,-0.1875 0,-0.0703125 0.058594,-0.28125 0.082031,-0.43359375 C 2.5785385,-1.4424763 2.7074447,-1.96982 2.836351,-2.4971638 l 1.4882812,-1.1484375 1.1601563,2.68359379 c 0.1171875,0.2578125 0.1171875,0.28125 0.1171875,0.33984375 0,0.3046875 -0.4335938,0.31640625 -0.515625,0.31640625 -0.1171875,0 -0.2226563,0 -0.2226563,0.19921875 0,0.10546875 0.1171875,0.10546875 0.140625,0.10546875 0.3984375,0 0.8085938,-0.03515625 1.2070313,-0.03515625 0.2226562,0 0.7617187,0.03515625 0.984375,0.03515625 0.046875,0 0.1757812,0 0.1757812,-0.19921875 0,-0.10546875 -0.1054687,-0.10546875 -0.1992187,-0.10546875 C 6.7621322,-0.31747631 6.633226,-0.41122626 6.4808822,-0.76278876 Z m 0,0"
       style="fill:#000000;fill-opacity:1;fill-rule:nonzero;stroke:none"
       aria-label="K"
       transform="matrix(1.3333333,0,0,1.3333333,5.6986667,57.505333)" />
    <g
       id="g2"
       aria-label="K&#10;′"
       transform="matrix(1.3333333,0,0,1.3333333,114.87333,57.505333)">
      <path
         id="path3"
         d="m 5.0754688,-4.0206016 c -0.011719,-0.035156 -0.058594,-0.1171875 -0.058594,-0.140625 0,-0.011719 0.1875,-0.1523437 0.2929688,-0.234375 l 1.7460937,-1.3476562 c 0.9375,-0.6796875 1.3242188,-0.7265625 1.6171875,-0.75 0.082031,-0.011719 0.1875,-0.023437 0.1875,-0.1992188 0,-0.046875 -0.035156,-0.1171875 -0.1171875,-0.1171875 -0.2109375,0 -0.46875,0.035156 -0.703125,0.035156 -0.3632812,0 -0.75,-0.035156 -1.1015625,-0.035156 -0.070312,0 -0.1992187,0 -0.1992187,0.1992188 0,0.070312 0.058594,0.1054687 0.1289062,0.1171875 0.2109375,0.011719 0.3046875,0.070312 0.3046875,0.2109375 0,0.1757812 -0.2929687,0.3984375 -0.3632812,0.4570312 l -3.8789063,2.9882813 0.796875,-3.1992188 c 0.09375,-0.3632812 0.1054688,-0.4570312 0.8320313,-0.4570312 0.2578125,0 0.3398437,0 0.3398437,-0.1992188 0,-0.09375 -0.082031,-0.1171875 -0.140625,-0.1171875 -0.2695312,0 -0.9960937,0.035156 -1.265625,0.035156 -0.2929687,0 -0.9960937,-0.035156 -1.2890625,-0.035156 -0.070312,0 -0.1992187,0 -0.1992187,0.1992188 0,0.1171875 0.09375,0.1171875 0.2929687,0.1171875 0.1289063,0 0.3046875,0.011719 0.421875,0.011719 0.1640625,0.023437 0.2226563,0.058594 0.2226563,0.1640625 0,0.035156 -0.011719,0.070312 -0.046875,0.1875 l -1.3359375,5.35546879 c -0.09375,0.38671875 -0.1171875,0.46875 -0.9023438,0.46875 -0.1640625,0 -0.28125,0 -0.28125,0.1875 0,0.1171875 0.12890625,0.1171875 0.15234375,0.1171875 0.28125,0 0.98437505,-0.03515625 1.26562505,-0.03515625 0.2109375,0 0.4335937,0.01171875 0.6328125,0.01171875 0.2226562,0 0.4453125,0.0234375 0.65625,0.0234375 0.070312,0 0.1992187,0 0.1992187,-0.19921875 0,-0.10546875 -0.09375,-0.10546875 -0.28125,-0.10546875 -0.375,0 -0.6445312,0 -0.6445312,-0.1875 0,-0.0703125 0.058594,-0.28125 0.082031,-0.43359375 C 2.579375,-1.4424766 2.7082813,-1.9698203 2.8371875,-2.4971641 l 1.4882813,-1.1484375 1.1601562,2.68359379 c 0.1171875,0.2578125 0.1171875,0.28125 0.1171875,0.33984375 0,0.3046875 -0.4335937,0.31640625 -0.515625,0.31640625 -0.1171875,0 -0.2226562,0 -0.2226562,0.19921875 0,0.10546875 0.1171875,0.10546875 0.140625,0.10546875 0.3984375,0 0.8085937,-0.03515625 1.2070312,-0.03515625 0.2226563,0 0.7617188,0.03515625 0.984375,0.03515625 0.046875,0 0.1757813,0 0.1757813,-0.19921875 0,-0.10546875 -0.1054688,-0.10546875 -0.1992188,-0.10546875 -0.4101562,-0.0117188 -0.5390625,-0.10546875 -0.6914062,-0.45703125 z m 0,0"
         style="fill:#000000;fill-opacity:1;fill-rule:nonzero;stroke:none" />
      <path
         id="path4"
         d="m 11.201445,-6.9092734 c 0.04687,-0.1171875 0.05859,-0.1757813 0.05859,-0.2226563 0,-0.2109375 -0.199219,-0.3867187 -0.410156,-0.3867187 -0.269531,0 -0.351563,0.2226562 -0.386719,0.328125 l -0.9140624,3.0234375 c -0.011719,0.011719 -0.035156,0.1054687 -0.035156,0.1171875 0,0.082031 0.2109375,0.1523437 0.2695313,0.1523437 0.046875,0 0.058594,-0.023437 0.1054687,-0.1289062 z m 0,0"
         style="fill:#000000;fill-opacity:1;fill-rule:nonzero;stroke:none" />
    </g>
    <path
       id="path5"
       d="m 3.0227109,-3.2346094 h 0.9609375 c 0.75,0 0.8320313,0.1523438 0.8320313,0.4453125 0,0.070312 0,0.1875 -0.070312,0.4921875 -0.023437,0.046875 -0.035156,0.082031 -0.035156,0.1054688 0,0.082031 0.058594,0.1171875 0.1171875,0.1171875 0.1054688,0 0.1054688,-0.023437 0.1523438,-0.2109375 l 0.5507812,-2.15625 c 0.023437,-0.1054688 0.023437,-0.1289063 0.023437,-0.1640625 0,-0.011719 -0.011719,-0.1054688 -0.1171875,-0.1054688 -0.09375,0 -0.1054687,0.046875 -0.1523437,0.2109375 -0.1992188,0.7734375 -0.4335938,0.9492188 -1.2773438,0.9492188 H 3.0930234 l 0.6445313,-2.53125 c 0.082031,-0.3398438 0.09375,-0.3867188 0.5390625,-0.3867188 h 1.3125 c 1.21875,0 1.453125,0.328125 1.453125,1.1015625 0,0.2226563 0,0.2695313 -0.035156,0.5390625 -0.011719,0.1289063 -0.011719,0.140625 -0.011719,0.1757813 0,0.046875 0.023437,0.1171875 0.1171875,0.1171875 0.1054687,0 0.1171875,-0.058594 0.140625,-0.2460938 L 7.4523984,-6.5041406 C 7.4758359,-6.7736719 7.4289609,-6.7736719 7.1828672,-6.7736719 H 2.2961484 c -0.1992187,0 -0.2929687,0 -0.2929687,0.1992188 0,0.1054687 0.09375,0.1054687 0.28125,0.1054687 0.3632812,0 0.6445312,0 0.6445312,0.1875 0,0.035156 0,0.058594 -0.046875,0.234375 l -1.3242187,5.27343752 c -0.09375,0.38671875 -0.1171875,0.46875 -0.90234376,0.46875 -0.1640625,0 -0.28125,0 -0.28125,0.1875 0,0.117187505 0.12890625,0.117187505 0.15234375,0.117187505 0.29296875,0 1.03125001,-0.035156255 1.31250001,-0.035156255 0.328125,0 1.1601562,0.035156255 1.4882812,0.035156255 0.09375,0 0.2109375,0 0.2109375,-0.187500005 0,-0.0820312 -0.058594,-0.10546875 -0.058594,-0.1171875 -0.035156,0 -0.058594,0 -0.28125,0 -0.2226563,0 -0.2695313,0 -0.515625,-0.0234375 -0.2929688,-0.0351563 -0.328125,-0.0703125 -0.328125,-0.19921875 0,-0.0234375 0,-0.0820313 0.046875,-0.234375 z m 0,0"
       style="fill:#000000;fill-opacity:1;fill-rule:nonzero;stroke:none"
       aria-label="F"
       transform="matrix(1.3333333,0,0,1.3333333,61.208,100.18)" />
    <path
       id="path6"
       d="M -33.27808,5.9773 -9.26094,25.15924"
       style="fill:none;stroke:#000000;stroke-width:0.39848;stroke-linecap:butt;stroke-linejoin:miter;stroke-miterlimit:10;stroke-dasharray:none;stroke-opacity:1"
       transform="matrix(1.3333333,0,0,-1.3333333,68.265333,52.512)" />
    <g
       id="g6"
       aria-label="≤n"
       transform="matrix(1.3333333,0,0,1.3333333,21.922667,26.914667)">
      <path
         id="path7"
         d="m 5.308,-4.4184219 c 0.09375,-0.046875 0.1523437,-0.1054687 0.1523437,-0.1875 0,-0.09375 -0.070312,-0.1757812 -0.1640625,-0.1757812 -0.011719,0 -0.046875,0 -0.1289062,0.046875 l -4.25390625,2.0390625 c -0.1171875,0.058594 -0.1640625,0.1171875 -0.1640625,0.1875 0,0.082031 0.046875,0.140625 0.1640625,0.1875 l 4.24218745,2.03906247 c 0.09375,0.046875 0.1171875,0.046875 0.140625,0.046875 0.1054688,0 0.1640625,-0.0820313 0.1640625,-0.1640625 0,-0.10546875 -0.082031,-0.15234375 -0.140625,-0.17578125 L 1.3119062,-2.5082656 Z m -0.1171875,5.71875 c 0.1054687,0 0.2695312,0 0.2695312,-0.1640625 0,-0.17578123 -0.1523437,-0.17578123 -0.2695312,-0.17578123 H 1.0306562 c -0.11718745,0 -0.28124995,0 -0.28124995,0.17578123 0,0.1640625 0.17578125,0.1640625 0.28124995,0.1640625 z m 0,0"
         style="fill:#000000;fill-opacity:1;fill-rule:nonzero;stroke:none" />
      <path
         id="path8"
         d="m 7.0804609,-0.43404688 c -0.035156,0.0820313 -0.070312,0.2578125 -0.070312,0.28125 0,0.152343755 0.1171875,0.22265625 0.234375,0.22265625 0.1289063,0 0.234375,-0.09375 0.2695313,-0.15234375 0.035156,-0.05859375 0.09375,-0.29296875 0.1289062,-0.43359375 0.035156,-0.12890625 0.1054688,-0.45703125 0.1523438,-0.63281247 0.035156,-0.1523438 0.082031,-0.3046875 0.1171875,-0.4570313 0.082031,-0.2929687 0.09375,-0.3515625 0.2929687,-0.6328125 0.1992188,-0.28125 0.5273438,-0.6445312 1.0429688,-0.6445312 0.4101562,0 0.4101562,0.3632812 0.4101562,0.4921875 0,0.421875 -0.2929687,1.1953125 -0.4101562,1.48828122 -0.070312,0.1875 -0.1054688,0.2578125 -0.1054688,0.375 0,0.36328125 0.3046875,0.59765625 0.6679688,0.59765625 0.6914068,0 1.0078118,-0.9609375 1.0078118,-1.06640625 0,-0.09375 -0.09375,-0.09375 -0.117186,-0.09375 -0.09375,0 -0.105469,0.046875 -0.128907,0.11718758 -0.164062,0.5625 -0.46875,0.84375 -0.7382813,0.84375 -0.1523438,0 -0.1757813,-0.09375 -0.1757813,-0.24609375 0,-0.15234375 0.035156,-0.24609375 0.1523438,-0.5625 0.09375,-0.21093753 0.3750008,-0.94921883 0.3750008,-1.34765633 0,-0.6679687 -0.5390633,-0.7851562 -0.9023446,-0.7851562 -0.5859375,0 -0.9726562,0.3515625 -1.1835937,0.6328125 -0.046875,-0.4804688 -0.4570313,-0.6328125 -0.75,-0.6328125 -0.2929688,0 -0.4570313,0.2109375 -0.5507813,0.375 -0.1523437,0.2578125 -0.2460937,0.65625 -0.2460937,0.6914062 0,0.082031 0.09375,0.082031 0.1171875,0.082031 0.09375,0 0.1054687,-0.011719 0.1523437,-0.1992188 0.1054688,-0.421875 0.234375,-0.7617187 0.515625,-0.7617187 0.1757813,0 0.2226563,0.1523437 0.2226563,0.3398437 0,0.140625 -0.058594,0.3984375 -0.1054688,0.5859375 -0.046875,0.1875 -0.1171875,0.46875 -0.1523437,0.6210938 z m 0,0"
         style="fill:#000000;fill-opacity:1;fill-rule:nonzero;stroke:none" />
    </g>
    <path
       id="path9"
       d="M 30.48296,6.81638 6.46582,25.36394"
       style="fill:none;stroke:#000000;stroke-width:0.39848;stroke-linecap:butt;stroke-linejoin:miter;stroke-miterlimit:10;stroke-dasharray:none;stroke-opacity:1"
       transform="matrix(1.3333333,0,0,-1.3333333,68.265333,52.512)" />
    <g
       id="g9"
       aria-label="≤m"
       transform="matrix(1.3333333,0,0,1.3333333,96.012,26.218667)">
      <path
         id="path10"
         d="m 5.3083828,-4.4179063 c 0.09375,-0.046875 0.1523438,-0.1054687 0.1523438,-0.1875 0,-0.09375 -0.070312,-0.1757812 -0.1640625,-0.1757812 -0.011719,0 -0.046875,0 -0.1289063,0.046875 L 0.91385156,-2.69525 c -0.1171875,0.058594 -0.1640625,0.1171875 -0.1640625,0.1875 0,0.082031 0.046875,0.140625 0.1640625,0.1875 l 4.24218754,2.0390625 c 0.09375,0.046875 0.1171875,0.046875 0.140625,0.046875 0.1054687,0 0.1640625,-0.0820312 0.1640625,-0.1640625 0,-0.10546875 -0.082031,-0.15234375 -0.140625,-0.17578125 L 1.3122891,-2.50775 Z m -0.1171875,5.71875 c 0.1054688,0 0.2695313,0 0.2695313,-0.1640625 C 5.4607266,0.961 5.3083828,0.961 5.1911953,0.961 H 1.0310391 c -0.11718754,0 -0.28125004,0 -0.28125004,0.1757812 0,0.1640625 0.17578125,0.1640625 0.28125004,0.1640625 z m 0,0"
         style="fill:#000000;fill-opacity:1;fill-rule:nonzero;stroke:none" />
      <path
         id="path11"
         d="m 9.2517422,-0.5624375 c -0.035156,0.140625 -0.09375,0.375 -0.09375,0.41015625 0,0.15234375 0.1289062,0.22265625 0.234375,0.22265625 0.1289062,0 0.234375,-0.09375 0.2695312,-0.15234375 0.035156,-0.05859375 0.09375,-0.29296875 0.1289063,-0.43359375 0.035156,-0.12890625 0.1171875,-0.45703125 0.1523437,-0.6328125 0.046875,-0.1523438 0.082032,-0.3046875 0.1171876,-0.4570313 0.08203,-0.3046875 0.08203,-0.3164062 0.222656,-0.5390625 0.222656,-0.3398437 0.5625,-0.7382812 1.113281,-0.7382812 0.386719,0 0.410157,0.328125 0.410157,0.4921875 0,0.421875 -0.304688,1.1953125 -0.410157,1.48828125 -0.08203,0.1875 -0.105468,0.2578125 -0.105468,0.375 0,0.36328125 0.304687,0.59765625 0.65625,0.59765625 0.703125,0 1.007812,-0.9609375 1.007812,-1.06640625 0,-0.0937501 -0.09375,-0.0937501 -0.105469,-0.0937501 -0.105468,0 -0.105468,0.046875 -0.140625,0.1171877 -0.152343,0.5625 -0.457031,0.84375 -0.738281,0.84375 -0.140625,0 -0.175781,-0.09375 -0.175781,-0.24609375 0,-0.15234375 0.03516,-0.24609375 0.164062,-0.5625 0.08203,-0.21093755 0.375,-0.94921885 0.375,-1.34765645 0,-0.1054686 0,-0.3984375 -0.257812,-0.5976561 -0.128906,-0.09375 -0.328125,-0.1875 -0.65625,-0.1875 -0.621094,0 -1.007813,0.4101561 -1.230469,0.703125 -0.05859,-0.5976564 -0.5507811,-0.703125 -0.9023436,-0.703125 -0.5859375,0 -0.9726562,0.3515625 -1.1835937,0.6328125 -0.046875,-0.4804689 -0.4570313,-0.6328125 -0.75,-0.6328125 -0.2929688,0 -0.4570313,0.2109375 -0.5507813,0.375 -0.1523437,0.2578125 -0.2460937,0.65625 -0.2460937,0.6914061 0,0.082031 0.09375,0.082031 0.1171875,0.082031 0.09375,0 0.1054687,-0.011719 0.1523437,-0.1992191 0.1054688,-0.421875 0.234375,-0.7617186 0.515625,-0.7617186 0.1757813,0 0.2226563,0.1523436 0.2226563,0.3398436 0,0.140625 -0.058594,0.3984375 -0.1054688,0.5859376 -0.046875,0.1875 -0.1171875,0.46875 -0.1523437,0.6210939 l -0.2226563,0.9023437 c -0.035156,0.0820313 -0.070312,0.2578125 -0.070312,0.28125 0,0.15234375 0.1171875,0.22265625 0.234375,0.22265625 0.1289063,0 0.234375,-0.09375 0.2695313,-0.15234375 0.035156,-0.05859375 0.09375,-0.29296875 0.1289062,-0.43359375 0.035156,-0.12890625 0.1054688,-0.45703125 0.1523438,-0.63281245 0.035156,-0.1523438 0.082031,-0.3046876 0.1171875,-0.4570313 0.082031,-0.2929688 0.09375,-0.3515624 0.2929687,-0.6328127 0.1992188,-0.28125 0.5273438,-0.6445311 1.0429688,-0.6445311 0.4101562,0 0.4101562,0.3632811 0.4101562,0.4921875 0,0.1757811 -0.011719,0.2695311 -0.1171875,0.65625 z m 0,0"
         style="fill:#000000;fill-opacity:1;fill-rule:nonzero;stroke:none" />
    </g>
    <path
       id="path12"
       d="M -1.39755,-25.1116 V 25.1116"
       style="fill:none;stroke:#000000;stroke-width:0.39848;stroke-linecap:butt;stroke-linejoin:miter;stroke-miterlimit:10;stroke-dasharray:none;stroke-opacity:1"
       transform="matrix(1.3333333,0,0,-1.3333333,68.265333,52.512)" />
    <path
       id="path13"
       d="m 2.1794063,-4.6301953 c 0.011719,-0.011719 0.035156,-0.1054688 0.035156,-0.1171875 0,-0.035156 -0.035156,-0.09375 -0.1171875,-0.09375 -0.140625,0 -0.7148437,0.058594 -0.890625,0.070312 -0.058594,0.011719 -0.1523437,0.011719 -0.1523437,0.1640625 0,0.09375 0.09375,0.09375 0.1757812,0.09375 0.3398438,0 0.3398438,0.046875 0.3398438,0.1054687 0,0.046875 -0.011719,0.09375 -0.035156,0.1523438 l -0.97265625,3.94921874 c -0.0351563,0.12890625 -0.0351563,0.140625 -0.0351563,0.15234375 0,0.10546875 0.0820313,0.22265625 0.234375,0.22265625 0.1875,0 0.28125005,-0.140625 0.31640635,-0.29296875 0.011719,-0.0234375 0.3164062,-1.25390629 0.3398437,-1.34765629 0.5039063,0.046875 0.9023438,0.1992188 0.9023438,0.5625 0,0.0351563 0,0.0703125 -0.023437,0.14062504 -0.023437,0.10546875 -0.023437,0.140625 -0.023437,0.22265625 0,0.4921875 0.3984375,0.71484375 0.7382812,0.71484375 0.6796875,0 0.890625,-1.0546875 0.890625,-1.06640625 0,-0.09375 -0.09375,-0.09375 -0.1171875,-0.09375 -0.09375,0 -0.1054687,0.035156 -0.140625,0.16406246 -0.082031,0.3046875 -0.2695312,0.796875 -0.609375,0.796875 -0.1875,0 -0.2460937,-0.17578125 -0.2460937,-0.36328125 0,-0.1171875 0,-0.12890625 0.046875,-0.3046875 0,-0.0234375 0.035156,-0.140625 0.035156,-0.22265621 0,-0.6210938 -0.84375,-0.7148438 -1.1367187,-0.7382813 0.1992187,-0.1289062 0.4570312,-0.3515625 0.5859375,-0.4570312 0.3515625,-0.3398438 0.703125,-0.6679688 1.0898437,-0.6679688 0.082031,0 0.1757813,0.023437 0.234375,0.09375 -0.3046875,0.046875 -0.3632812,0.28125 -0.3632812,0.3867188 0,0.1523437 0.1171875,0.2578125 0.2695312,0.2578125 0.1992188,0 0.3984375,-0.1523438 0.3984375,-0.4453125 0,-0.2226563 -0.1640625,-0.4804688 -0.5273437,-0.4804688 -0.3984375,0 -0.7617188,0.28125 -1.125,0.609375 -0.2929688,0.28125 -0.515625,0.4921875 -0.8085938,0.609375 z m 0,0"
       style="fill:#000000;fill-opacity:1;fill-rule:nonzero;stroke:none"
       aria-label="k"
       transform="matrix(1.3333333,0,0,1.3333333,69.516,55.74)" />
    <path
       id="path14"
       d="M -9.766,-26.72006 -34.25435,-7.5771"
       style="fill:none;stroke:#000000;stroke-width:0.39848;stroke-linecap:butt;stroke-linejoin:miter;stroke-miterlimit:10;stroke-dasharray:none;stroke-opacity:1"
       transform="matrix(1.3333333,0,0,-1.3333333,68.265333,52.512)" />
    <path
       id="path15"
       d="m 3.0246172,-0.56142969 c -0.035156,0.140625 -0.09375,0.375 -0.09375,0.41015625 0,0.15234375 0.1289062,0.22265625 0.234375,0.22265625 0.1289062,0 0.234375,-0.09375 0.2695312,-0.15234375 0.035156,-0.05859375 0.09375,-0.29296875 0.1289063,-0.43359375 0.035156,-0.12890625 0.1171875,-0.45703125 0.1523437,-0.63281251 0.046875,-0.1523437 0.082031,-0.3046875 0.1171875,-0.4570312 0.082031,-0.3046875 0.082031,-0.3164063 0.2226563,-0.5390625 0.2226562,-0.3398438 0.5625,-0.7382813 1.1132812,-0.7382813 0.3867188,0 0.4101563,0.328125 0.4101563,0.4921875 0,0.421875 -0.3046875,1.1953125 -0.4101563,1.48828126 -0.082031,0.1875 -0.1054687,0.2578125 -0.1054687,0.375 0,0.36328125 0.3046875,0.59765625 0.65625,0.59765625 0.703125,0 1.0078125,-0.9609375 1.0078125,-1.06640625 0,-0.09375 -0.09375,-0.09375 -0.1054688,-0.09375 -0.1054687,0 -0.1054687,0.046875 -0.140625,0.11718734 -0.1523437,0.5625 -0.4570312,0.84375 -0.7382812,0.84375 -0.140625,0 -0.1757813,-0.09375 -0.1757813,-0.24609375 0,-0.15234375 0.035156,-0.24609375 0.1640625,-0.5625 0.082031,-0.21093739 0.375,-0.94921859 0.375,-1.34765609 0,-0.1054688 0,-0.3984375 -0.2578125,-0.5976563 -0.1289062,-0.09375 -0.328125,-0.1875 -0.65625,-0.1875 -0.6210937,0 -1.0078125,0.4101563 -1.2304687,0.703125 -0.058594,-0.5976562 -0.5507813,-0.703125 -0.9023438,-0.703125 -0.5859375,0 -0.9726562,0.3515625 -1.1835937,0.6328125 -0.046875,-0.4804687 -0.4570313,-0.6328125 -0.75,-0.6328125 -0.29296876,0 -0.45703126,0.2109375 -0.55078126,0.375 -0.15234375,0.2578125 -0.24609375,0.65625 -0.24609375,0.6914063 0,0.082031 0.09375,0.082031 0.1171875,0.082031 0.09375,0 0.10546875,-0.011719 0.15234375,-0.1992187 0.10546875,-0.421875 0.234375,-0.7617188 0.51562496,-0.7617188 0.1757813,0 0.2226563,0.1523438 0.2226563,0.3398438 0,0.140625 -0.058594,0.3984375 -0.1054688,0.5859375 -0.046875,0.1875 -0.1171875,0.46875 -0.1523437,0.6210937 l -0.22265626,0.90234364 c -0.0351563,0.0820313 -0.0703125,0.2578125 -0.0703125,0.28125 0,0.15234375 0.1171875,0.22265625 0.23437496,0.22265625 0.1289063,0 0.234375,-0.09375 0.2695313,-0.15234375 0.035156,-0.05859375 0.09375,-0.29296875 0.1289062,-0.43359375 0.035156,-0.12890625 0.1054688,-0.45703125 0.1523438,-0.63281239 0.035156,-0.1523437 0.082031,-0.3046875 0.1171875,-0.4570312 0.082031,-0.2929688 0.09375,-0.3515625 0.2929687,-0.6328125 0.1992188,-0.28125 0.5273438,-0.6445313 1.0429688,-0.6445313 0.4101562,0 0.4101562,0.3632813 0.4101562,0.4921875 0,0.1757813 -0.011719,0.2695313 -0.1171875,0.65625 z m 0,0"
       style="fill:#000000;fill-opacity:1;fill-rule:nonzero;stroke:none"
       aria-label="m"
       transform="matrix(1.3333333,0,0,1.3333333,26.377333,82.494667)" />
    <path
       id="path16"
       d="M 6.97087,-26.93727 32.58086,-7.5771"
       style="fill:none;stroke:#000000;stroke-width:0.39848;stroke-linecap:butt;stroke-linejoin:miter;stroke-miterlimit:10;stroke-dasharray:none;stroke-opacity:1"
       transform="matrix(1.3333333,0,0,-1.3333333,68.265333,52.512)" />
    <path
       id="path17"
       d="m 0.85403906,-0.433125 c -0.0351563,0.0820313 -0.0703125,0.2578125 -0.0703125,0.28125 0,0.15234375 0.1171875,0.22265625 0.23437504,0.22265625 0.1289062,0 0.234375,-0.09375 0.2695312,-0.15234375 0.035156,-0.05859375 0.09375,-0.29296875 0.1289063,-0.43359375 0.035156,-0.12890625 0.1054687,-0.45703125 0.1523437,-0.63281255 0.035156,-0.1523437 0.082031,-0.3046875 0.1171875,-0.4570312 0.082031,-0.2929688 0.09375,-0.3515625 0.2929688,-0.6328125 0.1992187,-0.28125 0.5273437,-0.6445313 1.0429687,-0.6445313 0.4101563,0 0.4101563,0.3632813 0.4101563,0.4921875 0,0.421875 -0.2929688,1.1953125 -0.4101563,1.4882813 -0.070312,0.1875 -0.1054687,0.2578125 -0.1054687,0.375 0,0.36328125 0.3046875,0.59765625 0.6679687,0.59765625 0.6914063,0 1.0078125,-0.9609375 1.0078125,-1.06640625 0,-0.09375 -0.09375,-0.09375 -0.1171875,-0.09375 -0.09375,0 -0.1054687,0.046875 -0.1289062,0.1171875 -0.1640625,0.5625 -0.46875,0.84375 -0.7382813,0.84375 -0.1523437,0 -0.1757812,-0.09375 -0.1757812,-0.24609375 0,-0.15234375 0.035156,-0.24609375 0.1523437,-0.5625 0.09375,-0.21093755 0.375,-0.94921875 0.375,-1.34765625 0,-0.6679688 -0.5390625,-0.7851563 -0.9023437,-0.7851563 -0.5859375,0 -0.9726563,0.3515625 -1.1835938,0.6328125 -0.046875,-0.4804687 -0.4570312,-0.6328125 -0.75,-0.6328125 -0.29296874,0 -0.45703124,0.2109375 -0.55078124,0.375 -0.15234375,0.2578125 -0.24609375,0.65625 -0.24609375,0.6914063 0,0.082031 0.09375,0.082031 0.1171875,0.082031 0.09375,0 0.10546875,-0.011719 0.15234375,-0.1992187 0.10546875,-0.421875 0.234375,-0.7617188 0.51562504,-0.7617188 0.1757812,0 0.2226562,0.1523438 0.2226562,0.3398438 0,0.140625 -0.058594,0.3984375 -0.1054687,0.5859375 -0.046875,0.1875 -0.1171875,0.46875 -0.1523438,0.6210937 z m 0,0"
       style="fill:#000000;fill-opacity:1;fill-rule:nonzero;stroke:none"
       aria-label="n"
       transform="matrix(1.3333333,0,0,1.3333333,97.748,82.64)" />
  </g>
</svg>
