<?xml version="1.0" encoding="UTF-8" standalone="no"?>
<!-- Created with Inkscape (http://www.inkscape.org/) -->

<svg
   version="1.1"
   id="svg1"
   width="114.084"
   height="88.980003"
   viewBox="0 0 114.084 88.980003"
   sodipodi:docname="Draft.pdf"
   xmlns:inkscape="http://www.inkscape.org/namespaces/inkscape"
   xmlns:sodipodi="http://sodipodi.sourceforge.net/DTD/sodipodi-0.dtd"
   xmlns="http://www.w3.org/2000/svg"
   xmlns:svg="http://www.w3.org/2000/svg">
  <defs
     id="defs1" />
  <sodipodi:namedview
     id="namedview1"
     pagecolor="#ffffff"
     bordercolor="#000000"
     borderopacity="0.25"
     inkscape:showpageshadow="2"
     inkscape:pageopacity="0.0"
     inkscape:pagecheckerboard="0"
     inkscape:deskcolor="#d1d1d1">
    <inkscape:page
       x="0"
       y="0"
       inkscape:label="1"
       id="page1"
       width="114.084"
       height="88.980003"
       margin="0"
       bleed="0" />
  </sodipodi:namedview>
  <g
     id="g1"
     inkscape:groupmode="layer"
     inkscape:label="1">
    <path
       id="path1"
       d="M 4.8285391,-4.0897578 3.9965078,-6.0819453 c -0.035156,-0.070312 -0.046875,-0.1171875 -0.046875,-0.1289063 0,-0.058594 0.1640625,-0.2460937 0.5859375,-0.28125 0.09375,-0.011719 0.1992188,-0.023437 0.1992188,-0.1875 0,-0.1289062 -0.1171875,-0.1289062 -0.1523438,-0.1289062 -0.4101562,0 -0.8320312,0.035156 -1.2539062,0.035156 -0.2460938,0 -0.8671875,-0.035156 -1.1132813,-0.035156 -0.058594,0 -0.1875,0 -0.1875,0.1992187 0,0.1171875 0.1054688,0.1171875 0.234375,0.1171875 0.5976563,0 0.65625,0.09375 0.75,0.3164063 l 1.171875,2.7773437 -2.0976562,2.2617188 -0.1289063,0.1054687 c -0.4921875,0.52734379 -0.96093749,0.69140629 -1.46484374,0.72656254 -0.12890625,0 -0.22265625,0 -0.22265625,0.19921875 0,0 0,0.1054687475 0.12890625,0.1054687475 0.3046875,0 0.63281254,-0.0351562475 0.93750004,-0.0351562475 0.3632812,0 0.7617187,0.0351562475 1.1132812,0.0351562475 0.058594,0 0.1757813,0 0.1757813,-0.1992187475 0,-0.10546875 -0.09375,-0.10546875 -0.1171875,-0.10546875 -0.082031,-0.0117188 -0.3984375,-0.0351563 -0.3984375,-0.31640625 0,-0.15234375 0.1523437,-0.31640625 0.2695312,-0.44531249 l 1.0195313,-1.078125 0.890625,-0.9726563 1.0078125,2.37890629 c 0.046875,0.10546875 0.046875,0.1171875 0.046875,0.140625 0,0.0820313 -0.1875,0.24609375 -0.5742188,0.29296875 -0.1054687,0 -0.1992187,0.0117188 -0.1992187,0.1875 0,0.1171874975 0.1171875,0.1171874975 0.1523437,0.1171874975 0.28125,0 0.9726563,-0.0351562475 1.2539063,-0.0351562475 0.2460937,0 0.8554687,0.0351562475 1.1015625,0.0351562475 0.070312,0 0.1992187,0 0.1992187,-0.1874999975 0,-0.1171875 -0.1054687,-0.1171875 -0.1875,-0.1171875 -0.6679687,-0.0117188 -0.6796875,-0.046875 -0.8554687,-0.4453125 C 5.8480703,-1.6756953 5.1801016,-3.2225703 4.9457266,-3.8202266 c 0.6796875,-0.703125 1.734375,-1.8867187 2.0507812,-2.1679687 0.28125,-0.234375 0.6679688,-0.4804688 1.265625,-0.5039063 0.1289063,-0.011719 0.2109375,-0.011719 0.2109375,-0.1992187 0,-0.011719 0,-0.1171875 -0.1289062,-0.1171875 -0.2929688,0 -0.6210938,0.035156 -0.9375,0.035156 -0.3632813,0 -0.7382813,-0.035156 -1.1015625,-0.035156 -0.058594,0 -0.1875,0 -0.1875,0.1992187 0,0.070312 0.046875,0.1054688 0.1171875,0.1171875 0.09375,0.011719 0.3984375,0.023437 0.3984375,0.3046875 0,0.140625 -0.1054688,0.2695313 -0.1875,0.3632813 z m 0,0"
       style="fill:#000000;fill-opacity:1;fill-rule:nonzero;stroke:none"
       aria-label="X"
       transform="matrix(1.3333333,0,0,1.3333333,5.6986667,17.550667)" />
    <path
       id="path2"
       d="m 7.5690703,-6.9256953 c 0,-0.023437 -0.023437,-0.09375 -0.1054687,-0.09375 -0.035156,0 -0.046875,0.011719 -0.1523438,0.1171875 l -0.703125,0.7617187 c -0.082031,-0.140625 -0.5390625,-0.8789062 -1.6523437,-0.8789062 -2.2148438,0 -4.45312504,2.203125 -4.45312504,4.5117187 0,1.58203129 1.10156254,2.73046879 2.71875004,2.73046879 0.4335937,0 0.8789062,-0.09375 1.2421875,-0.24609375 0.4921875,-0.19921875 0.6796875,-0.41015625 0.8671875,-0.609375 0.082031,0.2578125 0.3515625,0.62109375 0.4453125,0.62109375 0.046875,0 0.070312,-0.0234375 0.070312,-0.03515625 0.023437,-0.0234375 0.1171875,-0.3984375 0.1640625,-0.609375 L 6.2096953,-1.4296016 c 0.035156,-0.1640625 0.082031,-0.328125 0.1289063,-0.5039062 0.1054687,-0.4453125 0.1171875,-0.46875 0.6796875,-0.4804688 0.058594,0 0.1640625,-0.011719 0.1640625,-0.1992187 0,-0.070312 -0.046875,-0.1054688 -0.1289063,-0.1054688 -0.234375,0 -0.8203125,0.023437 -1.0429687,0.023437 -0.3164063,0 -1.0898438,-0.023437 -1.3945313,-0.023437 -0.09375,0 -0.2109375,0 -0.2109375,0.1992188 0,0.1054687 0.082031,0.1054687 0.2929688,0.1054687 0.011719,0 0.3046875,0 0.5273437,0.023437 0.2578125,0.035156 0.3164063,0.058594 0.3164063,0.1875 0,0.09375 -0.1171875,0.5390625 -0.2109375,0.9023438 -0.28125,1.10156249 -1.5820313,1.20703124 -1.921875,1.20703124 -0.9609375,0 -2.0039063,-0.5625 -2.0039063,-2.08593754 0,-0.3164062 0.09375,-1.9570312 1.1484375,-3.2460937 0.5390625,-0.6796875 1.5,-1.2890625 2.484375,-1.2890625 1.0195313,0 1.6054688,0.7734375 1.6054688,1.921875 0,0.3984375 -0.035156,0.4101562 -0.035156,0.5039062 0,0.1054688 0.1171875,0.1054688 0.1523438,0.1054688 0.1289062,0 0.1289062,-0.023437 0.1757812,-0.1992188 z m 0,0"
       style="fill:#000000;fill-opacity:1;fill-rule:nonzero;stroke:none"
       aria-label="G"
       transform="matrix(1.3333333,0,0,1.3333333,92.904,17.550667)" />
    <path
       id="path3"
       d="m 3.0246328,-3.2338359 h 0.9609375 c 0.75,0 0.8320313,0.1523437 0.8320313,0.4453125 0,0.070312 0,0.1875 -0.070312,0.4921875 -0.023437,0.046875 -0.035156,0.082031 -0.035156,0.1054687 0,0.082031 0.058594,0.1171875 0.1171875,0.1171875 0.1054688,0 0.1054688,-0.023437 0.1523438,-0.2109375 l 0.5507812,-2.15625 c 0.023437,-0.1054687 0.023437,-0.1289062 0.023437,-0.1640625 0,-0.011719 -0.011719,-0.1054687 -0.1171875,-0.1054687 -0.09375,0 -0.1054687,0.046875 -0.1523437,0.2109375 -0.1992188,0.7734375 -0.4335938,0.9492187 -1.2773438,0.9492187 H 3.0949453 l 0.6445313,-2.53125 c 0.082031,-0.3398437 0.09375,-0.3867187 0.5390625,-0.3867187 h 1.3125 c 1.21875,0 1.453125,0.328125 1.453125,1.1015625 0,0.2226562 0,0.2695312 -0.035156,0.5390625 -0.011719,0.1289062 -0.011719,0.140625 -0.011719,0.1757812 0,0.046875 0.023437,0.1171875 0.1171875,0.1171875 0.1054687,0 0.1171875,-0.058594 0.140625,-0.2460937 L 7.4543203,-6.5033672 C 7.4777578,-6.7728984 7.4308828,-6.7728984 7.1847891,-6.7728984 H 2.2980703 c -0.1992187,0 -0.2929687,0 -0.2929687,0.1992187 0,0.1054688 0.09375,0.1054688 0.28125,0.1054688 0.3632812,0 0.6445312,0 0.6445312,0.1875 0,0.035156 0,0.058594 -0.046875,0.234375 l -1.3242187,5.27343746 c -0.09375,0.38671875 -0.1171875,0.46875 -0.90234379,0.46875 -0.1640625,0 -0.28125,0 -0.28125,0.1875 0,0.1171875025 0.12890625,0.1171875025 0.15234375,0.1171875025 0.29296875,0 1.03125004,-0.0351562525 1.31250004,-0.0351562525 0.328125,0 1.1601562,0.0351562525 1.4882812,0.0351562525 0.09375,0 0.2109375,0 0.2109375,-0.1875000025 0,-0.0820313 -0.058594,-0.10546875 -0.058594,-0.1171875 -0.035156,0 -0.058594,0 -0.28125,0 -0.2226563,0 -0.2695313,0 -0.515625,-0.0234375 -0.2929688,-0.0351563 -0.328125,-0.0703125 -0.328125,-0.19921875 0,-0.0234375 0,-0.0820313 0.046875,-0.234375 z m 0,0"
       style="fill:#000000;fill-opacity:1;fill-rule:nonzero;stroke:none"
       aria-label="F"
       transform="matrix(1.3333333,0,0,1.3333333,92.932,84.136)" />
    <path
       id="path4"
       d="M -23.1101,24.05664 H 23.91408"
       style="fill:none;stroke:#000000;stroke-width:0.39848;stroke-linecap:butt;stroke-linejoin:miter;stroke-miterlimit:10;stroke-dasharray:none;stroke-opacity:1"
       transform="matrix(1.3333333,0,0,-1.3333333,54.524,46.305333)" />
    <path
       id="path5"
       d="M -2.07213,2.39091 C -1.69356,0.95633 -0.84995,0.27893 0,0 -0.84995,-0.27893 -1.69356,-0.95633 -2.07213,-2.39091"
       style="fill:none;stroke:#000000;stroke-width:0.39848;stroke-linecap:round;stroke-linejoin:round;stroke-miterlimit:10;stroke-dasharray:none;stroke-opacity:1"
       transform="matrix(1.3333333,0,0,-1.3333333,86.67508,14.229813)" />
    <path
       id="path6"
       d="m 2.8370703,-2.7524609 h 0.6796875 c 0.140625,0 0.234375,0 0.234375,-0.1523438 0,-0.09375 -0.09375,-0.09375 -0.2109375,-0.09375 h -0.65625 c 0.1640625,-0.890625 0.2226563,-1.2070312 0.28125,-1.4179687 0.035156,-0.1523438 0.1875,-0.2929688 0.3515625,-0.2929688 0,0 0.1992188,0 0.328125,0.082031 -0.2929687,0.09375 -0.3046875,0.3398437 -0.3046875,0.3867187 0,0.1523438 0.1171875,0.2578125 0.2695313,0.2578125 0.1992187,0 0.3984375,-0.1640625 0.3984375,-0.4335937 0,-0.3164063 -0.3398438,-0.4921875 -0.6914063,-0.4921875 -0.3046875,0 -0.6445312,0.1757812 -0.84375,0.5273437 -0.1289062,0.2578125 -0.1875,0.5742188 -0.3398437,1.3828125 H 1.7823828 c -0.140625,0 -0.2226562,0 -0.2226562,0.1523438 0,0.09375 0.082031,0.09375 0.2109375,0.09375 h 0.515625 c 0,0.046875 -0.4453125,2.55468746 -0.609375,3.29296871 -0.035156,0.1640625 -0.1523438,0.69140629 -0.4921875,0.69140629 0,0 -0.1757813,0 -0.30468754,-0.082031 0.28125004,-0.09375 0.30468754,-0.35156249 0.30468754,-0.38671874 0,-0.15234375 -0.1171875,-0.2578125 -0.28125004,-0.2578125 -0.1875,0 -0.3984375,0.1640625 -0.3984375,0.421875 0,0.31640624 0.328125,0.49218754 0.67968754,0.49218754 0.4453125,0 0.75,-0.45703129 0.84375,-0.60937504 0.2460937,-0.46875 0.4101562,-1.32421875 0.421875,-1.40625 z m 0,0"
       style="fill:#000000;fill-opacity:1;fill-rule:nonzero;stroke:none"
       aria-label="f"
       transform="matrix(1.3333333,0,0,1.3333333,52.213333,9.3066667)" />
    <path
       id="path7"
       d="M -22.76184,16.85812 24.01839,-19.1944"
       style="fill:none;stroke:#000000;stroke-width:0.39848;stroke-linecap:butt;stroke-linejoin:miter;stroke-miterlimit:10;stroke-dasharray:none;stroke-opacity:1"
       transform="matrix(1.3333333,0,0,-1.3333333,54.524,46.305333)" />
    <path
       id="path8"
       d="m 0,1.95256 c 0.68224,0 1.2353,-0.4371 1.2353,-0.97629 C 1.2353,0.43709 0.68224,0 0,0"
       style="fill:none;stroke:#000000;stroke-width:0.39848;stroke-linecap:round;stroke-linejoin:miter;stroke-miterlimit:10;stroke-dasharray:none;stroke-opacity:1"
       transform="matrix(-1.0560267,-0.81386667,-0.81386667,1.0560267,24.17488,23.827853)" />
    <path
       id="path9"
       d="M -2.07213,2.39091 C -1.69356,0.95633 -0.84995,0.27893 0,0 -0.84995,-0.27893 -1.69356,-0.95633 -2.07213,-2.39091"
       style="fill:none;stroke:#000000;stroke-width:0.39848;stroke-linecap:round;stroke-linejoin:round;stroke-miterlimit:10;stroke-dasharray:none;stroke-opacity:1"
       transform="matrix(1.0560267,0.81386667,0.81386667,-1.0560267,86.758907,72.06)" />
    <path
       id="path10"
       d="M 32.70242,-17.73375 V 17.33528"
       style="fill:none;stroke:#000000;stroke-width:0.39848;stroke-linecap:butt;stroke-linejoin:miter;stroke-miterlimit:10;stroke-dasharray:2.78941, 1.59395;stroke-dashoffset:0;stroke-opacity:1"
       transform="matrix(1.3333333,0,0,-1.3333333,54.524,46.305333)" />
    <path
       id="path11"
       d="M -2.07213,2.39091 C -1.69356,0.95633 -0.84995,0.27893 0,0 -0.84995,-0.27893 -1.69356,-0.95633 -2.07213,-2.39091"
       style="fill:none;stroke:#000000;stroke-width:0.39848;stroke-linecap:round;stroke-linejoin:round;stroke-miterlimit:10;stroke-dasharray:none;stroke-opacity:1"
       transform="matrix(0,-1.3333333,-1.3333333,0,98.127227,22.925973)" />
    <g
       id="g11"
       aria-label="!φ"
       transform="matrix(1.3333333,0,0,1.3333333,101.24133,48.629333)">
      <path
         id="path12"
         d="m 1.5240781,-4.5940703 c 0,-0.2578125 -0.2109375,-0.3867188 -0.3984375,-0.3867188 -0.19921872,0 -0.39843747,0.1523438 -0.39843747,0.3867188 l 0.26953125,3.0703125 c 0.0117187,0.1523437 0.0351562,0.1757812 0.12890622,0.1757812 0.09375,0 0.1171875,-0.023437 0.1289063,-0.1640625 z m 0,4.18359374 c 0,-0.2109375 -0.1757812,-0.38671875 -0.3984375,-0.38671875 -0.23437497,0 -0.39843747,0.1875 -0.39843747,0.38671875 0,0.24609375 0.19921875,0.4101562475 0.39843747,0.4101562475 0.2226563,0 0.3984375,-0.1757812475 0.3984375,-0.4101562475 z m 0,0"
         style="fill:#000000;fill-opacity:1;fill-rule:nonzero;stroke:none" />
      <path
         id="path13"
         d="m 4.4566953,0.05827344 c 0.082031,0.01171875 0.1640625,0.01171875 0.234375,0.01171875 1.2539063,0 2.4140625,-1.03125 2.4140625,-2.13281249 0,-0.609375 -0.375,-1.0078125 -0.9140625,-1.0078125 -0.9726562,0 -1.4765625,1.21875 -1.6757812,1.7460937 -0.082031,0.2578125 -0.234375,0.75000004 -0.28125,0.87890629 -0.7617188,-0.10546875 -1.2539063,-0.45703125 -1.2539063,-0.97265629 0,0 0.035156,-0.7851562 0.609375,-1.4179687 0.046875,-0.046875 0.046875,-0.058594 0.046875,-0.082031 0,-0.082031 -0.082031,-0.082031 -0.1054687,-0.082031 -0.058594,0 -0.09375,0 -0.2226563,0.1523437 -0.3867187,0.4804688 -0.5742187,1.2070313 -0.5742187,1.5 0,0.62109379 0.4570312,1.16015629 1.3476562,1.35937504 C 3.7418516,1.0895234 3.6949766,1.2184297 3.6949766,1.2770234 c 0,0.1992188 0.1640625,0.234375 0.234375,0.234375 0.082031,0 0.2226562,-0.058594 0.28125,-0.1640625 0.046875,-0.09375 0.1054687,-0.45703121 0.2460937,-1.28906246 z m 0.09375,-0.46875 c 0.140625,-0.80859374 0.1875,-1.11328124 0.5273438,-1.57031254 0.3164062,-0.421875 0.6796875,-0.6210937 1.03125,-0.6210937 0.4804687,0 0.7382812,0.3164062 0.7382812,0.6796875 0,0.703125 -0.8789062,1.51171874 -2.0742187,1.51171874 -0.070312,0 -0.1640625,0 -0.2226563,0 z m 0,0"
         style="fill:#000000;fill-opacity:1;fill-rule:nonzero;stroke:none" />
    </g>
  </g>
</svg>
