<?xml version="1.0" encoding="UTF-8"?>
<svg xmlns="http://www.w3.org/2000/svg" xmlns:xlink="http://www.w3.org/1999/xlink" width="299.388" height="67.115" viewBox="0 0 299.388 67.115">
<defs>
<g>
<g id="glyph-0-0">
<path d="M 0.546875 -5.6875 L 0.546875 -5.375 C 1.0625 -5.390625 1.59375 -5.5 2.046875 -5.75 L 2.046875 -0.890625 C 2.046875 -0.75 2.0625 -0.578125 1.96875 -0.453125 C 1.890625 -0.375 1.75 -0.34375 1.640625 -0.34375 C 1.40625 -0.3125 1.171875 -0.3125 0.9375 -0.3125 L 0.9375 -0.015625 L 5.140625 -0.015625 L 5.140625 -0.3125 C 4.90625 -0.3125 4.671875 -0.3125 4.4375 -0.34375 C 4.328125 -0.34375 4.203125 -0.375 4.109375 -0.453125 C 4.015625 -0.578125 4.03125 -0.734375 4.03125 -0.875 L 4.03125 -6.234375 C 4.03125 -6.3125 4.03125 -6.40625 4.03125 -6.484375 C 4.03125 -6.53125 4.03125 -6.578125 4 -6.609375 C 3.953125 -6.671875 3.8125 -6.65625 3.75 -6.65625 L 2.84375 -6.65625 C 2.796875 -6.65625 2.75 -6.65625 2.71875 -6.640625 C 2.671875 -6.625 2.65625 -6.578125 2.625 -6.546875 C 2.578125 -6.5 2.546875 -6.453125 2.5 -6.40625 C 2.359375 -6.265625 2.203125 -6.15625 2.03125 -6.0625 C 1.578125 -5.796875 1.0625 -5.6875 0.546875 -5.6875 Z M 3.734375 -6.34375 L 3.734375 -0.3125 L 2.9375 -0.3125 L 2.9375 -6.34375 Z M 3.734375 -6.34375 "/>
</g>
<g id="glyph-1-0">
<path d="M 7.203125 -2.5 C 7.203125 -4.328125 5.703125 -5.8125 3.875 -5.8125 C 2.03125 -5.8125 0.546875 -4.3125 0.546875 -2.5 C 0.546875 -0.65625 2.046875 0.828125 3.875 0.828125 C 5.71875 0.828125 7.203125 -0.671875 7.203125 -2.5 Z M 1.890625 -4.640625 C 1.875 -4.65625 1.796875 -4.71875 1.796875 -4.75 C 1.796875 -4.78125 2.609375 -5.5625 3.875 -5.5625 C 4.21875 -5.5625 5.140625 -5.515625 5.953125 -4.75 L 3.875 -2.65625 Z M 1.609375 -0.40625 C 1 -1.09375 0.796875 -1.859375 0.796875 -2.5 C 0.796875 -3.265625 1.09375 -3.984375 1.609375 -4.578125 L 3.6875 -2.5 Z M 6.125 -4.578125 C 6.609375 -4.0625 6.953125 -3.3125 6.953125 -2.5 C 6.953125 -1.71875 6.65625 -1 6.140625 -0.40625 L 4.0625 -2.5 Z M 5.859375 -0.34375 C 5.875 -0.328125 5.9375 -0.265625 5.9375 -0.234375 C 5.9375 -0.203125 5.140625 0.578125 3.875 0.578125 C 3.53125 0.578125 2.609375 0.53125 1.796875 -0.234375 L 3.875 -2.328125 Z M 5.859375 -0.34375 "/>
</g>
<g id="glyph-2-0">
<path d="M 1.78125 -1.140625 C 1.390625 -0.484375 1 -0.34375 0.5625 -0.3125 C 0.4375 -0.296875 0.34375 -0.296875 0.34375 -0.109375 C 0.34375 -0.046875 0.40625 0 0.484375 0 C 0.75 0 1.0625 -0.03125 1.328125 -0.03125 C 1.671875 -0.03125 2.015625 0 2.328125 0 C 2.390625 0 2.515625 0 2.515625 -0.1875 C 2.515625 -0.296875 2.4375 -0.3125 2.359375 -0.3125 C 2.140625 -0.328125 1.890625 -0.40625 1.890625 -0.65625 C 1.890625 -0.78125 1.953125 -0.890625 2.03125 -1.03125 L 2.796875 -2.296875 L 5.296875 -2.296875 C 5.3125 -2.09375 5.453125 -0.734375 5.453125 -0.640625 C 5.453125 -0.34375 4.9375 -0.3125 4.734375 -0.3125 C 4.59375 -0.3125 4.5 -0.3125 4.5 -0.109375 C 4.5 0 4.609375 0 4.640625 0 C 5.046875 0 5.46875 -0.03125 5.875 -0.03125 C 6.125 -0.03125 6.765625 0 7.015625 0 C 7.0625 0 7.1875 0 7.1875 -0.203125 C 7.1875 -0.3125 7.09375 -0.3125 6.953125 -0.3125 C 6.34375 -0.3125 6.34375 -0.375 6.3125 -0.671875 L 5.703125 -6.890625 C 5.6875 -7.09375 5.6875 -7.140625 5.515625 -7.140625 C 5.359375 -7.140625 5.3125 -7.0625 5.25 -6.96875 Z M 2.984375 -2.609375 L 4.9375 -5.90625 L 5.265625 -2.609375 Z M 2.984375 -2.609375 "/>
</g>
<g id="glyph-3-0">
<path d="M 3.890625 -1.890625 C 3.9375 -2.09375 3.953125 -2.125 3.953125 -2.28125 C 3.953125 -2.390625 3.953125 -2.6875 3.6875 -2.890625 C 3.578125 -2.96875 3.375 -3.078125 3.046875 -3.078125 C 2.75 -3.078125 2.328125 -3 1.875 -2.453125 C 1.8125 -2.96875 1.34375 -3.078125 1.125 -3.078125 C 0.859375 -3.078125 0.6875 -2.890625 0.578125 -2.703125 C 0.4375 -2.46875 0.328125 -2.046875 0.328125 -2 C 0.328125 -1.921875 0.421875 -1.921875 0.453125 -1.921875 C 0.546875 -1.921875 0.546875 -1.9375 0.59375 -2.125 C 0.703125 -2.53125 0.84375 -2.875 1.109375 -2.875 C 1.296875 -2.875 1.34375 -2.71875 1.34375 -2.53125 C 1.34375 -2.40625 1.28125 -2.140625 1.21875 -1.953125 C 1.171875 -1.765625 1.109375 -1.484375 1.078125 -1.328125 L 0.84375 -0.4375 C 0.828125 -0.34375 0.78125 -0.171875 0.78125 -0.15625 C 0.78125 0 0.90625 0.0625 1.015625 0.0625 C 1.140625 0.0625 1.25 -0.015625 1.296875 -0.078125 C 1.328125 -0.140625 1.375 -0.375 1.421875 -0.515625 C 1.453125 -0.640625 1.53125 -0.96875 1.5625 -1.140625 C 1.609375 -1.296875 1.65625 -1.453125 1.6875 -1.609375 C 1.765625 -1.90625 1.765625 -1.921875 1.90625 -2.140625 C 2.125 -2.484375 2.46875 -2.875 3.015625 -2.875 C 3.40625 -2.875 3.421875 -2.5625 3.421875 -2.390625 C 3.421875 -2.203125 3.421875 -2.140625 3.375 -2 L 2.59375 1.125 C 2.5625 1.21875 2.5625 1.265625 2.5625 1.265625 C 2.5625 1.421875 2.6875 1.484375 2.796875 1.484375 C 3.046875 1.484375 3.109375 1.25 3.140625 1.15625 Z M 3.890625 -1.890625 "/>
</g>
<g id="glyph-3-1">
<path d="M 0.375 1.125 C 0.34375 1.21875 0.34375 1.265625 0.34375 1.265625 C 0.34375 1.421875 0.46875 1.484375 0.578125 1.484375 C 0.84375 1.484375 0.890625 1.265625 0.921875 1.140625 C 0.9375 1.109375 1.078125 0.546875 1.234375 -0.125 C 1.453125 0.015625 1.734375 0.0625 1.984375 0.0625 C 2.578125 0.0625 2.96875 -0.421875 2.984375 -0.4375 C 3.125 0.046875 3.609375 0.0625 3.703125 0.0625 C 3.953125 0.0625 4.125 -0.078125 4.265625 -0.296875 C 4.40625 -0.578125 4.5 -0.96875 4.5 -1 C 4.5 -1.09375 4.40625 -1.09375 4.390625 -1.09375 C 4.296875 -1.09375 4.28125 -1.0625 4.234375 -0.875 C 4.15625 -0.53125 4.015625 -0.125 3.734375 -0.125 C 3.546875 -0.125 3.5 -0.28125 3.5 -0.46875 C 3.5 -0.578125 3.546875 -0.84375 3.609375 -1.015625 C 3.65625 -1.203125 3.71875 -1.484375 3.75 -1.640625 L 3.921875 -2.265625 C 3.953125 -2.4375 4.03125 -2.75 4.03125 -2.78125 C 4.03125 -2.921875 3.921875 -3 3.8125 -3 C 3.734375 -3 3.59375 -2.96875 3.515625 -2.84375 C 3.5 -2.796875 3.4375 -2.578125 3.40625 -2.4375 L 3.265625 -1.859375 L 3.046875 -0.984375 C 3 -0.8125 3 -0.796875 2.9375 -0.703125 C 2.71875 -0.390625 2.40625 -0.125 2.015625 -0.125 C 1.4375 -0.125 1.4375 -0.625 1.4375 -0.75 C 1.4375 -0.921875 1.46875 -1.015625 1.5625 -1.390625 C 1.625 -1.703125 1.640625 -1.75 1.71875 -2.015625 L 1.8125 -2.40625 C 1.84375 -2.5625 1.921875 -2.828125 1.921875 -2.84375 C 1.921875 -2.96875 1.8125 -3.078125 1.671875 -3.078125 C 1.421875 -3.078125 1.359375 -2.828125 1.34375 -2.75 Z M 0.375 1.125 "/>
</g>
<g id="glyph-3-2">
<path d="M 1.15625 -1.546875 C 1.421875 -1.453125 1.625 -1.453125 1.828125 -1.453125 C 2.0625 -1.453125 2.46875 -1.453125 2.46875 -1.703125 C 2.46875 -1.890625 2.203125 -1.921875 1.90625 -1.921875 C 1.8125 -1.921875 1.5 -1.921875 1.15625 -1.78125 C 1 -1.859375 0.90625 -2 0.90625 -2.140625 C 0.90625 -2.515625 1.578125 -2.765625 2.28125 -2.765625 C 2.390625 -2.765625 2.6875 -2.765625 3 -2.5625 C 3.046875 -2.53125 3.09375 -2.5 3.140625 -2.5 C 3.234375 -2.5 3.359375 -2.609375 3.359375 -2.71875 C 3.359375 -2.859375 3.140625 -2.96875 3 -3.015625 C 2.703125 -3.140625 2.453125 -3.140625 2.359375 -3.140625 C 1.5 -3.140625 0.65625 -2.703125 0.65625 -2.140625 C 0.65625 -1.859375 0.921875 -1.671875 0.9375 -1.671875 C 0.671875 -1.515625 0.328125 -1.203125 0.328125 -0.765625 C 0.328125 -0.265625 0.828125 0.140625 1.609375 0.140625 C 2.65625 0.140625 3.03125 -0.484375 3.03125 -0.59375 C 3.03125 -0.640625 3 -0.6875 2.9375 -0.6875 C 2.90625 -0.6875 2.875 -0.65625 2.859375 -0.640625 C 2.6875 -0.359375 2.453125 -0.25 1.71875 -0.25 C 1.546875 -0.25 1.21875 -0.25 0.96875 -0.34375 C 0.6875 -0.453125 0.5625 -0.640625 0.5625 -0.8125 C 0.5625 -0.96875 0.6875 -1.3125 1.15625 -1.546875 Z M 1.46875 -1.671875 C 1.546875 -1.6875 1.671875 -1.734375 1.890625 -1.734375 C 2.046875 -1.734375 2.078125 -1.71875 2.21875 -1.6875 C 2.109375 -1.65625 2.09375 -1.640625 1.828125 -1.640625 C 1.734375 -1.640625 1.59375 -1.640625 1.46875 -1.671875 Z M 1.46875 -1.671875 "/>
</g>
<g id="glyph-3-3">
<path d="M 2.0625 -3.03125 C 1.015625 -2.765625 0.421875 -1.875 0.421875 -1.140625 C 0.421875 -0.390625 0.984375 0.078125 1.671875 0.078125 C 2.515625 0.078125 3.171875 -0.90625 3.171875 -1.921875 C 3.171875 -2.59375 2.8125 -3 2.59375 -3.234375 C 2.34375 -3.53125 1.8125 -4.09375 1.8125 -4.421875 C 1.8125 -4.515625 1.921875 -4.703125 2.203125 -4.703125 C 2.4375 -4.703125 2.640625 -4.59375 2.78125 -4.515625 C 2.84375 -4.484375 3.09375 -4.328125 3.203125 -4.328125 C 3.375 -4.328125 3.5 -4.484375 3.5 -4.625 C 3.5 -4.796875 3.40625 -4.8125 3.03125 -4.890625 C 2.953125 -4.90625 2.625 -4.96875 2.40625 -4.96875 C 1.875 -4.96875 1.59375 -4.671875 1.59375 -4.25 C 1.59375 -3.875 1.8125 -3.453125 2.0625 -3.03125 Z M 2.171875 -2.84375 C 2.375 -2.53125 2.625 -2.125 2.625 -1.625 C 2.625 -1.046875 2.28125 -0.109375 1.6875 -0.109375 C 1.3125 -0.109375 0.9375 -0.359375 0.9375 -0.9375 C 0.9375 -1.40625 1.203125 -2.609375 2.171875 -2.84375 Z M 2.171875 -2.84375 "/>
</g>
<g id="glyph-4-0">
<path d="M 5.671875 -1.734375 C 5.671875 -3.171875 4.515625 -4.3125 3.109375 -4.3125 C 1.6875 -4.3125 0.53125 -3.15625 0.53125 -1.75 C 0.53125 -0.328125 1.703125 0.828125 3.109375 0.828125 C 4.53125 0.828125 5.671875 -0.34375 5.671875 -1.734375 Z M 1.546875 -3.484375 C 1.828125 -3.734375 2.375 -4.078125 3.109375 -4.078125 C 3.84375 -4.078125 4.390625 -3.734375 4.671875 -3.484375 L 3.109375 -1.921875 Z M 1.375 -0.1875 C 1 -0.578125 0.78125 -1.171875 0.78125 -1.734375 C 0.78125 -2.359375 1.015625 -2.921875 1.375 -3.296875 L 2.9375 -1.75 Z M 4.84375 -3.296875 C 5.21875 -2.90625 5.4375 -2.328125 5.4375 -1.75 C 5.4375 -1.140625 5.203125 -0.5625 4.84375 -0.1875 L 3.28125 -1.734375 Z M 4.671875 -0.015625 C 4.390625 0.25 3.84375 0.578125 3.109375 0.578125 C 2.375 0.578125 1.828125 0.25 1.546875 -0.015625 L 3.109375 -1.578125 Z M 4.671875 -0.015625 "/>
</g>
<g id="glyph-5-0">
<path d="M 1.46875 -4.296875 C 1.46875 -4.5 1.296875 -4.703125 1.0625 -4.703125 C 0.859375 -4.703125 0.671875 -4.53125 0.671875 -4.296875 C 0.671875 -4.046875 0.875 -3.890625 1.0625 -3.890625 C 1.296875 -3.890625 1.46875 -4.0625 1.46875 -4.296875 Z M 0.40625 -3 L 0.40625 -2.75 C 0.84375 -2.75 0.90625 -2.703125 0.90625 -2.359375 L 0.90625 -0.546875 C 0.90625 -0.25 0.84375 -0.25 0.390625 -0.25 L 0.390625 0 C 0.40625 0 0.890625 -0.03125 1.171875 -0.03125 C 1.421875 -0.03125 1.671875 -0.015625 1.90625 0 L 1.90625 -0.25 C 1.5 -0.25 1.4375 -0.25 1.4375 -0.546875 L 1.4375 -3.078125 Z M 0.40625 -3 "/>
</g>
<g id="glyph-5-1">
<path d="M 2.484375 -4.765625 L 2.484375 -4.515625 C 2.953125 -4.515625 3 -4.453125 3 -4.125 L 3 -2.671875 C 2.75 -2.921875 2.40625 -3.078125 2.03125 -3.078125 C 1.09375 -3.078125 0.328125 -2.375 0.328125 -1.5 C 0.328125 -0.625 1.0625 0.0625 1.9375 0.0625 C 2.515625 0.0625 2.859375 -0.234375 2.96875 -0.359375 L 2.96875 0.0625 L 4.046875 0 L 4.046875 -0.25 C 3.578125 -0.25 3.53125 -0.296875 3.53125 -0.640625 L 3.53125 -4.84375 Z M 2.96875 -0.734375 C 2.796875 -0.40625 2.4375 -0.125 1.984375 -0.125 C 1.59375 -0.125 1.3125 -0.359375 1.171875 -0.5625 C 1.03125 -0.765625 0.953125 -1.046875 0.953125 -1.484375 C 0.953125 -1.65625 0.953125 -2.171875 1.234375 -2.5 C 1.515625 -2.8125 1.859375 -2.875 2.0625 -2.875 C 2.390625 -2.875 2.703125 -2.71875 2.890625 -2.46875 C 2.96875 -2.359375 2.96875 -2.359375 2.96875 -2.21875 Z M 2.96875 -0.734375 "/>
</g>
<g id="glyph-5-2">
<path d="M 2.328125 -4.4375 C 2.328125 -4.625 2.328125 -4.625 2.125 -4.625 C 1.671875 -4.1875 1.046875 -4.1875 0.765625 -4.1875 L 0.765625 -3.9375 C 0.921875 -3.9375 1.390625 -3.9375 1.765625 -4.125 L 1.765625 -0.578125 C 1.765625 -0.34375 1.765625 -0.25 1.078125 -0.25 L 0.8125 -0.25 L 0.8125 0 C 0.9375 0 1.796875 -0.03125 2.046875 -0.03125 C 2.265625 -0.03125 3.140625 0 3.296875 0 L 3.296875 -0.25 L 3.03125 -0.25 C 2.328125 -0.25 2.328125 -0.34375 2.328125 -0.578125 Z M 2.328125 -4.4375 "/>
</g>
<g id="glyph-6-0">
<path d="M 3.625 -3.4375 C 3.609375 -3.53125 3.578125 -3.5625 3.46875 -3.5625 C 3.359375 -3.5625 3.328125 -3.53125 3.28125 -3.453125 L 1.328125 -0.625 C 1.109375 -0.3125 0.9375 -0.234375 0.609375 -0.21875 C 0.515625 -0.21875 0.515625 -0.09375 0.515625 -0.078125 C 0.515625 -0.015625 0.578125 0 0.59375 0 C 0.671875 0 0.75 -0.015625 0.828125 -0.015625 C 0.90625 -0.015625 0.984375 -0.015625 1.078125 -0.015625 C 1.171875 -0.015625 1.265625 -0.015625 1.34375 -0.015625 C 1.4375 -0.015625 1.546875 0 1.640625 0 C 1.671875 0 1.75 0 1.75 -0.140625 C 1.75 -0.21875 1.6875 -0.21875 1.65625 -0.21875 C 1.625 -0.21875 1.421875 -0.234375 1.421875 -0.359375 C 1.421875 -0.40625 1.484375 -0.5 1.515625 -0.546875 L 1.890625 -1.078125 C 1.90625 -1.109375 1.90625 -1.109375 2.015625 -1.109375 L 3.515625 -1.109375 C 3.53125 -1.0625 3.53125 -1.03125 3.546875 -0.96875 C 3.5625 -0.875 3.65625 -0.390625 3.65625 -0.328125 C 3.65625 -0.21875 3.34375 -0.21875 3.328125 -0.21875 C 3.25 -0.21875 3.171875 -0.21875 3.171875 -0.078125 C 3.171875 -0.03125 3.203125 0 3.265625 0 C 3.359375 0 3.484375 -0.015625 3.59375 -0.015625 C 3.71875 -0.015625 3.828125 -0.015625 3.953125 -0.015625 C 4.046875 -0.015625 4.15625 -0.015625 4.265625 -0.015625 C 4.359375 -0.015625 4.484375 0 4.578125 0 C 4.671875 0 4.703125 -0.0625 4.703125 -0.140625 C 4.703125 -0.21875 4.625 -0.21875 4.546875 -0.21875 C 4.21875 -0.21875 4.21875 -0.265625 4.203125 -0.375 Z M 3.171875 -2.953125 L 3.484375 -1.34375 L 2.0625 -1.34375 Z M 3.171875 -2.953125 "/>
</g>
</g>
</defs>
<g fill="rgb(0%, 0%, 0%)" fill-opacity="1">
<use xlink:href="#glyph-0-0" x="4.274" y="29.815"/>
</g>
<g fill="rgb(0%, 0%, 0%)" fill-opacity="1">
<use xlink:href="#glyph-1-0" x="12.576" y="29.815"/>
</g>
<g fill="rgb(0%, 0%, 0%)" fill-opacity="1">
<use xlink:href="#glyph-2-0" x="22.539" y="29.815"/>
</g>
<g fill="rgb(0%, 0%, 0%)" fill-opacity="1">
<use xlink:href="#glyph-2-0" x="86.379" y="29.815"/>
</g>
<g fill="rgb(0%, 0%, 0%)" fill-opacity="1">
<use xlink:href="#glyph-1-0" x="96.065" y="29.815"/>
</g>
<g fill="rgb(0%, 0%, 0%)" fill-opacity="1">
<use xlink:href="#glyph-2-0" x="106.028" y="29.815"/>
</g>
<g fill="rgb(0%, 0%, 0%)" fill-opacity="1">
<use xlink:href="#glyph-2-0" x="145.958" y="29.815"/>
</g>
<g fill="rgb(0%, 0%, 0%)" fill-opacity="1">
<use xlink:href="#glyph-2-0" x="185.888" y="29.815"/>
</g>
<g fill="rgb(0%, 0%, 0%)" fill-opacity="1">
<use xlink:href="#glyph-1-0" x="195.574" y="29.815"/>
</g>
<g fill="rgb(0%, 0%, 0%)" fill-opacity="1">
<use xlink:href="#glyph-2-0" x="205.537" y="29.815"/>
</g>
<g fill="rgb(0%, 0%, 0%)" fill-opacity="1">
<use xlink:href="#glyph-2-0" x="269.377" y="29.815"/>
</g>
<g fill="rgb(0%, 0%, 0%)" fill-opacity="1">
<use xlink:href="#glyph-1-0" x="279.063" y="29.815"/>
</g>
<g fill="rgb(0%, 0%, 0%)" fill-opacity="1">
<use xlink:href="#glyph-0-0" x="289.025" y="29.815"/>
</g>
<g fill="rgb(0%, 0%, 0%)" fill-opacity="1">
<use xlink:href="#glyph-0-0" x="4.274" y="62.652"/>
</g>
<g fill="rgb(0%, 0%, 0%)" fill-opacity="1">
<use xlink:href="#glyph-1-0" x="12.576" y="62.652"/>
</g>
<g fill="rgb(0%, 0%, 0%)" fill-opacity="1">
<use xlink:href="#glyph-2-0" x="22.539" y="62.652"/>
</g>
<g fill="rgb(0%, 0%, 0%)" fill-opacity="1">
<use xlink:href="#glyph-2-0" x="86.379" y="62.652"/>
</g>
<g fill="rgb(0%, 0%, 0%)" fill-opacity="1">
<use xlink:href="#glyph-1-0" x="96.065" y="62.652"/>
</g>
<g fill="rgb(0%, 0%, 0%)" fill-opacity="1">
<use xlink:href="#glyph-2-0" x="106.028" y="62.652"/>
</g>
<g fill="rgb(0%, 0%, 0%)" fill-opacity="1">
<use xlink:href="#glyph-2-0" x="145.958" y="62.652"/>
</g>
<g fill="rgb(0%, 0%, 0%)" fill-opacity="1">
<use xlink:href="#glyph-2-0" x="185.888" y="62.652"/>
</g>
<g fill="rgb(0%, 0%, 0%)" fill-opacity="1">
<use xlink:href="#glyph-1-0" x="195.574" y="62.652"/>
</g>
<g fill="rgb(0%, 0%, 0%)" fill-opacity="1">
<use xlink:href="#glyph-2-0" x="205.537" y="62.652"/>
</g>
<g fill="rgb(0%, 0%, 0%)" fill-opacity="1">
<use xlink:href="#glyph-2-0" x="269.377" y="62.652"/>
</g>
<g fill="rgb(0%, 0%, 0%)" fill-opacity="1">
<use xlink:href="#glyph-1-0" x="279.063" y="62.652"/>
</g>
<g fill="rgb(0%, 0%, 0%)" fill-opacity="1">
<use xlink:href="#glyph-0-0" x="289.025" y="62.652"/>
</g>
<path fill="none" stroke-width="0.39848" stroke-linecap="butt" stroke-linejoin="miter" stroke="rgb(0%, 0%, 0%)" stroke-opacity="1" stroke-miterlimit="10" d="M -115.209625 15.920781 L -68.186187 15.920781 " transform="matrix(1, 0, 0, -1, 149.694, 43.245)"/>
<path fill="none" stroke-width="0.39848" stroke-linecap="round" stroke-linejoin="round" stroke="rgb(0%, 0%, 0%)" stroke-opacity="1" stroke-miterlimit="10" d="M -2.073207 2.391076 C -1.694301 0.957482 -0.850551 0.277795 0.00101125 0.00045125 C -0.850551 -0.280799 -1.694301 -0.95658 -2.073207 -2.390174 " transform="matrix(1, 0, 0, -1, 81.70602, 27.32467)"/>
<g fill="rgb(0%, 0%, 0%)" fill-opacity="1">
<use xlink:href="#glyph-3-0" x="49.576" y="23.632"/>
</g>
<g fill="rgb(0%, 0%, 0%)" fill-opacity="1">
<use xlink:href="#glyph-4-0" x="53.931" y="23.632"/>
</g>
<g fill="rgb(0%, 0%, 0%)" fill-opacity="1">
<use xlink:href="#glyph-5-0" x="60.158" y="23.632"/>
<use xlink:href="#glyph-5-1" x="62.413327" y="23.632"/>
</g>
<path fill="none" stroke-width="0.39848" stroke-linecap="butt" stroke-linejoin="miter" stroke="rgb(0%, 0%, 0%)" stroke-opacity="1" stroke-miterlimit="10" d="M -31.721344 15.920781 L -8.608062 15.920781 " transform="matrix(1, 0, 0, -1, 149.694, 43.245)"/>
<path fill="none" stroke-width="0.39848" stroke-linecap="round" stroke-linejoin="round" stroke="rgb(0%, 0%, 0%)" stroke-opacity="1" stroke-miterlimit="10" d="M -2.070616 2.391076 C -1.69171 0.957482 -0.851866 0.277795 -0.00030375 0.00045125 C -0.851866 -0.280799 -1.69171 -0.95658 -2.070616 -2.390174 " transform="matrix(1, 0, 0, -1, 141.28546, 27.32467)"/>
<g fill="rgb(0%, 0%, 0%)" fill-opacity="1">
<use xlink:href="#glyph-3-1" x="127.307" y="23.632"/>
</g>
<path fill="none" stroke-width="0.39848" stroke-linecap="butt" stroke-linejoin="miter" stroke="rgb(0%, 0%, 0%)" stroke-opacity="1" stroke-miterlimit="10" d="M -4.701812 24.069219 C -11.791656 36.342656 11.790375 36.342656 4.903656 24.412969 " transform="matrix(1, 0, 0, -1, 149.694, 43.245)"/>
<path fill="none" stroke-width="0.39848" stroke-linecap="round" stroke-linejoin="round" stroke="rgb(0%, 0%, 0%)" stroke-opacity="1" stroke-miterlimit="10" d="M -2.074225 2.39128 C -1.692205 0.956428 -0.849945 0.279027 0.00164952 -0.000544308 C -0.847893 -0.279125 -1.692717 -0.956441 -2.073815 -2.389916 " transform="matrix(-0.50008, 0.86598, 0.86598, 0.50008, 154.49739, 19.00275)"/>
<g fill="rgb(0%, 0%, 0%)" fill-opacity="1">
<use xlink:href="#glyph-5-2" x="144.879" y="6.632"/>
</g>
<g fill="rgb(0%, 0%, 0%)" fill-opacity="1">
<use xlink:href="#glyph-6-0" x="148.85" y="7.633"/>
</g>
<path fill="none" stroke-width="0.39848" stroke-linecap="butt" stroke-linejoin="miter" stroke="rgb(0%, 0%, 0%)" stroke-opacity="1" stroke-miterlimit="10" d="M 31.720063 15.920781 L 8.606781 15.920781 " transform="matrix(1, 0, 0, -1, 149.694, 43.245)"/>
<path fill="none" stroke-width="0.39848" stroke-linecap="round" stroke-linejoin="round" stroke="rgb(0%, 0%, 0%)" stroke-opacity="1" stroke-miterlimit="10" d="M -2.073241 2.390174 C -1.694335 0.95658 -0.850585 0.280799 0.0009775 -0.00045125 C -0.850585 -0.277795 -1.694335 -0.957482 -2.073241 -2.391076 " transform="matrix(-1, 0, 0, 1, 158.10254, 27.32467)"/>
<g fill="rgb(0%, 0%, 0%)" fill-opacity="1">
<use xlink:href="#glyph-3-1" x="167.237" y="23.632"/>
</g>
<path fill="none" stroke-width="0.39848" stroke-linecap="butt" stroke-linejoin="miter" stroke="rgb(0%, 0%, 0%)" stroke-opacity="1" stroke-miterlimit="10" d="M 115.21225 15.920781 L 68.188813 15.920781 " transform="matrix(1, 0, 0, -1, 149.694, 43.245)"/>
<path fill="none" stroke-width="0.39848" stroke-linecap="round" stroke-linejoin="round" stroke="rgb(0%, 0%, 0%)" stroke-opacity="1" stroke-miterlimit="10" d="M -2.071926 2.390174 C -1.69302 0.95658 -0.84927 0.280799 -0.00161375 -0.00045125 C -0.84927 -0.277795 -1.69302 -0.957482 -2.071926 -2.391076 " transform="matrix(-1, 0, 0, 1, 217.68198, 27.32467)"/>
<g fill="rgb(0%, 0%, 0%)" fill-opacity="1">
<use xlink:href="#glyph-5-0" x="231.894" y="23.632"/>
<use xlink:href="#glyph-5-1" x="234.149327" y="23.632"/>
</g>
<g fill="rgb(0%, 0%, 0%)" fill-opacity="1">
<use xlink:href="#glyph-4-0" x="239.91" y="23.632"/>
</g>
<g fill="rgb(0%, 0%, 0%)" fill-opacity="1">
<use xlink:href="#glyph-3-0" x="246.137" y="23.632"/>
</g>
<path fill="none" stroke-width="0.39848" stroke-linecap="butt" stroke-linejoin="miter" stroke="rgb(0%, 0%, 0%)" stroke-opacity="1" stroke-miterlimit="10" d="M -67.78775 -16.915156 L -114.811187 -16.915156 " transform="matrix(1, 0, 0, -1, 149.694, 43.245)"/>
<path fill="none" stroke-width="0.39848" stroke-linecap="round" stroke-linejoin="round" stroke="rgb(0%, 0%, 0%)" stroke-opacity="1" stroke-miterlimit="10" d="M -2.072086 2.389171 C -1.69318 0.955578 -0.84943 0.279796 -0.00177375 -0.00145375 C -0.84943 -0.278797 -1.69318 -0.954579 -2.072086 -2.392079 " transform="matrix(-1, 0, 0, 1, 34.68182, 60.16161)"/>
<g fill="rgb(0%, 0%, 0%)" fill-opacity="1">
<use xlink:href="#glyph-3-2" x="49.872" y="56.995"/>
</g>
<g fill="rgb(0%, 0%, 0%)" fill-opacity="1">
<use xlink:href="#glyph-4-0" x="53.636" y="56.995"/>
</g>
<g fill="rgb(0%, 0%, 0%)" fill-opacity="1">
<use xlink:href="#glyph-5-0" x="59.863" y="56.995"/>
<use xlink:href="#glyph-5-1" x="62.118327" y="56.995"/>
</g>
<path fill="none" stroke-width="0.39848" stroke-linecap="butt" stroke-linejoin="miter" stroke="rgb(0%, 0%, 0%)" stroke-opacity="1" stroke-miterlimit="10" d="M -8.209625 -16.915156 L -31.322906 -16.915156 " transform="matrix(1, 0, 0, -1, 149.694, 43.245)"/>
<path fill="none" stroke-width="0.39848" stroke-linecap="round" stroke-linejoin="round" stroke="rgb(0%, 0%, 0%)" stroke-opacity="1" stroke-miterlimit="10" d="M -2.070328 2.389171 C -1.695328 0.955578 -0.851578 0.279796 -0.000015 -0.00145375 C -0.851578 -0.278797 -1.695328 -0.954579 -2.070328 -2.392079 " transform="matrix(-1, 0, 0, 1, 118.17186, 60.16161)"/>
<g fill="rgb(0%, 0%, 0%)" fill-opacity="1">
<use xlink:href="#glyph-3-3" x="127.792" y="57.825"/>
</g>
<path fill="none" stroke-width="0.39848" stroke-linecap="butt" stroke-linejoin="miter" stroke="rgb(0%, 0%, 0%)" stroke-opacity="1" stroke-miterlimit="10" d="M -4.701812 -8.766719 C -11.791656 3.506719 11.790375 3.506719 4.903656 -8.422969 " transform="matrix(1, 0, 0, -1, 149.694, 43.245)"/>
<path fill="none" stroke-width="0.39848" stroke-linecap="round" stroke-linejoin="round" stroke="rgb(0%, 0%, 0%)" stroke-opacity="1" stroke-miterlimit="10" d="M -2.071728 2.392722 C -1.69309 0.955916 -0.850831 0.278516 0.000764052 -0.00105564 C -0.848779 -0.279637 -1.693603 -0.956953 -2.071317 -2.388474 " transform="matrix(-0.50008, 0.86598, 0.86598, 0.50008, 154.49739, 51.83971)"/>
<g fill="rgb(0%, 0%, 0%)" fill-opacity="1">
<use xlink:href="#glyph-5-2" x="144.879" y="39.468"/>
</g>
<g fill="rgb(0%, 0%, 0%)" fill-opacity="1">
<use xlink:href="#glyph-6-0" x="148.85" y="40.47"/>
</g>
<path fill="none" stroke-width="0.39848" stroke-linecap="butt" stroke-linejoin="miter" stroke="rgb(0%, 0%, 0%)" stroke-opacity="1" stroke-miterlimit="10" d="M 8.208344 -16.915156 L 31.321625 -16.915156 " transform="matrix(1, 0, 0, -1, 149.694, 43.245)"/>
<path fill="none" stroke-width="0.39848" stroke-linecap="round" stroke-linejoin="round" stroke="rgb(0%, 0%, 0%)" stroke-opacity="1" stroke-miterlimit="10" d="M -2.071609 2.392079 C -1.692702 0.954579 -0.848952 0.278797 -0.00129625 0.00145375 C -0.848952 -0.279796 -1.692702 -0.955578 -2.071609 -2.389171 " transform="matrix(1, 0, 0, -1, 181.21614, 60.16161)"/>
<g fill="rgb(0%, 0%, 0%)" fill-opacity="1">
<use xlink:href="#glyph-3-3" x="167.722" y="57.825"/>
</g>
<path fill="none" stroke-width="0.39848" stroke-linecap="butt" stroke-linejoin="miter" stroke="rgb(0%, 0%, 0%)" stroke-opacity="1" stroke-miterlimit="10" d="M 67.790375 -16.915156 L 114.813813 -16.915156 " transform="matrix(1, 0, 0, -1, 149.694, 43.245)"/>
<path fill="none" stroke-width="0.39848" stroke-linecap="round" stroke-linejoin="round" stroke="rgb(0%, 0%, 0%)" stroke-opacity="1" stroke-miterlimit="10" d="M -2.073368 2.392079 C -1.694461 0.954579 -0.850711 0.278797 0.00085125 0.00145375 C -0.850711 -0.279796 -1.694461 -0.955578 -2.073368 -2.389171 " transform="matrix(1, 0, 0, -1, 264.70618, 60.16161)"/>
<g fill="rgb(0%, 0%, 0%)" fill-opacity="1">
<use xlink:href="#glyph-5-0" x="232.189" y="56.995"/>
<use xlink:href="#glyph-5-1" x="234.444327" y="56.995"/>
</g>
<g fill="rgb(0%, 0%, 0%)" fill-opacity="1">
<use xlink:href="#glyph-4-0" x="240.206" y="56.995"/>
</g>
<g fill="rgb(0%, 0%, 0%)" fill-opacity="1">
<use xlink:href="#glyph-3-2" x="246.432" y="56.995"/>
</g>
</svg>
