<?xml version="1.0" encoding="UTF-8" standalone="no"?>
<!-- Created with Inkscape (http://www.inkscape.org/) -->

<svg
   version="1.1"
   id="svg1"
   width="77.716881"
   height="132.28506"
   viewBox="0 0 77.716881 132.28506"
   sodipodi:docname="2025Summer_Braids.svg"
   inkscape:version="1.4 (e7c3feb1, 2024-10-09)"
   xmlns:inkscape="http://www.inkscape.org/namespaces/inkscape"
   xmlns:sodipodi="http://sodipodi.sourceforge.net/DTD/sodipodi-0.dtd"
   xmlns="http://www.w3.org/2000/svg"
   xmlns:svg="http://www.w3.org/2000/svg">
  <defs
     id="defs1" />
  <sodipodi:namedview
     id="namedview1"
     pagecolor="#ffffff"
     bordercolor="#000000"
     borderopacity="0.25"
     inkscape:showpageshadow="2"
     inkscape:pageopacity="0.0"
     inkscape:pagecheckerboard="0"
     inkscape:deskcolor="#d1d1d1"
     inkscape:zoom="3.0383454"
     inkscape:cx="31.102454"
     inkscape:cy="70.926761"
     inkscape:window-width="1200"
     inkscape:window-height="1186"
     inkscape:window-x="42"
     inkscape:window-y="26"
     inkscape:window-maximized="0"
     inkscape:current-layer="g1">
    <inkscape:page
       x="0"
       y="0"
       inkscape:label="1"
       id="page1"
       width="77.716881"
       height="132.28506"
       margin="0"
       bleed="0" />
  </sodipodi:namedview>
  <g
     id="g1"
     inkscape:groupmode="layer"
     inkscape:label="1"
     transform="translate(-369.14264,-155.796)">
    <path
       id="path1"
       d="m 56.69362,0 v -7.08669 -29.76414 c 0,-5.74022 -5.74025,-8.89735 -12.05449,-11.79617 m -4.23784,-1.91979 C 34.08704,-53.4656 28.3468,-56.62274 28.3468,-62.36296 v -2.83469 c 0,-5.74022 -5.74023,-8.89735 -12.05449,-11.79617 M 12.05447,-78.9136 C 5.74023,-81.81242 0,-84.96954 0,-90.70978 v -8.50402"
       style="fill:none;stroke:#000000;stroke-width:1.59404;stroke-linecap:butt;stroke-linejoin:miter;stroke-miterlimit:10;stroke-dasharray:none;stroke-opacity:1"
       transform="matrix(1.3333333,0,0,-1.3333333,370.20533,155.796)" />
    <path
       id="path2"
       d="m 28.3468,0 v -7.08669 -1.41734 c 0,-5.74022 -5.74023,-8.89735 -12.05449,-11.79617 m -4.23784,-1.91979 C 5.74023,-25.1188 0,-28.27592 0,-34.01616 V -65.19765 C 0,-77.95372 28.3468,-77.9537 28.3468,-90.70978 v -8.50402"
       style="fill:none;stroke:#000000;stroke-width:1.59404;stroke-linecap:butt;stroke-linejoin:miter;stroke-miterlimit:10;stroke-dasharray:none;stroke-opacity:1"
       transform="matrix(1.3333333,0,0,-1.3333333,370.20533,155.796)" />
    <path
       id="path3"
       d="M 0,0 V -7.08669 -8.50403 C 0,-21.2601 28.3468,-21.26009 28.3468,-34.01616 v -2.83467 c 0,-12.75607 28.34682,-12.75606 28.34682,-25.51213 V -99.2138"
       style="fill:none;stroke:#000000;stroke-width:1.59404;stroke-linecap:butt;stroke-linejoin:miter;stroke-miterlimit:10;stroke-dasharray:none;stroke-opacity:1"
       transform="matrix(1.3333333,0,0,-1.3333333,370.20533,155.796)" />
    <path
       id="path4"
       d="M 2.0047891,-0.85620312 V -3.2702656 c 0,-0.421875 0.011719,-0.84375 0.023437,-0.9375 0,-0.035156 -0.011719,-0.035156 -0.035156,-0.035156 -0.3867187,0.234375 -0.7617187,0.4101563 -1.37109374,0.703125 0.0117188,0.070312 0.046875,0.140625 0.10546875,0.1875 0.31640629,-0.140625 0.46874999,-0.1757812 0.60937499,-0.1757812 0.1171875,0 0.140625,0.1640625 0.140625,0.3984375 v 2.27343748 c 0,0.5859375 -0.1992187,0.62109375 -0.67968749,0.64453125 -0.046875,0.0351563 -0.046875,0.1875 0,0.22265625 0.33984379,0 0.58593749,-0.011718755 0.97265629,-0.011718755 0.328125,0 0.4921875,0.011718755 0.84375,0.011718755 0.046875,-0.03515625 0.046875,-0.1875 0,-0.22265625 -0.4921875,-0.0234375 -0.609375,-0.0585937 -0.6093748,-0.64453155 z m 0,0"
       style="fill:#000000;fill-opacity:1;fill-rule:nonzero;stroke:none"
       aria-label="1"
       transform="matrix(1.3333333,0,0,1.3333333,405.83867,946.43067)" />
  </g>
</svg>
