<?xml version="1.0" encoding="UTF-8" standalone="no"?>
<!-- Created with Inkscape (http://www.inkscape.org/) -->

<svg
   version="1.1"
   id="svg1"
   width="115.51067"
   height="247.79466"
   viewBox="0 0 115.51067 247.79466"
   sodipodi:docname="fundamental_braid_2.pdf"
   xmlns:inkscape="http://www.inkscape.org/namespaces/inkscape"
   xmlns:sodipodi="http://sodipodi.sourceforge.net/DTD/sodipodi-0.dtd"
   xmlns="http://www.w3.org/2000/svg"
   xmlns:svg="http://www.w3.org/2000/svg">
  <defs
     id="defs1" />
  <sodipodi:namedview
     id="namedview1"
     pagecolor="#ffffff"
     bordercolor="#000000"
     borderopacity="0.25"
     inkscape:showpageshadow="2"
     inkscape:pageopacity="0.0"
     inkscape:pagecheckerboard="0"
     inkscape:deskcolor="#d1d1d1">
    <inkscape:page
       x="0"
       y="0"
       inkscape:label="1"
       id="page1"
       width="115.51067"
       height="247.79466"
       margin="0"
       bleed="0" />
  </sodipodi:namedview>
  <g
     id="g1"
     inkscape:groupmode="layer"
     inkscape:label="1">
    <path
       id="path1"
       d="m 85.04042,0 v -7.08669 -58.11096 c 0,-5.74022 -5.74023,-8.89735 -12.05449,-11.79617 M 68.7481,-78.9136 c -6.31425,-2.89882 -12.05448,-6.05594 -12.05448,-11.79618 v -31.18149 c 0,-5.74021 -5.74025,-8.89735 -12.05449,-11.79617 m -4.23784,-1.91978 c -6.31425,-2.89882 -12.05449,-6.05596 -12.05449,-11.79618 v -2.83467 c 0,-5.74023 -5.74023,-8.89735 -12.05449,-11.79617 m -4.23784,-1.91979 C 5.74023,-166.85284 0,-170.00998 0,-175.7502 v -8.50403"
       style="fill:none;stroke:#000000;stroke-width:1.59404;stroke-linecap:butt;stroke-linejoin:miter;stroke-miterlimit:10;stroke-dasharray:none;stroke-opacity:1"
       transform="matrix(1.3333333,0,0,-1.3333333,1.0626667,1.0626667)" />
    <path
       id="path2"
       d="m 56.69362,0 v -7.08669 -29.76414 c 0,-5.74022 -5.74025,-8.89735 -12.05449,-11.79617 m -4.23784,-1.91979 C 34.08704,-53.4656 28.3468,-56.62274 28.3468,-62.36296 v -31.18149 c 0,-5.74023 -5.74023,-8.89735 -12.05449,-11.79617 m -4.23784,-1.91978 C 5.74023,-110.15923 0,-113.31636 0,-119.05658 v -31.18149 c 0,-12.75607 28.3468,-12.75606 28.3468,-25.51213 v -8.50403"
       style="fill:none;stroke:#000000;stroke-width:1.59404;stroke-linecap:butt;stroke-linejoin:miter;stroke-miterlimit:10;stroke-dasharray:none;stroke-opacity:1"
       transform="matrix(1.3333333,0,0,-1.3333333,1.0626667,1.0626667)" />
    <path
       id="path3"
       d="m 28.3468,0 v -7.08669 -1.41734 c 0,-5.74022 -5.74023,-8.89735 -12.05449,-11.79617 m -4.23784,-1.91979 C 5.74023,-25.1188 0,-28.27592 0,-34.01616 v -59.52829 c 0,-12.75607 28.3468,-12.75605 28.3468,-25.51213 v -2.83469 c 0,-12.75607 28.34682,-12.75605 28.34682,-25.51213 v -36.85083"
       style="fill:none;stroke:#000000;stroke-width:1.59404;stroke-linecap:butt;stroke-linejoin:miter;stroke-miterlimit:10;stroke-dasharray:none;stroke-opacity:1"
       transform="matrix(1.3333333,0,0,-1.3333333,1.0626667,1.0626667)" />
    <path
       id="path4"
       d="M 0,0 V -7.08669 -8.50403 C 0,-21.2601 28.3468,-21.26009 28.3468,-34.01616 v -2.83467 c 0,-12.75607 28.34682,-12.75606 28.34682,-25.51213 v -2.83469 c 0,-12.75607 28.3468,-12.75605 28.3468,-25.51213 v -93.54445"
       style="fill:none;stroke:#000000;stroke-width:1.59404;stroke-linecap:butt;stroke-linejoin:miter;stroke-miterlimit:10;stroke-dasharray:none;stroke-opacity:1"
       transform="matrix(1.3333333,0,0,-1.3333333,1.0626667,1.0626667)" />
  </g>
</svg>
