<?xml version="1.0" encoding="UTF-8" standalone="no"?>
<!-- Created with Inkscape (http://www.inkscape.org/) -->

<svg
   version="1.1"
   id="svg1"
   width="169.18671"
   height="15.514038"
   viewBox="0 0 169.18671 15.514038"
   sodipodi:docname="Untitled 2025-08-23 (1).pdf"
   xmlns:inkscape="http://www.inkscape.org/namespaces/inkscape"
   xmlns:sodipodi="http://sodipodi.sourceforge.net/DTD/sodipodi-0.dtd"
   xmlns="http://www.w3.org/2000/svg"
   xmlns:svg="http://www.w3.org/2000/svg"
   xmlns:ns2="http://www.iki.fi/pav/software/textext/">
  <sodipodi:namedview
     id="namedview1"
     pagecolor="#ffffff"
     bordercolor="#000000"
     borderopacity="0.25"
     inkscape:showpageshadow="2"
     inkscape:pageopacity="0.0"
     inkscape:pagecheckerboard="0"
     inkscape:deskcolor="#d1d1d1"
     inkscape:zoom="4.39"
     inkscape:cx="156.15034"
     inkscape:cy="119.24829"
     inkscape:window-width="1760"
     inkscape:window-height="954"
     inkscape:window-x="31"
     inkscape:window-y="31"
     inkscape:window-maximized="0"
     inkscape:current-layer="g1">
    <inkscape:page
       x="0"
       y="0"
       width="169.18671"
       height="15.514038"
       id="page2"
       margin="0"
       bleed="0" />
  </sodipodi:namedview>
  <defs
     id="defs1" />
  <g
     id="g1"
     inkscape:groupmode="layer"
     inkscape:label="1"
     transform="translate(-97.700521,-95.389954)">
    <path
       id="path1"
       d="m 429.25049,335.5929 -0.99014,-0.50632 -1.00184,-0.58243 -1.00714,-0.61182 -1.06613,-0.71933 -0.9693,-0.71484 -0.93005,-0.74625 -0.89105,-0.78457 -0.92981,-0.85565 -0.92154,-0.88761 -0.8649,-0.8631 -0.70154,-0.72937 -0.81476,-0.87603 -0.73025,-0.83661 -0.65198,-0.79227 -0.75299,-0.94873 -0.63294,-0.81302 -0.79672,-1.04895 -0.73465,-0.96283 -0.67758,-0.88095 -0.76456,-0.97967 -0.70947,-0.8736 -0.64911,-0.78116 -0.73492,-0.87234 -0.66123,-0.77619 -0.74847,-0.86319 -0.84332,-0.96789 -0.69458,-0.77301 -0.87784,-0.96119 -0.7995,-0.85568 -0.81027,-0.85333 -0.83014,-0.83514 -0.74411,-0.72767 -0.75382,-0.71148 -0.86068,-0.78012 -0.77085,-0.67804 -0.98187,-0.81668 -0.89594,-0.70334 -0.99737,-0.74887 -1.01154,-0.72608 -1.12527,-0.76349 -1.04541,-0.65142 -1.06561,-0.61585 -0.96848,-0.51074 -1.11319,-0.52564 -1.01736,-0.43765 -1.14255,-0.4461 -1.16019,-0.39505 -1.05447,-0.31192 -1.17639,-0.29108 -1.18448,-0.22565 -1.30347,-0.17062 -1.17068,-0.0918 -1.17572,-0.0255 -1.04911,0.0343 -1.03805,0.0796 -1.24906,0.1691 -1.01788,0.20721 -1.1123,0.30463 -0.99427,0.34522 -1.10171,0.46511 -1.09558,0.56626 -1.03266,0.62118 -0.97018,0.65149 -0.81091,0.60321 -0.78113,0.63797 -0.83682,0.75138 -0.87827,0.87814 -0.82816,0.92618 -0.77703,0.96426 -0.65397,0.90918 -0.67828,1.04556 -0.56415,0.95206 -0.57568,1.08081 -0.52496,1.10095 -0.42304,1.00568 -0.41333,1.12772 -0.3529,1.13858 -0.27259,1.02771 -0.25143,1.15503 -0.18448,1.08981 -0.13831,1.13229 -0.0934,1.15549 -0.0389,1.05145 -0.005,0.46198"
       style="fill:#ffffff;fill-opacity:0;fill-rule:nonzero;stroke:#000000;stroke-width:1.42133;stroke-linecap:round;stroke-linejoin:round;stroke-miterlimit:10;stroke-dasharray:none;stroke-opacity:1"
       transform="scale(0.32012804)" />
    <path
       id="path2"
       d="m 360.59869,322.32471 0.0159,1.01925 0.0675,1.17734 0.12372,1.27002 0.15954,1.10651 0.24365,1.25488 0.24369,1.05835 0.29681,1.0705 0.37836,1.14877 0.4516,1.15137 0.50363,1.07971 0.47613,0.90692 0.67374,1.09872 0.59671,0.8472 0.7562,0.93714 0.71789,0.76232 0.81552,0.76145 0.87812,0.71365 0.89825,0.6424 1.02197,0.65097 0.96244,0.54321 1.11572,0.56455 0.96457,0.44122 1.11075,0.45532 1.02975,0.37924 1.09201,0.37464 1.10172,0.34085 1.00225,0.27743 1.25162,0.29407 1.05414,0.2019 1.0177,0.15509 1.04275,0.11136 1.19559,0.0858 1.21176,0.0165 1.22922,-0.0293 1.00217,-0.0576 1.11621,-0.10217 1.22165,-0.16424 1.11145,-0.20209 1.10187,-0.24765 1.10168,-0.28794 1.1319,-0.33044 1.14099,-0.37412 1.06702,-0.38992 1.0744,-0.43237 0.97061,-0.43335 1.00976,-0.49716 0.94342,-0.50498 0.89805,-0.50274 0.96615,-0.57795 1.0405,-0.65261 0.89374,-0.59296 1.00232,-0.68539 0.97955,-0.68955 0.80633,-0.59283 0.87012,-0.66269 1.08344,-0.87961 1.0375,-0.90143 0.78739,-0.70886 0.76391,-0.70224 0.74668,-0.69553 0.87905,-0.84485 0.88999,-0.87738 0.85922,-0.87231 0.85159,-0.85727 0.87983,-0.89316 0.76806,-0.79748 0.89157,-0.90598 0.85654,-0.88806 0.84995,-0.85129 0.79959,-0.81116 0.76599,-0.75103 0.92349,-0.87021 0.75107,-0.67414 0.76474,-0.64975 0.86056,-0.68347 0.80884,-0.64291"
       style="fill:#ffffff;fill-opacity:0;fill-rule:nonzero;stroke:#000000;stroke-width:2.42599;stroke-linecap:round;stroke-linejoin:round;stroke-miterlimit:10;stroke-dasharray:none;stroke-opacity:1"
       transform="scale(0.32012804)" />
    <path
       id="path3"
       d="m 186.85317,104.23157 0.35226,0.0259 0.342,0.12051 0.34979,0.15522 0.35888,0.172 0.28591,0.15077 0.33632,0.18484 0.27678,0.16227 0.32316,0.18861 0.33133,0.18157 0.29511,0.14071 0.29437,0.1306 0.36109,0.16029 0.33389,0.14346 0.34309,0.14308 0.36554,0.13955 0.33645,0.1298 0.30905,0.13226 0.25941,0.12111"
       style="fill:#ffffff;fill-opacity:0;fill-rule:nonzero;stroke:#000000;stroke-width:0.458948;stroke-linecap:round;stroke-linejoin:round;stroke-miterlimit:10;stroke-dasharray:none;stroke-opacity:1" />
    <path
       id="path4"
       d="m 192.29225,103.44029 -0.31093,0.0217 -0.31729,0.21992 -0.29435,0.22771 -0.26276,0.20409 -0.26703,0.2183 -0.2787,0.235 -0.25603,0.22953 -0.28166,0.26767 -0.26834,0.25929 -0.28568,0.27616 -0.2796,0.27398 -0.26856,0.26401 -0.22961,0.2278 -0.26377,0.26241 -0.28007,0.27915 -0.22873,0.22915 -1.09421,1.03738"
       style="fill:#ffffff;fill-opacity:0;fill-rule:nonzero;stroke:#000000;stroke-width:0.457469;stroke-linecap:round;stroke-linejoin:round;stroke-miterlimit:10;stroke-dasharray:none;stroke-opacity:1" />
    <path
       id="path5"
       d="m 245.23162,105.06476 0.31422,0.14304 0.29797,0.19694 0.32111,0.20414 0.33016,0.204 0.27153,0.17183 0.29559,0.19528 0.32807,0.21981 0.31983,0.21803 0.28727,0.19762 0.3127,0.21102 0.29421,0.185 0.36562,0.21818 0.36982,0.20259 0.29147,0.15311 0.32602,0.16955 0.30562,0.15507 0.31133,0.15612 0.28769,0.14156 0.32656,0.15686 0.33289,0.15342 0.34126,0.14906 0.3114,0.13008 0.35531,0.13691 0.36114,0.13065 0.33204,0.11357 0.37311,0.11858 0.35362,0.10168 0.33059,0.0871 0.39237,0.0925 0.31947,0.0663 0.40291,0.0714 0.32913,0.0474 0.32877,0.0381 0.0833,0.008"
       style="fill:#ffffff;fill-opacity:0;fill-rule:nonzero;stroke:#000000;stroke-width:0.455501;stroke-linecap:round;stroke-linejoin:round;stroke-miterlimit:10;stroke-dasharray:none;stroke-opacity:1" />
    <path
       id="path6"
       d="m 256.1357,110.00891 0.33125,0.0255 0.37273,0.0172 0.3309,0.005 0.37132,-0.007 0.32726,-0.0164 0.40452,-0.0358 0.36508,-0.0467 0.32552,-0.0545 0.40215,-0.0849 0.37534,-0.0951 0.42428,-0.12518 0.35753,-0.12055 0.31489,-0.11683 0.34922,-0.14015 0.342,-0.15125 0.33507,-0.16384 0.32828,-0.17565 0.28491,-0.16757 0.27467,-0.17861 0.32196,-0.22848 0.29113,-0.22264 0.30544,-0.25429 0.26017,-0.23768 0.27558,-0.27446 0.25989,-0.27897 0.22177,-0.25755 0.23271,-0.29079 0.19582,-0.26373 0.18349,-0.26595 0.20576,-0.32748 0.18539,-0.32811 0.1692,-0.33133 0.13639,-0.30749 0.11815,-0.31126 0.10666,-0.3327 0.0865,-0.31706 0.0835,-0.38264 0.0581,-0.36824 0.0376,-0.38122 0.0115,-0.33759 -0.007,-0.32887 -0.0349,-0.39062 -0.0679,-0.3515 -0.0948,-0.33394 -0.14283,-0.36712 -0.16489,-0.331766 -0.18406,-0.2984 -0.2256,-0.29833 -0.23356,-0.25928 -0.26607,-0.25674 -0.26786,-0.2213 -0.28728,-0.20129 -0.31108,-0.18045 -0.32319,-0.14757 -0.38306,-0.13275 -0.38162,-0.10036 -0.31344,-0.065 -0.32699,-0.05 -0.35283,-0.04 -0.41357,-0.0298 -0.4013,-0.006 -0.39368,0.0195 -0.41388,0.052 -0.35941,0.074 -0.32918,0.0912 -0.37549,0.12572 -0.30443,0.11902 -0.30429,0.13537 -0.34115,0.16977 -0.33432,0.18729 -0.34128,0.21093 -0.32911,0.22641 -0.31681,0.23536 -0.27223,0.21244 -0.29576,0.24214 -0.29316,0.246836 -0.29534,0.25861 -0.30035,0.27066 -0.27236,0.25106 -0.25506,0.24434 -0.30117,0.29466 -0.2716,0.27553 -0.24235,0.25127 -0.24499,0.26287 -0.22543,0.24748 -0.27722,0.30912 -0.2544,0.28502 -0.25209,0.28336 -0.22719,0.25349 -0.22515,0.25163 -0.2434,0.27111 -0.28313,0.31278 -0.26263,0.28851 -0.2433,0.26732 -0.24937,0.27056 -0.22761,0.24353 -0.24922,0.26268 -0.22708,0.23828 -0.2497,0.25754 -0.27486,0.2798 -0.28523,0.27678 -0.24579,0.23708 -0.24723,0.23198 -0.26181,0.2413 -0.31446,0.28374 -0.25313,0.22208 -0.29468,0.24757 -0.28365,0.22657 -0.28496,0.20972 -0.27698,0.18475 -0.31291,0.18182 -0.33251,0.1647 -0.29838,0.12576 -0.33699,0.12425 -0.33036,0.10781"
       style="fill:#ffffff;fill-opacity:0;fill-rule:nonzero;stroke:#000000;stroke-width:0.775824;stroke-linecap:round;stroke-linejoin:round;stroke-miterlimit:10;stroke-dasharray:none;stroke-opacity:1" />
    <g
       id="g1451"
       transform="matrix(0.533332,0,0,0.533332,97.70059,102.33137)"
       ns2:version="1.12.0"
       ns2:texconverter="pdflatex"
       ns2:pdfconverter="inkscape"
       ns2:text="$U_1=$"
       ns2:preamble="/Users/yiranmao/Library/Application Support/org.inkscape.Inkscape/config/inkscape/extensions/textext/default_packages.tex"
       ns2:scale="0.4"
       ns2:alignment="middle center"
       ns2:jacobian_sqrt="0.533332">
      <defs
         id="defs4008" />
      <g
         fill="#000000"
         fill-opacity="1"
         id="g5804"
         transform="translate(-149.384,-127.953)">
        <g
           transform="translate(148.712,134.765)"
           id="g1515">
          <path
             d="M 6.328125,-5.765625 C 6.4375,-6.171875 6.609375,-6.46875 7.40625,-6.5 c 0.046875,0 0.171875,-0.015625 0.171875,-0.203125 0,0 0,-0.109375 -0.125,-0.109375 -0.328125,0 -0.6875,0.03125 -1.015625,0.03125 -0.34375,0 -0.71875,-0.03125 -1.046875,-0.03125 -0.0625,0 -0.171875,0 -0.171875,0.203125 C 5.21875,-6.5 5.3125,-6.5 5.390625,-6.5 c 0.578125,0.015625 0.6875,0.21875 0.6875,0.4375 0,0.03125 -0.03125,0.1875 -0.03125,0.203125 l -0.90625,3.5625 C 4.8125,-0.953125 3.65625,-0.09375 2.65625,-0.09375 c -0.671875,0 -1.203125,-0.4375 -1.203125,-1.296875 0,-0.015625 0,-0.328125 0.109375,-0.765625 L 2.515625,-6.046875 C 2.609375,-6.40625 2.625,-6.5 3.359375,-6.5 c 0.265625,0 0.34375,0 0.34375,-0.203125 0,-0.109375 -0.109375,-0.109375 -0.140625,-0.109375 -0.28125,0 -1,0.03125 -1.28125,0.03125 -0.28125,0 -1,-0.03125 -1.28125,-0.03125 -0.078125,0 -0.1875,0 -0.1875,0.203125 C 0.8125,-6.5 0.890625,-6.5 1.09375,-6.5 c 0.015625,0 0.203125,0 0.375,0.015625 0.171875,0.03125 0.265625,0.03125 0.265625,0.171875 0,0.046875 -0.109375,0.46875 -0.171875,0.703125 l -0.21875,0.875 C 1.25,-4.34375 0.78125,-2.46875 0.734375,-2.265625 0.671875,-2 0.671875,-1.84375 0.671875,-1.6875 c 0,1.203125 0.90625,1.90625 1.953125,1.90625 1.25,0 2.484375,-1.125 2.8125,-2.4375 z m 0,0"
             id="path6798" />
        </g>
      </g>
      <g
         fill="#000000"
         fill-opacity="1"
         id="g727"
         transform="translate(-149.384,-127.953)">
        <g
           transform="translate(155.515,136.259)"
           id="g2342">
          <path
             d="m 2.328125,-4.4375 c 0,-0.1875 0,-0.1875 -0.203125,-0.1875 -0.453125,0.4375 -1.078125,0.4375 -1.359375,0.4375 v 0.25 c 0.15625,0 0.625,0 1,-0.1875 v 3.546875 c 0,0.234375 0,0.328125 -0.6875,0.328125 H 0.8125 V 0 c 0.125,0 0.984375,-0.03125 1.234375,-0.03125 0.21875,0 1.09375,0.03125 1.25,0.03125 V -0.25 H 3.03125 c -0.703125,0 -0.703125,-0.09375 -0.703125,-0.328125 z m 0,0"
             id="path5304" />
        </g>
      </g>
      <g
         fill="#000000"
         fill-opacity="1"
         id="g4396"
         transform="translate(-149.384,-127.953)">
        <g
           transform="translate(162.751,134.765)"
           id="g9365">
          <path
             d="m 6.84375,-3.265625 c 0.15625,0 0.34375,0 0.34375,-0.1875 C 7.1875,-3.65625 7,-3.65625 6.859375,-3.65625 h -5.96875 c -0.140625,0 -0.328125,0 -0.328125,0.203125 0,0.1875 0.1875,0.1875 0.328125,0.1875 z m 0.015625,1.9375 c 0.140625,0 0.328125,0 0.328125,-0.203125 0,-0.1875 -0.1875,-0.1875 -0.34375,-0.1875 H 0.890625 c -0.140625,0 -0.328125,0 -0.328125,0.1875 0,0.203125 0.1875,0.203125 0.328125,0.203125 z m 0,0"
             id="path8823" />
        </g>
      </g>
    </g>
    <g
       id="g17"
       transform="matrix(0.533332,0,0,0.533332,97.4728,101.648)"
       ns2:version="1.12.0"
       ns2:texconverter="pdflatex"
       ns2:pdfconverter="inkscape"
       ns2:text="$U_1=$"
       ns2:preamble="/Users/yiranmao/Library/Application Support/org.inkscape.Inkscape/config/inkscape/extensions/textext/default_packages.tex"
       ns2:scale="0.4"
       ns2:alignment="middle center"
       ns2:jacobian_sqrt="0.533332">
      <defs
         id="defs10" />
      <g
         fill="#000000"
         fill-opacity="1"
         id="g12"
         transform="translate(-148.95689,-126.67168)">
        <g
           transform="translate(148.712,134.765)"
           id="g11">
          <path
             d="M 6.328125,-5.765625 C 6.4375,-6.171875 6.609375,-6.46875 7.40625,-6.5 c 0.046875,0 0.171875,-0.015625 0.171875,-0.203125 0,0 0,-0.109375 -0.125,-0.109375 -0.328125,0 -0.6875,0.03125 -1.015625,0.03125 -0.34375,0 -0.71875,-0.03125 -1.046875,-0.03125 -0.0625,0 -0.171875,0 -0.171875,0.203125 C 5.21875,-6.5 5.3125,-6.5 5.390625,-6.5 c 0.578125,0.015625 0.6875,0.21875 0.6875,0.4375 0,0.03125 -0.03125,0.1875 -0.03125,0.203125 l -0.90625,3.5625 C 4.8125,-0.953125 3.65625,-0.09375 2.65625,-0.09375 c -0.671875,0 -1.203125,-0.4375 -1.203125,-1.296875 0,-0.015625 0,-0.328125 0.109375,-0.765625 L 2.515625,-6.046875 C 2.609375,-6.40625 2.625,-6.5 3.359375,-6.5 c 0.265625,0 0.34375,0 0.34375,-0.203125 0,-0.109375 -0.109375,-0.109375 -0.140625,-0.109375 -0.28125,0 -1,0.03125 -1.28125,0.03125 -0.28125,0 -1,-0.03125 -1.28125,-0.03125 -0.078125,0 -0.1875,0 -0.1875,0.203125 C 0.8125,-6.5 0.890625,-6.5 1.09375,-6.5 c 0.015625,0 0.203125,0 0.375,0.015625 0.171875,0.03125 0.265625,0.03125 0.265625,0.171875 0,0.046875 -0.109375,0.46875 -0.171875,0.703125 l -0.21875,0.875 C 1.25,-4.34375 0.78125,-2.46875 0.734375,-2.265625 0.671875,-2 0.671875,-1.84375 0.671875,-1.6875 c 0,1.203125 0.90625,1.90625 1.953125,1.90625 1.25,0 2.484375,-1.125 2.8125,-2.4375 z m 0,0"
             id="path10" />
        </g>
      </g>
      <g
         fill="#000000"
         fill-opacity="1"
         id="g14"
         transform="translate(-148.95689,-126.67168)">
        <g
           transform="translate(155.515,136.259)"
           id="g13">
          <path
             d="m 2.328125,-4.4375 c 0,-0.1875 0,-0.1875 -0.203125,-0.1875 -0.453125,0.4375 -1.078125,0.4375 -1.359375,0.4375 v 0.25 c 0.15625,0 0.625,0 1,-0.1875 v 3.546875 c 0,0.234375 0,0.328125 -0.6875,0.328125 H 0.8125 V 0 c 0.125,0 0.984375,-0.03125 1.234375,-0.03125 0.21875,0 1.09375,0.03125 1.25,0.03125 V -0.25 H 3.03125 c -0.703125,0 -0.703125,-0.09375 -0.703125,-0.328125 z m 0,0"
             id="path12" />
        </g>
      </g>
      <g
         fill="#000000"
         fill-opacity="1"
         id="g16"
         transform="translate(-148.95689,-126.67168)">
        <g
           transform="translate(162.751,134.765)"
           id="g15">
          <path
             d="m 6.84375,-3.265625 c 0.15625,0 0.34375,0 0.34375,-0.1875 C 7.1875,-3.65625 7,-3.65625 6.859375,-3.65625 h -5.96875 c -0.140625,0 -0.328125,0 -0.328125,0.203125 0,0.1875 0.1875,0.1875 0.328125,0.1875 z m 0.015625,1.9375 c 0.140625,0 0.328125,0 0.328125,-0.203125 0,-0.1875 -0.1875,-0.1875 -0.34375,-0.1875 H 0.890625 c -0.140625,0 -0.328125,0 -0.328125,0.1875 0,0.203125 0.1875,0.203125 0.328125,0.203125 z m 0,0"
             id="path14" />
        </g>
      </g>
    </g>
    <g
       id="g33"
       transform="matrix(0.533332,0,0,0.533332,171.73211,103.698)"
       ns2:version="1.12.0"
       ns2:texconverter="pdflatex"
       ns2:pdfconverter="inkscape"
       ns2:text="$U_2=$"
       ns2:preamble="/Users/yiranmao/Library/Application Support/org.inkscape.Inkscape/config/inkscape/extensions/textext/default_packages.tex"
       ns2:scale="0.4"
       ns2:alignment="middle center"
       ns2:jacobian_sqrt="0.533332">
      <defs
         id="defs4490" />
      <g
         fill="#000000"
         fill-opacity="1"
         id="g1271"
         transform="translate(-149.384,-127.953)">
        <g
           transform="translate(148.712,134.765)"
           id="g5946">
          <path
             d="M 6.328125,-5.765625 C 6.4375,-6.171875 6.609375,-6.46875 7.40625,-6.5 c 0.046875,0 0.171875,-0.015625 0.171875,-0.203125 0,0 0,-0.109375 -0.125,-0.109375 -0.328125,0 -0.6875,0.03125 -1.015625,0.03125 -0.34375,0 -0.71875,-0.03125 -1.046875,-0.03125 -0.0625,0 -0.171875,0 -0.171875,0.203125 C 5.21875,-6.5 5.3125,-6.5 5.390625,-6.5 c 0.578125,0.015625 0.6875,0.21875 0.6875,0.4375 0,0.03125 -0.03125,0.1875 -0.03125,0.203125 l -0.90625,3.5625 C 4.8125,-0.953125 3.65625,-0.09375 2.65625,-0.09375 c -0.671875,0 -1.203125,-0.4375 -1.203125,-1.296875 0,-0.015625 0,-0.328125 0.109375,-0.765625 L 2.515625,-6.046875 C 2.609375,-6.40625 2.625,-6.5 3.359375,-6.5 c 0.265625,0 0.34375,0 0.34375,-0.203125 0,-0.109375 -0.109375,-0.109375 -0.140625,-0.109375 -0.28125,0 -1,0.03125 -1.28125,0.03125 -0.28125,0 -1,-0.03125 -1.28125,-0.03125 -0.078125,0 -0.1875,0 -0.1875,0.203125 C 0.8125,-6.5 0.890625,-6.5 1.09375,-6.5 c 0.015625,0 0.203125,0 0.375,0.015625 0.171875,0.03125 0.265625,0.03125 0.265625,0.171875 0,0.046875 -0.109375,0.46875 -0.171875,0.703125 l -0.21875,0.875 C 1.25,-4.34375 0.78125,-2.46875 0.734375,-2.265625 0.671875,-2 0.671875,-1.84375 0.671875,-1.6875 c 0,1.203125 0.90625,1.90625 1.953125,1.90625 1.25,0 2.484375,-1.125 2.8125,-2.4375 z m 0,0"
             id="path1762" />
        </g>
      </g>
      <g
         fill="#000000"
         fill-opacity="1"
         id="g1851"
         transform="translate(-149.384,-127.953)">
        <g
           transform="translate(155.515,136.259)"
           id="g1043">
          <path
             d="M 3.515625,-1.265625 H 3.28125 c -0.015625,0.15625 -0.09375,0.5625 -0.1875,0.625 C 3.046875,-0.59375 2.515625,-0.59375 2.40625,-0.59375 H 1.125 c 0.734375,-0.640625 0.984375,-0.84375 1.390625,-1.171875 0.515625,-0.40625 1,-0.84375 1,-1.5 0,-0.84375 -0.734375,-1.359375 -1.625,-1.359375 -0.859375,0 -1.453125,0.609375 -1.453125,1.25 0,0.34375 0.296875,0.390625 0.375,0.390625 0.15625,0 0.359375,-0.125 0.359375,-0.375 0,-0.125 -0.046875,-0.375 -0.40625,-0.375 C 0.984375,-4.21875 1.453125,-4.375 1.78125,-4.375 c 0.703125,0 1.0625,0.546875 1.0625,1.109375 0,0.609375 -0.4375,1.078125 -0.65625,1.328125 L 0.515625,-0.265625 C 0.4375,-0.203125 0.4375,-0.1875 0.4375,0 h 2.875 z m 0,0"
             id="path2748" />
        </g>
      </g>
      <g
         fill="#000000"
         fill-opacity="1"
         id="g472"
         transform="translate(-149.384,-127.953)">
        <g
           transform="translate(162.751,134.765)"
           id="g4648">
          <path
             d="m 6.84375,-3.265625 c 0.15625,0 0.34375,0 0.34375,-0.1875 C 7.1875,-3.65625 7,-3.65625 6.859375,-3.65625 h -5.96875 c -0.140625,0 -0.328125,0 -0.328125,0.203125 0,0.1875 0.1875,0.1875 0.328125,0.1875 z m 0.015625,1.9375 c 0.140625,0 0.328125,0 0.328125,-0.203125 0,-0.1875 -0.1875,-0.1875 -0.34375,-0.1875 H 0.890625 c -0.140625,0 -0.328125,0 -0.328125,0.1875 0,0.203125 0.1875,0.203125 0.328125,0.203125 z m 0,0"
             id="path8213" />
        </g>
      </g>
    </g>
    <g
       id="g49"
       transform="matrix(0.533332,0,0,0.533332,228.908,104.116)"
       ns2:version="1.12.0"
       ns2:texconverter="pdflatex"
       ns2:pdfconverter="inkscape"
       ns2:text="$U_3=$"
       ns2:preamble="/Users/yiranmao/Library/Application Support/org.inkscape.Inkscape/config/inkscape/extensions/textext/default_packages.tex"
       ns2:scale="0.4"
       ns2:alignment="middle center"
       ns2:jacobian_sqrt="0.533332">
      <defs
         id="defs7612" />
      <g
         fill="#000000"
         fill-opacity="1"
         id="g6680"
         transform="translate(-149.384,-127.953)">
        <g
           transform="translate(148.712,134.765)"
           id="g1864">
          <path
             d="M 6.328125,-5.765625 C 6.4375,-6.171875 6.609375,-6.46875 7.40625,-6.5 c 0.046875,0 0.171875,-0.015625 0.171875,-0.203125 0,0 0,-0.109375 -0.125,-0.109375 -0.328125,0 -0.6875,0.03125 -1.015625,0.03125 -0.34375,0 -0.71875,-0.03125 -1.046875,-0.03125 -0.0625,0 -0.171875,0 -0.171875,0.203125 C 5.21875,-6.5 5.3125,-6.5 5.390625,-6.5 c 0.578125,0.015625 0.6875,0.21875 0.6875,0.4375 0,0.03125 -0.03125,0.1875 -0.03125,0.203125 l -0.90625,3.5625 C 4.8125,-0.953125 3.65625,-0.09375 2.65625,-0.09375 c -0.671875,0 -1.203125,-0.4375 -1.203125,-1.296875 0,-0.015625 0,-0.328125 0.109375,-0.765625 L 2.515625,-6.046875 C 2.609375,-6.40625 2.625,-6.5 3.359375,-6.5 c 0.265625,0 0.34375,0 0.34375,-0.203125 0,-0.109375 -0.109375,-0.109375 -0.140625,-0.109375 -0.28125,0 -1,0.03125 -1.28125,0.03125 -0.28125,0 -1,-0.03125 -1.28125,-0.03125 -0.078125,0 -0.1875,0 -0.1875,0.203125 C 0.8125,-6.5 0.890625,-6.5 1.09375,-6.5 c 0.015625,0 0.203125,0 0.375,0.015625 0.171875,0.03125 0.265625,0.03125 0.265625,0.171875 0,0.046875 -0.109375,0.46875 -0.171875,0.703125 l -0.21875,0.875 C 1.25,-4.34375 0.78125,-2.46875 0.734375,-2.265625 0.671875,-2 0.671875,-1.84375 0.671875,-1.6875 c 0,1.203125 0.90625,1.90625 1.953125,1.90625 1.25,0 2.484375,-1.125 2.8125,-2.4375 z m 0,0"
             id="path9588" />
        </g>
      </g>
      <g
         fill="#000000"
         fill-opacity="1"
         id="g7539"
         transform="translate(-149.384,-127.953)">
        <g
           transform="translate(155.515,136.259)"
           id="g2037">
          <path
             d="m 1.90625,-2.328125 c 0.546875,0 0.9375,0.375 0.9375,1.125 0,0.859375 -0.515625,1.125 -0.90625,1.125 -0.28125,0 -0.90625,-0.078125 -1.1875,-0.5 0.328125,0 0.40625,-0.234375 0.40625,-0.390625 0,-0.21875 -0.171875,-0.375 -0.390625,-0.375 -0.1875,0 -0.390625,0.125 -0.390625,0.40625 0,0.65625 0.71875,1.078125 1.5625,1.078125 0.96875,0 1.640625,-0.65625 1.640625,-1.34375 0,-0.546875 -0.4375,-1.09375 -1.203125,-1.25 0.71875,-0.265625 0.984375,-0.78125 0.984375,-1.21875 0,-0.546875 -0.625,-0.953125 -1.40625,-0.953125 -0.765625,0 -1.359375,0.375 -1.359375,0.9375 0,0.234375 0.15625,0.359375 0.359375,0.359375 0.21875,0 0.359375,-0.15625 0.359375,-0.34375 0,-0.203125 -0.140625,-0.359375 -0.359375,-0.375 0.25,-0.296875 0.71875,-0.375 0.984375,-0.375 0.3125,0 0.75,0.15625 0.75,0.75 0,0.296875 -0.09375,0.625 -0.28125,0.828125 -0.21875,0.265625 -0.421875,0.28125 -0.765625,0.3125 -0.171875,0.015625 -0.1875,0.015625 -0.21875,0.015625 -0.015625,0 -0.078125,0.015625 -0.078125,0.09375 0,0.09375 0.0625,0.09375 0.1875,0.09375 z m 0,0"
             id="path2123" />
        </g>
      </g>
      <g
         fill="#000000"
         fill-opacity="1"
         id="g6952"
         transform="translate(-149.384,-127.953)">
        <g
           transform="translate(162.751,134.765)"
           id="g9185">
          <path
             d="m 6.84375,-3.265625 c 0.15625,0 0.34375,0 0.34375,-0.1875 C 7.1875,-3.65625 7,-3.65625 6.859375,-3.65625 h -5.96875 c -0.140625,0 -0.328125,0 -0.328125,0.203125 0,0.1875 0.1875,0.1875 0.328125,0.1875 z m 0.015625,1.9375 c 0.140625,0 0.328125,0 0.328125,-0.203125 0,-0.1875 -0.1875,-0.1875 -0.34375,-0.1875 H 0.890625 c -0.140625,0 -0.328125,0 -0.328125,0.1875 0,0.203125 0.1875,0.203125 0.328125,0.203125 z m 0,0"
             id="path1705" />
        </g>
      </g>
    </g>
  </g>
</svg>
