<?xml version="1.0" encoding="UTF-8" standalone="no"?>
<!-- Created with Inkscape (http://www.inkscape.org/) -->

<svg
   width="54.265106mm"
   height="35.647118mm"
   viewBox="0 0 54.265106 35.647118"
   version="1.1"
   id="svg1"
   inkscape:version="1.4 (e7c3feb1, 2024-10-09)"
   sodipodi:docname="drawing.svg"
   xmlns:inkscape="http://www.inkscape.org/namespaces/inkscape"
   xmlns:sodipodi="http://sodipodi.sourceforge.net/DTD/sodipodi-0.dtd"
   xmlns="http://www.w3.org/2000/svg"
   xmlns:svg="http://www.w3.org/2000/svg"
   xmlns:ns1="http://www.iki.fi/pav/software/textext/">
  <sodipodi:namedview
     id="namedview1"
     pagecolor="#ffffff"
     bordercolor="#000000"
     borderopacity="0.25"
     inkscape:showpageshadow="2"
     inkscape:pageopacity="0.0"
     inkscape:pagecheckerboard="0"
     inkscape:deskcolor="#d1d1d1"
     inkscape:document-units="mm"
     inkscape:zoom="4.1501335"
     inkscape:cx="183.96999"
     inkscape:cy="150.47709"
     inkscape:window-width="1568"
     inkscape:window-height="1186"
     inkscape:window-x="337"
     inkscape:window-y="250"
     inkscape:window-maximized="0"
     inkscape:current-layer="layer1">
    <inkscape:page
       x="0"
       y="0"
       width="54.265106"
       height="35.647118"
       id="page2"
       margin="0"
       bleed="0" />
  </sodipodi:namedview>
  <defs
     id="defs1">
    <marker
       style="overflow:visible"
       id="marker70"
       refX="64"
       refY="0"
       orient="auto-start-reverse"
       inkscape:stockid="Wide, rounded arrow"
       markerWidth="1"
       markerHeight="1"
       viewBox="0 0 1 1"
       inkscape:isstock="true"
       inkscape:collect="always"
       preserveAspectRatio="xMidYMid">
      <path
         style="fill:none;stroke:context-stroke;stroke-width:1;stroke-linecap:round"
         d="M 3,-3 0,0 3,3"
         transform="rotate(180,0.125,0)"
         sodipodi:nodetypes="ccc"
         id="path70" />
    </marker>
    <marker
       style="overflow:visible"
       id="marker69"
       refX="82"
       refY="0"
       orient="auto-start-reverse"
       inkscape:stockid="Wide, rounded arrow"
       markerWidth="1"
       markerHeight="1"
       viewBox="0 0 1 1"
       inkscape:isstock="true"
       inkscape:collect="always"
       preserveAspectRatio="xMidYMid">
      <path
         style="fill:none;stroke:context-stroke;stroke-width:1;stroke-linecap:round"
         d="M 3,-3 0,0 3,3"
         transform="rotate(180,0.125,0)"
         sodipodi:nodetypes="ccc"
         id="path69" />
    </marker>
    <marker
       style="overflow:visible"
       id="marker68"
       refX="83"
       refY="0"
       orient="auto-start-reverse"
       inkscape:stockid="Wide, rounded arrow"
       markerWidth="1"
       markerHeight="1"
       viewBox="0 0 1 1"
       inkscape:isstock="true"
       inkscape:collect="always"
       preserveAspectRatio="xMidYMid">
      <path
         style="fill:none;stroke:context-stroke;stroke-width:1;stroke-linecap:round"
         d="M 0.45710678,3 -2.5428932,0 0.45710678,-3"
         sodipodi:nodetypes="ccc"
         id="path68" />
    </marker>
    <inkscape:path-effect
       effect="spiro"
       id="path-effect66"
       is_visible="true"
       lpeversion="1" />
    <inkscape:path-effect
       effect="spiro"
       id="path-effect65"
       is_visible="true"
       lpeversion="1" />
    <marker
       style="overflow:visible"
       id="marker62"
       refX="61"
       refY="0"
       orient="auto-start-reverse"
       inkscape:stockid="Wide, rounded arrow"
       markerWidth="1"
       markerHeight="1"
       viewBox="0 0 1 1"
       inkscape:isstock="true"
       inkscape:collect="always"
       preserveAspectRatio="xMidYMid">
      <path
         style="fill:none;stroke:context-stroke;stroke-width:1;stroke-linecap:round"
         d="M 3,-3 0,0 3,3"
         transform="rotate(180,0.125,0)"
         sodipodi:nodetypes="ccc"
         id="path62" />
    </marker>
    <marker
       style="overflow:visible"
       id="marker61"
       refX="83"
       refY="0"
       orient="auto-start-reverse"
       inkscape:stockid="Wide, rounded arrow"
       markerWidth="1"
       markerHeight="1"
       viewBox="0 0 1 1"
       inkscape:isstock="true"
       inkscape:collect="always"
       preserveAspectRatio="xMidYMid">
      <path
         style="fill:none;stroke:context-stroke;stroke-width:1;stroke-linecap:round"
         d="M 3,-3 0,0 3,3"
         transform="rotate(180,0.125,0)"
         sodipodi:nodetypes="ccc"
         id="path61" />
    </marker>
    <marker
       style="overflow:visible"
       id="marker60"
       refX="84"
       refY="0"
       orient="auto-start-reverse"
       inkscape:stockid="Wide, rounded arrow"
       markerWidth="1"
       markerHeight="1"
       viewBox="0 0 1 1"
       inkscape:isstock="true"
       inkscape:collect="always"
       preserveAspectRatio="xMidYMid">
      <path
         style="fill:none;stroke:context-stroke;stroke-width:1;stroke-linecap:round"
         d="M 3,-3 0,0 3,3"
         transform="rotate(180,0.125,0)"
         sodipodi:nodetypes="ccc"
         id="path60" />
    </marker>
    <marker
       style="overflow:visible"
       id="marker59"
       refX="61"
       refY="0"
       orient="auto-start-reverse"
       inkscape:stockid="Wide, rounded arrow"
       markerWidth="1"
       markerHeight="1"
       viewBox="0 0 1 1"
       inkscape:isstock="true"
       inkscape:collect="always"
       preserveAspectRatio="xMidYMid">
      <path
         style="fill:none;stroke:context-stroke;stroke-width:1;stroke-linecap:round"
         d="M 3,-3 0,0 3,3"
         transform="rotate(180,0.125,0)"
         sodipodi:nodetypes="ccc"
         id="path59" />
    </marker>
    <marker
       style="overflow:visible"
       id="marker58"
       refX="81"
       refY="0"
       orient="auto-start-reverse"
       inkscape:stockid="Wide, rounded arrow"
       markerWidth="1"
       markerHeight="1"
       viewBox="0 0 1 1"
       inkscape:isstock="true"
       inkscape:collect="always"
       preserveAspectRatio="xMidYMid">
      <path
         style="fill:none;stroke:context-stroke;stroke-width:1;stroke-linecap:round"
         d="M 3,-3 0,0 3,3"
         transform="rotate(180,0.125,0)"
         sodipodi:nodetypes="ccc"
         id="path58" />
    </marker>
    <marker
       style="overflow:visible"
       id="ArrowWideRounded"
       refX="78"
       refY="0"
       orient="auto-start-reverse"
       inkscape:stockid="Wide, rounded arrow"
       markerWidth="1"
       markerHeight="1"
       viewBox="0 0 1 1"
       inkscape:isstock="true"
       inkscape:collect="always"
       preserveAspectRatio="xMidYMid">
      <path
         style="fill:none;stroke:context-stroke;stroke-width:1;stroke-linecap:round"
         d="M 3,-3 0,0 3,3"
         transform="rotate(180,0.125,0)"
         sodipodi:nodetypes="ccc"
         id="path2" />
    </marker>
    <inkscape:path-effect
       effect="bspline"
       id="path-effect41"
       is_visible="true"
       lpeversion="1.3"
       weight="33.333333"
       steps="2"
       helper_size="0"
       apply_no_weight="true"
       apply_with_weight="true"
       only_selected="false"
       uniform="false" />
    <inkscape:path-effect
       effect="bspline"
       id="path-effect40"
       is_visible="true"
       lpeversion="1.3"
       weight="33.333333"
       steps="2"
       helper_size="0"
       apply_no_weight="true"
       apply_with_weight="true"
       only_selected="false"
       uniform="false" />
    <inkscape:path-effect
       effect="bspline"
       id="path-effect37"
       is_visible="true"
       lpeversion="1.3"
       weight="33.333333"
       steps="2"
       helper_size="0"
       apply_no_weight="true"
       apply_with_weight="true"
       only_selected="false"
       uniform="false" />
    <inkscape:path-effect
       effect="bspline"
       id="path-effect36"
       is_visible="true"
       lpeversion="1.3"
       weight="33.333333"
       steps="2"
       helper_size="0"
       apply_no_weight="true"
       apply_with_weight="true"
       only_selected="false"
       uniform="false" />
    <inkscape:path-effect
       effect="bspline"
       id="path-effect34"
       is_visible="true"
       lpeversion="1.3"
       weight="33.333333"
       steps="2"
       helper_size="0"
       apply_no_weight="true"
       apply_with_weight="true"
       only_selected="false"
       uniform="false" />
  </defs>
  <g
     inkscape:label="Layer 1"
     inkscape:groupmode="layer"
     id="layer1"
     transform="translate(-26.782967,-23.892186)">
    <g
       transform="matrix(0.705556,0,0,0.705556,67.5507,72.0898)"
       ns1:version="1.10.2"
       ns1:texconverter="pdflatex"
       ns1:pdfconverter="inkscape"
       ns1:text="$T$"
       ns1:preamble="/Users/maoyiran/Library/Application Support/org.inkscape.Inkscape/config/inkscape/extensions/textext/default_packages.tex"
       ns1:scale="2.0"
       ns1:alignment="middle center"
       ns1:stroke-to-path="0"
       ns1:jacobian_sqrt="0.705556"
       id="g14">
      <defs
         id="id-aec61e93-72eb-4e1c-b56a-ea879eb9e7ca" />
      <g
         transform="translate(-10.0206,-11.6342)"
         ns1:version="1.10.2"
         ns1:texconverter="pdflatex"
         ns1:pdfconverter="inkscape"
         ns1:text="$T'$"
         ns1:preamble="/Users/maoyiran/Library/Application Support/org.inkscape.Inkscape/config/inkscape/extensions/textext/default_packages.tex"
         ns1:scale="2.0"
         ns1:alignment="middle center"
         ns1:stroke-to-path="0"
         ns1:jacobian_sqrt="1.0"
         id="g9">
        <defs
           id="id-167fcaff-a558-40f3-953c-b566b1be1741" />
        <g
           transform="translate(-0.234,7.507)"
           id="g7"
           style="fill:#000000;fill-opacity:1">
          <g
             transform="matrix(0.7784564,0,0,0.7784564,-35.157829,-25.417683)"
             ns1:version="1.10.2"
             ns1:texconverter="pdflatex"
             ns1:pdfconverter="inkscape"
             ns1:text="$T''$"
             ns1:preamble="/Users/maoyiran/Library/Application Support/org.inkscape.Inkscape/config/inkscape/extensions/textext/default_packages.tex"
             ns1:scale="1.0"
             ns1:alignment="middle center"
             ns1:stroke-to-path="0"
             ns1:jacobian_sqrt="0.5"
             id="g13">
            <defs
               id="id-922d1969-035a-4fb1-bb8c-1d5a2b840e96" />
            <g
               fill="#000000"
               fill-opacity="1"
               id="id-153f7638-9931-4fe7-b49e-130eb98f07d5"
               transform="translate(-148.946,-127.258)">
              <g
                 transform="translate(148.712,134.765)"
                 id="g10">
                <path
                   d="m 4.25,-6.046875 c 0.078125,-0.28125 0.109375,-0.34375 0.234375,-0.375 0.09375,-0.015625 0.421875,-0.015625 0.625,-0.015625 1.015625,0 1.453125,0.03125 1.453125,0.8125 0,0.15625 -0.03125,0.546875 -0.078125,0.796875 0,0.046875 -0.03125,0.15625 -0.03125,0.1875 0,0.0625 0.03125,0.140625 0.125,0.140625 0.109375,0 0.125,-0.078125 0.15625,-0.234375 L 7,-6.46875 C 7.015625,-6.515625 7.015625,-6.609375 7.015625,-6.640625 7.015625,-6.75 6.921875,-6.75 6.75,-6.75 H 1.21875 c -0.234375,0 -0.25,0.015625 -0.328125,0.203125 l -0.59375,1.75 c 0,0.015625 -0.0625,0.15625 -0.0625,0.1875 0,0.046875 0.0625,0.109375 0.125,0.109375 0.09375,0 0.109375,-0.0625 0.171875,-0.21875 C 1.0625,-6.265625 1.328125,-6.4375 2.796875,-6.4375 H 3.1875 c 0.28125,0 0.28125,0.03125 0.28125,0.125 0,0.046875 -0.03125,0.171875 -0.046875,0.203125 L 2.09375,-0.78125 C 2,-0.421875 1.96875,-0.3125 0.90625,-0.3125 c -0.359375,0 -0.421875,0 -0.421875,0.1875 C 0.484375,0 0.59375,0 0.65625,0 c 0.265625,0 0.546875,-0.015625 0.8125,-0.015625 0.28125,0 0.578125,-0.015625 0.859375,-0.015625 0.28125,0 0.546875,0.015625 0.828125,0.015625 C 3.4375,-0.015625 3.734375,0 4.015625,0 c 0.09375,0 0.21875,0 0.21875,-0.203125 0,-0.109375 -0.078125,-0.109375 -0.34375,-0.109375 -0.234375,0 -0.375,0 -0.625,-0.015625 -0.296875,-0.03125 -0.375,-0.0625 -0.375,-0.21875 0,-0.015625 0,-0.0625 0.046875,-0.203125 z m 0,0"
                   id="id-d01a4390-715f-4bcb-9e7b-b4e6cd486c8d" />
              </g>
            </g>
            <g
               fill="#000000"
               fill-opacity="1"
               id="id-0b69f566-1f00-49b7-b560-fd664c60ad1c"
               transform="translate(-148.946,-127.258)">
              <g
                 transform="translate(155.918,131.149)"
                 id="g11">
                <path
                   d="m 2.015625,-3.296875 c 0.0625,-0.109375 0.0625,-0.171875 0.0625,-0.21875 0,-0.21875 -0.1875,-0.375 -0.40625,-0.375 -0.265625,0 -0.34375,0.21875 -0.375,0.328125 L 0.375,-0.546875 c -0.015625,0.015625 -0.046875,0.09375 -0.046875,0.109375 0,0.078125 0.21875,0.15625 0.28125,0.15625 0.046875,0 0.046875,-0.015625 0.09375,-0.125 z m 0,0"
                   id="id-fb34e310-d5b9-49ca-868e-b1960e56d699" />
              </g>
              <g
                 transform="translate(158.215,131.149)"
                 id="g12">
                <path
                   d="m 2.015625,-3.296875 c 0.0625,-0.109375 0.0625,-0.171875 0.0625,-0.21875 0,-0.21875 -0.1875,-0.375 -0.40625,-0.375 -0.265625,0 -0.34375,0.21875 -0.375,0.328125 L 0.375,-0.546875 c -0.015625,0.015625 -0.046875,0.09375 -0.046875,0.109375 0,0.078125 0.21875,0.15625 0.28125,0.15625 0.046875,0 0.046875,-0.015625 0.09375,-0.125 z m 0,0"
                   id="id-5227a070-66f5-479b-b651-1c71c3814521" />
              </g>
            </g>
          </g>
        </g>
        <g
           id="g29"
           transform="matrix(0.90628895,0,0,0.90628895,-2.098174,-4.0711622)">
          <path
             d="m -18.774013,-49.721438 c 0.0658,-0.236858 0.09211,-0.289493 0.197381,-0.31581 0.07895,-0.01316 0.355287,-0.01316 0.526351,-0.01316 0.855319,0 1.223764,0.02632 1.223764,0.684255 0,0.131588 -0.02632,0.460557 -0.0658,0.671097 0,0.03947 -0.02632,0.131587 -0.02632,0.157905 0,0.05264 0.02632,0.118429 0.10527,0.118429 0.09211,0 0.10527,-0.0658 0.131587,-0.197382 l 0.223699,-1.460622 c 0.01316,-0.03947 0.01316,-0.118429 0.01316,-0.144746 0,-0.09211 -0.07895,-0.09211 -0.223699,-0.09211 h -4.6582 c -0.197381,0 -0.21054,0.01316 -0.276334,0.171063 l -0.500032,1.473781 c 0,0.01316 -0.05264,0.131588 -0.05264,0.157905 0,0.03947 0.05264,0.09211 0.10527,0.09211 0.07895,0 0.09211,-0.05264 0.144746,-0.184223 0.447398,-1.302717 0.671097,-1.447463 1.90802,-1.447463 h 0.328969 c 0.236857,0 0.236857,0.02632 0.236857,0.10527 0,0.03947 -0.02632,0.144746 -0.03947,0.171064 l -1.118494,4.487136 c -0.07895,0.302651 -0.10527,0.394763 -1.000066,0.394763 -0.302651,0 -0.355286,0 -0.355286,0.157905 0,0.10527 0.09211,0.10527 0.144746,0.10527 0.223699,0 0.460557,-0.01316 0.684256,-0.01316 0.236857,0 0.486874,-0.01316 0.723731,-0.01316 0.236858,0 0.460557,0.01316 0.697414,0.01316 0.236858,0 0.486874,0.01316 0.723732,0.01316 0.07895,0 0.184223,0 0.184223,-0.171064 0,-0.09211 -0.0658,-0.09211 -0.289493,-0.09211 -0.197381,0 -0.31581,0 -0.52635,-0.01316 -0.250017,-0.02632 -0.315811,-0.05264 -0.315811,-0.184223 0,-0.01316 0,-0.05264 0.03947,-0.171064 z m 0,0"
             id="id-d1ce03f6-a9bb-49c3-9b8f-f62516f6ec09"
             style="fill:#000000;fill-opacity:1;stroke-width:0.84216"
             transform="translate(-0.23399815,7.5069992)" />
          <g
             fill="#000000"
             fill-opacity="1"
             id="id-f471aecb-1fbb-4a1a-ae43-5e71736e3f17"
             transform="matrix(0.84216046,0,0,0.84216046,-147.82656,-150.61575)">
            <g
               transform="translate(155.918,131.149)"
               id="g8">
              <path
                 d="m 2.015625,-3.296875 c 0.0625,-0.109375 0.0625,-0.171875 0.0625,-0.21875 0,-0.21875 -0.1875,-0.375 -0.40625,-0.375 -0.265625,0 -0.34375,0.21875 -0.375,0.328125 L 0.375,-0.546875 c -0.015625,0.015625 -0.046875,0.09375 -0.046875,0.109375 0,0.078125 0.21875,0.15625 0.28125,0.15625 0.046875,0 0.046875,-0.015625 0.09375,-0.125 z m 0,0"
                 id="id-6d3049e3-2109-4c41-94c8-d36dad98d7d9" />
            </g>
          </g>
        </g>
      </g>
      <g
         transform="matrix(0.71283844,0,0,0.71283844,-10.714147,-11.868786)"
         ns1:version="1.10.2"
         ns1:texconverter="pdflatex"
         ns1:pdfconverter="inkscape"
         ns1:text="$T''''$"
         ns1:preamble="/Users/maoyiran/Library/Application Support/org.inkscape.Inkscape/config/inkscape/extensions/textext/default_packages.tex"
         ns1:scale="1.5"
         ns1:alignment="middle center"
         ns1:stroke-to-path="0"
         ns1:jacobian_sqrt="0.75"
         id="g27">
        <defs
           id="id-11e472c5-edcf-4853-8608-348288fd0145" />
        <g
           fill="#000000"
           fill-opacity="1"
           id="id-0a0f16ac-c6dd-4492-afb7-63cde7625d41"
           transform="translate(-174.98124,-165.03643)">
          <g
             transform="translate(148.712,134.765)"
             id="g22">
            <path
               d="m 4.25,-6.046875 c 0.078125,-0.28125 0.109375,-0.34375 0.234375,-0.375 0.09375,-0.015625 0.421875,-0.015625 0.625,-0.015625 1.015625,0 1.453125,0.03125 1.453125,0.8125 0,0.15625 -0.03125,0.546875 -0.078125,0.796875 0,0.046875 -0.03125,0.15625 -0.03125,0.1875 0,0.0625 0.03125,0.140625 0.125,0.140625 0.109375,0 0.125,-0.078125 0.15625,-0.234375 L 7,-6.46875 C 7.015625,-6.515625 7.015625,-6.609375 7.015625,-6.640625 7.015625,-6.75 6.921875,-6.75 6.75,-6.75 H 1.21875 c -0.234375,0 -0.25,0.015625 -0.328125,0.203125 l -0.59375,1.75 c 0,0.015625 -0.0625,0.15625 -0.0625,0.1875 0,0.046875 0.0625,0.109375 0.125,0.109375 0.09375,0 0.109375,-0.0625 0.171875,-0.21875 C 1.0625,-6.265625 1.328125,-6.4375 2.796875,-6.4375 H 3.1875 c 0.28125,0 0.28125,0.03125 0.28125,0.125 0,0.046875 -0.03125,0.171875 -0.046875,0.203125 L 2.09375,-0.78125 C 2,-0.421875 1.96875,-0.3125 0.90625,-0.3125 c -0.359375,0 -0.421875,0 -0.421875,0.1875 C 0.484375,0 0.59375,0 0.65625,0 c 0.265625,0 0.546875,-0.015625 0.8125,-0.015625 0.28125,0 0.578125,-0.015625 0.859375,-0.015625 0.28125,0 0.546875,0.015625 0.828125,0.015625 C 3.4375,-0.015625 3.734375,0 4.015625,0 c 0.09375,0 0.21875,0 0.21875,-0.203125 0,-0.109375 -0.078125,-0.109375 -0.34375,-0.109375 -0.234375,0 -0.375,0 -0.625,-0.015625 -0.296875,-0.03125 -0.375,-0.0625 -0.375,-0.21875 0,-0.015625 0,-0.0625 0.046875,-0.203125 z m 0,0"
               id="id-962f5a8f-eae0-4960-a8bb-5ebcc4055db1" />
          </g>
        </g>
        <g
           fill="#000000"
           fill-opacity="1"
           id="id-b0de3beb-2c51-46b2-9d6b-3e13aa8376a9"
           transform="translate(-174.98124,-165.03643)">
          <g
             transform="translate(155.918,131.149)"
             id="g23">
            <path
               d="m 2.015625,-3.296875 c 0.0625,-0.109375 0.0625,-0.171875 0.0625,-0.21875 0,-0.21875 -0.1875,-0.375 -0.40625,-0.375 -0.265625,0 -0.34375,0.21875 -0.375,0.328125 L 0.375,-0.546875 c -0.015625,0.015625 -0.046875,0.09375 -0.046875,0.109375 0,0.078125 0.21875,0.15625 0.28125,0.15625 0.046875,0 0.046875,-0.015625 0.09375,-0.125 z m 0,0"
               id="id-0ebc6812-e0ca-48c7-8807-a35419d692d6" />
          </g>
          <g
             transform="translate(158.215,131.149)"
             id="g24">
            <path
               d="m 2.015625,-3.296875 c 0.0625,-0.109375 0.0625,-0.171875 0.0625,-0.21875 0,-0.21875 -0.1875,-0.375 -0.40625,-0.375 -0.265625,0 -0.34375,0.21875 -0.375,0.328125 L 0.375,-0.546875 c -0.015625,0.015625 -0.046875,0.09375 -0.046875,0.109375 0,0.078125 0.21875,0.15625 0.28125,0.15625 0.046875,0 0.046875,-0.015625 0.09375,-0.125 z m 0,0"
               id="id-d064536a-246e-40b1-8279-813c40e911bd" />
          </g>
          <g
             transform="translate(160.512,131.149)"
             id="g25">
            <path
               d="m 2.015625,-3.296875 c 0.0625,-0.109375 0.0625,-0.171875 0.0625,-0.21875 0,-0.21875 -0.1875,-0.375 -0.40625,-0.375 -0.265625,0 -0.34375,0.21875 -0.375,0.328125 L 0.375,-0.546875 c -0.015625,0.015625 -0.046875,0.09375 -0.046875,0.109375 0,0.078125 0.21875,0.15625 0.28125,0.15625 0.046875,0 0.046875,-0.015625 0.09375,-0.125 z m 0,0"
               id="id-785eb064-5b82-4c6e-9c56-9f0c5473d9b2" />
          </g>
          <g
             transform="translate(162.81,131.149)"
             id="g26">
            <path
               d="m 2.015625,-3.296875 c 0.0625,-0.109375 0.0625,-0.171875 0.0625,-0.21875 0,-0.21875 -0.1875,-0.375 -0.40625,-0.375 -0.265625,0 -0.34375,0.21875 -0.375,0.328125 L 0.375,-0.546875 c -0.015625,0.015625 -0.046875,0.09375 -0.046875,0.109375 0,0.078125 0.21875,0.15625 0.28125,0.15625 0.046875,0 0.046875,-0.015625 0.09375,-0.125 z m 0,0"
               id="id-bb135853-e002-462b-87da-aa03540357ac" />
          </g>
        </g>
      </g>
    </g>
    <path
       style="fill:#ffffff;fill-opacity:0;stroke:#000000;stroke-width:0.159;stroke-linecap:round;stroke-linejoin:round;stroke-dasharray:none;stroke-opacity:1;marker-end:url(#ArrowWideRounded)"
       d="M 62.64231,41.559527 80.968574,59.147368"
       id="path33" />
    <path
       style="fill:#ffffff;fill-opacity:0;stroke:#000000;stroke-width:0.159;stroke-linecap:round;stroke-linejoin:round;stroke-dasharray:none;stroke-opacity:1;marker-end:url(#marker60)"
       d="m 80.968574,59.147368 c 0,0 -27.053056,-0.335643 -27.053056,-0.335643"
       id="path34"
       inkscape:path-effect="#path-effect34"
       inkscape:original-d="M 80.968574,59.147368 53.915518,58.811725" />
    <path
       style="fill:#ffffff;fill-opacity:0;stroke:#000000;stroke-width:0.159;stroke-linecap:round;stroke-linejoin:round;stroke-dasharray:none;stroke-opacity:1;marker-end:url(#marker61)"
       d="M 53.915518,58.811725 C 44.897834,58.699843 35.88015,58.587962 26.862466,58.47608"
       id="path36"
       inkscape:path-effect="#path-effect36"
       inkscape:original-d="M 53.915518,58.811725 C 44.897834,58.699843 35.88015,58.587962 26.862466,58.47608"
       sodipodi:nodetypes="cc" />
    <path
       style="fill:#ffffff;fill-opacity:0;stroke:#000000;stroke-width:0.159;stroke-linecap:round;stroke-linejoin:round;stroke-dasharray:none;stroke-opacity:1;marker-end:url(#marker62)"
       d="m 26.862466,58.47608 c 2.90893,-5.750733 5.817861,-11.501465 8.726791,-17.252198"
       id="path37"
       inkscape:path-effect="#path-effect37"
       inkscape:original-d="m 26.862466,58.47608 c 2.90893,-5.750733 5.817861,-11.501465 8.726791,-17.252198"
       sodipodi:nodetypes="cc" />
    <path
       style="fill:#ffffff;fill-opacity:0;stroke:#000000;stroke-width:0.159;stroke-linecap:round;stroke-linejoin:round;stroke-dasharray:none;stroke-opacity:1;marker-end:url(#marker59)"
       d="m 35.589257,41.223882 c 0,0 8.726792,-17.252196 8.726792,-17.252196"
       id="path40"
       inkscape:path-effect="#path-effect40"
       inkscape:original-d="M 35.589257,41.223882 44.316049,23.971686" />
    <path
       style="fill:#ffffff;fill-opacity:0;stroke:#000000;stroke-width:0.159;stroke-linecap:round;stroke-linejoin:round;stroke-dasharray:none;stroke-opacity:1;marker-end:url(#marker58)"
       d="m 44.316049,23.971686 c 0,0 18.326261,17.587841 18.326261,17.587841"
       id="path41"
       inkscape:path-effect="#path-effect41"
       inkscape:original-d="M 44.316049,23.971686 62.64231,41.559527" />
    <path
       style="fill:#ffffff;fill-opacity:0;stroke:#000000;stroke-width:0.159;stroke-linecap:round;stroke-linejoin:round;stroke-dasharray:none;stroke-opacity:1;marker-end:url(#marker70)"
       d="M 53.915518,58.811725 62.64231,41.559527"
       id="path64" />
    <path
       style="fill:#ffffff;fill-opacity:0;stroke:#000000;stroke-width:0.159;stroke-linecap:round;stroke-linejoin:round;stroke-dasharray:none;stroke-opacity:1;marker-end:url(#marker69)"
       d="M 62.64231,41.559527 35.589257,41.223882"
       id="path65"
       inkscape:path-effect="#path-effect65"
       inkscape:original-d="M 62.64231,41.559527 35.589257,41.223882" />
    <path
       style="fill:#ffffff;fill-opacity:0;stroke:#000000;stroke-width:0.159;stroke-linecap:round;stroke-linejoin:round;stroke-dasharray:none;stroke-opacity:1;marker-end:url(#marker68)"
       d="M 35.589257,41.223882 53.915518,58.811725"
       id="path66"
       inkscape:path-effect="#path-effect66"
       inkscape:original-d="M 35.589257,41.223882 53.915518,58.811725" />
  </g>
  <g
     transform="matrix(0.529167,0,0,0.529167,33.280333,40.651114)"
     ns1:version="1.10.2"
     ns1:texconverter="pdflatex"
     ns1:pdfconverter="inkscape"
     ns1:text="$T'''$"
     ns1:preamble="/Users/maoyiran/Library/Application Support/org.inkscape.Inkscape/config/inkscape/extensions/textext/default_packages.tex"
     ns1:scale="1.5"
     ns1:alignment="middle center"
     ns1:stroke-to-path="0"
     ns1:jacobian_sqrt="0.529167"
     id="g28">
    <defs
       id="id-4b9766c1-d322-4f09-9746-b4e3c4f1e796" />
    <g
       fill="#000000"
       fill-opacity="1"
       id="id-65c2968c-6f6a-4ae6-8434-b6d319bf4524"
       transform="translate(-143.92267,-151.69152)">
      <g
         transform="translate(148.712,134.765)"
         id="g18">
        <path
           d="m 4.25,-6.046875 c 0.078125,-0.28125 0.109375,-0.34375 0.234375,-0.375 0.09375,-0.015625 0.421875,-0.015625 0.625,-0.015625 1.015625,0 1.453125,0.03125 1.453125,0.8125 0,0.15625 -0.03125,0.546875 -0.078125,0.796875 0,0.046875 -0.03125,0.15625 -0.03125,0.1875 0,0.0625 0.03125,0.140625 0.125,0.140625 0.109375,0 0.125,-0.078125 0.15625,-0.234375 L 7,-6.46875 C 7.015625,-6.515625 7.015625,-6.609375 7.015625,-6.640625 7.015625,-6.75 6.921875,-6.75 6.75,-6.75 H 1.21875 c -0.234375,0 -0.25,0.015625 -0.328125,0.203125 l -0.59375,1.75 c 0,0.015625 -0.0625,0.15625 -0.0625,0.1875 0,0.046875 0.0625,0.109375 0.125,0.109375 0.09375,0 0.109375,-0.0625 0.171875,-0.21875 C 1.0625,-6.265625 1.328125,-6.4375 2.796875,-6.4375 H 3.1875 c 0.28125,0 0.28125,0.03125 0.28125,0.125 0,0.046875 -0.03125,0.171875 -0.046875,0.203125 L 2.09375,-0.78125 C 2,-0.421875 1.96875,-0.3125 0.90625,-0.3125 c -0.359375,0 -0.421875,0 -0.421875,0.1875 C 0.484375,0 0.59375,0 0.65625,0 c 0.265625,0 0.546875,-0.015625 0.8125,-0.015625 0.28125,0 0.578125,-0.015625 0.859375,-0.015625 0.28125,0 0.546875,0.015625 0.828125,0.015625 C 3.4375,-0.015625 3.734375,0 4.015625,0 c 0.09375,0 0.21875,0 0.21875,-0.203125 0,-0.109375 -0.078125,-0.109375 -0.34375,-0.109375 -0.234375,0 -0.375,0 -0.625,-0.015625 -0.296875,-0.03125 -0.375,-0.0625 -0.375,-0.21875 0,-0.015625 0,-0.0625 0.046875,-0.203125 z m 0,0"
           id="id-a88952f0-19ac-4911-8974-2afbac823f29" />
      </g>
    </g>
    <g
       fill="#000000"
       fill-opacity="1"
       id="id-43ceaec7-9541-4b9a-bd8b-c25eadb2b97a"
       transform="translate(-143.92267,-151.69152)">
      <g
         transform="translate(155.918,131.149)"
         id="g19">
        <path
           d="m 2.015625,-3.296875 c 0.0625,-0.109375 0.0625,-0.171875 0.0625,-0.21875 0,-0.21875 -0.1875,-0.375 -0.40625,-0.375 -0.265625,0 -0.34375,0.21875 -0.375,0.328125 L 0.375,-0.546875 c -0.015625,0.015625 -0.046875,0.09375 -0.046875,0.109375 0,0.078125 0.21875,0.15625 0.28125,0.15625 0.046875,0 0.046875,-0.015625 0.09375,-0.125 z m 0,0"
           id="id-865927b1-2b8a-46f6-89b7-9e4496786416" />
      </g>
      <g
         transform="translate(158.215,131.149)"
         id="g20">
        <path
           d="m 2.015625,-3.296875 c 0.0625,-0.109375 0.0625,-0.171875 0.0625,-0.21875 0,-0.21875 -0.1875,-0.375 -0.40625,-0.375 -0.265625,0 -0.34375,0.21875 -0.375,0.328125 L 0.375,-0.546875 c -0.015625,0.015625 -0.046875,0.09375 -0.046875,0.109375 0,0.078125 0.21875,0.15625 0.28125,0.15625 0.046875,0 0.046875,-0.015625 0.09375,-0.125 z m 0,0"
           id="id-6a5e6889-ee76-44e7-b83b-68ddca8dc525" />
      </g>
      <g
         transform="translate(160.512,131.149)"
         id="g21">
        <path
           d="m 2.015625,-3.296875 c 0.0625,-0.109375 0.0625,-0.171875 0.0625,-0.21875 0,-0.21875 -0.1875,-0.375 -0.40625,-0.375 -0.265625,0 -0.34375,0.21875 -0.375,0.328125 L 0.375,-0.546875 c -0.015625,0.015625 -0.046875,0.09375 -0.046875,0.109375 0,0.078125 0.21875,0.15625 0.28125,0.15625 0.046875,0 0.046875,-0.015625 0.09375,-0.125 z m 0,0"
           id="id-d4d73e8a-ada2-44fd-a823-092c62ef8431" />
      </g>
    </g>
  </g>
</svg>
