<?xml version="1.0" encoding="UTF-8" standalone="no"?>
<!-- Created with Inkscape (http://www.inkscape.org/) -->

<svg
   width="109.22762mm"
   height="84.342102mm"
   viewBox="0 0 109.22762 84.342102"
   version="1.1"
   id="svg1"
   inkscape:version="1.4 (e7c3feb1, 2024-10-09)"
   sodipodi:docname="drawing.svg"
   inkscape:export-filename="drawing.png"
   inkscape:export-xdpi="1000"
   inkscape:export-ydpi="1000"
   xmlns:inkscape="http://www.inkscape.org/namespaces/inkscape"
   xmlns:sodipodi="http://sodipodi.sourceforge.net/DTD/sodipodi-0.dtd"
   xmlns="http://www.w3.org/2000/svg"
   xmlns:svg="http://www.w3.org/2000/svg"
   xmlns:ns9="http://www.iki.fi/pav/software/textext/">
  <sodipodi:namedview
     id="namedview1"
     pagecolor="#ffffff"
     bordercolor="#000000"
     borderopacity="0.25"
     inkscape:showpageshadow="2"
     inkscape:pageopacity="0.0"
     inkscape:pagecheckerboard="0"
     inkscape:deskcolor="#d1d1d1"
     inkscape:document-units="mm"
     inkscape:zoom="1.4893776"
     inkscape:cx="364.58183"
     inkscape:cy="281.997"
     inkscape:window-width="1928"
     inkscape:window-height="1025"
     inkscape:window-x="491"
     inkscape:window-y="395"
     inkscape:window-maximized="0"
     inkscape:current-layer="layer1">
    <inkscape:page
       x="0"
       y="0"
       width="109.22762"
       height="84.342102"
       id="page2"
       margin="0"
       bleed="0" />
  </sodipodi:namedview>
  <defs
     id="defs1">
    <marker
       style="overflow:visible"
       id="ArrowWideRounded"
       refX="0"
       refY="0"
       orient="auto-start-reverse"
       inkscape:stockid="Wide, rounded arrow"
       markerWidth="1"
       markerHeight="1"
       viewBox="0 0 1 1"
       inkscape:isstock="true"
       inkscape:collect="always"
       preserveAspectRatio="xMidYMid">
      <path
         style="fill:none;stroke:context-stroke;stroke-width:1;stroke-linecap:round"
         d="M 3,-3 0,0 3,3"
         transform="rotate(180,0.125,0)"
         sodipodi:nodetypes="ccc"
         id="path64" />
    </marker>
    <marker
       style="overflow:visible"
       id="marker63"
       refX="0"
       refY="0"
       orient="auto-start-reverse"
       inkscape:stockid="Wide, rounded arrow"
       markerWidth="1"
       markerHeight="1"
       viewBox="0 0 1 1"
       inkscape:isstock="true"
       inkscape:collect="always"
       preserveAspectRatio="xMidYMid">
      <path
         style="fill:none;stroke:context-stroke;stroke-width:1;stroke-linecap:round"
         d="M 3,-3 0,0 3,3"
         transform="rotate(180,0.125,0)"
         sodipodi:nodetypes="ccc"
         id="path63" />
    </marker>
    <marker
       style="overflow:visible"
       id="marker61"
       refX="0"
       refY="0"
       orient="auto-start-reverse"
       inkscape:stockid="Wide, rounded arrow"
       markerWidth="1"
       markerHeight="1"
       viewBox="0 0 1 1"
       inkscape:isstock="true"
       inkscape:collect="always"
       preserveAspectRatio="xMidYMid">
      <path
         style="fill:none;stroke:context-stroke;stroke-width:1;stroke-linecap:round"
         d="M 3,-3 0,0 3,3"
         transform="rotate(180,0.125,0)"
         sodipodi:nodetypes="ccc"
         id="path61" />
    </marker>
    <linearGradient
       id="swatch52"
       inkscape:swatch="solid">
      <stop
         style="stop-color:#000000;stop-opacity:1;"
         offset="0"
         id="stop53" />
    </linearGradient>
    <inkscape:path-effect
       effect="bspline"
       id="path-effect4"
       is_visible="true"
       lpeversion="1.3"
       weight="33.333333"
       steps="2"
       helper_size="0"
       apply_no_weight="true"
       apply_with_weight="true"
       only_selected="false"
       uniform="false" />
    <inkscape:path-effect
       effect="bspline"
       id="path-effect3"
       is_visible="true"
       lpeversion="1.3"
       weight="33.333333"
       steps="2"
       helper_size="0"
       apply_no_weight="true"
       apply_with_weight="true"
       only_selected="false"
       uniform="false" />
    <inkscape:path-effect
       effect="spiro"
       id="path-effect2"
       is_visible="true"
       lpeversion="1" />
  </defs>
  <g
     inkscape:label="Layer 1"
     inkscape:groupmode="layer"
     id="layer1"
     transform="translate(-46.474445,-21.711383)">
    <path
       style="fill:#ffffff;fill-opacity:0;stroke:#000000;stroke-width:0.473833;stroke-linecap:round;stroke-linejoin:round;stroke-dasharray:none;marker-mid:url(#marker63)"
       d="m 94.246043,43.260478 c 1.858276,5.419688 3.205195,11.014581 4.017044,16.686186 1.807933,12.630262 0.921191,25.685702 -2.982217,37.832947 -2.855316,8.885629 -7.309844,17.254739 -13.08596,24.585749"
       id="path2"
       inkscape:path-effect="#path-effect2"
       inkscape:original-d="m 94.246043,43.260478 c 0.92701,5.150059 2.472026,10.918122 4.017044,16.686186 0.971624,3.627393 1.814123,21.636562 -2.982217,37.832947 -2.830511,9.558139 -11.098194,16.864049 -13.08596,24.585749"
       transform="matrix(1.0056238,0,0,0.70865435,55.418738,10.417111)"
       sodipodi:nodetypes="cssc" />
    <path
       style="fill:#ffffff;fill-opacity:0;stroke:#000000;stroke-width:0.47625;stroke-linecap:round;stroke-linejoin:round;stroke-dasharray:1.905, 1.905;stroke-dashoffset:0;marker-mid:url(#marker61)"
       d="m 59.07148,29.632923 c 16.565909,-4.006576 33.131818,-8.013153 48.31598,-6.102319 15.18417,1.910834 28.98605,9.738764 42.7882,17.566849"
       id="path3"
       inkscape:path-effect="#path-effect3"
       inkscape:original-d="m 59.07148,29.632923 c 16.565909,-4.006575 33.131818,-8.013152 49.69772,-12.019728 13.80243,7.828243 27.60431,15.656172 41.40646,23.484258" />
    <path
       style="fill:#ffffff;fill-opacity:0;stroke:#000000;stroke-width:0.47625;stroke-linecap:round;stroke-linejoin:round;stroke-dasharray:1.905, 1.905;stroke-dashoffset:0;marker-mid:url(#ArrowWideRounded)"
       d="m 64.973003,128.88583 c 10.68469,-5.46953 21.369383,-10.93906 33.561441,-12.38628 12.192056,-1.44723 25.890936,1.12775 39.590086,3.70278"
       id="path4"
       inkscape:path-effect="#path-effect4"
       inkscape:original-d="m 64.973003,128.88583 c 10.68469,-5.46953 21.369383,-10.93906 32.054072,-16.40859 13.699425,2.57509 27.398305,5.15007 41.097455,7.72509"
       transform="translate(-0.04863427,-23.070474)" />
    <g
       transform="matrix(0.529167,0,0,0.529167,93.845993,96.665531)"
       ns9:version="1.10.2"
       ns9:texconverter="pdflatex"
       ns9:pdfconverter="inkscape"
       ns9:text="$\\gamma^1=\\Gamma(1,\\cdot)$"
       ns9:preamble="/Users/maoyiran/Library/Application Support/org.inkscape.Inkscape/config/inkscape/extensions/textext/default_packages.tex"
       ns9:scale="1.5"
       ns9:alignment="middle center"
       ns9:stroke-to-path="0"
       ns9:jacobian_sqrt="0.529167"
       id="g23">
      <defs
         id="id-fa093032-b25f-49c1-8f65-25796b73d8d7" />
      <g
         fill="#000000"
         fill-opacity="1"
         id="id-f507cb37-7242-435e-88d5-fe0ca8bf8a7f"
         transform="translate(-148.884,-126.524)">
        <g
           transform="translate(148.712,134.765)"
           id="g14">
          <path
             d="M 0.40625,-2.53125 C 0.796875,-3.671875 1.890625,-3.6875 2,-3.6875 c 1.5,0 1.609375,1.75 1.609375,2.53125 0,0.609375 -0.046875,0.78125 -0.125,0.984375 -0.21875,0.71875 -0.515625,1.875 -0.515625,2.140625 0,0.109375 0.046875,0.171875 0.125,0.171875 0.140625,0 0.21875,-0.21875 0.328125,-0.59375 C 3.65625,0.703125 3.75,0.140625 3.78125,-0.171875 c 0.03125,-0.125 0.046875,-0.25 0.09375,-0.390625 0.3125,-0.984375 0.953125,-2.46875 1.34375,-3.25 0.078125,-0.125 0.1875,-0.34375 0.1875,-0.390625 0,-0.09375 -0.09375,-0.09375 -0.109375,-0.09375 -0.03125,0 -0.09375,0 -0.125,0.0625 C 4.65625,-3.28125 4.25,-2.28125 3.859375,-1.28125 3.84375,-1.578125 3.84375,-2.34375 3.453125,-3.3125 3.203125,-3.921875 2.8125,-4.40625 2.125,-4.40625 c -1.25,0 -1.953125,1.515625 -1.953125,1.828125 0,0.09375 0.09375,0.09375 0.203125,0.09375 z m 0,0"
             id="id-e41753bd-f71e-4b1e-b445-bac3d1ed152b" />
        </g>
      </g>
      <g
         fill="#000000"
         fill-opacity="1"
         id="id-57b0f7bc-c59c-4134-b948-5cc73242856d"
         transform="translate(-148.884,-126.524)">
        <g
           transform="translate(154.424,131.149)"
           id="g15">
          <path
             d="m 2.328125,-4.4375 c 0,-0.1875 0,-0.1875 -0.203125,-0.1875 -0.453125,0.4375 -1.078125,0.4375 -1.359375,0.4375 v 0.25 c 0.15625,0 0.625,0 1,-0.1875 v 3.546875 c 0,0.234375 0,0.328125 -0.6875,0.328125 H 0.8125 V 0 c 0.125,0 0.984375,-0.03125 1.234375,-0.03125 0.21875,0 1.09375,0.03125 1.25,0.03125 V -0.25 H 3.03125 c -0.703125,0 -0.703125,-0.09375 -0.703125,-0.328125 z m 0,0"
             id="id-b9f65861-013f-4797-9c03-824ff41309b9" />
        </g>
      </g>
      <g
         fill="#000000"
         fill-opacity="1"
         id="id-e9c7aa34-e65a-463a-a7ee-56900c5ab1ab"
         transform="translate(-148.884,-126.524)">
        <g
           transform="translate(161.66,134.765)"
           id="g16">
          <path
             d="m 6.84375,-3.265625 c 0.15625,0 0.34375,0 0.34375,-0.1875 C 7.1875,-3.65625 7,-3.65625 6.859375,-3.65625 h -5.96875 c -0.140625,0 -0.328125,0 -0.328125,0.203125 0,0.1875 0.1875,0.1875 0.328125,0.1875 z m 0.015625,1.9375 c 0.140625,0 0.328125,0 0.328125,-0.203125 0,-0.1875 -0.1875,-0.1875 -0.34375,-0.1875 H 0.890625 c -0.140625,0 -0.328125,0 -0.328125,0.1875 0,0.203125 0.1875,0.203125 0.328125,0.203125 z m 0,0"
             id="id-8f014002-9ccd-4b55-990f-e69b6c9918be" />
        </g>
      </g>
      <g
         fill="#000000"
         fill-opacity="1"
         id="id-9860f167-0e75-4b63-a211-7eb20d511b68"
         transform="translate(-148.884,-126.524)">
        <g
           transform="translate(172.179,134.765)"
           id="g17">
          <path
             d="m 5.515625,-6.78125 h -5.1875 v 0.3125 H 0.5625 c 0.765625,0 0.796875,0.109375 0.796875,0.46875 v 5.21875 c 0,0.359375 -0.03125,0.46875 -0.796875,0.46875 H 0.328125 V 0 c 0.34375,-0.03125 1.125,-0.03125 1.515625,-0.03125 0.40625,0 1.3125,0 1.671875,0.03125 V -0.3125 H 3.1875 C 2.25,-0.3125 2.25,-0.4375 2.25,-0.78125 v -5.296875 c 0,-0.328125 0.015625,-0.390625 0.484375,-0.390625 h 1.03125 c 1.421875,0 1.625,0.59375 1.78125,1.9375 h 0.25 z m 0,0"
             id="id-1b364058-e260-463c-aff3-b8bb6a763fa8" />
        </g>
        <g
           transform="translate(178.405,134.765)"
           id="g18">
          <path
             d="m 3.296875,2.390625 c 0,-0.03125 0,-0.046875 -0.171875,-0.21875 C 1.890625,0.921875 1.5625,-0.96875 1.5625,-2.5 c 0,-1.734375 0.375,-3.46875 1.609375,-4.703125 0.125,-0.125 0.125,-0.140625 0.125,-0.171875 0,-0.078125 -0.03125,-0.109375 -0.09375,-0.109375 -0.109375,0 -1,0.6875 -1.59375,1.953125 -0.5,1.09375 -0.625,2.203125 -0.625,3.03125 0,0.78125 0.109375,1.984375 0.65625,3.125 C 2.25,1.84375 3.09375,2.5 3.203125,2.5 c 0.0625,0 0.09375,-0.03125 0.09375,-0.109375 z m 0,0"
             id="id-10577938-3fdd-40a9-b27f-10ec64c81e60" />
        </g>
        <g
           transform="translate(182.28,134.765)"
           id="g19">
          <path
             d="m 2.9375,-6.375 c 0,-0.25 0,-0.265625 -0.234375,-0.265625 C 2.078125,-6 1.203125,-6 0.890625,-6 v 0.3125 c 0.203125,0 0.78125,0 1.296875,-0.265625 v 5.171875 c 0,0.359375 -0.03125,0.46875 -0.921875,0.46875 h -0.3125 V 0 c 0.34375,-0.03125 1.203125,-0.03125 1.609375,-0.03125 0.390625,0 1.265625,0 1.609375,0.03125 v -0.3125 h -0.3125 c -0.90625,0 -0.921875,-0.109375 -0.921875,-0.46875 z m 0,0"
             id="id-32ae2de6-f7c2-4809-813d-9d1c9cb0c2b3" />
        </g>
      </g>
      <g
         fill="#000000"
         fill-opacity="1"
         id="id-8000cc0d-1e77-4910-b2e2-dea7c15bdf64"
         transform="translate(-148.884,-126.524)">
        <g
           transform="translate(187.259,134.765)"
           id="g20">
          <path
             d="m 2.03125,-0.015625 c 0,-0.65625 -0.25,-1.046875 -0.640625,-1.046875 -0.328125,0 -0.53125,0.25 -0.53125,0.53125 C 0.859375,-0.265625 1.0625,0 1.390625,0 1.5,0 1.640625,-0.046875 1.734375,-0.125 1.765625,-0.15625 1.78125,-0.15625 1.78125,-0.15625 c 0.015625,0 0.015625,0 0.015625,0.140625 0,0.75 -0.34375,1.34375 -0.671875,1.671875 -0.109375,0.109375 -0.109375,0.125 -0.109375,0.15625 0,0.078125 0.046875,0.109375 0.09375,0.109375 0.109375,0 0.921875,-0.765625 0.921875,-1.9375 z m 0,0"
             id="id-1918c7c4-3f7a-4967-875c-9beb393c86a9" />
        </g>
      </g>
      <g
         fill="#000000"
         fill-opacity="1"
         id="id-ca3b8e49-5aac-42e8-9306-0e9a0a3dc300"
         transform="translate(-148.884,-126.524)">
        <g
           transform="translate(191.687,134.765)"
           id="g21">
          <path
             d="m 1.90625,-2.5 c 0,-0.28125 -0.234375,-0.515625 -0.515625,-0.515625 -0.296875,0 -0.53125,0.234375 -0.53125,0.515625 0,0.296875 0.234375,0.53125 0.53125,0.53125 0.28125,0 0.515625,-0.234375 0.515625,-0.53125 z m 0,0"
             id="id-ec59eb2b-003c-4809-8dde-fed5005990a6" />
        </g>
      </g>
      <g
         fill="#000000"
         fill-opacity="1"
         id="id-bd1a3400-6c38-4de6-b9bf-3de97ea671bb"
         transform="translate(-148.884,-126.524)">
        <g
           transform="translate(194.454,134.765)"
           id="g22">
          <path
             d="m 2.875,-2.5 c 0,-0.765625 -0.109375,-1.96875 -0.65625,-3.109375 -0.59375,-1.21875 -1.453125,-1.875 -1.546875,-1.875 -0.0625,0 -0.109375,0.046875 -0.109375,0.109375 0,0.03125 0,0.046875 0.1875,0.234375 0.984375,0.984375 1.546875,2.5625 1.546875,4.640625 0,1.71875 -0.359375,3.46875 -1.59375,4.71875 C 0.5625,2.34375 0.5625,2.359375 0.5625,2.390625 0.5625,2.453125 0.609375,2.5 0.671875,2.5 0.765625,2.5 1.671875,1.8125 2.25,0.546875 2.765625,-0.546875 2.875,-1.65625 2.875,-2.5 Z m 0,0"
             id="id-3bc2c569-c708-48bd-bf8b-c8fc9eb9dd49" />
        </g>
      </g>
    </g>
    <g
       transform="matrix(0.529167,0,0,0.529167,90.29466,26.641286)"
       ns9:version="1.10.2"
       ns9:texconverter="pdflatex"
       ns9:pdfconverter="inkscape"
       ns9:text="$\\gamma^0=\\Gamma(0,\\cdot)$"
       ns9:preamble="/Users/maoyiran/Library/Application Support/org.inkscape.Inkscape/config/inkscape/extensions/textext/default_packages.tex"
       ns9:scale="1.5"
       ns9:alignment="middle center"
       ns9:stroke-to-path="0"
       ns9:jacobian_sqrt="0.529167"
       id="g33">
      <defs
         id="id-64066e5d-4c6b-4edb-83b8-3a987d950597" />
      <g
         fill="#000000"
         fill-opacity="1"
         id="id-858648a6-d681-4685-bb94-be6074e92dad"
         transform="translate(-148.884,-126.524)">
        <g
           transform="translate(148.712,134.765)"
           id="g24">
          <path
             d="M 0.40625,-2.53125 C 0.796875,-3.671875 1.890625,-3.6875 2,-3.6875 c 1.5,0 1.609375,1.75 1.609375,2.53125 0,0.609375 -0.046875,0.78125 -0.125,0.984375 -0.21875,0.71875 -0.515625,1.875 -0.515625,2.140625 0,0.109375 0.046875,0.171875 0.125,0.171875 0.140625,0 0.21875,-0.21875 0.328125,-0.59375 C 3.65625,0.703125 3.75,0.140625 3.78125,-0.171875 c 0.03125,-0.125 0.046875,-0.25 0.09375,-0.390625 0.3125,-0.984375 0.953125,-2.46875 1.34375,-3.25 0.078125,-0.125 0.1875,-0.34375 0.1875,-0.390625 0,-0.09375 -0.09375,-0.09375 -0.109375,-0.09375 -0.03125,0 -0.09375,0 -0.125,0.0625 C 4.65625,-3.28125 4.25,-2.28125 3.859375,-1.28125 3.84375,-1.578125 3.84375,-2.34375 3.453125,-3.3125 3.203125,-3.921875 2.8125,-4.40625 2.125,-4.40625 c -1.25,0 -1.953125,1.515625 -1.953125,1.828125 0,0.09375 0.09375,0.09375 0.203125,0.09375 z m 0,0"
             id="id-98710fca-b4a7-416a-aa38-11ac52a6b5f7" />
        </g>
      </g>
      <g
         fill="#000000"
         fill-opacity="1"
         id="id-a9d19a1d-b365-4772-802d-fef3534b1499"
         transform="translate(-148.884,-126.524)">
        <g
           transform="translate(154.424,131.149)"
           id="g25">
          <path
             d="M 3.59375,-2.21875 C 3.59375,-2.984375 3.5,-3.546875 3.1875,-4.03125 2.96875,-4.34375 2.53125,-4.625 1.984375,-4.625 c -1.625,0 -1.625,1.90625 -1.625,2.40625 0,0.5 0,2.359375 1.625,2.359375 1.609375,0 1.609375,-1.859375 1.609375,-2.359375 z M 1.984375,-0.0625 c -0.328125,0 -0.75,-0.1875 -0.890625,-0.75 C 1,-1.21875 1,-1.796875 1,-2.3125 1,-2.828125 1,-3.359375 1.09375,-3.734375 1.25,-4.28125 1.6875,-4.4375 1.984375,-4.4375 c 0.375,0 0.734375,0.234375 0.859375,0.640625 0.109375,0.375 0.125,0.875 0.125,1.484375 0,0.515625 0,1.03125 -0.09375,1.46875 -0.140625,0.640625 -0.609375,0.78125 -0.890625,0.78125 z m 0,0"
             id="id-c7762411-2cc8-4bc5-8c6b-cd8eb88b8062" />
        </g>
      </g>
      <g
         fill="#000000"
         fill-opacity="1"
         id="id-0e5491fe-c4fd-401c-8d90-92bf5277206a"
         transform="translate(-148.884,-126.524)">
        <g
           transform="translate(161.66,134.765)"
           id="g26">
          <path
             d="m 6.84375,-3.265625 c 0.15625,0 0.34375,0 0.34375,-0.1875 C 7.1875,-3.65625 7,-3.65625 6.859375,-3.65625 h -5.96875 c -0.140625,0 -0.328125,0 -0.328125,0.203125 0,0.1875 0.1875,0.1875 0.328125,0.1875 z m 0.015625,1.9375 c 0.140625,0 0.328125,0 0.328125,-0.203125 0,-0.1875 -0.1875,-0.1875 -0.34375,-0.1875 H 0.890625 c -0.140625,0 -0.328125,0 -0.328125,0.1875 0,0.203125 0.1875,0.203125 0.328125,0.203125 z m 0,0"
             id="id-d5919499-d43c-40f2-9c50-b47951e2eb80" />
        </g>
      </g>
      <g
         fill="#000000"
         fill-opacity="1"
         id="id-fe1e6f54-67e7-41f0-a76b-e1234bc705b2"
         transform="translate(-148.884,-126.524)">
        <g
           transform="translate(172.179,134.765)"
           id="g27">
          <path
             d="m 5.515625,-6.78125 h -5.1875 v 0.3125 H 0.5625 c 0.765625,0 0.796875,0.109375 0.796875,0.46875 v 5.21875 c 0,0.359375 -0.03125,0.46875 -0.796875,0.46875 H 0.328125 V 0 c 0.34375,-0.03125 1.125,-0.03125 1.515625,-0.03125 0.40625,0 1.3125,0 1.671875,0.03125 V -0.3125 H 3.1875 C 2.25,-0.3125 2.25,-0.4375 2.25,-0.78125 v -5.296875 c 0,-0.328125 0.015625,-0.390625 0.484375,-0.390625 h 1.03125 c 1.421875,0 1.625,0.59375 1.78125,1.9375 h 0.25 z m 0,0"
             id="id-6dc812cc-191b-486b-bf55-70a654f87404" />
        </g>
        <g
           transform="translate(178.405,134.765)"
           id="g28">
          <path
             d="m 3.296875,2.390625 c 0,-0.03125 0,-0.046875 -0.171875,-0.21875 C 1.890625,0.921875 1.5625,-0.96875 1.5625,-2.5 c 0,-1.734375 0.375,-3.46875 1.609375,-4.703125 0.125,-0.125 0.125,-0.140625 0.125,-0.171875 0,-0.078125 -0.03125,-0.109375 -0.09375,-0.109375 -0.109375,0 -1,0.6875 -1.59375,1.953125 -0.5,1.09375 -0.625,2.203125 -0.625,3.03125 0,0.78125 0.109375,1.984375 0.65625,3.125 C 2.25,1.84375 3.09375,2.5 3.203125,2.5 c 0.0625,0 0.09375,-0.03125 0.09375,-0.109375 z m 0,0"
             id="id-00b8fe12-f0f6-4359-b4f5-ae60205718b3" />
        </g>
        <g
           transform="translate(182.28,134.765)"
           id="g29">
          <path
             d="m 4.578125,-3.1875 c 0,-0.796875 -0.046875,-1.59375 -0.390625,-2.328125 -0.453125,-0.96875 -1.28125,-1.125 -1.6875,-1.125 -0.609375,0 -1.328125,0.265625 -1.75,1.1875 -0.3125,0.6875 -0.359375,1.46875 -0.359375,2.265625 0,0.75 0.03125,1.640625 0.453125,2.40625 0.421875,0.796875 1.15625,1 1.640625,1 0.53125,0 1.296875,-0.203125 1.734375,-1.15625 0.3125,-0.6875 0.359375,-1.46875 0.359375,-2.25 z M 2.484375,0 C 2.09375,0 1.5,-0.25 1.328125,-1.203125 1.21875,-1.796875 1.21875,-2.71875 1.21875,-3.3125 c 0,-0.640625 0,-1.296875 0.078125,-1.828125 0.1875,-1.1875 0.9375,-1.28125 1.1875,-1.28125 0.328125,0 0.984375,0.1875 1.171875,1.171875 0.109375,0.5625 0.109375,1.3125 0.109375,1.9375 0,0.75 0,1.421875 -0.109375,2.0625 C 3.5,-0.296875 2.9375,0 2.484375,0 Z m 0,0"
             id="id-5a151c1d-19f8-4aff-97ef-b920df669831" />
        </g>
      </g>
      <g
         fill="#000000"
         fill-opacity="1"
         id="id-52602bca-f890-41e1-a34b-d9312946c68e"
         transform="translate(-148.884,-126.524)">
        <g
           transform="translate(187.259,134.765)"
           id="g30">
          <path
             d="m 2.03125,-0.015625 c 0,-0.65625 -0.25,-1.046875 -0.640625,-1.046875 -0.328125,0 -0.53125,0.25 -0.53125,0.53125 C 0.859375,-0.265625 1.0625,0 1.390625,0 1.5,0 1.640625,-0.046875 1.734375,-0.125 1.765625,-0.15625 1.78125,-0.15625 1.78125,-0.15625 c 0.015625,0 0.015625,0 0.015625,0.140625 0,0.75 -0.34375,1.34375 -0.671875,1.671875 -0.109375,0.109375 -0.109375,0.125 -0.109375,0.15625 0,0.078125 0.046875,0.109375 0.09375,0.109375 0.109375,0 0.921875,-0.765625 0.921875,-1.9375 z m 0,0"
             id="id-760c51ab-d97d-4041-beee-3000dd7542fd" />
        </g>
      </g>
      <g
         fill="#000000"
         fill-opacity="1"
         id="id-249a1d3f-a600-4e7f-a4bf-3ea95be6c872"
         transform="translate(-148.884,-126.524)">
        <g
           transform="translate(191.687,134.765)"
           id="g31">
          <path
             d="m 1.90625,-2.5 c 0,-0.28125 -0.234375,-0.515625 -0.515625,-0.515625 -0.296875,0 -0.53125,0.234375 -0.53125,0.515625 0,0.296875 0.234375,0.53125 0.53125,0.53125 0.28125,0 0.515625,-0.234375 0.515625,-0.53125 z m 0,0"
             id="id-e5c76573-3802-480a-bfc8-9b57bbff6ccb" />
        </g>
      </g>
      <g
         fill="#000000"
         fill-opacity="1"
         id="id-75833d1c-4262-4205-8099-52cf2e90558e"
         transform="translate(-148.884,-126.524)">
        <g
           transform="translate(194.454,134.765)"
           id="g32">
          <path
             d="m 2.875,-2.5 c 0,-0.765625 -0.109375,-1.96875 -0.65625,-3.109375 -0.59375,-1.21875 -1.453125,-1.875 -1.546875,-1.875 -0.0625,0 -0.109375,0.046875 -0.109375,0.109375 0,0.03125 0,0.046875 0.1875,0.234375 0.984375,0.984375 1.546875,2.5625 1.546875,4.640625 0,1.71875 -0.359375,3.46875 -1.59375,4.71875 C 0.5625,2.34375 0.5625,2.359375 0.5625,2.390625 0.5625,2.453125 0.609375,2.5 0.671875,2.5 0.765625,2.5 1.671875,1.8125 2.25,0.546875 2.765625,-0.546875 2.875,-1.65625 2.875,-2.5 Z m 0,0"
             id="id-0330fe18-fe10-400f-a8b8-ee6d2cecc7c6" />
        </g>
      </g>
    </g>
    <g
       transform="matrix(0.5291676,0,0,0.5291676,46.474514,61.710862)"
       ns9:version="1.10.2"
       ns9:texconverter="pdflatex"
       ns9:pdfconverter="inkscape"
       ns9:text="$\\gamma$"
       ns9:preamble="/Users/maoyiran/Library/Application Support/org.inkscape.Inkscape/config/inkscape/extensions/textext/default_packages.tex"
       ns9:scale="1.5"
       ns9:alignment="middle center"
       ns9:stroke-to-path="0"
       ns9:jacobian_sqrt="0.129104"
       id="g57"
       style="stroke-width:0.367365;stroke-dasharray:none">
      <defs
         id="id-4432e880-1abb-4ff0-860a-f54a5d564cd0" />
      <g
         fill="#000000"
         fill-opacity="1"
         id="id-c1780da0-a1bb-4e99-af22-e1b27b2bd604"
         transform="translate(-148.884,-130.359)">
        <g
           transform="translate(148.712,134.765)"
           id="g56">
          <path
             d="M 0.40625,-2.53125 C 0.796875,-3.671875 1.890625,-3.6875 2,-3.6875 c 1.5,0 1.609375,1.75 1.609375,2.53125 0,0.609375 -0.046875,0.78125 -0.125,0.984375 -0.21875,0.71875 -0.515625,1.875 -0.515625,2.140625 0,0.109375 0.046875,0.171875 0.125,0.171875 0.140625,0 0.21875,-0.21875 0.328125,-0.59375 C 3.65625,0.703125 3.75,0.140625 3.78125,-0.171875 c 0.03125,-0.125 0.046875,-0.25 0.09375,-0.390625 0.3125,-0.984375 0.953125,-2.46875 1.34375,-3.25 0.078125,-0.125 0.1875,-0.34375 0.1875,-0.390625 0,-0.09375 -0.09375,-0.09375 -0.109375,-0.09375 -0.03125,0 -0.09375,0 -0.125,0.0625 C 4.65625,-3.28125 4.25,-2.28125 3.859375,-1.28125 3.84375,-1.578125 3.84375,-2.34375 3.453125,-3.3125 3.203125,-3.921875 2.8125,-4.40625 2.125,-4.40625 c -1.25,0 -1.953125,1.515625 -1.953125,1.828125 0,0.09375 0.09375,0.09375 0.203125,0.09375 z m 0,0"
             id="id-1568493b-f403-4ca0-98a1-b9640dd0e641" />
        </g>
      </g>
    </g>
    <g
       transform="matrix(0.5291676,0,0,0.5291676,146.88233,62.373986)"
       ns9:version="1.10.2"
       ns9:texconverter="pdflatex"
       ns9:pdfconverter="inkscape"
       ns9:text="$\\tilde{\\gamma}$"
       ns9:preamble="/Users/maoyiran/Library/Application Support/org.inkscape.Inkscape/config/inkscape/extensions/textext/default_packages.tex"
       ns9:scale="1.5"
       ns9:alignment="middle center"
       ns9:stroke-to-path="0"
       ns9:jacobian_sqrt="0.129104"
       id="g60"
       style="stroke-width:0.367365;stroke-dasharray:none">
      <defs
         id="id-6eb6d1b3-a0af-4517-a894-3d011e45d507" />
      <g
         fill="#000000"
         fill-opacity="1"
         id="id-3ec05649-168c-4457-a4b5-616eec8d3411"
         transform="translate(-148.884,-128.109)">
        <g
           id="g49"
           transform="translate(4.0285214,-1.0071304)">
          <g
             fill="#000000"
             fill-opacity="1"
             id="id-841bc129-a646-4056-9e8e-338f6f81ec7d"
             style="stroke-width:0.367365;stroke-dasharray:none">
            <g
               transform="translate(149.077,134.765)"
               id="g58">
              <path
                 d="M 4.140625,-6.515625 3.984375,-6.65625 c 0,0 -0.375,0.46875 -0.8125,0.46875 -0.234375,0 -0.484375,-0.140625 -0.65625,-0.25 C 2.25,-6.59375 2.078125,-6.65625 1.90625,-6.65625 c -0.375,0 -0.578125,0.21875 -1.078125,0.78125 l 0.15625,0.140625 c 0,0 0.375,-0.46875 0.8125,-0.46875 0.234375,0 0.484375,0.140625 0.65625,0.234375 0.265625,0.171875 0.453125,0.234375 0.625,0.234375 0.375,0 0.5625,-0.21875 1.0625,-0.78125 z m 0,0"
                 id="id-2b3be50f-c5d5-4880-861a-8d540e759968" />
            </g>
          </g>
          <g
             transform="translate(148.712,134.765)"
             id="g59">
            <path
               d="M 0.40625,-2.53125 C 0.796875,-3.671875 1.890625,-3.6875 2,-3.6875 c 1.5,0 1.609375,1.75 1.609375,2.53125 0,0.609375 -0.046875,0.78125 -0.125,0.984375 -0.21875,0.71875 -0.515625,1.875 -0.515625,2.140625 0,0.109375 0.046875,0.171875 0.125,0.171875 0.140625,0 0.21875,-0.21875 0.328125,-0.59375 C 3.65625,0.703125 3.75,0.140625 3.78125,-0.171875 c 0.03125,-0.125 0.046875,-0.25 0.09375,-0.390625 0.3125,-0.984375 0.953125,-2.46875 1.34375,-3.25 0.078125,-0.125 0.1875,-0.34375 0.1875,-0.390625 0,-0.09375 -0.09375,-0.09375 -0.109375,-0.09375 -0.03125,0 -0.09375,0 -0.125,0.0625 C 4.65625,-3.28125 4.25,-2.28125 3.859375,-1.28125 3.84375,-1.578125 3.84375,-2.34375 3.453125,-3.3125 3.203125,-3.921875 2.8125,-4.40625 2.125,-4.40625 c -1.25,0 -1.953125,1.515625 -1.953125,1.828125 0,0.09375 0.09375,0.09375 0.203125,0.09375 z m 0,0"
               id="id-bc8a1f1b-8146-4bc6-b245-0238e89733b5" />
          </g>
        </g>
      </g>
    </g>
    <path
       style="fill:#c8c8c8;stroke:#000000;stroke-width:0.339;stroke-linecap:round"
       d="m 71.769353,45.122317 c -4.970587,1.707481 -6.835323,14.628542 -2.84235,14.922341 7.099618,-4.318312 18.830573,-0.355295 18.830573,-0.355295 3.711212,-2.782916 2.874758,-8.29443 1.954115,-13.856459 0,0 -2.299154,-6.286633 -17.942338,-0.710587 z"
       id="path5"
       sodipodi:nodetypes="ccccc" />
    <g
       id="g9"
       transform="matrix(0.529167,0,0,0.529167,104.35145,84.592778)">
      <g
         fill="#000000"
         fill-opacity="1"
         id="id-6595906c-a450-4afa-8679-236e0410f3e7"
         transform="translate(-204.28452,-195.21181)">
        <g
           transform="translate(148.712,134.765)"
           id="g5">
          <path
             d="m 6.4375,-6.921875 c 0,-0.03125 -0.03125,-0.109375 -0.125,-0.109375 -0.046875,0 -0.046875,0.015625 -0.171875,0.15625 L 5.65625,-6.3125 c -0.25,-0.46875 -0.765625,-0.71875 -1.421875,-0.71875 -1.265625,0 -2.453125,1.15625 -2.453125,2.359375 0,0.796875 0.515625,1.265625 1.03125,1.40625 l 1.0625,0.28125 c 0.375,0.09375 0.921875,0.25 0.921875,1.0625 0,0.890625 -0.8125,1.828125 -1.796875,1.828125 -0.640625,0 -1.75,-0.21875 -1.75,-1.453125 0,-0.234375 0.0625,-0.484375 0.0625,-0.53125 0.015625,-0.046875 0.015625,-0.0625 0.015625,-0.078125 0,-0.09375 -0.0625,-0.109375 -0.109375,-0.109375 -0.046875,0 -0.078125,0.015625 -0.109375,0.046875 -0.03125,0.03125 -0.59375,2.3125 -0.59375,2.34375 0,0.046875 0.046875,0.09375 0.109375,0.09375 0.046875,0 0.0625,-0.015625 0.1875,-0.15625 L 1.296875,-0.5 c 0.421875,0.578125 1.109375,0.71875 1.6875,0.71875 1.359375,0 2.53125,-1.328125 2.53125,-2.5625 0,-0.6875 -0.34375,-1.03125 -0.484375,-1.171875 C 4.796875,-3.734375 4.640625,-3.78125 3.765625,-4 3.53125,-4.0625 3.1875,-4.171875 3.09375,-4.1875 2.828125,-4.28125 2.484375,-4.5625 2.484375,-5.09375 c 0,-0.8125 0.796875,-1.65625 1.75,-1.65625 0.8125,0 1.421875,0.4375 1.421875,1.546875 0,0.3125 -0.03125,0.5 -0.03125,0.5625 0,0 0,0.09375 0.109375,0.09375 0.109375,0 0.125,-0.03125 0.15625,-0.203125 z m 0,0"
             id="id-a93b7a08-be50-4ff0-b053-72cb0ca67f1a" />
        </g>
      </g>
      <g
         fill="#000000"
         fill-opacity="1"
         id="id-c039a79b-e32e-441f-ba52-1fdbffd92be8"
         transform="translate(-204.28452,-195.21181)">
        <g
           transform="translate(154.821,136.259)"
           id="g6">
          <path
             d="m 2.265625,-4.359375 c 0,-0.109375 -0.09375,-0.265625 -0.28125,-0.265625 -0.1875,0 -0.390625,0.1875 -0.390625,0.390625 0,0.109375 0.078125,0.265625 0.28125,0.265625 0.1875,0 0.390625,-0.203125 0.390625,-0.390625 z M 0.84375,-0.8125 c -0.03125,0.09375 -0.0625,0.171875 -0.0625,0.296875 0,0.328125 0.265625,0.578125 0.65625,0.578125 0.6875,0 1,-0.953125 1,-1.0625 0,-0.09375 -0.09375,-0.09375 -0.109375,-0.09375 -0.09375,0 -0.109375,0.046875 -0.140625,0.125 -0.15625,0.5625 -0.453125,0.84375 -0.734375,0.84375 -0.140625,0 -0.171875,-0.09375 -0.171875,-0.25 0,-0.15625 0.046875,-0.28125 0.109375,-0.4375 C 1.46875,-1 1.546875,-1.1875 1.609375,-1.375 1.671875,-1.546875 1.9375,-2.171875 1.953125,-2.265625 1.984375,-2.328125 2,-2.40625 2,-2.484375 2,-2.8125 1.71875,-3.078125 1.34375,-3.078125 0.640625,-3.078125 0.328125,-2.125 0.328125,-2 c 0,0.078125 0.09375,0.078125 0.125,0.078125 0.09375,0 0.09375,-0.03125 0.125,-0.109375 C 0.75,-2.625 1.0625,-2.875 1.3125,-2.875 c 0.109375,0 0.171875,0.046875 0.171875,0.234375 0,0.171875 -0.03125,0.265625 -0.203125,0.703125 z m 0,0"
             id="id-112a181c-3644-4122-92be-21e97ce4b33e" />
        </g>
        <g
           transform="translate(157.64,136.259)"
           id="g7">
          <path
             d="M 3.0625,-4.359375 C 3.0625,-4.46875 2.96875,-4.625 2.78125,-4.625 c -0.203125,0 -0.390625,0.203125 -0.390625,0.390625 0,0.109375 0.078125,0.265625 0.28125,0.265625 0.1875,0 0.390625,-0.1875 0.390625,-0.390625 z M 1.578125,0.34375 C 1.46875,0.828125 1.09375,1.21875 0.6875,1.21875 c -0.09375,0 -0.171875,0 -0.25,-0.03125 0.171875,-0.09375 0.234375,-0.25 0.234375,-0.359375 0,-0.171875 -0.140625,-0.25 -0.28125,-0.25 C 0.1875,0.578125 0,0.765625 0,0.984375 c 0,0.265625 0.265625,0.4375 0.6875,0.4375 0.421875,0 1.234375,-0.25 1.453125,-1.09375 l 0.625,-2.5 c 0.015625,-0.078125 0.03125,-0.140625 0.03125,-0.25 0,-0.375 -0.328125,-0.65625 -0.734375,-0.65625 -0.78125,0 -1.21875,0.96875 -1.21875,1.078125 0,0.078125 0.09375,0.078125 0.109375,0.078125 0.078125,0 0.09375,-0.015625 0.140625,-0.125 C 1.265625,-2.453125 1.625,-2.875 2.03125,-2.875 c 0.171875,0 0.234375,0.109375 0.234375,0.34375 0,0.078125 0,0.171875 -0.015625,0.203125 z m 0,0"
             id="id-440d13f6-55eb-436d-92db-a52118896d1a" />
        </g>
      </g>
    </g>
    <g
       transform="matrix(0.529167,0,0,0.529167,101.96408,54.078838)"
       ns9:version="1.10.2"
       ns9:texconverter="pdflatex"
       ns9:pdfconverter="inkscape"
       ns9:text="$\\dots\\dots$"
       ns9:preamble="/Users/maoyiran/Library/Application Support/org.inkscape.Inkscape/config/inkscape/extensions/textext/default_packages.tex"
       ns9:scale="1.5"
       ns9:alignment="middle center"
       ns9:stroke-to-path="0"
       ns9:inkscapeversion="1.4"
       ns9:jacobian_sqrt="1.0"
       id="g36">
      <defs
         id="id-a5d6af2b-35ef-4840-a4ab-951df2f65f82" />
      <g
         fill="#000000"
         fill-opacity="1"
         id="id-b33c613a-9327-4b85-8ab0-464a41b46d87"
         transform="translate(-149.571,-133.702)">
        <g
           transform="translate(148.712,134.765)"
           id="g10">
          <path
             d="m 1.90625,-0.53125 c 0,-0.28125 -0.234375,-0.53125 -0.515625,-0.53125 -0.296875,0 -0.53125,0.25 -0.53125,0.53125 C 0.859375,-0.234375 1.09375,0 1.390625,0 1.671875,0 1.90625,-0.234375 1.90625,-0.53125 Z m 0,0"
             id="id-f2ba3f22-97c8-4408-96e7-d0dd0f05f952" />
        </g>
      </g>
      <g
         fill="#000000"
         fill-opacity="1"
         id="id-8c342a65-e6e3-45d8-91f2-507869b36e4e"
         transform="translate(-149.571,-133.702)">
        <g
           transform="translate(153.143,134.765)"
           id="g11">
          <path
             d="m 1.90625,-0.53125 c 0,-0.28125 -0.234375,-0.53125 -0.515625,-0.53125 -0.296875,0 -0.53125,0.25 -0.53125,0.53125 C 0.859375,-0.234375 1.09375,0 1.390625,0 1.671875,0 1.90625,-0.234375 1.90625,-0.53125 Z m 0,0"
             id="id-2d00bf6f-78a9-44c5-8969-bfa94c209113" />
        </g>
      </g>
      <g
         fill="#000000"
         fill-opacity="1"
         id="id-9143cf82-9ff1-4b73-ab0b-1a386ba59237"
         transform="translate(-149.571,-133.702)">
        <g
           transform="translate(157.565,134.765)"
           id="g12">
          <path
             d="m 1.90625,-0.53125 c 0,-0.28125 -0.234375,-0.53125 -0.515625,-0.53125 -0.296875,0 -0.53125,0.25 -0.53125,0.53125 C 0.859375,-0.234375 1.09375,0 1.390625,0 1.671875,0 1.90625,-0.234375 1.90625,-0.53125 Z m 0,0"
             id="id-40a5a734-074a-4e07-adfc-c810fb861a10" />
        </g>
      </g>
      <g
         fill="#000000"
         fill-opacity="1"
         id="id-2024d55b-8415-4b7b-b0a7-dce272eaac17"
         transform="translate(-149.571,-133.702)">
        <g
           transform="translate(161.996,134.765)"
           id="g13">
          <path
             d="m 1.90625,-0.53125 c 0,-0.28125 -0.234375,-0.53125 -0.515625,-0.53125 -0.296875,0 -0.53125,0.25 -0.53125,0.53125 C 0.859375,-0.234375 1.09375,0 1.390625,0 1.671875,0 1.90625,-0.234375 1.90625,-0.53125 Z m 0,0"
             id="id-c38ff10f-db32-4594-bdb4-88b8911306ec" />
        </g>
      </g>
      <g
         fill="#000000"
         fill-opacity="1"
         id="id-f73521d4-748e-4ca4-bcb0-ae64b85e1657"
         transform="translate(-149.571,-133.702)">
        <g
           transform="translate(166.427,134.765)"
           id="g34">
          <path
             d="m 1.90625,-0.53125 c 0,-0.28125 -0.234375,-0.53125 -0.515625,-0.53125 -0.296875,0 -0.53125,0.25 -0.53125,0.53125 C 0.859375,-0.234375 1.09375,0 1.390625,0 1.671875,0 1.90625,-0.234375 1.90625,-0.53125 Z m 0,0"
             id="id-d2f3f086-c94b-45e4-8b7d-1e73668b7cd4" />
        </g>
      </g>
      <g
         fill="#000000"
         fill-opacity="1"
         id="id-5eca60ab-1905-4ff3-81d7-9d9595749fc1"
         transform="translate(-149.571,-133.702)">
        <g
           transform="translate(170.849,134.765)"
           id="g35">
          <path
             d="m 1.90625,-0.53125 c 0,-0.28125 -0.234375,-0.53125 -0.515625,-0.53125 -0.296875,0 -0.53125,0.25 -0.53125,0.53125 C 0.859375,-0.234375 1.09375,0 1.390625,0 1.671875,0 1.90625,-0.234375 1.90625,-0.53125 Z m 0,0"
             id="id-a4acba53-f8fd-40f9-847b-8560b43a3e4b" />
        </g>
      </g>
    </g>
    <g
       transform="matrix(0.35124208,0,0,0.35124208,60.853194,61.488812)"
       ns9:version="1.10.2"
       ns9:texconverter="pdflatex"
       ns9:pdfconverter="inkscape"
       ns9:text="$\\Gamma(i/N,j/N)$"
       ns9:preamble="/Users/maoyiran/Library/Application Support/org.inkscape.Inkscape/config/inkscape/extensions/textext/default_packages.tex"
       ns9:scale="1.5"
       ns9:alignment="middle center"
       ns9:stroke-to-path="0"
       ns9:inkscapeversion="1.4"
       ns9:jacobian_sqrt="0.529167"
       id="g47">
      <defs
         id="id-fafba9ad-3deb-40c7-85c2-13ca005e6866" />
      <g
         id="g48"
         transform="translate(-3.0346065,-0.50576775)">
        <g
           fill="#000000"
           fill-opacity="1"
           id="id-a0c9b798-5f70-4bf0-94d5-391f29b9af58"
           transform="translate(-149.04,-127.281)">
          <g
             transform="translate(148.712,134.765)"
             id="g37">
            <path
               d="m 5.515625,-6.78125 h -5.1875 v 0.3125 H 0.5625 c 0.765625,0 0.796875,0.109375 0.796875,0.46875 v 5.21875 c 0,0.359375 -0.03125,0.46875 -0.796875,0.46875 H 0.328125 V 0 c 0.34375,-0.03125 1.125,-0.03125 1.515625,-0.03125 0.40625,0 1.3125,0 1.671875,0.03125 V -0.3125 H 3.1875 C 2.25,-0.3125 2.25,-0.4375 2.25,-0.78125 v -5.296875 c 0,-0.328125 0.015625,-0.390625 0.484375,-0.390625 h 1.03125 c 1.421875,0 1.625,0.59375 1.78125,1.9375 h 0.25 z m 0,0"
               id="id-1ecc3aef-8f6a-4097-94b5-a26f133ec32e" />
          </g>
          <g
             transform="translate(154.939,134.765)"
             id="g38">
            <path
               d="m 3.296875,2.390625 c 0,-0.03125 0,-0.046875 -0.171875,-0.21875 C 1.890625,0.921875 1.5625,-0.96875 1.5625,-2.5 c 0,-1.734375 0.375,-3.46875 1.609375,-4.703125 0.125,-0.125 0.125,-0.140625 0.125,-0.171875 0,-0.078125 -0.03125,-0.109375 -0.09375,-0.109375 -0.109375,0 -1,0.6875 -1.59375,1.953125 -0.5,1.09375 -0.625,2.203125 -0.625,3.03125 0,0.78125 0.109375,1.984375 0.65625,3.125 C 2.25,1.84375 3.09375,2.5 3.203125,2.5 c 0.0625,0 0.09375,-0.03125 0.09375,-0.109375 z m 0,0"
               id="id-2f9046f7-df46-4f6a-985a-fdac7aea1bbf" />
          </g>
        </g>
        <g
           fill="#000000"
           fill-opacity="1"
           id="id-05a1a0e2-16db-4244-b709-6fcff26bf2b3"
           transform="translate(-149.04,-127.281)">
          <g
             transform="translate(158.813,134.765)"
             id="g39">
            <path
               d="m 2.828125,-6.234375 c 0,-0.203125 -0.140625,-0.359375 -0.359375,-0.359375 -0.28125,0 -0.546875,0.265625 -0.546875,0.53125 0,0.1875 0.140625,0.359375 0.375,0.359375 0.234375,0 0.53125,-0.234375 0.53125,-0.53125 z m -0.75,3.75 c 0.109375,-0.28125 0.109375,-0.3125 0.21875,-0.578125 0.078125,-0.203125 0.125,-0.34375 0.125,-0.53125 0,-0.4375 -0.3125,-0.8125 -0.8125,-0.8125 -0.9375,0 -1.3125,1.453125 -1.3125,1.53125 0,0.109375 0.09375,0.109375 0.109375,0.109375 0.109375,0 0.109375,-0.03125 0.15625,-0.1875 0.28125,-0.9375 0.671875,-1.234375 1.015625,-1.234375 0.078125,0 0.25,0 0.25,0.3125 0,0.21875 -0.078125,0.421875 -0.109375,0.53125 -0.078125,0.25 -0.53125,1.40625 -0.6875,1.84375 -0.109375,0.25 -0.234375,0.578125 -0.234375,0.796875 0,0.46875 0.34375,0.8125 0.8125,0.8125 0.9375,0 1.3125,-1.4375 1.3125,-1.53125 0,-0.109375 -0.09375,-0.109375 -0.125,-0.109375 -0.09375,0 -0.09375,0.03125 -0.140625,0.1875 -0.1875,0.625 -0.515625,1.234375 -1.015625,1.234375 -0.171875,0 -0.25,-0.09375 -0.25,-0.328125 0,-0.25 0.0625,-0.390625 0.296875,-1 z m 0,0"
               id="id-7438984f-b599-4168-be5f-91055f1d230a" />
          </g>
          <g
             transform="translate(162.245,134.765)"
             id="g40">
            <path
               d="m 4.375,-7.09375 c 0.046875,-0.140625 0.046875,-0.171875 0.046875,-0.1875 0,-0.109375 -0.078125,-0.203125 -0.1875,-0.203125 -0.078125,0 -0.140625,0.03125 -0.171875,0.09375 l -3.46875,9.5 C 0.546875,2.25 0.546875,2.28125 0.546875,2.296875 0.546875,2.40625 0.640625,2.5 0.75,2.5 0.875,2.5 0.90625,2.421875 0.96875,2.25 Z m 0,0"
               id="id-6ff01dca-0800-49b5-8518-5a26955eded0" />
          </g>
        </g>
        <g
           fill="#000000"
           fill-opacity="1"
           id="id-962e60f4-6282-4317-99e8-78cff2dec8f0"
           transform="translate(-149.04,-127.281)">
          <g
             transform="translate(166.668,134.765)"
             id="g41">
            <path
               d="M 7.53125,-5.765625 C 7.640625,-6.15625 7.8125,-6.46875 8.609375,-6.5 c 0.046875,0 0.171875,-0.015625 0.171875,-0.203125 0,0 0,-0.109375 -0.125,-0.109375 -0.328125,0 -0.6875,0.03125 -1.015625,0.03125 -0.328125,0 -0.6875,-0.03125 -1.015625,-0.03125 -0.0625,0 -0.171875,0 -0.171875,0.203125 C 6.453125,-6.5 6.546875,-6.5 6.625,-6.5 c 0.578125,0.015625 0.6875,0.21875 0.6875,0.4375 0,0.03125 -0.03125,0.1875 -0.03125,0.203125 l -1.125,4.4375 L 3.953125,-6.625 C 3.875,-6.796875 3.875,-6.8125 3.640625,-6.8125 h -1.34375 c -0.1875,0 -0.28125,0 -0.28125,0.203125 0,0.109375 0.09375,0.109375 0.28125,0.109375 0.046875,0 0.671875,0 0.671875,0.09375 L 1.640625,-1.0625 c -0.109375,0.40625 -0.28125,0.71875 -1.078125,0.75 -0.0625,0 -0.171875,0.015625 -0.171875,0.203125 0,0.0625 0.046875,0.109375 0.125,0.109375 0.328125,0 0.671875,-0.03125 1,-0.03125 C 1.859375,-0.03125 2.21875,0 2.546875,0 2.59375,0 2.71875,0 2.71875,-0.203125 2.71875,-0.296875 2.625,-0.3125 2.515625,-0.3125 1.9375,-0.328125 1.859375,-0.546875 1.859375,-0.75 c 0,-0.0625 0.015625,-0.125 0.046875,-0.234375 l 1.3125,-5.25 C 3.265625,-6.1875 3.265625,-6.15625 3.3125,-6.0625 l 2.484375,5.875 C 5.859375,-0.015625 5.890625,0 5.984375,0 6.09375,0 6.09375,-0.03125 6.140625,-0.203125 Z m 0,0"
               id="id-44694e3c-0a80-497c-b962-758359594184" />
          </g>
        </g>
        <g
           fill="#000000"
           fill-opacity="1"
           id="id-c10ea10b-b1b1-4e41-a6f7-41404112d434"
           transform="translate(-149.04,-127.281)">
          <g
             transform="translate(175.211,134.765)"
             id="g42">
            <path
               d="m 2.03125,-0.015625 c 0,-0.65625 -0.25,-1.046875 -0.640625,-1.046875 -0.328125,0 -0.53125,0.25 -0.53125,0.53125 C 0.859375,-0.265625 1.0625,0 1.390625,0 1.5,0 1.640625,-0.046875 1.734375,-0.125 1.765625,-0.15625 1.78125,-0.15625 1.78125,-0.15625 c 0.015625,0 0.015625,0 0.015625,0.140625 0,0.75 -0.34375,1.34375 -0.671875,1.671875 -0.109375,0.109375 -0.109375,0.125 -0.109375,0.15625 0,0.078125 0.046875,0.109375 0.09375,0.109375 0.109375,0 0.921875,-0.765625 0.921875,-1.9375 z m 0,0"
               id="id-1536b41a-1d13-4ca4-aa54-d87bec19fe5f" />
          </g>
        </g>
        <g
           fill="#000000"
           fill-opacity="1"
           id="id-73f16b5f-c43f-435b-be2d-f5c650e566d5"
           transform="translate(-149.04,-127.281)">
          <g
             transform="translate(179.643,134.765)"
             id="g43">
            <path
               d="m 3.953125,-6.234375 c 0,-0.1875 -0.140625,-0.359375 -0.375,-0.359375 -0.234375,0 -0.53125,0.234375 -0.53125,0.53125 0,0.203125 0.140625,0.359375 0.375,0.359375 0.265625,0 0.53125,-0.265625 0.53125,-0.53125 z m -2,6.734375 c -0.1875,0.75 -0.671875,1.328125 -1.21875,1.328125 -0.0625,0 -0.21875,0 -0.390625,-0.09375 0.296875,-0.0625 0.4375,-0.328125 0.4375,-0.53125 0,-0.15625 -0.109375,-0.34375 -0.375,-0.34375 -0.25,0 -0.53125,0.203125 -0.53125,0.5625 0,0.40625 0.390625,0.625 0.875,0.625 0.703125,0 1.625,-0.53125 1.875,-1.515625 L 3.53125,-3.125 c 0.0625,-0.1875 0.0625,-0.328125 0.0625,-0.359375 0,-0.578125 -0.421875,-0.921875 -0.921875,-0.921875 -1.015625,0 -1.578125,1.453125 -1.578125,1.53125 0,0.109375 0.09375,0.109375 0.109375,0.109375 0.09375,0 0.109375,-0.015625 0.1875,-0.203125 0.25,-0.609375 0.703125,-1.21875 1.25,-1.21875 0.140625,0 0.3125,0.046875 0.3125,0.453125 0,0.234375 -0.015625,0.34375 -0.0625,0.515625 z m 0,0"
               id="id-14c851f5-fa6f-412f-8b69-3aab38d693dd" />
          </g>
        </g>
        <g
           fill="#000000"
           fill-opacity="1"
           id="id-01695e69-c38c-4f2d-a517-44644986e165"
           transform="translate(-149.04,-127.281)">
          <g
             transform="translate(184.313,134.765)"
             id="g44">
            <path
               d="m 4.375,-7.09375 c 0.046875,-0.140625 0.046875,-0.171875 0.046875,-0.1875 0,-0.109375 -0.078125,-0.203125 -0.1875,-0.203125 -0.078125,0 -0.140625,0.03125 -0.171875,0.09375 l -3.46875,9.5 C 0.546875,2.25 0.546875,2.28125 0.546875,2.296875 0.546875,2.40625 0.640625,2.5 0.75,2.5 0.875,2.5 0.90625,2.421875 0.96875,2.25 Z m 0,0"
               id="id-a217f95f-7130-4786-a143-38397d104691" />
          </g>
        </g>
        <g
           fill="#000000"
           fill-opacity="1"
           id="id-8cb3eaa0-3ea2-4a6e-ab31-cd0f236fd089"
           transform="translate(-149.04,-127.281)">
          <g
             transform="translate(188.737,134.765)"
             id="g45">
            <path
               d="M 7.53125,-5.765625 C 7.640625,-6.15625 7.8125,-6.46875 8.609375,-6.5 c 0.046875,0 0.171875,-0.015625 0.171875,-0.203125 0,0 0,-0.109375 -0.125,-0.109375 -0.328125,0 -0.6875,0.03125 -1.015625,0.03125 -0.328125,0 -0.6875,-0.03125 -1.015625,-0.03125 -0.0625,0 -0.171875,0 -0.171875,0.203125 C 6.453125,-6.5 6.546875,-6.5 6.625,-6.5 c 0.578125,0.015625 0.6875,0.21875 0.6875,0.4375 0,0.03125 -0.03125,0.1875 -0.03125,0.203125 l -1.125,4.4375 L 3.953125,-6.625 C 3.875,-6.796875 3.875,-6.8125 3.640625,-6.8125 h -1.34375 c -0.1875,0 -0.28125,0 -0.28125,0.203125 0,0.109375 0.09375,0.109375 0.28125,0.109375 0.046875,0 0.671875,0 0.671875,0.09375 L 1.640625,-1.0625 c -0.109375,0.40625 -0.28125,0.71875 -1.078125,0.75 -0.0625,0 -0.171875,0.015625 -0.171875,0.203125 0,0.0625 0.046875,0.109375 0.125,0.109375 0.328125,0 0.671875,-0.03125 1,-0.03125 C 1.859375,-0.03125 2.21875,0 2.546875,0 2.59375,0 2.71875,0 2.71875,-0.203125 2.71875,-0.296875 2.625,-0.3125 2.515625,-0.3125 1.9375,-0.328125 1.859375,-0.546875 1.859375,-0.75 c 0,-0.0625 0.015625,-0.125 0.046875,-0.234375 l 1.3125,-5.25 C 3.265625,-6.1875 3.265625,-6.15625 3.3125,-6.0625 l 2.484375,5.875 C 5.859375,-0.015625 5.890625,0 5.984375,0 6.09375,0 6.09375,-0.03125 6.140625,-0.203125 Z m 0,0"
               id="id-679e9d5f-55cf-4851-a4a1-06dd4381e229" />
          </g>
        </g>
        <g
           fill="#000000"
           fill-opacity="1"
           id="id-c46fa0ed-84f0-49bf-9c4d-1e51022f4a58"
           transform="translate(-149.04,-127.281)">
          <g
             transform="translate(197.83,134.765)"
             id="g46">
            <path
               d="m 2.875,-2.5 c 0,-0.765625 -0.109375,-1.96875 -0.65625,-3.109375 -0.59375,-1.21875 -1.453125,-1.875 -1.546875,-1.875 -0.0625,0 -0.109375,0.046875 -0.109375,0.109375 0,0.03125 0,0.046875 0.1875,0.234375 0.984375,0.984375 1.546875,2.5625 1.546875,4.640625 0,1.71875 -0.359375,3.46875 -1.59375,4.71875 C 0.5625,2.34375 0.5625,2.359375 0.5625,2.390625 0.5625,2.453125 0.609375,2.5 0.671875,2.5 0.765625,2.5 1.671875,1.8125 2.25,0.546875 2.765625,-0.546875 2.875,-1.65625 2.875,-2.5 Z m 0,0"
               id="id-8fd25cef-0bef-4258-be0d-6b30cbed1ef8" />
          </g>
        </g>
      </g>
    </g>
    <g
       id="g84"
       transform="translate(3.5529383,0.17764692)">
      <g
         transform="matrix(0.529167,0,0,0.529167,98.93181,74.170122)"
         ns9:version="1.10.2"
         ns9:texconverter="pdflatex"
         ns9:pdfconverter="inkscape"
         ns9:text="$\\ddots$"
         ns9:preamble="/Users/maoyiran/Library/Application Support/org.inkscape.Inkscape/config/inkscape/extensions/textext/default_packages.tex"
         ns9:scale="1.5"
         ns9:alignment="middle center"
         ns9:stroke-to-path="0"
         ns9:inkscapeversion="1.4"
         ns9:jacobian_sqrt="0.529167"
         id="g53">
        <defs
           id="id-0a3722d0-879e-4584-a037-9ec193ea1e60" />
        <g
           fill="#000000"
           fill-opacity="1"
           id="id-7c20d012-d4b7-46e9-b2b8-562a93a8c369"
           transform="translate(-150.125,-131.764)">
          <g
             transform="translate(149.266,132.827)"
             id="g50">
            <path
               d="m 1.90625,-0.53125 c 0,-0.28125 -0.234375,-0.53125 -0.515625,-0.53125 -0.296875,0 -0.53125,0.25 -0.53125,0.53125 C 0.859375,-0.234375 1.09375,0 1.390625,0 1.671875,0 1.90625,-0.234375 1.90625,-0.53125 Z m 0,0"
               id="id-51ef4b05-d54c-48d0-9983-7f1fb6826b0b" />
          </g>
        </g>
        <g
           fill="#000000"
           fill-opacity="1"
           id="id-2c373050-e3b2-4dd4-b830-fb380c28005b"
           transform="translate(-150.125,-131.764)">
          <g
             transform="translate(153.14,135.816)"
             id="g51">
            <path
               d="m 1.90625,-0.53125 c 0,-0.28125 -0.234375,-0.53125 -0.515625,-0.53125 -0.296875,0 -0.53125,0.25 -0.53125,0.53125 C 0.859375,-0.234375 1.09375,0 1.390625,0 1.671875,0 1.90625,-0.234375 1.90625,-0.53125 Z m 0,0"
               id="id-ed96f7df-a66f-48c3-84ae-0647ef172ac8" />
          </g>
        </g>
        <g
           fill="#000000"
           fill-opacity="1"
           id="id-8bbe08f0-43cb-4cfd-ad29-148ee22ed63e"
           transform="translate(-150.125,-131.764)">
          <g
             transform="translate(157.014,138.805)"
             id="g52">
            <path
               d="m 1.90625,-0.53125 c 0,-0.28125 -0.234375,-0.53125 -0.515625,-0.53125 -0.296875,0 -0.53125,0.25 -0.53125,0.53125 C 0.859375,-0.234375 1.09375,0 1.390625,0 1.671875,0 1.90625,-0.234375 1.90625,-0.53125 Z m 0,0"
               id="id-122ca4db-fb41-4ba1-9611-60e0bf86af7e" />
          </g>
        </g>
      </g>
      <g
         transform="matrix(0.529167,0,0,0.529167,104.79039,78.962815)"
         ns9:version="1.10.2"
         ns9:texconverter="pdflatex"
         ns9:pdfconverter="inkscape"
         ns9:text="$\\ddots$"
         ns9:preamble="/Users/maoyiran/Library/Application Support/org.inkscape.Inkscape/config/inkscape/extensions/textext/default_packages.tex"
         ns9:scale="1.5"
         ns9:alignment="middle center"
         ns9:stroke-to-path="0"
         ns9:inkscapeversion="1.4"
         ns9:jacobian_sqrt="0.529167"
         id="g69">
        <defs
           id="defs55" />
        <g
           fill="#000000"
           fill-opacity="1"
           id="g62"
           transform="translate(-150.125,-131.764)">
          <g
             transform="translate(149.266,132.827)"
             id="g61">
            <path
               d="m 1.90625,-0.53125 c 0,-0.28125 -0.234375,-0.53125 -0.515625,-0.53125 -0.296875,0 -0.53125,0.25 -0.53125,0.53125 C 0.859375,-0.234375 1.09375,0 1.390625,0 1.671875,0 1.90625,-0.234375 1.90625,-0.53125 Z m 0,0"
               id="path55" />
          </g>
        </g>
        <g
           fill="#000000"
           fill-opacity="1"
           id="g66"
           transform="translate(-150.125,-131.764)">
          <g
             transform="translate(153.14,135.816)"
             id="g65">
            <path
               d="m 1.90625,-0.53125 c 0,-0.28125 -0.234375,-0.53125 -0.515625,-0.53125 -0.296875,0 -0.53125,0.25 -0.53125,0.53125 C 0.859375,-0.234375 1.09375,0 1.390625,0 1.671875,0 1.90625,-0.234375 1.90625,-0.53125 Z m 0,0"
               id="path65" />
          </g>
        </g>
        <g
           fill="#000000"
           fill-opacity="1"
           id="g68"
           transform="translate(-150.125,-131.764)">
          <g
             transform="translate(157.014,138.805)"
             id="g67">
            <path
               d="m 1.90625,-0.53125 c 0,-0.28125 -0.234375,-0.53125 -0.515625,-0.53125 -0.296875,0 -0.53125,0.25 -0.53125,0.53125 C 0.859375,-0.234375 1.09375,0 1.390625,0 1.671875,0 1.90625,-0.234375 1.90625,-0.53125 Z m 0,0"
               id="path66" />
          </g>
        </g>
      </g>
    </g>
    <g
       id="g83"
       transform="translate(-18.297632,-12.07999)">
      <g
         transform="matrix(0.529167,0,0,0.529167,96.1853,86.4336)"
         ns9:version="1.10.2"
         ns9:texconverter="pdflatex"
         ns9:pdfconverter="inkscape"
         ns9:text="$\\vdots$"
         ns9:preamble="/Users/maoyiran/Library/Application Support/org.inkscape.Inkscape/config/inkscape/extensions/textext/default_packages.tex"
         ns9:scale="1.5"
         ns9:alignment="middle center"
         ns9:stroke-to-path="0"
         ns9:inkscapeversion="1.4"
         ns9:jacobian_sqrt="0.529167"
         id="g73">
        <defs
           id="id-2f77bf39-dbf6-4024-82e9-f5d59245bc77" />
        <g
           fill="#000000"
           fill-opacity="1"
           id="id-832cd8e6-3684-4e0a-81e3-95cc7304c6de"
           transform="translate(-149.571,-130.768)">
          <g
             transform="translate(148.712,131.831)"
             id="g70">
            <path
               d="m 1.90625,-0.53125 c 0,-0.28125 -0.234375,-0.53125 -0.515625,-0.53125 -0.296875,0 -0.53125,0.25 -0.53125,0.53125 C 0.859375,-0.234375 1.09375,0 1.390625,0 1.671875,0 1.90625,-0.234375 1.90625,-0.53125 Z m 0,0"
               id="id-3474b586-3c7b-4b27-99b2-276eacbdc72b" />
          </g>
        </g>
        <g
           fill="#000000"
           fill-opacity="1"
           id="id-74ea9ef8-2201-4a8a-b419-8c451578cd67"
           transform="translate(-149.571,-130.768)">
          <g
             transform="translate(148.712,135.816)"
             id="g71">
            <path
               d="m 1.90625,-0.53125 c 0,-0.28125 -0.234375,-0.53125 -0.515625,-0.53125 -0.296875,0 -0.53125,0.25 -0.53125,0.53125 C 0.859375,-0.234375 1.09375,0 1.390625,0 1.671875,0 1.90625,-0.234375 1.90625,-0.53125 Z m 0,0"
               id="id-8b504444-b059-4ffd-838e-d36c9157b5a4" />
          </g>
        </g>
        <g
           fill="#000000"
           fill-opacity="1"
           id="id-ad081f2c-8407-45bc-a8d1-a089bb6508e7"
           transform="translate(-149.571,-130.768)">
          <g
             transform="translate(148.712,139.801)"
             id="g72">
            <path
               d="m 1.90625,-0.53125 c 0,-0.28125 -0.234375,-0.53125 -0.515625,-0.53125 -0.296875,0 -0.53125,0.25 -0.53125,0.53125 C 0.859375,-0.234375 1.09375,0 1.390625,0 1.671875,0 1.90625,-0.234375 1.90625,-0.53125 Z m 0,0"
               id="id-e4a554da-adf8-4b2c-87e4-45c6e2e4a740" />
          </g>
        </g>
      </g>
      <g
         transform="matrix(0.529167,0,0,0.529167,96.1853,92.783604)"
         ns9:version="1.10.2"
         ns9:texconverter="pdflatex"
         ns9:pdfconverter="inkscape"
         ns9:text="$\\vdots$"
         ns9:preamble="/Users/maoyiran/Library/Application Support/org.inkscape.Inkscape/config/inkscape/extensions/textext/default_packages.tex"
         ns9:scale="1.5"
         ns9:alignment="middle center"
         ns9:stroke-to-path="0"
         ns9:inkscapeversion="1.4"
         ns9:jacobian_sqrt="0.529167"
         id="g82">
        <defs
           id="defs75" />
        <g
           fill="#000000"
           fill-opacity="1"
           id="g77"
           transform="translate(-149.571,-130.768)">
          <g
             transform="translate(148.712,131.831)"
             id="g76">
            <path
               d="m 1.90625,-0.53125 c 0,-0.28125 -0.234375,-0.53125 -0.515625,-0.53125 -0.296875,0 -0.53125,0.25 -0.53125,0.53125 C 0.859375,-0.234375 1.09375,0 1.390625,0 1.671875,0 1.90625,-0.234375 1.90625,-0.53125 Z m 0,0"
               id="path75" />
          </g>
        </g>
        <g
           fill="#000000"
           fill-opacity="1"
           id="g79"
           transform="translate(-149.571,-130.768)">
          <g
             transform="translate(148.712,135.816)"
             id="g78">
            <path
               d="m 1.90625,-0.53125 c 0,-0.28125 -0.234375,-0.53125 -0.515625,-0.53125 -0.296875,0 -0.53125,0.25 -0.53125,0.53125 C 0.859375,-0.234375 1.09375,0 1.390625,0 1.671875,0 1.90625,-0.234375 1.90625,-0.53125 Z m 0,0"
               id="path77" />
          </g>
        </g>
        <g
           fill="#000000"
           fill-opacity="1"
           id="g81"
           transform="translate(-149.571,-130.768)">
          <g
             transform="translate(148.712,139.801)"
             id="g80">
            <path
               d="m 1.90625,-0.53125 c 0,-0.28125 -0.234375,-0.53125 -0.515625,-0.53125 -0.296875,0 -0.53125,0.25 -0.53125,0.53125 C 0.859375,-0.234375 1.09375,0 1.390625,0 1.671875,0 1.90625,-0.234375 1.90625,-0.53125 Z m 0,0"
               id="path79" />
          </g>
        </g>
      </g>
    </g>
    <path
       style="fill:#c8c8c8;fill-opacity:0;stroke:#000000;stroke-width:0.4;stroke-linecap:round;stroke-dasharray:none;marker-mid:url(#ArrowWideRounded)"
       d="m 59.07148,29.632923 c 0,0 -8.49703,14.810612 -8.416341,22.962233 0.138609,14.00289 13.125341,25.307042 15.235608,39.150701 0.708398,4.647198 -0.966379,14.069493 -0.966379,14.069493"
       id="path84"
       sodipodi:nodetypes="caac" />
  </g>
</svg>
