<?xml version="1.0" encoding="UTF-8" standalone="no"?>
<!-- Created with Inkscape (http://www.inkscape.org/) -->

<svg
   version="1.1"
   id="svg1"
   width="205.79066"
   height="134.90134"
   viewBox="0 0 205.79066 134.90134"
   sodipodi:docname="Draft.pdf"
   xmlns:inkscape="http://www.inkscape.org/namespaces/inkscape"
   xmlns:sodipodi="http://sodipodi.sourceforge.net/DTD/sodipodi-0.dtd"
   xmlns="http://www.w3.org/2000/svg"
   xmlns:svg="http://www.w3.org/2000/svg">
  <defs
     id="defs1" />
  <sodipodi:namedview
     id="namedview1"
     pagecolor="#ffffff"
     bordercolor="#000000"
     borderopacity="0.25"
     inkscape:showpageshadow="2"
     inkscape:pageopacity="0.0"
     inkscape:pagecheckerboard="0"
     inkscape:deskcolor="#d1d1d1">
    <inkscape:page
       x="0"
       y="0"
       inkscape:label="1"
       id="page1"
       width="205.79066"
       height="134.90134"
       margin="0"
       bleed="0" />
  </sodipodi:namedview>
  <g
     id="g1"
     inkscape:groupmode="layer"
     inkscape:label="1">
    <path
       id="path1"
       d="m 5.9426641,-5.6704687 0.140625,-0.140625 c 0.3046875,-0.2929688 0.6328125,-0.6328125 1.3125,-0.6796875 0.1054687,-0.011719 0.1992187,-0.011719 0.1992187,-0.1875 0,-0.082031 -0.058594,-0.1289063 -0.1289062,-0.1289063 -0.2578125,0 -0.5507813,0.035156 -0.8203125,0.035156 -0.328125,0 -0.6796875,-0.035156 -0.9960938,-0.035156 -0.058594,0 -0.1875,0 -0.1875,0.1992188 0,0.1054687 0.09375,0.1171875 0.1523438,0.1171875 0.070312,0 0.3515625,0.011719 0.3515625,0.2226562 0,0.1757813 -0.2226563,0.4335938 -0.2695313,0.4804688 L 3.3879766,-3.1275 2.2981328,-6.080625 c -0.070312,-0.140625 -0.070312,-0.1640625 -0.070312,-0.1757812 0,-0.234375 0.4921875,-0.234375 0.5976563,-0.234375 0.1289062,0 0.234375,0 0.234375,-0.1992188 0,-0.1171875 -0.1171875,-0.1171875 -0.1523438,-0.1171875 -0.28125,0 -0.9726562,0.035156 -1.2539062,0.035156 -0.2460938,0 -0.86718754,-0.035156 -1.11328129,-0.035156 -0.0585938,0 -0.1875,0 -0.1875,0.1992188 0,0.1171875 0.09375,0.1171875 0.22265625,0.1171875 0.59765624,0 0.64453124,0.082031 0.72656254,0.3398437 l 1.2304687,3.2695313 c 0.011719,0.035156 0.035156,0.140625 0.035156,0.1757812 0,0.023437 -0.3984375,1.6289063 -0.4453125,1.8046875 -0.1289063,0.55078125 -0.140625,0.5859375 -0.9375,0.59765625 -0.18750004,0 -0.26953129,0 -0.26953129,0.19921875 0,0.10546875 0.11718749,0.10546875 0.14062499,0.10546875 0.28125,0 0.9726563,-0.03515625 1.2539063,-0.03515625 0.28125,0 0.9960937,0.03515625 1.2773437,0.03515625 0.070312,0 0.1875,0 0.1875,-0.19921875 0,-0.10546875 -0.082031,-0.10546875 -0.28125,-0.10546875 -0.011719,0 -0.1992187,0 -0.375,-0.0234375 -0.2109375,-0.0234375 -0.2695312,-0.0351563 -0.2695312,-0.1640625 0,-0.0703125 0.09375,-0.41015625 0.140625,-0.62109375 l 0.3515625,-1.40625 c 0.046875,-0.1875 0.058594,-0.2226562 0.140625,-0.3046875 z m 0,0"
       style="fill:#000000;fill-opacity:1;fill-rule:nonzero;stroke:none"
       aria-label="Y"
       transform="matrix(1.3333333,0,0,1.3333333,98.150667,13.92)" />
    <path
       id="path2"
       d="M 4.8268984,-4.0909141 3.9948672,-6.0831016 c -0.035156,-0.070312 -0.046875,-0.1171875 -0.046875,-0.1289062 0,-0.058594 0.1640625,-0.2460938 0.5859375,-0.28125 0.09375,-0.011719 0.1992187,-0.023437 0.1992187,-0.1875 0,-0.1289063 -0.1171875,-0.1289063 -0.1523437,-0.1289063 -0.4101563,0 -0.8320313,0.035156 -1.2539063,0.035156 -0.2460937,0 -0.8671875,-0.035156 -1.1132812,-0.035156 -0.058594,0 -0.1875,0 -0.1875,0.1992188 0,0.1171875 0.1054687,0.1171875 0.234375,0.1171875 0.5976562,0 0.65625,0.09375 0.75,0.3164062 l 1.171875,2.7773438 -2.0976563,2.2617187 -0.1289062,0.1054688 c -0.4921875,0.52734374 -0.96093751,0.69140624 -1.46484376,0.72656249 -0.12890625,0 -0.22265625,0 -0.22265625,0.19921875 0,0 0,0.10546875 0.12890625,0.10546875 0.3046875,0 0.63281246,-0.03515625 0.93749996,-0.03515625 0.3632813,0 0.7617188,0.03515625 1.1132813,0.03515625 0.058594,0 0.1757812,0 0.1757812,-0.19921875 0,-0.10546875 -0.09375,-0.10546875 -0.1171875,-0.10546875 -0.082031,-0.0117188 -0.3984375,-0.0351563 -0.3984375,-0.31640625 0,-0.15234375 0.1523438,-0.31640625 0.2695313,-0.44531254 l 1.0195312,-1.078125 0.890625,-0.9726562 1.0078125,2.37890624 c 0.046875,0.10546875 0.046875,0.1171875 0.046875,0.140625 0,0.0820313 -0.1875,0.24609375 -0.5742187,0.29296875 -0.1054688,0 -0.1992188,0.0117188 -0.1992188,0.1875 0,0.1171875 0.1171875,0.1171875 0.1523438,0.1171875 0.28125,0 0.9726562,-0.03515625 1.2539062,-0.03515625 0.2460938,0 0.8554688,0.03515625 1.1015625,0.03515625 0.070312,0 0.1992188,0 0.1992188,-0.1875 0,-0.1171875 -0.1054688,-0.1171875 -0.1875,-0.1171875 -0.6679688,-0.0117188 -0.6796875,-0.046875 -0.8554688,-0.4453125 C 5.8464297,-1.6768516 5.1784609,-3.2237266 4.9440859,-3.8213828 c 0.6796875,-0.703125 1.734375,-1.8867188 2.0507813,-2.1679688 0.28125,-0.234375 0.6679687,-0.4804687 1.265625,-0.5039062 0.1289062,-0.011719 0.2109375,-0.011719 0.2109375,-0.1992188 0,-0.011719 0,-0.1171875 -0.1289063,-0.1171875 -0.2929687,0 -0.6210937,0.035156 -0.9375,0.035156 -0.3632812,0 -0.7382812,-0.035156 -1.1015625,-0.035156 -0.058594,0 -0.1875,0 -0.1875,0.1992188 0,0.070312 0.046875,0.1054687 0.1171875,0.1171875 0.09375,0.011719 0.3984375,0.023437 0.3984375,0.3046875 0,0.140625 -0.1054687,0.2695312 -0.1875,0.3632812 z m 0,0"
       style="fill:#000000;fill-opacity:1;fill-rule:nonzero;stroke:none"
       aria-label="X"
       transform="matrix(1.3333333,0,0,1.3333333,97.458667,80.505333)" />
    <g
       id="g2"
       aria-label="X&#10;j"
       transform="matrix(1.3333333,0,0,1.3333333,5.6986667,123.18133)">
      <path
         id="path3"
         d="M 4.8285391,-4.0910781 3.9965078,-6.0832656 c -0.035156,-0.070312 -0.046875,-0.1171875 -0.046875,-0.1289063 0,-0.058594 0.1640625,-0.2460937 0.5859375,-0.28125 0.09375,-0.011719 0.1992188,-0.023437 0.1992188,-0.1875 0,-0.1289062 -0.1171875,-0.1289062 -0.1523438,-0.1289062 -0.4101562,0 -0.8320312,0.035156 -1.2539062,0.035156 -0.2460938,0 -0.8671875,-0.035156 -1.1132813,-0.035156 -0.058594,0 -0.1875,0 -0.1875,0.1992187 0,0.1171875 0.1054688,0.1171875 0.234375,0.1171875 0.5976563,0 0.65625,0.09375 0.75,0.3164063 l 1.171875,2.7773437 -2.0976562,2.2617188 -0.1289063,0.1054687 c -0.4921875,0.52734378 -0.96093749,0.69140628 -1.46484374,0.72656253 -0.12890625,0 -0.22265625,0 -0.22265625,0.19921875 0,0 0,0.10546875 0.12890625,0.10546875 0.3046875,0 0.63281254,-0.03515625 0.93750004,-0.03515625 0.3632812,0 0.7617187,0.03515625 1.1132812,0.03515625 0.058594,0 0.1757813,0 0.1757813,-0.19921875 0,-0.10546875 -0.09375,-0.10546875 -0.1171875,-0.10546875 -0.082031,-0.0117188 -0.3984375,-0.0351563 -0.3984375,-0.31640625 0,-0.15234375 0.1523437,-0.31640625 0.2695312,-0.44531248 l 1.0195313,-1.078125 0.890625,-0.9726563 1.0078125,2.37890628 c 0.046875,0.10546875 0.046875,0.1171875 0.046875,0.140625 0,0.0820313 -0.1875,0.24609375 -0.5742188,0.29296875 -0.1054687,0 -0.1992187,0.0117188 -0.1992187,0.1875 0,0.1171875 0.1171875,0.1171875 0.1523437,0.1171875 0.28125,0 0.9726563,-0.03515625 1.2539063,-0.03515625 0.2460937,0 0.8554687,0.03515625 1.1015625,0.03515625 0.070312,0 0.1992187,0 0.1992187,-0.1875 0,-0.1171875 -0.1054687,-0.1171875 -0.1875,-0.1171875 -0.6679687,-0.0117188 -0.6796875,-0.046875 -0.8554687,-0.4453125 C 5.8480703,-1.6770156 5.1801016,-3.2238906 4.9457266,-3.8215469 c 0.6796875,-0.703125 1.734375,-1.8867187 2.0507812,-2.1679687 0.28125,-0.234375 0.6679688,-0.4804688 1.265625,-0.5039063 0.1289063,-0.011719 0.2109375,-0.011719 0.2109375,-0.1992187 0,-0.011719 0,-0.1171875 -0.1289062,-0.1171875 -0.2929688,0 -0.6210938,0.035156 -0.9375,0.035156 -0.3632813,0 -0.7382813,-0.035156 -1.1015625,-0.035156 -0.058594,0 -0.1875,0 -0.1875,0.1992187 0,0.070312 0.046875,0.1054688 0.1171875,0.1171875 0.09375,0.011719 0.3984375,0.023437 0.3984375,0.3046875 0,0.140625 -0.1054688,0.2695313 -0.1875,0.3632813 z m 0,0"
         style="fill:#000000;fill-opacity:1;fill-rule:nonzero;stroke:none" />
      <path
         id="path4"
         d="m 11.311937,-2.8664687 c 0,-0.1171875 -0.09375,-0.2578125 -0.28125,-0.2578125 -0.199218,0 -0.386718,0.1875 -0.386718,0.375 0,0.1171875 0.08203,0.2695312 0.28125,0.2695312 0.1875,0 0.386718,-0.1875 0.386718,-0.3867187 z M 9.835375,1.83275 C 9.7181875,2.3132188 9.3431875,2.723375 8.9330312,2.723375 8.851,2.723375 8.75725,2.7116563 8.6869375,2.6765 8.8627187,2.594469 8.9213125,2.4304063 8.9213125,2.3249375 c 0,-0.1640625 -0.1289063,-0.2578125 -0.2695313,-0.2578125 -0.2226562,0 -0.3984375,0.1875 -0.3984375,0.4101563 0,0.2695312 0.2695313,0.4335937 0.6914063,0.4335937 0.421875,0 1.230469,-0.2460937 1.453125,-1.1015625 l 0.621094,-2.49609375 c 0.02344,-0.0703125 0.03516,-0.140625 0.03516,-0.234375 0,-0.38671875 -0.328125,-0.65624995 -0.738281,-0.65624995 -0.7851565,0 -1.230469,0.96093745 -1.230469,1.0664062 0,0.0820313 0.1054687,0.0820313 0.1289062,0.0820313 0.082031,0 0.082031,-0.0117188 0.1289063,-0.1171875 0.1757772,-0.4101563 0.5390585,-0.84375 0.9492145,-0.84375 0.175781,0 0.234375,0.1171875 0.234375,0.3398437 0,0.0820312 -0.01172,0.17578125 -0.02344,0.2109375 z m 0,0"
         style="fill:#000000;fill-opacity:1;fill-rule:nonzero;stroke:none" />
    </g>
    <g
       id="g4"
       aria-label="X&#10;i"
       transform="matrix(1.3333333,0,0,1.3333333,184.664,123.18133)">
      <path
         id="path5"
         d="M 4.8281719,-4.0910781 3.9961406,-6.0832656 c -0.035156,-0.070312 -0.046875,-0.1171875 -0.046875,-0.1289063 0,-0.058594 0.1640625,-0.2460937 0.5859375,-0.28125 0.09375,-0.011719 0.1992188,-0.023437 0.1992188,-0.1875 0,-0.1289062 -0.1171875,-0.1289062 -0.1523438,-0.1289062 -0.4101562,0 -0.8320312,0.035156 -1.2539062,0.035156 -0.2460938,0 -0.8671875,-0.035156 -1.1132813,-0.035156 -0.058594,0 -0.1875,0 -0.1875,0.1992187 0,0.1171875 0.1054688,0.1171875 0.234375,0.1171875 0.5976563,0 0.65625,0.09375 0.75,0.3164063 l 1.171875,2.7773437 -2.0976562,2.2617188 -0.1289063,0.1054687 c -0.4921875,0.52734378 -0.96093747,0.69140628 -1.46484372,0.72656253 -0.12890625,0 -0.22265625,0 -0.22265625,0.19921875 0,0 0,0.10546875 0.12890625,0.10546875 0.3046875,0 0.63281252,-0.03515625 0.93750002,-0.03515625 0.3632812,0 0.7617187,0.03515625 1.1132812,0.03515625 0.058594,0 0.1757813,0 0.1757813,-0.19921875 0,-0.10546875 -0.09375,-0.10546875 -0.1171875,-0.10546875 -0.082031,-0.0117188 -0.3984375,-0.0351563 -0.3984375,-0.31640625 0,-0.15234375 0.1523437,-0.31640625 0.2695312,-0.44531248 l 1.0195313,-1.078125 0.890625,-0.9726563 1.0078125,2.37890628 c 0.046875,0.10546875 0.046875,0.1171875 0.046875,0.140625 0,0.0820313 -0.1875,0.24609375 -0.5742188,0.29296875 -0.1054687,0 -0.1992187,0.0117188 -0.1992187,0.1875 0,0.1171875 0.1171875,0.1171875 0.1523437,0.1171875 0.28125,0 0.9726563,-0.03515625 1.2539063,-0.03515625 0.2460937,0 0.8554687,0.03515625 1.1015625,0.03515625 0.070312,0 0.1992187,0 0.1992187,-0.1875 0,-0.1171875 -0.1054687,-0.1171875 -0.1875,-0.1171875 -0.6679687,-0.0117188 -0.6796875,-0.046875 -0.8554687,-0.4453125 C 5.8477031,-1.6770156 5.1797344,-3.2238906 4.9453594,-3.8215469 c 0.6796875,-0.703125 1.734375,-1.8867187 2.0507812,-2.1679687 0.28125,-0.234375 0.6679688,-0.4804688 1.265625,-0.5039063 0.1289063,-0.011719 0.2109375,-0.011719 0.2109375,-0.1992187 0,-0.011719 0,-0.1171875 -0.1289062,-0.1171875 -0.2929688,0 -0.6210938,0.035156 -0.9375,0.035156 -0.3632813,0 -0.7382813,-0.035156 -1.1015625,-0.035156 -0.058594,0 -0.1875,0 -0.1875,0.1992187 0,0.070312 0.046875,0.1054688 0.1171875,0.1171875 0.09375,0.011719 0.3984375,0.023437 0.3984375,0.3046875 0,0.140625 -0.1054688,0.2695313 -0.1875,0.3632813 z m 0,0"
         style="fill:#000000;fill-opacity:1;fill-rule:nonzero;stroke:none" />
      <path
         id="path6"
         d="m 10.514695,-2.8664687 c 0,-0.1054688 -0.08203,-0.2578125 -0.28125,-0.2578125 -0.1875,0 -0.3867184,0.1757812 -0.3867184,0.375 0,0.1171875 0.082031,0.2695312 0.2695314,0.2695312 0.210937,0 0.398437,-0.1992187 0.398437,-0.3867187 z M 9.0850078,0.67259375 c -0.023437,0.09375 -0.058594,0.17578125 -0.058594,0.29296875 0,0.328125 0.28125,0.5976563 0.6679687,0.5976563 0.6914065,0 0.9960945,-0.96093755 0.9960945,-1.0664063 0,-0.09375 -0.08203,-0.09375 -0.105469,-0.09375 -0.105469,0 -0.105469,0.046875 -0.140625,0.1171875 C 10.292039,1.08275 9.9873516,1.364 9.7061016,1.364 c -0.140625,0 -0.1757813,-0.082031 -0.1757813,-0.2460937 0,-0.1523438 0.058594,-0.2929688 0.1171875,-0.44531255 0.070312,-0.1875 0.140625,-0.375 0.2226563,-0.55078125 0.058594,-0.1640625 0.3164059,-0.80859375 0.3398439,-0.890625 0.02344,-0.0703125 0.04687,-0.15234375 0.04687,-0.22265625 0,-0.32812495 -0.2812502,-0.58593745 -0.6679689,-0.58593745 -0.6914063,0 -1.0078125,0.9492187 -1.0078125,1.0664062 0,0.0820313 0.09375,0.0820313 0.1171875,0.0820313 0.09375,0 0.1054687,-0.0351563 0.1289062,-0.10546875 0.1757813,-0.59765615 0.4804688,-0.85546865 0.7382813,-0.85546865 0.1171875,0 0.1757812,0.058594 0.1757812,0.2460937 0,0.16406245 -0.035156,0.2695312 -0.2109375,0.70312495 z m 0,0"
         style="fill:#000000;fill-opacity:1;fill-rule:nonzero;stroke:none" />
    </g>
    <path
       id="path7"
       d="M 0.44049,35.16235 V 0.0933"
       style="fill:none;stroke:#000000;stroke-width:0.39848;stroke-linecap:butt;stroke-linejoin:miter;stroke-miterlimit:10;stroke-dasharray:2.78941, 1.59395;stroke-dashoffset:0;stroke-opacity:1"
       transform="matrix(1.3333333,0,0,-1.3333333,102.89467,65.912)" />
    <path
       id="path8"
       d="M -2.07213,2.39091 C -1.69356,0.95633 -0.84995,0.27893 0,0 -0.84995,-0.27893 -1.69356,-0.95633 -2.07213,-2.39091"
       style="fill:none;stroke:#000000;stroke-width:0.39848;stroke-linecap:round;stroke-linejoin:round;stroke-miterlimit:10;stroke-dasharray:none;stroke-opacity:1"
       transform="matrix(0,1.3333333,1.3333333,0,103.48199,66.05324)" />
    <g
       id="g8"
       aria-label="!u"
       transform="matrix(1.3333333,0,0,1.3333333,91.08,45.902667)">
      <path
         id="path9"
         d="m 1.5220313,-4.5939922 c 0,-0.2578125 -0.2109375,-0.3867187 -0.3984375,-0.3867187 -0.1992188,0 -0.39843755,0.1523437 -0.39843755,0.3867187 l 0.26953125,3.0703125 c 0.0117188,0.1523438 0.0351563,0.1757813 0.1289063,0.1757813 0.09375,0 0.1171875,-0.023437 0.1289062,-0.1640625 z m 0,4.18359376 c 0,-0.2109375 -0.1757813,-0.38671875 -0.3984375,-0.38671875 -0.23437505,0 -0.39843755,0.1875 -0.39843755,0.38671875 0,0.24609375 0.19921875,0.4101562525 0.39843755,0.4101562525 0.2226562,0 0.3984375,-0.1757812525 0.3984375,-0.4101562525 z m 0,0"
         style="fill:#000000;fill-opacity:1;fill-rule:nonzero;stroke:none" />
      <path
         id="path10"
         d="m 5.2075781,-1.1252422 c -0.035156,0.14062501 -0.1054687,0.39843751 -0.1171875,0.41015626 -0.1289062,0.2109375 -0.4101562,0.5859375 -0.84375,0.5859375 -0.4804687,0 -0.4804687,-0.4453125 -0.4804687,-0.57421875 0,-0.41015621 0.1992187,-0.90234371 0.3867187,-1.41796871 0.058594,-0.140625 0.1054688,-0.2460938 0.1054688,-0.3515625 0,-0.3632813 -0.3046875,-0.5976563 -0.6679688,-0.5976563 -0.6914062,0 -1.0078125,0.9492188 -1.0078125,1.0664063 0,0.082031 0.09375,0.082031 0.1171875,0.082031 0.09375,0 0.1054688,-0.035156 0.1289063,-0.1054687 0.1640625,-0.5742188 0.46875,-0.8554688 0.7382812,-0.8554688 0.1289063,0 0.1757813,0.082031 0.1757813,0.2460938 0,0.1640625 -0.046875,0.3046875 -0.1171875,0.46875 -0.3867188,0.9609375 -0.3867188,1.1601562 -0.3867188,1.34765621 0,0.1171875 0,0.4453125 0.2695313,0.66796875 0.1992187,0.1640625 0.46875,0.22265625 0.7148437,0.22265625 0.4335938,0 0.6796875,-0.234375 0.9023438,-0.45703125 0.1523437,0.4453125 0.6210937,0.45703125 0.703125,0.45703125 0.234375,0 0.421875,-0.140625 0.5507812,-0.375 0.1523438,-0.26953125 0.2578125,-0.66796875 0.2578125,-0.69140625 0,-0.09375 -0.1054687,-0.09375 -0.1171875,-0.09375 -0.1054687,0 -0.1054687,0.035156 -0.1640625,0.22265617 -0.082031,0.328125 -0.2109375,0.73828125 -0.5039062,0.73828125 -0.1757813,0 -0.234375,-0.15234375 -0.234375,-0.33984375 0,-0.1171875 0.058594,-0.36328125 0.1054687,-0.55078117 0.046875,-0.1875 0.1171875,-0.46875 0.1523438,-0.6210938 l 0.1640625,-0.6210937 c 0.046875,-0.1757813 0.1171875,-0.4804688 0.1171875,-0.515625 0,-0.140625 -0.1054688,-0.2226563 -0.2226563,-0.2226563 -0.2578125,0 -0.3164062,0.1992188 -0.3632812,0.421875 z m 0,0"
         style="fill:#000000;fill-opacity:1;fill-rule:nonzero;stroke:none" />
    </g>
    <path
       id="path11"
       d="M -4.73398,35.16235 -59.7522,-32.00368"
       style="fill:none;stroke:#000000;stroke-width:0.39848;stroke-linecap:butt;stroke-linejoin:miter;stroke-miterlimit:10;stroke-dasharray:none;stroke-opacity:1"
       transform="matrix(1.3333333,0,0,-1.3333333,102.89467,65.912)" />
    <path
       id="path12"
       d="M -2.07213,2.39091 C -1.69356,0.95633 -0.84995,0.27893 0,0 -0.84995,-0.27893 -1.69356,-0.95633 -2.07213,-2.39091"
       style="fill:none;stroke:#000000;stroke-width:0.39848;stroke-linecap:round;stroke-linejoin:round;stroke-miterlimit:10;stroke-dasharray:none;stroke-opacity:1"
       transform="matrix(-0.84485333,1.0313867,1.0313867,0.84485333,23.056733,108.78907)" />
    <g
       id="g12"
       aria-label="g&#10;j"
       transform="matrix(1.3333333,0,0,1.3333333,46.477333,58.277333)">
      <path
         id="path13"
         d="m 3.7142656,-2.5781172 c 0.023437,-0.09375 0.023437,-0.1289062 0.023437,-0.140625 0,-0.1523437 -0.1289062,-0.2226562 -0.234375,-0.2226562 -0.1640625,0 -0.2929687,0.1289062 -0.328125,0.2695312 -0.1171875,-0.1992187 -0.3515625,-0.3984375 -0.7148437,-0.3984375 -0.8671875,0 -1.78125002,0.9257813 -1.78125002,1.921875 0,0.72656251 0.48046872,1.1484375125 1.05468752,1.1484375125 0.328125,0 0.6328125,-0.1640625025 0.8789062,-0.3750000025 L 2.4486406,0.24610156 C 2.3783281,0.53907031 2.3314531,0.72657031 2.0619219,0.97266406 1.7572344,1.2304766 1.4525469,1.2304766 1.2767656,1.2304766 c -0.31640622,0 -0.41015622,-0.023437 -0.52734372,-0.046875 0.17578125,-0.09375 0.22265625,-0.25781254 0.22265625,-0.35156254 0,-0.1640625 -0.140625,-0.2578125 -0.26953125,-0.2578125 -0.19921875,0 -0.3984375,0.15234375 -0.3984375,0.421875 0,0.42187504 0.59765625,0.42187504 0.98437502,0.42187504 1.0898437,0 1.5585937,-0.55078129 1.6640625,-0.94921879 z m -0.9726562,1.65234376 c -0.023437,0.10546875 -0.023437,0.1171875 -0.140625,0.2578125 -0.2460938,0.29296875 -0.5742188,0.46875 -0.84375,0.46875 -0.3515625,0 -0.5273438,-0.29296875 -0.5273438,-0.65625 0,-0.30468746 0.1875,-1.08984376 0.375,-1.39453126 0.2929688,-0.4921875 0.6210938,-0.6328125 0.8554688,-0.6328125 0.4921875,0 0.6210937,0.5273438 0.6210937,0.5976563 0,0.011719 0,0.023437 -0.023437,0.1054687 z m 0,0"
         style="fill:#000000;fill-opacity:1;fill-rule:nonzero;stroke:none" />
      <path
         id="path14"
         d="m 6.4300859,-2.1093672 c 0,-0.1171875 -0.082031,-0.2109375 -0.2226562,-0.2109375 -0.1523438,0 -0.3046875,0.140625 -0.3046875,0.2929688 0,0.1171875 0.09375,0.2109375 0.2109375,0.2109375 0.1757812,0 0.3164062,-0.1523438 0.3164062,-0.2929688 z m -1.0898437,3.328125 c -0.09375,0.375 -0.4101563,0.6328125 -0.7148438,0.6328125 -0.082031,0 -0.140625,-0.023437 -0.1757812,-0.023437 0.1171875,-0.070312 0.1523437,-0.1992187 0.1523437,-0.2695312 0,-0.082031 -0.058594,-0.1992188 -0.2226562,-0.1992188 -0.1640625,0 -0.3046875,0.1523438 -0.3046875,0.3164063 0,0.2109375 0.2226562,0.3398437 0.5625,0.3398437 0.3398437,0 0.984375,-0.1757812 1.1367187,-0.7851562 l 0.4453125,-1.79296879 c 0.011719,-0.046875 0.023437,-0.09375 0.023437,-0.1640625 0,-0.28125001 -0.2578125,-0.48046871 -0.609375,-0.48046871 -0.5976562,0 -0.9726562,0.67968746 -0.9726562,0.77343746 0,0.0703125 0.082031,0.0703125 0.1054687,0.0703125 0.082031,0 0.082031,-0.0234375 0.1171875,-0.0703125 0.2226563,-0.4921875 0.5625,-0.59765626 0.7265625,-0.59765626 0.1992188,0 0.2109375,0.17578126 0.2109375,0.25781251 0,0.0703125 0,0.09375 -0.011719,0.12890625 z m 0,0"
         style="fill:#000000;fill-opacity:1;fill-rule:nonzero;stroke:none" />
    </g>
    <path
       id="path15"
       d="M 5.58101,35.16235 60.23746,-32.00287"
       style="fill:none;stroke:#000000;stroke-width:0.39848;stroke-linecap:butt;stroke-linejoin:miter;stroke-miterlimit:10;stroke-dasharray:none;stroke-opacity:1"
       transform="matrix(1.3333333,0,0,-1.3333333,102.89467,65.912)" />
    <path
       id="path16"
       d="M -2.07213,2.39091 C -1.69356,0.95633 -0.84995,0.27893 0,0 -0.84995,-0.27893 -1.69356,-0.95633 -2.07213,-2.39091"
       style="fill:none;stroke:#000000;stroke-width:0.39848;stroke-linecap:round;stroke-linejoin:round;stroke-miterlimit:10;stroke-dasharray:none;stroke-opacity:1"
       transform="matrix(0.84153333,1.0341333,1.0341333,-0.84153333,183.37892,108.78853)" />
    <g
       id="g16"
       aria-label="g&#10;i"
       transform="matrix(1.3333333,0,0,1.3333333,150.056,59.089333)">
      <path
         id="path17"
         d="m 3.7138594,-2.5777422 c 0.023437,-0.09375 0.023437,-0.1289062 0.023437,-0.140625 0,-0.1523437 -0.1289063,-0.2226562 -0.234375,-0.2226562 -0.1640625,0 -0.2929688,0.1289062 -0.328125,0.2695312 -0.1171875,-0.1992187 -0.3515625,-0.3984375 -0.7148438,-0.3984375 -0.8671875,0 -1.78124997,0.9257813 -1.78124997,1.921875 0,0.72656251 0.48046877,1.1484375125 1.05468747,1.1484375125 0.328125,0 0.6328125,-0.1640625025 0.8789063,-0.3750000025 L 2.4482344,0.24647656 C 2.3779219,0.53944531 2.3310469,0.72694531 2.0615156,0.97303906 1.7568281,1.2308516 1.4521406,1.2308516 1.2763594,1.2308516 c -0.31640627,0 -0.41015627,-0.023437 -0.52734377,-0.046875 0.17578125,-0.09375 0.22265625,-0.25781254 0.22265625,-0.35156254 0,-0.1640625 -0.140625,-0.2578125 -0.26953125,-0.2578125 -0.19921875,0 -0.3984375,0.15234375 -0.3984375,0.421875 0,0.42187504 0.59765625,0.42187504 0.98437497,0.42187504 1.0898438,0 1.5585938,-0.55078129 1.6640625,-0.94921879 z m -0.9726563,1.65234376 c -0.023437,0.10546875 -0.023437,0.1171875 -0.140625,0.2578125 -0.2460937,0.29296875 -0.5742187,0.46875 -0.84375,0.46875 -0.3515625,0 -0.5273437,-0.29296875 -0.5273437,-0.65625 0,-0.30468746 0.1875,-1.08984376 0.375,-1.39453126 0.2929687,-0.4921875 0.6210937,-0.6328125 0.8554687,-0.6328125 0.4921875,0 0.6210938,0.5273438 0.6210938,0.5976563 0,0.011719 0,0.023437 -0.023437,0.1054687 z m 0,0"
         style="fill:#000000;fill-opacity:1;fill-rule:nonzero;stroke:none" />
      <path
         id="path18"
         d="m 5.8554609,-2.1089922 c 0,-0.1171875 -0.082031,-0.2109375 -0.2109375,-0.2109375 -0.140625,0 -0.3046875,0.1289063 -0.3046875,0.2929688 0,0.140625 0.1054688,0.2109375 0.2109375,0.2109375 0.1640625,0 0.3046875,-0.140625 0.3046875,-0.2929688 z m 0.234375,2.39062501 c 0,-0.0703125 -0.082031,-0.0703125 -0.1054687,-0.0703125 -0.082031,0 -0.082031,0.0234375 -0.1171875,0.1171875 -0.082031,0.26953125 -0.3046875,0.55078125 -0.5507813,0.55078125 -0.1171875,0 -0.1523437,-0.0820313 -0.1523437,-0.1875 0,-0.10546875 0.023437,-0.1640625 0.058594,-0.2578125 0.046875,-0.09375 0.082031,-0.19921875 0.1054688,-0.26953125 0.023437,-0.0351563 0.2226562,-0.50390625 0.28125,-0.6796875 0.046875,-0.10546875 0.070312,-0.1640625 0.070312,-0.24609375 0,-0.24609376 -0.2226563,-0.44531246 -0.5390625,-0.44531246 -0.5273438,0 -0.796875,0.64453121 -0.796875,0.77343746 0,0.0703125 0.070312,0.0703125 0.1054687,0.0703125 0.082031,0 0.082031,-0.0234375 0.1054688,-0.10546875 0.1171875,-0.3515625 0.3515625,-0.56250001 0.5625,-0.56250001 0.09375,0 0.1523437,0.046875 0.1523437,0.18750001 0,0.0117188 0,0.0820313 -0.023437,0.17578125 -0.035156,0.09375 -0.2578125,0.62109375 -0.328125,0.796875 -0.035156,0.0820313 -0.035156,0.09375 -0.1171875,0.2578125 -0.023437,0.0703125 -0.046875,0.140625 -0.046875,0.22265625 0,0.2578125 0.234375,0.44531249 0.5390625,0.44531249 0.515625,0 0.796875,-0.65624999 0.7968747,-0.77343749 z m 0,0"
         style="fill:#000000;fill-opacity:1;fill-rule:nonzero;stroke:none" />
    </g>
    <path
       id="path19"
       d="M -8.5506,-12.74167 -55.61365,-35.19193"
       style="fill:none;stroke:#000000;stroke-width:0.39848;stroke-linecap:butt;stroke-linejoin:miter;stroke-miterlimit:10;stroke-dasharray:none;stroke-opacity:1"
       transform="matrix(1.3333333,0,0,-1.3333333,102.89467,65.912)" />
    <path
       id="path20"
       d="M -2.07213,2.39091 C -1.69356,0.95633 -0.84995,0.27893 0,0 -0.84995,-0.27893 -1.69356,-0.95633 -2.07213,-2.39091"
       style="fill:none;stroke:#000000;stroke-width:0.39848;stroke-linecap:round;stroke-linejoin:round;stroke-miterlimit:10;stroke-dasharray:none;stroke-opacity:1"
       transform="matrix(-1.2033467,0.57404,0.57404,1.2033467,28.503413,112.94893)" />
    <g
       id="g20"
       aria-label="π&#10;j"
       transform="matrix(1.3333333,0,0,1.3333333,62.994667,105.1)">
      <path
         id="path21"
         d="m 2.1690391,-2.5300781 h 0.8320312 c -0.1054687,0.421875 -0.2578125,1.0546875 -0.2578125,1.60546873 0,0.28125 0.035156,0.46875 0.070312,0.62109375 0.1171875,0.3515625 0.2109375,0.375 0.3164063,0.375 0.1640625,0 0.328125,-0.15234375 0.328125,-0.31640625 0,-0.0585937 -0.011719,-0.0820312 -0.058594,-0.15234375 -0.1289062,-0.2578125 -0.2578125,-0.65624998 -0.2578125,-1.23046878 0,-0.1289062 0,-0.4101562 0.1054688,-0.9023437 h 0.8671875 c 0.1289062,0 0.1875,0 0.2578125,-0.058594 0.09375,-0.070312 0.1171875,-0.1757812 0.1171875,-0.2109375 0,-0.1992187 -0.1757813,-0.1992187 -0.2929688,-0.1992187 h -2.636718 c -0.28125,0 -0.4804688,0.058594 -0.79687504,0.3515625 -0.17578125,0.1640625 -0.4453125,0.5390625 -0.4453125,0.5976562 0,0.082031 0.09375,0.082031 0.1171875,0.082031 0.0703125,0 0.0820313,-0.011719 0.12890625,-0.070312 0.3515625,-0.4921875 0.78515629,-0.4921875 0.93749999,-0.4921875 h 0.421875 c -0.2109375,0.7617187 -0.5859375,1.59374998 -0.796875,2.00390623 -0.046875,0.09375 -0.1171875,0.24609375 -0.14062499,0.26953125 0,0.0234375 -0.0117188,0.0585937 -0.0117188,0.10546875 0,0.10546875 0.0820312,0.22265625 0.24609369,0.22265625 0.2695313,0 0.3515625,-0.31640625 0.515625,-0.9375 z m 0,0"
         style="fill:#000000;fill-opacity:1;fill-rule:nonzero;stroke:none" />
      <path
         id="path22"
         d="m 7.2022422,-2.1082031 c 0,-0.1171875 -0.082031,-0.2109375 -0.2226563,-0.2109375 -0.1523437,0 -0.3046875,0.140625 -0.3046875,0.2929687 0,0.1171875 0.09375,0.2109375 0.2109375,0.2109375 0.1757813,0 0.3164063,-0.1523437 0.3164063,-0.2929687 z m -1.0898438,3.328125 c -0.09375,0.375 -0.4101562,0.6328125 -0.7148437,0.6328125 -0.082031,0 -0.140625,-0.023437 -0.1757813,-0.023437 0.1171875,-0.070312 0.1523438,-0.1992188 0.1523438,-0.2695313 0,-0.082031 -0.058594,-0.1992187 -0.2226563,-0.1992187 -0.1640625,0 -0.3046875,0.1523437 -0.3046875,0.3164062 0,0.2109375 0.2226563,0.3398438 0.5625,0.3398438 0.3398438,0 0.984375,-0.1757813 1.1367188,-0.7851563 l 0.4453125,-1.79296872 c 0.011719,-0.046875 0.023437,-0.09375 0.023437,-0.1640625 0,-0.28124998 -0.2578125,-0.48046878 -0.609375,-0.48046878 -0.5976563,0 -0.9726563,0.67968753 -0.9726563,0.77343753 0,0.0703125 0.082031,0.0703125 0.1054688,0.0703125 0.082031,0 0.082031,-0.0234375 0.1171875,-0.0703125 0.2226562,-0.4921875 0.5625,-0.59765623 0.7265625,-0.59765623 0.1992187,0 0.2109375,0.17578123 0.2109375,0.25781248 0,0.0703125 0,0.09375 -0.011719,0.12890625 z m 0,0"
         style="fill:#000000;fill-opacity:1;fill-rule:nonzero;stroke:none" />
    </g>
    <path
       id="path23"
       d="M 9.4316,-12.76952 56.49506,-35.36568"
       style="fill:none;stroke:#000000;stroke-width:0.39848;stroke-linecap:butt;stroke-linejoin:miter;stroke-miterlimit:10;stroke-dasharray:none;stroke-opacity:1"
       transform="matrix(1.3333333,0,0,-1.3333333,102.89467,65.912)" />
    <path
       id="path24"
       d="M -2.07213,2.39091 C -1.69356,0.95633 -0.84995,0.27893 0,0 -0.84995,-0.27893 -1.69356,-0.95633 -2.07213,-2.39091"
       style="fill:none;stroke:#000000;stroke-width:0.39848;stroke-linecap:round;stroke-linejoin:round;stroke-miterlimit:10;stroke-dasharray:none;stroke-opacity:1"
       transform="matrix(1.2019067,0.57705333,0.57705333,-1.2019067,178.46087,113.1812)" />
    <g
       id="g24"
       aria-label="π&#10;i"
       transform="matrix(1.3333333,0,0,1.3333333,133.55067,105.236)">
      <path
         id="path25"
         d="M 2.1680547,-2.5324687 H 3.0000859 C 2.8946172,-2.1105937 2.7422734,-1.4777812 2.7422734,-0.927 c 0,0.28125 0.035156,0.46875 0.070312,0.62109375 0.1171875,0.3515625 0.2109375,0.375 0.3164063,0.375 0.1640625,0 0.328125,-0.15234375 0.328125,-0.31640625 0,-0.0585938 -0.011719,-0.0820313 -0.058594,-0.15234375 C 3.2696172,-0.65746875 3.1407109,-1.0559062 3.1407109,-1.630125 c 0,-0.1289062 0,-0.4101562 0.1054688,-0.9023437 h 0.8671875 c 0.1289062,0 0.1875,0 0.2578125,-0.058594 0.09375,-0.070312 0.1171875,-0.1757812 0.1171875,-0.2109375 0,-0.1992187 -0.1757813,-0.1992187 -0.2929688,-0.1992187 H 1.5586797 c -0.28125,0 -0.4804688,0.058594 -0.79687501,0.3515625 -0.17578125,0.1640625 -0.4453125,0.5390625 -0.4453125,0.5976562 0,0.082031 0.09375,0.082031 0.1171875,0.082031 0.0703125,0 0.0820312,-0.011719 0.12890625,-0.070312 0.3515625,-0.4921875 0.78515626,-0.4921875 0.93749996,-0.4921875 h 0.421875 c -0.2109375,0.7617187 -0.5859375,1.59374995 -0.796875,2.0039062 -0.046875,0.09375 -0.1171875,0.24609375 -0.14062496,0.26953125 0,0.0234375 -0.0117188,0.0585938 -0.0117188,0.10546875 0,0.10546875 0.0820312,0.22265625 0.24609366,0.22265625 0.2695313,0 0.3515625,-0.31640625 0.515625,-0.9375 z m 0,0"
         style="fill:#000000;fill-opacity:1;fill-rule:nonzero;stroke:none" />
      <path
         id="path26"
         d="m 6.6270391,-2.1105937 c 0,-0.1171875 -0.082031,-0.2109375 -0.2109375,-0.2109375 -0.140625,0 -0.3046875,0.1289062 -0.3046875,0.2929687 0,0.140625 0.1054687,0.2109375 0.2109375,0.2109375 0.1640625,0 0.3046875,-0.140625 0.3046875,-0.2929687 z m 0.234375,2.39062495 c 0,-0.0703125 -0.082031,-0.0703125 -0.1054688,-0.0703125 -0.082031,0 -0.082031,0.0234375 -0.1171875,0.1171875 C 6.5567266,0.5964375 6.3340703,0.8776875 6.0879766,0.8776875 c -0.1171875,0 -0.1523438,-0.0820313 -0.1523438,-0.1875 0,-0.10546875 0.023437,-0.1640625 0.058594,-0.2578125 0.046875,-0.09375 0.082031,-0.19921875 0.1054687,-0.26953125 0.023437,-0.0351563 0.2226563,-0.50390625 0.28125,-0.6796875 0.046875,-0.10546875 0.070312,-0.1640625 0.070312,-0.24609375 0,-0.2460937 -0.2226562,-0.4453125 -0.5390625,-0.4453125 -0.5273437,0 -0.796875,0.64453125 -0.796875,0.7734375 0,0.0703125 0.070312,0.0703125 0.1054688,0.0703125 0.082031,0 0.082031,-0.0234375 0.1054687,-0.10546875 0.1171875,-0.3515625 0.3515625,-0.56249995 0.5625,-0.56249995 0.09375,0 0.1523438,0.0468749 0.1523438,0.18749995 0,0.0117188 0,0.0820313 -0.023437,0.17578125 -0.035156,0.09375 -0.2578125,0.62109375 -0.328125,0.796875 -0.035156,0.0820313 -0.035156,0.09375 -0.1171875,0.2578125 -0.023437,0.0703125 -0.046875,0.140625 -0.046875,0.22265625 0,0.2578125 0.234375,0.44531255 0.5390625,0.44531255 0.515625,0 0.796875,-0.65625005 0.7968748,-0.77343755 z m 0,0"
         style="fill:#000000;fill-opacity:1;fill-rule:nonzero;stroke:none" />
    </g>
    <path
       id="path27"
       d="M -55.97327,-40.46129 H 56.45578"
       style="fill:none;stroke:#000000;stroke-width:0.39848;stroke-linecap:butt;stroke-linejoin:miter;stroke-miterlimit:10;stroke-dasharray:none;stroke-opacity:1"
       transform="matrix(1.3333333,0,0,-1.3333333,102.89467,65.912)" />
    <path
       id="path28"
       d="M -2.07213,2.39091 C -1.69356,0.95633 -0.84995,0.27893 0,0 -0.84995,-0.27893 -1.69356,-0.95633 -2.07213,-2.39091"
       style="fill:none;stroke:#000000;stroke-width:0.39848;stroke-linecap:round;stroke-linejoin:round;stroke-miterlimit:10;stroke-dasharray:none;stroke-opacity:1"
       transform="matrix(1.3333333,0,0,-1.3333333,178.43468,119.86039)" />
    <g
       id="g28"
       aria-label="f&#10;ij"
       transform="matrix(1.3333333,0,0,1.3333333,96.64,129.432)">
      <path
         id="path29"
         d="m 2.8364063,-2.7527109 h 0.6796875 c 0.140625,0 0.234375,0 0.234375,-0.1523438 0,-0.09375 -0.09375,-0.09375 -0.2109375,-0.09375 h -0.65625 c 0.1640625,-0.890625 0.2226562,-1.2070312 0.28125,-1.4179687 0.035156,-0.1523438 0.1875,-0.2929688 0.3515625,-0.2929688 0,0 0.1992187,0 0.328125,0.082031 -0.2929688,0.09375 -0.3046875,0.3398437 -0.3046875,0.3867187 0,0.1523438 0.1171875,0.2578125 0.2695312,0.2578125 0.1992188,0 0.3984375,-0.1640625 0.3984375,-0.4335937 0,-0.3164063 -0.3398437,-0.4921875 -0.6914062,-0.4921875 -0.3046875,0 -0.6445313,0.1757812 -0.84375,0.5273437 C 2.5434375,-4.123805 2.4848438,-3.8073987 2.3325,-2.998805 H 1.7817188 c -0.140625,0 -0.2226563,0 -0.2226563,0.1523438 0,0.09375 0.082031,0.09375 0.2109375,0.09375 h 0.515625 c 0,0.046875 -0.4453125,2.55468746 -0.609375,3.29296871 -0.035156,0.1640625 -0.1523437,0.69140629 -0.4921875,0.69140629 0,0 -0.1757812,0 -0.3046875,-0.082031 0.28125,-0.09375 0.3046875,-0.35156249 0.3046875,-0.38671874 0,-0.15234375 -0.1171875,-0.2578125 -0.28125,-0.2578125 -0.1875,0 -0.3984375,0.1640625 -0.3984375,0.421875 0,0.31640624 0.328125,0.49218754 0.6796875,0.49218754 0.4453125,0 0.75,-0.45703129 0.84375,-0.60937504 0.2460938,-0.46875 0.4101563,-1.32421875 0.421875,-1.40625 z m 0,0"
         style="fill:#000000;fill-opacity:1;fill-rule:nonzero;stroke:none" />
      <path
         id="path30"
         d="m 5.8539844,-2.1081797 c 0,-0.1171875 -0.082031,-0.2109375 -0.2109375,-0.2109375 -0.140625,0 -0.3046875,0.1289063 -0.3046875,0.2929688 0,0.140625 0.1054687,0.2109375 0.2109375,0.2109375 0.1640625,0 0.3046875,-0.140625 0.3046875,-0.2929688 z m 0.234375,2.39062501 c 0,-0.0703125 -0.082031,-0.0703125 -0.1054688,-0.0703125 -0.082031,0 -0.082031,0.0234375 -0.1171875,0.1171875 -0.082031,0.26953125 -0.3046875,0.55078125 -0.5507812,0.55078125 -0.1171875,0 -0.1523438,-0.0820313 -0.1523438,-0.1875 0,-0.10546875 0.023437,-0.1640625 0.058594,-0.2578125 0.046875,-0.09375 0.082031,-0.19921875 0.1054687,-0.26953125 0.023437,-0.0351563 0.2226563,-0.50390625 0.28125,-0.6796875 0.046875,-0.10546875 0.070312,-0.1640625 0.070312,-0.24609375 0,-0.24609376 -0.2226562,-0.44531246 -0.5390625,-0.44531246 -0.5273437,0 -0.796875,0.64453121 -0.796875,0.77343746 0,0.0703125 0.070312,0.0703125 0.1054688,0.0703125 0.082031,0 0.082031,-0.0234375 0.1054687,-0.10546875 0.1171875,-0.3515625 0.3515625,-0.56250001 0.5625,-0.56250001 0.09375,0 0.1523438,0.046875 0.1523438,0.18750001 0,0.0117188 0,0.0820313 -0.023437,0.17578125 -0.035156,0.09375 -0.2578125,0.62109375 -0.328125,0.796875 -0.035156,0.0820313 -0.035156,0.09375 -0.1171875,0.2578125 -0.023437,0.0703125 -0.046875,0.140625 -0.046875,0.22265625 0,0.2578125 0.234375,0.44531249 0.5390625,0.44531249 0.515625,0 0.796875,-0.65624999 0.7968748,-0.77343749 z M 9.0854297,-2.1081797 c 0,-0.1171875 -0.082031,-0.2109375 -0.2226563,-0.2109375 -0.1523437,0 -0.3046875,0.140625 -0.3046875,0.2929688 0,0.1171875 0.09375,0.2109375 0.2109375,0.2109375 0.1757813,0 0.3164063,-0.1523438 0.3164063,-0.2929688 z m -1.0898438,3.328125 c -0.09375,0.375 -0.4101562,0.6328125 -0.7148437,0.6328125 -0.082031,0 -0.140625,-0.023437 -0.1757813,-0.023437 0.1171875,-0.070312 0.1523438,-0.1992187 0.1523438,-0.2695312 0,-0.082031 -0.058594,-0.1992188 -0.2226563,-0.1992188 -0.1640625,0 -0.3046875,0.1523438 -0.3046875,0.3164063 0,0.2109375 0.2226563,0.3398437 0.5625,0.3398437 0.3398438,0 0.984375,-0.1757812 1.1367188,-0.7851562 l 0.4453125,-1.79296879 c 0.011719,-0.046875 0.023437,-0.09375 0.023437,-0.1640625 0,-0.28125001 -0.2578125,-0.48046871 -0.609375,-0.48046871 -0.5976563,0 -0.9726563,0.67968746 -0.9726563,0.77343746 0,0.0703125 0.082031,0.0703125 0.1054688,0.0703125 0.082031,0 0.082031,-0.0234375 0.1171875,-0.0703125 0.2226562,-0.4921875 0.5625,-0.59765626 0.7265625,-0.59765626 0.1992187,0 0.2109375,0.17578126 0.2109375,0.25781251 0,0.0703125 0,0.09375 -0.011719,0.12890625 z m 0,0"
         style="fill:#000000;fill-opacity:1;fill-rule:nonzero;stroke:none" />
    </g>
  </g>
</svg>
