<?xml version="1.0" encoding="UTF-8" standalone="no"?>
<!-- Created with Inkscape (http://www.inkscape.org/) -->

<svg
   version="1.1"
   id="svg1"
   width="465.116"
   height="98.571938"
   viewBox="0 0 465.11599 98.571936"
   sodipodi:docname="AMSI_AKT_GroupAssmnt.pdf"
   xmlns:inkscape="http://www.inkscape.org/namespaces/inkscape"
   xmlns:sodipodi="http://sodipodi.sourceforge.net/DTD/sodipodi-0.dtd"
   xmlns="http://www.w3.org/2000/svg"
   xmlns:svg="http://www.w3.org/2000/svg">
  <defs
     id="defs1">
    <clipPath
       clipPathUnits="userSpaceOnUse"
       id="clipPath92">
      <path
         d="m 29.80542,21.95369 c 0,5.50235 -4.46042,9.96277 -9.96277,9.96277 -5.50236,0 -9.96277,-4.46042 -9.96277,-9.96277 0,-5.50237 4.46041,-9.96277 9.96277,-9.96277 5.50235,0 9.96277,4.4604 9.96277,9.96277 z"
         id="path92" />
    </clipPath>
    <clipPath
       clipPathUnits="userSpaceOnUse"
       id="clipPath96">
      <path
         d="m 31.79797,21.95369 c 0,6.60283 -5.35249,11.95532 -11.95532,11.95532 -6.60283,0 -11.95532,-5.35249 -11.95532,-11.95532 0,-6.60283 5.35249,-11.95532 11.95532,-11.95532 6.60283,0 11.95532,5.35249 11.95532,11.95532 z"
         id="path96" />
    </clipPath>
    <clipPath
       clipPathUnits="userSpaceOnUse"
       id="clipPath107">
      <path
         d="m 34.7868,21.95369 c 0,8.25352 -6.69062,14.94415 -14.94415,14.94415 -8.25354,0 -14.94415,-6.69063 -14.94415,-14.94415 0,-8.25354 6.69061,-14.94415 14.94415,-14.94415 8.25353,0 14.94415,6.69061 14.94415,14.94415 z"
         id="path107" />
    </clipPath>
    <clipPath
       clipPathUnits="userSpaceOnUse"
       id="clipPath109">
      <path
         d="m 34.7868,21.95369 c 0,8.25352 -6.69062,14.94415 -14.94415,14.94415 -8.25354,0 -14.94415,-6.69063 -14.94415,-14.94415 0,-8.25354 6.69061,-14.94415 14.94415,-14.94415 8.25353,0 14.94415,6.69061 14.94415,14.94415 z"
         transform="rotate(-90,-11.700601,11.700602)"
         id="path109" />
    </clipPath>
    <clipPath
       clipPathUnits="userSpaceOnUse"
       id="clipPath111">
      <path
         d="m 36.77936,21.95369 c 0,9.35401 -7.5827,16.93671 -16.93671,16.93671 -9.354,0 -16.93671,-7.5827 -16.93671,-16.93671 0,-9.354 7.58271,-16.93671 16.93671,-16.93671 9.35401,0 16.93671,7.58271 16.93671,16.93671 z"
         id="path111" />
    </clipPath>
  </defs>
  <sodipodi:namedview
     id="namedview1"
     pagecolor="#ffffff"
     bordercolor="#000000"
     borderopacity="0.25"
     inkscape:showpageshadow="2"
     inkscape:pageopacity="0.0"
     inkscape:pagecheckerboard="0"
     inkscape:deskcolor="#d1d1d1">
    <inkscape:page
       x="0"
       y="0"
       width="465.116"
       height="98.571938"
       id="page2"
       margin="0"
       bleed="0" />
  </sodipodi:namedview>
  <g
     id="g1"
     inkscape:groupmode="layer"
     inkscape:label="1"
     transform="translate(-162.47632,-752.72884)">
    <path
       id="path87"
       d="M 0,0 C 0,23.69936 39.68535,21.93883 39.68535,32.00923"
       style="fill:none;stroke:#000000;stroke-width:1.59404;stroke-linecap:butt;stroke-linejoin:miter;stroke-miterlimit:10;stroke-dasharray:none;stroke-opacity:1"
       transform="matrix(1.3333333,0,0,-1.3333333,174.648,817.81733)" />
    <path
       id="path88"
       d="M 6.81448,0 C 4.79533,0.37857 1.51433,1.51433 -0.75716,2.83936 V -2.83936 C 1.51433,-1.51433 4.79533,-0.37857 6.81448,0"
       style="fill:#000000;fill-opacity:1;fill-rule:nonzero;stroke:none"
       transform="matrix(0,-1.3333333,-1.3333333,0,227.5618,775.13836)" />
    <path
       id="path89"
       d="M 39.68535,0 C 39.68535,23.69936 0,21.93883 0,32.00923"
       style="fill:none;stroke:#000000;stroke-width:1.59404;stroke-linecap:butt;stroke-linejoin:miter;stroke-miterlimit:10;stroke-dasharray:none;stroke-opacity:1"
       transform="matrix(1.3333333,0,0,-1.3333333,174.648,817.81733)" />
    <path
       id="path90"
       d="M 6.81448,0 C 4.79533,0.37857 1.51433,1.51433 -0.75716,2.83936 V -2.83936 C 1.51433,-1.51433 4.79533,-0.37857 6.81448,0"
       style="fill:#000000;fill-opacity:1;fill-rule:nonzero;stroke:none"
       transform="matrix(0,-1.3333333,-1.3333333,0,174.648,775.13836)" />
    <path
       id="path91"
       d="M 0,0 C 0,23.69936 39.68535,21.93883 39.68535,23.4012"
       style="fill:none;stroke:#ffffff;stroke-width:4.78214;stroke-linecap:butt;stroke-linejoin:miter;stroke-miterlimit:10;stroke-dasharray:none;stroke-opacity:1"
       transform="matrix(1.3333333,0,0,-1.3333333,174.648,817.81733)"
       clip-path="url(#clipPath92)" />
    <path
       id="path95"
       d="M 0,0 C 0,23.69936 39.68535,21.93883 39.68535,32.00923"
       style="fill:none;stroke:#000000;stroke-width:1.59404;stroke-linecap:butt;stroke-linejoin:miter;stroke-miterlimit:10;stroke-dasharray:none;stroke-opacity:1"
       transform="matrix(1.3333333,0,0,-1.3333333,174.648,817.81733)"
       clip-path="url(#clipPath96)" />
    <path
       id="path99"
       d="m 48.01921,19.84267 c 0,15.56167 -12.61487,28.17654 -28.17654,28.17654 -15.56168,0 -28.17653,-12.61487 -28.17653,-28.17654 0,-15.56168 12.61485,-28.17653 28.17653,-28.17653 15.56167,0 28.17654,12.61485 28.17654,28.17653 z"
       style="fill:none;stroke:#ff0000;stroke-width:1.59404;stroke-linecap:butt;stroke-linejoin:miter;stroke-miterlimit:10;stroke-dasharray:1.59404, 1.99255;stroke-dashoffset:0;stroke-opacity:1"
       transform="matrix(1.3333333,0,0,-1.3333333,174.648,817.81733)" />
    <g
       id="g99"
       aria-label="ð¿&#10;+"
       transform="matrix(1.3333333,0,0,1.3333333,193.90267,849.12)">
      <path
         id="path100"
         d="M 4.9802266,8.203125e-4 C 4.9685078,-0.24527344 5.0856953,-1.0304297 5.2146016,-1.6398047 H 4.8981953 l -0.1640625,0.609375 c -0.09375,0.32812501 -0.1757812,0.49218751 -0.2695312,0.52734376 -0.1171875,0.0703125 -0.8789063,0.1171875 -1.4414063,0.1171875 -0.5390625,0 -0.796875,-0.0117188 -1.40625,-0.0703125 0,-0.1171875 0,-0.234375 0.011719,-0.3515625 l 0.925781,-5.29687496 c 0.070312,-0.375 0.140625,-0.4453125 0.5039063,-0.4804688 l 0.421875,-0.023437 0.023437,-0.28125 c -0.3984375,0.011719 -0.796875,0.023437 -1.1953125,0.023437 -0.4453125,0 -0.890625,-0.011719 -1.34765629,-0.023437 l -0.0234375,0.28125 0.46874999,0.011719 c 0.234375,0.011719 0.3515625,0.09375 0.3515625,0.2578125 0,0.1523437 -0.035156,0.4453125 -0.09375,0.7734375 l -0.85546874,5.01562496 c -0.0351563,0.1875 -0.1640625,0.24609375 -0.59765625,0.31640625 l -0.046875,0.26953125 C 0.66772656,0.01253906 1.1833516,8.203125e-4 1.6989766,8.203125e-4 c 0.7382812,0 1.4882812,0.0351562475 2.2382812,0.0351562475 0.4101563,0 0.6914063,0 1.0429688,-0.0351562475 z m 0,0"
         style="fill:#000000;fill-opacity:1;fill-rule:nonzero;stroke:none" />
      <path
         id="path101"
         d="M 10.069094,-0.27457031 V -0.68472656 H 8.2878437 V -2.4659766 H 7.8776875 v 1.78125004 h -1.78125 v 0.41015625 h 1.78125 V 1.5066797 h 0.4101562 v -1.78125001 z m 0,0"
         style="fill:#000000;fill-opacity:1;fill-rule:nonzero;stroke:none" />
    </g>
    <path
       id="path102"
       d="M 0,0 C 0,23.69936 39.68535,21.93883 39.68535,32.00923"
       style="fill:none;stroke:#000000;stroke-width:1.59404;stroke-linecap:butt;stroke-linejoin:miter;stroke-miterlimit:10;stroke-dasharray:none;stroke-opacity:1"
       transform="matrix(1.3333333,0,0,-1.3333333,368.576,817.81733)" />
    <path
       id="path103"
       d="M 6.81448,0 C 4.79533,0.37857 1.51433,1.51433 -0.75716,2.83936 V -2.83936 C 1.51433,-1.51433 4.79533,-0.37857 6.81448,0"
       style="fill:#000000;fill-opacity:1;fill-rule:nonzero;stroke:none"
       transform="matrix(0,-1.3333333,-1.3333333,0,421.4898,775.13836)" />
    <path
       id="path104"
       d="M 39.68535,0 C 39.68535,23.69936 0,21.93883 0,32.00923"
       style="fill:none;stroke:#000000;stroke-width:1.59404;stroke-linecap:butt;stroke-linejoin:miter;stroke-miterlimit:10;stroke-dasharray:none;stroke-opacity:1"
       transform="matrix(1.3333333,0,0,-1.3333333,368.576,817.81733)" />
    <path
       id="path105"
       d="M 6.81448,0 C 4.79533,0.37857 1.51433,1.51433 -0.75716,2.83936 V -2.83936 C 1.51433,-1.51433 4.79533,-0.37857 6.81448,0"
       style="fill:#000000;fill-opacity:1;fill-rule:nonzero;stroke:none"
       transform="matrix(0,-1.3333333,-1.3333333,0,368.576,775.13836)" />
    <path
       id="path106"
       d="M 39.68535,0 C 39.68535,23.69936 0,21.93883 0,23.4012"
       style="fill:none;stroke:#ffffff;stroke-width:4.78214;stroke-linecap:butt;stroke-linejoin:miter;stroke-miterlimit:10;stroke-dasharray:none;stroke-opacity:1"
       transform="matrix(1.3333333,0,0,-1.3333333,368.576,817.81733)"
       clip-path="url(#clipPath107)" />
    <path
       id="path108"
       d="M 15.4225,0 C 10.85281,0.8568 3.42722,3.42722 -1.71361,6.42604 V -6.42604 C 3.42722,-3.42722 10.85281,-0.8568 15.4225,0"
       style="fill:#ffffff;fill-opacity:1;fill-rule:nonzero;stroke:none"
       transform="matrix(0,-1.3333333,-1.3333333,0,368.576,786.61573)"
       clip-path="url(#clipPath109)" />
    <path
       id="path110"
       d="M 39.68535,0 C 39.68535,23.69936 0,21.93883 0,32.00923"
       style="fill:none;stroke:#000000;stroke-width:1.59404;stroke-linecap:butt;stroke-linejoin:miter;stroke-miterlimit:10;stroke-dasharray:none;stroke-opacity:1"
       transform="matrix(1.3333333,0,0,-1.3333333,368.576,817.81733)"
       clip-path="url(#clipPath111)" />
    <path
       id="path114"
       d="m 48.01921,19.84267 c 0,15.56167 -12.61487,28.17654 -28.17654,28.17654 -15.56168,0 -28.17653,-12.61487 -28.17653,-28.17654 0,-15.56168 12.61485,-28.17653 28.17653,-28.17653 15.56167,0 28.17654,12.61485 28.17654,28.17653 z"
       style="fill:none;stroke:#ff0000;stroke-width:1.59404;stroke-linecap:butt;stroke-linejoin:miter;stroke-miterlimit:10;stroke-dasharray:1.59404, 1.99255;stroke-dashoffset:0;stroke-opacity:1"
       transform="matrix(1.3333333,0,0,-1.3333333,368.576,817.81733)" />
    <g
       id="g114"
       aria-label="ð¿&#10;âˆ’"
       transform="matrix(1.3333333,0,0,1.3333333,387.83067,849.12)">
      <path
         id="path115"
         d="M 4.9814922,8.203125e-4 C 4.9697734,-0.24527344 5.0869609,-1.0304297 5.2158672,-1.6398047 H 4.8994609 l -0.1640625,0.609375 c -0.09375,0.32812501 -0.1757812,0.49218751 -0.2695312,0.52734376 -0.1171875,0.0703125 -0.8789063,0.1171875 -1.4414063,0.1171875 -0.5390625,0 -0.796875,-0.0117188 -1.40625,-0.0703125 0,-0.1171875 0,-0.234375 0.011719,-0.3515625 l 0.925781,-5.29687496 c 0.070312,-0.375 0.140625,-0.4453125 0.5039063,-0.4804688 l 0.421875,-0.023437 0.023437,-0.28125 c -0.3984375,0.011719 -0.796875,0.023437 -1.1953125,0.023437 -0.4453125,0 -0.890625,-0.011719 -1.34765626,-0.023437 l -0.0234375,0.28125 0.46874996,0.011719 c 0.234375,0.011719 0.3515625,0.09375 0.3515625,0.2578125 0,0.1523437 -0.035156,0.4453125 -0.09375,0.7734375 l -0.85546871,5.01562496 c -0.0351563,0.1875 -0.1640625,0.24609375 -0.59765625,0.31640625 l -0.046875,0.26953125 C 0.66899219,0.01253906 1.1846172,8.203125e-4 1.7002422,8.203125e-4 c 0.7382812,0 1.4882812,0.0351562475 2.2382812,0.0351562475 0.4101563,0 0.6914063,0 1.0429688,-0.0351562475 z m 0,0"
         style="fill:#000000;fill-opacity:1;fill-rule:nonzero;stroke:none" />
      <path
         id="path116"
         d="m 10.032273,-0.26285156 v -0.421875 H 6.1064922 v 0.421875 z m 0,0"
         style="fill:#000000;fill-opacity:1;fill-rule:nonzero;stroke:none" />
    </g>
    <path
       id="path117"
       d="M 0,0 C 8.68419,0 9.92133,11.15848 9.92133,19.84267 9.92133,28.52686 8.68419,39.68535 0,39.68535"
       style="fill:none;stroke:#000000;stroke-width:1.59404;stroke-linecap:butt;stroke-linejoin:miter;stroke-miterlimit:10;stroke-dasharray:none;stroke-opacity:1"
       transform="matrix(1.3333333,0,0,-1.3333333,562.504,817.81733)" />
    <path
       id="path118"
       d="M 39.68535,0 C 31.00116,0 29.764,11.15848 29.764,19.84267 c 0,8.68419 1.23716,19.84268 9.92135,19.84268"
       style="fill:none;stroke:#000000;stroke-width:1.59404;stroke-linecap:butt;stroke-linejoin:miter;stroke-miterlimit:10;stroke-dasharray:none;stroke-opacity:1"
       transform="matrix(1.3333333,0,0,-1.3333333,562.504,817.81733)" />
    <path
       id="path119"
       d="m 48.01921,19.84267 c 0,15.56167 -12.61487,28.17654 -28.17654,28.17654 -15.56168,0 -28.17653,-12.61487 -28.17653,-28.17654 0,-15.56168 12.61485,-28.17653 28.17653,-28.17653 15.56167,0 28.17654,12.61485 28.17654,28.17653 z"
       style="fill:none;stroke:#ff0000;stroke-width:1.59404;stroke-linecap:butt;stroke-linejoin:miter;stroke-miterlimit:10;stroke-dasharray:1.59404, 1.99255;stroke-dashoffset:0;stroke-opacity:1"
       transform="matrix(1.3333333,0,0,-1.3333333,562.504,817.81733)" />
    <path
       id="path120"
       d="M 9.92133,19.64433 V 15.01257"
       style="fill:none;stroke:#000000;stroke-width:1.59404;stroke-linecap:butt;stroke-linejoin:miter;stroke-miterlimit:10;stroke-dasharray:none;stroke-opacity:1"
       transform="matrix(1.3333333,0,0,-1.3333333,562.504,817.81733)" />
    <path
       id="path121"
       d="M 6.81448,0 C 4.79533,0.37857 1.51433,1.51433 -0.75716,2.83936 V -2.83936 C 1.51433,-1.51433 4.79533,-0.37857 6.81448,0"
       style="fill:#000000;fill-opacity:1;fill-rule:nonzero;stroke:none"
       transform="matrix(0,-1.3333333,-1.3333333,0,575.73244,797.80057)" />
    <path
       id="path122"
       d="M 29.764,19.64433 V 15.01257"
       style="fill:none;stroke:#000000;stroke-width:1.59404;stroke-linecap:butt;stroke-linejoin:miter;stroke-miterlimit:10;stroke-dasharray:none;stroke-opacity:1"
       transform="matrix(1.3333333,0,0,-1.3333333,562.504,817.81733)" />
    <path
       id="path123"
       d="M 6.81448,0 C 4.79533,0.37857 1.51433,1.51433 -0.75716,2.83936 V -2.83936 C 1.51433,-1.51433 4.79533,-0.37857 6.81448,0"
       style="fill:#000000;fill-opacity:1;fill-rule:nonzero;stroke:none"
       transform="matrix(0,-1.3333333,-1.3333333,0,602.18933,797.80057)" />
    <g
       id="g123"
       aria-label="ð¿&#10;0"
       transform="matrix(1.3333333,0,0,1.3333333,582.35467,849.12)">
      <path
         id="path124"
         d="M 4.9810703,8.203125e-4 C 4.9693516,-0.24527344 5.0865391,-1.0304297 5.2154453,-1.6398047 H 4.8990391 l -0.1640625,0.609375 c -0.09375,0.32812501 -0.1757813,0.49218751 -0.2695313,0.52734376 -0.1171875,0.0703125 -0.8789062,0.1171875 -1.4414062,0.1171875 -0.5390625,0 -0.796875,-0.0117188 -1.40625,-0.0703125 0,-0.1171875 0,-0.234375 0.011719,-0.3515625 l 0.925781,-5.29687496 c 0.070312,-0.375 0.140625,-0.4453125 0.5039062,-0.4804688 l 0.421875,-0.023437 0.023437,-0.28125 c -0.3984375,0.011719 -0.796875,0.023437 -1.1953125,0.023437 -0.4453125,0 -0.890625,-0.011719 -1.34765624,-0.023437 l -0.0234375,0.28125 0.46875004,0.011719 c 0.234375,0.011719 0.3515625,0.09375 0.3515625,0.2578125 0,0.1523437 -0.035156,0.4453125 -0.09375,0.7734375 l -0.85546879,5.01562496 c -0.0351563,0.1875 -0.1640625,0.24609375 -0.59765625,0.31640625 l -0.046875,0.26953125 C 0.66857031,0.01253906 1.1841953,8.203125e-4 1.6998203,8.203125e-4 c 0.7382813,0 1.4882813,0.0351562475 2.2382813,0.0351562475 0.4101562,0 0.6914062,0 1.0429687,-0.0351562475 z m 0,0"
         style="fill:#000000;fill-opacity:1;fill-rule:nonzero;stroke:none" />
      <path
         id="path125"
         d="m 9.2349766,-0.73160156 c 0,-0.76171874 -0.09375,-1.31250004 -0.4101563,-1.80468754 -0.2226562,-0.3164062 -0.6445312,-0.5976562 -1.2070312,-0.5976562 -1.6171875,0 -1.6171875,1.8984375 -1.6171875,2.40234374 0,0.50390625 0,2.36718746 1.6171875,2.36718746 1.6171875,0 1.6171875,-1.86328121 1.6171875,-2.36718746 z M 7.6177891,1.4363672 c -0.3164063,0 -0.75,-0.1875 -0.890625,-0.76171876 -0.09375,-0.41015625 -0.09375,-0.984375 -0.09375,-1.5 0,-0.50390624 0,-1.03125004 0.1054687,-1.41796874 0.1523438,-0.5507813 0.5976563,-0.6914063 0.8789063,-0.6914063 0.375,0 0.7382812,0.2226563 0.8671875,0.6328125 0.1054687,0.375 0.1171875,0.8789063 0.1171875,1.47656254 0,0.515625 0,1.04296875 -0.09375,1.4765625 C 8.3677891,1.2840234 7.8990391,1.4363672 7.6177891,1.4363672 Z m 0,0"
         style="fill:#000000;fill-opacity:1;fill-rule:nonzero;stroke:none" />
    </g>
  </g>
</svg>
