<?xml version="1.0" encoding="UTF-8" standalone="no"?>
<!-- Created with Inkscape (http://www.inkscape.org/) -->

<svg
   width="207.5"
   height="207.66161"
   id="svg2607"
   sodipodi:version="0.32"
   inkscape:version="0.46"
   version="1.0"
   sodipodi:docname="x.svg"
   inkscape:output_extension="org.inkscape.output.svg.inkscape"
   xmlns:inkscape="http://www.inkscape.org/namespaces/inkscape"
   xmlns:sodipodi="http://sodipodi.sourceforge.net/DTD/sodipodi-0.dtd"
   xmlns="http://www.w3.org/2000/svg"
   xmlns:svg="http://www.w3.org/2000/svg"
   xmlns:rdf="http://www.w3.org/1999/02/22-rdf-syntax-ns#"
   xmlns:cc="http://creativecommons.org/ns#"
   xmlns:dc="http://purl.org/dc/elements/1.1/">
  <defs
     id="defs2609" />
  <sodipodi:namedview
     id="base"
     pagecolor="#ffffff"
     bordercolor="#666666"
     borderopacity="1.0"
     inkscape:pageopacity="0.0"
     inkscape:pageshadow="2"
     inkscape:zoom="2"
     inkscape:cx="142.70649"
     inkscape:cy="112.44948"
     inkscape:document-units="mm"
     inkscape:current-layer="layer1"
     width="100mm"
     height="99.999997mm"
     units="mm"
     showgrid="false"
     showguides="true"
     inkscape:guide-bbox="true"
     grid_units="mm"
     inkscape:grid-points="true"
     gridtolerance="10000"
     inkscape:window-width="1124"
     inkscape:window-height="732"
     inkscape:window-x="54"
     inkscape:window-y="9"
     inkscape:showpageshadow="2"
     inkscape:pagecheckerboard="0"
     inkscape:deskcolor="#d1d1d1">
    <inkscape:grid
       id="GridFromPre046Settings"
       type="xygrid"
       originx="1.6010941e-07"
       originy="-16.999868"
       spacingx="1mm"
       spacingy="1mm"
       color="#0000ff"
       empcolor="#0000ff"
       opacity="0.2"
       empopacity="0.4"
       empspacing="5"
       units="mm"
       visible="true"
       enabled="true" />
    <inkscape:page
       x="0"
       y="0"
       width="207.5"
       height="207.66161"
       id="page2"
       margin="0"
       bleed="0" />
  </sodipodi:namedview>
  <metadata
     id="metadata2612">
    <rdf:RDF>
      <cc:Work
         rdf:about="">
        <dc:format>image/svg+xml</dc:format>
        <dc:type
           rdf:resource="http://purl.org/dc/dcmitype/StillImage" />
      </cc:Work>
    </rdf:RDF>
  </metadata>
  <g
     inkscape:label="Layer 1"
     inkscape:groupmode="layer"
     id="layer1"
     transform="matrix(0.63846154,0,0,1,-29.32383,-44.636201)">
    <path
       style="fill:#000000;fill-opacity:1;fill-rule:evenodd;stroke:none;stroke-width:1.06545;stroke-linecap:round;stroke-linejoin:round;stroke-miterlimit:4;stroke-dasharray:none;stroke-opacity:1"
       d="M 261.34375,56.78125 156.6875,127.6875 c 0.055,0.0768 0.0661,0.17959 0.15625,0.21875 0.18906,0.0821 0.40751,0.0734 0.5625,-0.0625 L 261.25,57.5 c 0.21935,-0.1392 0.31922,-0.416675 0.21875,-0.65625 -0.0201,-0.04792 -0.0936,-0.02385 -0.125,-0.0625 z"
       id="path3244"
       transform="translate(45.92889,27.636333)" />
    <path
       style="fill:#000000;fill-opacity:1;fill-rule:evenodd;stroke:none;stroke-width:1.06545;stroke-linecap:round;stroke-linejoin:round;stroke-miterlimit:4;stroke-dasharray:none;stroke-opacity:1"
       d="m 157.15625,127.21875 -98.75,-15.65625 c -0.01399,0.0477 -0.09375,0.0417 -0.09375,0.0937 10e-7,0.2786 0.19095,0.51016 0.46875,0.53125 l 97.75,15.5 c 0.2934,0.0431 0.58186,-0.17535 0.625,-0.46875 z"
       id="path3236"
       transform="translate(45.92889,27.636333)" />
    <path
       style="fill:#a4a4a4;fill-opacity:0.802326;fill-rule:evenodd;stroke:none;stroke-width:1px;stroke-linecap:butt;stroke-linejoin:miter;stroke-opacity:1"
       d="m 304.24139,110.79258 -132.8125,-2.65625 -65.3125,40.34375 96.28125,6.5 z"
       id="path3287" />
    <path
       style="fill:#000000;fill-opacity:1;fill-rule:evenodd;stroke:none;stroke-width:1.06545;stroke-linecap:round;stroke-linejoin:round;stroke-miterlimit:4;stroke-dasharray:none;stroke-opacity:1"
       d="m 157.15625,127.21875 c 0.0431,-0.29341 -0.17535,-0.5506 -0.46875,-0.59375 l -97.75,-15.5 c -0.0518,-0.008 -0.10445,-0.008 -0.15625,0 -0.225915,0.0172 -0.314093,0.22986 -0.375,0.4375 z"
       id="path3806"
       transform="translate(45.92889,27.636333)" />
    <path
       style="fill:#000000;fill-opacity:1;fill-rule:evenodd;stroke:none;stroke-width:1.06545;stroke-linecap:round;stroke-linejoin:round;stroke-miterlimit:4;stroke-dasharray:none;stroke-opacity:1"
       d="m 261.34375,56.78125 c -0.12574,-0.154618 -0.29758,-0.297114 -0.5,-0.25 -0.0681,0.01852 -0.13183,0.05039 -0.1875,0.09375 L 156.8125,126.96875 c -0.18352,0.0938 -0.28772,0.26274 -0.28125,0.46875 0.003,0.10776 0.0959,0.16577 0.15625,0.25 z"
       id="path3784"
       transform="translate(45.92889,27.636333)" />
    <path
       style="fill:#00ac51;fill-opacity:0.802326;fill-rule:evenodd;stroke:none;stroke-width:1px;stroke-linecap:butt;stroke-linejoin:miter;stroke-opacity:1"
       d="m 182.52264,200.82383 50.3125,-117.843747 -64.40625,-29.84375 -52,121.499997 z"
       id="path3275" />
    <path
       style="fill:#a4a4a4;fill-opacity:0.802326;fill-rule:evenodd;stroke:none;stroke-width:1px;stroke-linecap:butt;stroke-linejoin:miter;stroke-opacity:1"
       d="m 202.39764,154.98008 -96.28125,-6.5 -60.1875,37.15625 57.4375,12.28125 z"
       id="path3291" />
    <path
       style="fill:#000000;fill-opacity:1;fill-rule:evenodd;stroke:none;stroke-width:1.02159;stroke-linecap:round;stroke-linejoin:round;stroke-miterlimit:4;stroke-dasharray:none;stroke-opacity:1"
       d="m 157.03125,127.78125 v -110.75 c -0.0238,-9.08e-4 -0.0385,-0.03371 -0.0625,-0.03125 -0.27361,0.02236 -0.48063,0.256981 -0.46875,0.53125 v 109.75 c 0,0.28477 0.24648,0.5 0.53125,0.5 z"
       id="path3250"
       transform="translate(45.92889,27.636333)" />
    <path
       style="fill:#000000;fill-opacity:1;fill-rule:evenodd;stroke:none;stroke-width:1.02159;stroke-linecap:round;stroke-linejoin:round;stroke-miterlimit:4;stroke-dasharray:none;stroke-opacity:1"
       d="m 157.03125,126.8125 c -0.0439,-0.002 -0.0813,-0.0413 -0.125,-0.0312 -0.23669,0.0495 -0.40624,0.25819 -0.40625,0.5 V 219.5 c 0,0.28477 0.24648,0.5 0.53125,0.5 z"
       id="path3766"
       transform="translate(45.92889,27.636333)" />
    <rect
       style="fill:#fdff23;fill-opacity:0.802326;stroke:none;stroke-width:1.29192;stroke-linecap:round;stroke-linejoin:miter;stroke-miterlimit:4;stroke-dasharray:none;stroke-dashoffset:0;stroke-opacity:1"
       id="rect2421"
       width="140.14482"
       height="153.81146"
       x="172.43365"
       y="151.67435"
       transform="matrix(0.9400316,-0.3410873,0,1,0,0)" />
    <path
       style="fill:#a4a4a4;fill-opacity:0.802326;fill-rule:evenodd;stroke:none;stroke-width:1px;stroke-linecap:butt;stroke-linejoin:miter;stroke-opacity:1"
       d="m 304.24139,110.79258 -101.84375,44.1875 120.5625,8.125 47.96875,-50.96875 z"
       id="path3282" />
    <path
       style="fill:#000000;fill-opacity:1;fill-rule:evenodd;stroke:none;stroke-width:1.02159;stroke-linecap:round;stroke-linejoin:round;stroke-miterlimit:4;stroke-dasharray:none;stroke-opacity:1"
       d="M 157.03125,126.8125 V 220 c 0.28478,0 0.5,-0.21523 0.5,-0.5 v -92.21875 c 6.3e-4,-0.15591 -0.0658,-0.30885 -0.1875,-0.40625 -0.0867,-0.0694 -0.20384,-0.0587 -0.3125,-0.0625 z"
       id="path2625"
       transform="translate(45.92889,27.636333)" />
    <path
       style="fill:#000000;fill-opacity:1;fill-rule:evenodd;stroke:none;stroke-width:1.02159;stroke-linecap:round;stroke-linejoin:round;stroke-miterlimit:4;stroke-dasharray:none;stroke-opacity:1"
       d="m 157.03125,127.78125 c 0.28478,0 0.5,-0.21523 0.5,-0.5 v -109.75 c 0.007,-0.148438 -0.0482,-0.304225 -0.15625,-0.40625 -0.0905,-0.08548 -0.22095,-0.08906 -0.34375,-0.09375 z"
       id="path3757"
       transform="translate(45.92889,27.636333)" />
    <path
       style="fill:#00ac51;fill-opacity:0.802326;fill-rule:evenodd;stroke:none;stroke-width:1px;stroke-linecap:butt;stroke-linejoin:miter;stroke-opacity:1"
       d="m 182.52264,200.82383 73.90625,29.3125 48,-114 -71.59375,-33.156247 z"
       id="path3280" />
    <path
       style="fill:none;fill-rule:evenodd;stroke:#0000ff;stroke-width:4.0748;stroke-linecap:round;stroke-linejoin:round;stroke-miterlimit:4;stroke-dasharray:none;stroke-opacity:1;marker-start:none;marker-mid:none;marker-end:none"
       d="M 244.60716,55.30398 161.32196,250.2604"
       id="path3465"
       sodipodi:nodetypes="cc" />
    <path
       style="fill:#000000;fill-opacity:1;fill-rule:evenodd;stroke:none;stroke-width:1.06545;stroke-linecap:round;stroke-linejoin:round;stroke-miterlimit:4;stroke-dasharray:none;stroke-opacity:1"
       d="m 70.5,186.0625 c 0.05505,0.0768 0.06609,0.17959 0.15625,0.21875 0.189048,0.0821 0.40751,0.0734 0.5625,-0.0625 l 86.1875,-58.375 c 0.21935,-0.1392 0.31922,-0.41668 0.21875,-0.65625 -0.0201,-0.0479 -0.0936,-0.0238 -0.125,-0.0625 z"
       id="path3775"
       transform="translate(45.92889,27.636333)" />
    <path
       style="fill:#000000;fill-opacity:1;fill-rule:evenodd;stroke:none;stroke-width:1.06545;stroke-linecap:round;stroke-linejoin:round;stroke-miterlimit:4;stroke-dasharray:none;stroke-opacity:1"
       d="M 273.0625,145.625 156.125,127.0625 c -0.0101,0.0409 -0.0625,0.0499 -0.0625,0.0937 0,0.2786 0.19095,0.51016 0.46875,0.53125 l 115.9375,18.40625 c 0.2934,0.0518 0.57322,-0.1441 0.625,-0.4375 0.003,-0.0167 -0.0326,-0.0146 -0.0312,-0.0312 z"
       id="path3788"
       transform="translate(45.92889,27.636333)" />
    <path
       style="fill:#a4a4a4;fill-opacity:0.802326;fill-rule:evenodd;stroke:none;stroke-width:1px;stroke-linecap:butt;stroke-linejoin:miter;stroke-opacity:1"
       d="m 202.39764,154.98008 -99.03125,42.9375 155.5625,33.21875 64.03125,-68.03125 z"
       id="path3289" />
    <path
       style="fill:#000000;fill-opacity:1;fill-rule:evenodd;stroke:none;stroke-width:1.06545;stroke-linecap:round;stroke-linejoin:round;stroke-miterlimit:4;stroke-dasharray:none;stroke-opacity:1"
       d="m 273.0625,145.625 c 0.0226,-0.27454 -0.12959,-0.54492 -0.40625,-0.59375 L 156.6875,126.625 c -0.0518,-0.008 -0.10445,-0.008 -0.15625,0 -0.23402,0.0178 -0.35243,0.21871 -0.40625,0.4375 z"
       id="path3797"
       transform="translate(45.92889,27.636333)" />
    <path
       style="fill:#000000;fill-opacity:1;fill-rule:evenodd;stroke:none;stroke-width:1.06545;stroke-linecap:round;stroke-linejoin:round;stroke-miterlimit:4;stroke-dasharray:none;stroke-opacity:1"
       d="m 70.5,186.0625 87,-58.9375 c -0.12574,-0.15462 -0.29758,-0.29711 -0.5,-0.25 -0.0681,0.0185 -0.13183,0.0504 -0.1875,0.0937 l -86.1875,58.375 c -0.183524,0.0938 -0.28772,0.26274 -0.28125,0.46875 0.0034,0.10776 0.09588,0.16577 0.15625,0.25 z"
       id="path3372"
       transform="translate(45.92889,27.636333)" />
  </g>
</svg>
