<!-- Created with Inkscape (http://www.inkscape.org/) -->
<svg xmlns:rdf="http://www.w3.org/1999/02/22-rdf-syntax-ns#" xmlns="http://www.w3.org/2000/svg" height="598" width="364" xmlns:cc="http://creativecommons.org/ns#" xmlns:dc="http://purl.org/dc/elements/1.1/">
 <defs></defs>
 <metadata>
  <rdf:RDF>
   <cc:Work rdf:about="">
    <dc:format>image/svg+xml</dc:format>
    <dc:type rdf:resource="http://purl.org/dc/dcmitype/StillImage"/>
    <dc:title/>
   </cc:Work>
  </rdf:RDF>
 </metadata>
 <g transform="translate(-171.7857,-195.33789)">
  <g transform="matrix(0.90784408,0,0,0.90784408,12.267122,77.030023)">
   <path d="m492.9,144.7,0,635.6,4.5,0,0-635.6-4.5,0z" style="baseline-shift:baseline;block-progression:tb;color:#000000;direction:ltr;text-indent:0;text-align:start;enable-background:accumulate;text-transform:none;" fill="#000"/>
   <path stroke-linejoin="round" d="m475.2,192.8,19.89-54.08,19.89,54.08c-11.74-8.64-27.81-8.59-39.78,0z" fill-rule="evenodd" stroke-width="0.625"/>
   <path stroke-linejoin="round" style="marker-start:none;" d="m262.9,534.5c0,139.3-50.21,252.1-112.1,252.1-61.93,0-112.1-112.9-112.1-252.1,0-139.3,50.21-252.1,112.1-252.1,61.93,0,112.1,112.9,112.1,252.1z" fill-rule="evenodd" fill-opacity="0.3519554" transform="translate(150,-35.714285)" stroke-dashoffset="0" stroke="#0c9aff" stroke-linecap="round" stroke-miterlimit="4" stroke-dasharray="none" stroke-width="5" fill="#00e0e0"/>
   <path stroke-linejoin="round" d="m230,550.2c0,94.28-28.78,170.7-64.29,170.7-35.5,0-64.29-76.43-64.29-170.7,0-94.28,28.78-170.7,64.29-170.7,35.5,0,64.29,76.43,64.29,170.7z" fill-rule="evenodd" fill-opacity="0.5977654" transform="translate(152.85714,-11.428571)" stroke-dashoffset="0" stroke="#0c9aff" stroke-linecap="round" stroke-miterlimit="4" stroke-dasharray="none" stroke-width="5" fill="#00e0e0"/>
   <path stroke-linejoin="round" d="m198.6,563.8c0,52.86-15.99,95.71-35.71,95.71s-35.71-42.85-35.71-95.71,15.99-95.71,35.71-95.71,35.71,42.85,35.71,95.71z" fill-rule="evenodd" transform="translate(157.14286,-11.428571)" stroke-dashoffset="0" stroke="#0c9aff" stroke-linecap="round" stroke-miterlimit="4" stroke-dasharray="none" stroke-width="5" fill="#00cde0"/>
   <text style="writing-mode:lr-tb;text-anchor:start;text-align:start;" font-weight="normal" font-size="72px" font-style="oblique" font-stretch="normal" font-variant="normal" y="182.81033" x="514.65857" font-family="Bitstream Vera Sans" xml:space="preserve" fill="#000000"><tspan y="182.81033" x="514.65857">∞</tspan></text>
   <text style="writing-mode:lr-tb;text-anchor:start;text-align:start;" font-weight="normal" font-size="56px" font-style="oblique" font-stretch="normal" font-variant="normal" y="695.25177" x="521.47321" font-family="Bitstream Vera Sans" xml:space="preserve" fill="#000000"><tspan y="695.25177" x="521.47321">0</tspan></text>
   <path d="m494.3,685.2c0,7.101-5.756,12.86-12.86,12.86-7.101,0-12.86-5.756-12.86-12.86,0-7.101,5.756-12.86,12.86-12.86,7.101,0,12.86,5.756,12.86,12.86z" fill-rule="evenodd" transform="matrix(0.6599267,0,0,0.6599267,178.09341,230.08106)" fill="#000"/>
   <path d="M408.3,484c-28.3-0.4-57.1,7.7-86.7,27.2l1.094,1.656c58.5-38.8,113.7-31.9,168.3-3.9l0.9062-1.781c-27.53-14.1-55.34-22.88-83.66-23.25z" style="baseline-shift:baseline;block-progression:tb;color:#000000;direction:ltr;text-indent:0;text-align:start;enable-background:accumulate;text-transform:none;" fill="#000"/>
   <path style="marker-start:none;marker-end:none;" d="m323.8,511c0.6102,0.92,0.3588,2.162-0.5613,2.772-0.92,0.6102-2.162,0.3588-2.772-0.5613-0.6102-0.92-0.3588-2.162,0.5613-2.772,0.92-0.6102,2.162-0.3588,2.772,0.5613z" fill-rule="evenodd" stroke="#000" stroke-width="0.2pt"/>
   <path stroke-linejoin="round" d="m476.5,490.5,17.36,18.83-25.42-3.094c5.797-2.893,9.033-9.258,8.061-15.73z" fill-rule="evenodd" stroke-width="0.625"/>
   <path d="m392.2,392.6c-26.82-0.3246-53.86,6.299-79.75,23.47l1.125,1.688c58.4-38.74,122.6-23.22,177.3,4.812l0.9062-1.781c-30.95-15.86-65.08-27.77-99.56-28.19z" style="baseline-shift:baseline;block-progression:tb;color:#000000;direction:ltr;text-indent:0;text-align:start;enable-background:accumulate;text-transform:none;" fill="#000"/>
   <path style="marker-start:none;marker-end:none;" d="m314.6,415.8c0.6102,0.92,0.3588,2.162-0.5613,2.772-0.92,0.6102-2.162,0.3588-2.772-0.5613-0.6102-0.92-0.3588-2.162,0.5613-2.772,0.92-0.6102,2.162-0.3588,2.772,0.5613z" fill-rule="evenodd" stroke="#000" stroke-width="0.2pt"/>
   <path stroke-linejoin="round" d="m476.3,404,17.36,18.83-25.42-3.094c5.797-2.893,9.033-9.258,8.061-15.73z" fill-rule="evenodd" stroke-width="0.625"/>
   <path d="m394.2,270.1c-26.41,0.9858-53.04,8.782-78.91,25.94l1.094,1.688c58.45-38.77,120.7-29.26,175.4-1.25l0.9375-1.781c-30.97-15.87-64.55-25.86-98.5-24.59z" style="baseline-shift:baseline;block-progression:tb;color:#000000;direction:ltr;text-indent:0;text-align:start;enable-background:accumulate;text-transform:none;" fill="#000"/>
   <path style="marker-start:none;marker-end:none;" d="m317.5,295.8c0.6102,0.92,0.3588,2.162-0.5613,2.772-0.92,0.6102-2.162,0.3588-2.772-0.5613-0.6102-0.92-0.3588-2.162,0.5613-2.772,0.92-0.6102,2.162-0.3588,2.772,0.5613z" fill-rule="evenodd" stroke="#000" stroke-width="0.2pt"/>
   <path stroke-linejoin="round" d="m477.2,278,17.36,18.83-25.42-3.094c5.797-2.893,9.033-9.258,8.061-15.73z" fill-rule="evenodd" stroke-width="0.625"/>
  </g>
 </g>
</svg>
