<?xml version="1.0" encoding="UTF-8" standalone="no"?>
<!-- Created with Inkscape (http://www.inkscape.org/) -->

<svg
   version="1.1"
   id="svg1"
   width="284.16132"
   height="91.773331"
   viewBox="0 0 284.16132 91.773331"
   sodipodi:docname="Draft.pdf"
   xmlns:inkscape="http://www.inkscape.org/namespaces/inkscape"
   xmlns:sodipodi="http://sodipodi.sourceforge.net/DTD/sodipodi-0.dtd"
   xmlns="http://www.w3.org/2000/svg"
   xmlns:svg="http://www.w3.org/2000/svg">
  <defs
     id="defs1" />
  <sodipodi:namedview
     id="namedview1"
     pagecolor="#ffffff"
     bordercolor="#000000"
     borderopacity="0.25"
     inkscape:showpageshadow="2"
     inkscape:pageopacity="0.0"
     inkscape:pagecheckerboard="0"
     inkscape:deskcolor="#d1d1d1">
    <inkscape:page
       x="0"
       y="0"
       inkscape:label="1"
       id="page1"
       width="284.16132"
       height="91.773331"
       margin="0"
       bleed="0" />
  </sodipodi:namedview>
  <g
     id="g1"
     inkscape:groupmode="layer"
     inkscape:label="1">
    <g
       id="g2"
       aria-label="(X⊗1)⊗Y"
       transform="matrix(1.3333333,0,0,1.3333333,5.6986667,15.916)">
      <path
         id="path2"
         d="m 3.2933828,2.3891719 c 0,-0.035156 0,-0.046875 -0.1640625,-0.2226563 -1.2421875,-1.25390622 -1.5703125,-3.12890622 -1.5703125,-4.6640625 0,-1.7226562 0.3867188,-3.4570312 1.6054688,-4.7109375 0.1289062,-0.1171875 0.1289062,-0.1289062 0.1289062,-0.1640625 0,-0.070312 -0.035156,-0.1054687 -0.09375,-0.1054687 -0.1054687,0 -0.9960937,0.6796875 -1.5820312,1.9453125 -0.515625,1.1015625 -0.63281254,2.203125 -0.63281254,3.0351562 0,0.7851563 0.11718754,1.99218753 0.65625004,3.11718753 0.5976562,1.21874997 1.453125,1.87499997 1.5585937,1.87499997 0.058594,0 0.09375,-0.035156 0.09375,-0.1054687 z m 0,0"
         style="fill:#000000;fill-opacity:1;fill-rule:nonzero;stroke:none" />
      <path
         id="path3"
         d="M 8.7015859,-4.0912969 7.8695547,-6.0834844 c -0.035156,-0.070312 -0.046875,-0.1171875 -0.046875,-0.1289062 0,-0.058594 0.1640625,-0.2460938 0.5859375,-0.28125 0.09375,-0.011719 0.1992187,-0.023437 0.1992187,-0.1875 0,-0.1289063 -0.1171875,-0.1289063 -0.1523437,-0.1289063 -0.4101563,0 -0.8320313,0.035156 -1.2539063,0.035156 -0.2460937,0 -0.8671875,-0.035156 -1.1132812,-0.035156 -0.058594,0 -0.1875,0 -0.1875,0.1992188 0,0.1171875 0.1054687,0.1171875 0.234375,0.1171875 0.5976562,0 0.65625,0.09375 0.75,0.3164062 l 1.171875,2.7773438 -2.0976563,2.2617187 -0.1289062,0.1054688 c -0.4921875,0.52734373 -0.9609375,0.69140623 -1.4648438,0.72656248 -0.1289062,0 -0.2226562,0 -0.2226562,0.19921875 0,0 0,0.10546875 0.1289062,0.10546875 0.3046875,0 0.6328125,-0.03515625 0.9375,-0.03515625 0.3632813,0 0.7617188,0.03515625 1.1132813,0.03515625 0.058594,0 0.1757812,0 0.1757812,-0.19921875 0,-0.10546875 -0.09375,-0.10546875 -0.1171875,-0.10546875 -0.082031,-0.0117188 -0.3984375,-0.0351563 -0.3984375,-0.31640625 0,-0.15234375 0.1523438,-0.31640625 0.2695313,-0.44531253 l 1.0195312,-1.078125 0.890625,-0.9726562 1.0078125,2.37890623 c 0.046875,0.10546875 0.046875,0.1171875 0.046875,0.140625 0,0.0820313 -0.1875,0.24609375 -0.5742187,0.29296875 -0.1054688,0 -0.1992188,0.0117188 -0.1992188,0.1875 0,0.1171875 0.1171875,0.1171875 0.1523438,0.1171875 0.28125,0 0.9726562,-0.03515625 1.2539062,-0.03515625 0.2460936,0 0.8554686,0.03515625 1.1015626,0.03515625 0.07031,0 0.199219,0 0.199219,-0.1875 0,-0.1171875 -0.105469,-0.1171875 -0.1875,-0.1171875 -0.667969,-0.0117188 -0.679688,-0.046875 -0.855469,-0.4453125 C 9.7211172,-1.6772344 9.0531484,-3.2241094 8.8187734,-3.8217656 c 0.6796875,-0.703125 1.7343746,-1.8867188 2.0507816,-2.1679688 0.28125,-0.234375 0.667968,-0.4804687 1.265625,-0.5039062 0.128906,-0.011719 0.210937,-0.011719 0.210937,-0.1992188 0,-0.011719 0,-0.1171875 -0.128906,-0.1171875 -0.292969,0 -0.621094,0.035156 -0.9375,0.035156 -0.363281,0 -0.738281,-0.035156 -1.101563,-0.035156 -0.05859,0 -0.1874996,0 -0.1874996,0.1992188 0,0.070312 0.046875,0.1054687 0.1171876,0.1171875 0.09375,0.011719 0.398437,0.023437 0.398437,0.3046875 0,0.140625 -0.105468,0.2695312 -0.1875,0.3632812 z m 0,0"
         style="fill:#000000;fill-opacity:1;fill-rule:nonzero;stroke:none" />
      <path
         id="path4"
         d="m 22.318773,-2.4975469 c 0,-1.828125 -1.5,-3.3164062 -3.316406,-3.3164062 -1.851562,0 -3.328125,1.5117187 -3.328125,3.3164062 0,1.83984378 1.488281,3.32812503 3.316406,3.32812503 1.851563,0 3.328125,-1.51171875 3.328125,-3.32812503 z m -5.296875,-2.1328125 c -0.02344,-0.023437 -0.09375,-0.09375 -0.09375,-0.1171875 0,-0.035156 0.808594,-0.8085937 2.0625,-0.8085937 0.351563,0 1.265625,0.046875 2.074219,0.8085937 l -2.0625,2.0859375 z M 16.72893,-0.41160937 C 16.119555,-1.0912969 15.920336,-1.8530156 15.920336,-2.4975469 c 0,-0.7617187 0.292969,-1.4882812 0.808594,-2.0742187 l 2.085937,2.0742187 z m 4.523437,-4.16015623 c 0.480469,0.5039062 0.808594,1.265625 0.808594,2.0742187 0,0.7734375 -0.28125,1.50000003 -0.796875,2.08593753 L 19.178148,-2.4975469 Z m -0.28125,4.21874998 c 0.02344,0.0234375 0.09375,0.09375 0.09375,0.1171875 0,0.0351563 -0.808594,0.80859375 -2.0625,0.80859375 -0.351562,0 -1.265625,-0.046875 -2.085937,-0.80859375 l 2.074218,-2.08593748 z m 0,0"
         style="fill:#000000;fill-opacity:1;fill-rule:nonzero;stroke:none" />
      <path
         id="path5"
         d="m 25.638109,-5.6850469 v 0.3164063 c 0.515625,-0.011719 1.042969,-0.1171875 1.488282,-0.375 v 4.83984373 c 0,0.15234375 0.02344,0.328125 -0.08203,0.4453125 -0.07031,0.09375 -0.199218,0.10546875 -0.316406,0.1171875 -0.234375,0.0234375 -0.46875,0.0234375 -0.703125,0.0234375 v 0.3046875 h 4.207031 v -0.3046875 c -0.246093,0 -0.46875,0 -0.714843,-0.0234375 -0.105469,-0.0117188 -0.234375,-0.0234375 -0.316407,-0.1171875 -0.09375,-0.1171875 -0.08203,-0.26953125 -0.08203,-0.41015625 V -6.2358281 c 0,-0.082031 0,-0.1640625 0,-0.2460938 0,-0.046875 0,-0.09375 -0.03516,-0.1289062 -0.04687,-0.058594 -0.175781,-0.035156 -0.246094,-0.035156 h -0.914062 c -0.03516,0 -0.08203,-0.011719 -0.128907,0.011719 -0.03516,0.023437 -0.05859,0.058594 -0.08203,0.09375 -0.04687,0.046875 -0.08203,0.09375 -0.128906,0.1289062 -0.140625,0.140625 -0.292969,0.2578125 -0.46875,0.3515625 -0.445313,0.2578125 -0.960938,0.375 -1.476563,0.3749995 z m 3.175782,-0.65625 v 6.02343753 H 28.017016 V -6.3412969 Z m 0,0"
         style="fill:#000000;fill-opacity:1;fill-rule:nonzero;stroke:none" />
      <path
         id="path6"
         d="m 34.058031,-2.4975469 c 0,-0.7734375 -0.117187,-1.9804687 -0.65625,-3.1054687 -0.597656,-1.21875 -1.464843,-1.875 -1.558593,-1.875 -0.05859,0 -0.105469,0.046875 -0.105469,0.1054687 0,0.035156 0,0.046875 0.199219,0.234375 0.972656,0.984375 1.535156,2.5664063 1.535156,4.640625 0,1.71093753 -0.363281,3.45703128 -1.59375,4.7226563 -0.140625,0.1171875 -0.140625,0.1289062 -0.140625,0.1640625 0,0.058594 0.04687,0.1054687 0.105469,0.1054687 0.09375,0 0.996093,-0.6796875 1.582031,-1.94531247 0.503906,-1.1015625 0.632812,-2.20312503 0.632812,-3.04687503 z m 0,0"
         style="fill:#000000;fill-opacity:1;fill-rule:nonzero;stroke:none" />
      <path
         id="path7"
         d="m 44.458422,-2.4975469 c 0,-1.828125 -1.5,-3.3164062 -3.316406,-3.3164062 -1.851563,0 -3.328125,1.5117187 -3.328125,3.3164062 0,1.83984378 1.488281,3.32812503 3.316406,3.32812503 1.851562,0 3.328125,-1.51171875 3.328125,-3.32812503 z m -5.296875,-2.1328125 c -0.02344,-0.023437 -0.09375,-0.09375 -0.09375,-0.1171875 0,-0.035156 0.808594,-0.8085937 2.0625,-0.8085937 0.351562,0 1.265625,0.046875 2.074219,0.8085937 l -2.0625,2.0859375 z m -0.292969,4.21875003 C 38.259203,-1.0912969 38.059984,-1.8530156 38.059984,-2.4975469 c 0,-0.7617187 0.292969,-1.4882812 0.808594,-2.0742187 l 2.085938,2.0742187 z m 4.523438,-4.16015623 c 0.480468,0.5039062 0.808593,1.265625 0.808593,2.0742187 0,0.7734375 -0.28125,1.50000003 -0.796875,2.08593753 L 41.317797,-2.4975469 Z m -0.28125,4.21874998 c 0.02344,0.0234375 0.09375,0.09375 0.09375,0.1171875 0,0.0351563 -0.808594,0.80859375 -2.0625,0.80859375 -0.351563,0 -1.265625,-0.046875 -2.085938,-0.80859375 l 2.074219,-2.08593748 z m 0,0"
         style="fill:#000000;fill-opacity:1;fill-rule:nonzero;stroke:none" />
      <path
         id="path8"
         d="m 53.165453,-5.6733281 0.140625,-0.140625 c 0.304688,-0.2929688 0.632813,-0.6328125 1.3125,-0.6796875 0.105469,-0.011719 0.199219,-0.011719 0.199219,-0.1875 0,-0.082031 -0.05859,-0.1289063 -0.128906,-0.1289063 -0.257813,0 -0.550782,0.035156 -0.820313,0.035156 -0.328125,0 -0.679687,-0.035156 -0.996094,-0.035156 -0.05859,0 -0.1875,0 -0.1875,0.1992188 0,0.1054687 0.09375,0.1171875 0.152344,0.1171875 0.07031,0 0.351563,0.011719 0.351563,0.2226562 0,0.1757813 -0.222657,0.4335938 -0.269532,0.4804688 l -2.308593,2.6601562 -1.089844,-2.953125 c -0.07031,-0.140625 -0.07031,-0.1640625 -0.07031,-0.1757812 0,-0.234375 0.492188,-0.234375 0.597657,-0.234375 0.128906,0 0.234375,0 0.234375,-0.1992188 0,-0.1171875 -0.117188,-0.1171875 -0.152344,-0.1171875 -0.28125,0 -0.972656,0.035156 -1.253906,0.035156 -0.246094,0 -0.867188,-0.035156 -1.113282,-0.035156 -0.05859,0 -0.1875,0 -0.1875,0.1992188 0,0.1171875 0.09375,0.1171875 0.222657,0.1171875 0.597656,0 0.644531,0.082031 0.726562,0.3398437 l 1.230469,3.2695313 c 0.01172,0.035156 0.03516,0.140625 0.03516,0.1757812 0,0.023437 -0.398437,1.6289063 -0.445312,1.80468753 -0.128907,0.55078125 -0.140625,0.5859375 -0.9375,0.59765625 -0.1875,0 -0.269532,0 -0.269532,0.19921875 0,0.10546875 0.117188,0.10546875 0.140625,0.10546875 0.28125,0 0.972657,-0.03515625 1.253907,-0.03515625 0.28125,0 0.996093,0.03515625 1.277343,0.03515625 0.07031,0 0.1875,0 0.1875,-0.19921875 0,-0.10546875 -0.08203,-0.10546875 -0.28125,-0.10546875 -0.01172,0 -0.199218,0 -0.375,-0.0234375 -0.210937,-0.0234375 -0.269531,-0.0351563 -0.269531,-0.1640625 0,-0.0703125 0.09375,-0.41015625 0.140625,-0.62109378 l 0.351563,-1.40625 c 0.04687,-0.1875 0.05859,-0.2226562 0.140625,-0.3046875 z m 0,0"
         style="fill:#000000;fill-opacity:1;fill-rule:nonzero;stroke:none" />
    </g>
    <g
       id="g8"
       aria-label="X⊗(1⊗Y)"
       transform="matrix(1.3333333,0,0,1.3333333,204.83067,15.916)">
      <path
         id="path9"
         d="M 4.8291484,-4.0912969 3.9971172,-6.0834844 c -0.035156,-0.070312 -0.046875,-0.1171875 -0.046875,-0.1289062 0,-0.058594 0.1640625,-0.2460938 0.5859375,-0.28125 0.09375,-0.011719 0.1992187,-0.023437 0.1992187,-0.1875 0,-0.1289063 -0.1171875,-0.1289063 -0.1523437,-0.1289063 -0.4101563,0 -0.8320313,0.035156 -1.2539063,0.035156 -0.2460937,0 -0.8671875,-0.035156 -1.1132812,-0.035156 -0.058594,0 -0.1875,0 -0.1875,0.1992188 0,0.1171875 0.1054687,0.1171875 0.234375,0.1171875 0.5976562,0 0.65625,0.09375 0.75,0.3164062 l 1.171875,2.7773438 -2.0976563,2.2617187 -0.1289062,0.1054688 c -0.4921875,0.52734373 -0.96093751,0.69140623 -1.46484376,0.72656248 -0.12890625,0 -0.22265625,0 -0.22265625,0.19921875 0,0 0,0.10546875 0.12890625,0.10546875 0.3046875,0 0.63281246,-0.03515625 0.93749996,-0.03515625 0.3632813,0 0.7617188,0.03515625 1.1132813,0.03515625 0.058594,0 0.1757812,0 0.1757812,-0.19921875 0,-0.10546875 -0.09375,-0.10546875 -0.1171875,-0.10546875 -0.082031,-0.0117188 -0.3984375,-0.0351563 -0.3984375,-0.31640625 0,-0.15234375 0.1523438,-0.31640625 0.2695313,-0.44531253 l 1.0195312,-1.078125 0.890625,-0.9726562 1.0078125,2.37890623 c 0.046875,0.10546875 0.046875,0.1171875 0.046875,0.140625 0,0.0820313 -0.1875,0.24609375 -0.5742187,0.29296875 -0.1054688,0 -0.1992188,0.0117188 -0.1992188,0.1875 0,0.1171875 0.1171875,0.1171875 0.1523438,0.1171875 0.28125,0 0.9726562,-0.03515625 1.2539062,-0.03515625 0.2460938,0 0.8554688,0.03515625 1.1015625,0.03515625 0.070312,0 0.1992188,0 0.1992188,-0.1875 0,-0.1171875 -0.1054688,-0.1171875 -0.1875,-0.1171875 -0.6679688,-0.0117188 -0.6796875,-0.046875 -0.8554688,-0.4453125 C 5.8486797,-1.6772344 5.1807109,-3.2241094 4.9463359,-3.8217656 c 0.6796875,-0.703125 1.734375,-1.8867188 2.0507813,-2.1679688 0.28125,-0.234375 0.6679687,-0.4804687 1.265625,-0.5039062 0.1289062,-0.011719 0.2109375,-0.011719 0.2109375,-0.1992188 0,-0.011719 0,-0.1171875 -0.1289063,-0.1171875 -0.2929687,0 -0.6210937,0.035156 -0.9375,0.035156 -0.3632812,0 -0.7382812,-0.035156 -1.1015625,-0.035156 -0.058594,0 -0.1875,0 -0.1875,0.1992188 0,0.070312 0.046875,0.1054687 0.1171875,0.1171875 0.09375,0.011719 0.3984375,0.023437 0.3984375,0.3046875 0,0.140625 -0.1054687,0.2695312 -0.1875,0.3632812 z m 0,0"
         style="fill:#000000;fill-opacity:1;fill-rule:nonzero;stroke:none" />
      <path
         id="path10"
         d="m 18.446336,-2.4975469 c 0,-1.828125 -1.5,-3.3164062 -3.316406,-3.3164062 -1.851563,0 -3.328125,1.5117187 -3.328125,3.3164062 0,1.83984378 1.488281,3.32812503 3.316406,3.32812503 1.851562,0 3.328125,-1.51171875 3.328125,-3.32812503 z m -5.296875,-2.1328125 c -0.02344,-0.023437 -0.09375,-0.09375 -0.09375,-0.1171875 0,-0.035156 0.808594,-0.8085937 2.0625,-0.8085937 0.351562,0 1.265625,0.046875 2.074219,0.8085937 l -2.0625,2.0859375 z m -0.292969,4.21875003 C 12.247117,-1.0912969 12.047898,-1.8530156 12.047898,-2.4975469 c 0,-0.7617187 0.292969,-1.4882812 0.808594,-2.0742187 l 2.085938,2.0742187 z M 17.37993,-4.5717656 c 0.480468,0.5039062 0.808593,1.265625 0.808593,2.0742187 0,0.7734375 -0.28125,1.50000003 -0.796875,2.08593753 L 15.305711,-2.4975469 Z m -0.28125,4.21874998 c 0.02344,0.0234375 0.09375,0.09375 0.09375,0.1171875 0,0.0351563 -0.808594,0.80859375 -2.0625,0.80859375 -0.351563,0 -1.265625,-0.046875 -2.085938,-0.80859375 l 2.074219,-2.08593748 z m 0,0"
         style="fill:#000000;fill-opacity:1;fill-rule:nonzero;stroke:none" />
      <path
         id="path11"
         d="m 24.50493,2.3891719 c 0,-0.035156 0,-0.046875 -0.164063,-0.2226563 -1.242187,-1.25390622 -1.570312,-3.12890622 -1.570312,-4.6640625 0,-1.7226562 0.386718,-3.4570312 1.605468,-4.7109375 0.128907,-0.1171875 0.128907,-0.1289062 0.128907,-0.1640625 0,-0.070312 -0.03516,-0.1054687 -0.09375,-0.1054687 -0.105469,0 -0.996094,0.6796875 -1.582032,1.9453125 -0.515625,1.1015625 -0.632812,2.203125 -0.632812,3.0351562 0,0.7851563 0.117187,1.99218753 0.65625,3.11718753 0.597656,1.21874997 1.453125,1.87499997 1.558594,1.87499997 0.05859,0 0.09375,-0.035156 0.09375,-0.1054687 z m 0,0"
         style="fill:#000000;fill-opacity:1;fill-rule:nonzero;stroke:none" />
      <path
         id="path12"
         d="m 25.638719,-5.6850469 v 0.3164063 c 0.515625,-0.011719 1.042969,-0.1171875 1.488281,-0.375 v 4.83984373 c 0,0.15234375 0.02344,0.328125 -0.08203,0.4453125 -0.07031,0.09375 -0.199219,0.10546875 -0.316406,0.1171875 -0.234375,0.0234375 -0.46875,0.0234375 -0.703125,0.0234375 v 0.3046875 h 4.207031 v -0.3046875 c -0.246094,0 -0.46875,0 -0.714844,-0.0234375 -0.105469,-0.0117188 -0.234375,-0.0234375 -0.316406,-0.1171875 -0.09375,-0.1171875 -0.08203,-0.26953125 -0.08203,-0.41015625 V -6.2358281 c 0,-0.082031 0,-0.1640625 0,-0.2460938 0,-0.046875 0,-0.09375 -0.03516,-0.1289062 -0.04687,-0.058594 -0.175781,-0.035156 -0.246093,-0.035156 h -0.914063 c -0.03516,0 -0.08203,-0.011719 -0.128906,0.011719 -0.03516,0.023437 -0.05859,0.058594 -0.08203,0.09375 -0.04687,0.046875 -0.08203,0.09375 -0.128907,0.1289062 -0.140625,0.140625 -0.292968,0.2578125 -0.46875,0.3515625 -0.445312,0.2578125 -0.960937,0.375 -1.476562,0.3749995 z m 3.175781,-0.65625 v 6.02343753 H 28.017625 V -6.3412969 Z m 0,0"
         style="fill:#000000;fill-opacity:1;fill-rule:nonzero;stroke:none" />
      <path
         id="path13"
         d="m 40.583055,-2.4975469 c 0,-1.828125 -1.5,-3.3164062 -3.316407,-3.3164062 -1.851562,0 -3.328125,1.5117187 -3.328125,3.3164062 0,1.83984378 1.488282,3.32812503 3.316407,3.32812503 1.851562,0 3.328125,-1.51171875 3.328125,-3.32812503 z M 35.28618,-4.6303594 c -0.02344,-0.023437 -0.09375,-0.09375 -0.09375,-0.1171875 0,-0.035156 0.808593,-0.8085937 2.0625,-0.8085937 0.351562,0 1.265625,0.046875 2.074218,0.8085937 l -2.0625,2.0859375 z m -0.292969,4.21875003 C 34.383836,-1.0912969 34.184617,-1.8530156 34.184617,-2.4975469 c 0,-0.7617187 0.292969,-1.4882812 0.808594,-2.0742187 l 2.085937,2.0742187 z m 4.523437,-4.16015623 c 0.480469,0.5039062 0.808594,1.265625 0.808594,2.0742187 0,0.7734375 -0.28125,1.50000003 -0.796875,2.08593753 L 37.44243,-2.4975469 Z m -0.28125,4.21874998 c 0.02344,0.0234375 0.09375,0.09375 0.09375,0.1171875 0,0.0351563 -0.808593,0.80859375 -2.0625,0.80859375 -0.351562,0 -1.265625,-0.046875 -2.085937,-0.80859375 L 37.25493,-2.3217656 Z m 0,0"
         style="fill:#000000;fill-opacity:1;fill-rule:nonzero;stroke:none" />
      <path
         id="path14"
         d="m 49.293016,-5.6733281 0.140625,-0.140625 c 0.304687,-0.2929688 0.632812,-0.6328125 1.3125,-0.6796875 0.105468,-0.011719 0.199218,-0.011719 0.199218,-0.1875 0,-0.082031 -0.05859,-0.1289063 -0.128906,-0.1289063 -0.257812,0 -0.550781,0.035156 -0.820312,0.035156 -0.328125,0 -0.679688,-0.035156 -0.996094,-0.035156 -0.05859,0 -0.1875,0 -0.1875,0.1992188 0,0.1054687 0.09375,0.1171875 0.152344,0.1171875 0.07031,0 0.351562,0.011719 0.351562,0.2226562 0,0.1757813 -0.222656,0.4335938 -0.269531,0.4804688 l -2.308594,2.6601562 -1.089844,-2.953125 c -0.07031,-0.140625 -0.07031,-0.1640625 -0.07031,-0.1757812 0,-0.234375 0.492187,-0.234375 0.597656,-0.234375 0.128906,0 0.234375,0 0.234375,-0.1992188 0,-0.1171875 -0.117187,-0.1171875 -0.152344,-0.1171875 -0.28125,0 -0.972656,0.035156 -1.253906,0.035156 -0.246094,0 -0.867187,-0.035156 -1.113281,-0.035156 -0.05859,0 -0.1875,0 -0.1875,0.1992188 0,0.1171875 0.09375,0.1171875 0.222656,0.1171875 0.597656,0 0.644531,0.082031 0.726563,0.3398437 l 1.230468,3.2695313 c 0.01172,0.035156 0.03516,0.140625 0.03516,0.1757812 0,0.023437 -0.398438,1.6289063 -0.445313,1.80468753 -0.128906,0.55078125 -0.140625,0.5859375 -0.9375,0.59765625 -0.1875,0 -0.269531,0 -0.269531,0.19921875 0,0.10546875 0.117187,0.10546875 0.140625,0.10546875 0.28125,0 0.972656,-0.03515625 1.253906,-0.03515625 0.28125,0 0.996094,0.03515625 1.277344,0.03515625 0.07031,0 0.1875,0 0.1875,-0.19921875 0,-0.10546875 -0.08203,-0.10546875 -0.28125,-0.10546875 -0.01172,0 -0.199219,0 -0.375,-0.0234375 -0.210938,-0.0234375 -0.269531,-0.0351563 -0.269531,-0.1640625 0,-0.0703125 0.09375,-0.41015625 0.140625,-0.62109378 l 0.351562,-1.40625 c 0.04687,-0.1875 0.05859,-0.2226562 0.140625,-0.3046875 z m 0,0"
         style="fill:#000000;fill-opacity:1;fill-rule:nonzero;stroke:none" />
      <path
         id="path15"
         d="m 54.232469,-2.4975469 c 0,-0.7734375 -0.117188,-1.9804687 -0.65625,-3.1054687 -0.597656,-1.21875 -1.464844,-1.875 -1.558594,-1.875 -0.05859,0 -0.105469,0.046875 -0.105469,0.1054687 0,0.035156 0,0.046875 0.199219,0.234375 0.972656,0.984375 1.535156,2.5664063 1.535156,4.640625 0,1.71093753 -0.363281,3.45703128 -1.59375,4.7226563 -0.140625,0.1171875 -0.140625,0.1289062 -0.140625,0.1640625 0,0.058594 0.04687,0.1054687 0.105469,0.1054687 0.09375,0 0.996094,-0.6796875 1.582031,-1.94531247 0.503907,-1.1015625 0.632813,-2.20312503 0.632813,-3.04687503 z m 0,0"
         style="fill:#000000;fill-opacity:1;fill-rule:nonzero;stroke:none" />
    </g>
    <g
       id="g15"
       aria-label="X⊗Y"
       transform="matrix(1.3333333,0,0,1.3333333,122.60667,85.822667)">
      <path
         id="path16"
         d="M 4.8272266,-4.0886797 3.9951953,-6.0808672 c -0.035156,-0.070312 -0.046875,-0.1171875 -0.046875,-0.1289062 0,-0.058594 0.1640625,-0.2460938 0.5859375,-0.28125 0.09375,-0.011719 0.1992188,-0.023437 0.1992188,-0.1875 0,-0.1289063 -0.1171875,-0.1289063 -0.1523438,-0.1289063 -0.4101562,0 -0.8320312,0.035156 -1.2539062,0.035156 -0.2460938,0 -0.8671875,-0.035156 -1.1132813,-0.035156 -0.058594,0 -0.1875,0 -0.1875,0.1992188 0,0.1171875 0.1054688,0.1171875 0.234375,0.1171875 0.5976563,0 0.65625,0.09375 0.75,0.3164062 l 1.171875,2.7773438 -2.0976562,2.2617187 -0.1289063,0.1054688 c -0.4921875,0.52734371 -0.96093749,0.69140621 -1.46484374,0.72656246 -0.12890625,0 -0.22265625,0 -0.22265625,0.19921875 0,0 0,0.10546875 0.12890625,0.10546875 0.3046875,0 0.63281254,-0.03515625 0.93750004,-0.03515625 0.3632812,0 0.7617187,0.03515625 1.1132812,0.03515625 0.058594,0 0.1757813,0 0.1757813,-0.19921875 0,-0.10546875 -0.09375,-0.10546875 -0.1171875,-0.10546875 -0.082031,-0.0117188 -0.3984375,-0.0351563 -0.3984375,-0.31640625 0,-0.15234375 0.1523437,-0.31640625 0.2695312,-0.44531251 l 1.0195313,-1.078125 0.890625,-0.9726562 1.0078125,2.37890621 c 0.046875,0.10546875 0.046875,0.1171875 0.046875,0.140625 0,0.0820313 -0.1875,0.24609375 -0.5742188,0.29296875 -0.1054687,0 -0.1992187,0.0117188 -0.1992187,0.1875 0,0.1171875 0.1171875,0.1171875 0.1523437,0.1171875 0.28125,0 0.9726563,-0.03515625 1.2539063,-0.03515625 0.2460937,0 0.8554687,0.03515625 1.1015625,0.03515625 0.070312,0 0.1992187,0 0.1992187,-0.1875 0,-0.1171875 -0.1054687,-0.1171875 -0.1875,-0.1171875 -0.6679687,-0.0117188 -0.6796875,-0.046875 -0.8554687,-0.4453125 C 5.8467578,-1.6746172 5.1787891,-3.2214922 4.9444141,-3.8191484 c 0.6796875,-0.703125 1.734375,-1.8867188 2.0507812,-2.1679688 0.28125,-0.234375 0.6679688,-0.4804687 1.265625,-0.5039062 0.1289063,-0.011719 0.2109375,-0.011719 0.2109375,-0.1992188 0,-0.011719 0,-0.1171875 -0.1289062,-0.1171875 -0.2929688,0 -0.6210938,0.035156 -0.9375,0.035156 -0.3632813,0 -0.7382813,-0.035156 -1.1015625,-0.035156 -0.058594,0 -0.1875,0 -0.1875,0.1992188 0,0.070312 0.046875,0.1054687 0.1171875,0.1171875 0.09375,0.011719 0.3984375,0.023437 0.3984375,0.3046875 0,0.140625 -0.1054688,0.2695312 -0.1875,0.3632812 z m 0,0"
         style="fill:#000000;fill-opacity:1;fill-rule:nonzero;stroke:none" />
      <path
         id="path17"
         d="m 18.444414,-2.4949297 c 0,-1.828125 -1.5,-3.3164062 -3.316406,-3.3164062 -1.851563,0 -3.328125,1.5117187 -3.328125,3.3164062 0,1.83984376 1.488281,3.32812501 3.316406,3.32812501 1.851563,0 3.328125,-1.51171875 3.328125,-3.32812501 z m -5.296875,-2.1328125 c -0.02344,-0.023437 -0.09375,-0.09375 -0.09375,-0.1171875 0,-0.035156 0.808594,-0.8085937 2.0625,-0.8085937 0.351563,0 1.265625,0.046875 2.074219,0.8085937 l -2.0625,2.0859375 z M 12.85457,-0.40899219 C 12.245195,-1.0886797 12.045977,-1.8503984 12.045977,-2.4949297 c 0,-0.7617187 0.292968,-1.4882812 0.808593,-2.0742187 l 2.085938,2.0742187 z m 4.523438,-4.16015621 c 0.480469,0.5039062 0.808594,1.265625 0.808594,2.0742187 0,0.7734375 -0.28125,1.50000001 -0.796875,2.08593751 L 15.303789,-2.4949297 Z m -0.28125,4.21874996 c 0.02344,0.0234375 0.09375,0.09375 0.09375,0.1171875 0,0.0351563 -0.808594,0.80859375 -2.0625,0.80859375 -0.351563,0 -1.265625,-0.046875 -2.085938,-0.80859375 l 2.074219,-2.08593746 z m 0,0"
         style="fill:#000000;fill-opacity:1;fill-rule:nonzero;stroke:none" />
      <path
         id="path18"
         d="M 27.154375,-5.6707109 27.295,-5.8113359 c 0.304688,-0.2929688 0.632813,-0.6328125 1.3125,-0.6796875 0.105469,-0.011719 0.199219,-0.011719 0.199219,-0.1875 0,-0.082031 -0.05859,-0.1289063 -0.128906,-0.1289063 -0.257813,0 -0.550782,0.035156 -0.820313,0.035156 -0.328125,0 -0.679687,-0.035156 -0.996094,-0.035156 -0.05859,0 -0.1875,0 -0.1875,0.1992188 0,0.1054687 0.09375,0.1171875 0.152344,0.1171875 0.07031,0 0.351563,0.011719 0.351563,0.2226562 0,0.1757813 -0.222657,0.4335938 -0.269532,0.4804688 l -2.308593,2.6601562 -1.089844,-2.953125 c -0.07031,-0.140625 -0.07031,-0.1640625 -0.07031,-0.1757812 0,-0.234375 0.492188,-0.234375 0.597657,-0.234375 0.128906,0 0.234375,0 0.234375,-0.1992188 0,-0.1171875 -0.117188,-0.1171875 -0.152344,-0.1171875 -0.28125,0 -0.972656,0.035156 -1.253906,0.035156 -0.246094,0 -0.867188,-0.035156 -1.113282,-0.035156 -0.05859,0 -0.1875,0 -0.1875,0.1992188 0,0.1171875 0.09375,0.1171875 0.222657,0.1171875 0.597656,0 0.644531,0.082031 0.726562,0.3398437 l 1.230469,3.2695313 c 0.01172,0.035156 0.03516,0.140625 0.03516,0.1757812 0,0.023437 -0.398437,1.6289063 -0.445312,1.80468751 -0.128907,0.55078125 -0.140625,0.5859375 -0.9375,0.59765625 -0.1875,0 -0.269532,0 -0.269532,0.19921875 0,0.10546875 0.117188,0.10546875 0.140625,0.10546875 0.28125,0 0.972657,-0.03515625 1.253907,-0.03515625 0.28125,0 0.996093,0.03515625 1.277343,0.03515625 0.07031,0 0.1875,0 0.1875,-0.19921875 0,-0.10546875 -0.08203,-0.10546875 -0.28125,-0.10546875 -0.01172,0 -0.199218,0 -0.375,-0.0234375 -0.210937,-0.0234375 -0.269531,-0.0351563 -0.269531,-0.1640625 0,-0.0703125 0.09375,-0.41015625 0.140625,-0.62109376 l 0.351563,-1.40625 c 0.04687,-0.1875 0.05859,-0.2226562 0.140625,-0.3046875 z m 0,0"
         style="fill:#000000;fill-opacity:1;fill-rule:nonzero;stroke:none" />
    </g>
    <path
       id="path19"
       d="m -42.59044,25.38498 h 84.7824"
       style="fill:none;stroke:#000000;stroke-width:0.39848;stroke-linecap:butt;stroke-linejoin:miter;stroke-miterlimit:10;stroke-dasharray:none;stroke-opacity:1"
       transform="matrix(1.3333333,0,0,-1.3333333,142.08,46.441333)" />
    <path
       id="path20"
       d="M -2.07213,2.39091 C -1.69356,0.95633 -0.84995,0.27893 0,0 -0.84995,-0.27893 -1.69356,-0.95633 -2.07213,-2.39091"
       style="fill:none;stroke:#000000;stroke-width:0.39848;stroke-linecap:round;stroke-linejoin:round;stroke-miterlimit:10;stroke-dasharray:none;stroke-opacity:1"
       transform="matrix(1.3333333,0,0,-1.3333333,198.60159,12.594693)" />
    <g
       id="g20"
       aria-label="α&#10;X,1,Y"
       transform="matrix(1.3333333,0,0,1.3333333,125.71467,6.8533333)">
      <path
         id="path21"
         d="M 3.8087266,-0.98570312 C 4.4532578,-1.6419531 4.7110703,-2.5794531 4.7110703,-2.6497656 c 0,-0.09375 -0.082031,-0.09375 -0.1171875,-0.09375 -0.09375,0 -0.09375,0.023437 -0.140625,0.1757812 -0.1289062,0.4570313 -0.3632812,0.890625 -0.65625,1.265625 0,-0.1054687 -0.023437,-0.5742187 -0.035156,-0.6328125 C 3.656383,-2.6263281 3.140758,-3.0716406 2.437633,-3.0716406 c -1.0195312,0 -2.00390624,0.9492187 -2.00390624,1.921875 0,0.64453123 0.46875,1.21874998 1.27734374,1.21874998 0.6445313,0 1.21875,-0.29296875 1.6054688,-0.59765625 0.1640625,0.515625 0.515625,0.59765625 0.7265625,0.59765625 0.4101562,0 0.65625,-0.33984375 0.65625,-0.4921875 0,-0.0820313 -0.082031,-0.0820313 -0.1171875,-0.0820313 -0.09375,0 -0.1054688,0.0351563 -0.1171875,0.0703125 -0.1054688,0.26953125 -0.3164063,0.3046875 -0.3984375,0.3046875 -0.09375,0 -0.2226563,0 -0.2578127,-0.8554687 z m -0.5390625,0.234375 c -0.6796875,0.5625 -1.2773438,0.62109375 -1.5351563,0.62109375 -0.46875,0 -0.7265625,-0.3046875 -0.7265625,-0.7734375 0,-0.19921873 0.1054688,-0.96093753 0.46875,-1.44140623 0.3164063,-0.421875 0.7148438,-0.5390625 0.9609375,-0.5390625 0.5507813,0 0.7148438,0.5390625 0.7734375,0.9726562 0.035156,0.3046875 0.023437,0.796875 0.058594,1.16015628 z m 0,0"
         style="fill:#000000;fill-opacity:1;fill-rule:nonzero;stroke:none" />
      <path
         id="path22"
         d="m 8.4259141,-0.8978125 1.0664062,-0.9492187 c 0.2929688,-0.2695313 0.5624997,-0.3164063 0.8554687,-0.328125 0.07031,-0.011719 0.105469,-0.09375 0.105469,-0.140625 0,-0.046875 -0.04687,-0.082031 -0.09375,-0.082031 -0.07031,0 -0.175781,0.011719 -0.257813,0.011719 -0.08203,0 -0.1757809,0 -0.2578122,0 -0.1171875,0 -0.2109375,0 -0.3164062,0 -0.09375,0 -0.2109375,-0.011719 -0.3046875,-0.011719 -0.035156,0 -0.1289063,0 -0.1289063,0.140625 0,0.070312 0.058594,0.082031 0.1054688,0.082031 0.070312,0 0.1523437,0.023437 0.1523437,0.09375 0,0.070312 -0.046875,0.1171875 -0.1992187,0.2578125 l -0.8320313,0.75 -0.609375,-1.0195313 c 0.082031,-0.058594 0.1757813,-0.082031 0.2695313,-0.082031 0.023437,0 0.1171875,-0.011719 0.1171875,-0.140625 0,-0.058594 -0.058594,-0.082031 -0.09375,-0.082031 -0.1171875,0 -0.2460938,0.011719 -0.3632813,0.011719 -0.1054687,0 -0.234375,0 -0.3398437,0 -0.1054688,0 -0.2226563,0 -0.328125,0 -0.09375,0 -0.2109375,-0.011719 -0.3046875,-0.011719 -0.09375,0 -0.1289063,0.058594 -0.1289063,0.140625 0,0.082031 0.082031,0.082031 0.1640625,0.082031 0.3398438,0 0.3632813,0.058594 0.4101563,0.1289062 l 0.796875,1.3359375 -1.2070313,1.08984375 c -0.011719,0.0234375 -0.058594,0.046875 -0.070312,0.0585938 -0.2109375,0.1640625 -0.3984375,0.328125 -0.8789062,0.33984375 -0.082031,0 -0.09375,0.12890625 -0.09375,0.140625 0,0.046875 0.046875,0.0820313 0.082031,0.0820313 0.082031,0 0.1757813,-0.0117188 0.2695313,-0.0117188 0.082031,0 0.1640625,-0.0117188 0.2578125,-0.0117188 0.1054687,0 0.2109375,0.0117188 0.3164062,0.0117188 0.09375,0 0.2109375,0.0117188 0.3046875,0.0117188 0.070312,0 0.1171875,-0.0351563 0.1171875,-0.140625 0,-0.0820313 -0.070312,-0.0820313 -0.09375,-0.0820313 C 6.7735703,0.76625 6.7618516,0.70765625 6.7618516,0.6725 c 0,-0.046875 0.070312,-0.12890625 0.082031,-0.140625 0.023437,-0.0351563 0.984375,-0.890625 1.171875,-1.06640625 L 8.7071641,0.625625 c 0.011719,0.0117188 0.035156,0.046875 0.035156,0.0585938 0,0.0117188 -0.082031,0.0820313 -0.2695312,0.09375 -0.023437,0 -0.1054688,0 -0.1054688,0.140625 0,0.046875 0.035156,0.0820313 0.082031,0.0820313 0.1171875,0 0.2460937,-0.0117188 0.3632812,-0.0117188 0.1171875,0 0.234375,-0.0117188 0.3515625,-0.0117188 0.1054688,0 0.2109375,0.0117188 0.3164063,0.0117188 0.09375,0 0.2109375,0.0117188 0.3164062,0.0117188 0.082031,0 0.1171875,-0.0585938 0.1171875,-0.140625 0,-0.0820313 -0.082031,-0.0820313 -0.1640625,-0.0820313 -0.328125,0 -0.3515625,-0.0585938 -0.3984375,-0.12890625 z m 3.6796879,1.828125 c 0,0.4804688 -0.257813,0.75 -0.398438,0.8671875 -0.04687,0.035156 -0.05859,0.046875 -0.05859,0.082031 0,0.023437 0.04687,0.082031 0.09375,0.082031 0.05859,0 0.527344,-0.3867187 0.527344,-1.0078125 0,-0.33984375 -0.152344,-0.5625 -0.375,-0.5625 -0.1875,0 -0.304687,0.15234375 -0.304687,0.3046875 0,0.1640625 0.117187,0.3046875 0.304687,0.3046875 0.08203,0 0.152344,-0.0234375 0.210938,-0.0703125 z m 0,0"
         style="fill:#000000;fill-opacity:1;fill-rule:nonzero;stroke:none" />
      <path
         id="path23"
         d="M 13.33607,-1.8353125 V -1.67125 c 0.28125,0 0.5625,-0.058594 0.808594,-0.1992187 v 2.41406245 c 0,0.0703125 0,0.15234375 -0.04687,0.22265625 -0.04687,0.0351563 -0.105469,0.046875 -0.164062,0.0585938 -0.128907,0.0117188 -0.257813,0.0117188 -0.386719,0.0117188 V 1.000625 h 2.214844 V 0.8365625 c -0.128907,0 -0.257813,0 -0.386719,-0.0117188 C 15.328258,0.813125 15.257945,0.80140625 15.222789,0.76625 15.164195,0.6959375 15.175914,0.625625 15.175914,0.5553125 v -2.7773437 c 0,-0.023437 0,-0.046875 -0.02344,-0.070312 -0.02344,-0.035156 -0.09375,-0.023437 -0.128907,-0.023437 H 14.53138 c -0.02344,0 -0.04687,0 -0.07031,0 -0.02344,0.011719 -0.03516,0.035156 -0.05859,0.058594 -0.02344,0.023437 -0.04687,0.046875 -0.07031,0.070312 -0.07031,0.070312 -0.152344,0.1289063 -0.246094,0.1757813 -0.222656,0.1171875 -0.492187,0.1640625 -0.75,0.1757812 z m 1.675782,-0.3164062 v 2.9882812 h -0.410157 v -2.9882812 z m 0,0"
         style="fill:#000000;fill-opacity:1;fill-rule:nonzero;stroke:none" />
      <path
         id="path24"
         d="m 17.625133,0.9303125 c 0,0.4804688 -0.257813,0.75 -0.398438,0.8671875 -0.04687,0.035156 -0.05859,0.046875 -0.05859,0.082031 0,0.023437 0.04687,0.082031 0.09375,0.082031 0.05859,0 0.527343,-0.3867187 0.527343,-1.0078125 0,-0.33984375 -0.152343,-0.5625 -0.375,-0.5625 -0.1875,0 -0.304687,0.15234375 -0.304687,0.3046875 0,0.1640625 0.117187,0.3046875 0.304687,0.3046875 0.08203,0 0.152344,-0.0234375 0.210938,-0.0703125 z m 4.907226,-2.7070312 0.140625,-0.1171875 c 0.128907,-0.1054688 0.328125,-0.2578125 0.667969,-0.28125 0.07031,-0.011719 0.140625,-0.011719 0.140625,-0.140625 0,-0.070312 -0.05859,-0.082031 -0.07031,-0.082031 -0.07031,0 -0.152344,0.011719 -0.234375,0.011719 -0.07031,0 -0.152344,0 -0.234375,0 0,0 -0.292969,0 -0.292969,0 -0.08203,0 -0.175781,-0.011719 -0.269531,-0.011719 -0.05859,0 -0.117188,0.035156 -0.117188,0.140625 0,0.070312 0.05859,0.082031 0.09375,0.082031 0.128906,0 0.152344,0.035156 0.152344,0.070312 0,0.070312 -0.117188,0.1757812 -0.152344,0.2109375 L 21.04408,-0.62828175 20.270641,-2.04625 c -0.03516,-0.046875 -0.03516,-0.058594 -0.03516,-0.070312 0,-0.058594 0.222657,-0.058594 0.257813,-0.058594 0.07031,0 0.152344,0 0.152344,-0.140625 0,-0.058594 -0.04687,-0.082031 -0.09375,-0.082031 -0.105469,0 -0.234375,0.011719 -0.351563,0.011719 -0.117187,0 -0.246094,0 -0.363281,0 -0.105469,0 -0.210938,0 -0.316406,0 -0.05859,0 -0.316407,-0.011719 -0.316407,-0.011719 -0.07031,0 -0.117187,0.035156 -0.117187,0.140625 0,0.082031 0.07031,0.082031 0.152344,0.082031 0.316406,0 0.339843,0.035156 0.398437,0.140625 l 0.914063,1.6757812 -0.222657,0.90234375 c -0.05859,0.22265625 -0.08203,0.234375 -0.457031,0.234375 -0.117187,0 -0.1875,0 -0.1875,0.140625 0,0.0351563 0.03516,0.0820314 0.08203,0.0820314 0.105469,0 0.222657,-0.0117189 0.339844,-0.0117189 0.117188,0 0.234375,-0.0117188 0.351563,-0.0117188 0.128906,0 0.246093,0.0117188 0.375,0.0117188 0.105468,0 0.234375,0.0117189 0.339843,0.0117189 0.03516,0 0.117188,0 0.117188,-0.14062505 0,-0.0820313 -0.07031,-0.0820313 -0.164063,-0.0820313 -0.01172,0 -0.128906,0 -0.210937,-0.0117188 -0.128906,-0.0117188 -0.128906,-0.0117188 -0.128906,-0.0585938 0,-0.0351563 0,-0.0351563 0.05859,-0.26953125 l 0.199219,-0.796875 z m 0,0"
         style="fill:#000000;fill-opacity:1;fill-rule:nonzero;stroke:none" />
    </g>
    <path
       id="path25"
       d="m -62.1263,16.57141 50.19615,-35.23857"
       style="fill:none;stroke:#000000;stroke-width:0.39848;stroke-linecap:butt;stroke-linejoin:miter;stroke-miterlimit:10;stroke-dasharray:none;stroke-opacity:1"
       transform="matrix(1.3333333,0,0,-1.3333333,142.08,46.441333)" />
    <path
       id="path26"
       d="M -2.07213,2.39091 C -1.69356,0.95633 -0.84995,0.27893 0,0 -0.84995,-0.27893 -1.69356,-0.95633 -2.07213,-2.39091"
       style="fill:none;stroke:#000000;stroke-width:0.39848;stroke-linecap:round;stroke-linejoin:round;stroke-miterlimit:10;stroke-dasharray:none;stroke-opacity:1"
       transform="matrix(1.0912267,0.76606667,0.76606667,-1.0912267,126.39055,71.483493)" />
    <g
       id="g26"
       aria-label="ρ&#10;X&#10;⊗1&#10;Y"
       transform="matrix(1.3333333,0,0,1.3333333,54.154667,57.098667)">
      <path
         id="path27"
         d="M 0.3761875,1.1242422 C 0.35275,1.2297109 0.35275,1.2648672 0.35275,1.2648672 c 0,0.1523437 0.1171875,0.2226562 0.234375,0.2226562 0.24609375,0 0.3046875,-0.2109375 0.3515625,-0.4335937 0.1054688,-0.35156251 0.2929688,-1.14843751 0.3632813,-1.41796876 0.070312,0.10546875 0.2929687,0.43359375 0.7734375,0.43359375 0.890625,0 1.8398437,-0.94921875 1.8398437,-1.96874999 0,-0.7382813 -0.4921875,-1.171875 -1.1132812,-1.171875 -0.6796875,0 -1.5234375,0.5976562 -1.7695313,1.5820312 z m 1.6875,-1.25390626 c -0.515625,0 -0.6679687,-0.515625 -0.6679687,-0.59765625 0,-0.0234375 0.046875,-0.17578125 0.058594,-0.2578125 C 1.66525,-1.8406016 1.712125,-2.0046641 1.9113438,-2.3093516 2.1574375,-2.6726328 2.509,-2.8835703 2.79025,-2.8835703 c 0.28125,0 0.5625,0.2109375 0.5625,0.703125 0,0.328125 -0.1875,1.1015625 -0.3984375,1.45312499 -0.328125,0.4921875 -0.6679687,0.59765625 -0.890625,0.59765625 z m 0,0"
         style="fill:#000000;fill-opacity:1;fill-rule:nonzero;stroke:none" />
      <path
         id="path28"
         d="M 7.3810703,-0.89724219 8.4474766,-1.8464609 c 0.2929687,-0.2695313 0.5625,-0.3164063 0.8554687,-0.328125 0.070312,-0.011719 0.1054688,-0.09375 0.1054688,-0.140625 0,-0.046875 -0.046875,-0.082031 -0.09375,-0.082031 -0.070312,0 -0.1757813,0.011719 -0.2578125,0.011719 -0.082031,0 -0.1757813,0 -0.2578125,0 -0.1171875,0 -0.2109375,0 -0.3164063,0 -0.09375,0 -0.2109375,-0.011719 -0.3046875,-0.011719 -0.035156,0 -0.1289062,0 -0.1289062,0.140625 0,0.070312 0.058594,0.082031 0.1054687,0.082031 0.070312,0 0.1523438,0.023437 0.1523438,0.09375 0,0.070312 -0.046875,0.1171875 -0.1992188,0.2578125 l -0.8320312,0.75 -0.609375,-1.0195313 c 0.082031,-0.058594 0.1757812,-0.082031 0.2695312,-0.082031 0.023437,0 0.1171875,-0.011719 0.1171875,-0.140625 0,-0.058594 -0.058594,-0.082031 -0.09375,-0.082031 -0.1171875,0 -0.2460937,0.011719 -0.3632812,0.011719 -0.1054688,0 -0.234375,0 -0.3398438,0 -0.1054687,0 -0.2226562,0 -0.328125,0 -0.09375,0 -0.2109375,-0.011719 -0.3046875,-0.011719 -0.09375,0 -0.1289062,0.058594 -0.1289062,0.140625 0,0.082031 0.082031,0.082031 0.1640625,0.082031 0.3398437,0 0.3632812,0.058594 0.4101562,0.1289062 l 0.796875,1.33593751 -1.2070312,1.08984375 c -0.011719,0.0234375 -0.058594,0.046875 -0.070312,0.0585938 -0.2109375,0.1640625 -0.3984375,0.328125 -0.8789063,0.33984375 -0.082031,0 -0.09375,0.12890625 -0.09375,0.140625 0,0.046875 0.046875,0.0820312 0.082031,0.0820312 0.082031,0 0.1757812,-0.0117187 0.2695312,-0.0117187 0.082031,0 0.1640625,-0.0117188 0.2578125,-0.0117188 0.1054688,0 0.2109375,0.0117188 0.3164063,0.0117188 0.09375,0 0.2109375,0.0117187 0.3046875,0.0117187 0.070312,0 0.1171875,-0.0351562 0.1171875,-0.14062498 0,-0.0820313 -0.070312,-0.0820313 -0.09375,-0.0820313 C 5.7287268,0.76682042 5.717008,0.70822672 5.717008,0.67307047 c 0,-0.046875 0.070312,-0.12890625 0.082031,-0.140625 0.023437,-0.0351562 0.984375,-0.890625 1.171875,-1.06640625 l 0.6914062,1.16015625 c 0.011719,0.0117188 0.035156,0.046875 0.035156,0.0585938 0,0.0117188 -0.082031,0.0820313 -0.2695313,0.09375 -0.023437,0 -0.1054687,0 -0.1054687,0.140625 0,0.046875 0.035156,0.0820312 0.082031,0.0820312 0.1171875,0 0.2460938,-0.0117187 0.3632813,-0.0117187 0.1171875,0 0.234375,-0.0117188 0.3515625,-0.0117188 0.1054687,0 0.2109375,0.0117188 0.3164062,0.0117188 0.09375,0 0.2109375,0.0117187 0.3164063,0.0117187 0.082031,0 0.1171875,-0.0585937 0.1171875,-0.14062502 0,-0.0820313 -0.082031,-0.0820313 -0.1640625,-0.0820313 -0.328125,0 -0.3515625,-0.0585938 -0.3984375,-0.12890625 z m 0,0"
         style="fill:#000000;fill-opacity:1;fill-rule:nonzero;stroke:none" />
      <path
         id="path29"
         d="m 16.240445,-1.7468516 c 0,-1.4296875 -1.160156,-2.5664062 -2.578125,-2.5664062 -1.417968,0 -2.566406,1.1601562 -2.566406,2.5664062 0,1.42968754 1.160156,2.56640629 2.566406,2.56640629 1.429688,0 2.578125,-1.16015625 2.578125,-2.56640629 z m -4.136718,-1.734375 c 0.28125,-0.2578125 0.820312,-0.5976562 1.558593,-0.5976562 0.738282,0 1.277344,0.3398437 1.570313,0.5976562 l -1.570313,1.5585938 z m -0.164063,3.29296879 c -0.386719,-0.3984375 -0.609375,-0.98437499 -0.609375,-1.55859379 0,-0.609375 0.246094,-1.1835937 0.609375,-1.5585937 l 1.558594,1.5585937 z m 3.457031,-3.11718749 c 0.386719,0.3984375 0.609375,0.984375 0.609375,1.5585937 0,0.609375 -0.246093,1.18359379 -0.609375,1.55859379 L 13.838102,-1.7468516 Z m -0.164062,3.29296874 c -0.292969,0.2578125 -0.832031,0.59765625 -1.570313,0.59765625 -0.738281,0 -1.277343,-0.33984375 -1.558593,-0.59765625 L 13.66232,-1.5710703 Z m 0,0"
         style="fill:#000000;fill-opacity:1;fill-rule:nonzero;stroke:none" />
      <path
         id="path30"
         d="m 19.117398,-4.4304453 c 0,-0.1875 -0.01172,-0.1992188 -0.210937,-0.1992188 -0.445313,0.4335938 -1.078125,0.4453125 -1.359375,0.4453125 v 0.2460938 c 0.164062,0 0.621094,0 1.007812,-0.1875 v 3.55078124 c 0,0.234375 0,0.328125 -0.691406,0.328125 H 17.593961 V -7.578125e-4 C 17.722867,-0.01247656 18.578336,-0.02419531 18.836148,-0.02419531 c 0.210938,0 1.089844,0.01171875 1.242188,0.0234374975 V -0.24685156 h -0.257813 c -0.703125,0 -0.703125,-0.09375 -0.703125,-0.328125 z m 0,0"
         style="fill:#000000;fill-opacity:1;fill-rule:nonzero;stroke:none" />
      <path
         id="path31"
         d="m 24.72775,-1.7761484 0.140625,-0.1171875 c 0.128906,-0.1054688 0.328125,-0.2578125 0.667969,-0.28125 0.07031,-0.011719 0.140625,-0.011719 0.140625,-0.140625 0,-0.070312 -0.05859,-0.082031 -0.07031,-0.082031 -0.07031,0 -0.152343,0.011719 -0.234375,0.011719 -0.07031,0 -0.152343,0 -0.234375,0 0,0 -0.292968,0 -0.292968,0 -0.08203,0 -0.175782,-0.011719 -0.269532,-0.011719 -0.05859,0 -0.117187,0.035156 -0.117187,0.140625 0,0.070312 0.05859,0.082031 0.09375,0.082031 0.128906,0 0.152344,0.035156 0.152344,0.070312 0,0.070312 -0.117188,0.1757812 -0.152344,0.2109375 l -1.3125,1.26562496 -0.773438,-1.41796876 c -0.03516,-0.046875 -0.03516,-0.058594 -0.03516,-0.070312 0,-0.058594 0.222656,-0.058594 0.257813,-0.058594 0.07031,0 0.152343,0 0.152343,-0.140625 0,-0.058594 -0.04687,-0.082031 -0.09375,-0.082031 -0.105468,0 -0.234375,0.011719 -0.351562,0.011719 -0.117188,0 -0.246094,0 -0.363281,0 -0.105469,0 -0.210938,0 -0.316407,0 -0.05859,0 -0.316406,-0.011719 -0.316406,-0.011719 -0.07031,0 -0.117187,0.035156 -0.117187,0.140625 0,0.082031 0.07031,0.082031 0.152343,0.082031 0.316407,0 0.339844,0.035156 0.398438,0.140625 l 0.914062,1.67578121 -0.222656,0.90234375 c -0.05859,0.22265625 -0.08203,0.234375 -0.457031,0.234375 -0.117188,0 -0.1875,0 -0.1875,0.140625 0,0.0351563 0.03516,0.0820312 0.08203,0.0820312 0.105469,0 0.222656,-0.0117187 0.339844,-0.0117187 0.117187,0 0.234375,-0.0117188 0.351562,-0.0117188 0.128907,0 0.246094,0.0117188 0.375,0.0117188 0.105469,0 0.234375,0.0117187 0.339844,0.0117187 0.03516,0 0.117188,0 0.117188,-0.14062503 0,-0.0820313 -0.07031,-0.0820313 -0.164063,-0.0820313 -0.01172,0 -0.128906,0 -0.210937,-0.0117188 -0.128907,-0.0117188 -0.128907,-0.0117188 -0.128907,-0.0585938 0,-0.0351563 0,-0.0351563 0.05859,-0.26953125 l 0.199219,-0.796875 z m 0,0"
         style="fill:#000000;fill-opacity:1;fill-rule:nonzero;stroke:none" />
    </g>
    <path
       id="path32"
       d="M 62.1263,16.57141 11.93015,-18.66716"
       style="fill:none;stroke:#000000;stroke-width:0.39848;stroke-linecap:butt;stroke-linejoin:miter;stroke-miterlimit:10;stroke-dasharray:none;stroke-opacity:1"
       transform="matrix(1.3333333,0,0,-1.3333333,142.08,46.441333)" />
    <path
       id="path33"
       d="M -2.07213,2.39091 C -1.69356,0.95633 -0.84995,0.27893 0,0 -0.84995,-0.27893 -1.69356,-0.95633 -2.07213,-2.39091"
       style="fill:none;stroke:#000000;stroke-width:0.39848;stroke-linecap:round;stroke-linejoin:round;stroke-miterlimit:10;stroke-dasharray:none;stroke-opacity:1"
       transform="matrix(-1.0912267,0.76606667,0.76606667,1.0912267,157.76945,71.483493)" />
    <g
       id="g33"
       aria-label="1&#10;X&#10;⊗λ&#10;Y"
       transform="matrix(1.3333333,0,0,1.3333333,194.348,57.564)">
      <path
         id="path34"
         d="m 2.3317734,-4.4308125 c 0,-0.1875 -0.011719,-0.1992187 -0.2109375,-0.1992187 -0.4453125,0.4335937 -1.078125,0.4453125 -1.35937496,0.4453125 v 0.2460937 c 0.1640625,0 0.62109376,0 1.00781246,-0.1875 v 3.55078125 c 0,0.234375 0,0.328125 -0.6914062,0.328125 H 0.80833594 V -0.001125 c 0.12890625,-0.01171875 0.98437496,-0.0234375 1.24218746,-0.0234375 0.2109375,0 1.0898438,0.01171875 1.2421875,0.0234375 V -0.24721875 H 3.0348984 c -0.703125,0 -0.703125,-0.09375 -0.703125,-0.328125 z m 0,0"
         style="fill:#000000;fill-opacity:1;fill-rule:nonzero;stroke:none" />
      <path
         id="path35"
         d="M 7.2184922,-0.89760937 8.2848984,-1.8468281 c 0.2929688,-0.2695313 0.5625,-0.3164063 0.8554688,-0.328125 0.070312,-0.011719 0.1054687,-0.09375 0.1054687,-0.140625 0,-0.046875 -0.046875,-0.082031 -0.09375,-0.082031 -0.070312,0 -0.1757812,0.011719 -0.2578125,0.011719 -0.082031,0 -0.1757812,0 -0.2578125,0 -0.1171875,0 -0.2109375,0 -0.3164062,0 -0.09375,0 -0.2109375,-0.011719 -0.3046875,-0.011719 -0.035156,0 -0.1289063,0 -0.1289063,0.140625 0,0.070312 0.058594,0.082031 0.1054688,0.082031 0.070312,0 0.1523437,0.023437 0.1523437,0.09375 0,0.070312 -0.046875,0.1171875 -0.1992187,0.2578125 l -0.8320313,0.75 -0.609375,-1.0195313 c 0.082031,-0.058594 0.1757813,-0.082031 0.2695313,-0.082031 0.023437,0 0.1171875,-0.011719 0.1171875,-0.140625 0,-0.058594 -0.058594,-0.082031 -0.09375,-0.082031 -0.1171875,0 -0.2460938,0.011719 -0.3632813,0.011719 -0.1054687,0 -0.234375,0 -0.3398437,0 -0.1054688,0 -0.2226563,0 -0.328125,0 -0.09375,0 -0.2109375,-0.011719 -0.3046875,-0.011719 -0.09375,0 -0.1289063,0.058594 -0.1289063,0.140625 0,0.082031 0.082031,0.082031 0.1640625,0.082031 0.3398438,0 0.3632813,0.058594 0.4101563,0.1289062 l 0.796875,1.33593753 -1.2070313,1.08984375 c -0.011719,0.0234375 -0.058594,0.046875 -0.070312,0.0585938 -0.2109375,0.1640625 -0.3984375,0.328125 -0.8789062,0.33984375 -0.082031,0 -0.09375,0.12890625 -0.09375,0.140625 0,0.046875 0.046875,0.0820312 0.082031,0.0820312 0.082031,0 0.1757813,-0.0117187 0.2695313,-0.0117187 0.082031,0 0.1640625,-0.0117188 0.2578125,-0.0117188 0.1054687,0 0.2109375,0.0117188 0.3164062,0.0117188 0.09375,0 0.2109375,0.0117187 0.3046875,0.0117187 0.070312,0 0.1171875,-0.0351562 0.1171875,-0.14062494 0,-0.0820313 -0.070312,-0.0820313 -0.09375,-0.0820313 C 5.5661487,0.76645326 5.55443,0.70785956 5.55443,0.67270331 c 0,-0.046875 0.070312,-0.12890625 0.082031,-0.140625 0.023437,-0.0351563 0.984375,-0.890625 1.171875,-1.06640625 l 0.6914063,1.16015625 c 0.011719,0.0117188 0.035156,0.046875 0.035156,0.0585938 0,0.0117188 -0.082031,0.0820313 -0.2695312,0.09375 -0.023437,0 -0.1054688,0 -0.1054688,0.140625 0,0.046875 0.035156,0.0820312 0.082031,0.0820312 0.1171875,0 0.2460937,-0.0117187 0.3632812,-0.0117187 0.1171875,0 0.234375,-0.0117188 0.3515625,-0.0117188 0.1054688,0 0.2109375,0.0117188 0.3164063,0.0117188 0.09375,0 0.2109375,0.0117187 0.3164062,0.0117187 0.082031,0 0.1171875,-0.0585937 0.1171875,-0.14062496 0,-0.0820313 -0.082031,-0.0820313 -0.1640625,-0.0820313 -0.328125,0 -0.3515625,-0.0585938 -0.3984375,-0.12890625 z m 0,0"
         style="fill:#000000;fill-opacity:1;fill-rule:nonzero;stroke:none" />
      <path
         id="path36"
         d="m 16.077867,-1.7472187 c 0,-1.4296875 -1.160156,-2.5664063 -2.578125,-2.5664063 -1.417969,0 -2.566406,1.1601563 -2.566406,2.5664063 0,1.42968745 1.160156,2.5664062 2.566406,2.5664062 1.429688,0 2.578125,-1.16015625 2.578125,-2.5664062 z m -4.136719,-1.734375 c 0.28125,-0.2578125 0.820313,-0.5976563 1.558594,-0.5976563 0.738281,0 1.277344,0.3398438 1.570313,0.5976563 L 13.499742,-1.923 Z M 11.777086,-0.188625 C 11.390367,-0.5870625 11.167711,-1.173 11.167711,-1.7472187 c 0,-0.609375 0.246094,-1.1835938 0.609375,-1.5585938 l 1.558594,1.5585938 z m 3.457031,-3.1171875 c 0.386719,0.3984375 0.609375,0.984375 0.609375,1.5585938 0,0.609375 -0.246094,1.1835937 -0.609375,1.5585937 l -1.558594,-1.5585937 z m -0.164062,3.29296875 c -0.292969,0.2578125 -0.832032,0.59765625 -1.570313,0.59765625 -0.738281,0 -1.277344,-0.33984375 -1.558594,-0.59765625 l 1.558594,-1.55859375 z m 0,0"
         style="fill:#000000;fill-opacity:1;fill-rule:nonzero;stroke:none" />
      <path
         id="path37"
         d="m 19.435289,-1.9933125 c 0.351563,0.796875 0.75,1.8046875 0.832031,1.8984375 0.128907,0.1640625 0.257813,0.1640625 0.363282,0.1640625 h 0.140625 c 0.128906,0 0.199218,0 0.199218,-0.08203125 0,-0.03515625 -0.02344,-0.05859375 -0.03516,-0.0703125 -0.08203,-0.08203125 -0.152344,-0.234375 -0.175781,-0.3046875 L 19.060289,-4.3956562 c -0.05859,-0.1289063 -0.1875,-0.4453125 -0.925781,-0.4453125 -0.09375,0 -0.1875,0 -0.1875,0.09375 0,0.09375 0.07031,0.09375 0.105469,0.1054687 0.140625,0.023437 0.28125,0.035156 0.457031,0.4335938 l 0.820312,1.9570312 -2.050781,1.8515625 c -0.08203,0.0703125 -0.140625,0.12890625 -0.140625,0.24609375 0,0.1640625 0.140625,0.234375 0.234375,0.234375 0.140625,0 0.222656,-0.09375 0.234375,-0.10546875 z m 0,0"
         style="fill:#000000;fill-opacity:1;fill-rule:nonzero;stroke:none" />
      <path
         id="path38"
         d="m 25.321031,-1.7765156 0.140625,-0.1171875 c 0.128907,-0.1054688 0.328125,-0.2578125 0.667969,-0.28125 0.07031,-0.011719 0.140625,-0.011719 0.140625,-0.140625 0,-0.070312 -0.05859,-0.082031 -0.07031,-0.082031 -0.07031,0 -0.152344,0.011719 -0.234375,0.011719 -0.07031,0 -0.152344,0 -0.234375,0 0,0 -0.292969,0 -0.292969,0 -0.08203,0 -0.175781,-0.011719 -0.269531,-0.011719 -0.05859,0 -0.117188,0.035156 -0.117188,0.140625 0,0.070312 0.05859,0.082031 0.09375,0.082031 0.128906,0 0.152344,0.035156 0.152344,0.070312 0,0.070312 -0.117188,0.1757812 -0.152344,0.2109375 l -1.3125,1.26562498 -0.773437,-1.41796878 c -0.03516,-0.046875 -0.03516,-0.058594 -0.03516,-0.070312 0,-0.058594 0.222657,-0.058594 0.257813,-0.058594 0.07031,0 0.152344,0 0.152344,-0.140625 0,-0.058594 -0.04687,-0.082031 -0.09375,-0.082031 -0.105469,0 -0.234375,0.011719 -0.351563,0.011719 -0.117187,0 -0.246094,0 -0.363281,0 -0.105469,0 -0.210938,0 -0.316406,0 -0.05859,0 -0.316407,-0.011719 -0.316407,-0.011719 -0.07031,0 -0.117187,0.035156 -0.117187,0.140625 0,0.082031 0.07031,0.082031 0.152344,0.082031 0.316406,0 0.339843,0.035156 0.398437,0.140625 l 0.914063,1.67578123 -0.222657,0.90234375 c -0.05859,0.22265625 -0.08203,0.234375 -0.457031,0.234375 -0.117187,0 -0.1875,0 -0.1875,0.140625 0,0.0351563 0.03516,0.0820312 0.08203,0.0820312 0.105469,0 0.222657,-0.0117187 0.339844,-0.0117187 0.117188,0 0.234375,-0.0117188 0.351563,-0.0117188 0.128906,0 0.246093,0.0117188 0.375,0.0117188 0.105468,0 0.234375,0.0117187 0.339843,0.0117187 0.03516,0 0.117188,0 0.117188,-0.14062499 0,-0.0820313 -0.07031,-0.0820313 -0.164063,-0.0820313 -0.01172,0 -0.128906,0 -0.210937,-0.0117188 -0.128906,-0.0117188 -0.128906,-0.0117188 -0.128906,-0.0585938 0,-0.0351563 0,-0.0351563 0.05859,-0.26953125 l 0.199219,-0.796875 z m 0,0"
         style="fill:#000000;fill-opacity:1;fill-rule:nonzero;stroke:none" />
    </g>
  </g>
</svg>
