<?xml version="1.0" encoding="UTF-8" standalone="no"?>
<!-- Created with Inkscape (http://www.inkscape.org/) -->

<svg
   version="1.1"
   id="svg1"
   width="67.640625"
   height="62.979156"
   viewBox="0 0 67.640625 62.979156"
   sodipodi:docname="Untitled 2025-08-23 (1).pdf"
   xmlns:inkscape="http://www.inkscape.org/namespaces/inkscape"
   xmlns:sodipodi="http://sodipodi.sourceforge.net/DTD/sodipodi-0.dtd"
   xmlns="http://www.w3.org/2000/svg"
   xmlns:svg="http://www.w3.org/2000/svg">
  <defs
     id="defs1" />
  <sodipodi:namedview
     id="namedview1"
     pagecolor="#ffffff"
     bordercolor="#000000"
     borderopacity="0.25"
     inkscape:showpageshadow="2"
     inkscape:pageopacity="0.0"
     inkscape:pagecheckerboard="0"
     inkscape:deskcolor="#d1d1d1">
    <inkscape:page
       x="0"
       y="0"
       width="67.640625"
       height="62.979156"
       id="page2"
       margin="0"
       bleed="0" />
  </sodipodi:namedview>
  <g
     id="g1"
     inkscape:groupmode="layer"
     inkscape:label="1"
     transform="translate(-124.19078,-188.5984)">
    <path
       id="path136"
       d="m 470.99121,594.078 -1.04864,0.0692 -1.15714,0.16815 -1.03445,0.1897 -1.12738,0.23809 -1.33808,0.33051 -1.20663,0.33197 -1.32199,0.39319 -1.4299,0.45831 -1.24521,0.42297 -1.04206,0.37482 -1.0801,0.40631 -1.11567,0.43872 -1.1474,0.46918 -1.17337,0.50067 -1.19464,0.53156 -1.06054,0.48657 -1.06369,0.49976 -1.23365,0.59985 -1.25146,0.63183 -1.27066,0.66224 -1.18347,0.63037 -1.37388,0.75488 -1.31158,0.75098 -0.98221,0.57361 -1.31613,0.78924 -1.32446,0.81982 -1.3313,0.85407 -1.33856,0.88922 -1.34861,0.92474 -1.35525,0.9585 -1.01035,0.72894 -1.34475,1.00025 -1.34262,1.0343 -1.33905,1.06836 -1.33573,1.1037 -1.32879,1.14148 -1.15543,1.02557 -1.14325,1.03827 -1.29742,1.21808 -1.28742,1.24945 -1.27704,1.2818 -1.26602,1.31256 -1.25235,1.34369 -1.23566,1.37256 -1.0664,1.22003 -1.0459,1.22851 -1.17957,1.43293 -1.16049,1.46124 -1.1398,1.48944 -1.1185,1.51605 -1.0704,1.49488 -0.79004,1.12353 -0.70206,1.01917 -0.90906,1.36828 -1.01867,1.58618 -0.99036,1.60389 -0.96194,1.61816 -0.9332,1.62848 -0.90372,1.63513 -0.87393,1.63825 -0.63751,1.22088 -0.82224,1.62818 -0.79251,1.63299 -0.76208,1.63696 -0.73017,1.64209 -0.69888,1.64588 -0.58652,1.43841 -0.56347,1.42871 -0.61106,1.63282 -0.57837,1.63128 -0.54644,1.62818 -0.51065,1.62304 -0.47602,1.6178 -0.39166,1.40729 -0.36884,1.3913 -0.38867,1.58136 -0.35486,1.57049 -0.27807,1.30249 -0.20786,1.01129 -0.27591,1.53583 -0.24035,1.52142 -0.20603,1.50269 -0.13797,1.11102 -0.15387,1.46393 -0.12094,1.4469 -0.0858,1.43091 -0.0507,1.41473 -0.0179,1.39667 0.0119,1.37897 0.0318,1.18933 0.0487,1.16803 0.0854,1.31415 0.11551,1.29327 0.14502,1.26862 0.17593,1.24987 0.17752,1.0755 0.19553,1.05255 0.25445,1.17792 0.28748,1.15229 0.32126,1.12493 0.35693,1.09418 0.39142,1.06226 0.42496,1.02868 0.57159,1.23963 0.49011,0.95166 0.52213,0.91791 0.5509,0.88104 0.58182,0.84198 0.61514,0.80334 0.97229,1.1333 0.83341,0.88367 1.04135,0.98419 1.07706,0.90082 1.11056,0.82019 1.04645,0.6839 1.05777,0.62207 1.18191,0.60248 1.21152,0.52447 1.23178,0.44446 1.14206,0.3382 1.14237,0.27728 1.25796,0.21899 1.26917,0.13868 1.27621,0.0547 1.05969,-0.006 1.27591,-0.0843 1.27701,-0.16327 1.27896,-0.23901 1.2818,-0.31665 1.16297,-0.34894 1.14956,-0.39557 1.24829,-0.49499 1.23539,-0.55603 1.11816,-0.55493 0.90002,-0.47742 0.99109,-0.56622 1.17545,-0.73334 1.15866,-0.78943 1.14297,-0.84979 1.03769,-0.83209 1.02307,-0.86994 1.10511,-1.01227 0.72921,-0.7102 0.72641,-0.73908 0.72269,-0.76715 0.89636,-0.98333 0.71164,-0.80817 0.70572,-0.83319 0.70017,-0.85651 0.69424,-0.87634 0.69052,-0.89362 0.68412,-0.91314 0.59454,-0.81202 0.58703,-0.81646 0.66535,-0.94818 0.65896,-0.96521 0.65351,-0.9834 0.64776,-0.99878 0.64136,-1.01178 0.55387,-0.89307 0.54748,-0.89612 0.6203,-1.03961 0.61115,-1.05401 0.60287,-1.06598 0.5961,-1.07599 0.58847,-1.0849 0.58258,-1.08966 0.50116,-0.95264 0.49494,-0.94476 0.55517,-1.07538 0.54379,-1.06708 0.53623,-1.05615 0.52698,-1.04309 0.5202,-1.03076 0.64575,-1.26953 0.53009,-1.03595 0.48996,-0.94855 0.52029,-0.9928 0.52649,-0.99109 0.52964,-0.98804 0.53527,-0.98797 0.67499,-1.22943 0.55008,-0.98835 0.55988,-0.99414 0.5715,-0.99957 0.58252,-1.00452 0.59476,-1.00848 0.58722,-0.98389 0.76706,-1.2658 0.63034,-1.01038 0.64633,-1.0119 0.65902,-1.01074 0.67191,-1.00751 0.68454,-1.00153 0.60324,-0.86908 0.60495,-0.85815 0.69855,-0.97406 0.7052,-0.96417 0.70883,-0.95026 0.70828,-0.93707 0.71207,-0.92182 0.71295,-0.90753 0.79404,-0.99585 0.78497,-0.96991 0.86032,-1.04638 0.89368,-1.07789 0.27234,-0.32836"
       style="fill:#ffffff;fill-opacity:0;fill-rule:nonzero;stroke:#000000;stroke-width:3.13375;stroke-linecap:round;stroke-linejoin:round;stroke-miterlimit:10;stroke-dasharray:none;stroke-opacity:1"
       transform="scale(0.32012804)" />
    <path
       id="path137"
       d="m 430.05853,652.33173 1.13657,0.16204 1.03635,0.49726 0.86172,0.55334 0.91672,0.74298 0.77496,0.70972 0.76654,0.74793 0.719,0.76318 0.70889,0.8388 0.71564,0.94495 0.60943,1.04004 0.4382,0.91473 0.37769,1.00965 0.2684,0.97424 0.20715,1.09705 0.1204,1.05578 0.0455,1.16364 -0.0744,1.11304 -0.1908,1.2041 -0.28043,1.14581 -0.40429,1.23462 -0.40094,0.99152 -0.41315,0.9121 -0.47174,0.9123 -0.57651,0.98254 -0.56216,0.84918 -0.663,0.86853 -0.82238,0.9209 -0.76679,0.70349 -1.03732,0.78009 -1.04596,0.65021 -1.04718,0.55658 -1.21408,0.57666 -1.08673,0.46741 -0.94367,0.37066 -0.9562,0.34015 -0.98478,0.32233 -1.21615,0.35962 -1.17603,0.30328 -8.91778,1.91016"
       style="fill:#ffffff;fill-opacity:0;fill-rule:nonzero;stroke:#000000;stroke-width:3.12933;stroke-linecap:round;stroke-linejoin:round;stroke-miterlimit:10;stroke-dasharray:none;stroke-opacity:1"
       transform="scale(0.32012804)" />
    <path
       id="path138"
       d="m 435.22769,657.41748 -0.72659,0.76941 -0.64188,0.91882 -0.56839,1.00379 -0.62838,1.10486 -0.48496,0.90478 -0.42691,0.92804 -0.46301,1.17188 -0.37653,0.95922 -0.40625,1.04023 -0.35586,0.9389 -0.35267,0.96826 -0.31048,0.95221 -0.40744,1.22241 -0.33496,1.02637 -0.29495,0.99695 -0.25412,0.97363 -0.26206,1.08533 -0.24927,1.06329 -0.21603,1.16883 -0.094,1.13079 -0.0705,1.11829 0.1084,2.84692"
       style="fill:#ffffff;fill-opacity:0;fill-rule:nonzero;stroke:#000000;stroke-width:3.09988;stroke-linecap:round;stroke-linejoin:round;stroke-miterlimit:10;stroke-dasharray:none;stroke-opacity:1"
       transform="scale(0.32012804)" />
    <path
       id="path139"
       d="m 474.52161,651.0708 0.65912,0.76495 0.30279,1.05414 0.16379,1.08612 0.1134,1.14661 0.0208,1.10632 -0.0446,1.03327 -0.11078,1.21374 -0.14609,1.15985 -0.20505,1.19117 -0.1914,0.9862 -0.26151,1.151 -0.26132,1.05603 -0.28158,1.047 -0.31995,1.10889 -0.35638,1.11456 -0.39234,1.08917 -0.37173,0.96405 -0.44937,1.12122 -0.41147,0.99353 -0.43836,1.03296 -0.49618,1.11364 -0.44355,0.93165 -0.49881,0.97741 -0.53775,0.99597 -0.54016,0.96405 -0.56448,0.99842 -0.60202,1.04834 -0.54269,0.93628 -0.58915,0.99908 -0.56964,0.93933 -0.5849,0.94104 -0.58325,0.93207 -0.58249,0.93298 -0.63602,0.99524 -0.68188,1.03473 -0.63608,0.96655 -0.64194,0.96503 -0.6387,0.96015 -0.62411,0.94458 -0.58652,0.90808 -0.62582,0.98547 -0.56748,0.90765 -0.58478,0.95508 -0.61065,1.02503 -0.59174,1.03497 -0.55243,0.9989 -0.62585,1.14887 -0.50223,0.97253 -0.52383,1.06659 -0.51468,1.06665 -0.4802,1.04871 -0.46023,1.04382 -0.47873,1.12738 -0.47861,1.18262 -0.3623,0.95568 -0.3982,1.07654 -0.41864,1.19593 -0.4021,1.2196 -0.36996,1.20972 -0.32715,1.17444 -0.28046,1.15167 -0.23364,1.14172 -0.17462,1.05695 -0.1272,1.05792 -0.0873,1.05255 -0.0371,1.11731 0.0553,1.17975 0.15185,1.10223 0.30054,1.24091 0.37232,0.99975 0.5065,0.98102 0.62515,0.92542 0.66614,0.81323 0.78595,0.81049 0.76153,0.69519 0.90296,0.75427 0.99441,0.7655 0.8288,0.57953 0.84195,0.54956 1.0972,0.65662 1.11184,0.61175 0.96732,0.49799 0.99667,0.47858 1.02185,0.45056 0.95178,0.3797 1.21936,0.43975 1.05765,0.33802 1.04074,0.28967 1.17496,0.27802 1.09045,0.21221 1.10389,0.18134 1.00317,0.13617 1.14063,0.12213 1.07266,0.0917 1.12372,0.0746 1.32553,0.0488 1.12201,0.007 1.02468,-0.0232 1.06687,-0.057 1.10602,-0.0857 1.12433,-0.1167 1.00369,-0.13501 1.15787,-0.18841 1.17535,-0.23029 1.03351,-0.2301 1.10885,-0.27356 1.0904,-0.30286 1.01956,-0.30456 1.07815,-0.34412 1.06043,-0.36853 0.98868,-0.37512 0.98394,-0.40082 0.97733,-0.42145 0.97662,-0.44513 0.90418,-0.43561 0.90198,-0.46307 0.89956,-0.47632 1.04523,-0.58099 0.97192,-0.5741 0.94416,-0.58417 0.84155,-0.5484 1.09088,-0.75195 0.93369,-0.66925 0.92916,-0.70526 0.91483,-0.71668 1.02066,-0.85223 0.87421,-0.76624 0.85125,-0.78265 0.89621,-0.85541 0.81168,-0.80487 0.84744,-0.8905 0.70438,-0.78021 0.79587,-0.92139 0.83404,-1.01623 0.81385,-1.04468 0.69848,-0.93366 0.58801,-0.81579 0.57196,-0.82972 0.60871,-0.90863 0.68219,-1.05328 0.69488,-1.12939 0.62397,-1.05402 0.51562,-0.91797 0.5332,-0.99097 0.58094,-1.13232 0.48816,-0.99097 0.50854,-1.07293 0.48749,-1.07892 0.40906,-0.93927 0.42504,-1.01935 0.41108,-1.03125 0.42517,-1.10065 0.4328,-1.16595 0.41101,-1.15094 0.3772,-1.08722 0.3612,-1.07813 0.32715,-1.02386 0.3277,-1.07214 0.31103,-1.05738 0.31397,-1.09369 0.36377,-1.34246 0.25293,-0.97321 0.31299,-1.30109 0.25537,-1.11944 0.23687,-1.11157 0.21808,-1.08643 0.21295,-1.17859 0.1731,-1.07587 0.19165,-1.32849 0.133,-1.05334 0.12988,-1.15491 0.10779,-1.09546 0.0931,-1.06775 0.0766,-1.00421 0.0761,-1.2857 0.0353,-1.05024 0.0168,-1.17645 -0.001,-1.14612 -0.0233,-1.02154 -0.0455,-1.09668 -0.0947,-1.34174 -0.11017,-1.19842 -0.12702,-1.01618 -0.1795,-1.04022 -0.2558,-1.26703 -0.23352,-0.98065 -0.31897,-1.08392 -0.35156,-1.17353 -0.35462,-1.14654 -0.38678,-1.15741 -0.38513,-1.10022 -0.39935,-1.0777 -0.44074,-1.0509 -0.44104,-0.94446 -0.54327,-1.06574 -0.51849,-0.93652 -0.51221,-0.87952 -0.58502,-0.9223 -0.63953,-0.93097 -0.71783,-0.9649 -0.62745,-0.82324 -0.6148,-0.79779 -0.8111,-1.00495 -0.66107,-0.75122 -3.20056,-3.24963"
       style="fill:#ffffff;fill-opacity:0;fill-rule:nonzero;stroke:#000000;stroke-width:3.13375;stroke-linecap:round;stroke-linejoin:round;stroke-miterlimit:10;stroke-dasharray:none;stroke-opacity:1"
       transform="scale(0.32012804)" />
    <path
       id="path140"
       d="m 499.23242,672.33801 0.79691,0.71015 0.72262,0.94531 0.63254,0.99902 0.60217,1.05121 0.50867,0.96442 0.5275,1.04675 0.49673,1.08753 0.44162,1.08416 0.37476,1.16443 0.32995,1.26489 0.18488,1.07111 0.0918,1.02124 0.0356,1.13446 -0.0396,1.09631 -0.094,1.00983 -0.1528,1.01849 -0.21307,1.07941 -0.33319,1.26386 -0.39334,1.10076 -0.42991,0.98096 -0.62582,1.16681 -0.63873,1.00098 -0.76981,1.06451 -0.82052,1.0036 -0.75495,0.84272 -0.79196,0.82373 -0.80579,0.78204 -0.76181,0.69659 -0.81512,0.69086 -1.0423,0.80927 -0.98648,0.69787 -0.93561,0.60053 -0.91501,0.54522 -1.17507,0.60962 -1.13526,0.50959 -1.0119,0.38366 -1.19107,0.40015 -0.59421,0.17572"
       style="fill:#ffffff;fill-opacity:0;fill-rule:nonzero;stroke:#000000;stroke-width:3.09988;stroke-linecap:round;stroke-linejoin:round;stroke-miterlimit:10;stroke-dasharray:none;stroke-opacity:1"
       transform="scale(0.32012804)" />
    <path
       id="path141"
       d="m 502.46829,680.87012 -0.91263,0.009 -0.94241,0.64691 -0.91528,0.72333 -0.81964,0.69104 -0.78479,0.75128 -0.84308,0.93902 -0.63718,0.80738 -0.61294,0.82714 -0.65686,1.03431 -0.49161,1.05615 -0.32862,1.15179 -0.186,1.0954 -0.0609,1.17987 0.12768,1.07898 0.2164,1.07825 0.26252,0.99982 0.43905,1.03894 2.90198,4.22522"
       style="fill:#ffffff;fill-opacity:0;fill-rule:nonzero;stroke:#000000;stroke-width:3.10135;stroke-linecap:round;stroke-linejoin:round;stroke-miterlimit:10;stroke-dasharray:none;stroke-opacity:1"
       transform="scale(0.32012804)" />
    <path
       id="path142"
       d="m 515.24414,640.52118 0.85425,0.59949 0.92395,0.72949 0.79181,0.69061 0.80749,0.76514 0.87598,0.87243 0.88953,0.89332 0.8482,0.89074 0.79932,0.90326 0.63983,0.78485 0.68494,0.91602 0.71582,1.00458 0.65814,0.9591 0.6416,0.9787 0.6142,0.97772 0.62762,1.05646 0.6308,1.0943 0.65027,1.19782 0.47815,0.95135 0.56262,1.18213 0.52747,1.1524 0.42718,0.97748 0.40363,0.94342 0.38354,0.93341 0.46381,1.21173 0.35827,1.05451 0.30567,1.02423 0.30096,1.15338 0.22742,0.99133 0.22974,1.11042 0.20153,1.03369 0.18738,1.05816 0.19971,1.17371 0.16705,1.09027 0.1676,1.21423 0.13782,1.11499 0.11731,1.13501 0.11163,1.31641 0.0662,1.12067 0.0508,1.20227 0.0362,1.34314 0.0132,1.04651 -0.005,1.19677 -0.019,1.13984 -0.0319,1.13995 -0.0411,1.16101 -0.0466,1.16547 -0.0426,1.04571 -0.059,1.18372 -0.0608,1.0603 -0.069,1.06323 -0.0802,1.00537 -0.0884,1.0083 -0.10815,1.09046 -0.11865,1.09607 -0.11774,1.02301 -0.13306,1.07617 -0.13678,1.05566 -0.14276,1.06202 -0.15521,1.14624 -0.14075,1.0227 -0.14673,1.03735 -0.17498,1.20057 -0.14624,1.00299 -0.1872,1.25299 -0.17218,1.11694 -0.17645,1.10638 -0.15894,1.00391 -0.16369,1.03406 -0.16217,1.06518 -0.14643,1.00739 -0.16687,1.21106 -0.15368,1.20056 -0.16138,1.35571 -0.12323,1.09461 -0.10175,1.057 -0.0779,1.00403 -0.07,1.18854 -0.0428,1.17346 -0.012,1.26917 0.0213,1.14648 0.0452,1.06269 0.0839,1.1972 0.13659,1.3009 0.16486,1.06262 0.21112,1.1272 0.2334,1.02558 0.3468,1.2276 0.39398,1.10485 0.52551,1.19629 0.65906,1.20319 0.61627,0.93152 0.71283,0.93634 0.74939,0.82843 0.74976,0.69995 0.88214,0.71326 0.86804,0.59069 0.9198,0.53974 1.05249,0.54059 1.0777,0.48456 0.93787,0.36944 0.99414,0.3374 1.07959,0.28192 1.24487,0.22242 1.05652,0.10998 1.22455,0.0499 1.00433,-0.007 1.02887,-0.0471 1.16846,-0.097 1.17376,-0.14086 0.98902,-0.15155 0.99041,-0.18946 1.12629,-0.26538 1.05468,-0.29809 1.05597,-0.34388 1.00281,-0.35339 1.1936,-0.45563 1.05878,-0.43078 0.92786,-0.40882 0.98626,-0.45068 0.97766,-0.47321 1.0365,-0.53338 1.03937,-0.57758 1.01819,-0.59851 1.00195,-0.63092 0.9372,-0.62897 0.93146,-0.6654 0.92578,-0.6897 0.92462,-0.71997 0.8006,-0.65057 0.80096,-0.6673 0.84894,-0.72955 0.90161,-0.80567 0.89508,-0.83008 0.82202,-0.79498 0.75696,-0.75378 0.74347,-0.76996 0.90497,-0.97821 0.67413,-0.76026 0.77503,-0.90551 0.65734,-0.80347 0.64716,-0.82794 0.64197,-0.85041 0.63452,-0.87121 0.72693,-1.03143 0.61157,-0.91053 0.59735,-0.92877 0.59406,-0.94446 0.67987,-1.11963 0.57135,-0.97216 0.56756,-0.98517 0.55555,-1.00305 0.63385,-1.17633 0.53051,-1.01007 0.52204,-1.02381 0.51239,-1.04596 0.50372,-1.06018 0.57001,-1.25256 0.48413,-1.09906 0.47571,-1.12207 0.46289,-1.15546 0.37695,-0.97217 0.4375,-1.17285 0.42645,-1.18432 0.41645,-1.19678 0.40136,-1.20624 0.35034,-1.11517 0.33472,-1.11451 0.35217,-1.22637 0.33606,-1.22828 0.31812,-1.23114 0.27392,-1.13214 0.25782,-1.12909 0.26037,-1.23919 0.24079,-1.24482 0.22357,-1.25006 0.17468,-1.03924 0.19324,-1.2417 0.1767,-1.24445 0.15411,-1.2492 0.13074,-1.25385 0.0911,-1.04217 0.0848,-1.19379 0.0688,-1.28656 0.0416,-1.24793 0.0239,-1.21344 0.007,-1.04467 -0.0118,-1.22901 -0.0309,-1.22906 -0.0471,-1.23035 -0.0618,-1.23547 -0.0638,-1.0188 -0.0897,-1.21387 -0.097,-1.20477 -0.0913,-0.99719 -0.12463,-1.18592 -0.13934,-1.15643 -0.17975,-1.33441 -0.2041,-1.31653 -0.23987,-1.30426 -0.22388,-1.09406 -0.29175,-1.26794 -0.28112,-1.07916 -0.31824,-1.15491 -0.315,-1.05121 -0.36035,-1.12225 -0.0858,-0.25824"
       style="fill:#ffffff;fill-opacity:0;fill-rule:nonzero;stroke:#000000;stroke-width:3.10577;stroke-linecap:round;stroke-linejoin:round;stroke-miterlimit:10;stroke-dasharray:none;stroke-opacity:1"
       transform="scale(0.32012804)" />
    <path
       id="path143"
       d="m 562.13721,671.46185 0.94854,0.56299 0.96259,0.75488 0.94214,0.84266 0.79083,0.79211 0.71838,0.80341 0.79242,0.98931 0.56238,0.83625 0.66211,1.1195 0.46674,0.89362 0.44677,0.97894 0.35914,0.98059 0.38134,1.24066 0.32587,1.27643 0.20795,1.07074 0.177,1.1969 0.0997,1.07056 0.0267,1.12292 -0.0416,1.07282 -0.10242,1.00854 -0.16113,1.14801 -0.23609,1.28296 -0.23242,1.06403 -0.26874,1.05652 -0.32525,1.16278 -0.33826,1.01782 -0.36114,0.98047 -0.43195,1.0448 -0.43152,0.90411 -0.58844,1.09961 -0.6831,1.09308 -0.63495,0.89423 -0.72724,0.89721 -0.82306,0.87574 -0.80987,0.77569 -0.77258,0.67542 -0.81165,0.65094 -0.91894,0.68835 -0.90308,0.64594 -0.97791,0.65185 -0.60461,0.3935"
       style="fill:#ffffff;fill-opacity:0;fill-rule:nonzero;stroke:#000000;stroke-width:2.97177;stroke-linecap:round;stroke-linejoin:round;stroke-miterlimit:10;stroke-dasharray:none;stroke-opacity:1"
       transform="scale(0.32012804)" />
    <path
       id="path144"
       d="m 566.54382,678.81964 -0.87677,0.59717 -0.77801,0.84131 -0.75348,0.9696 -0.60077,0.83515 -0.61639,0.89312 -0.57221,0.90284 -0.51263,0.89489 -0.49115,1.03284 -0.39618,0.97546 -0.36023,1.03663 -0.30499,0.98596 -0.27747,1.09381 -0.20728,1.06006 -0.17053,1.19195 -0.11371,1.11963 -0.0304,1.12891 0.0283,1.05316 0.15277,1.22497 0.20886,1.15906 0.36096,1.1676 0.43457,0.96149 0.55622,0.96881 0.62146,0.82672 0.77826,0.75074 0.83245,0.70074"
       style="fill:#ffffff;fill-opacity:0;fill-rule:nonzero;stroke:#000000;stroke-width:3.09252;stroke-linecap:round;stroke-linejoin:round;stroke-miterlimit:10;stroke-dasharray:none;stroke-opacity:1"
       transform="scale(0.32012804)" />
    <path
       id="path145"
       d="m 433.4024,712.53735 -0.69342,0.84418 -0.80078,0.82874 -0.70431,0.74951 -0.745,0.81152 -0.76306,0.77173 -0.83813,0.84747 -0.79145,0.81928 -0.76797,0.81933 -0.68134,0.74439 -0.78625,0.84759 -0.85718,0.90778 -0.86291,0.8894 -0.84934,0.87738 -0.87521,0.91944 -0.85974,0.91137 -0.82755,0.89942 -0.80087,0.89404 -0.84729,0.97357 -0.70456,0.84186 -0.83115,1.0268 -0.67065,0.86792 -0.69989,0.92895 -0.76398,1.03204 -0.59302,0.82685 -0.65603,0.92816 -0.60794,0.88544 -0.67682,1.02893 -0.59638,0.94647 -0.58606,0.98706 -0.63299,1.13544 -0.55719,1.05365 -0.53287,1.08703 -0.42364,0.91522 -0.41785,0.95258 -0.41553,1.00452 -0.37155,0.97351 -0.35309,0.99707 -0.34961,1.08343 -0.34772,1.18732 -0.3016,1.16925 -0.25388,1.20465 -0.20404,1.16431 -0.18399,1.31671 -0.10678,1.01282 -0.0762,1.20843 -0.006,1.00202 0.0423,1.09497 0.0932,1.07086 0.13763,1.05243 0.17432,1.03113 0.22036,1.02642 0.25885,1.00086 0.29035,0.98682 0.36828,1.0802 0.36533,0.95733 0.39639,0.92847 0.44474,0.90503 0.4812,0.90924 0.58529,0.99872 0.66895,1.01037 0.6542,0.86939 0.77723,0.91797 0.77325,0.81103 0.75864,0.71082 0.86624,0.74768 0.81427,0.6521 0.99255,0.74585 0.93594,0.65118 0.94556,0.62616 1.07263,0.68024 1.01889,0.61474 0.88031,0.51337 1.04834,0.58936 1.04361,0.58868 0.88202,0.48572 0.9906,0.51568 0.90329,0.44135 1.0325,0.45196 1.05088,0.40735 0.9606,0.32251 1.10034,0.30054 1.23706,0.26428 1.04309,0.1742 1.05026,0.14196 1.06003,0.11408 1.07398,0.0866 1.06747,0.0666 1.17926,0.0557 1.18338,0.0408 1.05716,0.0281 1.28479,0.019 1.05316,0.004 1.34543,-0.009 1.11868,-0.025 1.12384,-0.0431 1.35224,-0.0734 1.19586,-0.0906 1.15637,-0.0986 1.08014,-0.0979 1.16449,-0.11535 1.26654,-0.14063 1.1398,-0.14032 1.14435,-0.15332 1.03018,-0.15283 1.14636,-0.19464 1.15302,-0.21149 1.03342,-0.20831 1.14248,-0.2547 1.13825,-0.2713 1.33166,-0.3418 1.31412,-0.35132 1.16928,-0.32263 1.03198,-0.29492 1.0376,-0.30164 1.02423,-0.3092 1.04236,-0.31702 0.99722,-0.31158 0.98404,-0.31159 1.04142,-0.33477 0.96188,-0.32105 1.05014,-0.36041 0.94754,-0.33295 0.95938,-0.33825 1.04102,-0.37928 0.94781,-0.35064 1.18344,-0.44489 1.00485,-0.38959 1.17167,-0.46594 1.09213,-0.44391 1.01053,-0.41266 1.16955,-0.49804 1.0643,-0.45056 1.09012,-0.461 0.99323,-0.41742 1.10022,-0.46039 1.02438,-0.44391 1.03662,-0.45538 0.95236,-0.42121 1.03504,-0.466 0.98678,-0.46246 1.15793,-0.53858 1.18756,-0.54907 1.11786,-0.53546 0.96686,-0.46698 0.90945,-0.44043 0.9458,-0.46173 1.07972,-0.53815 1.10919,-0.55768 1.13354,-0.58398 1.11817,-0.59094 1.12304,-0.60901 1.10569,-0.60669 1.04892,-0.57587 0.95459,-0.53357 0.94604,-0.53094 0.91351,-0.51837 0.90662,-0.50409 0.88916,-0.50556 0.92291,-0.52673 0.9057,-0.51795 0.88111,-0.49493 1.04053,-0.58368 1.03967,-0.57489 0.89746,-0.50494 1.08642,-0.60517 0.87153,-0.49151 0.9992,-0.54749 1.04718,-0.54956 0.91583,-0.45135 1.05481,-0.52191 1.03894,-0.50696 1.0318,-0.51056 1.00977,-0.49622 0.99261,-0.4743 1.01856,-0.46045 1.09143,-0.45776 1.00763,-0.43097 0.96503,-0.4159 1.16235,-0.49237 0.99591,-0.40533 0.9342,-0.35956 1.08356,-0.4148 1.06574,-0.3847 1.11096,-0.38178 1.07806,-0.34057 1.03314,-0.27271 1.01996,-0.23413 1.07233,-0.26166 1.05804,-0.27587 1.02417,-0.30701 1.0221,-0.25647 1.02057,-0.21924 1.14441,-0.20557 1.12207,-0.28216 1.16467,-0.28943 1.08795,-0.22797 1.04083,-0.2185 1.11322,-0.3197 1.12653,-0.28272 4.34723,-1.00903"
       style="fill:#ffffff;fill-opacity:0;fill-rule:nonzero;stroke:#000000;stroke-width:3.02331;stroke-linecap:round;stroke-linejoin:round;stroke-miterlimit:10;stroke-dasharray:none;stroke-opacity:1"
       transform="scale(0.32012804)" />
    <path
       id="path146"
       d="m 474.28821,743.34875 -0.26267,1.01001 -0.47763,1.04371 -0.54153,1.00634 -0.6467,1.03431 -0.66077,0.95379 -0.6214,0.84271 -0.69693,0.88239 -0.72439,0.85406 -0.68991,0.76386 -0.83121,0.87085 -0.80521,0.79394 -0.79745,0.74994 -1.00388,0.8692 -0.87643,0.69928 -1.08847,0.80396 -1.01608,0.71777 -0.88004,0.59503 -0.97085,0.62751 -0.98826,0.60547 -0.9013,0.52136 -1.0874,0.5824 -0.95642,0.45959 -1.07331,0.4975 -1.1362,0.48895 -0.98678,0.40106 -1.01224,0.40119 -1.02728,0.38745 -1.0987,0.38769 -1.10623,0.37213 -1.15723,0.36634 -1.26062,0.36432 -1.26083,0.33331 -1.23962,0.28516 -1.18821,0.23931 -1.18881,0.19068 -1.24686,0.14648 -1.2637,0.0831 -1.17779,0.0297 -1.04859,-0.005 -1.0989,-0.0279 -1.22614,-0.0585 -9.57156,-0.59442"
       style="fill:#ffffff;fill-opacity:0;fill-rule:nonzero;stroke:#000000;stroke-width:2.97177;stroke-linecap:round;stroke-linejoin:round;stroke-miterlimit:10;stroke-dasharray:none;stroke-opacity:1"
       transform="scale(0.32012804)" />
    <path
       id="path147"
       d="m 435.43335,764.73279 0.16406,-1.04962 0.55454,-1.07135 0.65338,-1.00171 0.59604,-0.81342 0.73053,-0.88067 0.82724,-0.85444 0.87094,-0.81237 0.83523,-0.71967 0.86432,-0.68506 0.99863,-0.73236 0.98569,-0.68054 0.92514,-0.59644 0.99505,-0.58233 1.07932,-0.57514 0.9588,-0.46606 0.93744,-0.42426 1.14944,-0.47747 1.19678,-0.44916 1.05618,-0.36121 1.2269,-0.38354 1.1936,-0.33863 1.07432,-0.27142 1.04333,-0.22046 1.0206,-0.16638 1.11206,-0.13831 1.02994,-0.10589 1.14728,-0.0926 1.11138,-0.0602 1.10932,-0.0245 6.27255,-0.0256"
       style="fill:#ffffff;fill-opacity:0;fill-rule:nonzero;stroke:#000000;stroke-width:3.13228;stroke-linecap:round;stroke-linejoin:round;stroke-miterlimit:10;stroke-dasharray:none;stroke-opacity:1"
       transform="scale(0.32012804)" />
    <path
       id="path148"
       d="m 470.20456,594.43561 1.01202,-0.19654 1.03308,-0.23852 1.04947,-0.24817 1.07923,-0.16467 1.06671,-0.10578 1.11975,-0.0527 1.12207,-0.0193 1.07465,-0.006 1.1307,0.006 1.06247,0.0297 1.15375,0.0585 1.11731,0.0951 1.16382,0.0978 1.00781,0.0681 1.08652,0.0522 1.16272,0.0562 1.11602,0.0508 1.02903,0.0334 1.18811,0.0372 1.00805,0.0444 1.09797,0.0439 1.18569,0.0576 1.11414,0.0869 1.10416,0.10358 1.11139,0.0855 1.08093,0.0817 1.09506,0.10541 1.13608,0.12238 1.12051,0.15283 1.10221,0.19977 1.05163,0.24328 0.82678,0.21473"
       style="fill:#ffffff;fill-opacity:0;fill-rule:nonzero;stroke:#000000;stroke-width:2.71085;stroke-linecap:round;stroke-linejoin:round;stroke-miterlimit:10;stroke-dasharray:none;stroke-opacity:1"
       transform="scale(0.32012804)" />
    <path
       id="path149"
       d="m 518.55548,595.73486 -0.0194,0.46906 -0.0602,0.48028 -0.10419,0.48645 -0.15026,0.48694 -0.19758,0.48102 -0.24487,0.46838 -0.29095,0.44886 -0.33448,0.42279 -0.37414,0.39056 -0.409,0.35278 -0.43792,0.31092 -0.46045,0.26581 -0.4762,0.21893 -0.48511,0.17145 -0.48742,0.12469 -0.48371,0.0797 -0.47461,0.0374 -0.4657,-0.002 -0.47583,-0.0415 -0.48431,-0.0841 -0.48749,-0.12939 -0.48449,-0.17621 -0.47486,-0.22369 -0.45856,-0.27051 -0.43527,-0.31525 -0.40573,-0.35687 -0.37039,-0.39398 -0.3302,-0.42566 -0.28641,-0.45117 -0.24014,-0.46997 -0.19275,-0.48194 -0.14557,-0.48712 -0.0996,-0.48614 -0.056,-0.47937 -0.0154,-0.46784 0.0233,-0.47034 0.0646,-0.48114 0.10877,-0.48675 0.15496,-0.48663 0.20237,-0.48005 0.24957,-0.46673 0.29547,-0.44653 0.33865,-0.4198 0.3779,-0.38697 0.41217,-0.34875 0.44052,-0.30652 0.46238,-0.26117 0.47735,-0.21405 0.48563,-0.16669 0.48736,-0.12005 0.48301,-0.0753 0.47345,-0.0333 0.46594,0.006 0.47687,0.0456 0.48498,0.0886 0.48749,0.13403 0.48376,0.18103 0.47358,0.2284 0.45648,0.27514 0.43255,0.31964 0.40247,0.36084 0.36652,0.39746 0.32592,0.42853 0.28186,0.45343 0.23535,0.47138 0.18799,0.48278 0.14087,0.48731 0.0952,0.48572 0.0517,0.47833 0.0123,0.37347 z"
       style="fill:#000000;fill-opacity:0;fill-rule:nonzero;stroke:#000000;stroke-width:3;stroke-linecap:round;stroke-linejoin:round;stroke-miterlimit:10;stroke-dasharray:none;stroke-opacity:1"
       transform="matrix(-0.22332114,0.22936761,-0.22936517,-0.22332148,414.78959,206.31031)" />
    <path
       id="path150"
       d="m 516.51733,599.28455 0.74988,-0.31806 1.07453,0.29407 1.06622,0.35748 1.07977,0.38129 1.03589,0.38891 1.03149,0.35767 1.04041,0.35956 1.0144,0.3808 1.06073,0.42321 1.0409,0.43958 1.10821,0.50305 0.9925,0.48126 1.12762,0.54749 1.03705,0.50171 1.01434,0.51196 1.01258,0.54474 0.9367,0.51758 1.026,0.56738 1.03394,0.57672 1.03912,0.60291 1.04938,0.61926 1.00543,0.57251 0.9079,0.5025 1.02832,0.56256 0.96497,0.53101 0.98828,0.55933 1.09381,0.61706 1.05017,0.59625 1.05286,0.61805 0.93066,0.55133 0.8764,0.51941 1.01044,0.60345 1.01941,0.61615 0.96527,0.60022 1.05591,0.66785 1.01422,0.66284 0.82635,0.56927 0.8841,0.63324 0.97558,0.70398 0.96216,0.69617 0.9809,0.68573 1.00494,0.65912 0.95862,0.63464 0.97846,0.65955 0.90319,0.59704 0.94483,0.66083 0.92584,0.68787 0.87311,0.68127 0.89105,0.69965 0.80908,0.63354 0.8443,0.6557 0.82898,0.64014 0.94373,0.72241 0.9505,0.72302 0.79974,0.6156 0.95056,0.72889 0.93476,0.70245 0.96154,0.72223 0.91645,0.69342 0.87487,0.66309 0.82721,0.62762 0.53394,0.40295"
       style="fill:#ffffff;fill-opacity:0;fill-rule:nonzero;stroke:#000000;stroke-width:2.5906;stroke-linecap:round;stroke-linejoin:round;stroke-miterlimit:10;stroke-dasharray:none;stroke-opacity:1"
       transform="scale(0.32012804)" />
    <path
       id="path151"
       d="m 576.33783,634.20306 0.92163,0.70264 0.98364,0.76715 0.89337,0.7171 0.90033,0.74482 0.84882,0.73748 0.92249,0.82654 0.88183,0.80023 0.84998,0.77967 0.84204,0.78961 0.79895,0.80231 0.69946,0.7398 0.77802,0.85773 0.7796,0.90955 0.68072,0.82916 0.75135,0.94281 0.70733,0.89825 0.68036,0.86945 0.66644,0.86969 0.62677,0.8714 0.63892,0.91522 0.60632,0.91296 0.62677,0.94538 0.56092,0.92779 0.57855,0.94361 0.53631,0.94293 0.45252,0.94885 0.33258,0.98785 0.26196,1.02625"
       style="fill:#ffffff;fill-opacity:0;fill-rule:nonzero;stroke:#000000;stroke-width:3.59216;stroke-linecap:round;stroke-linejoin:round;stroke-miterlimit:10;stroke-dasharray:none;stroke-opacity:1"
       transform="scale(0.32012804)" />
  </g>
</svg>
