<?xml version="1.0" encoding="UTF-8" standalone="no"?>
<!-- Created with Inkscape (http://www.inkscape.org/) -->

<svg
   version="1.1"
   id="svg1"
   width="123.70645"
   height="122.59794"
   viewBox="0 0 123.70645 122.59794"
   sodipodi:docname="Untitled 2025-08-23 (2).pdf"
   xmlns:inkscape="http://www.inkscape.org/namespaces/inkscape"
   xmlns:sodipodi="http://sodipodi.sourceforge.net/DTD/sodipodi-0.dtd"
   xmlns="http://www.w3.org/2000/svg"
   xmlns:svg="http://www.w3.org/2000/svg">
  <defs
     id="defs1" />
  <sodipodi:namedview
     id="namedview1"
     pagecolor="#ffffff"
     bordercolor="#000000"
     borderopacity="0.25"
     inkscape:showpageshadow="2"
     inkscape:pageopacity="0.0"
     inkscape:pagecheckerboard="0"
     inkscape:deskcolor="#d1d1d1">
    <inkscape:page
       x="0"
       y="0"
       width="123.70645"
       height="122.59794"
       id="page2"
       margin="0"
       bleed="0" />
  </sodipodi:namedview>
  <g
     id="g1"
     inkscape:groupmode="layer"
     inkscape:label="1"
     transform="translate(-282.06284,-91.78408)">
    <path
       id="path1"
       d="m 560.89374,284.45825 h 0.5 0.5 0.5 0.5 0.5 0.5 0.5 0.5 0.5 0.5 0.5 0.5 0.5 0.5 0.5 0.5 0.5 0.5 0.5 0.5 0.5 0.5 0.5 0.5 0.5 0.5 0.5 0.5 0.5 0.5 0.5 0.5 0.5 0.5 0.5 0.5 0.5 0.5 0.5 0.5 0.5 0.5 0.5 0.5 0.5 0.5 0.5 0.5 0.5 0.5 0.5 0.5 0.5 0.5 0.5 0.5 0.5 0.5 0.5 0.5 0.5 0.5 0.5 0.5 0.5 0.5 0.5 0.5 0.5 0.5 0.5 0.5 0.5 0.5 0.5 0.5 0.5 0.5 0.5 0.5 0.5 0.5 0.5 0.5 0.5 0.5 0.5 0.5 0.5 0.5 0.5 0.5 0.5 0.5 0.5 0.5 0.5 0.5 0.5 0.5 0.5 0.5 0.5 0.5 0.5 0.5 0.5 0.5 0.5 0.5 0.5 0.5 0.5 0.5 0.5 0.5 0.5 0.5 0.5 0.5 0.5 0.5 0.5 0.5 0.5 0.5 0.5 0.5 0.5 0.5 0.5 0.5 0.5 0.5 0.5 0.5 0.5 0.5 0.5 0.5 0.5 0.5 0.5 0.5 0.5 0.5 0.5 0.5 0.5 0.5 0.5 0.5 0.5 0.5 0.5 0.5 0.5 0.5 0.5 0.5 0.5 0.5 0.5 0.5 0.5 0.5 0.5 0.5 0.5 0.5 0.5 0.5 0.5 0.5 0.5 0.5 0.5 0.5 0.5 0.5 0.5 0.5 0.5 0.5 0.5 0.5 0.5 0.5 0.5 0.5 0.5 0.5 0.5 0.5 0.5 0.5 0.5 0.5 0.5 0.5 0.5 0.5 0.5 0.5 0.5 0.5 0.5 0.5 0.5 0.5 0.5 0.5 0.5 0.5 0.5 0.5 0.5 0.5 0.5 0.5 0.5 0.5 0.5 0.5 0.5 0.5 0.5 0.5 0.5 0.5 0.5 0.5 0.5 0.5 0.5 0.5 0.5 0.5 0.5 0.5 0.5 0.5 0.5 0.5 0.5 0.5 0.5 0.5 0.5 0.5 0.5 0.5 0.5 0.5 0.5 0.5 0.5 0.5 0.5 0.5 0.5 0.5 0.5 0.5 0.5 0.5 0.5 0.5 0.5 0.5 0.5 0.5 0.5 0.5 0.5 0.5 0.5 0.5 0.5 0.5 0.5 0.5 0.5 0.5 0.5 0.5 0.5 0.5 0.5 0.5 0.5 0.5 0.5 0.5 0.5 0.5 0.5 0.5 0.5 0.5 0.5 0.5 0.5 0.5 0.5 0.5 0.5 0.5 0.5 0.5 0.5 0.5 0.5 0.5 0.5 0.5 0.5 0.5 0.5 0.5 0.5 0.5 0.5 0.5 0.5 0.5 0.5 0.5 0.5 0.5 0.5 0.5 0.5 0.5 0.5 0.5 0.5 0.5 0.5 0.5 0.5 0.5 0.5 0.5 0.5 0.5 0.5 0.5 0.5 0.5 0.5 0.5 0.5 0.5 0.5 0.5 0.5 0.5 0.5 0.5 0.5 0.5 0.5 0.5 0.5 0.5 0.5 0.5 0.5 0.5 0.5 0.5 0.5 0.5 0.5 0.5 0.5 0.5 0.5 0.5 0.5 0.5 0.5 0.5 0.5 0.5 0.5 0.5 0.5 0.5 0.5 0.5 0.5 0.5 0.5 0.5 0.5 0.5 0.5 0.5 0.5 0.5 0.5 0.5 0.5 0.5 0.5 0.5 0.5 0.5 0.5 0.5 0.5 0.5 0.5 0.5 0.5 0.5 0.5 0.5 0.5 0.5 0.5 0.5 0.5 0.5 0.5 0.5 0.5 0.5 0.5 0.5 0.5 0.5 0.5 0.5 0.5 0.5 0.5 0.5 0.5 0.5 0.5 0.5 0.5 0.5 0.5 0.5 0.5 0.5 0.5 0.5 0.5 0.5 0.5 0.5 0.5 0.5 0.5 0.5 0.5 0.5 0.5 0.5 0.5 0.5 0.5 0.5 0.5 0.5 0.5 0.5 0.5 0.5 0.5 0.5 0.5 0.5 0.5 0.5 0.5 0.5 0.5 0.5 0.5 0.5 0.5 0.5 0.5 0.5 0.5 0.5 0.5 0.5 0.5 0.5 0.5 0.5 0.5 0.5 0.5 0.5 0.5 0.5 0.5 0.5 0.5 0.5 0.5 0.5 0.5 0.5 0.5 0.5 0.5 0.5 0.5 0.5 0.5 0.5 0.5 0.5 0.5 0.5 0.5 0.5 0.5 0.5 0.5 0.5 0.5 0.5 0.5 0.5 0.5 0.5 0.5 0.5 0.5 0.5 0.5 0.5 0.5 0.5 0.5 0.5 0.5 0.5 0.5 0.5 0.5 0.5 0.5 0.5 0.5 0.5 0.5 0.5 0.5 0.5 0.5 0.5 0.5 0.5 0.5 0.5 0.5 0.5 0.5 0.5 0.5 0.5 0.5 0.5 0.5 0.5 0.5 0.5 0.5 0.5 0.5 0.5 0.5 0.5 0.5 0.5 0.5 0.5 0.5 0.5 0.5 0.5 0.5 0.5 0.5 0.5 0.5 0.5 0.5 0.5 0.5 0.5 0.5 0.5 0.5 0.5 0.5 0.5 0.5 0.5 0.5 0.5 0.5 0.5 0.5 0.5 0.5 0.5 0.5 0.5 0.5 0.5 0.5 0.5 0.5 0.5 0.5 0.5 0.5 0.5 0.5 0.5 0.5 0.5 0.5 0.5 0.5 0.5 0.5 0.5 0.5 0.5 0.5 0.5 0.5 0.5 0.5 0.5 0.5 0.5 0.5 0.5 0.5 0.5 0.5 0.5 0.5 0.5 0.5 0.5 0.5 0.5 0.5 0.5 0.5 0.5 0.5 0.5 0.5 0.5 0.5 0.5 0.5 0.5 0.5 0.5 0.5 0.5 0.5 0.5 0.5 0.5 0.5 0.5 0.5 0.5 0.5 0.5 0.5 0.5 0.5 0.5 0.5 0.5 0.5 0.5 0.5 0.5 0.5 0.5 0.5 0.5 0.5 0.5 0.5 0.5 0.5 0.5 0.5 0.5 0.5 0.5 0.5 0.5 0.5 0.5 0.5 0.5 l 0.21136,0.28864 v 0.5 0.5 0.5 0.5 0.5 0.5 0.5 0.5 0.5 0.5 0.5 0.5 0.5 0.5 0.5 0.5 0.5 0.5 0.5 0.5 0.5 0.5 0.5 0.5 0.5 0.5 0.5 0.5 0.5 0.5 0.5 0.5 0.5 0.5 0.5 0.5 0.5 0.5 0.5 0.5 0.5 0.5 0.5 0.5 0.5 0.5 0.5 0.5 0.5 0.5 0.5 0.5 0.5 0.5 0.5 0.5 0.5 0.5 0.5 0.5 0.5 0.5 0.5 0.5 0.5 0.5 0.5 0.5 0.5 0.5 0.5 0.5 0.5 0.5 0.5 0.5 0.5 0.5 0.5 0.5 0.5 0.5 0.5 0.5 0.5 0.5 0.5 0.5 0.5 0.5 0.5 0.5 0.5 0.5 0.5 0.5 0.5 0.5 0.5 0.5 0.5 0.5 0.5 0.5 0.5 0.5 0.5 0.5 0.5 0.5 0.5 0.5 0.5 0.5 0.5 0.5 0.5 0.5 0.5 0.5 0.5 0.5 0.5 0.5 0.5 0.5 0.5 0.5 0.5 0.5 0.5 0.5 0.5 0.5 0.5 0.5 0.5 0.5 0.5 0.5 0.5 0.5 0.5 0.5 0.5 0.5 0.5 0.5 0.5 0.5 0.5 0.5 0.5 0.5 0.5 0.5 0.5 0.5 0.5 0.5 0.5 0.5 0.5 0.5 0.5 0.5 0.5 0.5 0.5 0.5 0.5 0.5 0.5 0.5 0.5 0.5 0.5 0.5 0.5 0.5 0.5 0.5 0.5 0.5 0.5 0.5 0.5 0.5 0.5 0.5 0.5 0.5 0.5 0.5 0.5 0.5 0.5 0.5 0.5 0.5 0.5 0.5 0.5 0.5 0.5 0.5 0.5 0.5 0.5 0.5 0.5 0.5 0.5 0.5 0.5 0.5 0.5 0.5 0.5 0.5 0.5 0.5 0.5 0.5 0.5 0.5 0.5 0.5 0.5 0.5 0.5 0.5 0.5 0.5 0.5 0.5 0.5 0.5 0.5 0.5 0.5 0.5 0.5 0.5 0.5 0.5 0.5 0.5 0.5 0.5 0.5 0.5 0.5 0.5 0.5 0.5 0.5 0.5 0.5 0.5 0.5 0.5 0.5 0.5 0.5 0.5 0.5 0.5 0.5 0.5 0.5 0.5 0.5 0.5 0.5 0.5 0.5 0.5 0.5 0.5 0.5 0.5 0.5 0.5 0.5 0.5 0.5 0.5 0.5 0.5 0.5 0.5 0.5 0.5 0.5 0.5 0.5 0.5 0.5 0.5 0.5 0.5 0.5 0.5 0.5 0.5 0.5 0.5 0.5 0.5 0.5 0.5 0.5 0.5 0.5 0.5 0.5 0.5 0.5 0.5 0.5 0.5 0.5 0.5 0.5 0.5 0.5 0.5 0.5 0.5 0.5 0.5 0.5 0.5 0.5 0.5 0.5 0.5 0.5 0.5 0.5 0.5 0.5 0.5 0.5 0.5 0.5 0.5 0.5 0.5 0.5 0.5 0.5 0.5 0.5 0.5 0.5 0.5 0.5 0.5 0.5 0.5 0.5 0.5 0.5 0.5 0.5 0.5 0.5 0.5 0.5 0.5 0.5 0.5 0.5 0.5 0.5 0.5 0.5 0.5 0.5 0.5 0.5 0.5 0.5 0.5 0.5 0.5 0.5 0.5 0.5 0.5 0.5 0.5 0.5 0.5 0.5 0.5 0.5 0.5 0.5 0.5 0.5 0.5 0.5 0.5 0.5 0.5 0.5 0.5 0.5 0.5 0.5 0.5 0.5 0.5 0.5 0.5 0.5 0.5 0.5 0.5 0.5 0.5 0.5 0.5 0.5 0.5 0.5 0.5 0.5 0.5 0.5 0.5 0.5 0.5 0.5 0.5 0.5 0.5 0.5 0.5 0.5 0.5 0.5 0.5 0.5 0.5 0.5 0.5 0.5 0.5 0.5 0.5 0.5 0.5 0.5 0.5 0.5 0.5 0.5 0.5 0.5 0.5 0.5 0.5 0.5 0.5 0.5 0.5 0.5 0.5 0.5 0.5 0.5 0.5 0.5 0.5 0.5 0.5 0.5 0.5 0.5 0.5 0.5 0.5 0.5 0.5 0.5 0.5 0.5 0.5 0.5 0.5 0.5 0.5 0.5 0.5 0.5 0.5 0.5 0.5 0.5 0.5 0.5 0.5 0.5 0.5 0.5 0.5 0.5 0.5 0.5 0.5 0.5 0.5 0.5 0.5 0.5 0.5 0.5 0.5 0.5 0.5 0.5 0.5 0.5 0.5 0.5 0.5 0.5 0.5 0.5 0.5 0.5 0.5 0.5 0.5 0.5 0.5 0.5 0.5 0.5 0.5 0.5 0.5 0.5 0.5 0.5 0.5 0.5 0.5 0.5 0.5 0.5 0.5 0.5 0.5 0.5 0.5 0.5 0.5 0.5 0.5 0.5 0.5 0.5 0.5 0.5 0.5 0.5 0.5 0.5 0.5 0.5 0.5 0.5 0.5 0.5 0.5 0.5 0.5 0.5 0.5 0.5 0.5 0.5 0.5 0.5 0.5 0.5 0.5 0.5 0.5 0.5 0.5 0.5 0.5 0.5 0.5 0.5 0.5 0.5 0.5 0.5 0.5 0.5 0.5 0.5 0.5 0.5 0.5 0.5 0.5 0.5 0.5 0.5 0.5 0.5 0.5 0.5 0.5 0.5 0.5 0.5 0.5 0.5 0.5 0.5 0.5 0.5 0.5 0.5 0.5 0.5 0.5 0.5 0.5 0.5 0.5 0.5 0.5 0.5 0.5 0.5 0.5 0.5 0.5 0.5 0.5 0.5 0.5 0.5 0.5 0.5 0.5 0.5 0.5 0.5 0.5 0.5 0.5 0.5 0.5 0.5 0.5 0.5 0.5 0.5 0.5 0.5 0.5 0.5 0.5 0.5 0.5 0.5 0.5 0.5 0.5 0.5 0.5 0.5 0.5 0.5 0.5 0.5 0.5 0.5 0.5 0.5 0.5 0.5 0.5 0.5 0.5 0.5 0.5 0.5 0.5 0.5 0.5 0.5 0.5 0.5 0.5 0.5 0.5 0.5 0.5 0.5 0.5 0.5 0.5 l -0.0284,0.47155 h -0.5 -0.5 -0.5 -0.5 -0.5 -0.5 -0.5 -0.5 -0.5 -0.5 -0.5 -0.5 -0.5 -0.5 -0.5 -0.5 -0.5 -0.5 -0.5 -0.5 -0.5 -0.5 -0.5 -0.5 -0.5 -0.5 -0.5 -0.5 -0.5 -0.5 -0.5 -0.5 -0.5 -0.5 -0.5 -0.5 -0.5 -0.5 -0.5 -0.5 -0.5 -0.5 -0.5 -0.5 -0.5 -0.5 -0.5 -0.5 -0.5 -0.5 -0.5 -0.5 -0.5 -0.5 -0.5 -0.5 -0.5 -0.5 -0.5 -0.5 -0.5 -0.5 -0.5 -0.5 -0.5 -0.5 -0.5 -0.5 -0.5 -0.5 -0.5 -0.5 -0.5 -0.5 -0.5 -0.5 -0.5 -0.5 -0.5 -0.5 -0.5 -0.5 -0.5 -0.5 -0.5 -0.5 -0.5 -0.5 -0.5 -0.5 -0.5 -0.5 -0.5 -0.5 -0.5 -0.5 -0.5 -0.5 -0.5 -0.5 -0.5 -0.5 -0.5 -0.5 -0.5 -0.5 -0.5 -0.5 -0.5 -0.5 -0.5 -0.5 -0.5 -0.5 -0.5 -0.5 -0.5 -0.5 -0.5 -0.5 -0.5 -0.5 -0.5 -0.5 -0.5 -0.5 -0.5 -0.5 -0.5 -0.5 -0.5 -0.5 -0.5 -0.5 -0.5 -0.5 -0.5 -0.5 -0.5 -0.5 -0.5 -0.5 -0.5 -0.5 -0.5 -0.5 -0.5 -0.5 -0.5 -0.5 -0.5 -0.5 -0.5 -0.5 -0.5 -0.5 -0.5 -0.5 -0.5 -0.5 -0.5 -0.5 -0.5 -0.5 -0.5 -0.5 -0.5 -0.5 -0.5 -0.5 -0.5 -0.5 -0.5 -0.5 -0.5 -0.5 -0.5 -0.5 -0.5 -0.5 -0.5 -0.5 -0.5 -0.5 -0.5 -0.5 -0.5 -0.5 -0.5 -0.5 -0.5 -0.5 -0.5 -0.5 -0.5 -0.5 -0.5 -0.5 -0.5 -0.5 -0.5 -0.5 -0.5 -0.5 -0.5 -0.5 -0.5 -0.5 -0.5 -0.5 -0.5 -0.5 -0.5 -0.5 -0.5 -0.5 -0.5 -0.5 -0.5 -0.5 -0.5 -0.5 -0.5 -0.5 -0.5 -0.5 -0.5 -0.5 -0.5 -0.5 -0.5 -0.5 -0.5 -0.5 -0.5 -0.5 -0.5 -0.5 -0.5 -0.5 -0.5 -0.5 -0.5 -0.5 -0.5 -0.5 -0.5 -0.5 -0.5 -0.5 -0.5 -0.5 -0.5 -0.5 -0.5 -0.5 -0.5 -0.5 -0.5 -0.5 -0.5 -0.5 -0.5 -0.5 -0.5 -0.5 -0.5 -0.5 -0.5 -0.5 -0.5 -0.5 -0.5 -0.5 -0.5 -0.5 -0.5 -0.5 -0.5 -0.5 -0.5 -0.5 -0.5 -0.5 -0.5 -0.5 -0.5 -0.5 -0.5 -0.5 -0.5 -0.5 -0.5 -0.5 -0.5 -0.5 -0.5 -0.5 -0.5 -0.5 -0.5 -0.5 -0.5 -0.5 -0.5 -0.5 -0.5 -0.5 -0.5 -0.5 -0.5 -0.5 -0.5 -0.5 -0.5 -0.5 -0.5 -0.5 -0.5 -0.5 -0.5 -0.5 -0.5 -0.5 -0.5 -0.5 -0.5 -0.5 -0.5 -0.5 -0.5 -0.5 -0.5 -0.5 -0.5 -0.5 -0.5 -0.5 -0.5 -0.5 -0.5 -0.5 -0.5 -0.5 -0.5 -0.5 -0.5 -0.5 -0.5 -0.5 -0.5 -0.5 -0.5 -0.5 -0.5 -0.5 -0.5 -0.5 -0.5 -0.5 -0.50006 -0.49994 -0.5 -0.5 -0.5 -0.5 -0.5 -0.50006 -0.49994 -0.5 -0.5 -0.5 -0.5 -0.50006 -0.49994 -0.5 -0.5 -0.5 -0.5 -0.5 -0.50006 -0.49994 -0.5 -0.5 -0.5 -0.5 -0.50006 -0.5 -0.49994 -0.5 -0.5 -0.5 -0.5 -0.50006 -0.5 -0.49994 -0.5 -0.5 -0.5 -0.50006 -0.5 -0.49994 -0.5 -0.5 -0.5 -0.5 -0.50006 -0.5 -0.49994 -0.5 -0.5 -0.5 -0.50006 -0.5 -0.5 -0.49994 -0.5 -0.5 -0.5 -0.50006 -0.5 -0.49994 -0.5 -0.5 -0.5 -0.50006 -0.5 -0.5 -0.49994 -0.5 -0.5 -0.5 -0.50006 -0.5 -0.5 -0.49994 -0.5 -0.5 -0.50006 -0.5 -0.5 -0.49994 -0.5 -0.5 -0.5 -0.50006 -0.5 -0.5 -0.49994 -0.5 -0.5 -0.50006 -0.5 -0.5 -0.5 -0.49994 -0.5 -0.5 -0.50006 -0.5 -0.5 -0.5 -0.49994 -0.5 -0.5 -0.50006 -0.5 -0.5 -0.49994 -0.5 -0.5 -0.50006 -0.5 -0.5 -0.5 -0.49994 -0.5 -0.5 -0.50006 -0.5 -0.5 -0.5 -0.49994 -0.5 -0.50006 -0.5 -0.5 -0.5 -0.49994 -0.5 -0.5 -0.50006 -0.5 -0.5 -0.5 -0.49994 -0.5 -0.50006 -0.5 -0.5 -0.5 -0.5 -0.49994 -0.5 -0.50006 -0.5 -0.5 -0.5 -0.5 -0.49994 -0.50006 -0.49994 -0.5 -0.50006 -0.5 -0.49994 -0.5 -0.5 -0.5 -0.50006 -0.5 -0.5 -0.49994 -0.5 -0.5 -0.5 -0.50006 -0.5 -0.5 -0.49994 -0.5 -0.5 -0.50006 -0.5 -0.5 -0.49994 -0.5 -0.5 -0.5 -0.50006 -0.5 -0.5 -0.49994 -0.5 -0.5 -0.50006 -0.5 -0.5 -0.5 -0.49994 -0.5 -0.5 -0.50006 -0.5 -0.5 -0.49994 -0.5 -0.5 -0.50006 -0.5 -0.5 -0.5 -0.49994 -0.5 -0.5 -0.50006 -0.5 -0.5 -0.5 -0.49994 -0.5 -0.50006 -0.5 -0.5 -0.5 -0.5 -0.49994 -0.5 -0.50006 -0.5 -0.5 -0.5 -0.49994 -0.5 -0.50006 -0.5 -0.5 -0.5 -0.5 -0.49994 -0.5 -0.50006 -0.5 -0.5 -0.5 -0.5 -0.49994 -0.50006 -0.5 -0.5 -0.5 -0.5 -0.49994 -0.5 -0.50006 -0.5 -0.5 -0.5 -0.5 -0.49994 -0.5 -0.50006 -0.5 -0.5 -0.5 -0.5 -0.49994 -0.50006 -0.5 -0.5 -0.5 -0.5 -0.5 -0.49994 -0.50006 -0.5 -0.5 -0.5 -0.5 -0.49994 -0.50006 -0.5 -0.5 -0.5 -0.5 -0.5 -0.49994 -0.50006 -0.5 -0.5 -0.5 -0.5 -0.5 -0.5 -0.5 -0.5 -0.5 -0.5 -0.5 -0.49994 -0.50006 -0.5 -0.5 -0.5 -0.5 -0.5 -0.5 -0.5 -0.5 -0.5 -0.5 -0.5 -0.5 -0.5 -0.5 -0.5 -0.5 -0.5 -0.5 -0.5 -0.5 -0.5 -0.5 -0.5 -0.5 -0.5 -0.5 -0.5 -0.5 -0.5 -0.5 -0.5 -0.5 -0.5 -0.5 -0.5 -0.5 -0.5 -0.5 -0.5 -0.5 -0.5 -0.5 -0.5 -0.5 -0.5 -0.5 -0.5 -0.5 -0.5 -0.5 -0.5 -0.5 -0.5 -0.5 -0.5 -0.5 -0.5 -0.5 -0.5 -0.5 -0.5 -0.5 -0.5 -0.5 -0.5 -0.5 -0.5 l -0.18286,-0.31713 v -0.5 -0.5 -0.5 -0.5 -0.5 -0.5 -0.5 -0.5 -0.5 -0.5 -0.5 -0.5 -0.5 -0.5 -0.5 -0.5 -0.5 -0.5 -0.5 -0.5 -0.5 -0.5 -0.5 -0.5 -0.5 -0.5 -0.5 -0.5 -0.5 -0.5 -0.5 -0.5 -0.5 -0.5 -0.5 -0.5 -0.5 -0.5 -0.5 -0.5 -0.5 -0.5 -0.5 -0.5 -0.5 -0.5 -0.5 -0.5 -0.5 -0.5 -0.5 -0.5 -0.5 -0.5 -0.5 -0.5 -0.5 -0.5 -0.5 -0.5 -0.5 -0.5 -0.5 -0.5 -0.5 -0.5 -0.5 -0.5 -0.5 -0.5 -0.5 -0.5 -0.5 -0.5 -0.5 -0.5 -0.5 -0.5 -0.5 -0.5 -0.5 -0.5 -0.5 -0.5 -0.5 -0.5 -0.5 -0.5 -0.5 -0.5 -0.5 -0.5 -0.5 -0.5 -0.5 -0.5 -0.5 -0.5 -0.5 -0.5 -0.5 -0.5 -0.5 -0.5 -0.5 -0.5 -0.5 -0.5 -0.5 -0.5 -0.5 -0.5 -0.5 -0.5 -0.5 -0.5 -0.5 -0.5 -0.5 -0.5 -0.5 -0.5 -0.5 -0.5 -0.5 -0.5 -0.5 -0.5 -0.5 -0.5 -0.5 -0.5 -0.5 -0.5 -0.5 -0.5 -0.5 -0.5 -0.5 -0.5 -0.5 -0.5 -0.5 -0.5 -0.5 -0.5 -0.5 -0.5 -0.5 -0.5 -0.5 -0.5 -0.5 -0.5 -0.5 -0.5 -0.5 -0.5 -0.5 -0.5 -0.5 -0.5 -0.5 -0.5 -0.5 -0.5 -0.5 -0.5 -0.5 -0.5 -0.5 -0.5 -0.5 -0.5 -0.5 -0.5 -0.5 -0.5 -0.5 -0.5 -0.5 -0.5 -0.5 -0.5 -0.5 -0.5 -0.5 -0.5 -0.5 -0.5 -0.5 -0.5 -0.5 -0.5 -0.5 -0.5 -0.5 -0.5 -0.5 -0.5 -0.5 -0.5 -0.5 -0.5 -0.5 -0.5 -0.5 -0.5 -0.5 -0.5 -0.5 -0.5 -0.5 -0.5 -0.5 -0.5 -0.5 -0.5 -0.5 -0.5 -0.5 -0.5 -0.5 -0.5 -0.5 -0.5 -0.5 -0.5 -0.5 -0.5 -0.5 -0.5 -0.5 -0.5 -0.5 -0.5 -0.5 -0.5 -0.5 -0.5 -0.5 -0.5 -0.5 -0.5 -0.5 -0.5 -0.5 -0.5 -0.5 -0.5 -0.5 -0.5 -0.5 -0.5 -0.5 -0.5 -0.5 -0.5 -0.5 -0.5 -0.49997 -0.5 -0.5 -0.50003 -0.5 -0.5 -0.49997 -0.5 -0.5 -0.5 -0.50003 -0.5 -0.5 -0.49997 -0.5 -0.5 -0.5 -0.50003 -0.5 -0.5 -0.49997 -0.5 -0.5 -0.5 -0.5 -0.50003 -0.5 -0.49997 -0.5 -0.5 -0.5 -0.5 -0.50003 -0.5 -0.49997 -0.5 -0.5 -0.5 -0.5 -0.50003 -0.5 -0.49997 -0.5 -0.5 -0.5 -0.5 -0.5 -0.50003 -0.49997 -0.5 -0.5 -0.5 -0.5 -0.5 -0.50003 -0.49997 -0.5 -0.5 -0.5 -0.5 -0.5 -0.50003 -0.49997 -0.5 -0.5 -0.5 -0.5 -0.5 -0.5 -0.5 -0.5 -0.5 -0.5 -0.5 -0.5 -0.5 -0.5 -0.5 -0.5 -0.5 -0.5 -0.5 -0.5 -0.5 -0.5 -0.5 -0.5 -0.5 -0.5 -0.5 -0.5 -0.5 -0.5 -0.5 -0.5 -0.5 -0.5 -0.5 -0.5 -0.5 -0.49997 -0.50003 -0.50003 -0.49997 -0.5 -0.5 -0.5 -0.49997 -0.50003 -0.50003 -0.49997 -0.5 -0.5 -0.5 -0.49997 -0.50003 -0.50003 -0.49997 -0.5 -0.5 -0.5 -0.49997 -0.50003 -0.50003 -0.49997 -0.5 -0.5 -0.5 -0.49997 -0.50003 -0.49997 -0.50003 -0.5 -0.5 -0.5 -0.49997 -0.50003 -0.49997 -0.50003 -0.5 -0.5 -0.5 -0.49997 -0.50003 -0.49997 -0.50003 -0.5 -0.5 -0.5 -0.49997 -0.50003 -0.49997 -0.50003 -0.5 -0.5 -0.5 -0.49997 -0.50003 -0.49997 -0.50003 -0.5 -0.5 -0.5 -0.49997 -0.50003 -0.49997 -0.50003 -0.5 -0.49997 -0.50003 -0.49997 -0.50003 -0.49997 -0.50003 -0.49997 -0.5 -0.50003 -0.49997 -0.50003 -0.49997 -0.50003 -0.49997 -0.5 -0.50003 -0.49997 -0.50003 -0.49997 -0.50003 -0.49997 -0.5 -0.50003 -0.49997 -0.50003 -0.49997 -0.50003 -0.49997 -0.5 -0.50003 -0.49997 -0.50003 -0.49997 -0.50003 -0.49997 -0.5 -0.50003 -0.49997 -0.50003 -0.49997 -0.50003 -0.49997 -0.5 -0.50003 -0.49997 -0.50003 -0.49997 -0.50003 -0.49997 -0.5 -0.5 -0.5 -0.50003 -0.49997 -0.50003 -0.49997 -0.5 -0.5 -0.5 -0.50003 -0.49997 -0.50003 -0.49997 -0.5 -0.5 -0.5 -0.50003 -0.49997 -0.50003 -0.49997 -0.5 -0.5 -0.5 -0.50003 -0.49997 -0.50003 -0.49997 -0.5 -0.5 -0.5 -0.50003 -0.49997 -0.50003 -0.49997 -0.50003 -0.49997 -0.50003 -0.5 -0.49997 -0.50003 -0.49997 -0.50003 -0.49997 -0.50003 -0.49997 -0.5 -0.50003 -0.49997 -0.50003 -0.49997 -0.50003 -0.49997 -0.5 -0.50003 -0.49997 -0.50003 -0.49997 -0.50003 -0.49997 -0.5 -0.50003 -0.49997 -0.50003 -0.49997 -0.50003 -0.49997 -0.5 -0.50003 -0.49997 -0.50003 -0.49997 -0.50003 -0.49997 -0.5 -0.50003 -0.49997 -0.50003 -0.49997 -0.50003 -0.49997 -0.5 -0.50003 -0.49997 -0.50003 -0.49997 -0.50003 -0.49997 -0.5 -0.50003 -0.49997 -0.50003 -0.49997 -0.50003 -0.49997 -0.5 -0.5 -0.5 -0.50003 -0.49997 -0.50003 -0.49997 -0.5 -0.5 -0.5 -0.50003 -0.49997 -0.50003 -0.49997 -0.5 -0.5 -0.5 -0.50003 -0.49997 -0.50003 -0.49997 -0.5 -0.5 -0.5 -0.50003 -0.49997 -0.50003 -0.49997 -0.5 -0.5 -0.5 -0.50003 -0.49997 -0.50003 -0.49997 -0.5 -0.5 -0.5 -0.50003 -0.49997 -0.50003 -0.49997 -0.5 -0.5 -0.5 -0.5 -0.5 -0.50003 -0.49997 -0.5 -0.5 -0.5 -0.5 -0.5 -0.50003 -0.49997 -0.5 -0.5 -0.5 -0.5 -0.5 -0.50003 -0.49997 -0.5 -0.5 -0.5 -0.5 -0.5 -0.50003 -0.49997 -0.5 -0.5 -0.5 -0.5 -0.5 -0.50003 -0.49997 -0.5 -0.5 -0.5 -0.5 -0.5 -0.50003 -0.49997 -0.5 -0.5 -0.5 -0.5 -0.5 -0.5 -0.5 -0.5 -0.5 -0.5 -0.5 -0.5 -0.5 -0.5 -0.5 -0.5 -0.5 -0.5 -0.5 -0.5 -0.5 -0.5 -0.5 -0.5 -0.5 -0.5 -0.5 -0.5 -0.5 -0.5 -0.5 -0.5 -0.5 -0.5 -0.5 -0.5 -0.5 -0.5 -0.5 -0.5 -0.5 -0.5 -0.5 -0.5 -0.5 -0.5 -0.5 -0.5 -0.5 -0.5 -0.5 -0.5 -0.5 -0.5 -0.5 -0.5 -0.5 -0.5 -0.44312 z"
       style="fill:#000000;fill-opacity:0;fill-rule:nonzero;stroke:#000000;stroke-width:6;stroke-linecap:round;stroke-linejoin:round;stroke-miterlimit:10;stroke-dasharray:none;stroke-opacity:1"
       transform="matrix(0.32012812,0,0,0.32012804,106.64088,4.5052133)"
       inkscape:export-filename="../9a5a71c9/.svg"
       inkscape:export-xdpi="96"
       inkscape:export-ydpi="96" />
    <path
       id="path2"
       d="m 965.44171,374.06067 h 0.5 0.5 0.5 0.5 0.5 0.5 0.5 0.5 0.5 0.5 0.5 0.5 0.5 0.5 0.5 0.5 0.5 0.5 0.5 0.5 0.5 0.5 0.5 0.5 0.5 0.5 0.5 0.5 0.5 0.5 0.5 0.5 0.5 0.5 0.5 0.5 0.5 0.5 0.5 0.5 0.5 0.5 0.5 0.5 0.5 0.5 0.5 0.5 0.5 0.5 0.5 0.5 0.5 0.5 0.5 0.5 0.5 0.5 0.5 0.5 0.5 0.5 0.5 0.5 0.5 0.5 0.5 0.5 0.5 0.49999 0.5 0.5 0.5 0.5 0.5 0.5 0.5 0.5 0.5 0.5 0.5 0.5 0.5 0.5 0.5 0.5 0.5 0.5 0.5 0.5 0.5 0.5 0.5 0.5 0.5 0.5 0.5 0.5 0.5 0.5 0.5 0.5 0.5 0.5 0.5 0.5 0.5 0.5 0.5 0.5 0.5 0.5 0.5 0.5 0.5 0.5 0.5 0.5 0.5 0.5 0.5 0.5 0.5001 0.4999 0.5 0.5 0.5 0.5 0.5 0.5 0.5 0.5 0.5 0.5 0.5 0.5 0.5 0.5 0.5 0.5 0.5 0.5 0.5 0.5 0.5 0.5 0.5 0.5 0.5 0.5 0.5 0.5 0.5 0.5 0.5 0.5 0.5 0.5 0.5 0.5 0.5 0.5 0.5 0.5 0.5 0.5 0.5 0.5001 0.4999 0.5 0.5 0.5 0.5 0.5 0.5 0.5 0.5 0.5 0.5 0.5 0.5 0.5 0.5001 0.5 0.4999 0.5 0.5 0.5 0.5 0.5 0.5 0.5 0.5 0.5 0.5 0.5 0.5 0.5 0.5001 0.5 0.4999 0.5 0.5 0.5 0.5 0.5 0.5 0.5 0.5 0.5 0.5 0.5 0.5 0.5 0.5001 0.5 0.4999 0.5 0.5 0.5 0.5 0.5 0.5 0.5 0.5 0.5 0.5 0.5 0.5 0.5 0.5001 0.4999 0.5 0.5 0.5 0.5 0.5 0.5 0.5 0.5 0.5 0.5 0.5 0.5 0.5 0.5001 0.5 0.4999 0.5 0.5 0.5 0.5 0.5 0.5 0.5 0.5 0.5 0.5 0.5 0.5 0.5 0.5 0.5 0.5 0.5 0.5 0.5 0.5 0.5 0.5 0.5 0.5 0.5 0.5 0.5 0.5 0.5 0.5 0.5 0.5 0.5 0.5 0.5 0.5 0.5 0.5 0.5 0.5 0.5 0.5 0.5 0.5 0.5 0.5 0.5 0.5 0.5 0.5 0.5 0.5 0.5 0.5 0.5 0.5 0.5 0.5 0.5 0.5 0.5 0.5 0.5 0.5 0.5 0.5 0.5 0.5 0.5 0.5 0.5 0.5 0.5 0.5 0.5 0.5 0.5 0.5 0.5 0.5 0.5 0.5 0.5 0.5 0.5 0.5 l 0.4973,0.003 v 0.5 0.5 0.5 0.5 0.5 0.5 0.5 0.5 0.5 0.5 0.5 0.5 0.5 0.5 0.5 0.5 0.5 0.5 0.5 0.5 0.5 0.5 0.5 0.5 0.5 0.5 0.5 0.5 0.5 0.5 0.5 0.5 0.5 0.5 0.5 0.5 0.5 0.5 0.5 0.5 0.5 0.5 0.5 0.5 0.5 0.5 0.5 0.5 0.5 0.5 0.5 0.5 0.5 0.5 0.5 0.5 0.5 0.5 0.5 0.5 0.5 0.5 0.5 0.5 0.5 0.5 0.5 0.5 0.5 0.5 0.5 0.5 0.5 0.5 0.5 0.5 0.5 0.5 0.5 0.5 0.5 0.5 0.5 0.5 0.5 0.5 0.5 0.5 0.5 0.5 0.5 0.5 0.5 0.5 0.5 0.5 0.5 0.5 0.5 0.5 0.5 0.5 0.5 0.5 0.5 0.5 0.5 0.5 0.5 0.5 0.5 0.5 0.5 0.5 0.5 0.5 0.5 0.5 0.5 0.5 0.5 0.5 0.5 0.5 0.5 0.5 0.5 0.5 0.5 0.5 0.5 0.5 0.5 0.5 0.5 0.5 0.5 0.5 0.5 0.5 0.5 0.5 0.5 0.5 0.5 0.5 0.5 0.5 0.5 0.5 0.5 0.5 0.5 0.5 0.5 0.5 0.5 0.5 0.5 0.5 0.5 0.5 0.5 0.5 0.5 0.5 0.5 0.5 0.5 0.5 0.5 0.5 0.5 0.5 0.5 0.5 0.5 0.5 0.5 0.5 0.5 0.5 0.5 0.5 0.5 0.5 0.5 0.5 0.5 0.5 0.5 0.5 0.5 0.5 0.5 0.5 0.5 0.5 0.5 0.5 0.5 0.5 0.5 0.5 0.5 0.5 0.5 0.5 0.5 0.5 0.5 0.5 0.5 0.5 0.5 0.5 0.5 0.5 0.5 0.5 0.5 0.5 0.5 0.5 0.5 0.5 0.5 0.5 0.5 0.5 0.5 0.5 0.5 0.5 0.5 0.5 0.5 0.5 0.5 0.5 0.5 0.5 0.5 0.5 0.5 0.5 0.5 0.5 0.5 0.5 0.5 0.5 0.5 0.5 0.5 0.5 0.5 0.5 0.5 0.5 0.5 0.5 0.5 0.5 0.5 0.5 0.5 0.5 0.5 0.5 0.5 0.5 0.5 0.5 0.5 0.5 0.5 0.5 0.5 0.5 0.5 0.5 0.5 0.5 0.5 0.5 0.5 0.5 0.5 0.5 0.5 0.5 0.5 0.5 0.5 0.5 0.5 0.5 0.5 0.5 0.5 0.5 0.5 0.5 0.5 0.5 0.5 0.5 0.5 0.5 0.5 0.5 0.5 0.5 0.5 0.5 0.5 0.5 0.5 0.5 0.5 0.5 0.5 0.5 0.5 0.5 0.5 0.5 0.5 0.5 0.5 0.5 0.5 0.5 l -0.1035,0.39648 h -0.5 -0.5 -0.5 -0.5 -0.5 -0.5 -0.5 -0.5 -0.5 -0.5 -0.5 -0.5 -0.5 -0.5 -0.5 -0.5 -0.5 -0.5 -0.5 -0.5 -0.5 -0.5 -0.5 -0.5 -0.5 -0.5 -0.5 -0.5 -0.5 -0.5 -0.5 -0.5 -0.5 -0.5 -0.5 -0.5 -0.5 -0.5 -0.5 -0.5 -0.5 -0.5 -0.5 -0.5 -0.5 -0.5 -0.5 -0.5 -0.5 -0.5 -0.5 -0.5 -0.5 -0.5 -0.5 -0.5 -0.5 -0.5 -0.5 -0.5 -0.5 -0.5 -0.5 -0.5 -0.5 -0.5 -0.5 -0.5 -0.5 -0.5 -0.5 -0.5 -0.5 -0.5 -0.5 -0.5 -0.5 -0.5 -0.5 -0.5 -0.5 -0.5 -0.5 -0.5 -0.5 -0.5 -0.5 -0.5 -0.5 -0.5 -0.5 -0.5 -0.5 -0.5 -0.5 -0.5 -0.5 -0.5 -0.5 -0.5 -0.5 -0.5 -0.5 -0.5 -0.5 -0.5 -0.5 -0.5 -0.5 -0.5 -0.5 -0.5 -0.5 -0.5 -0.5 -0.5 -0.5 -0.5 -0.5 -0.5 -0.5 -0.5 -0.5 -0.5 -0.5 -0.5 -0.5 -0.5 -0.5 -0.5 -0.5 -0.5 -0.5 -0.5 -0.5 -0.5 -0.5 -0.5 -0.5 -0.5 -0.5 -0.5 -0.5 -0.5 -0.5 -0.5 -0.5 -0.5 -0.5 -0.5 -0.5 -0.5 -0.5 -0.5 -0.5 -0.5 -0.5 -0.5 -0.5 -0.5 -0.5 -0.5 -0.5 -0.5 -0.5 -0.5 -0.5 -0.5 -0.5 -0.5 -0.5 -0.5 -0.5 -0.5 -0.5 -0.5 -0.5 -0.5 -0.5 -0.5 -0.5 -0.5 -0.5 -0.5 -0.5 -0.5 -0.5 -0.5 -0.5 -0.5 -0.5 -0.5 -0.5 -0.5 -0.5 -0.5 -0.5 -0.5 -0.5 -0.5 -0.5 -0.5 -0.5 -0.5 -0.5 -0.5 -0.5 -0.5 -0.5 -0.5 -0.5 -0.5 -0.5 -0.5 -0.5 -0.5 -0.5 -0.5001 -0.5 -0.5 -0.5 -0.5 -0.5 -0.5 -0.5 -0.5 -0.5 -0.5 -0.5 -0.5 -0.5 -0.5 -0.5 -0.5 -0.5 -0.5 -0.5 -0.5 -0.5 -0.5 -0.5 -0.5 -0.5 -0.5 -0.5 -0.5 -0.5 -0.5 -0.5 -0.5 -0.5 -0.5 -0.5 -0.5 -0.5 -0.5 -0.5 -0.5 -0.5 -0.5 -0.5 -0.5 -0.5 -0.5 -0.5 -0.49995 -0.5 -0.5 -0.5 -0.5 -0.5 -0.5 -0.5 -0.5 -0.5 -0.5 -0.5 -0.5 -0.5 -0.5 -0.5 -0.5 -0.5 -0.5 -0.5 -0.5 -0.5 -0.5 -0.5 -0.5 -0.5 -0.5 -0.5 -0.5 -0.5 -0.5 -0.5 -0.5 -0.5 -0.5 -0.5 -0.5 -0.5 -0.5 -0.5 -0.5 -0.5 -0.5 -0.5 -0.5 -0.5 -0.5 -0.5 -0.5 -0.5 -0.5 -0.5 -0.5 -0.5 -0.5 -0.5 -0.5 -0.5 -0.5 -0.5 -0.5 -0.5 -0.5 -0.5 -0.5 -0.5 -0.5 -0.5 -0.5 l -0.39374,-0.10626 v -0.5 -0.5 -0.5 -0.5 -0.5 -0.5 -0.5 -0.5 -0.5 -0.5 -0.5 -0.5 -0.5 -0.5 -0.5 -0.5 -0.5 -0.5 -0.5 -0.5 -0.5 -0.5 -0.5 -0.5 -0.5 -0.5 -0.5 -0.5 -0.5 -0.5 -0.5 -0.5 -0.5 -0.5 -0.5 -0.5 -0.5 -0.5 -0.5 -0.5 -0.5 -0.5 -0.5 -0.5 -0.5 -0.5 -0.5 -0.5 -0.5 -0.5 -0.5 -0.5 -0.5 -0.5 -0.5 -0.5 -0.5 -0.5 -0.5 -0.5 -0.5 -0.5 -0.5 -0.5 -0.5 -0.5 -0.5 -0.5 -0.5 -0.5 -0.5 -0.5 -0.5 -0.5 -0.5 -0.5 -0.5 -0.5 -0.5 -0.5 -0.5 -0.5 -0.5 -0.5 -0.5 -0.5 -0.5 -0.5 -0.5 -0.5 -0.5 -0.5 -0.5 -0.5 -0.5 -0.5 -0.5 -0.5 -0.5 -0.5 -0.5 -0.5 -0.5 -0.5 -0.5 -0.5 -0.5 -0.5 -0.5 -0.5 -0.5 -0.5 -0.5 -0.5 -0.5 -0.5 -0.5 -0.5 -0.5 -0.5 -0.5 -0.5 -0.5 -0.5 -0.5 -0.5 -0.5 -0.5 -0.5 -0.5 -0.5 -0.5 -0.5 -0.5 -0.5 -0.5 -0.5 -0.5 -0.5 -0.5 -0.5 -0.5 -0.5 -0.5 -0.5 -0.5 -0.5 -0.5 -0.5 -0.5 -0.5 -0.5 -0.5 -0.5 -0.5 -0.5 -0.5 -0.5 -0.5 -0.5 -0.5 -0.5 -0.5 -0.5 -0.5 -0.5 -0.5 -0.5 -0.5 -0.5 -0.5 -0.5 -0.5 -0.5 -0.5 -0.5 -0.5 -0.5 -0.5 -0.5 -0.5 -0.5 -0.5 -0.5 -0.5 -0.5 -0.5 -0.5 -0.5 -0.5 -0.5 -0.5 -0.5 -0.5 -0.5 -0.5 -0.5 -0.5 -0.5 -0.5 -0.5 -0.5 -0.5 -0.5 -0.5 -0.5 -0.5 -0.5 -0.5 -0.5 -0.5 -0.5 -0.5 -0.5 -0.5 -0.5 -0.5 -0.5 -0.5 -0.5 -0.5 -0.5 -0.5 -0.5 -0.5 -0.5 -0.5 -0.5 -0.5 -0.5 -0.5 -0.5 -0.5 -0.5 -0.5 -0.5 -0.5 -0.5 -0.5 -0.5 -0.5 -0.5 -0.5 -0.5 -0.5 -0.5 -0.5 -0.5 -0.5 -0.5 -0.5 -0.5 -0.5 -0.5 -0.5 -0.5 -0.5 -0.5 -0.5 -0.5 -0.5 -0.5 -0.5 -0.5 -0.5 -0.5 -0.5 -0.5 -0.5 -0.5 -0.5 -0.5 -0.5 -0.5 -0.5 -0.5 -0.5 -0.5 -0.5 -0.5 -0.5 -0.5 -0.5 -0.5 -0.5 -0.5 -0.5 -0.5 -0.5 -0.5 -0.5 -0.5 -0.5 -0.5 -0.5 -0.5 -0.5 -0.5 -0.5 -0.5 -0.5 -0.5 -0.5 -0.5 -0.5 -0.5 -0.5 -0.5 -0.5 -0.5 -0.5 -0.5 -0.5 -0.5 -0.5 -0.5 -0.5 -0.5 -0.5 -0.5 -0.5 -0.5 -0.5 -0.5 -0.5 -0.5 -0.5 -0.5 -0.5 -0.5 -0.5 -0.5 -0.5 -0.5 -0.29297 z"
       style="fill:#000000;fill-opacity:0;fill-rule:nonzero;stroke:#000000;stroke-width:6;stroke-linecap:round;stroke-linejoin:round;stroke-miterlimit:10;stroke-dasharray:none;stroke-opacity:1"
       transform="matrix(0.25650996,0,0,0.24936245,74.574244,38.888347)" />
    <path
       id="path3"
       d="m 1160.9827,248.25107 -1.0695,0.15294 -1.1703,-0.22852 -1.0736,-0.59552 -0.766,-0.66452 -0.3551,-0.35397"
       style="fill:#ffffff;fill-opacity:0;fill-rule:nonzero;stroke:#000000;stroke-width:2.637;stroke-linecap:round;stroke-linejoin:round;stroke-miterlimit:10;stroke-dasharray:none;stroke-opacity:1"
       transform="matrix(0.32012804,0,0,0.32012804,-5.3585885,19.45012)" />
    <path
       id="path4"
       d="m 1156.5482,246.56148 -0.7763,-0.92011 -0.6958,-1.01602 -0.5295,-0.95363 -0.4694,-1.02305 -0.4134,-1.16181 -0.3133,-1.19664 -0.2141,-1.15889 -0.1112,-1.22783 -0.01,-1.18867 0.092,-1.13735 0.2088,-1.13937 0.2733,-0.99368 0.4144,-1.10439 0.4908,-0.96579 0.6151,-0.89535 0.7785,-0.81711 0.9465,-0.66118 1.1366,-0.48022 1.2088,-0.24706 1.1407,-0.0465 1.2632,0.13138 1.0242,0.257 1.1181,0.39469 0.9886,0.42663 0.987,0.52715 0.8474,0.53767 0.8299,0.62856 0.7985,0.70781 0.6731,0.74745 0.6005,0.87002 0.5498,1.03016 0.4354,1.04399 0.3467,1.05607 0.2532,1.06708 0.1404,1.11044 0.029,1.07958 -0.041,1.00568 -0.104,1.21104 -0.1754,1.0551 -0.2577,0.99525 -0.4028,1.12824 -0.4983,1.04594 -0.613,0.96512 -0.7638,0.86472 -0.923,0.64705 -1.0558,0.33863 -1.1784,0.0625 -1.1783,-0.13142 -7.1024,-1.62303"
       style="fill:#ffffff;fill-opacity:0;fill-rule:nonzero;stroke:#000000;stroke-width:3.64612;stroke-linecap:round;stroke-linejoin:round;stroke-miterlimit:10;stroke-dasharray:none;stroke-opacity:1"
       transform="matrix(0.32012804,0,0,0.32012804,-5.3585885,19.45012)" />
    <path
       id="path5"
       d="m 1160.9827,248.25107 -1.0695,0.15294 -1.1703,-0.22852 -1.0736,-0.59552 -0.766,-0.66452 -0.3551,-0.35397"
       style="fill:#ffffff;fill-opacity:0;fill-rule:nonzero;stroke:#000000;stroke-width:2.637;stroke-linecap:round;stroke-linejoin:round;stroke-miterlimit:10;stroke-dasharray:none;stroke-opacity:1"
       transform="matrix(0.32012804,0,0,0.32012843,29.262408,56.156173)" />
    <path
       id="path6"
       d="m 1156.5482,246.56148 -0.7763,-0.92011 -0.6958,-1.01602 -0.5295,-0.95363 -0.4694,-1.02305 -0.4134,-1.16181 -0.3133,-1.19664 -0.2141,-1.15889 -0.1112,-1.22783 -0.01,-1.18867 0.092,-1.13735 0.2088,-1.13937 0.2733,-0.99368 0.4144,-1.10439 0.4908,-0.96579 0.6151,-0.89535 0.7785,-0.81711 0.9465,-0.66118 1.1366,-0.48022 1.2088,-0.24706 1.1407,-0.0465 1.2632,0.13138 1.0242,0.257 1.1181,0.39469 0.9886,0.42663 0.987,0.52715 0.8474,0.53767 0.8299,0.62856 0.7985,0.70781 0.6731,0.74745 0.6005,0.87002 0.5498,1.03016 0.4354,1.04399 0.3467,1.05607 0.2532,1.06708 0.1404,1.11044 0.029,1.07958 -0.041,1.00568 -0.104,1.21104 -0.1754,1.0551 -0.2577,0.99525 -0.4028,1.12824 -0.4983,1.04594 -0.613,0.96512 -0.7638,0.86472 -0.923,0.64705 -1.0558,0.33863 -1.1784,0.0625 -1.1783,-0.13142 -7.1024,-1.62303"
       style="fill:#ffffff;fill-opacity:0;fill-rule:nonzero;stroke:#000000;stroke-width:3.64612;stroke-linecap:round;stroke-linejoin:round;stroke-miterlimit:10;stroke-dasharray:none;stroke-opacity:1"
       transform="matrix(0.32012804,0,0,0.32012843,29.262408,56.156173)" />
    <path
       id="path7"
       d="m 1160.9827,248.25107 -1.0695,0.15294 -1.1703,-0.22852 -1.0736,-0.59552 -0.766,-0.66452 -0.3551,-0.35397"
       style="fill:#ffffff;fill-opacity:0;fill-rule:nonzero;stroke:#000000;stroke-width:2.637;stroke-linecap:round;stroke-linejoin:round;stroke-miterlimit:10;stroke-dasharray:none;stroke-opacity:1"
       transform="matrix(0.32012804,0,0,0.32012843,29.171239,96.610107)" />
    <path
       id="path8"
       d="m 1156.5482,246.56148 -0.7763,-0.92011 -0.6958,-1.01602 -0.5295,-0.95363 -0.4694,-1.02305 -0.4134,-1.16181 -0.3133,-1.19664 -0.2141,-1.15889 -0.1112,-1.22783 -0.01,-1.18867 0.092,-1.13735 0.2088,-1.13937 0.2733,-0.99368 0.4144,-1.10439 0.4908,-0.96579 0.6151,-0.89535 0.7785,-0.81711 0.9465,-0.66118 1.1366,-0.48022 1.2088,-0.24706 1.1407,-0.0465 1.2632,0.13138 1.0242,0.257 1.1181,0.39469 0.9886,0.42663 0.987,0.52715 0.8474,0.53767 0.8299,0.62856 0.7985,0.70781 0.6731,0.74745 0.6005,0.87002 0.5498,1.03016 0.4354,1.04399 0.3467,1.05607 0.2532,1.06708 0.1404,1.11044 0.029,1.07958 -0.041,1.00568 -0.104,1.21104 -0.1754,1.0551 -0.2577,0.99525 -0.4028,1.12824 -0.4983,1.04594 -0.613,0.96512 -0.7638,0.86472 -0.923,0.64705 -1.0558,0.33863 -1.1784,0.0625 -1.1783,-0.13142 -7.1024,-1.62303"
       style="fill:#ffffff;fill-opacity:0;fill-rule:nonzero;stroke:#000000;stroke-width:3.64612;stroke-linecap:round;stroke-linejoin:round;stroke-miterlimit:10;stroke-dasharray:none;stroke-opacity:1"
       transform="matrix(0.32012804,0,0,0.32012843,29.171239,96.610107)" />
    <path
       id="path9"
       d="m 1160.9827,248.25107 -1.0695,0.15294 -1.1703,-0.22852 -1.0736,-0.59552 -0.766,-0.66452 -0.3551,-0.35397"
       style="fill:#ffffff;fill-opacity:0;fill-rule:nonzero;stroke:#000000;stroke-width:2.637;stroke-linecap:round;stroke-linejoin:round;stroke-miterlimit:10;stroke-dasharray:none;stroke-opacity:1"
       transform="matrix(0.32012804,0,0,0.32012843,-6.9157347,56.31088)" />
    <path
       id="path10"
       d="m 1156.5482,246.56148 -0.7763,-0.92011 -0.6958,-1.01602 -0.5295,-0.95363 -0.4694,-1.02305 -0.4134,-1.16181 -0.3133,-1.19664 -0.2141,-1.15889 -0.1112,-1.22783 -0.01,-1.18867 0.092,-1.13735 0.2088,-1.13937 0.2733,-0.99368 0.4144,-1.10439 0.4908,-0.96579 0.6151,-0.89535 0.7785,-0.81711 0.9465,-0.66118 1.1366,-0.48022 1.2088,-0.24706 1.1407,-0.0465 1.2632,0.13138 1.0242,0.257 1.1181,0.39469 0.9886,0.42663 0.987,0.52715 0.8474,0.53767 0.8299,0.62856 0.7985,0.70781 0.6731,0.74745 0.6005,0.87002 0.5498,1.03016 0.4354,1.04399 0.3467,1.05607 0.2532,1.06708 0.1404,1.11044 0.029,1.07958 -0.041,1.00568 -0.104,1.21104 -0.1754,1.0551 -0.2577,0.99525 -0.4028,1.12824 -0.4983,1.04594 -0.613,0.96512 -0.7638,0.86472 -0.923,0.64705 -1.0558,0.33863 -1.1784,0.0625 -1.1783,-0.13142 -7.1024,-1.62303"
       style="fill:#ffffff;fill-opacity:0;fill-rule:nonzero;stroke:#000000;stroke-width:3.64612;stroke-linecap:round;stroke-linejoin:round;stroke-miterlimit:10;stroke-dasharray:none;stroke-opacity:1"
       transform="matrix(0.32012804,0,0,0.32012843,-6.9157347,56.31088)" />
    <path
       id="path11"
       d="m 1160.9827,248.25107 -1.0695,0.15294 -1.1703,-0.22852 -1.0736,-0.59552 -0.766,-0.66452 -0.3551,-0.35397"
       style="fill:#ffffff;fill-opacity:0;fill-rule:nonzero;stroke:#000000;stroke-width:2.637;stroke-linecap:round;stroke-linejoin:round;stroke-miterlimit:10;stroke-dasharray:none;stroke-opacity:1"
       transform="matrix(0.32012804,0,0,0.32012843,-7.0268733,96.894373)" />
    <path
       id="path12"
       d="m 1156.5482,246.56148 -0.7763,-0.92011 -0.6958,-1.01602 -0.5295,-0.95363 -0.4694,-1.02305 -0.4134,-1.16181 -0.3133,-1.19664 -0.2141,-1.15889 -0.1112,-1.22783 -0.01,-1.18867 0.092,-1.13735 0.2088,-1.13937 0.2733,-0.99368 0.4144,-1.10439 0.4908,-0.96579 0.6151,-0.89535 0.7785,-0.81711 0.9465,-0.66118 1.1366,-0.48022 1.2088,-0.24706 1.1407,-0.0465 1.2632,0.13138 1.0242,0.257 1.1181,0.39469 0.9886,0.42663 0.987,0.52715 0.8474,0.53767 0.8299,0.62856 0.7985,0.70781 0.6731,0.74745 0.6005,0.87002 0.5498,1.03016 0.4354,1.04399 0.3467,1.05607 0.2532,1.06708 0.1404,1.11044 0.029,1.07958 -0.041,1.00568 -0.104,1.21104 -0.1754,1.0551 -0.2577,0.99525 -0.4028,1.12824 -0.4983,1.04594 -0.613,0.96512 -0.7638,0.86472 -0.923,0.64705 -1.0558,0.33863 -1.1784,0.0625 -1.1783,-0.13142 -7.1024,-1.62303"
       style="fill:#ffffff;fill-opacity:0;fill-rule:nonzero;stroke:#000000;stroke-width:3.64612;stroke-linecap:round;stroke-linejoin:round;stroke-miterlimit:10;stroke-dasharray:none;stroke-opacity:1"
       transform="matrix(0.32012804,0,0,0.32012843,-7.0268733,96.894373)" />
    <path
       id="path13"
       d="m 1160.9827,248.25107 -1.0695,0.15294 -1.1703,-0.22852 -1.0736,-0.59552 -0.766,-0.66452 -0.3551,-0.35397"
       style="fill:#ffffff;fill-opacity:0;fill-rule:nonzero;stroke:#000000;stroke-width:2.637;stroke-linecap:round;stroke-linejoin:round;stroke-miterlimit:10;stroke-dasharray:none;stroke-opacity:1"
       transform="matrix(0.32012804,0,0,0.32012843,-49.627741,97.100747)" />
    <path
       id="path14"
       d="m 1156.5482,246.56148 -0.7763,-0.92011 -0.6958,-1.01602 -0.5295,-0.95363 -0.4694,-1.02305 -0.4134,-1.16181 -0.3133,-1.19664 -0.2141,-1.15889 -0.1112,-1.22783 -0.01,-1.18867 0.092,-1.13735 0.2088,-1.13937 0.2733,-0.99368 0.4144,-1.10439 0.4908,-0.96579 0.6151,-0.89535 0.7785,-0.81711 0.9465,-0.66118 1.1366,-0.48022 1.2088,-0.24706 1.1407,-0.0465 1.2632,0.13138 1.0242,0.257 1.1181,0.39469 0.9886,0.42663 0.987,0.52715 0.8474,0.53767 0.8299,0.62856 0.7985,0.70781 0.6731,0.74745 0.6005,0.87002 0.5498,1.03016 0.4354,1.04399 0.3467,1.05607 0.2532,1.06708 0.1404,1.11044 0.029,1.07958 -0.041,1.00568 -0.104,1.21104 -0.1754,1.0551 -0.2577,0.99525 -0.4028,1.12824 -0.4983,1.04594 -0.613,0.96512 -0.7638,0.86472 -0.923,0.64705 -1.0558,0.33863 -1.1784,0.0625 -1.1783,-0.13142 -7.1024,-1.62303"
       style="fill:#ffffff;fill-opacity:0;fill-rule:nonzero;stroke:#000000;stroke-width:3.64612;stroke-linecap:round;stroke-linejoin:round;stroke-miterlimit:10;stroke-dasharray:none;stroke-opacity:1"
       transform="matrix(0.32012804,0,0,0.32012843,-49.627741,97.100747)" />
    <path
       id="path15"
       d="m 1160.9827,248.25107 -1.0695,0.15294 -1.1703,-0.22852 -1.0736,-0.59552 -0.766,-0.66452 -0.3551,-0.35397"
       style="fill:#ffffff;fill-opacity:0;fill-rule:nonzero;stroke:#000000;stroke-width:2.637;stroke-linecap:round;stroke-linejoin:round;stroke-miterlimit:10;stroke-dasharray:none;stroke-opacity:1"
       transform="matrix(0.3201264,0,0,0.32012843,-49.36496,55.755213)" />
    <path
       id="path16"
       d="m 1156.5482,246.56148 -0.7763,-0.92011 -0.6958,-1.01602 -0.5295,-0.95363 -0.4694,-1.02305 -0.4134,-1.16181 -0.3133,-1.19664 -0.2141,-1.15889 -0.1112,-1.22783 -0.01,-1.18867 0.092,-1.13735 0.2088,-1.13937 0.2733,-0.99368 0.4144,-1.10439 0.4908,-0.96579 0.6151,-0.89535 0.7785,-0.81711 0.9465,-0.66118 1.1366,-0.48022 1.2088,-0.24706 1.1407,-0.0465 1.2632,0.13138 1.0242,0.257 1.1181,0.39469 0.9886,0.42663 0.987,0.52715 0.8474,0.53767 0.8299,0.62856 0.7985,0.70781 0.6731,0.74745 0.6005,0.87002 0.5498,1.03016 0.4354,1.04399 0.3467,1.05607 0.2532,1.06708 0.1404,1.11044 0.029,1.07958 -0.041,1.00568 -0.104,1.21104 -0.1754,1.0551 -0.2577,0.99525 -0.4028,1.12824 -0.4983,1.04594 -0.613,0.96512 -0.7638,0.86472 -0.923,0.64705 -1.0558,0.33863 -1.1784,0.0625 -1.1783,-0.13142 -7.1024,-1.62303"
       style="fill:#ffffff;fill-opacity:0;fill-rule:nonzero;stroke:#000000;stroke-width:3.64612;stroke-linecap:round;stroke-linejoin:round;stroke-miterlimit:10;stroke-dasharray:none;stroke-opacity:1"
       transform="matrix(0.3201264,0,0,0.32012843,-49.36496,55.755213)" />
    <path
       id="path17"
       d="m 1160.9827,248.25107 -1.0695,0.15294 -1.1703,-0.22852 -1.0736,-0.59552 -0.766,-0.66452 -0.3551,-0.35397"
       style="fill:#ffffff;fill-opacity:0;fill-rule:nonzero;stroke:#000000;stroke-width:2.637;stroke-linecap:round;stroke-linejoin:round;stroke-miterlimit:10;stroke-dasharray:none;stroke-opacity:1"
       transform="matrix(0.3201264,0,0,0.32012843,-7.0411759,133.37875)" />
    <path
       id="path18"
       d="m 1156.5482,246.56148 -0.7763,-0.92011 -0.6958,-1.01602 -0.5295,-0.95363 -0.4694,-1.02305 -0.4134,-1.16181 -0.3133,-1.19664 -0.2141,-1.15889 -0.1112,-1.22783 -0.01,-1.18867 0.092,-1.13735 0.2088,-1.13937 0.2733,-0.99368 0.4144,-1.10439 0.4908,-0.96579 0.6151,-0.89535 0.7785,-0.81711 0.9465,-0.66118 1.1366,-0.48022 1.2088,-0.24706 1.1407,-0.0465 1.2632,0.13138 1.0242,0.257 1.1181,0.39469 0.9886,0.42663 0.987,0.52715 0.8474,0.53767 0.8299,0.62856 0.7985,0.70781 0.6731,0.74745 0.6005,0.87002 0.5498,1.03016 0.4354,1.04399 0.3467,1.05607 0.2532,1.06708 0.1404,1.11044 0.029,1.07958 -0.041,1.00568 -0.104,1.21104 -0.1754,1.0551 -0.2577,0.99525 -0.4028,1.12824 -0.4983,1.04594 -0.613,0.96512 -0.7638,0.86472 -0.923,0.64705 -1.0558,0.33863 -1.1784,0.0625 -1.1783,-0.13142 -7.1024,-1.62303"
       style="fill:#ffffff;fill-opacity:0;fill-rule:nonzero;stroke:#000000;stroke-width:3.64612;stroke-linecap:round;stroke-linejoin:round;stroke-miterlimit:10;stroke-dasharray:none;stroke-opacity:1"
       transform="matrix(0.3201264,0,0,0.32012843,-7.0411759,133.37875)" />
    <path
       id="path19"
       d="m 1160.9827,248.25107 -1.0695,0.15294 -1.1703,-0.22852 -1.0736,-0.59552 -0.766,-0.66452 -0.3551,-0.35397"
       style="fill:#ffffff;fill-opacity:0;fill-rule:nonzero;stroke:#000000;stroke-width:2.637;stroke-linecap:round;stroke-linejoin:round;stroke-miterlimit:10;stroke-dasharray:none;stroke-opacity:1"
       transform="matrix(0.3201264,0,0,0.32012843,-49.304448,133.72795)" />
    <path
       id="path20"
       d="m 1156.5482,246.56148 -0.7763,-0.92011 -0.6958,-1.01602 -0.5295,-0.95363 -0.4694,-1.02305 -0.4134,-1.16181 -0.3133,-1.19664 -0.2141,-1.15889 -0.1112,-1.22783 -0.01,-1.18867 0.092,-1.13735 0.2088,-1.13937 0.2733,-0.99368 0.4144,-1.10439 0.4908,-0.96579 0.6151,-0.89535 0.7785,-0.81711 0.9465,-0.66118 1.1366,-0.48022 1.2088,-0.24706 1.1407,-0.0465 1.2632,0.13138 1.0242,0.257 1.1181,0.39469 0.9886,0.42663 0.987,0.52715 0.8474,0.53767 0.8299,0.62856 0.7985,0.70781 0.6731,0.74745 0.6005,0.87002 0.5498,1.03016 0.4354,1.04399 0.3467,1.05607 0.2532,1.06708 0.1404,1.11044 0.029,1.07958 -0.041,1.00568 -0.104,1.21104 -0.1754,1.0551 -0.2577,0.99525 -0.4028,1.12824 -0.4983,1.04594 -0.613,0.96512 -0.7638,0.86472 -0.923,0.64705 -1.0558,0.33863 -1.1784,0.0625 -1.1783,-0.13142 -7.1024,-1.62303"
       style="fill:#ffffff;fill-opacity:0;fill-rule:nonzero;stroke:#000000;stroke-width:3.64612;stroke-linecap:round;stroke-linejoin:round;stroke-miterlimit:10;stroke-dasharray:none;stroke-opacity:1"
       transform="matrix(0.3201264,0,0,0.32012843,-49.304448,133.72795)" />
    <path
       id="path21"
       d="m 1160.9827,248.25107 -1.0695,0.15294 -1.1703,-0.22852 -1.0736,-0.59552 -0.766,-0.66452 -0.3551,-0.35397"
       style="fill:#ffffff;fill-opacity:0;fill-rule:nonzero;stroke:#000000;stroke-width:2.637;stroke-linecap:round;stroke-linejoin:round;stroke-miterlimit:10;stroke-dasharray:none;stroke-opacity:1"
       transform="matrix(0.32012475,0,0,0.32012843,-85.763428,96.878173)" />
    <path
       id="path22"
       d="m 1156.5482,246.56148 -0.7763,-0.92011 -0.6958,-1.01602 -0.5295,-0.95363 -0.4694,-1.02305 -0.4134,-1.16181 -0.3133,-1.19664 -0.2141,-1.15889 -0.1112,-1.22783 -0.01,-1.18867 0.092,-1.13735 0.2088,-1.13937 0.2733,-0.99368 0.4144,-1.10439 0.4908,-0.96579 0.6151,-0.89535 0.7785,-0.81711 0.9465,-0.66118 1.1366,-0.48022 1.2088,-0.24706 1.1407,-0.0465 1.2632,0.13138 1.0242,0.257 1.1181,0.39469 0.9886,0.42663 0.987,0.52715 0.8474,0.53767 0.8299,0.62856 0.7985,0.70781 0.6731,0.74745 0.6005,0.87002 0.5498,1.03016 0.4354,1.04399 0.3467,1.05607 0.2532,1.06708 0.1404,1.11044 0.029,1.07958 -0.041,1.00568 -0.104,1.21104 -0.1754,1.0551 -0.2577,0.99525 -0.4028,1.12824 -0.4983,1.04594 -0.613,0.96512 -0.7638,0.86472 -0.923,0.64705 -1.0558,0.33863 -1.1784,0.0625 -1.1783,-0.13142 -7.1024,-1.62303"
       style="fill:#ffffff;fill-opacity:0;fill-rule:nonzero;stroke:#000000;stroke-width:3.64612;stroke-linecap:round;stroke-linejoin:round;stroke-miterlimit:10;stroke-dasharray:none;stroke-opacity:1"
       transform="matrix(0.32012475,0,0,0.32012843,-85.763428,96.878173)" />
    <path
       id="path23"
       d="m 1160.9827,248.25107 -1.0695,0.15294 -1.1703,-0.22852 -1.0736,-0.59552 -0.766,-0.66452 -0.3551,-0.35397"
       style="fill:#ffffff;fill-opacity:0;fill-rule:nonzero;stroke:#000000;stroke-width:2.637;stroke-linecap:round;stroke-linejoin:round;stroke-miterlimit:10;stroke-dasharray:none;stroke-opacity:1"
       transform="matrix(0.32012475,0,0,0.32012843,-85.858653,56.708333)" />
    <path
       id="path24"
       d="m 1156.5482,246.56148 -0.7763,-0.92011 -0.6958,-1.01602 -0.5295,-0.95363 -0.4694,-1.02305 -0.4134,-1.16181 -0.3133,-1.19664 -0.2141,-1.15889 -0.1112,-1.22783 -0.01,-1.18867 0.092,-1.13735 0.2088,-1.13937 0.2733,-0.99368 0.4144,-1.10439 0.4908,-0.96579 0.6151,-0.89535 0.7785,-0.81711 0.9465,-0.66118 1.1366,-0.48022 1.2088,-0.24706 1.1407,-0.0465 1.2632,0.13138 1.0242,0.257 1.1181,0.39469 0.9886,0.42663 0.987,0.52715 0.8474,0.53767 0.8299,0.62856 0.7985,0.70781 0.6731,0.74745 0.6005,0.87002 0.5498,1.03016 0.4354,1.04399 0.3467,1.05607 0.2532,1.06708 0.1404,1.11044 0.029,1.07958 -0.041,1.00568 -0.104,1.21104 -0.1754,1.0551 -0.2577,0.99525 -0.4028,1.12824 -0.4983,1.04594 -0.613,0.96512 -0.7638,0.86472 -0.923,0.64705 -1.0558,0.33863 -1.1784,0.0625 -1.1783,-0.13142 -7.1024,-1.62303"
       style="fill:#ffffff;fill-opacity:0;fill-rule:nonzero;stroke:#000000;stroke-width:3.64612;stroke-linecap:round;stroke-linejoin:round;stroke-miterlimit:10;stroke-dasharray:none;stroke-opacity:1"
       transform="matrix(0.32012475,0,0,0.32012843,-85.858653,56.708333)" />
    <path
       id="path25"
       d="m 1160.9827,248.25107 -1.0695,0.15294 -1.1703,-0.22852 -1.0736,-0.59552 -0.766,-0.66452 -0.3551,-0.35397"
       style="fill:#ffffff;fill-opacity:0;fill-rule:nonzero;stroke:#000000;stroke-width:2.637;stroke-linecap:round;stroke-linejoin:round;stroke-miterlimit:10;stroke-dasharray:none;stroke-opacity:1"
       transform="matrix(0.32012475,0,0,0.32012843,-49.340907,19.31836)" />
    <path
       id="path26"
       d="m 1156.5482,246.56148 -0.7763,-0.92011 -0.6958,-1.01602 -0.5295,-0.95363 -0.4694,-1.02305 -0.4134,-1.16181 -0.3133,-1.19664 -0.2141,-1.15889 -0.1112,-1.22783 -0.01,-1.18867 0.092,-1.13735 0.2088,-1.13937 0.2733,-0.99368 0.4144,-1.10439 0.4908,-0.96579 0.6151,-0.89535 0.7785,-0.81711 0.9465,-0.66118 1.1366,-0.48022 1.2088,-0.24706 1.1407,-0.0465 1.2632,0.13138 1.0242,0.257 1.1181,0.39469 0.9886,0.42663 0.987,0.52715 0.8474,0.53767 0.8299,0.62856 0.7985,0.70781 0.6731,0.74745 0.6005,0.87002 0.5498,1.03016 0.4354,1.04399 0.3467,1.05607 0.2532,1.06708 0.1404,1.11044 0.029,1.07958 -0.041,1.00568 -0.104,1.21104 -0.1754,1.0551 -0.2577,0.99525 -0.4028,1.12824 -0.4983,1.04594 -0.613,0.96512 -0.7638,0.86472 -0.923,0.64705 -1.0558,0.33863 -1.1784,0.0625 -1.1783,-0.13142 -7.1024,-1.62303"
       style="fill:#ffffff;fill-opacity:0;fill-rule:nonzero;stroke:#000000;stroke-width:3.64612;stroke-linecap:round;stroke-linejoin:round;stroke-miterlimit:10;stroke-dasharray:none;stroke-opacity:1"
       transform="matrix(0.32012475,0,0,0.32012843,-49.340907,19.31836)" />
    <path
       id="path27"
       d="m 893.42316,299.30984 -0.92847,-0.49209 -0.4328,-0.95441 0.42993,-0.9562 1.04352,-0.40448 0.84039,0.61349 -0.37665,0.95367"
       style="fill:#ffffff;fill-opacity:0;fill-rule:nonzero;stroke:#007aff;stroke-width:2.65956;stroke-linecap:round;stroke-linejoin:round;stroke-miterlimit:10;stroke-dasharray:none;stroke-opacity:1"
       transform="scale(0.32012804)" />
    <path
       id="path28"
       d="m 893.99908,298.06982 -0.27905,-0.96283 0.59265,-1.00021 1.12024,-0.0953 0.42536,0.98306 -0.77167,0.80768 -0.71289,-0.58835 0.60058,-0.86878 0.95252,0.40076 -0.0341,1.12595 -0.8396,0.56802 -0.0818,-0.99323 0.83417,-0.42749 0.33753,1.03534 -0.19971,-0.0615 0.008,-0.97742 -0.8996,0.54306 -0.23096,1.09116 0.65601,0.10931 -0.23956,-0.99261 -0.95105,0.26639 0.13287,0.8908 0.82343,-0.67791 0.1369,-1.04749 -0.75989,-0.7229"
       style="fill:#ffffff;fill-opacity:0;fill-rule:nonzero;stroke:#007aff;stroke-width:3.66367;stroke-linecap:round;stroke-linejoin:round;stroke-miterlimit:10;stroke-dasharray:none;stroke-opacity:1"
       transform="scale(0.32012804)" />
    <path
       id="path29"
       d="m 894.61914,296.47531 -0.85248,0.60614 0.26532,1.02152 0.8999,-0.23178 -0.39862,-0.97535 -0.81518,0.3584 0.22327,1.0701 0.91101,0.10477 0.0339,-1.00394 -0.38324,-0.10901"
       style="fill:#ffffff;fill-opacity:0;fill-rule:nonzero;stroke:#007aff;stroke-width:4.67258;stroke-linecap:round;stroke-linejoin:round;stroke-miterlimit:10;stroke-dasharray:none;stroke-opacity:1"
       transform="scale(0.32012804)" />
    <path
       id="path30"
       d="m 894.50305,297.31616 -0.466,0.96823 0.38818,0.97788 1.02277,-0.14444 0.22302,-1.06436 -0.77661,-0.55851 -0.97052,0.68943 0.0477,1.03149 0.92322,-0.38528 0.0963,-1.15891 -0.82233,-0.71191 -0.96124,0.62512 0.0122,1.08597 0.87011,0.59424 0.64905,-0.76148 -0.52814,-0.95791 -0.27612,0.90014 0.71838,0.75107 0.53321,-0.85117 -0.72132,-0.2099 0.23554,0.99659 1.01764,0.12375 0.49548,-0.93641 -0.74701,-0.45605 -0.6402,0.85089 0.37122,0.84137 0.50897,-0.92667 -0.56018,-0.82077 -0.62359,0.78437 0.4729,0.95858 0.51519,-0.86016 -0.66943,-0.86625 -0.67047,0.79123 0.36322,0.98358 0.8446,-0.39453 -0.6463,-0.58383 -0.27368,0.93979 0.90833,0.005 0.1878,-1.01508 -0.91186,-0.0248 -0.9488,1.20975"
       style="fill:#ffffff;fill-opacity:0;fill-rule:nonzero;stroke:#007aff;stroke-width:5.68666;stroke-linecap:round;stroke-linejoin:round;stroke-miterlimit:10;stroke-dasharray:none;stroke-opacity:1"
       transform="scale(0.32012804)" />
    <path
       id="path31"
       d="m 894.39166,654.02979 -0.55096,0.64953 0.94842,0.27698 -0.2434,-0.80701"
       style="fill:#ffffff;fill-opacity:0;fill-rule:nonzero;stroke:#007aff;stroke-width:2.79011;stroke-linecap:round;stroke-linejoin:round;stroke-miterlimit:10;stroke-dasharray:none;stroke-opacity:1"
       transform="scale(0.32012804)" />
    <path
       id="path32"
       d="m 894.54572,654.14929 -0.50977,0.83502 0.57428,0.69757 0.54034,-0.86236 -0.15167,-0.63049"
       style="fill:#ffffff;fill-opacity:0;fill-rule:nonzero;stroke:#007aff;stroke-width:3.79279;stroke-linecap:round;stroke-linejoin:round;stroke-miterlimit:10;stroke-dasharray:none;stroke-opacity:1"
       transform="scale(0.32012804)" />
    <path
       id="path33"
       d="m 894.9989,654.18903 -0.82446,0.39837 -0.11005,1.12012 0.68122,0.72217 0.65338,-0.77332 -0.62482,-0.68152 -0.71606,0.78778 0.81561,0.26374 0.47583,-0.94922 -0.59259,-0.8905 -0.93921,0.38812 0.28638,0.98474 0.97015,-0.13812 -0.62604,-0.80652 -0.6297,-0.0914"
       style="fill:#ffffff;fill-opacity:0;fill-rule:nonzero;stroke:#007aff;stroke-width:4.79814;stroke-linecap:round;stroke-linejoin:round;stroke-miterlimit:10;stroke-dasharray:none;stroke-opacity:1"
       transform="scale(0.32012804)" />
    <path
       id="path34"
       d="m 893.81854,654.5235 0.0726,0.89551 0.9079,-0.44513 -0.1048,-0.98841 -0.75451,0.54108 0.31067,1.01373 0.97784,-0.16607 0.21869,-0.99109 -0.77246,0.0164 0.24713,1.00305 0.86005,-0.40662 -0.49677,-0.83813 -0.68017,0.64752 0.6986,0.71606 0.61988,-0.85827 -0.49579,-0.8971 -0.70362,0.57434 0.23578,0.97907 0.73072,-0.54254 -0.6015,-0.79633 -0.71747,0.72919 0.3479,0.9331 0.69537,-0.61328 -0.82147,-0.5235 -0.57428,0.86414 0.84735,0.25281 -0.0956,-0.91474 -0.63941,0.69635 0.73554,0.53894 0.59528,-0.84997 -0.27784,0.1499 0.3313,-0.36145"
       style="fill:#ffffff;fill-opacity:0;fill-rule:nonzero;stroke:#007aff;stroke-width:5.82397;stroke-linecap:round;stroke-linejoin:round;stroke-miterlimit:10;stroke-dasharray:none;stroke-opacity:1"
       transform="scale(0.32012804)" />
    <path
       id="path35"
       d="m 1253.6835,296.71396 -0.8427,0.65872 -0.3023,1.08768 0.7636,-0.33914 -0.7286,0.0524 -0.1685,1.09625 0.1173,0.21597"
       style="fill:#ffffff;fill-opacity:0;fill-rule:nonzero;stroke:#007aff;stroke-width:2.69179;stroke-linecap:round;stroke-linejoin:round;stroke-miterlimit:10;stroke-dasharray:none;stroke-opacity:1"
       transform="scale(0.32012804)" />
    <path
       id="path36"
       d="m 1252.5223,299.48587 1.07,-0.0123 0.5306,-0.89227 -0.9201,-0.13407 -0.3346,0.305"
       style="fill:#ffffff;fill-opacity:0;fill-rule:nonzero;stroke:#007aff;stroke-width:3.70185;stroke-linecap:round;stroke-linejoin:round;stroke-miterlimit:10;stroke-dasharray:none;stroke-opacity:1"
       transform="scale(0.32012804)" />
    <path
       id="path37"
       d="m 1252.8682,298.7522 -0.3942,1.07016 0.7023,0.65408 0.9376,-0.71811 -0.3391,-0.95099 -0.9933,0.23776 -0.4154,0.98676 0.8436,0.2674 0.4022,-0.96228"
       style="fill:#ffffff;fill-opacity:0;fill-rule:nonzero;stroke:#007aff;stroke-width:4.71374;stroke-linecap:round;stroke-linejoin:round;stroke-miterlimit:10;stroke-dasharray:none;stroke-opacity:1"
       transform="scale(0.32012804)" />
    <path
       id="path38"
       d="m 1253.6119,299.33698 -0.6148,-0.94278 -1.1029,-0.0772 -0.8153,0.66342 0.417,0.79812 0.8022,-0.64254 -0.2249,-1.111 -0.9625,0.0566 -0.4587,0.97437 0.6308,0.78271 0.7098,-0.7836 -0.6973,-0.55902 -0.5874,0.92447 0.7987,0.59036 0.8217,-0.5607 -0.029,-0.9447 -0.7297,0.64398 0.2655,1.09656 0.9652,0.0324 0.056,-1.01813 0.4542,0.78711 0.8153,-0.6253 -0.3933,-0.89307 -0.624,0.84805 0.4204,-0.10781 -0.525,-0.83362 -0.5695,0.83734 0.689,-0.13364 -0.71,-0.59772 -0.1589,0.13007"
       style="fill:#ffffff;fill-opacity:0;fill-rule:nonzero;stroke:#007aff;stroke-width:5.72004;stroke-linecap:round;stroke-linejoin:round;stroke-miterlimit:10;stroke-dasharray:none;stroke-opacity:1"
       transform="scale(0.32012804)" />
    <path
       id="path39"
       d="m 1195.9402,290.38455 0.7906,0.59845 0.9736,0.74365 0.939,0.75986 0.7848,0.61847 0.789,0.60156 0.8551,0.68567 0.8319,0.67658 0.9077,0.68432 0.812,0.63376 0.9111,0.69281 0.4283,0.88895 -0.082,0.7352 -0.7482,0.86224 -0.8181,0.97022 -0.8187,0.96392 -0.6276,0.79227 -0.6755,0.7439 -0.8599,1.02115 -0.7383,0.74691 -0.6407,0.79828 -0.7051,0.90534 -0.6366,0.8638 -0.8131,1.02963 -0.4607,0.67514"
       style="fill:#ffffff;fill-opacity:0;fill-rule:nonzero;stroke:#000000;stroke-width:3.14111;stroke-linecap:round;stroke-linejoin:round;stroke-miterlimit:10;stroke-dasharray:none;stroke-opacity:1"
       transform="scale(0.32012804)" />
    <path
       id="path40"
       d="m 1190.0862,649.15594 0.699,0.9151 0.6986,0.87903 0.6964,0.81232 0.7843,0.81201 0.8086,0.8573 0.8022,0.69055 0.8065,0.64637 0.9047,0.65588 0.9768,0.73712 0.9232,0.72217 0.9864,0.62353 -0.5293,0.70459 -0.7428,1.06867 -0.6858,0.95849 -0.6139,0.88489 -0.612,0.96533 -0.5871,0.95423 -0.6135,0.93793 -0.6739,0.93621 -0.5737,1.01453 -0.5579,0.9538 -0.7552,1.22595"
       style="fill:#ffffff;fill-opacity:0;fill-rule:nonzero;stroke:#000000;stroke-width:3.12786;stroke-linecap:round;stroke-linejoin:round;stroke-miterlimit:10;stroke-dasharray:none;stroke-opacity:1"
       transform="scale(0.32012804)" />
    <path
       id="path41"
       d="m 1252.0169,599.24915 -0.7852,0.69616 -0.9109,0.92395 -0.8727,0.96772 -0.6418,0.81134 -0.6739,0.81164 -0.731,0.8858 -0.6082,0.87232 -0.6947,0.90069 -0.6243,0.95594 -0.6623,0.93634 -0.704,0.9093 -0.3681,0.69232"
       style="fill:#ffffff;fill-opacity:0;fill-rule:nonzero;stroke:#000000;stroke-width:3.13669;stroke-linecap:round;stroke-linejoin:round;stroke-miterlimit:10;stroke-dasharray:none;stroke-opacity:1"
       transform="scale(0.32012804)" />
    <path
       id="path42"
       d="m 1251.3384,599.89178 1.0892,0.17444 1.0434,0.40717 1.1346,0.42883 1.0619,0.3866 1.1737,0.39972 0.9725,0.435 1.0625,0.51672 1.0248,0.68866 1.2892,1.27496"
       style="fill:#ffffff;fill-opacity:0;fill-rule:nonzero;stroke:#000000;stroke-width:3.13522;stroke-linecap:round;stroke-linejoin:round;stroke-miterlimit:10;stroke-dasharray:none;stroke-opacity:1"
       transform="scale(0.32012804)" />
    <path
       id="path43"
       d="m 893.9267,597.35706 -0.99585,0.40222 -0.7829,0.65655 -0.98102,0.84461 -0.74011,0.76935 -0.84955,0.87939 -0.94098,0.95685 -0.86859,0.85583 -0.81818,0.83148 -0.90966,0.86725 -0.7779,0.85767 -0.84588,0.92322 -0.70166,0.87713 -0.71534,0.96698 -0.32812,0.44538"
       style="fill:#ffffff;fill-opacity:0;fill-rule:nonzero;stroke:#000000;stroke-width:3.15436;stroke-linecap:round;stroke-linejoin:round;stroke-miterlimit:10;stroke-dasharray:none;stroke-opacity:1"
       transform="scale(0.32012804)" />
    <path
       id="path44"
       d="m 893.21283,597.71405 1.13141,0.10242 0.8891,0.45733 0.9226,0.52631 1.10706,0.54395 1.05237,0.53576 0.98303,0.50574 0.92218,0.49884 0.94806,0.49054 0.96368,0.47082 0.96436,0.47535 0.97308,0.44458 1.10059,0.5476 1.34863,0.69812 1.93567,1.09247"
       style="fill:#ffffff;fill-opacity:0;fill-rule:nonzero;stroke:#000000;stroke-width:3.16467;stroke-linecap:round;stroke-linejoin:round;stroke-miterlimit:10;stroke-dasharray:none;stroke-opacity:1"
       transform="scale(0.32012804)" />
    <path
       id="path45"
       d="m 1073.864,647.97778 -0.051,0.88593 -0.4474,0.89343 -0.5623,0.89862 -0.7075,0.9502 -0.5575,1.08368 -0.6775,1.06897 -0.6865,0.86236 -0.6755,0.84741 -0.5507,0.94043 0.5422,0.53693 1.074,0.7771 0.9666,0.71368 0.8352,0.60529 0.8297,0.67578 0.7843,0.76239 0.7748,0.78052 0.6997,0.7818 0.7588,0.95654 0.4689,0.46887"
       style="fill:#ffffff;fill-opacity:0;fill-rule:nonzero;stroke:#000000;stroke-width:3.1043;stroke-linecap:round;stroke-linejoin:round;stroke-miterlimit:10;stroke-dasharray:none;stroke-opacity:1"
       transform="scale(0.32012804)" />
    <path
       id="path46"
       d="m 1073.1146,536.06262 -0.927,0.61597 -0.6388,1.17389 -0.6598,1.08117 -0.6662,1.01642 -0.5338,0.9408 -0.5791,0.94275 -0.6191,0.96808 -0.618,0.84442 -0.5839,0.87134 -0.058,0.68481 0.7822,0.6192 0.66,0.75257 0.7187,0.84185 0.9093,0.89362 0.8521,0.89477 0.6471,0.75098 0.8767,0.87799 0.2416,0.26782"
       style="fill:#ffffff;fill-opacity:0;fill-rule:nonzero;stroke:#000000;stroke-width:3.12786;stroke-linecap:round;stroke-linejoin:round;stroke-miterlimit:10;stroke-dasharray:none;stroke-opacity:1"
       transform="scale(0.32012804)" />
    <path
       id="path47"
       d="m 938.72363,648.12042 0.87561,0.81128 0.68085,0.80957 0.89258,1.02423 0.85132,0.80548 0.86944,0.71009 0.77405,0.72918 0.85352,0.75599 0.77435,0.73217 0.65027,0.76667 0.27282,1.08953 -0.26525,1.05713 -0.63959,1.01306 -0.64417,1.02588 -0.6773,0.8877 -0.77466,0.9248 -0.75568,0.91278 -0.87726,0.94971 -0.72131,0.69464 -0.61383,0.61408"
       style="fill:#ffffff;fill-opacity:0;fill-rule:nonzero;stroke:#000000;stroke-width:3.15142;stroke-linecap:round;stroke-linejoin:round;stroke-miterlimit:10;stroke-dasharray:none;stroke-opacity:1"
       transform="scale(0.32012804)" />
    <path
       id="path48"
       d="m 941.04382,290.45587 0.32764,0.94119 0.83789,0.75946 0.85852,0.86475 0.73132,0.74332 0.8219,0.66363 0.89899,0.65744 0.8429,0.54007 0.51452,0.84983 -0.49438,0.95236 -0.52112,1.04974 -0.45801,0.97308 -0.65179,1.09794 -0.66364,1.08548 -0.71191,0.95233 -0.66803,1.02542 -0.84235,1.00836 -0.73193,0.97574 -0.70642,0.84234 -0.693,0.86142 -0.64575,0.81385 -0.61529,0.76278"
       style="fill:#ffffff;fill-opacity:0;fill-rule:nonzero;stroke:#000000;stroke-width:3.14111;stroke-linecap:round;stroke-linejoin:round;stroke-miterlimit:10;stroke-dasharray:none;stroke-opacity:1"
       transform="scale(0.32012804)" />
    <path
       id="path49"
       d="m 1077.7549,288.27814 -0.8402,0.82931 -0.6118,1.1131 -0.6674,1.04538 -0.5697,0.823 -0.6656,0.8522 -0.8147,0.92142 -0.7077,0.80948 -0.8424,0.81531 -0.837,0.85595 0.2472,1.00046 0.8432,0.77469 0.6226,0.96094 0.6716,0.98007 0.69,1.02365 0.5589,0.88596 0.6618,1.01345 0.7012,0.96888 0.7785,1.03543 0.9241,1.56918"
       style="fill:#ffffff;fill-opacity:0;fill-rule:nonzero;stroke:#000000;stroke-width:3.13522;stroke-linecap:round;stroke-linejoin:round;stroke-miterlimit:10;stroke-dasharray:none;stroke-opacity:1"
       transform="scale(0.32012804)" />
    <path
       id="path50"
       d="m 1243.5569,467.34247 1.0802,0.22912 0.8433,0.66593 0.832,0.90503 0.7132,0.73791 0.694,0.90915 0.7899,0.96253 0.8,0.96643 0.7522,0.92477 0.8937,0.91995 0.7761,0.85309 0.677,0.83277 0.8154,0.96734 0.5626,1.03784 0.2341,0.97776 0.5562,0.67651 0.4297,-1.09967 0.7408,-0.96451 0.8173,-1.05008 0.8691,-1.03811 0.8588,-0.89493 0.9468,-1.04306 0.8111,-0.92838 0.9524,-1.0433 0.7149,-0.806 0.7025,-0.78934 0.9099,-1.05987 0.8678,-0.90769 0.7151,-0.89676 0.7369,-0.83496 0.3132,-0.38153"
       style="fill:#ffffff;fill-opacity:0;fill-rule:nonzero;stroke:#000000;stroke-width:3.11755;stroke-linecap:round;stroke-linejoin:round;stroke-miterlimit:10;stroke-dasharray:none;stroke-opacity:1"
       transform="scale(0.32012804)" />
    <path
       id="path51"
       d="m 1253.1945,343.04004 -0.8761,0.71335 -0.8141,0.86032 -0.8466,0.8793 -0.7466,0.78806 -0.6997,0.77539 -0.8119,0.90335 -0.7389,0.82953 -0.8355,0.89377 -0.7462,0.94995 -0.8266,0.95449 -0.8615,0.91819 -0.6401,0.81973 -0.7368,0.89142 -0.5456,0.60818"
       style="fill:#ffffff;fill-opacity:0;fill-rule:nonzero;stroke:#000000;stroke-width:3.09693;stroke-linecap:round;stroke-linejoin:round;stroke-miterlimit:10;stroke-dasharray:none;stroke-opacity:1"
       transform="scale(0.32012804)" />
    <path
       id="path52"
       d="m 1252.6948,344.18231 0.9268,0.38428 1.0107,0.76242 0.9204,0.7308 0.9263,0.75126 0.8354,0.68759 0.8227,0.68738 1.119,0.85119 1.0801,0.91947 0.9861,0.86862 1.6169,1.28198"
       style="fill:#ffffff;fill-opacity:0;fill-rule:nonzero;stroke:#000000;stroke-width:3.09546;stroke-linecap:round;stroke-linejoin:round;stroke-miterlimit:10;stroke-dasharray:none;stroke-opacity:1"
       transform="scale(0.32012804)" />
    <path
       id="path53"
       d="m 895.1405,344.96762 -1.01257,0.48129 -0.67804,0.81153 -0.70575,0.92218 -0.77649,0.92242 -0.96246,1.03616 -0.8905,1.02201 -0.93403,1.04025 -0.90405,0.94562 -0.867,0.91519 -0.73316,0.77652 -0.87378,0.87347 -0.67175,0.80729"
       style="fill:#ffffff;fill-opacity:0;fill-rule:nonzero;stroke:#000000;stroke-width:3.12638;stroke-linecap:round;stroke-linejoin:round;stroke-miterlimit:10;stroke-dasharray:none;stroke-opacity:1"
       transform="scale(0.32012804)" />
    <path
       id="path54"
       d="m 894.42664,346.36008 1.04083,0.69714 0.92285,0.6824 0.85406,0.74183 0.76026,0.66302 0.95819,0.8316 0.78674,0.6814 0.74445,0.68387 0.92224,0.91309 1.18426,1.17401"
       style="fill:#ffffff;fill-opacity:0;fill-rule:nonzero;stroke:#000000;stroke-width:3.14995;stroke-linecap:round;stroke-linejoin:round;stroke-miterlimit:10;stroke-dasharray:none;stroke-opacity:1"
       transform="scale(0.32012804)" />
    <path
       id="path55"
       d="m 886.46667,478.87354 0.90369,0.79751 0.81641,1.11176 0.59607,0.94598 0.55572,0.92661 0.64514,1.12133 0.45136,0.96381 0.48694,0.88092 0.49975,0.99924 0.61432,1.16513 0.53821,0.9198 0.49719,0.75165"
       style="fill:#ffffff;fill-opacity:0;fill-rule:nonzero;stroke:#000000;stroke-width:3.12344;stroke-linecap:round;stroke-linejoin:round;stroke-miterlimit:10;stroke-dasharray:none;stroke-opacity:1"
       transform="scale(0.32012804)" />
    <path
       id="path56"
       d="m 893.89124,489.44 0.8399,-0.65439 0.95758,-0.73269 0.84729,-0.65909 0.85272,-0.76724 0.81763,-0.74738 0.80536,-0.74408 0.82349,-0.77106 0.7843,-0.73049 0.77282,-0.74729 0.86048,-0.85547 0.95465,-0.93844 0.73755,-0.72687 1.03051,-1.0213 1.44465,-1.25638"
       style="fill:#ffffff;fill-opacity:0;fill-rule:nonzero;stroke:#000000;stroke-width:3.09988;stroke-linecap:round;stroke-linejoin:round;stroke-miterlimit:10;stroke-dasharray:none;stroke-opacity:1"
       transform="scale(0.32012804)" />
    <path
       id="path57"
       d="m 998.97644,475.375 1.12516,0.40063 0.849,0.58808 0.7741,0.72381 0.7163,0.71189 0.7887,0.91311 0.7712,0.94025 0.6491,1.02832 0.6275,0.99661 0.5103,0.95588 0.4944,0.93441 0.4494,1.09302 0.2849,0.59879"
       style="fill:#ffffff;fill-opacity:0;fill-rule:nonzero;stroke:#000000;stroke-width:3.12197;stroke-linecap:round;stroke-linejoin:round;stroke-miterlimit:10;stroke-dasharray:none;stroke-opacity:1"
       transform="scale(0.32012804)" />
    <path
       id="path58"
       d="m 1006.5081,484.01392 0.655,-0.79462 0.779,-0.85559 0.753,-0.78797 0.9564,-0.99328 1.0663,-1.06824 0.7245,-0.69858 0.7209,-0.70327 0.9424,-0.90339 0.8821,-0.81384 0.8433,-0.73776 0.173,-0.1557"
       style="fill:#ffffff;fill-opacity:0;fill-rule:nonzero;stroke:#000000;stroke-width:3.12638;stroke-linecap:round;stroke-linejoin:round;stroke-miterlimit:10;stroke-dasharray:none;stroke-opacity:1"
       transform="scale(0.32012804)" />
    <path
       id="path59"
       d="m 1134.7239,476.73126 0.8074,1.03934 0.6391,0.93646 0.5045,0.88425 0.6621,0.90774 0.7185,1.1037 0.6359,0.871 0.6347,1.09742 0.523,0.9851 0.4628,0.97208 0.5105,1.21698 0.3319,1.02515 0.173,0.42007"
       style="fill:#ffffff;fill-opacity:0;fill-rule:nonzero;stroke:#000000;stroke-width:3.12933;stroke-linecap:round;stroke-linejoin:round;stroke-miterlimit:10;stroke-dasharray:none;stroke-opacity:1"
       transform="scale(0.32012804)" />
    <path
       id="path60"
       d="m 1141.113,488.15509 0.5701,-0.9415 0.6476,-0.772 0.6327,-0.78034 0.7672,-0.94555 0.9036,-1.05728 0.982,-1.08542 0.7536,-0.80136 1.3112,-1.18491"
       style="fill:#ffffff;fill-opacity:0;fill-rule:nonzero;stroke:#000000;stroke-width:3.15289;stroke-linecap:round;stroke-linejoin:round;stroke-miterlimit:10;stroke-dasharray:none;stroke-opacity:1"
       transform="scale(0.32012804)" />
    <path
       id="path61"
       d="m 1253.1221,655.49866 -0.4025,0.45569 -0.347,0.0452 -0.2848,-0.50055 -10e-5,-3e-4"
       style="fill:#ffffff;fill-opacity:0;fill-rule:nonzero;stroke:#007aff;stroke-width:6;stroke-linecap:round;stroke-linejoin:round;stroke-miterlimit:10;stroke-dasharray:none;stroke-opacity:1"
       transform="scale(0.32012804)" />
    <path
       id="path123"
       d="m 1070.9736,404.89578 -0.7502,0.63074 -0.5722,0.84811 -0.5484,0.94526 -0.6635,0.93524 -0.5366,0.8659 -0.6728,1.01639 -0.7271,1.00342 -0.7919,1.04178 -0.6283,0.80484 -0.7672,0.9386 -0.4599,0.84188 1.0716,0.61441 0.9731,0.66749 0.9477,0.65997 0.8192,0.7738 0.9113,0.6836 0.8065,0.69336 0.7956,0.63458 0.9207,0.73309 0.8225,0.56064 0.9966,0.57696"
       style="fill:#ffffff;fill-opacity:0;fill-rule:nonzero;stroke:#000000;stroke-width:3.08074;stroke-linecap:round;stroke-linejoin:round;stroke-miterlimit:10;stroke-dasharray:none;stroke-opacity:1"
       transform="scale(0.32012804)" />
    <path
       id="path152"
       d="m 941.74463,589.98505 61.28477,-42.47541"
       style="fill:#ffffff;fill-opacity:0;fill-rule:nonzero;stroke:#d10000;stroke-width:5;stroke-linecap:round;stroke-linejoin:round;stroke-miterlimit:10;stroke-dasharray:none;stroke-opacity:1"
       transform="scale(0.32012804)" />
    <path
       id="path153"
       d="m 966.3418,564.11188 1.05774,0.36596 1.20843,0.1261 1.08563,-0.0315 1.09241,-0.0925 1.22675,-0.0582 1.11261,-0.005 1.13391,0.0648 1.01324,0.26001"
       style="fill:#ffffff;fill-opacity:0;fill-rule:nonzero;stroke:#d10000;stroke-width:2.55378;stroke-linecap:round;stroke-linejoin:round;stroke-miterlimit:10;stroke-dasharray:none;stroke-opacity:1"
       transform="scale(0.32012804)" />
    <path
       id="path154"
       d="m 976.526,566.02155 -0.33942,1.01147 -0.30065,1.13361 -0.34906,1.16223 -0.29572,0.96832 -0.12451,0.42139"
       style="fill:#ffffff;fill-opacity:0;fill-rule:nonzero;stroke:#d10000;stroke-width:2.57832;stroke-linecap:round;stroke-linejoin:round;stroke-miterlimit:10;stroke-dasharray:none;stroke-opacity:1"
       transform="scale(0.32012804)" />
    <path
       id="path155"
       d="m 975.11664,570.71857 -0.28314,1.02221 -1.35364,4.96692"
       style="fill:#ffffff;fill-opacity:0;fill-rule:nonzero;stroke:#d10000;stroke-width:3.59335;stroke-linecap:round;stroke-linejoin:round;stroke-miterlimit:10;stroke-dasharray:none;stroke-opacity:1"
       transform="scale(0.32012804)" />
    <path
       id="path156"
       d="m 941.74463,589.98505 61.28477,-42.47541"
       style="fill:#ffffff;fill-opacity:0;fill-rule:nonzero;stroke:#d10000;stroke-width:5;stroke-linecap:round;stroke-linejoin:round;stroke-miterlimit:10;stroke-dasharray:none;stroke-opacity:1"
       transform="matrix(0.32012804,0,0,0.32012803,43.171351,-0.04386667)" />
    <path
       id="path157"
       d="m 966.3418,564.11188 1.05774,0.36596 1.20843,0.1261 1.08563,-0.0315 1.09241,-0.0925 1.22675,-0.0582 1.11261,-0.005 1.13391,0.0648 1.01324,0.26001"
       style="fill:#ffffff;fill-opacity:0;fill-rule:nonzero;stroke:#d10000;stroke-width:2.55378;stroke-linecap:round;stroke-linejoin:round;stroke-miterlimit:10;stroke-dasharray:none;stroke-opacity:1"
       transform="matrix(0.32012957,0,0,0.32012804,43.169865,-0.04386667)" />
    <path
       id="path158"
       d="m 976.526,566.02155 -0.33942,1.01147 -0.30065,1.13361 -0.34906,1.16223 -0.29572,0.96832 -0.12451,0.42139"
       style="fill:#ffffff;fill-opacity:0;fill-rule:nonzero;stroke:#d10000;stroke-width:2.57832;stroke-linecap:round;stroke-linejoin:round;stroke-miterlimit:10;stroke-dasharray:none;stroke-opacity:1"
       transform="matrix(0.32012804,0,0,0.32012803,43.171372,-0.04386667)" />
    <path
       id="path159"
       d="m 975.11664,570.71857 -0.28314,1.02221 -1.35364,4.96692"
       style="fill:#ffffff;fill-opacity:0;fill-rule:nonzero;stroke:#d10000;stroke-width:3.59335;stroke-linecap:round;stroke-linejoin:round;stroke-miterlimit:10;stroke-dasharray:none;stroke-opacity:1"
       transform="matrix(0.32012804,0,0,0.32012803,43.171372,-0.04386667)" />
    <path
       id="path160"
       d="m 941.74463,589.98505 61.28477,-42.47541"
       style="fill:#ffffff;fill-opacity:0;fill-rule:nonzero;stroke:#d10000;stroke-width:5;stroke-linecap:round;stroke-linejoin:round;stroke-miterlimit:10;stroke-dasharray:none;stroke-opacity:1"
       transform="matrix(0.32012804,0,0,0.32012803,0.51069256,-42.681067)" />
    <path
       id="path161"
       d="m 966.3418,564.11188 1.05774,0.36596 1.20843,0.1261 1.08563,-0.0315 1.09241,-0.0925 1.22675,-0.0582 1.11261,-0.005 1.13391,0.0648 1.01324,0.26001"
       style="fill:#ffffff;fill-opacity:0;fill-rule:nonzero;stroke:#d10000;stroke-width:2.55378;stroke-linecap:round;stroke-linejoin:round;stroke-miterlimit:10;stroke-dasharray:none;stroke-opacity:1"
       transform="matrix(0.32012957,0,0,0.32012804,0.50914896,-42.681067)" />
    <path
       id="path162"
       d="m 976.526,566.02155 -0.33942,1.01147 -0.30065,1.13361 -0.34906,1.16223 -0.29572,0.96832 -0.12451,0.42139"
       style="fill:#ffffff;fill-opacity:0;fill-rule:nonzero;stroke:#d10000;stroke-width:2.57832;stroke-linecap:round;stroke-linejoin:round;stroke-miterlimit:10;stroke-dasharray:none;stroke-opacity:1"
       transform="matrix(0.32012804,0,0,0.32012803,0.51073161,-42.681067)" />
    <path
       id="path163"
       d="m 975.11664,570.71857 -0.28314,1.02221 -1.35364,4.96692"
       style="fill:#ffffff;fill-opacity:0;fill-rule:nonzero;stroke:#d10000;stroke-width:3.59335;stroke-linecap:round;stroke-linejoin:round;stroke-miterlimit:10;stroke-dasharray:none;stroke-opacity:1"
       transform="matrix(0.32012804,0,0,0.32012803,0.51073161,-42.681067)" />
    <path
       id="path164"
       d="m 941.74463,589.98505 61.28477,-42.47541"
       style="fill:#ffffff;fill-opacity:0;fill-rule:nonzero;stroke:#d10000;stroke-width:5;stroke-linecap:round;stroke-linejoin:round;stroke-miterlimit:10;stroke-dasharray:none;stroke-opacity:1"
       transform="matrix(0.32012804,0,0,0.32012803,1.1512221,-79.2474)" />
    <path
       id="path165"
       d="m 966.3418,564.11188 1.05774,0.36596 1.20843,0.1261 1.08563,-0.0315 1.09241,-0.0925 1.22675,-0.0582 1.11261,-0.005 1.13391,0.0648 1.01324,0.26001"
       style="fill:#ffffff;fill-opacity:0;fill-rule:nonzero;stroke:#d10000;stroke-width:2.55378;stroke-linecap:round;stroke-linejoin:round;stroke-miterlimit:10;stroke-dasharray:none;stroke-opacity:1"
       transform="matrix(0.32012957,0,0,0.32012804,1.1496395,-79.2474)" />
    <path
       id="path166"
       d="m 976.526,566.02155 -0.33942,1.01147 -0.30065,1.13361 -0.34906,1.16223 -0.29572,0.96832 -0.12451,0.42139"
       style="fill:#ffffff;fill-opacity:0;fill-rule:nonzero;stroke:#d10000;stroke-width:2.57832;stroke-linecap:round;stroke-linejoin:round;stroke-miterlimit:10;stroke-dasharray:none;stroke-opacity:1"
       transform="matrix(0.32012804,0,0,0.32012803,1.1513003,-79.2474)" />
    <path
       id="path167"
       d="m 975.11664,570.71857 -0.28314,1.02221 -1.35364,4.96692"
       style="fill:#ffffff;fill-opacity:0;fill-rule:nonzero;stroke:#d10000;stroke-width:3.59335;stroke-linecap:round;stroke-linejoin:round;stroke-miterlimit:10;stroke-dasharray:none;stroke-opacity:1"
       transform="matrix(0.32012804,0,0,0.32012803,1.1513003,-79.2474)" />
    <path
       id="path168"
       d="m 941.74463,589.98505 61.28477,-42.47541"
       style="fill:#ffffff;fill-opacity:0;fill-rule:nonzero;stroke:#d10000;stroke-width:5;stroke-linecap:round;stroke-linejoin:round;stroke-miterlimit:10;stroke-dasharray:none;stroke-opacity:1"
       transform="matrix(0.32012804,0,0,0.32012803,45.557693,-79.0874)" />
    <path
       id="path169"
       d="m 966.3418,564.11188 1.05774,0.36596 1.20843,0.1261 1.08563,-0.0315 1.09241,-0.0925 1.22675,-0.0582 1.11261,-0.005 1.13391,0.0648 1.01324,0.26001"
       style="fill:#ffffff;fill-opacity:0;fill-rule:nonzero;stroke:#d10000;stroke-width:2.55378;stroke-linecap:round;stroke-linejoin:round;stroke-miterlimit:10;stroke-dasharray:none;stroke-opacity:1"
       transform="matrix(0.32012652,0,0,0.32012804,45.559061,-79.0874)" />
    <path
       id="path170"
       d="m 976.526,566.02155 -0.33942,1.01147 -0.30065,1.13361 -0.34906,1.16223 -0.29572,0.96832 -0.12451,0.42139"
       style="fill:#ffffff;fill-opacity:0;fill-rule:nonzero;stroke:#d10000;stroke-width:2.57832;stroke-linecap:round;stroke-linejoin:round;stroke-miterlimit:10;stroke-dasharray:none;stroke-opacity:1"
       transform="matrix(0.32012804,0,0,0.32012803,45.557791,-79.0874)" />
    <path
       id="path171"
       d="m 975.11664,570.71857 -0.28314,1.02221 -1.35364,4.96692"
       style="fill:#ffffff;fill-opacity:0;fill-rule:nonzero;stroke:#d10000;stroke-width:3.59335;stroke-linecap:round;stroke-linejoin:round;stroke-miterlimit:10;stroke-dasharray:none;stroke-opacity:1"
       transform="matrix(0.32012804,0,0,0.32012803,45.557791,-79.0874)" />
    <path
       id="path172"
       d="m 941.74463,589.98505 61.28477,-42.47541"
       style="fill:#ffffff;fill-opacity:0;fill-rule:nonzero;stroke:#d10000;stroke-width:5;stroke-linecap:round;stroke-linejoin:round;stroke-miterlimit:10;stroke-dasharray:none;stroke-opacity:1"
       transform="matrix(0.32012804,0,0,0.32012803,79.383723,-42.477867)" />
    <path
       id="path173"
       d="m 966.3418,564.11188 1.05774,0.36596 1.20843,0.1261 1.08563,-0.0315 1.09241,-0.0925 1.22675,-0.0582 1.11261,-0.005 1.13391,0.0648 1.01324,0.26001"
       style="fill:#ffffff;fill-opacity:0;fill-rule:nonzero;stroke:#d10000;stroke-width:2.55378;stroke-linecap:round;stroke-linejoin:round;stroke-miterlimit:10;stroke-dasharray:none;stroke-opacity:1"
       transform="matrix(0.32012652,0,0,0.32012804,79.385091,-42.477867)" />
    <path
       id="path174"
       d="m 976.526,566.02155 -0.33942,1.01147 -0.30065,1.13361 -0.34906,1.16223 -0.29572,0.96832 -0.12451,0.42139"
       style="fill:#ffffff;fill-opacity:0;fill-rule:nonzero;stroke:#d10000;stroke-width:2.57832;stroke-linecap:round;stroke-linejoin:round;stroke-miterlimit:10;stroke-dasharray:none;stroke-opacity:1"
       transform="matrix(0.32012804,0,0,0.32012803,79.38382,-42.477867)" />
    <path
       id="path175"
       d="m 975.11664,570.71857 -0.28314,1.02221 -1.35364,4.96692"
       style="fill:#ffffff;fill-opacity:0;fill-rule:nonzero;stroke:#d10000;stroke-width:3.59335;stroke-linecap:round;stroke-linejoin:round;stroke-miterlimit:10;stroke-dasharray:none;stroke-opacity:1"
       transform="matrix(0.32012804,0,0,0.32012803,79.38382,-42.477867)" />
    <path
       id="path176"
       d="m 941.74463,589.98505 61.28477,-42.47541"
       style="fill:#ffffff;fill-opacity:0;fill-rule:nonzero;stroke:#d10000;stroke-width:5;stroke-linecap:round;stroke-linejoin:round;stroke-miterlimit:10;stroke-dasharray:none;stroke-opacity:1"
       transform="matrix(0.32012804,0,0,0.32012803,79.878688,-1.98096)" />
    <path
       id="path177"
       d="m 966.3418,564.11188 1.05774,0.36596 1.20843,0.1261 1.08563,-0.0315 1.09241,-0.0925 1.22675,-0.0582 1.11261,-0.005 1.13391,0.0648 1.01324,0.26001"
       style="fill:#ffffff;fill-opacity:0;fill-rule:nonzero;stroke:#d10000;stroke-width:2.55378;stroke-linecap:round;stroke-linejoin:round;stroke-miterlimit:10;stroke-dasharray:none;stroke-opacity:1"
       transform="matrix(0.32012652,0,0,0.32012804,79.880056,-1.98096)" />
    <path
       id="path178"
       d="m 976.526,566.02155 -0.33942,1.01147 -0.30065,1.13361 -0.34906,1.16223 -0.29572,0.96832 -0.12451,0.42139"
       style="fill:#ffffff;fill-opacity:0;fill-rule:nonzero;stroke:#d10000;stroke-width:2.57832;stroke-linecap:round;stroke-linejoin:round;stroke-miterlimit:10;stroke-dasharray:none;stroke-opacity:1"
       transform="matrix(0.32012804,0,0,0.32012803,79.878784,-1.98096)" />
    <path
       id="path179"
       d="m 975.11664,570.71857 -0.28314,1.02221 -1.35364,4.96692"
       style="fill:#ffffff;fill-opacity:0;fill-rule:nonzero;stroke:#d10000;stroke-width:3.59335;stroke-linecap:round;stroke-linejoin:round;stroke-miterlimit:10;stroke-dasharray:none;stroke-opacity:1"
       transform="matrix(0.32012804,0,0,0.32012803,79.878784,-1.98096)" />
  </g>
</svg>
