<svg xmlns="http://www.w3.org/2000/svg" xmlns:xlink="http://www.w3.org/1999/xlink" xmlns:inkscape="http://www.inkscape.org/namespaces/inkscape" version="1.1" width="134.866" height="117.098" viewBox="0 0 134.866 117.098">
<defs>
<path id="font_0_4" d="M.5089874 .40376283C.5079956 .40675355 .5039978 .41474916 .5039978 .41775514 .5039978 .41874696 .5219879 .43273927 .5329895 .44073487L.70799258 .5756531C.8019867 .64460757 .84098818 .64860537 .87098696 .6516113 .8789978 .65260317 .8889923 .6536102 .8889923 .6716156 .8889923 .6756134 .8860016 .6826172 .8779907 .6826172 .85598757 .6826172 .83099368 .6796112 .8069916 .6796112 .7709961 .6796112 .7319946 .6826172 .69599917 .6826172 .68899539 .6826172 .6769867 .6826172 .6769867 .6626129 .6769867 .65560916 .6819916 .65260317 .68899539 .6516113 .71099856 .6496124 .7200012 .64460757 .7200012 .63061526 .7200012 .6126251 .6899872 .5896454 .6839905 .5846405L.2939911 .28483583 .37399293 .6056366C.3829956 .6416168 .3849945 .6516113 .45799256 .6516113 .48298646 .6516113 .49198915 .6516113 .49198915 .6716156 .49198915 .680603 .48399354 .6826172 .47799684 .6826172 .44999696 .6826172 .37799073 .6796112 .34999085 .6796112 .32099916 .6796112 .25 .6826172 .22099304 .6826172 .21398926 .6826172 .20098877 .6826172 .20098877 .66360476 .20098877 .6516113 .20999146 .6516113 .22999573 .6516113 .24299622 .6516113 .26098634 .65060427 .272995 .6496124 .2889862 .6476135 .29499818 .64460757 .29499818 .6336212 .29499818 .6296234 .2939911 .62661746 .29100038 .614624L.15699768 .07795715C.14698792 .038986207 .14498902 .0309906 .06599426 .0309906 .04899597 .0309906 .037994386 .0309906 .037994386 .011993408 .037994386 0 .049987794 0 .052993776 0 .08099365 0 .1519928 .0029907227 .17999268 .0029907227 .20098877 .0029907227 .22299195 .0019989014 .24398804 .0019989014 .2659912 .0019989014 .28799439 0 .30899049 0 .31599427 0 .32899476 0 .32899476 .019989014 .32899476 .0309906 .31999208 .0309906 .30099488 .0309906 .2639923 .0309906 .23599243 .0309906 .23599243 .048980714 .23599243 .05596924 .24198914 .07795715 .24499512 .09295654 .25898744 .14492798 .27198792 .19789124 .2849884 .24986267L.43399049 .3657837 .5499878 .096954349C.56199648 .06996155 .56199648 .06796265 .56199648 .061965944 .56199648 .03199768 .5189972 .0309906 .5099945 .0309906 .49899293 .0309906 .48799134 .0309906 .48799134 .010986328 .48799134 0 .5 0 .5019989 0 .5419922 0 .58399966 .0029907227 .6239929 .0029907227 .6459961 .0029907227 .69999697 0 .7220001 0 .72698977 0 .73999026 0 .73999026 .019989014 .73999026 .0309906 .72898867 .0309906 .7200012 .0309906 .67900088 .03199768 .66600039 .040985109 .651001 .07595825L.5089874 .40376283Z"/>
<path id="font_1_1" d="M.054992677 .56999209V.5389862C.10699463 .5399933 .1599884 .5509949 .20498657 .57699587V.18798828 .08999634C.20498657 .07499695 .20698548 .057998659 .19699097 .04598999 .18899536 .036987306 .17599488 .034988405 .16499329 .033996583 .14099121 .03199768 .117996219 .03199768 .09399414 .03199768V.0009918213H.5159912V.03199768C.49198915 .03199768 .46899415 .03199768 .44499208 .033996583 .43399049 .034988405 .42099 .036987306 .41299439 .04598999 .40299989 .057998659 .40499879 .07299805 .40499879 .08699036V.17399597 .5219879 .6259918C.40499879 .6339874 .40499879 .6419983 .40499879 .6499939 .40499879 .6549988 .40499879 .6599884 .40098573 .6629944 .3959961 .6689911 .3829956 .6669922 .37599183 .6669922H.30899049 .2849884C.2809906 .6669922 .27598573 .66799929 .27198792 .66600039 .2679901 .6639862 .2659912 .6599884 .2630005 .6569977 .25898744 .6519928 .25498963 .6469879 .25 .6429901 .23599243 .6289978 .22099304 .6179962 .20399475 .60798647 .15899658 .58200076 .10699463 .57099917 .054992677 .56999209M.37399293 .6359863V.03199768H.2939911V.6359863H.37399293Z"/>
<path id="font_0_5" d="M.37399293 .6046295C.3829956 .64060977 .38598634 .6516113 .47999574 .6516113 .5099945 .6516113 .5179901 .6516113 .5179901 .6706085 .5179901 .6826172 .5069885 .6826172 .5019989 .6826172 .46899415 .6826172 .3869934 .6796112 .35398866 .6796112 .32398988 .6796112 .25099183 .6826172 .22099304 .6826172 .21398926 .6826172 .20199585 .6826172 .20199585 .6626129 .20199585 .6516113 .21099854 .6516113 .22999573 .6516113 .23199463 .6516113 .25099183 .6516113 .2679901 .6496124 .28599549 .6476135 .29499818 .64660647 .29499818 .6336212 .29499818 .6296234 .2939911 .62661746 .29100038 .614624L.15699768 .07795715C.14698792 .038986207 .14498902 .0309906 .06599426 .0309906 .04899597 .0309906 .038986207 .0309906 .038986207 .010986328 .038986207 0 .04798889 0 .06599426 0H.5289917C.5529938 0 .55400088 0 .55999758 .016998291L.6389923 .23286438C.6429901 .24386597 .6429901 .24586487 .6429901 .24685669 .6429901 .2508545 .6399994 .25785829 .6309967 .25785829 .621994 .25785829 .62098696 .2528534 .6139984 .23686219 .5799866 .14492798 .5359955 .0309906 .36299134 .0309906H.2689972C.25498963 .0309906 .25299073 .0309906 .24699402 .03199768 .23699951 .032989503 .23399353 .033996583 .23399353 .041992189 .23399353 .04498291 .23399353 .04698181 .23899842 .064971927L.37399293 .6046295Z"/>
<path id="font_2_1" d="M.68699648 .32714845C.70199587 .32714845 .72099307 .32714845 .72099307 .34713746 .72099307 .36714173 .70199587 .36714173 .6879883 .36714173H.08898926C.07499695 .36714173 .055999757 .36714173 .055999757 .34713746 .055999757 .32714845 .07499695 .32714845 .08999634 .32714845H.68699648M.6879883 .13284302C.70199587 .13284302 .72099307 .13284302 .72099307 .15284729 .72099307 .17285156 .70199587 .17285156 .68699648 .17285156H.08999634C.07499695 .17285156 .055999757 .17285156 .055999757 .15284729 .055999757 .13284302 .07499695 .13284302 .08898926 .13284302H.6879883Z"/>
<path id="font_3_3" d="M.84098818 .60165408C.84999087 .63861086 .85198977 .64660647 .9259949 .64660647 .94799807 .64660647 .95999148 .64660647 .95999148 .6686096 .95999148 .6726074 .95700076 .6826172 .94400027 .6826172 .9149933 .6826172 .84199526 .6786041 .8129883 .6786041 .79599 .6786041 .7609863 .6786041 .74398806 .6796112 .723999 .680603 .69999697 .6826172 .68099978 .6826172 .6749878 .6826172 .6599884 .6826172 .6599884 .660614 .6599884 .64660647 .6719971 .64660647 .69200137 .64660647 .69299319 .64660647 .71199038 .64660647 .7299957 .64460757 .7509918 .64260867 .7529907 .64060977 .7529907 .6306305 .7529907 .6296234 .7529907 .6236267 .7489929 .60865786L.6899872 .37290956H.35499574L.41299439 .60466006C.42199708 .63861086 .42399598 .64660647 .5009918 .64660647 .5179901 .64660647 .5309906 .64660647 .5309906 .6686096 .5309906 .6726074 .5279999 .6826172 .5149994 .6826172 .48599244 .6826172 .41299439 .6786041 .38398744 .6786041 .36698915 .6786041 .33198548 .6786041 .31498719 .6796112 .29499818 .680603 .2709961 .6826172 .2519989 .6826172 .24598694 .6826172 .23098755 .6826172 .23098755 .660614 .23098755 .64660647 .24299622 .64660647 .2630005 .64660647 .2639923 .64660647 .2829895 .64660647 .30099488 .64460757 .32199098 .64260867 .32398988 .64060977 .32398988 .6306305 .32398988 .6286316 .32398988 .6236267 .31999208 .60865786L.18699646 .07798767C.1789856 .04399109 .1769867 .035995485 .09899902 .035995485 .08198547 .035995485 .068984989 .035995485 .068984989 .01499939 .068984989 .004989624 .07598877 0 .084991458 0 .11399841 0 .18598938 .0039978029 .21499634 .0039978029 .23199463 .0039978029 .2669983 .0039978029 .28399659 .0029907227 .3039856 .0019989014 .32899476 0 .34799195 0 .35299684 0 .36898805 0 .36898805 .020996094 .36898805 .035995485 .35899354 .035995485 .33599855 .035995485 .31999208 .035995485 .31599427 .035995485 .2979889 .037994386 .27598573 .040985109 .27598573 .04298401 .27598573 .052993776 .27598573 .053985597 .27598573 .0599823 .27999879 .07498169L.34599305 .33691407H.68099978L.6159973 .07798767C.60798647 .04399109 .60598757 .035995485 .5279999 .035995485 .5109863 .035995485 .49798585 .035995485 .49798585 .01499939 .49798585 .004989624 .5049896 0 .5139923 0 .54299929 0 .61499026 .0039978029 .6439972 .0039978029 .6609955 .0039978029 .69599917 .0039978029 .71299746 .0029907227 .73298647 .0019989014 .7579956 0 .7769928 0 .7819977 0 .7979889 0 .7979889 .020996094 .7979889 .035995485 .7879944 .035995485 .7649994 .035995485 .7489929 .035995485 .7449951 .035995485 .72698977 .037994386 .7049866 .040985109 .7049866 .04298401 .7049866 .052993776 .7049866 .05899048 .70799258 .068984989 .70899966 .07498169L.84098818 .60165408Z"/>
<path id="font_0_3" d="M.7630005 .60565188C.7719879 .6416168 .7739868 .6516113 .8470001 .6516113 .8730011 .6516113 .8809967 .6516113 .8809967 .6716156 .8809967 .6826172 .8699951 .6826172 .86698916 .6826172 .83898928 .6826172 .7669983 .6796112 .7389984 .6796112 .70999148 .6796112 .6389923 .6826172 .6100006 .6826172 .60198977 .6826172 .59098818 .6826172 .59098818 .6626129 .59098818 .6516113 .59999087 .6516113 .61898806 .6516113 .62098696 .6516113 .6399994 .6516113 .6569977 .6496124 .6749878 .6476135 .6839905 .6466217 .6839905 .6336212 .6839905 .6296234 .68299868 .6276245 .6799927 .6146393L.6199951 .37083436H.31498719L.37399293 .60565188C.3829956 .6416168 .38598634 .6516113 .45799256 .6516113 .48399354 .6516113 .49198915 .6516113 .49198915 .6716156 .49198915 .6826172 .48098756 .6826172 .47799684 .6826172 .44999696 .6826172 .37799073 .6796112 .34999085 .6796112 .32099916 .6796112 .25 .6826172 .22099304 .6826172 .21299744 .6826172 .20199585 .6826172 .20199585 .6626129 .20199585 .6516113 .21099854 .6516113 .22999573 .6516113 .23199463 .6516113 .25099183 .6516113 .2679901 .6496124 .28599549 .6476135 .29499818 .6466217 .29499818 .6336212 .29499818 .6296234 .2939911 .6266327 .29100038 .6146393L.15699768 .07797241C.14698792 .038986207 .14498902 .0309906 .06599426 .0309906 .04798889 .0309906 .038986207 .0309906 .038986207 .010986328 .038986207 0 .050994874 0 .052993776 0 .08099365 0 .1519928 .0029907227 .17999268 .0029907227 .20098877 .0029907227 .22299195 .0019989014 .24398804 .0019989014 .2659912 .0019989014 .28799439 0 .30899049 0 .31698609 0 .32899476 0 .32899476 .019989014 .32899476 .0309906 .31999208 .0309906 .30099488 .0309906 .2639923 .0309906 .23599243 .0309906 .23599243 .048980714 .23599243 .054977418 .23799134 .0599823 .23899842 .065979007L.30699159 .33984376H.6119995C.56999209 .17391968 .5469971 .07896423 .54299929 .0639801 .5329895 .03199768 .5139923 .0309906 .45199586 .0309906 .43699647 .0309906 .42799378 .0309906 .42799378 .010986328 .42799378 0 .43998719 0 .44198609 0 .46998597 0 .54100039 .0029907227 .56900027 .0029907227 .58999636 .0029907227 .6119995 .0019989014 .6329956 .0019989014 .6549988 .0019989014 .6769867 0 .69799807 0 .70599368 0 .71798709 0 .71798709 .019989014 .71798709 .0309906 .70899966 .0309906 .6899872 .0309906 .6529999 .0309906 .625 .0309906 .625 .048980714 .625 .054977418 .6269989 .0599823 .6279907 .065979007L.7630005 .60565188Z"/>
<path id="font_0_1" d="M.30299378 .3244629H.3999939C.47499085 .3244629 .48298646 .30848695 .48298646 .27954103 .48298646 .2725525 .48298646 .26057435 .47599793 .2306366 .47399903 .22564698 .47299195 .22164917 .47299195 .21965027 .47299195 .21166992 .47898866 .20767212 .4850006 .20767212 .49499513 .20767212 .49499513 .21066284 .5 .2286377L.5549927 .44551087C.55799868 .45651246 .55799868 .45851136 .55799868 .46151734 .55799868 .46351625 .55599978 .47251893 .54599 .47251893 .5359955 .47251893 .5349884 .46751405 .5309906 .45150758 .5099945 .37347413 .4869995 .35546876 .4019928 .35546876H.31098939L.375 .6095886C.38398744 .64460757 .3849945 .64860537 .42900086 .64860537H.5609894C.6839905 .64860537 .70700076 .6156006 .70700076 .53855898 .70700076 .5155487 .70700076 .51153567 .70399478 .4845276 .70199587 .4715271 .70199587 .46951295 .70199587 .46652223 .70199587 .46151734 .7049866 .45451356 .71398928 .45451356 .72499087 .45451356 .7259979 .46051026 .7279968 .4795227L.7480011 .65260317C.7509918 .6796112 .74598696 .6796112 .72099307 .6796112H.23098755C.21099854 .6796112 .20098877 .6796112 .20098877 .65960696 .20098877 .64860537 .20999146 .64860537 .22898865 .64860537 .2659912 .64860537 .2939911 .64860537 .2939911 .6306 .2939911 .6266022 .2939911 .6246033 .2889862 .60658267L.15699768 .07791138C.14698792 .038970949 .14498902 .0309906 .06599426 .0309906 .04899597 .0309906 .037994386 .0309906 .037994386 .011993408 .037994386 0 .049987794 0 .052993776 0 .08198547 0 .1559906 .0029907227 .18499756 .0029907227 .21798706 .0029907227 .30099488 0 .33399964 0 .34298707 0 .35499574 0 .35499574 .018997193 .35499574 .026992798 .34899903 .0289917 .34899903 .02999878 .34599305 .0309906 .34399415 .0309906 .32099916 .0309906 .29899598 .0309906 .2939911 .0309906 .2689972 .032989503 .23999024 .035980226 .23699951 .039978029 .23699951 .052947999 .23699951 .0549469 .23699951 .060943605 .24099732 .075912479L.30299378 .3244629Z"/>
<path id="font_3_2" d="M.84298709 .6901245C.84298709 .69511416 .83999636 .703125 .8299866 .703125 .82299807 .703125 .82099917 .70111086 .81199648 .69111636L.7389984 .614151C.7299957 .6261444 .673996 .703125 .5509949 .703125 .30799867 .703125 .069992069 .4882202 .069992069 .26235963 .069992069 .107421878 .18798828-.01953125 .37998963-.01953125 .46798707-.01953125 .5609894 .0034637452 .61299136 .059448244 .6230011 .03744507 .6499939 .0014648438 .6619873 .0014648438 .67099 .0014648438 .6729889 .0054626467 .6779938 .02645874L.69699099 .10342407C.70199587 .121414188 .71598818 .18138123 .71899417 .19337464 .73098757 .23835755 .7319946 .23936463 .79100039 .24035645 .7979889 .24035645 .8129883 .24035645 .8129883 .26135255 .8129883 .2713623 .80599978 .2763672 .7979889 .2763672 .7649994 .2763672 .72299197 .27235414 .6879883 .27235414 .6629944 .27235414 .6299896 .27235414 .6049957 .2733612 .5799866 .27435304 .5509949 .2763672 .526001 .2763672 .5189972 .2763672 .5039978 .2763672 .5039978 .254364 .5039978 .24035645 .5149994 .24035645 .5399933 .24035645 .5589905 .24035645 .57899478 .24035645 .59799197 .23835755 .6299896 .23536682 .6309967 .23136902 .6309967 .21936035 .6309967 .21536255 .6309967 .21336365 .6239929 .18737793 .61698916 .15939331 .60598757 .1144104 .60198977 .10441589 .57299807 .043441774 .47999574 .016464234 .4019928 .016464234 .3019867 .016464234 .17098999 .064437869 .17098999 .23336792 .17098999 .34031678 .22099304 .47424317 .29499818 .54919436 .397995 .65112307 .5049896 .66711428 .5609894 .66711428 .6769867 .66711428 .7449951 .58317568 .7449951 .47123719 .7449951 .44325257 .74198916 .43626405 .74198916 .43026734 .74198916 .41726686 .7549896 .41726686 .7599945 .41726686 .776001 .41726686 .776001 .42027284 .7809906 .43925477L.84298709 .6901245Z"/>
<path id="font_0_2" d="M.7599945 .69506838C.7599945 .69807437 .7579956 .7050781 .7489929 .7050781 .74598696 .7050781 .7449951 .70407107 .73399356 .69306948L.6639862 .61598208C.6549988 .6300049 .60899356 .7050781 .49798585 .7050781 .2749939 .7050781 .049987794 .4837799 .049987794 .25144959 .049987794 .09249878 .16099549-.022460938 .32299806-.022460938 .36698915-.022460938 .4119873-.013473511 .44799806 .0015258789 .49798585 .021530152 .5169983 .042526246 .5349884 .06251526 .5439911 .037521364 .56999209 .0005340576 .5799866 .0005340576 .58499148 .0005340576 .58699038 .0035247803 .58699038 .0045318605 .58898928 .0065307619 .598999 .044525148 .60398867 .06550598L.6230011 .14248657C.6269989 .15948487 .6319885 .1764679 .6359863 .19346619 .6469879 .2384491 .647995 .240448 .7049866 .24145508 .70999148 .24145508 .72099307 .2424469 .72099307 .26145936 .72099307 .26844789 .71598818 .27246095 .70799258 .27246095 .68499758 .27246095 .6259918 .26945497 .6029968 .26945497 .57199099 .26945497 .49398805 .27246095 .46299745 .27246095 .45399476 .27246095 .44198609 .27246095 .44198609 .25245667 .44198609 .24145508 .44999696 .24145508 .47200013 .24145508 .47299195 .24145508 .5019989 .24145508 .5249939 .23945618 .5509949 .2364502 .55599978 .23345948 .55599978 .22045899 .55599978 .2114563 .54499819 .16647339 .5349884 .12948609 .5069885 .01953125 .3769989 .008529663 .34199525 .008529663 .24598694 .008529663 .14099121 .06550598 .14099121 .21846009 .14099121 .24945069 .15098572 .41467286 .2559967 .5448761 .30999757 .6129761 .40699769 .67407229 .5059967 .67407229 .60798647 .67407229 .6669922 .59695437 .6669922 .48077394 .6669922 .44070436 .6639862 .43971253 .6639862 .4296875 .6639862 .41967774 .6749878 .41967774 .67900088 .41967774 .69200137 .41967774 .69200137 .42167665 .69699099 .43971253L.7599945 .69506838Z"/>
<path id="font_3_1" d="M.5009918 .70599368C.5069885 .71899417 .5069885 .72099307 .5069885 .72499087 .5069885 .7409973 .49398805 .75 .48298646 .75 .46598817 .75 .46099855 .73799136 .45599366 .72499087L.08299255-.20600891C.07699585-.2190094 .07699585-.2210083 .07699585-.2250061 .07699585-.24101258 .08999634-.25 .100997928-.25 .117996219-.25 .12298584-.23800659 .12799073-.2250061L.5009918 .70599368Z"/>
</defs>
<use data-text="K" xlink:href="#font_0_4" transform="matrix(9.9626,0,0,-9.9626,18.161,10.440994)"/>
<use data-text="1" xlink:href="#font_1_1" transform="matrix(9.9626,0,0,-9.9626,123.002,10.440994)"/>
<use data-text="L" xlink:href="#font_0_5" transform="matrix(9.9626,0,0,-9.9626,4.350994,61.95299)"/>
<use data-text="=" xlink:href="#font_2_1" transform="matrix(9.9626,0,0,-9.9626,13.898994,61.95299)"/>
<use data-text="K" xlink:href="#font_0_4" transform="matrix(9.9626,0,0,-9.9626,24.414996,61.95299)"/>
<use data-text="H" xlink:href="#font_3_3" transform="matrix(6.9738,0,0,-6.9738,33.588998,58.33799)"/>
<use data-text="H" xlink:href="#font_0_3" transform="matrix(9.9626,0,0,-9.9626,121.501,61.95299)"/>
<use data-text="F" xlink:href="#font_0_1" transform="matrix(9.9626,0,0,-9.9626,4.2739927,113.465)"/>
<use data-text="=" xlink:href="#font_2_1" transform="matrix(9.9626,0,0,-9.9626,14.831992,113.465)"/>
<use data-text="K" xlink:href="#font_0_4" transform="matrix(9.9626,0,0,-9.9626,25.347992,113.465)"/>
<use data-text="G" xlink:href="#font_3_2" transform="matrix(6.9738,0,0,-6.9738,34.52199,109.85)"/>
<use data-text="G" xlink:href="#font_0_2" transform="matrix(9.9626,0,0,-9.9626,122.13,113.465)"/>
<path transform="matrix(1,0,0,-1,67.433,58.549)" stroke-width=".39848" stroke-linecap="butt" stroke-miterlimit="10" stroke-linejoin="miter" fill="none" stroke="#000000" d="M-44.6854 8.80919V43.87823"/>
<path transform="matrix(0,-1,-1,-0,22.7476,14.471531)" stroke-width=".39848" stroke-linecap="round" stroke-linejoin="round" fill="none" stroke="#000000" d="M-2.07213 2.39091C-1.69356 .95633-.84995 .27893 0 0-.84995-.27893-1.69356-.95633-2.07213-2.39091"/>
<use data-text="H" xlink:href="#font_3_3" transform="matrix(6.9738,0,0,-6.9738,13.354,34.389)"/>
<path transform="matrix(1,0,0,-1,67.433,58.549)" stroke-width=".39848" stroke-linecap="butt" stroke-miterlimit="10" stroke-linejoin="miter" fill="none" stroke="#000000" d="M58.61433 7.23611V43.87823"/>
<path transform="matrix(0,-1,-1,-0,126.04733,14.471531)" stroke-width=".39848" stroke-linecap="round" stroke-linejoin="round" fill="none" stroke="#000000" d="M-2.07213 2.39091C-1.69356 .95633-.84995 .27893 0 0-.84995-.27893-1.69356-.95633-2.07213-2.39091"/>
<path transform="matrix(1,0,0,-1,67.433,58.549)" stroke-width=".39848" stroke-linecap="butt" stroke-miterlimit="10" stroke-linejoin="miter" fill="none" stroke="#000000" d="M-36.62984-42.70364C-14.79707-16.36646-14.79707 14.53996-39.19229 43.96997"/>
<path transform="matrix(-.63814,-.76984,-.76984,.63814,28.113568,14.425678)" stroke-width=".39848" stroke-linecap="round" stroke-linejoin="round" fill="none" stroke="#000000" d="M-2.07213 2.39091C-1.69356 .95633-.84995 .27893 0 0-.84995-.27893-1.69356-.95633-2.07213-2.39091"/>
<use data-text="G" xlink:href="#font_3_2" transform="matrix(6.9738,0,0,-6.9738,49.162,61.42)"/>
<path transform="matrix(1,0,0,-1,67.433,58.549)" stroke-width=".39848" stroke-linecap="butt" stroke-miterlimit="10" stroke-linejoin="miter" fill="none" stroke="#000000" d="M-44.6854-42.70364V-7.6346"/>
<path transform="matrix(0,-1,-1,-0,22.7476,65.98435)" stroke-width=".39848" stroke-linecap="round" stroke-linejoin="round" fill="none" stroke="#000000" d="M-2.07213 2.39091C-1.69356 .95633-.84995 .27893 0 0-.84995-.27893-1.69356-.95633-2.07213-2.39091"/>
<use data-text="G" xlink:href="#font_3_2" transform="matrix(6.9738,0,0,-6.9738,3.0690003,85.262)"/>
<use data-text="/" xlink:href="#font_3_1" transform="matrix(6.9738,0,0,-6.9738,9.268709,85.262)"/>
<use data-text="H" xlink:href="#font_3_3" transform="matrix(6.9738,0,0,-6.9738,13.348383,85.262)"/>
<path transform="matrix(1,0,0,-1,67.433,58.549)" stroke-width=".39848" stroke-linecap="butt" stroke-miterlimit="10" stroke-linejoin="miter" fill="none" stroke="#000000" d="M58.61433-44.27672V-7.6346"/>
<path transform="matrix(0,-1,-1,-0,126.04733,65.98435)" stroke-width=".39848" stroke-linecap="round" stroke-linejoin="round" fill="none" stroke="#000000" d="M-2.07213 2.39091C-1.69356 .95633-.84995 .27893 0 0-.84995-.27893-1.69356-.95633-2.07213-2.39091"/>
</svg>
