<?xml version="1.0" encoding="UTF-8" standalone="no"?>
<!-- Created with Inkscape (http://www.inkscape.org/) -->

<svg
   version="1.1"
   id="svg1"
   width="115.51067"
   height="172.20399"
   viewBox="0 0 115.51067 172.20399"
   sodipodi:docname="permutation_braids_2.pdf"
   xmlns:inkscape="http://www.inkscape.org/namespaces/inkscape"
   xmlns:sodipodi="http://sodipodi.sourceforge.net/DTD/sodipodi-0.dtd"
   xmlns="http://www.w3.org/2000/svg"
   xmlns:svg="http://www.w3.org/2000/svg">
  <defs
     id="defs1" />
  <sodipodi:namedview
     id="namedview1"
     pagecolor="#ffffff"
     bordercolor="#000000"
     borderopacity="0.25"
     inkscape:showpageshadow="2"
     inkscape:pageopacity="0.0"
     inkscape:pagecheckerboard="0"
     inkscape:deskcolor="#d1d1d1">
    <inkscape:page
       x="0"
       y="0"
       inkscape:label="1"
       id="page1"
       width="115.51067"
       height="172.20399"
       margin="0"
       bleed="0" />
  </sodipodi:namedview>
  <g
     id="g1"
     inkscape:groupmode="layer"
     inkscape:label="1">
    <path
       id="path1"
       d="m 85.04042,0 v -7.08669 -1.41734 c 0,-5.74022 -5.74023,-8.89735 -12.05449,-11.79617 M 68.7481,-22.21999 C 62.43385,-25.1188 56.69362,-28.27592 56.69362,-34.01616 v -2.83467 c 0,-5.74022 -5.74025,-8.89735 -12.05449,-11.79617 m -4.23784,-1.91979 C 34.08704,-53.4656 28.3468,-56.62274 28.3468,-62.36296 v -2.83469 c 0,-5.74022 -5.74023,-8.89735 -12.05449,-11.79617 M 12.05447,-78.9136 C 5.74023,-81.81242 0,-84.96954 0,-90.70978 v -36.85083"
       style="fill:none;stroke:#000000;stroke-width:1.59404;stroke-linecap:butt;stroke-linejoin:miter;stroke-miterlimit:10;stroke-dasharray:none;stroke-opacity:1"
       transform="matrix(1.3333333,0,0,-1.3333333,1.0626667,1.0626667)" />
    <path
       id="path2"
       d="m 28.3468,0 v -7.08669 -29.76414 c 0,-12.75607 28.34682,-12.75606 28.34682,-25.51213 v -31.18149 c 0,-5.74023 -5.74025,-8.89735 -12.05449,-11.79617 m -4.23784,-1.91978 c -6.31425,-2.89883 -12.05449,-6.05596 -12.05449,-11.79618 v -8.50403"
       style="fill:none;stroke:#000000;stroke-width:1.59404;stroke-linecap:butt;stroke-linejoin:miter;stroke-miterlimit:10;stroke-dasharray:none;stroke-opacity:1"
       transform="matrix(1.3333333,0,0,-1.3333333,1.0626667,1.0626667)" />
    <path
       id="path3"
       d="M 0,0 V -7.08669 -65.19765 C 0,-77.95372 28.3468,-77.9537 28.3468,-90.70978 v -2.83467 c 0,-12.75607 28.34682,-12.75605 28.34682,-25.51213 v -8.50403"
       style="fill:none;stroke:#000000;stroke-width:1.59404;stroke-linecap:butt;stroke-linejoin:miter;stroke-miterlimit:10;stroke-dasharray:none;stroke-opacity:1"
       transform="matrix(1.3333333,0,0,-1.3333333,1.0626667,1.0626667)" />
    <path
       id="path4"
       d="m 56.69362,0 v -7.08669 -1.41734 c 0,-12.75607 28.3468,-12.75606 28.3468,-25.51213 v -93.54445"
       style="fill:none;stroke:#000000;stroke-width:1.59404;stroke-linecap:butt;stroke-linejoin:miter;stroke-miterlimit:10;stroke-dasharray:none;stroke-opacity:1"
       transform="matrix(1.3333333,0,0,-1.3333333,1.0626667,1.0626667)" />
  </g>
</svg>
