<?xml version="1.0" encoding="UTF-8" standalone="no"?>
<!-- Created with Inkscape (http://www.inkscape.org/) -->

<svg
   version="1.1"
   id="svg1"
   width="356.46133"
   height="85.35067"
   viewBox="0 0 356.46133 85.35067"
   sodipodi:docname="Draft.pdf"
   xmlns:inkscape="http://www.inkscape.org/namespaces/inkscape"
   xmlns:sodipodi="http://sodipodi.sourceforge.net/DTD/sodipodi-0.dtd"
   xmlns="http://www.w3.org/2000/svg"
   xmlns:svg="http://www.w3.org/2000/svg">
  <defs
     id="defs1" />
  <sodipodi:namedview
     id="namedview1"
     pagecolor="#ffffff"
     bordercolor="#000000"
     borderopacity="0.25"
     inkscape:showpageshadow="2"
     inkscape:pageopacity="0.0"
     inkscape:pagecheckerboard="0"
     inkscape:deskcolor="#d1d1d1">
    <inkscape:page
       x="0"
       y="0"
       inkscape:label="1"
       id="page1"
       width="356.46133"
       height="85.35067"
       margin="0"
       bleed="0" />
  </sodipodi:namedview>
  <g
     id="g1"
     inkscape:groupmode="layer"
     inkscape:label="1">
    <path
       id="path1"
       d="m 7.5709609,-6.925375 c 0,-0.023437 -0.023437,-0.09375 -0.1054687,-0.09375 -0.035156,0 -0.046875,0.011719 -0.1523438,0.1171875 l -0.703125,0.7617187 C 6.5279922,-6.2808438 6.0709609,-7.019125 4.9576797,-7.019125 c -2.2148438,0 -4.45312501,2.203125 -4.45312501,4.5117187 0,1.64062505 1.17187501,2.7304688 2.69531251,2.7304688 0.8671875,0 1.6171875,-0.3984375 2.1445312,-0.85546875 0.9375,-0.82031255 1.1015625,-1.72265625 1.1015625,-1.75781255 0,-0.1054687 -0.1054687,-0.1054687 -0.1171875,-0.1054687 -0.058594,0 -0.1171875,0.023437 -0.1289062,0.1054687 -0.09375,0.2929688 -0.3164063,0.9960938 -1.0078125,1.57031255 -0.6914063,0.5625 -1.3125,0.7265625 -1.8398438,0.7265625 -0.890625,0 -1.9453125,-0.515625 -1.9453125,-2.06250005 0,-0.5742187 0.2109375,-2.1914062 1.2070313,-3.3515625 0.609375,-0.703125 1.5351562,-1.2070312 2.4257812,-1.2070312 1.0195313,0 1.6054688,0.7734375 1.6054688,1.921875 0,0.3984375 -0.035156,0.4101562 -0.035156,0.5039062 0,0.1054688 0.1171875,0.1054688 0.1523438,0.1054688 0.1289062,0 0.1289062,-0.023437 0.1757812,-0.1992188 z m 0,0"
       style="fill:#000000;fill-opacity:1;fill-rule:nonzero;stroke:none"
       aria-label="C"
       transform="matrix(1.3333333,0,0,1.3333333,258.51867,13.921333)" />
    <path
       id="path2"
       d="m 4.5824453,-3.1866406 c 0,-0.796875 -0.046875,-1.59375 -0.3984375,-2.3320313 -0.4570312,-0.9609375 -1.2773437,-1.1132812 -1.6875,-1.1132812 -0.5976562,0 -1.3359375,0.2578125 -1.73437499,1.1835937 -0.328125,0.6914063 -0.375,1.4648438 -0.375,2.2617188 0,0.75 0.046875,1.640625 0.4453125,2.40234373 0.43359379,0.80859375 1.16015629,1.0078125 1.65234379,1.0078125 0.5390625,0 1.2890625,-0.2109375 1.734375,-1.16015625 C 4.5355703,-1.6280469 4.5824453,-2.4014844 4.5824453,-3.1866406 Z M 2.4847891,8.59375e-4 c -0.3867188,0 -0.984375,-0.246093745 -1.1601563,-1.207031275 -0.1054687,-0.5976562 -0.1054687,-1.5117187 -0.1054687,-2.0976562 0,-0.6445313 0,-1.3007813 0.082031,-1.8398438 0.1875,-1.1835937 0.9257813,-1.265625 1.1835938,-1.265625 0.328125,0 0.984375,0.1757813 1.171875,1.1601563 0.09375,0.5625 0.09375,1.3125 0.09375,1.9453125 0,0.75 0,1.4179687 -0.1054688,2.0625 C 3.4926016,-0.30382812 2.9301016,8.59375e-4 2.4847891,8.59375e-4 Z m 0,0"
       style="fill:#000000;fill-opacity:1;fill-rule:nonzero;stroke:none"
       aria-label="0"
       transform="matrix(1.3333333,0,0,1.3333333,5.6986667,80.506667)" />
    <path
       id="path3"
       d="m 1.78225,-1.1475781 c -0.3984375,0.66796873 -0.78515625,0.80859373 -1.21875,0.84374998 -0.12890625,0 -0.2109375,0 -0.2109375,0.19921875 0,0.05859375 0.046875,0.105468745 0.12890625,0.105468745 0.26953125,0 0.57421875,-0.035156245 0.85546875,-0.035156245 0.328125,0 0.6796875,0.035156245 0.9960938,0.035156245 0.058594,0 0.1875,0 0.1875,-0.187499995 0,-0.1171875 -0.09375,-0.1171875 -0.1640625,-0.1171875 -0.2226563,-0.0234375 -0.4570313,-0.10546875 -0.4570313,-0.3515625 0,-0.1171875 0.058594,-0.234375 0.1289063,-0.37499998 l 0.7617187,-1.265625 h 2.4960938 c 0.023437,0.1992187 0.1640625,1.55859373 0.1640625,1.66406248 0,0.29296875 -0.515625,0.328125 -0.7148438,0.328125 -0.140625,0 -0.2460937,0 -0.2460937,0.19921875 0,0.105468745 0.1289062,0.105468745 0.140625,0.105468745 0.4101562,0 0.84375,-0.035156245 1.2539062,-0.035156245 0.2460938,0 0.8671875,0.035156245 1.125,0.035156245 0.058594,0 0.1757813,0 0.1757813,-0.199218745 0,-0.10546875 -0.1054688,-0.10546875 -0.234375,-0.10546875 -0.609375,0 -0.609375,-0.0703125 -0.6445313,-0.36328125 L 5.6963125,-6.8897656 c -0.011719,-0.1992188 -0.011719,-0.2460938 -0.1875,-0.2460938 -0.1640625,0 -0.1992187,0.070312 -0.2578125,0.1757813 z m 1.1953125,-1.4648438 1.96875,-3.28125 0.3164063,3.28125 z m 0,0"
       style="fill:#000000;fill-opacity:1;fill-rule:nonzero;stroke:none"
       aria-label="A"
       transform="matrix(1.3333333,0,0,1.3333333,87.498667,80.506667)" />
    <path
       id="path4"
       d="m 1.5926406,-0.77257812 c -0.09375,0.38671875 -0.1171875,0.46875 -0.90234372,0.46875 -0.17578125,0 -0.26953125,0 -0.26953125,0.19921875 0,0.105468745 0.0820313,0.105468745 0.26953125,0.105468745 H 4.2410781 c 1.5703125,0 2.7539063,-1.171874975 2.7539063,-2.156249975 0,-0.7148438 -0.5859375,-1.2890625 -1.546875,-1.3945313 1.03125,-0.1992187 2.0859375,-0.9375 2.0859375,-1.875 0,-0.7382812 -0.65625,-1.3828125 -1.8515625,-1.3828125 H 2.3309219 c -0.1875,0 -0.2929688,0 -0.2929688,0.1992188 0,0.1171875 0.09375,0.1171875 0.28125,0.1171875 0.023437,0 0.2109375,0 0.375,0.011719 0.1875,0.023437 0.2695313,0.035156 0.2695313,0.1640625 0,0.035156 -0.011719,0.070312 -0.035156,0.1875 z m 1.5,-2.87109378 0.6210938,-2.4726562 c 0.09375,-0.3515625 0.1054687,-0.375 0.5390625,-0.375 h 1.2890625 c 0.8671875,0 1.078125,0.5859375 1.078125,1.0195312 0,0.8789063 -0.8554688,1.828125 -2.0742188,1.828125 z m -0.4453125,3.33984378 c -0.140625,0 -0.1523437,0 -0.2226562,-0.0117188 -0.09375,-0.0117188 -0.1289063,-0.0234375 -0.1289063,-0.10546875 0,-0.0234375 0,-0.046875 0.058594,-0.22265625 L 3.0340469,-3.4210156 h 1.8867187 c 0.9609375,0 1.1484375,0.7265625 1.1484375,1.1601562 0,0.984375 -0.890625,1.95703128 -2.0625,1.95703128 z m 0,0"
       style="fill:#000000;fill-opacity:1;fill-rule:nonzero;stroke:none"
       aria-label="B"
       transform="matrix(1.3333333,0,0,1.3333333,172.61867,80.506667)" />
    <path
       id="path5"
       d="m 7.5709609,-6.9249219 c 0,-0.023437 -0.023437,-0.09375 -0.1054687,-0.09375 -0.035156,0 -0.046875,0.011719 -0.1523438,0.1171875 l -0.703125,0.7617188 c -0.082031,-0.140625 -0.5390625,-0.8789063 -1.6523437,-0.8789063 -2.2148438,0 -4.45312501,2.203125 -4.45312501,4.5117188 0,1.64062498 1.17187501,2.73046873 2.69531251,2.73046873 0.8671875,0 1.6171875,-0.3984375 2.1445312,-0.85546875 0.9375,-0.82031248 1.1015625,-1.72265628 1.1015625,-1.75781248 0,-0.1054688 -0.1054687,-0.1054688 -0.1171875,-0.1054688 -0.058594,0 -0.1171875,0.023437 -0.1289062,0.1054688 -0.09375,0.2929687 -0.3164063,0.9960937 -1.0078125,1.57031248 -0.6914063,0.5625 -1.3125,0.7265625 -1.8398438,0.7265625 -0.890625,0 -1.9453125,-0.515625 -1.9453125,-2.06249998 0,-0.5742188 0.2109375,-2.1914063 1.2070313,-3.3515625 0.609375,-0.703125 1.5351562,-1.2070313 2.4257812,-1.2070313 1.0195313,0 1.6054688,0.7734375 1.6054688,1.921875 0,0.3984375 -0.035156,0.4101563 -0.035156,0.5039063 0,0.1054687 0.1171875,0.1054687 0.1523438,0.1054687 0.1289062,0 0.1289062,-0.023437 0.1757812,-0.1992187 z m 0,0"
       style="fill:#000000;fill-opacity:1;fill-rule:nonzero;stroke:none"
       aria-label="C"
       transform="matrix(1.3333333,0,0,1.3333333,258.51867,80.506667)" />
    <path
       id="path6"
       d="m 4.5818516,-3.1866406 c 0,-0.796875 -0.046875,-1.59375 -0.3984375,-2.3320313 -0.4570313,-0.9609375 -1.2773438,-1.1132812 -1.6875,-1.1132812 -0.5976563,0 -1.3359375,0.2578125 -1.73437504,1.1835937 -0.328125,0.6914063 -0.375,1.4648438 -0.375,2.2617188 0,0.75 0.046875,1.640625 0.4453125,2.40234373 0.43359374,0.80859375 1.16015624,1.0078125 1.65234374,1.0078125 0.5390625,0 1.2890625,-0.2109375 1.734375,-1.16015625 C 4.5349766,-1.6280469 4.5818516,-2.4014844 4.5818516,-3.1866406 Z M 2.4841953,8.59375e-4 c -0.3867187,0 -0.984375,-0.246093745 -1.1601562,-1.207031275 -0.1054688,-0.5976562 -0.1054688,-1.5117187 -0.1054688,-2.0976562 0,-0.6445313 0,-1.3007813 0.082031,-1.8398438 0.1875,-1.1835937 0.9257812,-1.265625 1.1835937,-1.265625 0.328125,0 0.984375,0.1757813 1.171875,1.1601563 0.09375,0.5625 0.09375,1.3125 0.09375,1.9453125 0,0.75 0,1.4179687 -0.1054687,2.0625 C 3.4920078,-0.30382812 2.9295078,8.59375e-4 2.4841953,8.59375e-4 Z m 0,0"
       style="fill:#000000;fill-opacity:1;fill-rule:nonzero;stroke:none"
       aria-label="0"
       transform="matrix(1.3333333,0,0,1.3333333,344.12133,80.506667)" />
    <path
       id="path7"
       d="M 55.9939,17.73375 8.63576,-19.03865"
       style="fill:none;stroke:#000000;stroke-width:0.39848;stroke-linecap:butt;stroke-linejoin:miter;stroke-miterlimit:10;stroke-dasharray:2.78941, 1.59395;stroke-dashoffset:0;stroke-opacity:1"
       transform="matrix(1.3333333,0,0,-1.3333333,178.23067,42.676)" />
    <path
       id="path8"
       d="M -2.07213,2.39091 C -1.69356,0.95633 -0.84995,0.27893 0,0 -0.84995,-0.27893 -1.69356,-0.95633 -2.07213,-2.39091"
       style="fill:none;stroke:#000000;stroke-width:0.39848;stroke-linecap:round;stroke-linejoin:round;stroke-miterlimit:10;stroke-dasharray:none;stroke-opacity:1"
       transform="matrix(-1.0531067,0.81770667,0.81770667,1.0531067,189.5352,68.223787)" />
    <g
       id="g8"
       aria-label="˜&#10;j"
       transform="matrix(1.3333333,0,0,1.3333333,212.87733,36.636)">
      <path
         id="path9"
         d="m 3.1300859,-4.6869609 c -0.2109375,0.2109375 -0.4101562,0.3164062 -0.609375,0.3164062 -0.1757812,0 -0.3867187,-0.1054687 -0.4453125,-0.140625 -0.2460937,-0.1171875 -0.3984375,-0.1757812 -0.5507812,-0.1757812 -0.28125,0 -0.3867188,0.1054687 -0.82031251,0.5507812 l 0.12890625,0.140625 C 1.0441484,-4.2064922 1.2433672,-4.3119609 1.4425859,-4.3119609 c 0.1757813,0 0.3867188,0.1054687 0.4453125,0.140625 0.2460938,0.1171875 0.3984375,0.1757812 0.5507813,0.1757812 0.28125,0 0.3867187,-0.1054687 0.8203125,-0.5625 z m 0,0"
         style="fill:#000000;fill-opacity:1;fill-rule:nonzero;stroke:none" />
      <path
         id="path10"
         d="m 3.1945391,-2.7475078 c 0,-0.1171875 -0.09375,-0.2578125 -0.28125,-0.2578125 -0.1992188,0 -0.3867188,0.1875 -0.3867188,0.375 0,0.1171875 0.082031,0.2695312 0.28125,0.2695312 0.1875,0 0.3867188,-0.1875 0.3867188,-0.3867187 z M 1.7179766,1.9517109 c -0.1171875,0.4804688 -0.4921875,0.890625 -0.90234379,0.890625 -0.0820313,0 -0.17578125,-0.011719 -0.24609375,-0.046875 0.17578125,-0.082031 0.234375,-0.2460937 0.234375,-0.3515625 0,-0.1640625 -0.12890625,-0.2578125 -0.26953125,-0.2578125 -0.22265625,0 -0.3984375,0.1875 -0.3984375,0.4101563 0,0.2695312 0.26953125,0.4335937 0.69140625,0.4335937 0.42187504,0 1.23046874,-0.2460937 1.45312504,-1.1015625 l 0.6210937,-2.49609371 c 0.023437,-0.0703125 0.035156,-0.140625 0.035156,-0.234375 0,-0.38671879 -0.328125,-0.65624999 -0.7382813,-0.65624999 -0.7851562,0 -1.23046874,0.96093749 -1.23046874,1.06640624 0,0.0820313 0.10546874,0.0820313 0.12890624,0.0820313 0.082031,0 0.082031,-0.0117188 0.1289063,-0.1171875 0.1757812,-0.41015625 0.5390625,-0.84374994 0.9492187,-0.84374994 0.1757813,0 0.234375,0.1171875 0.234375,0.33984369 0,0.0820313 -0.011719,0.17578125 -0.023437,0.2109375 z m 0,0"
         style="fill:#000000;fill-opacity:1;fill-rule:nonzero;stroke:none" />
    </g>
    <path
       id="path11"
       d="M 64.13358,17.73375 V -17.33528"
       style="fill:none;stroke:#000000;stroke-width:0.39848;stroke-linecap:butt;stroke-linejoin:miter;stroke-miterlimit:10;stroke-dasharray:none;stroke-opacity:1"
       transform="matrix(1.3333333,0,0,-1.3333333,178.23067,42.676)" />
    <path
       id="path12"
       d="M -2.07213,2.39091 C -1.69356,0.95633 -0.84995,0.27893 0,0 -0.84995,-0.27893 -1.69356,-0.95633 -2.07213,-2.39091"
       style="fill:none;stroke:#000000;stroke-width:0.39848;stroke-linecap:round;stroke-linejoin:round;stroke-miterlimit:10;stroke-dasharray:none;stroke-opacity:1"
       transform="matrix(0,1.3333333,1.3333333,0,263.74211,66.05536)" />
    <path
       id="path13"
       d="m 1.4761641,-4.3020234 c 0,-0.1992188 -0.1757813,-0.3984375 -0.4101563,-0.3984375 -0.21093749,0 -0.39843749,0.1640625 -0.39843749,0.3984375 0,0.2460937 0.19921875,0.3984375 0.39843749,0.3984375 0.2226563,0 0.4101563,-0.1640625 0.4101563,-0.3984375 z m -1.06640629,1.3007812 v 0.2578125 c 0.4453125,0 0.50390625,0.035156 0.50390625,0.375 v 1.81640626 c 0,0.3046875 -0.0703125,0.3046875 -0.52734375,0.3046875 v 0.24609375 c 0.0234375,0 0.50390625,-0.0234375 0.78515629,-0.0234375 0.2460937,0 0.4921875,0 0.7382812,0.0234375 v -0.24609375 c -0.3984375,0 -0.46875,0 -0.46875,-0.29296875 V -3.0715547 Z M 4.7398359,-4.7590547 v 0.2460938 c 0.46875,0 0.515625,0.046875 0.515625,0.3867187 v 1.453125 C 4.9976484,-2.9309297 4.6695234,-3.0715547 4.2828047,-3.0715547 c -0.9257813,0 -1.7109375,0.6914063 -1.7109375,1.5703125 0,0.86718751 0.7382812,1.57031251 1.6289062,1.57031251 0.5742188,0 0.9140625,-0.3046875 1.03125,-0.43359375 v 0.43359375 l 1.078125,-0.0703125 v -0.24609375 c -0.46875,0 -0.5273437,-0.0585937 -0.5273437,-0.3984375 V -4.8410859 Z m 0.4921875,4.03125001 c -0.1757812,0.31640625 -0.5390625,0.59765625 -0.984375,0.59765625 -0.3984375,0 -0.6796875,-0.22265625 -0.8085937,-0.43359375 -0.140625,-0.19921875 -0.2226563,-0.48046871 -0.2226563,-0.92578121 0,-0.1640625 0,-0.6914063 0.28125,-1.0195313 0.28125,-0.3046875 0.6210938,-0.375 0.8203125,-0.375 0.3398438,0 0.6328125,0.1523438 0.8320313,0.4101563 0.082031,0.1054687 0.082031,0.1171875 0.082031,0.2460937 z m 0,0"
       style="fill:#000000;fill-opacity:1;fill-rule:nonzero;stroke:none"
       aria-label="id"
       transform="matrix(1.3333333,0,0,1.3333333,266.856,45.904)" />
    <path
       id="path14"
       d="m -119.94612,-25.88312 h 47.02418"
       style="fill:none;stroke:#000000;stroke-width:0.39848;stroke-linecap:butt;stroke-linejoin:miter;stroke-miterlimit:10;stroke-dasharray:none;stroke-opacity:1"
       transform="matrix(1.3333333,0,0,-1.3333333,178.23067,42.676)" />
    <path
       id="path15"
       d="M -2.07213,2.39091 C -1.69356,0.95633 -0.84995,0.27893 0,0 -0.84995,-0.27893 -1.69356,-0.95633 -2.07213,-2.39091"
       style="fill:none;stroke:#000000;stroke-width:0.39848;stroke-linecap:round;stroke-linejoin:round;stroke-miterlimit:10;stroke-dasharray:none;stroke-opacity:1"
       transform="matrix(1.3333333,0,0,-1.3333333,81.267067,77.186827)" />
    <path
       id="path16"
       d="M -54.0327,-25.88312 H -9.08066"
       style="fill:none;stroke:#000000;stroke-width:0.39848;stroke-linecap:butt;stroke-linejoin:miter;stroke-miterlimit:10;stroke-dasharray:none;stroke-opacity:1"
       transform="matrix(1.3333333,0,0,-1.3333333,178.23067,42.676)" />
    <path
       id="path17"
       d="M 2.07213,2.39091 C 1.69356,0.95633 0.84995,0.27893 0,0 0.84995,-0.27893 1.69356,-0.95633 2.07213,-2.39091"
       style="fill:none;stroke:#000000;stroke-width:0.39848;stroke-linecap:round;stroke-linejoin:round;stroke-miterlimit:10;stroke-dasharray:none;stroke-opacity:1"
       transform="matrix(-1.3333333,0,0,1.3333333,106.45271,77.186827)" />
    <path
       id="path18"
       d="M -2.07213,2.39091 C -1.69356,0.95633 -0.84995,0.27893 0,0 -0.84995,-0.27893 -1.69356,-0.95633 -2.07213,-2.39091"
       style="fill:none;stroke:#000000;stroke-width:0.39848;stroke-linecap:round;stroke-linejoin:round;stroke-miterlimit:10;stroke-dasharray:none;stroke-opacity:1"
       transform="matrix(1.3333333,0,0,-1.3333333,166.38879,77.186827)" />
    <path
       id="path19"
       d="M 8.32104,-25.88312 H 55.34523"
       style="fill:none;stroke:#000000;stroke-width:0.39848;stroke-linecap:butt;stroke-linejoin:miter;stroke-miterlimit:10;stroke-dasharray:none;stroke-opacity:1"
       transform="matrix(1.3333333,0,0,-1.3333333,178.23067,42.676)" />
    <path
       id="path20"
       d="M -2.07213,2.39091 C -1.69356,0.95633 -0.84995,0.27893 0,0 -0.84995,-0.27893 -1.69356,-0.95633 -2.07213,-2.39091"
       style="fill:none;stroke:#000000;stroke-width:0.39848;stroke-linecap:round;stroke-linejoin:round;stroke-miterlimit:10;stroke-dasharray:none;stroke-opacity:1"
       transform="matrix(1.3333333,0,0,-1.3333333,250.37721,77.186827)" />
    <path
       id="path21"
       d="M -2.07213,2.39091 C -1.69356,0.95633 -0.84995,0.27893 0,0 -0.84995,-0.27893 -1.69356,-0.95633 -2.07213,-2.39091"
       style="fill:none;stroke:#000000;stroke-width:0.39848;stroke-linecap:round;stroke-linejoin:round;stroke-miterlimit:10;stroke-dasharray:none;stroke-opacity:1"
       transform="matrix(1.3333333,0,0,-1.3333333,252.28995,77.186827)" />
    <path
       id="path22"
       d="m 3.0580859,-4.3600859 c 0,-0.1171875 -0.09375,-0.2578125 -0.28125,-0.2578125 -0.1992187,0 -0.3867187,0.1875 -0.3867187,0.375 0,0.1171875 0.082031,0.2695312 0.28125,0.2695312 0.1875,0 0.3867187,-0.1875 0.3867187,-0.3867187 z M 1.5815234,0.33913281 C 1.4643359,0.81960156 1.0893359,1.2297578 0.67917969,1.2297578 c -0.0820313,0 -0.17578125,-0.011719 -0.24609375,-0.046875 0.17578125,-0.082031 0.234375,-0.24609374 0.234375,-0.35156249 0,-0.1640625 -0.12890625,-0.2578125 -0.26953125,-0.2578125 -0.22265625,0 -0.3984375025,0.1875 -0.3984375025,0.41015625 0,0.26953124 0.2695312525,0.43359374 0.6914062525,0.43359374 0.42187496,0 1.23046876,-0.2460937 1.45312496,-1.10156249 L 2.7651172,-2.1803984 c 0.023437,-0.070312 0.035156,-0.140625 0.035156,-0.234375 0,-0.3867188 -0.328125,-0.65625 -0.7382812,-0.65625 -0.7851563,0 -1.23046876,0.9609375 -1.23046876,1.0664062 0,0.082031 0.10546875,0.082031 0.12890625,0.082031 0.0820312,0 0.0820312,-0.011719 0.12890621,-0.1171875 0.1757813,-0.4101563 0.5390625,-0.84375 0.9492188,-0.84375 0.1757812,0 0.234375,0.1171875 0.234375,0.3398437 0,0.082031 -0.011719,0.1757813 -0.023437,0.2109375 z m 0,0"
       style="fill:#000000;fill-opacity:1;fill-rule:nonzero;stroke:none"
       aria-label="j"
       transform="matrix(1.3333333,0,0,1.3333333,218.47333,72.262667)" />
    <path
       id="path23"
       d="m 72.52347,-25.88312 h 47.02418"
       style="fill:none;stroke:#000000;stroke-width:0.39848;stroke-linecap:butt;stroke-linejoin:miter;stroke-miterlimit:10;stroke-dasharray:none;stroke-opacity:1"
       transform="matrix(1.3333333,0,0,-1.3333333,178.23067,42.676)" />
    <path
       id="path24"
       d="M -2.07213,2.39091 C -1.69356,0.95633 -0.84995,0.27893 0,0 -0.84995,-0.27893 -1.69356,-0.95633 -2.07213,-2.39091"
       style="fill:none;stroke:#000000;stroke-width:0.39848;stroke-linecap:round;stroke-linejoin:round;stroke-miterlimit:10;stroke-dasharray:none;stroke-opacity:1"
       transform="matrix(1.3333333,0,0,-1.3333333,337.89319,77.186827)" />
  </g>
</svg>
