<?xml version="1.0" encoding="UTF-8" standalone="no"?>
<!-- Created with Inkscape (http://www.inkscape.org/) -->

<svg
   version="1.1"
   id="svg1"
   width="234.94"
   height="96.028"
   viewBox="0 0 234.94 96.028"
   sodipodi:docname="Draft.pdf"
   xmlns:inkscape="http://www.inkscape.org/namespaces/inkscape"
   xmlns:sodipodi="http://sodipodi.sourceforge.net/DTD/sodipodi-0.dtd"
   xmlns="http://www.w3.org/2000/svg"
   xmlns:svg="http://www.w3.org/2000/svg">
  <defs
     id="defs1" />
  <sodipodi:namedview
     id="namedview1"
     pagecolor="#ffffff"
     bordercolor="#000000"
     borderopacity="0.25"
     inkscape:showpageshadow="2"
     inkscape:pageopacity="0.0"
     inkscape:pagecheckerboard="0"
     inkscape:deskcolor="#d1d1d1">
    <inkscape:page
       x="0"
       y="0"
       inkscape:label="1"
       id="page1"
       width="234.94"
       height="96.028"
       margin="0"
       bleed="0" />
  </sodipodi:namedview>
  <g
     id="g1"
     inkscape:groupmode="layer"
     inkscape:label="1">
    <g
       id="g2"
       aria-label="C&#10;0&#10;(X)"
       transform="matrix(1.3333333,0,0,1.3333333,56.546667,17.070667)">
      <path
         id="path2"
         d="m 7.5704688,-6.9260469 c 0,-0.023437 -0.023437,-0.09375 -0.1054688,-0.09375 -0.035156,0 -0.046875,0.011719 -0.1523437,0.1171875 l -0.703125,0.7617188 C 6.5275,-6.2815156 6.0704688,-7.0197969 4.9571875,-7.0197969 c -2.2148437,0 -4.453125,2.203125 -4.453125,4.5117188 0,1.64062498 1.171875,2.73046873 2.6953125,2.73046873 0.8671875,0 1.6171875,-0.3984375 2.1445313,-0.85546875 0.9375,-0.82031248 1.1015625,-1.72265628 1.1015625,-1.75781248 0,-0.1054688 -0.1054688,-0.1054688 -0.1171875,-0.1054688 -0.058594,0 -0.1171875,0.023437 -0.1289063,0.1054688 -0.09375,0.2929687 -0.3164062,0.9960937 -1.0078125,1.57031248 -0.6914062,0.5625 -1.3125,0.7265625 -1.8398437,0.7265625 -0.890625,0 -1.9453125,-0.515625 -1.9453125,-2.06249998 0,-0.5742188 0.2109375,-2.1914063 1.2070312,-3.3515625 0.609375,-0.703125 1.5351563,-1.2070313 2.4257813,-1.2070313 1.0195312,0 1.6054687,0.7734375 1.6054687,1.921875 0,0.3984375 -0.035156,0.4101563 -0.035156,0.5039063 0,0.1054687 0.1171875,0.1054687 0.1523437,0.1054687 0.1289063,0 0.1289063,-0.023437 0.1757813,-0.1992187 z m 0,0"
         style="fill:#000000;fill-opacity:1;fill-rule:nonzero;stroke:none" />
      <path
         id="path3"
         d="m 10.719883,-0.7326875 c 0,-0.7617187 -0.09375,-1.3125 -0.410156,-1.8046875 -0.222657,-0.3164062 -0.6445317,-0.5976562 -1.2070317,-0.5976562 -1.6171875,0 -1.6171875,1.8984375 -1.6171875,2.4023437 0,0.50390625 0,2.3671875 1.6171875,2.3671875 1.6171877,0 1.6171877,-1.86328125 1.6171877,-2.3671875 z M 9.1026953,1.4352813 c -0.3164062,0 -0.75,-0.1875 -0.890625,-0.7617188 -0.09375,-0.41015625 -0.09375,-0.984375 -0.09375,-1.5 0,-0.5039062 0,-1.03125 0.1054688,-1.4179687 0.1523437,-0.5507813 0.5976562,-0.6914063 0.8789062,-0.6914063 0.375,0 0.7382813,0.2226563 0.8671875,0.6328125 0.1054692,0.375 0.1171872,0.8789063 0.1171872,1.4765625 0,0.515625 0,1.04296875 -0.09375,1.4765625 C 9.852695,1.2829375 9.383945,1.4352813 9.1026953,1.4352813 Z m 0,0"
         style="fill:#000000;fill-opacity:1;fill-rule:nonzero;stroke:none" />
      <path
         id="path4"
         d="m 14.882969,2.3903594 c 0,-0.035156 0,-0.046875 -0.164063,-0.2226563 -1.242187,-1.25390622 -1.570312,-3.12890622 -1.570312,-4.6640625 0,-1.7226562 0.386719,-3.4570312 1.605469,-4.7109375 0.128906,-0.1171875 0.128906,-0.1289062 0.128906,-0.1640625 0,-0.070312 -0.03516,-0.1054687 -0.09375,-0.1054687 -0.105469,0 -0.996094,0.6796875 -1.582031,1.9453125 -0.515625,1.1015625 -0.632813,2.203125 -0.632813,3.0351562 0,0.7851563 0.117188,1.99218753 0.65625,3.11718753 0.597656,1.21874997 1.453125,1.87499997 1.558594,1.87499997 0.05859,0 0.09375,-0.035156 0.09375,-0.1054687 z m 0,0"
         style="fill:#000000;fill-opacity:1;fill-rule:nonzero;stroke:none" />
      <path
         id="path5"
         d="M 20.294102,-4.0901094 19.46207,-6.0822969 c -0.03516,-0.070312 -0.04687,-0.1171875 -0.04687,-0.1289062 0,-0.058594 0.164063,-0.2460938 0.585938,-0.28125 0.09375,-0.011719 0.199219,-0.023437 0.199219,-0.1875 0,-0.1289063 -0.117188,-0.1289063 -0.152344,-0.1289063 -0.410156,0 -0.832031,0.035156 -1.253906,0.035156 -0.246094,0 -0.867188,-0.035156 -1.113282,-0.035156 -0.05859,0 -0.1875,0 -0.1875,0.1992188 0,0.1171875 0.105469,0.1171875 0.234375,0.1171875 0.597657,0 0.65625,0.09375 0.75,0.3164062 l 1.171875,2.7773438 -2.097656,2.2617187 -0.128906,0.1054688 c -0.492188,0.52734373 -0.960938,0.69140623 -1.464844,0.72656248 -0.128906,0 -0.222656,0 -0.222656,0.19921875 0,0 0,0.105468745 0.128906,0.105468745 0.304688,0 0.632813,-0.035156245 0.9375,-0.035156245 0.363281,0 0.761719,0.035156245 1.113281,0.035156245 0.05859,0 0.175782,0 0.175782,-0.199218745 0,-0.10546875 -0.09375,-0.10546875 -0.117188,-0.10546875 -0.08203,-0.0117188 -0.398437,-0.0351563 -0.398437,-0.31640625 0,-0.15234375 0.152343,-0.31640625 0.269531,-0.44531253 l 1.019531,-1.078125 0.890625,-0.9726562 1.007813,2.37890623 c 0.04687,0.10546875 0.04687,0.1171875 0.04687,0.140625 0,0.0820313 -0.1875,0.24609375 -0.574219,0.29296875 -0.105469,0 -0.199219,0.0117188 -0.199219,0.1875 0,0.117187495 0.117188,0.117187495 0.152344,0.117187495 0.28125,0 0.972656,-0.035156245 1.253906,-0.035156245 0.246094,0 0.855469,0.035156245 1.101563,0.035156245 0.07031,0 0.199218,0 0.199218,-0.187499995 0,-0.1171875 -0.105468,-0.1171875 -0.1875,-0.1171875 -0.667968,-0.0117188 -0.679687,-0.046875 -0.855468,-0.4453125 -0.386719,-0.92578128 -1.054688,-2.47265628 -1.289063,-3.07031248 0.679688,-0.703125 1.734375,-1.8867188 2.050781,-2.1679688 0.28125,-0.234375 0.667969,-0.4804687 1.265625,-0.5039062 0.128907,-0.011719 0.210938,-0.011719 0.210938,-0.1992188 0,-0.011719 0,-0.1171875 -0.128906,-0.1171875 -0.292969,0 -0.621094,0.035156 -0.9375,0.035156 -0.363282,0 -0.738282,-0.035156 -1.101563,-0.035156 -0.05859,0 -0.1875,0 -0.1875,0.1992188 0,0.070312 0.04687,0.1054687 0.117188,0.1171875 0.09375,0.011719 0.398437,0.023437 0.398437,0.3046875 0,0.140625 -0.105469,0.2695312 -0.1875,0.3632812 z m 0,0"
         style="fill:#000000;fill-opacity:1;fill-rule:nonzero;stroke:none" />
      <path
         id="path6"
         d="m 27.383945,-2.4963594 c 0,-0.7734375 -0.117187,-1.9804687 -0.65625,-3.1054687 -0.597656,-1.21875 -1.464843,-1.875 -1.558593,-1.875 -0.05859,0 -0.105469,0.046875 -0.105469,0.1054687 0,0.035156 0,0.046875 0.199219,0.234375 0.972656,0.984375 1.535156,2.5664063 1.535156,4.640625 0,1.71093753 -0.363281,3.45703128 -1.59375,4.7226563 -0.140625,0.1171875 -0.140625,0.1289062 -0.140625,0.1640625 0,0.058594 0.04687,0.1054687 0.105469,0.1054687 0.09375,0 0.996093,-0.6796875 1.582031,-1.94531247 0.503906,-1.1015625 0.632812,-2.20312503 0.632812,-3.04687503 z m 0,0"
         style="fill:#000000;fill-opacity:1;fill-rule:nonzero;stroke:none" />
    </g>
    <path
       id="path7"
       d="m 5.9414453,-6.4690156 c 0.082031,-0.1289063 0.082031,-0.140625 0.082031,-0.1757813 0,-0.1757812 -0.140625,-0.1757812 -0.328125,-0.1757812 H 1.1367578 c -0.31640624,0 -0.31640624,0.023437 -0.35156249,0.28125 l -0.15234375,1.3476562 -0.0117188,0.1289063 c 0,0.140625 0.10546875,0.1875 0.17578125,0.1875 0.09375,0 0.15234375,-0.070312 0.1640625,-0.140625 0.046875,-0.2460938 0.14062499,-0.6796875 0.73828119,-1.0664063 0.5742188,-0.3632812 1.2656251,-0.3984375 1.6054688,-0.3984375 h 0.8085937 l -3.74999994,6.11718753 c -0.0820313,0.12890625 -0.0820313,0.15234375 -0.0820313,0.1875 0,0.175781245 0.15234375,0.175781245 0.33984375,0.175781245 H 5.7305078 c 0.2929688,0 0.2929688,-0.023437495 0.3398438,-0.281249995 L 6.3398828,-2.2385469 c 0,-0.1171875 -0.09375,-0.1875 -0.1757812,-0.1875 -0.1523438,0 -0.1640625,0.1054688 -0.1992188,0.3046875 -0.1640625,0.8203125 -0.9492187,1.76953128 -2.3554687,1.76953128 H 2.1914453 Z m -4.8164062,-0.011719 h 0.5273437 v 0.011719 c -0.2695312,0.1523437 -0.4570312,0.328125 -0.5742187,0.4453125 z m 3.3984375,0 H 5.5430078 L 1.7812891,-0.35182812 H 0.76175781 Z m 0.5273437,6.11718753 c 0.28125,-0.15234375 0.5390625,-0.375 0.7617188,-0.65625003 -0.011719,0.19921878 -0.035156,0.31640628 -0.082031,0.66796878 H 5.0508203 Z m 0,0"
       style="fill:#000000;fill-opacity:1;fill-rule:nonzero;stroke:none"
       aria-label="Z"
       transform="matrix(1.3333333,0,0,1.3333333,220.38667,17.070667)" />
    <g
       id="g7"
       aria-label="C&#10;0&#10;(X)/im(d&#10;1&#10;)=H&#10;0&#10;(X)"
       transform="matrix(1.3333333,0,0,1.3333333,5.6973333,87.862667)">
      <path
         id="path8"
         d="m 7.5717266,-6.9253203 c 0,-0.023437 -0.023437,-0.09375 -0.1054688,-0.09375 -0.035156,0 -0.046875,0.011719 -0.1523437,0.1171875 l -0.703125,0.7617187 c -0.082031,-0.140625 -0.5390625,-0.8789062 -1.6523438,-0.8789062 -2.2148437,0 -4.45312499,2.203125 -4.45312499,4.5117187 0,1.64062504 1.17187499,2.73046879 2.69531249,2.73046879 0.8671875,0 1.6171875,-0.3984375 2.1445313,-0.85546875 0.9375,-0.82031254 1.1015625,-1.72265624 1.1015625,-1.75781254 0,-0.1054687 -0.1054688,-0.1054687 -0.1171875,-0.1054687 -0.058594,0 -0.1171875,0.023437 -0.1289063,0.1054687 -0.09375,0.2929688 -0.3164062,0.9960938 -1.0078125,1.57031254 -0.6914062,0.5625 -1.3125,0.7265625 -1.8398437,0.7265625 -0.890625,0 -1.9453125,-0.515625 -1.9453125,-2.06250004 0,-0.5742187 0.2109375,-2.1914062 1.2070312,-3.3515625 0.609375,-0.703125 1.5351563,-1.2070312 2.4257813,-1.2070312 1.0195312,0 1.6054687,0.7734375 1.6054687,1.921875 0,0.3984375 -0.035156,0.4101562 -0.035156,0.5039062 0,0.1054688 0.1171875,0.1054688 0.1523437,0.1054688 0.1289063,0 0.1289063,-0.023437 0.1757813,-0.1992188 z m 0,0"
         style="fill:#000000;fill-opacity:1;fill-rule:nonzero;stroke:none" />
      <path
         id="path9"
         d="m 10.718211,-0.73196094 c 0,-0.76171876 -0.09375,-1.31249996 -0.410156,-1.80468746 -0.222657,-0.3164063 -0.6445316,-0.5976563 -1.2070316,-0.5976563 -1.6171875,0 -1.6171875,1.8984375 -1.6171875,2.40234376 0,0.50390625 0,2.36718754 1.6171875,2.36718754 1.6171876,0 1.6171876,-1.86328129 1.6171876,-2.36718754 z M 9.1010234,1.4360078 c -0.3164062,0 -0.75,-0.1875 -0.890625,-0.76171874 -0.09375,-0.41015625 -0.09375,-0.984375 -0.09375,-1.5 0,-0.50390626 0,-1.03124996 0.1054688,-1.41796876 0.1523437,-0.5507812 0.5976562,-0.6914062 0.8789062,-0.6914062 0.375,0 0.7382813,0.2226562 0.8671875,0.6328125 0.1054691,0.375 0.1171871,0.8789062 0.1171871,1.47656246 0,0.515625 0,1.04296875 -0.09375,1.4765625 C 9.8510234,1.2836641 9.3822734,1.4360078 9.1010234,1.4360078 Z m 0,0"
         style="fill:#000000;fill-opacity:1;fill-rule:nonzero;stroke:none" />
      <path
         id="path10"
         d="m 14.884227,2.3910859 c 0,-0.035156 0,-0.046875 -0.164063,-0.2226562 -1.242187,-1.25390626 -1.570312,-3.12890626 -1.570312,-4.6640625 0,-1.7226563 0.386718,-3.4570313 1.605468,-4.7109375 0.128907,-0.1171875 0.128907,-0.1289063 0.128907,-0.1640625 0,-0.070312 -0.03516,-0.1054688 -0.09375,-0.1054688 -0.105469,0 -0.996094,0.6796875 -1.582032,1.9453125 -0.515625,1.1015625 -0.632812,2.203125 -0.632812,3.0351563 0,0.7851562 0.117187,1.99218749 0.65625,3.11718749 0.597656,1.21875001 1.453125,1.87500001 1.558594,1.87500001 0.05859,0 0.09375,-0.035156 0.09375,-0.1054688 z m 0,0"
         style="fill:#000000;fill-opacity:1;fill-rule:nonzero;stroke:none" />
      <path
         id="path11"
         d="m 20.29243,-4.0893828 -0.832032,-1.9921875 c -0.03516,-0.070312 -0.04687,-0.1171875 -0.04687,-0.1289063 0,-0.058594 0.164063,-0.2460937 0.585938,-0.28125 0.09375,-0.011719 0.199219,-0.023437 0.199219,-0.1875 0,-0.1289062 -0.117188,-0.1289062 -0.152344,-0.1289062 -0.410156,0 -0.832031,0.035156 -1.253906,0.035156 -0.246094,0 -0.867188,-0.035156 -1.113282,-0.035156 -0.05859,0 -0.1875,0 -0.1875,0.1992187 0,0.1171875 0.105469,0.1171875 0.234375,0.1171875 0.597657,0 0.65625,0.09375 0.75,0.3164063 l 1.171875,2.7773437 -2.097656,2.2617188 -0.128906,0.1054687 c -0.492188,0.52734379 -0.960938,0.69140629 -1.464844,0.72656254 -0.128906,0 -0.222656,0 -0.222656,0.19921875 0,0 0,0.1054687475 0.128906,0.1054687475 0.304688,0 0.632813,-0.0351562475 0.9375,-0.0351562475 0.363281,0 0.761719,0.0351562475 1.113281,0.0351562475 0.05859,0 0.175782,0 0.175782,-0.1992187475 0,-0.10546875 -0.09375,-0.10546875 -0.117188,-0.10546875 -0.08203,-0.0117188 -0.398437,-0.0351563 -0.398437,-0.31640625 0,-0.15234375 0.152343,-0.31640625 0.269531,-0.44531249 l 1.019531,-1.078125 0.890625,-0.9726563 1.007813,2.37890629 c 0.04687,0.10546875 0.04687,0.1171875 0.04687,0.140625 0,0.0820313 -0.1875,0.24609375 -0.574219,0.29296875 -0.105469,0 -0.199219,0.0117188 -0.199219,0.1875 0,0.1171874975 0.117188,0.1171874975 0.152344,0.1171874975 0.28125,0 0.972656,-0.0351562475 1.253906,-0.0351562475 0.246094,0 0.855469,0.0351562475 1.101563,0.0351562475 0.07031,0 0.199218,0 0.199218,-0.1874999975 0,-0.1171875 -0.105468,-0.1171875 -0.1875,-0.1171875 -0.667968,-0.0117188 -0.679687,-0.046875 -0.855468,-0.4453125 -0.386719,-0.92578124 -1.054688,-2.47265624 -1.289063,-3.07031254 0.679688,-0.703125 1.734375,-1.8867187 2.050781,-2.1679687 0.28125,-0.234375 0.667969,-0.4804688 1.265625,-0.5039063 0.128907,-0.011719 0.210938,-0.011719 0.210938,-0.1992187 0,-0.011719 0,-0.1171875 -0.128906,-0.1171875 -0.292969,0 -0.621094,0.035156 -0.9375,0.035156 -0.363282,0 -0.738282,-0.035156 -1.101563,-0.035156 -0.05859,0 -0.1875,0 -0.1875,0.1992187 0,0.070312 0.04687,0.1054688 0.117188,0.1171875 0.09375,0.011719 0.398437,0.023437 0.398437,0.3046875 0,0.140625 -0.105469,0.2695313 -0.1875,0.3632813 z m 0,0"
         style="fill:#000000;fill-opacity:1;fill-rule:nonzero;stroke:none" />
      <path
         id="path12"
         d="m 27.382273,-2.4956328 c 0,-0.7734375 -0.117187,-1.9804688 -0.65625,-3.1054688 -0.597656,-1.21875 -1.464843,-1.875 -1.558593,-1.875 -0.05859,0 -0.105469,0.046875 -0.105469,0.1054688 0,0.035156 0,0.046875 0.199219,0.234375 0.972656,0.984375 1.535156,2.5664062 1.535156,4.640625 0,1.71093749 -0.363281,3.45703124 -1.59375,4.7226562 -0.140625,0.1171875 -0.140625,0.1289063 -0.140625,0.1640625 0,0.058594 0.04687,0.1054688 0.105469,0.1054688 0.09375,0 0.996093,-0.6796875 1.582031,-1.94531251 0.503906,-1.1015625 0.632812,-2.20312499 0.632812,-3.04687499 z m 0,0"
         style="fill:#000000;fill-opacity:1;fill-rule:nonzero;stroke:none" />
      <path
         id="path13"
         d="m 32.746531,-7.0893828 c 0.04687,-0.1289063 0.04687,-0.1757813 0.04687,-0.1875 0,-0.1054688 -0.08203,-0.1992188 -0.199219,-0.1992188 -0.07031,0 -0.128906,0.035156 -0.164062,0.09375 l -3.457031,9.4921875 c -0.04687,0.1289063 -0.04687,0.1757813 -0.04687,0.1875 0,0.1054688 0.08203,0.1992188 0.199218,0.1992188 0.128907,0 0.152344,-0.070312 0.210938,-0.2460938 z m 0,0"
         style="fill:#000000;fill-opacity:1;fill-rule:nonzero;stroke:none" />
      <path
         id="path14"
         d="m 35.113719,-4.4057891 -1.394532,0.1171875 v 0.3046875 c 0.65625,0 0.738282,0.058594 0.738282,0.5507813 v 2.67187499 c 0,0.45703125 -0.105469,0.45703125 -0.773438,0.45703125 V 4.609375e-4 C 34.000437,-0.01125781 34.5395,-0.03469531 34.785594,-0.03469531 c 0.339843,0 0.691406,0.0234375 1.03125,0.0351562475 V -0.30422656 c -0.65625,0 -0.703125,-0.0585938 -0.703125,-0.4453125 z m 0.04687,-1.734375 c 0,-0.3164062 -0.246094,-0.5273437 -0.527344,-0.5273437 -0.316406,0 -0.527344,0.2695312 -0.527344,0.5273437 0,0.2695313 0.210938,0.5273438 0.527344,0.5273438 0.28125,0 0.527344,-0.1992188 0.527344,-0.5273438 z m 2.0625,2.71875 v 2.66015629 c 0,0.45703125 -0.117188,0.45703125 -0.785157,0.45703125 V 4.609375e-4 c 0.351563,-0.0117187475 0.855469,-0.0351562475 1.125,-0.0351562475 0.257813,0 0.785157,0.0234375 1.113282,0.0351562475 V -0.30422656 c -0.65625,0 -0.773438,0 -0.773438,-0.45703125 V -2.5893828 c 0,-1.03125 0.714844,-1.59375 1.347656,-1.59375 0.621094,0 0.738282,0.5390625 0.738282,1.1015625 v 2.32031249 c 0,0.45703125 -0.117188,0.45703125 -0.773438,0.45703125 V 4.609375e-4 c 0.339844,-0.0117187475 0.855469,-0.0351562475 1.125,-0.0351562475 0.257813,0 0.773438,0.0234375 1.113281,0.0351562475 V -0.30422656 c -0.667968,0 -0.785156,0 -0.785156,-0.45703125 V -2.5893828 c 0,-1.03125 0.714844,-1.59375 1.347656,-1.59375 0.632813,0 0.738282,0.5390625 0.738282,1.1015625 v 2.32031249 c 0,0.45703125 -0.105469,0.45703125 -0.773438,0.45703125 V 4.609375e-4 c 0.351563,-0.0117187475 0.855469,-0.0351562475 1.125,-0.0351562475 0.257813,0 0.773438,0.0234375 1.113281,0.0351562475 V -0.30422656 c -0.515625,0 -0.761718,0 -0.773437,-0.3046875 V -2.5073516 c 0,-0.8554687 0,-1.171875 -0.316406,-1.5234375 -0.128907,-0.1757812 -0.46875,-0.375 -1.042969,-0.375 -0.832031,0 -1.277344,0.5976563 -1.441406,0.984375 -0.140625,-0.8671875 -0.878907,-0.984375 -1.324219,-0.984375 -0.726563,0 -1.195313,0.4335938 -1.476563,1.0546875 v -1.0546875 l -1.40625,0.1171875 v 0.3046875 c 0.703125,0 0.785157,0.070312 0.785157,0.5625 z m 10.49414,5.8125 c 0,-0.035156 0,-0.046875 -0.164062,-0.2226562 -1.242188,-1.25390626 -1.570313,-3.12890626 -1.570313,-4.6640625 0,-1.7226563 0.386719,-3.4570313 1.605469,-4.7109375 0.128906,-0.1171875 0.128906,-0.1289063 0.128906,-0.1640625 0,-0.070312 -0.03516,-0.1054688 -0.09375,-0.1054688 -0.105468,0 -0.996093,0.6796875 -1.582031,1.9453125 -0.515625,1.1015625 -0.632812,2.203125 -0.632812,3.0351563 0,0.7851562 0.117187,1.99218749 0.65625,3.11718749 0.597656,1.21875001 1.453125,1.87500001 1.558593,1.87500001 0.05859,0 0.09375,-0.035156 0.09375,-0.1054688 z m 0,0"
         style="fill:#000000;fill-opacity:1;fill-rule:nonzero;stroke:none" />
      <path
         id="path15"
         d="m 53.444773,-6.8081328 c 0,0 0,-0.1054688 -0.128906,-0.1054688 -0.152344,0 -1.101562,0.09375 -1.265625,0.1054688 -0.08203,0.011719 -0.140625,0.070312 -0.140625,0.1992187 0,0.1171875 0.08203,0.1171875 0.234375,0.1171875 0.480469,0 0.503906,0.070312 0.503906,0.1640625 l -0.03516,0.1992188 -0.597656,2.3671875 c -0.175781,-0.375 -0.46875,-0.6445313 -0.914063,-0.6445313 -1.171875,0 -2.402343,1.4648438 -2.402343,2.9179688 0,0.93749999 0.550781,1.59374999 1.324218,1.59374999 0.199219,0 0.703125,-0.03515625 1.300782,-0.73828125 0.07031,0.41015625 0.421875,0.73828125 0.902343,0.73828125 0.351563,0 0.574219,-0.22265625 0.738282,-0.5390625 0.164062,-0.36328125 0.292968,-0.97265629 0.292968,-0.99609379 0,-0.09375 -0.08203,-0.09375 -0.117187,-0.09375 -0.09375,0 -0.105469,0.035156 -0.140625,0.1757813 -0.164063,0.64453124 -0.351563,1.24218749 -0.75,1.24218749 -0.269531,0 -0.304688,-0.2578125 -0.304688,-0.45703125 0,-0.24609375 0.02344,-0.31640625 0.05859,-0.48046874 z m -2.074218,5.625 c -0.04687,0.1757812 -0.04687,0.19921874 -0.199219,0.36328124 -0.445313,0.55078125 -0.84375,0.71484375 -1.125,0.71484375 -0.503906,0 -0.644531,-0.55078125 -0.644531,-0.93749999 0,-0.5039063 0.328125,-1.7226563 0.550781,-2.1796875 0.304687,-0.5976563 0.761719,-0.9609375 1.160156,-0.9609375 0.644531,0 0.785156,0.8203125 0.785156,0.8789062 0,0.058594 -0.02344,0.1171875 -0.03516,0.1640625 z m 0,0"
         style="fill:#000000;fill-opacity:1;fill-rule:nonzero;stroke:none" />
      <path
         id="path16"
         d="m 55.81782,-2.9350859 c 0,-0.1875 -0.01172,-0.1992188 -0.210937,-0.1992188 -0.445313,0.4335938 -1.078125,0.4453125 -1.359375,0.4453125 v 0.2460938 c 0.164062,0 0.621094,0 1.007812,-0.1875 v 3.55078121 c 0,0.23437499 0,0.32812499 -0.691406,0.32812499 h -0.269531 v 0.2460938 c 0.128906,-0.011719 0.984375,-0.023437 1.242187,-0.023437 0.210938,0 1.089844,0.011719 1.242188,0.023437 V 1.2485078 h -0.257813 c -0.703125,0 -0.703125,-0.09375 -0.703125,-0.32812499 z m 0,0"
         style="fill:#000000;fill-opacity:1;fill-rule:nonzero;stroke:none" />
      <path
         id="path17"
         d="m 60.836375,-2.4956328 c 0,-0.7734375 -0.117188,-1.9804688 -0.65625,-3.1054688 -0.597656,-1.21875 -1.464844,-1.875 -1.558594,-1.875 -0.05859,0 -0.105469,0.046875 -0.105469,0.1054688 0,0.035156 0,0.046875 0.199219,0.234375 0.972656,0.984375 1.535156,2.5664062 1.535156,4.640625 0,1.71093749 -0.363281,3.45703124 -1.59375,4.7226562 -0.140625,0.1171875 -0.140625,0.1289063 -0.140625,0.1640625 0,0.058594 0.04687,0.1054688 0.105469,0.1054688 0.09375,0 0.996094,-0.6796875 1.582031,-1.94531251 0.503907,-1.1015625 0.632813,-2.20312499 0.632813,-3.04687499 z m 10.605469,-0.7617188 c 0.152343,0 0.339843,0 0.339843,-0.1992187 0,-0.1992188 -0.1875,-0.1992188 -0.328125,-0.1992188 h -5.964843 c -0.140625,0 -0.328125,0 -0.328125,0.1992188 0,0.1992187 0.1875,0.1992187 0.339843,0.1992187 z m 0.01172,1.9335938 c 0.140625,0 0.328125,0 0.328125,-0.1992188 0,-0.1992187 -0.1875,-0.1992187 -0.339843,-0.1992187 h -5.941407 c -0.152343,0 -0.339843,0 -0.339843,0.1992187 0,0.1992188 0.1875,0.1992188 0.328125,0.1992188 z m 0,0"
         style="fill:#000000;fill-opacity:1;fill-rule:nonzero;stroke:none" />
      <path
         id="path18"
         d="m 82.718211,-6.0346953 c 0.08203,-0.3632813 0.105469,-0.4570313 0.832031,-0.4570313 0.257813,0 0.339844,0 0.339844,-0.1992187 0,-0.1171875 -0.105469,-0.1171875 -0.140625,-0.1171875 -0.28125,0 -0.996094,0.035156 -1.277344,0.035156 -0.28125,0 -0.996094,-0.035156 -1.277344,-0.035156 -0.08203,0 -0.199218,0 -0.199218,0.1992187 0,0.1171875 0.09375,0.1171875 0.28125,0.1171875 0.02344,0 0.210937,0 0.375,0.011719 0.1875,0.023437 0.269531,0.035156 0.269531,0.1640625 0,0.035156 0,0.058594 -0.03516,0.1875 l -0.597657,2.4375 h -3.035156 l 0.585938,-2.34375 c 0.09375,-0.3632813 0.117187,-0.4570313 0.832031,-0.4570313 0.257812,0 0.339844,0 0.339844,-0.1992187 0,-0.1171875 -0.105469,-0.1171875 -0.140625,-0.1171875 -0.269532,0 -0.996094,0.035156 -1.265625,0.035156 -0.292969,0 -0.996094,-0.035156 -1.289063,-0.035156 -0.08203,0 -0.1875,0 -0.1875,0.1992187 0,0.1171875 0.08203,0.1171875 0.28125,0.1171875 0.01172,0 0.199219,0 0.375,0.011719 0.175781,0.023437 0.269531,0.035156 0.269531,0.1640625 0,0.035156 -0.01172,0.070312 -0.04687,0.1875 l -1.335937,5.35546874 c -0.09375,0.38671875 -0.117188,0.46875 -0.902344,0.46875 -0.175781,0 -0.269531,0 -0.269531,0.19921875 0,0.1054687475 0.117187,0.1054687475 0.140625,0.1054687475 0.28125,0 0.984375,-0.0351562475 1.265625,-0.0351562475 0.210937,0 0.433594,0.01171875 0.632812,0.01171875 0.222657,0 0.445313,0.0234374975 0.65625,0.0234374975 0.07031,0 0.199219,0 0.199219,-0.1992187475 0,-0.10546875 -0.09375,-0.10546875 -0.28125,-0.10546875 -0.375,0 -0.644531,0 -0.644531,-0.1875 0,-0.0585938 0.01172,-0.10546875 0.02344,-0.1640625 L 78.17134,-3.3862574 h 3.035156 c -0.410156,1.6523437 -0.644531,2.60156249 -0.679687,2.75390624 -0.105469,0.31640625 -0.292969,0.328125 -0.914063,0.328125 -0.152344,0 -0.234375,0 -0.234375,0.19921875 0,0.1054687475 0.117188,0.1054687475 0.140625,0.1054687475 0.28125,0 0.984375,-0.0351562475 1.265625,-0.0351562475 0.210938,0 0.421875,0.01171875 0.632813,0.01171875 0.222656,0 0.433593,0.0234374975 0.644531,0.0234374975 0.08203,0 0.199219,0 0.199219,-0.1992187475 0,-0.10546875 -0.08203,-0.10546875 -0.269532,-0.10546875 -0.375,0 -0.65625,0 -0.65625,-0.1875 0,-0.0585938 0.02344,-0.10546875 0.03516,-0.1640625 z m 0,0"
         style="fill:#000000;fill-opacity:1;fill-rule:nonzero;stroke:none" />
      <path
         id="path19"
         d="m 86.989695,-0.73196094 c 0,-0.76171876 -0.09375,-1.31249996 -0.410156,-1.80468746 -0.222656,-0.3164063 -0.644531,-0.5976563 -1.207031,-0.5976563 -1.617188,0 -1.617188,1.8984375 -1.617188,2.40234376 0,0.50390625 0,2.36718754 1.617188,2.36718754 1.617187,0 1.617187,-1.86328129 1.617187,-2.36718754 z M 85.372508,1.4360078 c -0.316406,0 -0.75,-0.1875 -0.890625,-0.76171874 -0.09375,-0.41015625 -0.09375,-0.984375 -0.09375,-1.5 0,-0.50390626 0,-1.03124996 0.105469,-1.41796876 0.152343,-0.5507812 0.597656,-0.6914062 0.878906,-0.6914062 0.375,0 0.738281,0.2226562 0.867187,0.6328125 0.105469,0.375 0.117188,0.8789062 0.117188,1.47656246 0,0.515625 0,1.04296875 -0.09375,1.4765625 C 86.122508,1.2836641 85.653758,1.4360078 85.372508,1.4360078 Z m 0,0"
         style="fill:#000000;fill-opacity:1;fill-rule:nonzero;stroke:none" />
      <path
         id="path20"
         d="m 91.155711,2.3910859 c 0,-0.035156 0,-0.046875 -0.164063,-0.2226562 -1.242187,-1.25390626 -1.570312,-3.12890626 -1.570312,-4.6640625 0,-1.7226563 0.386719,-3.4570313 1.605469,-4.7109375 0.128906,-0.1171875 0.128906,-0.1289063 0.128906,-0.1640625 0,-0.070312 -0.03516,-0.1054688 -0.09375,-0.1054688 -0.105469,0 -0.996094,0.6796875 -1.582031,1.9453125 -0.515625,1.1015625 -0.632813,2.203125 -0.632813,3.0351563 0,0.7851562 0.117188,1.99218749 0.65625,3.11718749 0.597656,1.21875001 1.453125,1.87500001 1.558594,1.87500001 0.05859,0 0.09375,-0.035156 0.09375,-0.1054688 z m 0,0"
         style="fill:#000000;fill-opacity:1;fill-rule:nonzero;stroke:none" />
      <path
         id="path21"
         d="m 96.563914,-4.0893828 -0.832031,-1.9921875 c -0.03516,-0.070312 -0.04687,-0.1171875 -0.04687,-0.1289063 0,-0.058594 0.164062,-0.2460937 0.585937,-0.28125 0.09375,-0.011719 0.199219,-0.023437 0.199219,-0.1875 0,-0.1289062 -0.117187,-0.1289062 -0.152344,-0.1289062 -0.410156,0 -0.832031,0.035156 -1.253906,0.035156 -0.246094,0 -0.867187,-0.035156 -1.113281,-0.035156 -0.05859,0 -0.1875,0 -0.1875,0.1992187 0,0.1171875 0.105469,0.1171875 0.234375,0.1171875 0.597656,0 0.65625,0.09375 0.75,0.3164063 l 1.171875,2.7773437 -2.097656,2.2617188 -0.128907,0.1054687 c -0.492187,0.52734379 -0.960937,0.69140629 -1.464843,0.72656254 -0.128907,0 -0.222657,0 -0.222657,0.19921875 0,0 0,0.1054687475 0.128907,0.1054687475 0.304687,0 0.632812,-0.0351562475 0.9375,-0.0351562475 0.363281,0 0.761718,0.0351562475 1.113281,0.0351562475 0.05859,0 0.175781,0 0.175781,-0.1992187475 0,-0.10546875 -0.09375,-0.10546875 -0.117187,-0.10546875 -0.08203,-0.0117188 -0.398438,-0.0351563 -0.398438,-0.31640625 0,-0.15234375 0.152344,-0.31640625 0.269531,-0.44531249 l 1.019532,-1.078125 0.890625,-0.9726563 1.007812,2.37890629 c 0.04687,0.10546875 0.04687,0.1171875 0.04687,0.140625 0,0.0820313 -0.1875,0.24609375 -0.574219,0.29296875 -0.105468,0 -0.199218,0.0117188 -0.199218,0.1875 0,0.1171874975 0.117187,0.1171874975 0.152343,0.1171874975 0.28125,0 0.972657,-0.0351562475 1.253907,-0.0351562475 0.246093,0 0.855468,0.0351562475 1.101562,0.0351562475 0.07031,0 0.199219,0 0.199219,-0.1874999975 0,-0.1171875 -0.105469,-0.1171875 -0.1875,-0.1171875 -0.667969,-0.0117188 -0.679688,-0.046875 -0.855469,-0.4453125 -0.386719,-0.92578124 -1.054687,-2.47265624 -1.289062,-3.07031254 0.679687,-0.703125 1.734375,-1.8867187 2.050781,-2.1679687 0.28125,-0.234375 0.667969,-0.4804688 1.265625,-0.5039063 0.128902,-0.011719 0.210942,-0.011719 0.210942,-0.1992187 0,-0.011719 0,-0.1171875 -0.12891,-0.1171875 -0.29297,0 -0.621095,0.035156 -0.937501,0.035156 -0.363281,0 -0.738281,-0.035156 -1.101562,-0.035156 -0.05859,0 -0.1875,0 -0.1875,0.1992187 0,0.070312 0.04687,0.1054688 0.117187,0.1171875 0.09375,0.011719 0.398438,0.023437 0.398438,0.3046875 0,0.140625 -0.105469,0.2695313 -0.1875,0.3632813 z m 0,0"
         style="fill:#000000;fill-opacity:1;fill-rule:nonzero;stroke:none" />
      <path
         id="path22"
         d="m 103.65669,-2.4956328 c 0,-0.7734375 -0.11719,-1.9804688 -0.65625,-3.1054688 -0.59766,-1.21875 -1.46485,-1.875 -1.5586,-1.875 -0.0586,0 -0.10547,0.046875 -0.10547,0.1054688 0,0.035156 0,0.046875 0.19922,0.234375 0.97266,0.984375 1.53516,2.5664062 1.53516,4.640625 0,1.71093749 -0.36328,3.45703124 -1.59375,4.7226562 -0.14063,0.1171875 -0.14063,0.1289063 -0.14063,0.1640625 0,0.058594 0.0469,0.1054688 0.10547,0.1054688 0.0937,0 0.9961,-0.6796875 1.58203,-1.94531251 0.50391,-1.1015625 0.63282,-2.20312499 0.63282,-3.04687499 z m 0,0"
         style="fill:#000000;fill-opacity:1;fill-rule:nonzero;stroke:none" />
    </g>
    <path
       id="path23"
       d="M -12.845,26.54733 H 72.31618"
       style="fill:none;stroke:#000000;stroke-width:0.39848;stroke-linecap:butt;stroke-linejoin:miter;stroke-miterlimit:10;stroke-dasharray:none;stroke-opacity:1"
       transform="matrix(1.3333333,0,0,-1.3333333,117.47067,49.146667)" />
    <path
       id="path24"
       d="M -2.07213,2.39091 C -1.69356,0.95633 -0.84995,0.27893 0,0 -0.84995,-0.27893 -1.69356,-0.95633 -2.07213,-2.39091"
       style="fill:none;stroke:#000000;stroke-width:0.39848;stroke-linecap:round;stroke-linejoin:round;stroke-miterlimit:10;stroke-dasharray:none;stroke-opacity:1"
       transform="matrix(1.3333333,0,0,-1.3333333,214.15791,13.750227)" />
    <g
       id="g24"
       aria-label="d&#10;0"
       transform="matrix(1.3333333,0,0,1.3333333,152.02533,9.3066667)">
      <path
         id="path25"
         d="m 3.9829531,-4.6274609 c 0,-0.011719 0.023437,-0.1054688 0.023437,-0.1171875 0,-0.035156 -0.023437,-0.09375 -0.1054687,-0.09375 -0.140625,0 -0.7265625,0.058594 -0.9023438,0.070312 -0.046875,0.011719 -0.1523437,0.011719 -0.1523437,0.1640625 0,0.09375 0.1054687,0.09375 0.1875,0.09375 0.328125,0 0.328125,0.046875 0.328125,0.1054687 0,0.046875 -0.011719,0.09375 -0.023437,0.1523438 l -0.3984375,1.59375 c -0.140625,-0.234375 -0.3867188,-0.4101563 -0.7148438,-0.4101563 -0.890625,0 -1.80468747,0.9726563 -1.80468747,1.9804688 0,0.67968746 0.45703125,1.16015621 1.05468747,1.16015621 0.375,0 0.7148438,-0.2109375 0.9960938,-0.4921875 0.1289062,0.421875 0.5273437,0.4921875 0.7148437,0.4921875 0.2460938,0 0.421875,-0.15234375 0.5507813,-0.375 0.1523437,-0.26953125 0.2460937,-0.66796875 0.2460937,-0.69140625 0,-0.09375 -0.09375,-0.09375 -0.1171875,-0.09375 -0.09375,0 -0.1054687,0.035156 -0.1523437,0.22265617 -0.082031,0.328125 -0.2109375,0.73828125 -0.5039063,0.73828125 -0.1875,0 -0.234375,-0.15234375 -0.234375,-0.33984375 0,-0.12890625 0.011719,-0.19921875 0.035156,-0.28125 z m -1.4882812,3.76171871 c -0.046875,0.1875 -0.1992188,0.328125 -0.3515625,0.45703125 -0.070312,0.0585938 -0.3398438,0.28125 -0.6445313,0.28125 -0.2578125,0 -0.51562497,-0.17578125 -0.51562497,-0.66796875 0,-0.37500001 0.21093747,-1.13671871 0.36328127,-1.41796871 0.328125,-0.5625 0.6796875,-0.6679688 0.8789062,-0.6679688 0.4804688,0 0.6210938,0.5273438 0.6210938,0.609375 0,0.023437 -0.011719,0.082031 -0.023437,0.09375 z m 0,0"
         style="fill:#000000;fill-opacity:1;fill-rule:nonzero;stroke:none" />
      <path
         id="path26"
         d="m 7.1352969,-0.59621094 c 0,-0.36328125 0,-1.72265626 -1.2890625,-1.72265626 -1.3007813,0 -1.3007813,1.35937501 -1.3007813,1.72265626 0,0.36328125 0,1.69921874 1.3007813,1.69921874 1.2890625,0 1.2890625,-1.33593749 1.2890625,-1.69921874 z M 5.8462344,0.93894531 c -0.1875,0 -0.609375,-0.0585938 -0.7382813,-0.5625 -0.058594,-0.26953125 -0.070312,-0.62109375 -0.070312,-1.03125 0,-0.37500001 0,-0.71484371 0.082031,-0.99609371 0.1289062,-0.421875 0.5039062,-0.5039063 0.7265625,-0.5039063 0.3632812,0 0.6210937,0.1875 0.7265625,0.5390625 0.070312,0.2578125 0.070312,0.66796876 0.070312,0.96093751 0,0.33984375 0,0.73828125 -0.070312,1.04296875 -0.1289065,0.48046875 -0.527344,0.55078125 -0.7265627,0.55078125 z m 0,0"
         style="fill:#000000;fill-opacity:1;fill-rule:nonzero;stroke:none" />
    </g>
    <path
       id="path27"
       d="M -31.50552,17.73375 V -17.33528"
       style="fill:none;stroke:#000000;stroke-width:0.39848;stroke-linecap:butt;stroke-linejoin:miter;stroke-miterlimit:10;stroke-dasharray:none;stroke-opacity:1"
       transform="matrix(1.3333333,0,0,-1.3333333,117.47067,49.146667)" />
    <path
       id="path28"
       d="M -2.07213,2.39091 C -1.69356,0.95633 -0.84995,0.27893 0,0 -0.84995,-0.27893 -1.69356,-0.95633 -2.07213,-2.39091"
       style="fill:none;stroke:#000000;stroke-width:0.39848;stroke-linecap:round;stroke-linejoin:round;stroke-miterlimit:10;stroke-dasharray:none;stroke-opacity:1"
       transform="matrix(0,1.3333333,1.3333333,0,75.463307,72.526027)" />
    <path
       id="path29"
       d="M -12.92126,-17.73375 72.35461,22.68794"
       style="fill:none;stroke:#000000;stroke-width:0.39848;stroke-linecap:butt;stroke-linejoin:miter;stroke-miterlimit:10;stroke-dasharray:none;stroke-opacity:1"
       transform="matrix(1.3333333,0,0,-1.3333333,117.47067,49.146667)" />
    <path
       id="path30"
       d="M -2.07213,2.39091 C -1.69356,0.95633 -0.84995,0.27893 0,0 -0.84995,-0.27893 -1.69356,-0.95633 -2.07213,-2.39091"
       style="fill:none;stroke:#000000;stroke-width:0.39848;stroke-linecap:round;stroke-linejoin:round;stroke-miterlimit:10;stroke-dasharray:none;stroke-opacity:1"
       transform="matrix(1.2047733,-0.57106667,-0.57106667,-1.2047733,214.18352,18.782307)" />
    <g
       id="g30"
       aria-label="¯&#10;d&#10;0"
       transform="matrix(1.3333333,0,0,1.3333333,162.28,54.184)">
      <path
         id="path31"
         d="M 3.3642187,-3.8792109 V -4.1370234 H 0.59859375 v 0.2578125 z m 0,0"
         style="fill:#000000;fill-opacity:1;fill-rule:nonzero;stroke:none" />
      <path
         id="path32"
         d="m 2.6083594,-2.7893672 c 0,-0.011719 0.023437,-0.1054687 0.023437,-0.1171875 0,-0.035156 -0.023437,-0.09375 -0.1054688,-0.09375 -0.140625,0 -0.7265625,0.058594 -0.9023437,0.070312 -0.046875,0.011719 -0.1523438,0.011719 -0.1523438,0.1640625 0,0.09375 0.1054688,0.09375 0.1875,0.09375 0.328125,0 0.328125,0.046875 0.328125,0.1054688 0,0.046875 -0.011719,0.09375 -0.023437,0.1523437 L 1.5653906,-0.82061719 C 1.4247656,-1.0549922 1.1786719,-1.2307734 0.85054687,-1.2307734 c -0.890625,0 -1.8046875,0.97265621 -1.8046875,1.98046871 0,0.67968749 0.45703125,1.16015629 1.0546875,1.16015629 0.375,0 0.71484375,-0.2109375 0.99609373,-0.4921875 0.1289063,0.421875 0.5273438,0.4921875 0.7148438,0.4921875 0.2460937,0 0.421875,-0.1523438 0.5507812,-0.375 0.1523438,-0.2695313 0.2460938,-0.66796879 0.2460938,-0.69140629 0,-0.09375 -0.09375,-0.09375 -0.1171875,-0.09375 -0.09375,0 -0.1054688,0.0351563 -0.1523438,0.22265625 C 2.2567969,1.3004766 2.1278906,1.7106328 1.8349219,1.7106328 c -0.1875,0 -0.234375,-0.1523437 -0.234375,-0.3398437 0,-0.1289063 0.011719,-0.1992188 0.035156,-0.28125 z M 1.1200781,0.97235156 C 1.0732031,1.1598516 0.92085937,1.3004766 0.76851562,1.4293828 c -0.0703125,0.058594 -0.33984375,0.28125 -0.64453125,0.28125 -0.2578125,0 -0.515625,-0.1757812 -0.515625,-0.6679687 0,-0.37500004 0.2109375,-1.13671879 0.36328125,-1.41796879 0.328125,-0.5625 0.6796875,-0.66796871 0.87890625,-0.66796871 0.48046873,0 0.62109373,0.52734371 0.62109373,0.60937496 0,0.0234375 -0.011719,0.0820313 -0.023437,0.09375 z m 0,0"
         style="fill:#000000;fill-opacity:1;fill-rule:nonzero;stroke:none" />
      <path
         id="path33"
         d="m 5.7607031,1.2418828 c 0,-0.36328124 0,-1.72265624 -1.2890625,-1.72265624 -1.3007812,0 -1.3007812,1.359375 -1.3007812,1.72265624 0,0.3632813 0,1.6992188 1.3007812,1.6992188 1.2890625,0 1.2890625,-1.3359375 1.2890625,-1.6992188 z M 4.4716406,2.7770391 c -0.1875,0 -0.609375,-0.058594 -0.7382812,-0.5625 -0.058594,-0.2695313 -0.070312,-0.6210938 -0.070312,-1.03125 0,-0.37500004 0,-0.71484379 0.082031,-0.99609379 0.1289063,-0.421875 0.5039063,-0.50390625 0.7265625,-0.50390625 0.3632813,0 0.6210938,0.1875 0.7265625,0.5390625 0.070312,0.2578125 0.070312,0.66796875 0.070312,0.96093754 0,0.3398437 0,0.7382812 -0.070312,1.0429687 -0.1289065,0.4804688 -0.527344,0.5507813 -0.7265628,0.5507813 z m 0,0"
         style="fill:#000000;fill-opacity:1;fill-rule:nonzero;stroke:none" />
    </g>
  </g>
</svg>
