<?xml version="1.0" encoding="UTF-8" standalone="no"?>
<!-- Created with Inkscape (http://www.inkscape.org/) -->

<svg
   version="1.1"
   id="svg1"
   width="181.8569"
   height="34.376743"
   viewBox="0 0 181.8569 34.376743"
   sodipodi:docname="resolution_map.svg"
   inkscape:version="1.4 (e7c3feb1, 2024-10-09)"
   xmlns:inkscape="http://www.inkscape.org/namespaces/inkscape"
   xmlns:sodipodi="http://sodipodi.sourceforge.net/DTD/sodipodi-0.dtd"
   xmlns="http://www.w3.org/2000/svg"
   xmlns:svg="http://www.w3.org/2000/svg">
  <defs
     id="defs1">
    <clipPath
       clipPathUnits="userSpaceOnUse"
       id="clipPath1">
      <path
         d="M 0,270 V 0 h 1380 v 270 z m 745.383,-45.398 -54.172,54.171 -20.156,-20.156 54.172,-54.172 v 0 l -29.606,49.762 z"
         transform="translate(2.5000001e-5,-2.5000001e-5)"
         clip-rule="evenodd"
         id="path1" />
    </clipPath>
    <clipPath
       clipPathUnits="userSpaceOnUse"
       id="clipPath2">
      <path
         d="M 0,0 H 138 V 27 H 0 Z"
         transform="matrix(1.3333333,0,0,-1.3333333,316.27733,131.94933)"
         id="path2" />
    </clipPath>
    <clipPath
       clipPathUnits="userSpaceOnUse"
       id="clipPath3">
      <path
         d="M 0,0 H 138 V 27 H 0 Z"
         transform="matrix(10,0,0,10,2.5000001e-5,-2.5000001e-5)"
         id="path3" />
    </clipPath>
    <clipPath
       clipPathUnits="userSpaceOnUse"
       id="clipPath4">
      <path
         d="M 0,270 V 0 h 1380 v 270 z m 1330.56,-65.555 54.17,54.172 -20.16,20.156 -54.17,-54.171 v 0 l 50.39,29.605 z"
         transform="translate(2.5000001e-5,-2.5000001e-5)"
         clip-rule="evenodd"
         id="path4" />
    </clipPath>
    <clipPath
       clipPathUnits="userSpaceOnUse"
       id="clipPath5">
      <path
         d="M 0,0 H 138 V 27 H 0 Z"
         transform="matrix(1.3333333,0,0,-1.3333333,316.27733,131.94933)"
         id="path5" />
    </clipPath>
    <clipPath
       clipPathUnits="userSpaceOnUse"
       id="clipPath6">
      <path
         d="M 0,0 H 138 V 27 H 0 Z"
         transform="matrix(10,0,0,10,2.5000001e-5,-2.5000001e-5)"
         id="path6" />
    </clipPath>
    <clipPath
       clipPathUnits="userSpaceOnUse"
       id="clipPath7">
      <path
         d="M 0,270 V 0 h 1380 v 270 z m 225.086,-65.555 54.172,54.172 -20.16,20.156 -54.168,-54.171 v 0 l 50.39,29.605 z"
         transform="translate(2.5000001e-5,-2.5000001e-5)"
         clip-rule="evenodd"
         id="path7" />
    </clipPath>
    <clipPath
       clipPathUnits="userSpaceOnUse"
       id="clipPath8">
      <path
         d="M 0,0 H 138 V 27 H 0 Z"
         transform="matrix(1.3333333,0,0,-1.3333333,316.27733,131.94933)"
         id="path8" />
    </clipPath>
    <clipPath
       clipPathUnits="userSpaceOnUse"
       id="clipPath9">
      <path
         d="M 0,0 H 138 V 27 H 0 Z"
         transform="matrix(10,0,0,10,2.5000001e-5,-2.5000001e-5)"
         id="path9" />
    </clipPath>
    <clipPath
       clipPathUnits="userSpaceOnUse"
       id="clipPath10">
      <path
         d="M 0,270 V 0 H 1380 V 270 Z M 65.0898,224.602 10.918,278.773 -9.23828,258.617 44.9336,204.445 v 0 l -29.6055,49.762 z"
         transform="translate(2.5000001e-5,-2.5000001e-5)"
         clip-rule="evenodd"
         id="path10" />
    </clipPath>
    <clipPath
       clipPathUnits="userSpaceOnUse"
       id="clipPath11">
      <path
         d="M 0,0 H 138 V 27 H 0 Z"
         transform="matrix(1.3333333,0,0,-1.3333333,316.27733,131.94933)"
         id="path11" />
    </clipPath>
    <clipPath
       clipPathUnits="userSpaceOnUse"
       id="clipPath12">
      <path
         d="M 0,0 H 138 V 27 H 0 Z"
         transform="matrix(10,0,0,10,2.5000001e-5,-2.5000001e-5)"
         id="path12" />
    </clipPath>
    <clipPath
       clipPathUnits="userSpaceOnUse"
       id="clipPath13">
      <path
         d="M 0,0 H 138 V 27 H 0 Z"
         transform="matrix(10,0,0,10,2.5000001e-5,-2.5000001e-5)"
         id="path13" />
    </clipPath>
    <clipPath
       clipPathUnits="userSpaceOnUse"
       id="clipPath14">
      <path
         d="M 0,0 H 138 V 27 H 0 Z"
         transform="matrix(10,0,0,10,2.5000001e-5,-2.5000001e-5)"
         id="path14" />
    </clipPath>
    <clipPath
       clipPathUnits="userSpaceOnUse"
       id="clipPath15">
      <path
         d="M 0,0 H 138 V 27 H 0 Z"
         transform="matrix(10,0,0,10,2.5000001e-5,-2.5000001e-5)"
         id="path15" />
    </clipPath>
    <clipPath
       clipPathUnits="userSpaceOnUse"
       id="clipPath16">
      <path
         d="M 0,0 H 138 V 27 H 0 Z"
         transform="matrix(10,0,0,10,2.5000001e-5,-2.5000001e-5)"
         id="path16" />
    </clipPath>
    <clipPath
       clipPathUnits="userSpaceOnUse"
       id="clipPath17">
      <path
         d="M 0,0 H 138 V 27 H 0 Z"
         transform="matrix(10,0,0,10,2.5000001e-5,-2.5000001e-5)"
         id="path17" />
    </clipPath>
    <clipPath
       clipPathUnits="userSpaceOnUse"
       id="clipPath18">
      <path
         d="M 0,0 H 138 V 27 H 0 Z"
         transform="matrix(10,0,0,10,2.5000001e-5,-2.5000001e-5)"
         id="path18" />
    </clipPath>
    <clipPath
       clipPathUnits="userSpaceOnUse"
       id="clipPath19">
      <path
         d="M 0,270 V 0 h 1380 v 270 z m 905.379,-65.555 54.168,54.172 -20.156,20.156 -54.172,-54.171 v 0 l 50.394,29.605 z"
         transform="translate(2.5000001e-5,-2.5000001e-5)"
         clip-rule="evenodd"
         id="path19" />
    </clipPath>
    <clipPath
       clipPathUnits="userSpaceOnUse"
       id="clipPath20">
      <path
         d="M 0,0 H 138 V 27 H 0 Z"
         transform="matrix(1.3333333,0,0,-1.3333333,316.27733,131.94933)"
         id="path20" />
    </clipPath>
    <clipPath
       clipPathUnits="userSpaceOnUse"
       id="clipPath21">
      <path
         d="M 0,0 H 138 V 27 H 0 Z"
         transform="matrix(10,0,0,10,2.5000001e-5,-2.5000001e-5)"
         id="path21" />
    </clipPath>
    <clipPath
       clipPathUnits="userSpaceOnUse"
       id="clipPath22">
      <path
         d="M 0,270 V 0 h 1380 v 270 z m 1170.57,-45.398 -54.18,54.171 -20.15,-20.156 54.17,-54.172 v 0 l -29.61,49.762 z"
         transform="translate(2.5000001e-5,-2.5000001e-5)"
         clip-rule="evenodd"
         id="path22" />
    </clipPath>
    <clipPath
       clipPathUnits="userSpaceOnUse"
       id="clipPath23">
      <path
         d="M 0,0 H 138 V 27 H 0 Z"
         transform="matrix(1.3333333,0,0,-1.3333333,316.27733,131.94933)"
         id="path23" />
    </clipPath>
    <clipPath
       clipPathUnits="userSpaceOnUse"
       id="clipPath24">
      <path
         d="M 0,0 H 138 V 27 H 0 Z"
         transform="matrix(10,0,0,10,2.5000001e-5,-2.5000001e-5)"
         id="path24" />
    </clipPath>
  </defs>
  <sodipodi:namedview
     id="namedview1"
     pagecolor="#ffffff"
     bordercolor="#000000"
     borderopacity="0.25"
     inkscape:showpageshadow="2"
     inkscape:pageopacity="0.0"
     inkscape:pagecheckerboard="0"
     inkscape:deskcolor="#d1d1d1"
     inkscape:zoom="2.8156158"
     inkscape:cx="88.43536"
     inkscape:cy="37.292019"
     inkscape:window-width="1104"
     inkscape:window-height="771"
     inkscape:window-x="92"
     inkscape:window-y="47"
     inkscape:window-maximized="0"
     inkscape:current-layer="g42">
    <inkscape:page
       x="0"
       y="0"
       width="181.8569"
       height="34.376743"
       id="page2"
       margin="0"
       bleed="0" />
  </sodipodi:namedview>
  <g
     id="g1"
     inkscape:groupmode="layer"
     inkscape:label="2"
     transform="translate(-317.09084,-96.824215)">
    <g
       id="g42">
      <g
         clip-path="url(#clipPath2)"
         id="g25">
        <path
           style="fill:none;stroke:#000000;stroke-width:4.72425;stroke-linecap:butt;stroke-linejoin:miter;stroke-miterlimit:10;stroke-dasharray:none;stroke-opacity:1"
           d="M 780.27572,169.78034 688.063,261.766"
           transform="matrix(0.13333333,0,0,-0.13333333,316.27733,131.94933)"
           id="path49" />
        <path
           style="fill:none;stroke:#000000;stroke-width:4.72425;stroke-linecap:butt;stroke-linejoin:miter;stroke-miterlimit:10;stroke-dasharray:none;stroke-opacity:1"
           d="M 943.172,7.28516 851.09562,99.134818"
           transform="matrix(0.13333333,0,0,-0.13333333,316.27733,131.94933)"
           id="path25" />
      </g>
      <path
         d="m 745.383,224.602 -49.762,29.605 29.606,-49.762"
         style="fill:none;stroke:#000000;stroke-width:4.72425;stroke-linecap:butt;stroke-linejoin:miter;stroke-miterlimit:10;stroke-dasharray:none;stroke-opacity:1"
         transform="matrix(0.13333333,0,0,-0.13333333,316.27733,131.94933)"
         clip-path="url(#clipPath3)"
         id="path26" />
      <path
         d="m 1330.56,204.445 30.23,49.762 -50.39,-29.605"
         style="fill:none;stroke:#000000;stroke-width:4.72425;stroke-linecap:butt;stroke-linejoin:miter;stroke-miterlimit:10;stroke-dasharray:none;stroke-opacity:1"
         transform="matrix(0.13333333,0,0,-0.13333333,316.27733,131.94933)"
         clip-path="url(#clipPath6)"
         id="path28" />
      <g
         clip-path="url(#clipPath8)"
         id="g29">
        <path
           d="M 7.76953,7.28516 262.879,261.766"
           style="fill:none;stroke:#000000;stroke-width:4.72425;stroke-linecap:butt;stroke-linejoin:miter;stroke-miterlimit:10;stroke-dasharray:none;stroke-opacity:1"
           transform="matrix(0.13333333,0,0,-0.13333333,316.27733,131.94933)"
           clip-path="url(#clipPath7)"
           id="path29" />
      </g>
      <path
         d="m 225.086,204.445 30.234,49.762 -50.39,-29.605"
         style="fill:none;stroke:#000000;stroke-width:4.72425;stroke-linecap:butt;stroke-linejoin:miter;stroke-miterlimit:10;stroke-dasharray:none;stroke-opacity:1"
         transform="matrix(0.13333333,0,0,-0.13333333,316.27733,131.94933)"
         clip-path="url(#clipPath9)"
         id="path30" />
      <g
         clip-path="url(#clipPath11)"
         id="g31">
        <path
           d="M 262.879,7.28516 7.76953,261.766"
           style="fill:none;stroke:#000000;stroke-width:4.72425;stroke-linecap:butt;stroke-linejoin:miter;stroke-miterlimit:10;stroke-dasharray:none;stroke-opacity:1"
           transform="matrix(0.13333333,0,0,-0.13333333,316.27733,131.94933)"
           clip-path="url(#clipPath10)"
           id="path31" />
      </g>
      <path
         d="M 65.0898,224.602 15.3281,254.207 44.9336,204.445"
         style="fill:none;stroke:#000000;stroke-width:4.72425;stroke-linecap:butt;stroke-linejoin:miter;stroke-miterlimit:10;stroke-dasharray:none;stroke-opacity:1"
         transform="matrix(0.13333333,0,0,-0.13333333,316.27733,131.94933)"
         clip-path="url(#clipPath12)"
         id="path32" />
      <path
         d="m 163.355,134.527 c 0,-14.957 -12.41,-27.086 -27.714,-27.086 -15.309,0 -27.719,12.129 -27.719,27.086 0,14.957 12.41,27.086 27.719,27.086 15.304,0 27.714,-12.129 27.714,-27.086"
         style="fill:#000000;fill-opacity:1;fill-rule:evenodd;stroke:none"
         transform="matrix(0.13333333,0,0,-0.13333333,316.27733,131.94933)"
         clip-path="url(#clipPath13)"
         id="path33" />
      <path
         d="m 163.355,134.527 c 0,-14.957 -12.41,-27.086 -27.714,-27.086 -15.309,0 -27.719,12.129 -27.719,27.086 0,14.957 12.41,27.086 27.719,27.086 15.304,0 27.714,-12.129 27.714,-27.086 z"
         style="fill:none;stroke:#000000;stroke-width:4.72425;stroke-linecap:butt;stroke-linejoin:miter;stroke-miterlimit:10;stroke-dasharray:none;stroke-opacity:1"
         transform="matrix(0.13333333,0,0,-0.13333333,316.27733,131.94933)"
         clip-path="url(#clipPath14)"
         id="path34" />
      <g
         id="g38"
         inkscape:label="mask1" />
      <g
         clip-path="url(#clipPath5)"
         id="g27"
         style="display:inline;opacity:1;mix-blend-mode:normal">
        <path
           style="display:inline;fill:none;stroke:#000000;stroke-width:4.72425;stroke-linecap:butt;stroke-linejoin:miter;stroke-miterlimit:10;stroke-dasharray:none;stroke-opacity:1"
           d="M 1276.4681,170.10429 1368.36,261.766"
           transform="matrix(0.13333333,0,0,-0.13333333,316.27733,131.94933)"
           id="path47" />
        <path
           style="display:inline;fill:none;stroke:#000000;stroke-width:4.72425;stroke-linecap:butt;stroke-linejoin:miter;stroke-miterlimit:10;stroke-dasharray:none;stroke-opacity:1"
           d="m 1113.24,7.28516 92.1371,91.906241"
           transform="matrix(0.13333333,0,0,-0.13333333,316.27733,131.94933)"
           id="path27" />
      </g>
      <g
         clip-path="url(#clipPath20)"
         id="g39">
        <path
           d="M 688.063,7.28516 943.172,261.766"
           style="fill:none;stroke:#000000;stroke-width:4.72425;stroke-linecap:butt;stroke-linejoin:miter;stroke-miterlimit:10;stroke-dasharray:none;stroke-opacity:1"
           transform="matrix(0.13333333,0,0,-0.13333333,316.27733,131.94933)"
           clip-path="url(#clipPath19)"
           id="path39" />
      </g>
      <path
         d="m 905.379,204.445 30.234,49.762 -50.394,-29.605"
         style="fill:none;stroke:#000000;stroke-width:4.72425;stroke-linecap:butt;stroke-linejoin:miter;stroke-miterlimit:10;stroke-dasharray:none;stroke-opacity:1"
         transform="matrix(0.13333333,0,0,-0.13333333,316.27733,131.94933)"
         clip-path="url(#clipPath21)"
         id="path40" />
      <g
         clip-path="url(#clipPath23)"
         id="g41">
        <path
           d="M 1368.36,7.28516 1113.24,261.766"
           style="fill:none;stroke:#000000;stroke-width:4.72425;stroke-linecap:butt;stroke-linejoin:miter;stroke-miterlimit:10;stroke-dasharray:none;stroke-opacity:1"
           transform="matrix(0.13333333,0,0,-0.13333333,316.27733,131.94933)"
           clip-path="url(#clipPath22)"
           id="path41" />
      </g>
      <path
         d="m 1170.57,224.602 -49.77,29.605 29.61,-49.762"
         style="fill:none;stroke:#000000;stroke-width:4.72425;stroke-linecap:butt;stroke-linejoin:miter;stroke-miterlimit:10;stroke-dasharray:none;stroke-opacity:1"
         transform="matrix(0.13333333,0,0,-0.13333333,316.27733,131.94933)"
         clip-path="url(#clipPath24)"
         id="path42" />
    </g>
    <path
       id="path43"
       d="m 1.1357109,-2.7547344 c 0.070312,0 0.328125,0 0.328125,-0.234375 0,-0.234375 -0.2578125,-0.234375 -0.328125,-0.234375 v -1.5703125 c 0,-0.1875 0,-0.421875 -0.23437496,-0.421875 -0.24609375,0 -0.24609375,0.234375 -0.24609375,0.421875 v 3.609375 c 0,0.18750003 0,0.42187503 0.24609375,0.42187503 0.23437496,0 0.23437496,-0.234375 0.23437496,-0.42187503 z m 8.8359375,0 c -0.65625,0.5039063 -0.984375,0.9960938 -1.078125,1.1484375 -0.5390625,0.83203128 -0.6328125,1.58203128 -0.6328125,1.59375003 0,0.140625 0.140625,0.140625 0.234375,0.140625 0.2109375,0 0.2226563,-0.0234375 0.2695313,-0.234375 0.2695312,-1.17187503 0.9726562,-2.17968753 2.3320308,-2.73046873 0.140625,-0.046875 0.175782,-0.070312 0.175782,-0.1523438 0,-0.082031 -0.07031,-0.1171875 -0.09375,-0.1289062 -0.527344,-0.2109375 -1.9804691,-0.8085938 -2.4257816,-2.8125 -0.035156,-0.140625 -0.046875,-0.1757813 -0.2578125,-0.1757813 -0.09375,0 -0.234375,0 -0.234375,0.140625 0,0.023437 0.1054688,0.7734375 0.609375,1.5820313 0.234375,0.3515625 0.5859375,0.7734375 1.1015625,1.1601562 H 1.0888359 c -0.22265621,0 -0.43359371,0 -0.43359371,0.234375 0,0.234375 0.2109375,0.234375 0.43359371,0.234375 z m 0,0"
       style="fill:#000000;fill-opacity:1;fill-rule:nonzero;stroke:none"
       aria-label="7→"
       transform="matrix(1.3333333,0,0,1.3333333,371.724,119.60267)" />
    <path
       id="path44"
       d="m 7.8742514,-2.7547344 c 0.2109375,0 0.421875,0 0.421875,-0.234375 0,-0.234375 -0.2109375,-0.234375 -0.421875,-0.234375 h -6.46875 c -0.1992187,0 -0.41015624,0 -0.41015624,0.234375 0,0.234375 0.21093754,0.234375 0.41015624,0.234375 z m 0,0"
       style="fill:#000000;fill-opacity:1;fill-rule:nonzero;stroke:none"
       aria-label="−"
       transform="matrix(1.3333333,0,0,1.3333333,447.15334,119.60267)" />
  </g>
</svg>
