<?xml version="1.0" encoding="UTF-8" standalone="no"?>
<!-- Created with Inkscape (http://www.inkscape.org/) -->

<svg
   version="1.1"
   id="svg1"
   width="180.65199"
   height="89.570663"
   viewBox="0 0 180.65199 89.570663"
   sodipodi:docname="Draft.pdf"
   xmlns:inkscape="http://www.inkscape.org/namespaces/inkscape"
   xmlns:sodipodi="http://sodipodi.sourceforge.net/DTD/sodipodi-0.dtd"
   xmlns="http://www.w3.org/2000/svg"
   xmlns:svg="http://www.w3.org/2000/svg">
  <defs
     id="defs1" />
  <sodipodi:namedview
     id="namedview1"
     pagecolor="#ffffff"
     bordercolor="#000000"
     borderopacity="0.25"
     inkscape:showpageshadow="2"
     inkscape:pageopacity="0.0"
     inkscape:pagecheckerboard="0"
     inkscape:deskcolor="#d1d1d1">
    <inkscape:page
       x="0"
       y="0"
       inkscape:label="1"
       id="page1"
       width="180.65199"
       height="89.570663"
       margin="0"
       bleed="0" />
  </sodipodi:namedview>
  <g
     id="g1"
     inkscape:groupmode="layer"
     inkscape:label="1">
    <g
       id="g2"
       aria-label="M×N"
       transform="matrix(1.3333333,0,0,1.3333333,5.6986667,16.149333)">
      <path
         id="path2"
         d="m 9.2230703,-6.0358281 c 0.09375,-0.3632813 0.1054688,-0.4570313 0.8554687,-0.4570313 0.234375,0 0.316406,0 0.316406,-0.1992187 0,-0.1171875 -0.09375,-0.1171875 -0.269531,-0.1171875 H 8.8129141 c -0.2578125,0 -0.2695313,0 -0.3867188,0.1992187 L 4.7933828,-0.93817187 4.0199453,-6.5748906 c -0.035156,-0.234375 -0.058594,-0.234375 -0.3164062,-0.234375 h -1.359375 c -0.1875,0 -0.3046875,0 -0.3046875,0.1992187 0,0.1171875 0.09375,0.1171875 0.2929687,0.1171875 0.1289063,0 0.3046875,0.011719 0.421875,0.011719 0.1640625,0.023437 0.2226563,0.058594 0.2226563,0.1640625 0,0.035156 -0.011719,0.070312 -0.035156,0.1875 l -1.265625,5.0742187 c -0.1054687,0.39843753 -0.2695312,0.71484378 -1.07812499,0.75000003 -0.046875,0 -0.17578125,0 -0.17578125,0.1875 0,0.08203125 0.0585938,0.117187495 0.140625,0.117187495 0.31640625,0 0.66796874,-0.035156245 0.99609374,-0.035156245 0.3398438,0 0.6914063,0.035156245 1.0195313,0.035156245 0.046875,0 0.1757812,0 0.1757812,-0.199218745 0,-0.10546875 -0.1054687,-0.10546875 -0.1757812,-0.10546875 -0.5625,-0.0117188 -0.6796875,-0.2109375 -0.6796875,-0.4453125 0,-0.0703125 0.011719,-0.1171875 0.046875,-0.22265625 L 3.2933828,-6.4108281 h 0.011719 l 0.8554687,6.17578123 c 0.023437,0.12890625 0.035156,0.234374995 0.1523438,0.234374995 0.1054687,0 0.1757812,-0.105468745 0.2226562,-0.175781245 L 8.5551016,-6.4811406 h 0.011719 l -1.4296875,5.70703123 c -0.09375,0.38671875 -0.1171875,0.46875 -0.9023437,0.46875 -0.1640625,0 -0.28125,0 -0.28125,0.1875 0,0.117187495 0.1289062,0.117187495 0.1523437,0.117187495 0.28125,0 0.9609375,-0.035156245 1.2304688,-0.035156245 0.4101562,0 0.84375,0.035156245 1.2539062,0.035156245 0.058594,0 0.1875,0 0.1875,-0.199218745 0,-0.10546875 -0.09375,-0.10546875 -0.28125,-0.10546875 -0.3632812,0 -0.6445312,0 -0.6445312,-0.1875 0,-0.0351563 0,-0.0585938 0.046875,-0.234375 z m 0,0"
         style="fill:#000000;fill-opacity:1;fill-rule:nonzero;stroke:none" />
      <path
         id="path3"
         d="M 16.843188,-2.7662969 14.851,-4.7467656 c -0.128906,-0.1289063 -0.140625,-0.140625 -0.222656,-0.140625 -0.105469,0 -0.199219,0.082031 -0.199219,0.1992187 0,0.070312 0.02344,0.082031 0.128906,0.1992188 l 1.992188,1.9921875 -1.992188,2.00390623 c -0.105468,0.1171875 -0.128906,0.12890625 -0.128906,0.19921875 0,0.1171875 0.09375,0.19921875 0.199219,0.19921875 0.08203,0 0.09375,-0.01171875 0.222656,-0.140625 l 1.980469,-1.98046873 2.0625,2.06249998 c 0.01172,0.0117188 0.08203,0.05859375 0.152344,0.05859375 0.117187,0 0.199218,-0.08203125 0.199218,-0.19921875 0,-0.0117188 0,-0.0585938 -0.03516,-0.10546875 -0.01172,-0.0234375 -1.59375,-1.58203123 -2.097656,-2.09765623 l 1.828125,-1.8164063 c 0.04687,-0.058594 0.199219,-0.1875 0.246094,-0.2460937 0.01172,-0.023437 0.05859,-0.058594 0.05859,-0.1289063 0,-0.1171875 -0.08203,-0.1992187 -0.199218,-0.1992187 -0.08203,0 -0.128907,0.035156 -0.234375,0.140625 z m 0,0"
         style="fill:#000000;fill-opacity:1;fill-rule:nonzero;stroke:none" />
      <path
         id="path4"
         d="m 30.463305,-5.7545781 c 0.09375,-0.3984375 0.269531,-0.7148438 1.066406,-0.7382813 0.05859,0 0.175781,-0.011719 0.175781,-0.1992187 0,-0.011719 0,-0.1171875 -0.128906,-0.1171875 -0.328125,0 -0.679688,0.035156 -1.007813,0.035156 -0.339843,0 -0.691406,-0.035156 -1.019531,-0.035156 -0.05859,0 -0.175781,0 -0.175781,0.1992187 0,0.1171875 0.09375,0.1171875 0.175781,0.1171875 0.574219,0.011719 0.679688,0.2109375 0.679688,0.4335938 0,0.035156 -0.02344,0.1757812 -0.02344,0.2109375 l -1.125,4.4296875 -2.203125,-5.1914063 c -0.07031,-0.1875 -0.08203,-0.1992187 -0.316406,-0.1992187 h -1.335938 c -0.199218,0 -0.28125,0 -0.28125,0.1992187 0,0.1171875 0.08203,0.1171875 0.28125,0.1171875 0.04687,0 0.667969,0 0.667969,0.082031 l -1.335937,5.3554687 c -0.09375,0.39843753 -0.269532,0.71484378 -1.066407,0.75000003 -0.05859,0 -0.175781,0 -0.175781,0.19921875 0,0.0703125 0.04687,0.105468745 0.128906,0.105468745 0.316407,0 0.667969,-0.035156245 0.996094,-0.035156245 0.339844,0 0.703125,0.035156245 1.03125,0.035156245 0.04687,0 0.175781,0 0.175781,-0.199218745 0,-0.10546875 -0.09375,-0.10546875 -0.199218,-0.10546875 -0.574219,-0.0234375 -0.65625,-0.24609375 -0.65625,-0.4453125 0,-0.0703125 0.01172,-0.1171875 0.03516,-0.22265625 l 1.324219,-5.26171878 c 0.03516,0.058594 0.03516,0.082031 0.08203,0.1757813 l 2.484375,5.87109373 c 0.07031,0.1640625 0.09375,0.187499995 0.1875,0.187499995 0.105469,0 0.105469,-0.035156245 0.164062,-0.210937495 z m 0,0"
         style="fill:#000000;fill-opacity:1;fill-rule:nonzero;stroke:none" />
    </g>
    <g
       id="g4"
       aria-label="M⊗&#10;R&#10;N"
       transform="matrix(1.3333333,0,0,1.3333333,123.548,16.149333)">
      <path
         id="path5"
         d="m 9.2218125,-6.0358281 c 0.09375,-0.3632813 0.1054687,-0.4570313 0.8554685,-0.4570313 0.234375,0 0.316406,0 0.316406,-0.1992187 0,-0.1171875 -0.09375,-0.1171875 -0.269531,-0.1171875 H 8.8116562 c -0.2578125,0 -0.2695312,0 -0.3867187,0.1992187 L 4.792125,-0.93817187 4.0186875,-6.5748906 c -0.035156,-0.234375 -0.058594,-0.234375 -0.3164063,-0.234375 h -1.359375 c -0.1875,0 -0.3046875,0 -0.3046875,0.1992187 0,0.1171875 0.09375,0.1171875 0.2929688,0.1171875 0.1289062,0 0.3046875,0.011719 0.421875,0.011719 0.1640625,0.023437 0.2226562,0.058594 0.2226562,0.1640625 0,0.035156 -0.011719,0.070312 -0.035156,0.1875 l -1.265625,5.0742187 c -0.1054688,0.39843753 -0.2695313,0.71484378 -1.078125,0.75000003 -0.046875,0 -0.17578125,0 -0.17578125,0.1875 0,0.08203125 0.0585938,0.117187495 0.140625,0.117187495 0.31640625,0 0.66796875,-0.035156245 0.99609375,-0.035156245 0.3398437,0 0.6914062,0.035156245 1.0195312,0.035156245 0.046875,0 0.1757813,0 0.1757813,-0.199218745 0,-0.10546875 -0.1054688,-0.10546875 -0.1757813,-0.10546875 -0.5625,-0.0117188 -0.6796875,-0.2109375 -0.6796875,-0.4453125 0,-0.0703125 0.011719,-0.1171875 0.046875,-0.22265625 L 3.292125,-6.4108281 h 0.011719 l 0.8554688,6.17578123 c 0.023437,0.12890625 0.035156,0.234374995 0.1523437,0.234374995 0.1054688,0 0.1757813,-0.105468745 0.2226563,-0.175781245 L 8.5538437,-6.4811406 h 0.011719 L 7.135875,-0.77410937 c -0.09375,0.38671875 -0.1171875,0.46875 -0.9023438,0.46875 -0.1640625,0 -0.28125,0 -0.28125,0.1875 0,0.117187495 0.1289063,0.117187495 0.1523438,0.117187495 0.28125,0 0.9609375,-0.035156245 1.2304687,-0.035156245 0.4101563,0 0.84375,0.035156245 1.2539063,0.035156245 0.058594,0 0.1875,0 0.1875,-0.199218745 0,-0.10546875 -0.09375,-0.10546875 -0.28125,-0.10546875 -0.3632813,0 -0.6445313,0 -0.6445313,-0.1875 0,-0.0351563 0,-0.0585938 0.046875,-0.234375 z m 0,0"
         style="fill:#000000;fill-opacity:1;fill-rule:nonzero;stroke:none" />
      <path
         id="path6"
         d="m 20.161266,-2.4967656 c 0,-1.828125 -1.5,-3.3164063 -3.316407,-3.3164063 -1.851562,0 -3.328125,1.5117188 -3.328125,3.3164063 0,1.83984373 1.488282,3.32812498 3.316407,3.32812498 1.851562,0 3.328125,-1.51171875 3.328125,-3.32812498 z m -5.296875,-2.1328125 c -0.02344,-0.023437 -0.09375,-0.09375 -0.09375,-0.1171875 0,-0.035156 0.808593,-0.8085938 2.0625,-0.8085938 0.351562,0 1.265625,0.046875 2.074218,0.8085938 l -2.0625,2.0859375 z m -0.292969,4.21874998 C 13.962047,-1.0905156 13.762828,-1.8522344 13.762828,-2.4967656 c 0,-0.7617188 0.292969,-1.4882813 0.808594,-2.0742188 l 2.085937,2.0742188 z m 4.523437,-4.16015628 c 0.480469,0.5039063 0.808594,1.265625 0.808594,2.0742188 0,0.7734375 -0.28125,1.49999998 -0.796875,2.08593748 L 17.020641,-2.4967656 Z m -0.28125,4.21875003 c 0.02344,0.0234375 0.09375,0.09375 0.09375,0.1171875 0,0.0351563 -0.808593,0.80859375 -2.0625,0.80859375 -0.351562,0 -1.265625,-0.046875 -2.085937,-0.80859375 l 2.074219,-2.08593753 z m 0,0"
         style="fill:#000000;fill-opacity:1;fill-rule:nonzero;stroke:none" />
      <path
         id="path7"
         d="m 23.597789,-2.783875 c 0.04687,-0.1875 0.05859,-0.2109375 0.210938,-0.234375 h 0.445312 c 0.65625,0 1.453125,0 1.453125,0.7148438 0,0.2929687 -0.128906,0.7265625 -0.457031,0.984375 -0.292969,0.2226562 -0.726563,0.32812495 -1.207031,0.32812495 h -0.890625 z m 1.253906,1.91015625 c 0.832032,-0.19921875 1.570313,-0.70312495 1.570313,-1.32421875 0,-0.5976562 -0.703125,-1.0664062 -1.722656,-1.0664062 h -2.132813 c -0.140625,0 -0.222656,0 -0.222656,0.1523437 0,0.09375 0.08203,0.09375 0.222656,0.09375 0,0 0.140625,0 0.257813,0.011719 0.152343,0.011719 0.164062,0.035156 0.164062,0.1054687 0,0.011719 0,0.046875 -0.02344,0.1523438 l -0.9375,3.70312495 C 21.980602,1.1887813 21.968883,1.247375 21.418102,1.247375 c -0.117188,0 -0.210938,0 -0.210938,0.140625 0,0.070312 0.04687,0.1054688 0.117188,0.1054688 0.128906,0 0.292968,-0.023437 0.433593,-0.023437 0.128907,0 0.328125,0 0.457032,0 0.140625,0 0.304687,0 0.445312,0 0.152344,0 0.316406,0.023437 0.46875,0.023437 0.03516,0 0.140625,0 0.140625,-0.140625 0,-0.1054688 -0.07031,-0.1054688 -0.222656,-0.1054688 -0.117188,0 -0.140625,0 -0.269531,-0.023437 -0.152344,-0.011719 -0.152344,-0.035156 -0.152344,-0.1054687 0,0 0,-0.046875 0.02344,-0.1523438 l 0.445313,-1.7578125 h 0.949219 c 0.597656,0 0.855468,0.29296875 0.855468,0.62109375 0,0.09375 -0.05859,0.328125 -0.09375,0.4921875 -0.08203,0.31640625 -0.117187,0.421875 -0.117187,0.5390625 0,0.55078125 0.515625,0.77343755 1.03125,0.77343755 0.632812,0 0.914062,-0.67968755 0.914062,-0.8085938 0,-0.0234375 -0.01172,-0.09375 -0.117187,-0.09375 -0.09375,0 -0.105469,0.046875 -0.128906,0.1171875 -0.09375,0.3046875 -0.351563,0.5859375 -0.644532,0.5859375 -0.175781,0 -0.316406,-0.070312 -0.316406,-0.4453125 0,-0.17578125 0.04687,-0.5390625 0.07031,-0.7265625 0.03516,-0.1875 0.03516,-0.2578125 0.03516,-0.328125 0,-0.08203125 0,-0.3046875 -0.199219,-0.515625 -0.128906,-0.15234375 -0.316406,-0.24609375 -0.480469,-0.29296875 z m 0,0"
         style="fill:#000000;fill-opacity:1;fill-rule:nonzero;stroke:none" />
      <path
         id="path8"
         d="m 36.99818,-5.7545781 c 0.09375,-0.3984375 0.269531,-0.7148438 1.066406,-0.7382813 0.05859,0 0.175781,-0.011719 0.175781,-0.1992187 0,-0.011719 0,-0.1171875 -0.128906,-0.1171875 -0.328125,0 -0.679688,0.035156 -1.007813,0.035156 -0.339843,0 -0.691406,-0.035156 -1.019531,-0.035156 -0.05859,0 -0.175781,0 -0.175781,0.1992187 0,0.1171875 0.09375,0.1171875 0.175781,0.1171875 0.574219,0.011719 0.679688,0.2109375 0.679688,0.4335938 0,0.035156 -0.02344,0.1757812 -0.02344,0.2109375 l -1.125,4.4296875 -2.203125,-5.1914063 c -0.07031,-0.1875 -0.08203,-0.1992187 -0.316406,-0.1992187 h -1.335938 c -0.199218,0 -0.28125,0 -0.28125,0.1992187 0,0.1171875 0.08203,0.1171875 0.28125,0.1171875 0.04687,0 0.667969,0 0.667969,0.082031 l -1.335937,5.3554687 c -0.09375,0.39843753 -0.269532,0.71484378 -1.066407,0.75000003 -0.05859,0 -0.175781,0 -0.175781,0.19921875 0,0.0703125 0.04687,0.105468745 0.128906,0.105468745 0.316407,0 0.667969,-0.035156245 0.996094,-0.035156245 0.339844,0 0.703125,0.035156245 1.03125,0.035156245 0.04687,0 0.175781,0 0.175781,-0.199218745 0,-0.10546875 -0.09375,-0.10546875 -0.199218,-0.10546875 -0.574219,-0.0234375 -0.65625,-0.24609375 -0.65625,-0.4453125 0,-0.0703125 0.01172,-0.1171875 0.03516,-0.22265625 L 32.68568,-6.2350469 c 0.03516,0.058594 0.03516,0.082031 0.08203,0.1757813 l 2.484375,5.87109373 c 0.07031,0.1640625 0.09375,0.187499995 0.1875,0.187499995 0.105469,0 0.105469,-0.035156245 0.164062,-0.210937495 z m 0,0"
         style="fill:#000000;fill-opacity:1;fill-rule:nonzero;stroke:none" />
    </g>
    <path
       id="path9"
       d="m 1.7813984,-1.1485156 c -0.3984375,0.66796873 -0.78515621,0.80859373 -1.21874996,0.84374998 -0.12890625,0 -0.2109375,0 -0.2109375,0.19921875 0,0.05859375 0.046875,0.105468745 0.12890625,0.105468745 0.26953125,0 0.57421871,-0.035156245 0.85546871,-0.035156245 0.328125,0 0.6796875,0.035156245 0.9960938,0.035156245 0.058594,0 0.1875,0 0.1875,-0.187499995 0,-0.1171875 -0.09375,-0.1171875 -0.1640625,-0.1171875 -0.2226563,-0.0234375 -0.4570313,-0.10546875 -0.4570313,-0.3515625 0,-0.1171875 0.058594,-0.234375 0.1289063,-0.37499998 l 0.7617187,-1.265625 h 2.4960938 c 0.023437,0.1992187 0.1640625,1.55859373 0.1640625,1.66406248 0,0.29296875 -0.515625,0.328125 -0.7148438,0.328125 -0.140625,0 -0.2460937,0 -0.2460937,0.19921875 0,0.105468745 0.1289062,0.105468745 0.140625,0.105468745 0.4101562,0 0.84375,-0.035156245 1.2539062,-0.035156245 0.2460938,0 0.8671875,0.035156245 1.125,0.035156245 0.058594,0 0.1757813,0 0.1757813,-0.199218745 0,-0.10546875 -0.1054688,-0.10546875 -0.234375,-0.10546875 -0.609375,0 -0.609375,-0.0703125 -0.6445313,-0.36328125 L 5.6954609,-6.8907031 c -0.011719,-0.1992188 -0.011719,-0.2460938 -0.1875,-0.2460938 -0.1640625,0 -0.1992187,0.070312 -0.2578125,0.1757813 z m 1.1953125,-1.4648438 1.96875,-3.28125 0.3164063,3.28125 z m 0,0"
       style="fill:#000000;fill-opacity:1;fill-rule:nonzero;stroke:none"
       aria-label="A"
       transform="matrix(1.3333333,0,0,1.3333333,144.26933,84.726667)" />
    <path
       id="path10"
       d="M -26.97916,24.80383 H 20.04501"
       style="fill:none;stroke:#000000;stroke-width:0.39848;stroke-linecap:butt;stroke-linejoin:miter;stroke-miterlimit:10;stroke-dasharray:none;stroke-opacity:1"
       transform="matrix(1.3333333,0,0,-1.3333333,90.326667,45.898667)" />
    <path
       id="path11"
       d="M -2.07213,2.39091 C -1.69356,0.95633 -0.84995,0.27893 0,0 -0.84995,-0.27893 -1.69356,-0.95633 -2.07213,-2.39091"
       style="fill:none;stroke:#000000;stroke-width:0.39848;stroke-linecap:round;stroke-linejoin:round;stroke-miterlimit:10;stroke-dasharray:none;stroke-opacity:1"
       transform="matrix(1.3333333,0,0,-1.3333333,117.319,12.826893)" />
    <path
       id="path12"
       d="m 5.6848281,-1.7459922 c 0,-1.4296875 -1.1601562,-2.5664062 -2.578125,-2.5664062 -1.4179687,0 -2.56640623,1.1601562 -2.56640623,2.5664062 0,1.42968751 1.16015623,2.56640626 2.56640623,2.56640626 1.4296875,0 2.578125,-1.16015625 2.578125,-2.56640626 z m -4.1367187,-1.734375 c 0.28125,-0.2578125 0.8203125,-0.5976562 1.5585937,-0.5976562 0.7382813,0 1.2773438,0.3398437 1.5703125,0.5976562 L 3.1067031,-1.9217734 Z M 1.3840469,-0.18739844 C 0.99732812,-0.58583594 0.77467187,-1.1717734 0.77467187,-1.7459922 c 0,-0.609375 0.24609373,-1.1835937 0.60937503,-1.5585937 l 1.5585937,1.5585937 z M 4.8410781,-3.3045859 c 0.3867188,0.3984375 0.609375,0.984375 0.609375,1.5585937 0,0.609375 -0.2460937,1.18359376 -0.609375,1.55859376 L 3.2824844,-1.7459922 Z m -0.1640625,3.29296871 c -0.2929687,0.2578125 -0.8320312,0.59765625 -1.5703125,0.59765625 -0.7382812,0 -1.2773437,-0.33984375 -1.5585937,-0.59765625 L 3.1067031,-1.5702109 Z m 0,0"
       style="fill:#000000;fill-opacity:1;fill-rule:nonzero;stroke:none"
       aria-label="⊗"
       transform="matrix(1.3333333,0,0,1.3333333,81.818667,8.6053333)" />
    <path
       id="path13"
       d="M -34.71803,17.65074 35.63736,-21.83101"
       style="fill:none;stroke:#000000;stroke-width:0.39848;stroke-linecap:butt;stroke-linejoin:miter;stroke-miterlimit:10;stroke-dasharray:none;stroke-opacity:1"
       transform="matrix(1.3333333,0,0,-1.3333333,90.326667,45.898667)" />
    <path
       id="path14"
       d="M -2.07213,2.39091 C -1.69356,0.95633 -0.84995,0.27893 0,0 -0.84995,-0.27893 -1.69356,-0.95633 -2.07213,-2.39091"
       style="fill:none;stroke:#000000;stroke-width:0.39848;stroke-linecap:round;stroke-linejoin:round;stroke-miterlimit:10;stroke-dasharray:none;stroke-opacity:1"
       transform="matrix(1.1626933,0.65246667,0.65246667,-1.1626933,138.0748,75.136667)" />
    <path
       id="path15"
       d="m 2.8349609,-2.7548672 h 0.6796875 c 0.140625,0 0.234375,0 0.234375,-0.1523437 0,-0.09375 -0.09375,-0.09375 -0.2109375,-0.09375 h -0.65625 c 0.1640625,-0.890625 0.2226563,-1.2070313 0.28125,-1.4179688 0.035156,-0.1523437 0.1875,-0.2929687 0.3515625,-0.2929687 0,0 0.1992188,0 0.328125,0.082031 -0.2929687,0.09375 -0.3046875,0.3398438 -0.3046875,0.3867188 0,0.1523437 0.1171875,0.2578125 0.2695313,0.2578125 0.1992187,0 0.3984375,-0.1640625 0.3984375,-0.4335938 0,-0.3164062 -0.3398438,-0.4921875 -0.6914063,-0.4921875 -0.3046875,0 -0.6445312,0.1757813 -0.84375,0.5273438 -0.1289062,0.2578125 -0.1875,0.5742187 -0.3398437,1.3828125 H 1.7802734 c -0.140625,0 -0.2226562,0 -0.2226562,0.1523437 0,0.09375 0.082031,0.09375 0.2109375,0.09375 h 0.515625 c 0,0.046875 -0.4453125,2.55468751 -0.609375,3.29296876 -0.035156,0.1640625 -0.1523438,0.69140624 -0.4921875,0.69140624 0,0 -0.1757813,0 -0.30468751,-0.082031 0.28125001,-0.09375 0.30468751,-0.35156254 0.30468751,-0.38671879 0,-0.15234375 -0.1171875,-0.2578125 -0.28125001,-0.2578125 -0.1875,0 -0.3984375,0.1640625 -0.3984375,0.421875 0,0.31640629 0.328125,0.49218749 0.67968751,0.49218749 0.4453125,0 0.75,-0.45703124 0.84375,-0.60937499 0.2460937,-0.46875 0.4101562,-1.32421875 0.421875,-1.40625 z m 0,0"
       style="fill:#000000;fill-opacity:1;fill-rule:nonzero;stroke:none"
       aria-label="f"
       transform="matrix(1.3333333,0,0,1.3333333,81.833333,58.388)" />
    <path
       id="path16"
       d="M 44.19415,16.98656 V -18.08247"
       style="fill:none;stroke:#000000;stroke-width:0.39848;stroke-linecap:butt;stroke-linejoin:miter;stroke-miterlimit:10;stroke-dasharray:2.78941, 1.59395;stroke-dashoffset:0;stroke-opacity:1"
       transform="matrix(1.3333333,0,0,-1.3333333,90.326667,45.898667)" />
    <path
       id="path17"
       d="M -2.07213,2.39091 C -1.69356,0.95633 -0.84995,0.27893 0,0 -0.84995,-0.27893 -1.69356,-0.95633 -2.07213,-2.39091"
       style="fill:none;stroke:#000000;stroke-width:0.39848;stroke-linecap:round;stroke-linejoin:round;stroke-miterlimit:10;stroke-dasharray:none;stroke-opacity:1"
       transform="matrix(0,1.3333333,1.3333333,0,149.2522,70.27428)" />
    <g
       id="g17"
       aria-label="!&#10;˜&#10;f"
       transform="matrix(1.3333333,0,0,1.3333333,152.36533,50.345333)">
      <path
         id="path18"
         d="m 1.5248281,-4.5949375 c 0,-0.2578125 -0.2109375,-0.3867187 -0.3984375,-0.3867187 -0.19921873,0 -0.39843748,0.1523437 -0.39843748,0.3867187 l 0.26953125,3.0703125 c 0.0117187,0.1523438 0.0351562,0.1757813 0.12890623,0.1757813 0.09375,0 0.1171875,-0.023437 0.1289063,-0.1640625 z m 0,4.18359375 c 0,-0.2109375 -0.1757812,-0.38671875 -0.3984375,-0.38671875 -0.23437498,0 -0.39843748,0.1875 -0.39843748,0.38671875 0,0.24609375 0.19921875,0.41015625 0.39843748,0.41015625 0.2226563,0 0.3984375,-0.17578125 0.3984375,-0.41015625 z M 7.0179922,-6.5285312 c -0.2109375,0.2109375 -0.4101563,0.3164062 -0.609375,0.3164062 -0.1757813,0 -0.3867188,-0.1054687 -0.4453125,-0.140625 -0.2460938,-0.1171875 -0.3984375,-0.1757812 -0.5507813,-0.1757812 -0.28125,0 -0.3867187,0.1054687 -0.8203125,0.5507812 l 0.1289063,0.140625 c 0.2109375,-0.2109375 0.4101562,-0.3164062 0.609375,-0.3164062 0.1757812,0 0.3867187,0.1054687 0.4453125,0.140625 0.2460937,0.1171875 0.3984375,0.1757812 0.5507812,0.1757812 0.28125,0 0.3867188,-0.1054687 0.8203125,-0.5625 z m 0,0"
         style="fill:#000000;fill-opacity:1;fill-rule:nonzero;stroke:none" />
      <path
         id="path19"
         d="M 5.0931875,-2.7550937 H 5.772875 c 0.140625,0 0.234375,0 0.234375,-0.1523438 0,-0.09375 -0.09375,-0.09375 -0.2109375,-0.09375 h -0.65625 c 0.1640625,-0.890625 0.2226562,-1.2070312 0.28125,-1.4179687 0.035156,-0.1523438 0.1875,-0.2929688 0.3515625,-0.2929688 0,0 0.1992187,0 0.328125,0.082031 -0.2929688,0.09375 -0.3046875,0.3398437 -0.3046875,0.3867187 0,0.1523438 0.1171875,0.2578125 0.2695312,0.2578125 0.1992188,0 0.3984375,-0.1640625 0.3984375,-0.4335937 0,-0.3164063 -0.3398437,-0.4921875 -0.6914062,-0.4921875 -0.3046875,0 -0.6445313,0.1757812 -0.84375,0.5273437 -0.1289063,0.2578125 -0.1875,0.5742188 -0.3398438,1.3828125 H 4.0385 c -0.140625,0 -0.2226563,0 -0.2226563,0.1523438 0,0.09375 0.082031,0.09375 0.2109375,0.09375 h 0.515625 c 0,0.046875 -0.4453125,2.55468745 -0.609375,3.2929687 -0.035156,0.1640625 -0.1523437,0.6914063 -0.4921875,0.6914063 0,0 -0.1757812,0 -0.3046875,-0.082031 0.28125,-0.09375 0.3046875,-0.3515625 0.3046875,-0.38671875 0,-0.15234375 -0.1171875,-0.2578125 -0.28125,-0.2578125 -0.1875,0 -0.3984375,0.1640625 -0.3984375,0.421875 0,0.31640625 0.328125,0.49218755 0.6796875,0.49218755 0.4453125,0 0.75,-0.4570313 0.84375,-0.60937505 0.2460938,-0.46875 0.4101563,-1.32421875 0.421875,-1.40625 z m 0,0"
         style="fill:#000000;fill-opacity:1;fill-rule:nonzero;stroke:none" />
    </g>
  </g>
</svg>
