<?xml version="1.0" encoding="UTF-8" standalone="no"?>
<!-- Created with Inkscape (http://www.inkscape.org/) -->

<svg
   version="1.1"
   id="svg1"
   width="111.96484"
   height="107.45703"
   viewBox="0 0 111.96484 107.45703"
   sodipodi:docname="Untitled 2025-08-23 (2) (2).pdf"
   xmlns:inkscape="http://www.inkscape.org/namespaces/inkscape"
   xmlns:sodipodi="http://sodipodi.sourceforge.net/DTD/sodipodi-0.dtd"
   xmlns="http://www.w3.org/2000/svg"
   xmlns:svg="http://www.w3.org/2000/svg">
  <defs
     id="defs1" />
  <sodipodi:namedview
     id="namedview1"
     pagecolor="#ffffff"
     bordercolor="#000000"
     borderopacity="0.25"
     inkscape:showpageshadow="2"
     inkscape:pageopacity="0.0"
     inkscape:pagecheckerboard="0"
     inkscape:deskcolor="#d1d1d1">
    <inkscape:page
       x="0"
       y="0"
       width="111.96484"
       height="107.45703"
       id="page2"
       margin="0"
       bleed="0" />
  </sodipodi:namedview>
  <g
     id="g1"
     inkscape:groupmode="layer"
     inkscape:label="1"
     transform="translate(-151.68751,-40.23047)">
    <path
       id="path1"
       d="m 511.51001,157.88472 h 0.5 0.5 0.5 0.5 0.5 0.5 0.5 0.5 0.5 0.5 0.5 0.5 0.5 0.5 0.5 0.5 0.5 0.5 0.5 0.5 0.5 0.5 0.5 0.5 0.5 0.5 0.5 0.5 0.5 0.5 0.5 0.5 0.5 0.5 0.5 0.5 0.5 0.5 0.5 0.5 0.5 0.5 0.5 0.5 0.5 0.5 0.5 0.5 0.5 0.5 0.5 0.5 0.5 0.5 0.5 0.5 0.5 0.5 0.5 0.5 0.5 0.5 0.5 0.5 0.5 0.5 0.5 0.5 0.5 0.5 0.5 0.5 0.5 0.5 0.5 0.5 0.5 0.5 0.5 0.5 0.5 0.5 0.5 0.5 0.5 0.5 0.5 0.5 0.5 0.5 0.5 0.5 0.5 0.5 0.5 0.5 0.5 0.5 0.5 0.5 0.5 0.5 0.5 0.5 0.5 0.5 0.5 0.5 0.5 0.5 0.5 0.5 0.5 0.5 0.5 0.5 0.5 0.5 0.5 0.5 0.5 0.5 0.5 0.5 0.5 0.5 0.5 0.5 0.5 0.5 0.5 0.5 0.5 0.5 0.5 0.5 0.5 0.5 0.5 0.5 0.5 0.5 0.5 0.5 0.5 0.5 0.5 0.5 0.5 0.5 0.5 0.5 0.5 0.5 0.5 0.5 0.5 0.5 0.5 0.5 0.5 0.5 0.5 0.5 0.5 0.5 0.5 0.5 0.5 0.5 0.5 0.5 0.5 0.5 0.5 0.5 0.5 0.5 0.5 0.5 0.5 0.5 0.5 0.5 0.5 0.5 0.5 0.5 0.5 0.5 0.5 0.5 0.5 0.5 0.5 0.5 0.5 0.5 0.5 0.5 0.5 0.5 0.5 0.5 0.5 0.5 0.5 0.5 0.5 0.5 0.5 0.5 0.5 0.5 0.5 0.5 0.5 0.5 0.5 0.5 0.5 0.5 0.5 0.5 0.5 0.5 0.5 0.5 0.5 0.5 0.5 0.5 0.5 0.5 0.5 0.5 0.5 0.5 0.5 0.5 0.5 0.5 0.5 0.5 0.5 0.5 0.5 0.5 0.5 0.5 0.5 0.5 0.5 0.5 0.5 0.5 0.5 0.5 0.5 0.5 0.5 0.5 0.5 0.5 0.5 0.5 0.5 0.5 0.5 0.5 0.5 0.5 0.5 0.5 0.5 0.5 0.5 0.5 0.5 0.5 0.5 0.5 0.5 0.5 0.5 0.5 0.5 0.5 0.5 0.5 0.5 0.5 0.5 0.5 0.5 0.5 0.5 0.5 0.5 0.5 0.5 0.5 0.5 0.5 0.5 0.5 0.5 0.5 0.5 0.5 0.5 0.5 0.5 0.5 0.5 0.5 0.5 0.5 0.5 0.5 0.5 0.5 0.5 0.5 0.5 0.5 0.5 0.5 0.5 0.5 0.5 0.5 0.5 0.5 0.5 0.5 0.5 0.5 0.5 0.5 0.5 0.5 0.5 0.5 0.5 0.5 0.5 0.5 0.5 0.5 0.5 0.5 0.5 0.5 0.5 0.5 0.5 0.5 0.5 0.5 0.5 0.5 0.5 0.5 0.5 0.5 0.5 0.5 0.5 0.5 0.5 0.5 0.5 0.5 0.5 0.5 0.5 0.5 0.5 0.5 0.5 0.5 0.5 0.5 0.5 0.5 0.5 0.5 0.5 0.5 0.5 0.5 0.5 0.5 0.5 0.5 0.5 0.5 0.5 0.5 0.5 0.5 0.5 0.5 0.5 0.5 0.5 0.5 0.5 0.5 0.5 0.5 0.5 0.5 0.5 0.5 0.5 0.5 0.5 0.5 0.5 0.5 0.5 0.5 0.5 0.5 0.5 0.5 0.5 0.5 0.5 0.5 0.5 0.5 0.5 0.5 0.5 0.5 0.5 0.5 0.5 0.5 0.5 0.5 0.5 0.5 0.5 0.5 0.5 0.5 0.5 0.5 0.5 0.5 0.5 0.5 0.5 0.5 0.5 0.5 0.5 0.5 0.5 0.5 0.5 0.5 0.5 0.5 0.5 0.5 0.5 0.5 0.5 0.5 0.5 0.5 0.5 0.5 0.5 0.5 0.5 0.5 0.5 0.5 0.5 0.5 0.5 0.5 0.5 0.5 0.5 0.5 0.5 0.5 0.5 0.5 0.5 0.5 0.5 0.5 0.5 0.5 0.5 0.5 0.5 0.5 0.5 0.5 0.5 0.5 0.5 0.5 0.5 0.5 0.5 0.5 0.5 0.5 0.5 0.5 0.5 0.5 0.5 0.5 0.5 0.5 0.5 0.5 0.5 0.5 0.5 0.5 0.5 0.5 0.5 0.5 0.5 0.5 0.5 0.5 0.5 0.5 0.5 0.5 l 0.25903,0.24097 v 0.5 0.5 0.5 0.5 0.5 0.5 0.5 0.5 0.5 0.5 0.5 0.5 0.5 0.5 0.5 0.5 0.5 0.5 0.5 0.5 0.5 0.5 0.5 0.5 0.5 0.5 0.5 0.5 0.5 0.5 0.5 0.5 0.5 0.5 0.5 0.5 0.5 0.5 0.5 0.5 0.5 0.5 0.5 0.5 0.5 0.5 0.5 0.5 0.5 0.5 0.5 0.5 0.5 0.5 0.5 0.5 0.5 0.5 0.5 0.5 0.5 0.5 0.5 0.5 0.5 0.5 0.5 0.5 0.5 0.5 0.5 0.5 0.5 0.5 0.5 0.5 0.5 0.5 0.5 0.5 0.5 0.5 0.5 0.5 0.5 0.5 0.5 0.5 0.5 0.5 0.5 0.5 0.5 0.5 0.5 0.5 0.5 0.5 0.5 0.5 0.5 0.5 0.5 0.5 0.5 0.5 0.5 0.5 0.5 0.5 0.5 0.5 0.5 0.5 0.5 0.5 0.5 0.5 0.5 0.5 0.5 0.5 0.5 0.5 0.5 0.5 0.5 0.5 0.5 0.5 0.5 0.5 0.5 0.5 0.5 0.5 0.49998 0.50002 0.5 0.5 0.5 0.5 0.5 0.5 0.5 0.5 0.5 0.5 0.5 0.5 0.5 0.5 0.5 0.5 0.5 0.5 0.49998 0.50002 0.5 0.5 0.5 0.5 0.5 0.5 0.5 0.5 0.5 0.5 0.5 0.5 0.5 0.5 0.5 0.5 0.5 0.5 0.49998 0.50003 0.49999 0.5 0.5 0.5 0.5 0.5 0.5 0.5 0.5 0.5 0.5 0.5 0.5 0.5 0.5 0.5 0.5 0.49998 0.5 0.50003 0.49997 0.5 0.5 0.5 0.5 0.5 0.5 0.5 0.5 0.5 0.5 0.5 0.5 0.5 0.5 0.5 0.5 0.5 0.5 0.5 0.5 0.5 0.5 0.5 0.5 0.5 0.5 0.5 0.5 0.5 0.5 0.5 0.5 0.5 0.5 0.5 0.5 0.5 0.5 0.5 0.5 0.5 0.5 0.5 0.5 0.5 0.5 0.5 0.5 0.5 0.5 0.5 0.5 0.5 0.5 0.5 0.5 0.5 0.5 0.5 0.5 0.5 0.5 0.5 0.5 0.5 0.5 0.5 0.5 0.5 0.5 0.5 0.5 0.5 0.5 0.5 0.5 0.5 0.5 0.5 0.5 0.5 0.5 0.5 0.5 0.5 0.5 0.5 0.5 0.5 0.5 0.5 0.5 0.5 0.5 0.5 0.5 0.5 0.5 0.5 0.5 0.5 0.5 0.5 0.5 0.5 0.5 0.5 0.5 0.5 0.5 0.50003 0.49997 0.5 0.5 0.5 0.5 0.5 0.5 0.5 0.5 0.5 0.5 0.5 0.5 0.5 0.5 0.5 0.5 0.5 0.5 0.5 0.5 0.5 0.5 0.5 0.5 0.5 0.5 0.5 0.5 0.5 0.5 0.5 0.5 0.5 0.5 0.5 0.5 0.5 0.5 0.50003 0.49997 0.5 0.5 0.5 0.5 0.5 0.5 0.5 0.5 0.5 0.5 0.5 0.5 0.5 0.5 0.5 0.5 0.5 0.5 0.5 0.5 0.5 0.5 0.5 0.5 0.5 0.5 0.5 0.5 0.5 0.5 0.5 0.5 0.5 0.5 0.5 0.5 0.5 0.5 0.5 0.50003 0.49997 0.5 0.5 0.5 0.5 0.5 0.5 0.5 0.5 0.5 0.5 0.5 0.5 0.5 0.5 0.5 0.5 0.5 0.5 0.5 0.5 0.5 0.5 0.5 0.5 0.5 0.5 0.5 0.5 0.5 0.5 0.5 0.5 0.5 0.5 0.5 0.5 0.5 0.5 0.50003 0.49997 0.5 0.5 0.5 0.5 0.5 0.5 0.5 0.5 0.5 0.5 0.5 0.5 0.5 0.5 0.5 0.5 0.5 0.5 0.5 0.5 0.5 0.5 0.5 0.5 0.5 0.5 0.5 0.5 0.5 0.5 0.5 0.5 0.5 0.5 0.5 0.5 0.5 0.5 0.5 0.50003 0.49997 0.5 0.5 0.5 0.5 0.5 0.5 0.5 0.5 0.5 0.5 0.5 0.5 0.5 0.5 0.5 0.5 0.5 0.5 0.5 0.5 0.5 0.5 0.5 0.5 0.5 0.5 0.5 0.5 0.5 0.5 0.5 0.5 0.5 0.5 0.5 0.5 0.5 0.5 0.5 0.5 0.5 0.5 0.5 0.5 0.5 0.5 0.5 0.5 0.5 0.5 0.5 0.5 0.5 0.5 0.5 0.5 0.5 0.5 0.5 0.5 0.5 0.5 0.5 0.5 0.5 0.5 0.5 0.5 0.5 0.5 0.5 l -0.48102,0.019 h -0.5 -0.5 -0.5 -0.5 -0.5 -0.5 -0.5 -0.5 -0.5 -0.5 -0.5 -0.5 -0.5 -0.5 -0.5 -0.5 -0.5 -0.5 -0.5 -0.5 -0.5 -0.5 -0.5 -0.5 -0.5 -0.5 -0.5 -0.5 -0.5 -0.5 -0.5 -0.5 -0.5 -0.5 -0.5 -0.5 -0.5 -0.5 -0.5 -0.5 -0.5 -0.5 -0.5 -0.5 -0.5 -0.5 -0.5 -0.5 -0.5 -0.5 -0.5 -0.5 -0.5 -0.5 -0.5 -0.5 -0.5 -0.5 -0.5 -0.5 -0.5 -0.5 -0.5 -0.5 -0.5 -0.5 -0.5 -0.5 -0.5 -0.5 -0.5 -0.5 -0.5 -0.5 -0.5 -0.5 -0.5 -0.5 -0.5 -0.5 -0.5 -0.5 -0.5 -0.5 -0.5 -0.5 -0.5 -0.5 -0.5 -0.5 -0.5 -0.5 -0.5 -0.5 -0.5 -0.5 -0.5 -0.5 -0.5 -0.5 -0.5 -0.5 -0.5 -0.5 -0.5 -0.5 -0.5 -0.5 -0.5 -0.5 -0.5 -0.5 -0.5 -0.5 -0.5 -0.5 -0.5 -0.5 -0.5 -0.5 -0.5 -0.5 -0.5 -0.5 -0.5 -0.5 -0.5 -0.5 -0.5 -0.5 -0.5 -0.5 -0.5 -0.5 -0.5 -0.5 -0.5 -0.5 -0.5 -0.5 -0.5 -0.5 -0.5 -0.5 -0.5 -0.5 -0.5 -0.5 -0.5 -0.5 -0.5 -0.5 -0.5 -0.5 -0.5 -0.5 -0.5 -0.5 -0.5 -0.5 -0.5 -0.5 -0.5 -0.5 -0.5 -0.5 -0.5 -0.5 -0.5 -0.5 -0.5 -0.5 -0.5 -0.5 -0.5 -0.5 -0.5 -0.5 -0.5 -0.5 -0.5 -0.5 -0.5 -0.5 -0.5 -0.5 -0.5 -0.5 -0.5 -0.5 -0.5 -0.5 -0.5 -0.5 -0.5 -0.5 -0.5 -0.5 -0.5 -0.5 -0.5 -0.5 -0.5 -0.5 -0.5 -0.5 -0.5 -0.5 -0.5 -0.5 -0.5 -0.5 -0.5 -0.5 -0.5 -0.5 -0.5 -0.5 -0.5 -0.5 -0.5 -0.5 -0.5 -0.5 -0.5 -0.5 -0.5 -0.5 -0.5 -0.5 -0.5 -0.5 -0.5 -0.5 -0.5 -0.5 -0.5 -0.5 -0.5 -0.5 -0.5 -0.5 -0.5 -0.5 -0.5 -0.5 -0.5 -0.5 -0.5 -0.5 -0.5 -0.5 -0.5 -0.5 -0.5 -0.5 -0.5 -0.5 -0.5 -0.5 -0.5 -0.5 -0.5 -0.5 -0.5 -0.5 -0.5 -0.5 -0.5 -0.5 -0.5 -0.5 -0.5 -0.5 -0.5 -0.5 -0.5 -0.5 -0.5 -0.5 -0.5 -0.5 -0.5 -0.5 -0.5 -0.5 -0.5 -0.5 -0.5 -0.5 -0.5 -0.5 -0.5 -0.5 -0.5 -0.5 -0.5 -0.5 -0.5 -0.5 -0.5 -0.5 -0.5 -0.5 -0.5 -0.5 -0.5 -0.5 -0.5 -0.5 -0.5 -0.5 -0.5 -0.5 -0.5 -0.5 -0.5 -0.5 -0.5 -0.5 -0.5 -0.5 -0.5 -0.5 -0.5 -0.5 -0.5 -0.5 -0.5 -0.5 -0.5 -0.5 -0.5 -0.5 -0.5 -0.5 -0.5 -0.5 -0.5 -0.5 -0.5 -0.5 -0.5 -0.5 -0.5 -0.5 -0.5 -0.5 -0.5 -0.5 -0.5 -0.5 -0.5 -0.5 -0.5 -0.5 -0.5 -0.5 -0.5 -0.5 -0.5 -0.5 -0.5 -0.5 -0.5 -0.5 -0.5 -0.5 -0.5 -0.5 -0.5 -0.5 -0.5 -0.5 -0.5 -0.5 -0.5 -0.5 -0.5 -0.5 -0.5 -0.5 -0.5 -0.5 -0.5 -0.5 -0.5 -0.5 -0.5 -0.5 -0.5 -0.5 -0.5 -0.5 -0.5 -0.5 -0.5 -0.5 -0.5 -0.5 -0.5 -0.5 -0.5 -0.5 -0.5 -0.5 -0.5 -0.5 -0.5 -0.5 -0.5 -0.5 -0.5 -0.5 -0.5 -0.5 -0.5 -0.5 -0.5 -0.5 -0.5 -0.5 -0.5 -0.5 -0.5 -0.5 -0.5 -0.5 -0.5 -0.5 -0.5 -0.5 -0.5 -0.5 -0.5 -0.5 -0.5 -0.5 -0.5 -0.5 -0.5 -0.5 -0.5 -0.5 -0.5 -0.5 -0.5 -0.5 -0.5 -0.5 -0.5 -0.5 -0.5 -0.5 -0.5 -0.5 -0.5 -0.5 -0.5 -0.5 -0.5 -0.5 -0.5 -0.5 -0.5 -0.5 -0.5 -0.5 -0.5 -0.5 -0.5 -0.5 -0.5 -0.5 -0.5 -0.5 -0.5 -0.5 -0.5 -0.5 -0.5 -0.5 -0.5 -0.5 -0.5 -0.5 -0.5 -0.5 -0.5 -0.5 -0.5 -0.5 -0.5 -0.5 -0.5 -0.5 -0.5 -0.5 -0.5 -0.5 -0.5 -0.5 -0.5 -0.5 -0.5 -0.5 -0.5 -0.5 -0.5 -0.5 -0.5 -0.5 -0.5 -0.5 -0.5 -0.5 -0.5 -0.5 -0.5 -0.5 -0.5 -0.5 -0.5 -0.5 -0.5 -0.5 -0.5 -0.5 -0.5 -0.5 -0.5 -0.5 -0.5 -0.5 -0.5 -0.5 -0.5 -0.5 -0.5 -0.5 -0.5 -0.5 -0.5 l -0.27801,-0.22198 v -0.5 -0.5 -0.5 -0.5 -0.5 -0.5 -0.5 -0.5 -0.5 -0.5 -0.5 -0.5 -0.5 -0.5 -0.5 -0.5 -0.5 -0.5 -0.5 -0.5 -0.5 -0.5 -0.5 -0.5 -0.5 -0.5 -0.5 -0.5 -0.5 -0.5 -0.5 -0.5 -0.5 -0.5 -0.5 -0.5 -0.5 -0.5 -0.5 -0.5 -0.5 -0.5 -0.5 -0.5 -0.5 -0.5 -0.5 -0.5 -0.5 -0.5 -0.5 -0.5 -0.5 -0.5 -0.5 -0.5 -0.5 -0.5 -0.5 -0.5 -0.5 -0.5 -0.5 -0.5 -0.5 -0.5 -0.5 -0.5 -0.5 -0.5 -0.5 -0.5 -0.5 -0.5 -0.5 -0.5 -0.5 -0.5 -0.5 -0.5 -0.5 -0.5 -0.5 -0.5 -0.5 -0.5 -0.5 -0.5 -0.5 -0.5 -0.5 -0.5 -0.5 -0.5 -0.5 -0.5 -0.5 -0.5 -0.5 -0.5 -0.5 -0.5 -0.5 -0.5 -0.5 -0.5 -0.5 -0.5 -0.5 -0.5 -0.5 -0.5 -0.5 -0.5 -0.5 -0.5 -0.5 -0.5 -0.5 -0.5 -0.5 -0.5 -0.5 -0.5 -0.5 -0.5 -0.5 -0.5 -0.5 -0.5 -0.5 -0.5 -0.5 -0.5 -0.5 -0.5 -0.5 -0.5 -0.5 -0.5 -0.5 -0.5 -0.5 -0.5 -0.5 -0.5 -0.5 -0.5 -0.5 -0.5 -0.5 -0.5 -0.5 -0.5 -0.5 -0.5 -0.5 -0.5 -0.5 -0.5 -0.5 -0.5 -0.5 -0.5 -0.5 -0.5 -0.5 -0.5 -0.5 -0.5 -0.5 -0.5 -0.5 -0.5 -0.5 -0.5 -0.5 -0.5 -0.5 -0.5 -0.5 -0.5 -0.5 -0.5 -0.5 -0.5 -0.5 -0.5 -0.5 -0.5 -0.5 -0.5 -0.5 -0.5 -0.5 -0.5 -0.5 -0.5 -0.5 -0.5 -0.5 -0.5 -0.5 -0.5 -0.5 -0.5 -0.5 -0.5 -0.5 -0.5 -0.5 -0.5 -0.5 -0.5 -0.5 -0.5 -0.5 -0.5 -0.5 -0.5 -0.5 -0.5 -0.5 -0.5 -0.5 -0.5 -0.5 -0.5 -0.5 -0.5 -0.5 -0.5 -0.5 -0.5 -0.5 -0.5 -0.5 -0.5 -0.5 -0.5 -0.5 -0.5 -0.5 -0.5 -0.5 -0.5 -0.5 -0.5 -0.5 -0.5 -0.5 -0.5 -0.5 -0.5 -0.5 -0.5 -0.5 -0.5 -0.5 -0.5 -0.5 -0.5 -0.5 -0.5 -0.5 -0.5 -0.5 -0.5 -0.5 -0.5 -0.5 -0.5 -0.5 -0.5 -0.5 -0.5 -0.5 -0.5 -0.5 -0.5 -0.5 -0.5 -0.5 -0.5 -0.5 -0.5 -0.5 -0.5 -0.5 -0.5 -0.5 -0.5 -0.5 -0.5 -0.5 -0.5 -0.5 -0.5 -0.5 -0.5 -0.5 -0.5 -0.5 -0.5 -0.5 -0.5 -0.5 -0.5 -0.5 -0.5 -0.5 -0.5 -0.5 -0.5 -0.5 -0.5 -0.5 -0.5 -0.5 -0.5 -0.5 -0.5 -0.5 -0.5 -0.5 -0.5 -0.5 -0.5 -0.5 -0.5 -0.5 -0.5 -0.5 -0.5 -0.5 -0.5 -0.5 -0.5 -0.5 -0.5 -0.5 -0.5 -0.5 -0.5 -0.5 -0.5 -0.5 -0.5 -0.5 -0.5 -0.5 -0.5 -0.5 -0.5 -0.5 -0.5 -0.5 -0.5 -0.5 -0.5 -0.5 -0.5 -0.5 -0.5 -0.5 -0.5 -0.5 -0.5 -0.5 -0.5 -0.5 -0.5 -0.5 -0.5 -0.5 -0.5 -0.5 -0.49999 -0.50003 -0.49998 -0.5 -0.5 -0.5 -0.5 -0.5 -0.5 -0.5 -0.5 -0.5 -0.5 -0.5 -0.5 -0.5 -0.5 -0.5 -0.5 -0.5 -0.5 -0.5 -0.5 -0.5 -0.5 -0.5 -0.5 -0.5 -0.5 -0.5 -0.5 -0.5 -0.5 -0.5 -0.5 -0.5 -0.5 -0.5 -0.5 -0.5 -0.49999 -0.50003 -0.5 -0.49998 -0.5 -0.5 -0.5 -0.5 -0.5 -0.5 -0.5 -0.5 -0.5 -0.5 -0.5 -0.5 -0.5 -0.5 -0.5 -0.5 -0.5 -0.5 -0.5 -0.5 -0.5 -0.5 -0.5 -0.5 -0.5 -0.5 -0.5 -0.5 -0.5 -0.5 -0.5 -0.5 -0.5 -0.5 -0.5 -0.5 -0.5 -0.49999 -0.50003 -0.49998 -0.5 -0.5 -0.5 -0.5 -0.5 -0.5 -0.5 -0.5 -0.5 -0.5 -0.5 -0.5 -0.5 -0.5 -0.5 -0.5 -0.5 -0.5 -0.5 -0.5 -0.5 -0.5 -0.5 -0.5 -0.5 -0.5 -0.5 -0.5 -0.5 -0.5 -0.5 -0.5 -0.5 -0.5 -0.5 -0.5 -0.5 -0.49999 -0.50003 -0.5 -0.49998 -0.5 -0.5 -0.5 -0.5 -0.5 -0.5 -0.5 -0.5 -0.5 -0.5 -0.5 -0.5 -0.5 -0.5 -0.5 -0.5 -0.5 -0.5 -0.5 -0.5 -0.5 -0.5 -0.5 -0.5 -0.5 -0.5 -0.5 -0.5 -0.5 -0.5 -0.5 -0.5 -0.5 -0.5 -0.5 -0.5 -0.5 -0.5 -0.5 -0.5 -0.5 -0.5 -0.038 2e-5 z"
       style="fill:#000000;fill-opacity:0;fill-rule:nonzero;stroke:#000000;stroke-width:3;stroke-linecap:round;stroke-linejoin:round;stroke-miterlimit:10;stroke-dasharray:none;stroke-opacity:1"
       transform="matrix(0.32012799,1.8960767e-4,-1.8960767e-4,0.32012799,0.05578451,-0.12304)" />
    <path
       id="path2"
       d="M 511.92505,428.745 782.42053,159.92766"
       style="fill:#ffffff;fill-opacity:0;fill-rule:nonzero;stroke:#000000;stroke-width:3;stroke-linecap:round;stroke-linejoin:round;stroke-miterlimit:10;stroke-dasharray:none;stroke-opacity:1"
       transform="matrix(0.32012804,0,0,0.32012804,0,-2.4e-4)" />
    <path
       id="path3"
       d="m 632.5119,152.72621 0.45679,0.84531 0.61755,0.79068 0.7201,0.69217 0.77978,0.70842 0.7594,0.73747 0.7663,0.65294 0.87439,0.74775 0.85858,0.64126 -0.30554,0.54971 -0.65754,0.77386 -0.65899,0.76021 -0.60321,0.88307 -0.66791,0.97023 -0.52081,0.90393 -0.50287,1.02065 -0.47315,0.96848 -0.21032,0.42074"
       style="fill:#ffffff;fill-opacity:0;fill-rule:nonzero;stroke:#000000;stroke-width:1.41056;stroke-linecap:round;stroke-linejoin:round;stroke-miterlimit:10;stroke-dasharray:none;stroke-opacity:1"
       transform="matrix(0.32012804,0,0,0.32012804,0,-2.4e-4)" />
    <path
       id="path4"
       d="m 511.05383,284.7742 -0.58163,0.83939 -0.60001,1.00525 -0.5892,1.05337 -0.52225,0.92316 -0.54046,1.01623 -0.53482,0.93882 -0.51062,0.93237 -0.58268,1.07919 -0.56329,1.03064 -0.47394,0.94129 -0.42566,0.92211 -0.42499,0.98191 -0.16061,0.45163"
       style="fill:#ffffff;fill-opacity:0;fill-rule:nonzero;stroke:#000000;stroke-width:1.53133;stroke-linecap:round;stroke-linejoin:round;stroke-miterlimit:10;stroke-dasharray:none;stroke-opacity:1"
       transform="matrix(0.32012804,0,0,0.32012804,0,-2.4e-4)" />
    <path
       id="path5"
       d="m 511.00458,284.65094 0.73147,0.77704 0.66159,0.89084 0.60065,0.82446 0.76941,0.98431 0.77686,0.91382 0.82879,0.86972 0.96167,0.93137 0.82392,0.72433 1.07336,0.85752 1.9425,1.39782"
       style="fill:#ffffff;fill-opacity:0;fill-rule:nonzero;stroke:#000000;stroke-width:1.41671;stroke-linecap:round;stroke-linejoin:round;stroke-miterlimit:10;stroke-dasharray:none;stroke-opacity:1"
       transform="matrix(0.32012804,0,0,0.32012804,0,-2.4e-4)" />
    <path
       id="path6"
       d="m 637.66394,291.97311 1.20197,0.22651 1.17407,-0.18488 1.04272,-0.30307 1.29346,-0.47971 1.4342,-0.5502 1.11701,-0.45813 1.00909,-0.40948 1.0008,-0.40405 0.99749,-0.37684 0.98566,-0.35537 1.37537,-0.47748 1.12048,-0.36197 1.00983,-0.2919 1.03131,-0.27481 1.17914,-0.27924"
       style="fill:#ffffff;fill-opacity:0;fill-rule:nonzero;stroke:#000000;stroke-width:1.44594;stroke-linecap:round;stroke-linejoin:round;stroke-miterlimit:10;stroke-dasharray:none;stroke-opacity:1"
       transform="matrix(0.32012804,0,0,0.32012804,0,-2.4e-4)" />
    <path
       id="path7"
       d="m 654.82135,286.99307 -0.0512,1.15036 -0.0954,1.05966 -0.12255,1.30103 -0.0956,1.15656 -0.13044,1.3829 -0.15283,1.36658 -0.12524,1.43258 -0.088,1.41352 -0.0647,1.3594 -0.0602,1.98636"
       style="fill:#ffffff;fill-opacity:0;fill-rule:nonzero;stroke:#000000;stroke-width:1.45441;stroke-linecap:round;stroke-linejoin:round;stroke-miterlimit:10;stroke-dasharray:none;stroke-opacity:1"
       transform="matrix(0.32012804,0,0,0.32012804,0,-2.4e-4)" />
    <path
       id="path8"
       d="m 641.18909,423.65103 0.01,0.94351 0.58942,0.96491 0.88824,0.95044 0.94055,0.80679 0.85877,0.61466 0.89886,0.51733 1.20056,0.56531 0.93561,0.46924 1.00403,0.47378 0.90631,0.57724 -0.20575,0.78043 -0.81518,0.83056 -0.75348,0.74594 -0.9588,0.85733 -0.89509,0.82728 -0.81567,0.74075 -0.86188,0.88507 -0.48828,0.64139"
       style="fill:#ffffff;fill-opacity:0;fill-rule:nonzero;stroke:#000000;stroke-width:1.45133;stroke-linecap:round;stroke-linejoin:round;stroke-miterlimit:10;stroke-dasharray:none;stroke-opacity:1"
       transform="matrix(0.32012804,0,0,0.32012804,0,-2.4e-4)" />
    <path
       id="path9"
       d="m 782.93524,291.30753 -0.79468,1.08013 -0.49414,0.90299 -0.51648,0.9245 -0.64148,1.08142 -0.60559,1.00281 -0.51275,1.0195 -0.54346,0.98633 -0.44122,1.0137 -0.35694,0.96002 -0.17895,1.1087 0.0814,0.25007"
       style="fill:#ffffff;fill-opacity:0;fill-rule:nonzero;stroke:#000000;stroke-width:1.47902;stroke-linecap:round;stroke-linejoin:round;stroke-miterlimit:10;stroke-dasharray:none;stroke-opacity:1"
       transform="matrix(0.32012804,0,0,0.32012804,0,-2.4e-4)" />
    <path
       id="path10"
       d="m 783.52673,290.51865 1.0528,0.0859 1.07733,0.56192 0.8963,0.53531 0.85083,0.59815 0.8382,0.58127 0.84747,0.55804 0.85773,0.58997 0.85144,0.59677 0.88086,0.60052 1.09155,0.716"
       style="fill:#ffffff;fill-opacity:0;fill-rule:nonzero;stroke:#000000;stroke-width:1.45671;stroke-linecap:round;stroke-linejoin:round;stroke-miterlimit:10;stroke-dasharray:none;stroke-opacity:1"
       transform="matrix(0.32012804,0,0,0.32012804,0,-2.4e-4)" />
    <path
       id="path11"
       d="m 3.1877344,0.11760275 c 1.921875,0 2.8242187,-0.9283809 3.2109375,-2.78514265 l 0.5039062,-2.467848 c 0.2226563,-1.0458975 0.3398438,-1.269179 1.2304688,-1.269179 l 0.046875,-0.3172947 H 5.6838281 l -0.058594,0.3172947 c 0.5976562,0 0.796875,0.105765 0.796875,0.5288246 0,0.1762749 -0.035156,0.4348113 -0.1054688,0.7756094 l -0.5273437,2.5736128 c -0.28125,1.4101989 -0.890625,2.00953337 -2.2265625,2.00953337 -1.1367188,0 -1.5351563,-0.41130799 -1.5351563,-1.28093057 0,-0.1997782 0.023437,-0.4935696 0.09375,-0.7638577 l 0.5976563,-2.9026593 c 0.1523437,-0.7638577 0.328125,-0.9401326 1.1835937,-0.9401326 l 0.058594,-0.3172947 H 1.0314844 l -0.0585938,0.3172947 c 0.6328125,0 0.8671875,0.105765 0.8671875,0.5053213 0,0.1057649 -0.023437,0.2350331 -0.046875,0.3878047 l -0.6210937,2.9614175 c -0.070312,0.3290464 -0.1054688,0.6345895 -0.1054688,0.9166293 0,1.21042063 0.6328125,1.75099685 2.1210938,1.75099685 z m 0,0"
       style="fill:#000000;fill-opacity:1;fill-rule:nonzero;stroke:none"
       aria-label="U"
       transform="matrix(1.3333333,0,0,1.3295997,182.82,78.550667)" />
    <path
       id="path12"
       d="M 5.4830469,-9.2464736e-4 6.1744531,-2.2341831 h -0.375 c -0.703125,1.33995507 -0.9492187,1.81011474 -2.390625,1.81011474 H 2.8697656 c -0.6796875,0 -0.84375,-0.11753992 -0.7382812,-0.61120754 l 1.03125,-5.1364945 c 0.1757812,-0.8227794 0.5390625,-0.9873353 1.359375,-0.9873353 l 0.058594,-0.3526198 h -3.246094 l -0.058594,0.3526198 c 0.9726563,0 1.03125,0.2233258 0.8671875,0.9755813 l -0.984375,4.7721207 c -0.18749997,0.91681139 -0.37499997,1.08136728 -1.25390622,1.08136728 l -0.0703125,0.32911177264 z m 0,0"
       style="fill:#000000;fill-opacity:1;fill-rule:nonzero;stroke:none"
       aria-label="L"
       transform="matrix(1.3333333,0,0,1.3293356,218.85333,119.27467)" />
    <path
       id="path13"
       d="m 1.5715703,0.09331539 c 1.3945313,0 2.1796875,-1.23308779 2.1796875,-2.56012519 0,-0.9629829 -0.4804687,-1.4092432 -1.1015625,-1.4092432 -0.4101562,0 -0.7617187,0.2348739 -1.0898437,0.6224157 h -0.035156 l 0.515625,-2.4544319 H 1.8645391 l -1.12500004,0.082206 v 0.2113864 c 0,0 0.15234375,-0.011744 0.24609375,-0.011744 0.16406249,0 0.29296879,0.058718 0.29296879,0.2348738 0,0.09395 -0.023437,0.2466176 -0.035156,0.2818487 L 0.28250781,-0.20027695 C 0.68094531,-6.3415945e-4 1.1028203,0.09331539 1.5715703,0.09331539 Z m 0.1054688,-0.34056711 c -0.328125,0 -0.5625,-0.1878991 -0.6679688,-0.29359234 L 1.4075078,-2.5607593 c 0.1640625,-0.3757982 0.5039063,-0.8690334 0.9960938,-0.8690334 0.3515625,0 0.6328125,0.270105 0.6328125,0.998214 0,1.2330878 -0.4335938,2.18432698 -1.359375,2.18432698 z m 0,0"
       style="fill:#000000;fill-opacity:1;fill-rule:nonzero;stroke:none"
       aria-label="b"
       transform="matrix(1.3333333,0,0,1.3305013,258.65067,94.536)" />
    <path
       id="path14"
       d="m 1.5696875,0.09492914 c 1.3945313,0 2.1796875,-1.23310014 2.1796875,-2.56015074 0,-0.9629924 -0.4804687,-1.4092572 -1.1015625,-1.4092572 -0.4101562,0 -0.7617187,0.2348762 -1.0898437,0.6224219 h -0.035156 l 0.515625,-2.4544564 H 1.8626563 l -1.12500005,0.082207 v 0.2113886 c 0,0 0.15234375,-0.011744 0.24609375,-0.011744 0.1640625,0 0.2929688,0.058719 0.2929688,0.2348762 0,0.093951 -0.023437,0.24662 -0.035156,0.2818514 L 0.280625,-0.19866613 C 0.6790625,9.7865088e-4 1.1009375,0.09492914 1.5696875,0.09492914 Z m 0.1054688,-0.34057051 c -0.328125,0 -0.5625,-0.18790097 -0.6679688,-0.29359527 L 1.405625,-2.5591721 C 1.5696875,-2.934974 1.9095313,-3.428214 2.4017188,-3.428214 c 0.3515625,0 0.6328125,0.2701076 0.6328125,0.9982239 0,1.2331001 -0.4335938,2.18434873 -1.359375,2.18434873 z m 0,0"
       style="fill:#000000;fill-opacity:1;fill-rule:nonzero;stroke:none"
       aria-label="b"
       transform="matrix(1.3333333,0,0,1.3304881,151.31333,96.666667)" />
    <path
       id="path15"
       d="m 1.1006328,0.08364608 c 0.3984375,0 0.7617188,-0.23485094 1.125,-0.69281027 h 0.035156 c -0.011719,0.11742547 -0.035156,0.24659348 -0.035156,0.35227641 0,0.23485093 0.1289063,0.34053386 0.3867188,0.34053386 0.4453125,0 0.7382812,-0.35227641 1.0195312,-0.7750081 l -0.140625,-0.10568292 c -0.09375,0.11742547 -0.2929687,0.3757615 -0.515625,0.3757615 -0.1171875,0 -0.1523437,-0.0587127 -0.1523437,-0.15265311 0,-0.10568292 0.046875,-0.27007858 0.046875,-0.27007858 L 3.3975078,-3.3921478 H 3.0342266 L 2.7764141,-3.0633565 H 2.7529766 C 2.6006328,-3.2747223 2.4014141,-3.439118 2.0264141,-3.439118 c -0.9257813,0 -1.81640629,1.0333441 -1.81640629,2.3132817 0,0.85720597 0.3984375,1.20948238 0.89062499,1.20948238 z M 1.3584453,-0.3860558 c -0.3046875,0 -0.50390624,-0.18788075 -0.50390624,-0.8337208 0,-0.9746314 0.46875004,-1.9492628 1.12500004,-1.9492628 0.3984375,0 0.609375,0.3405338 0.609375,0.6575826 0,0.2700786 -0.1523438,0.9276612 -0.234375,1.2094823 -0.1289063,0.52841465 -0.5625,0.9159187 -0.9960938,0.9159187 z m 0,0"
       style="fill:#000000;fill-opacity:1;fill-rule:nonzero;stroke:none"
       aria-label="a"
       transform="matrix(1.3333333,0,0,1.3306313,201.49733,44.806667)" />
    <path
       id="path16"
       d="m 1.1011563,0.08079053 c 0.3984375,0 0.7617187,-0.23485619 1.125,-0.69282577 h 0.035156 c -0.011719,0.11742809 -0.035156,0.246599 -0.035156,0.35228429 0,0.23485619 0.1289062,0.34054148 0.3867187,0.34054148 0.4453125,0 0.7382813,-0.35228429 1.0195313,-0.77502544 L 3.4917813,-0.7999202 c -0.09375,0.1174281 -0.2929688,0.37576991 -0.515625,0.37576991 -0.1171875,0 -0.1523438,-0.0587141 -0.1523438,-0.15265652 0,-0.10568529 0.046875,-0.27008463 0.046875,-0.27008463 L 3.3980313,-3.3950812 H 3.03475 L 2.7769375,-3.0662825 H 2.7535 C 2.6011563,-3.2776531 2.4019375,-3.4420524 2.0269375,-3.4420524 c -0.9257812,0 -1.81640625,1.0333673 -1.81640625,2.3133335 0,0.85722514 0.3984375,1.20950943 0.89062505,1.20950943 z m 0.2578125,-0.46971239 c -0.3046875,0 -0.5039063,-0.18788495 -0.5039063,-0.83373944 0,-0.9746533 0.46875,-1.9493065 1.125,-1.9493065 0.3984375,0 0.609375,0.3405415 0.609375,0.6575974 0,0.2700846 -0.1523437,0.9276819 -0.234375,1.2095094 -0.1289062,0.52842642 -0.5625,0.91593914 -0.9960937,0.91593914 z m 0,0"
       style="fill:#000000;fill-opacity:1;fill-rule:nonzero;stroke:none"
       aria-label="a"
       transform="matrix(1.3333333,0,0,1.3306015,204.07867,147.58)" />
    <path
       id="path17"
       d="M 1.6294766,0.03578905 4.1841641,-3.6183134 c 0.421875,-0.6344744 0.5625,-0.7519696 0.9375,-0.7519696 l 0.011719,-0.2114915 h -1.5 l -0.011719,0.2114915 c 0.3164062,0 0.421875,0.046998 0.421875,0.1879924 0,0.1057457 -0.09375,0.2702391 -0.2226563,0.4582315 l -1.5,2.2441594 -0.3984375,0.61097529 H 1.8872891 L 1.8404141,-1.6913912 1.6294766,-3.677061 c 0,-0.046998 -0.023437,-0.199742 -0.023437,-0.2467401 -0.023437,-0.3172372 0.1992187,-0.4464819 0.5625,-0.4464819 l 0.023437,-0.2114915 H 0.48103906 l -0.0117188,0.2114915 c 0.36328125,0 0.48046875,0.1644933 0.53906244,0.6344743 l 0.3867188,3.77159775 z m 0,0"
       style="fill:#000000;fill-opacity:1;fill-rule:nonzero;stroke:none"
       aria-label="V"
       transform="matrix(1.3333333,0,0,1.3298409,252.24533,144.136)" />
    <path
       id="path18"
       d="M 1.6294766,0.03524861 4.1841641,-3.6188575 c 0.421875,-0.634475 0.5625,-0.7519704 0.9375,-0.7519704 l 0.011719,-0.2114917 h -1.5 l -0.011719,0.2114917 c 0.3164062,0 0.421875,0.046998 0.421875,0.1879926 0,0.1057458 -0.09375,0.2702393 -0.2226563,0.4582319 l -1.5,2.2441617 -0.3984375,0.61097593 H 1.8872891 L 1.8404141,-1.6919334 1.6294766,-3.6776052 c 0,-0.046998 -0.023437,-0.1997421 -0.023437,-0.2467403 -0.023437,-0.3172375 0.1992187,-0.4464824 0.5625,-0.4464824 l 0.023437,-0.2114917 H 0.48103906 l -0.0117188,0.2114917 c 0.36328125,0 0.48046875,0.1644935 0.53906244,0.634475 l 0.3867188,3.77160151 z m 0,0"
       style="fill:#000000;fill-opacity:1;fill-rule:nonzero;stroke:none"
       aria-label="V"
       transform="matrix(1.3333333,0,0,1.3298396,252.24533,50.5)" />
    <path
       id="path19"
       d="M 1.6288672,0.03578905 4.1835547,-3.6183134 c 0.421875,-0.6344744 0.5625,-0.7519696 0.9375,-0.7519696 l 0.011719,-0.2114915 h -1.5 l -0.011719,0.2114915 c 0.3164062,0 0.421875,0.046998 0.421875,0.1879924 0,0.1057457 -0.09375,0.2702391 -0.2226563,0.4582315 l -1.5,2.2441594 -0.3984375,0.61097529 H 1.8866797 L 1.8398047,-1.6913912 1.6288672,-3.677061 c 0,-0.046998 -0.023437,-0.199742 -0.023437,-0.2467401 -0.023437,-0.3172372 0.1992187,-0.4464819 0.5625,-0.4464819 l 0.023437,-0.2114915 H 0.48042969 l -0.0117188,0.2114915 c 0.36328125,0 0.48046875,0.1644933 0.53906251,0.6344743 l 0.3867187,3.77159775 z m 0,0"
       style="fill:#000000;fill-opacity:1;fill-rule:nonzero;stroke:none"
       aria-label="V"
       transform="matrix(1.3333333,0,0,1.3298409,155.61333,144.136)" />
    <path
       id="path20"
       d="M 1.6288672,0.03524861 4.1835547,-3.6188575 c 0.421875,-0.634475 0.5625,-0.7519704 0.9375,-0.7519704 l 0.011719,-0.2114917 h -1.5 l -0.011719,0.2114917 c 0.3164062,0 0.421875,0.046998 0.421875,0.1879926 0,0.1057458 -0.09375,0.2702393 -0.2226563,0.4582319 l -1.5,2.2441617 -0.3984375,0.61097593 H 1.8866797 L 1.8398047,-1.6919334 1.6288672,-3.6776052 c 0,-0.046998 -0.023437,-0.1997421 -0.023437,-0.2467403 -0.023437,-0.3172375 0.1992187,-0.4464824 0.5625,-0.4464824 l 0.023437,-0.2114917 H 0.48042969 l -0.0117188,0.2114917 c 0.36328125,0 0.48046875,0.1644935 0.53906251,0.634475 l 0.3867187,3.77160151 z m 0,0"
       style="fill:#000000;fill-opacity:1;fill-rule:nonzero;stroke:none"
       aria-label="V"
       transform="matrix(1.3333333,0,0,1.3298396,155.61333,50.5)" />
    <path
       id="path21"
       d="m 1.3133203,0.10696005 c 0.65625,0 1.1015625,-0.43524325 1.3945313,-0.88224982 L 2.5906641,-0.88115975 c -0.2226563,0.27055661 -0.5039063,0.48229657 -0.9726563,0.48229657 -0.5390625,0 -0.78515624,-0.28231994 -0.78515624,-0.91753982 0,-0.8469598 0.43359374,-1.8938963 1.19531254,-1.8938963 0.2226562,0 0.3515625,0.082343 0.3515625,0.1882133 0,0.1176333 -0.140625,0.31761 -0.140625,0.5058233 0,0.1646866 0.1054687,0.2587932 0.2695312,0.2587932 0.2695313,0 0.4101563,-0.2352666 0.4101563,-0.5175865 0,-0.4705333 -0.375,-0.6705099 -0.8203125,-0.6705099 -1.0078125,0 -1.86328129,1.0234098 -1.86328129,2.2467962 0,0.78814319 0.375,1.30572975 1.07812499,1.30572975 z m 0,0"
       style="fill:#000000;fill-opacity:1;fill-rule:nonzero;stroke:none"
       aria-label="c"
       transform="matrix(1.3333333,0,0,1.3282802,201.12,90.549333)" />
  </g>
</svg>
