<?xml version="1.0" encoding="UTF-8" standalone="no"?>
<!-- Created with Inkscape (http://www.inkscape.org/) -->

<svg
   version="1.1"
   id="svg1"
   width="337.49219"
   height="89.609375"
   viewBox="0 0 337.49218 89.609375"
   sodipodi:docname="Draft.pdf"
   xmlns:inkscape="http://www.inkscape.org/namespaces/inkscape"
   xmlns:sodipodi="http://sodipodi.sourceforge.net/DTD/sodipodi-0.dtd"
   xmlns="http://www.w3.org/2000/svg"
   xmlns:svg="http://www.w3.org/2000/svg">
  <defs
     id="defs1" />
  <sodipodi:namedview
     id="namedview1"
     pagecolor="#ffffff"
     bordercolor="#000000"
     borderopacity="0.25"
     inkscape:showpageshadow="2"
     inkscape:pageopacity="0.0"
     inkscape:pagecheckerboard="0"
     inkscape:deskcolor="#d1d1d1">
    <inkscape:page
       x="-6.1835938"
       y="-3.4648435"
       inkscape:label="1"
       id="page1"
       width="347.08801"
       height="97.767998"
       margin="0"
       bleed="0" />
  </sodipodi:namedview>
  <g
     id="g1"
     inkscape:groupmode="layer"
     inkscape:label="1"
     transform="translate(-6.1835938,-3.4648436)">
    <g
       id="g2"
       aria-label="CS"
       transform="matrix(1.3333333,0,0,1.3333333,5.6986667,13.994667)">
      <path
         id="path2"
         d="m 6.5394766,-6.6786172 c 0,-0.1757812 0,-0.328125 -0.1640625,-0.328125 -0.011719,0 -0.1640625,0 -0.1757813,0.1757813 -0.035156,0.28125 -0.2578125,0.28125 -0.328125,0.28125 -0.3515625,0 -0.703125,-0.1523438 -0.9023437,-0.2460938 -0.5039063,-0.2109375 -0.9375,-0.2109375 -1.0898438,-0.2109375 -1.6640625,0 -3.51562499,1.0429688 -3.51562499,3.5859375 0,2.54296876 1.80468749,3.60937501 3.52734379,3.60937501 0.5273437,0 1.2421875,-0.10546875 1.96875,-0.55078125 0.4570312,-0.28125 0.9609375,-0.78515626 0.9609375,-0.92578126 0,-0.140625 -0.140625,-0.1992187 -0.2109375,-0.1992187 -0.070312,0 -0.1054688,0.035156 -0.1992188,0.140625 -0.5859375,0.65624996 -1.4648437,1.05468746 -2.3554687,1.05468746 -1.546875,0 -1.9335938,-1.55859376 -1.9335938,-3.10546876 0,-1.9570312 0.7148438,-3.2695312 1.78125,-3.2695312 0.75,0 1.9453125,0.7265625 2.2851563,1.78125 0.023437,0.09375 0.058594,0.1992187 0.1875,0.1992187 0.1640625,0 0.1640625,-0.1640625 0.1640625,-0.328125 z M 6.1996328,-5.6590859 C 6.0824453,-5.8231484 5.9418203,-5.9520547 5.6957266,-6.2098672 c 0.046875,0 0.1289062,0 0.1875,0 0.1054687,0 0.234375,-0.011719 0.3164062,-0.070312 z M 2.6605703,-6.4325234 c -0.234375,0.2226562 -0.890625,1.0898437 -0.890625,3.0351562 0,0.984375 0.1523438,2.3671875 1.0546875,3.08203126 -1.640625,-0.52734375 -2.10937499,-1.87499996 -2.10937499,-3.09374996 0,-1.828125 1.00781249,-2.71875 1.94531249,-3.0351563 z m 0,0"
         style="fill:#000000;fill-opacity:1;fill-rule:nonzero;stroke:none" />
      <path
         id="path3"
         d="m 13.617602,-6.9247109 c 0,-0.023437 -0.01172,-0.09375 -0.105469,-0.09375 -0.04687,0 -0.05859,0.011719 -0.175781,0.140625 l -0.480469,0.5742187 c -0.257813,-0.46875 -0.773438,-0.7148437 -1.429688,-0.7148437 -1.265625,0 -2.4609372,1.1367187 -2.4609372,2.34375 0,0.8085937 0.5273438,1.265625 1.0429692,1.4179687 l 1.066406,0.28125 c 0.363281,0.082031 0.914062,0.234375 0.914062,1.0546875 0,0.890625 -0.820312,1.82812501 -1.792968,1.82812501 -0.6445317,0 -1.7460942,-0.2109375 -1.7460942,-1.45312501 0,-0.234375 0.046875,-0.4804687 0.058594,-0.5390625 0.011719,-0.035156 0.023437,-0.046875 0.023437,-0.070312 0,-0.09375 -0.070312,-0.1054687 -0.1171875,-0.1054687 -0.058594,0 -0.070312,0.011719 -0.1054688,0.035156 -0.035156,0.046875 -0.5976562,2.32031251 -0.5976562,2.34375001 0,0.0585937 0.046875,0.10546875 0.1171875,0.10546875 0.046875,0 0.058594,-0.0117188 0.1757812,-0.15234375 l 0.4921875,-0.57421875 c 0.421875,0.5859375 1.1015625,0.7265625 1.6757815,0.7265625 1.359375,0 2.53125,-1.32421876 2.53125,-2.56640626 0,-0.6796875 -0.339844,-1.0195312 -0.492187,-1.1601562 -0.222657,-0.234375 -0.375,-0.2695313 -1.265625,-0.5039063 -0.210938,-0.058594 -0.574219,-0.1523437 -0.65625,-0.1757812 -0.269532,-0.09375 -0.6093757,-0.375 -0.6093757,-0.9023438 0,-0.8085937 0.7968757,-1.6523437 1.7343757,-1.6523437 0.832031,0 1.441406,0.421875 1.441406,1.5351562 0,0.3164063 -0.04687,0.5039063 -0.04687,0.5625 0,0.011719 0,0.09375 0.128906,0.09375 0.09375,0 0.105469,-0.023437 0.140625,-0.1992187 z m 0,0"
         style="fill:#000000;fill-opacity:1;fill-rule:nonzero;stroke:none" />
    </g>
    <path
       id="path4"
       d="m 4.9446719,-1.5575234 c 0,-0.070312 -0.058594,-0.070312 -0.1054688,-0.070312 -0.1640625,0 -0.4101562,0.140625 -0.421875,0.140625 -0.1992187,0.1289062 -0.234375,0.1992187 -0.3515625,0.375 -0.3164062,0.46874996 -0.75,0.80859371 -1.3945312,0.80859371 -0.9023438,0 -1.71093752,-0.65625 -1.71093752,-2.14453121 0,-0.9023438 0.36328122,-2.0859375 0.89062502,-2.8710938 0.4453125,-0.6328125 0.9726562,-1.1601562 2.0039062,-1.1601562 0.375,0 0.6210938,0.140625 0.6210938,0.515625 0,0.3515625 -0.375,1.0546875 -0.4921875,1.2539062 -0.058594,0.1054688 -0.058594,0.1289063 -0.058594,0.1523438 0,0.070312 0.046875,0.070312 0.1054688,0.070312 0.1992187,0 0.5742187,-0.2226563 0.6914062,-0.3867188 0.023437,-0.035156 0.5976563,-1.0078125 0.5976563,-1.5234375 0,-0.5390625 -0.4453125,-0.6210937 -0.8085938,-0.6210937 -1.4414062,0 -2.625,0.9375 -3.0820312,1.5 -1.19531252,1.4296875 -1.31250002,2.9765625 -1.31250002,3.4921875 0,1.46484371 0.73828125,2.26171871 1.89843752,2.26171871 1.6054687,0 2.9296875,-1.54687501 2.9296877,-1.79296871 z m 0,0"
       style="fill:#000000;fill-opacity:1;fill-rule:nonzero;stroke:none"
       aria-label="C"
       transform="matrix(1.3333333,0,0,1.3333333,111.75867,13.994667)" />
    <path
       id="path5"
       d="m 4.9456797,-1.5575234 c 0,-0.070312 -0.058594,-0.070312 -0.1054688,-0.070312 -0.1640625,0 -0.4101562,0.140625 -0.421875,0.140625 -0.1992187,0.1289062 -0.234375,0.1992187 -0.3515625,0.375 -0.3164062,0.46874996 -0.75,0.80859371 -1.3945312,0.80859371 -0.9023438,0 -1.71093751,-0.65625 -1.71093751,-2.14453121 0,-0.9023438 0.36328121,-2.0859375 0.89062501,-2.8710938 0.4453125,-0.6328125 0.9726562,-1.1601562 2.0039062,-1.1601562 0.375,0 0.6210938,0.140625 0.6210938,0.515625 0,0.3515625 -0.375,1.0546875 -0.4921875,1.2539062 -0.058594,0.1054688 -0.058594,0.1289063 -0.058594,0.1523438 0,0.070312 0.046875,0.070312 0.1054688,0.070312 0.1992187,0 0.5742187,-0.2226563 0.6914062,-0.3867188 0.023437,-0.035156 0.5976563,-1.0078125 0.5976563,-1.5234375 0,-0.5390625 -0.4453125,-0.6210937 -0.8085938,-0.6210937 -1.4414062,0 -2.625,0.9375 -3.0820312,1.5 -1.19531251,1.4296875 -1.31250001,2.9765625 -1.31250001,3.4921875 0,1.46484371 0.73828125,2.26171871 1.89843751,2.26171871 1.6054687,0 2.9296875,-1.54687501 2.9296877,-1.79296871 z m 0,0"
       style="fill:#000000;fill-opacity:1;fill-rule:nonzero;stroke:none"
       aria-label="C"
       transform="matrix(1.3333333,0,0,1.3333333,306.03467,13.994667)" />
    <g
       id="g5"
       aria-label="grCS"
       transform="matrix(1.3333333,0,0,1.3333333,99.361333,90.341333)">
      <path
         id="path6"
         d="m 2.2163047,-1.7120547 c -0.8671875,0 -0.8671875,-0.9960937 -0.8671875,-1.2304687 0,-0.2695313 0.011719,-0.5859375 0.1523437,-0.8320313 0.082031,-0.1171875 0.3164063,-0.3984375 0.7148438,-0.3984375 0.8671875,0 0.8671875,0.9960938 0.8671875,1.21875 0,0.2695313 -0.011719,0.5976563 -0.1640625,0.84375 -0.082031,0.1171875 -0.3046875,0.3984375 -0.703125,0.3984375 z m -1.1601563,0.3867188 c 0,-0.035156 0,-0.2695313 0.1757813,-0.46875 0.3867187,0.28125 0.796875,0.3046875 0.984375,0.3046875 0.9257812,0 1.6054687,-0.6796875 1.6054687,-1.453125 0,-0.3632813 -0.1523437,-0.7382813 -0.3984375,-0.9609375 0.3515625,-0.3398438 0.7148438,-0.3867188 0.890625,-0.3867188 0.023437,0 0.070312,0 0.1054688,0 -0.1171875,0.046875 -0.1640625,0.1523438 -0.1640625,0.2695313 0,0.1757812 0.1289062,0.2929687 0.2929687,0.2929687 0.09375,0 0.28125,-0.070312 0.28125,-0.2929687 0,-0.1757813 -0.1171875,-0.4921875 -0.5039062,-0.4921875 -0.1992188,0 -0.6328125,0.058594 -1.0546875,0.46875 -0.421875,-0.328125 -0.84375,-0.3632813 -1.0546875,-0.3632813 -0.9257813,0 -1.61718751,0.6914063 -1.61718751,1.453125 0,0.4453125 0.22265625,0.8203125 0.46875001,1.03125 -0.12890626,0.1523438 -0.30468751,0.4804688 -0.30468751,0.8203125 0,0.31640626 0.12890625,0.69140626 0.43359371,0.89062501 -0.59765621,0.17578125 -0.91406246,0.59765625 -0.91406246,0.99609375 0,0.71484374 0.98437496,1.26562504 2.20312496,1.26562504 1.171875,0 2.203125,-0.5039063 2.203125,-1.28906254 0,-0.33984375 -0.140625,-0.85546875 -0.6445312,-1.125 -0.5273438,-0.28125 -1.1015625,-0.28125 -1.7109375,-0.28125 -0.2460938,0 -0.6796875,0 -0.75,-0.0117188 C 1.2670859,-0.70424219 1.0561484,-1.0089297 1.0561484,-1.3253359 Z m 1.4414063,3.1523437 c -1.0078125,0 -1.69921876,-0.515625 -1.69921876,-1.04296874 0,-0.45703125 0.37499996,-0.8203125 0.82031246,-0.85546875 h 0.5859375 c 0.8554688,0 1.96875,0 1.96875,0.85546875 0,0.53906254 -0.703125,1.04296874 -1.6757812,1.04296874 z m 4.1484375,-5.1328125 v -1.1015625 l -1.3828125,0.1171875 v 0.3046875 c 0.6914062,0 0.7734375,0.070312 0.7734375,0.5625 v 2.66015626 c 0,0.45703125 -0.1054688,0.45703125 -0.7734375,0.45703125 v 0.3046875 c 0.3867187,-0.01171875 0.8554687,-0.03515625 1.1367187,-0.03515625 0.3984375,0 0.8671875,0 1.265625,0.03515625 v -0.3046875 H 7.4545859 c -0.7382812,0 -0.7617187,-0.1171875 -0.7617187,-0.46875 V -2.3097109 c 0,-0.984375 0.421875,-1.875 1.1835937,-1.875 0.058594,0 0.082031,0 0.1054688,0.011719 -0.035156,0.011719 -0.234375,0.1289063 -0.234375,0.3867188 0,0.28125 0.2109375,0.4335937 0.4335937,0.4335937 0.1757813,0 0.421875,-0.1289062 0.421875,-0.4453125 0,-0.3164062 -0.3046875,-0.609375 -0.7265625,-0.609375 -0.7382812,0 -1.0898437,0.6679688 -1.2304687,1.1015622 z m 0,0"
         style="fill:#000000;fill-opacity:1;fill-rule:nonzero;stroke:none" />
      <path
         id="path7"
         d="m 17.084469,-6.6808047 c 0,-0.1757812 0,-0.328125 -0.164063,-0.328125 -0.01172,0 -0.164062,0 -0.175781,0.1757813 -0.03516,0.28125 -0.257813,0.28125 -0.328125,0.28125 -0.351563,0 -0.703125,-0.1523438 -0.902344,-0.2460938 -0.503906,-0.2109375 -0.9375,-0.2109375 -1.089844,-0.2109375 -1.664062,0 -3.515625,1.0429688 -3.515625,3.5859375 0,2.54296876 1.804688,3.60937501 3.527344,3.60937501 0.527344,0 1.242188,-0.10546875 1.96875,-0.55078125 0.457031,-0.28125 0.960938,-0.78515626 0.960938,-0.92578126 0,-0.140625 -0.140625,-0.1992187 -0.210938,-0.1992187 -0.07031,0 -0.105469,0.035156 -0.199219,0.140625 -0.585937,0.65624996 -1.464843,1.05468746 -2.355468,1.05468746 -1.546875,0 -1.933594,-1.55859376 -1.933594,-3.10546876 0,-1.9570312 0.714844,-3.2695312 1.78125,-3.2695312 0.75,0 1.945312,0.7265625 2.285156,1.78125 0.02344,0.09375 0.05859,0.1992187 0.1875,0.1992187 0.164063,0 0.164063,-0.1640625 0.164063,-0.328125 z m -0.339844,1.0195313 c -0.117188,-0.1640625 -0.257813,-0.2929688 -0.503906,-0.5507813 0.04687,0 0.128906,0 0.1875,0 0.105468,0 0.234375,-0.011719 0.316406,-0.070312 z m -3.539063,-0.7734375 c -0.234375,0.2226562 -0.890625,1.0898437 -0.890625,3.0351562 0,0.984375 0.152344,2.3671875 1.054688,3.08203126 C 11.729,-0.84486719 11.26025,-2.1925234 11.26025,-3.4112734 c 0,-1.828125 1.007812,-2.71875 1.945312,-3.0351563 z m 0,0"
         style="fill:#000000;fill-opacity:1;fill-rule:nonzero;stroke:none" />
      <path
         id="path8"
         d="m 24.159664,-6.9268984 c 0,-0.023437 -0.01172,-0.09375 -0.105469,-0.09375 -0.04687,0 -0.05859,0.011719 -0.175781,0.140625 l -0.480469,0.5742187 c -0.257812,-0.46875 -0.773437,-0.7148437 -1.429687,-0.7148437 -1.265625,0 -2.460938,1.1367187 -2.460938,2.34375 0,0.8085937 0.527344,1.265625 1.042969,1.4179687 l 1.066406,0.28125 c 0.363282,0.082031 0.914063,0.234375 0.914063,1.0546875 0,0.890625 -0.820313,1.82812501 -1.792969,1.82812501 -0.644531,0 -1.746094,-0.2109375 -1.746094,-1.45312501 0,-0.234375 0.04687,-0.4804687 0.05859,-0.5390625 0.01172,-0.035156 0.02344,-0.046875 0.02344,-0.070312 0,-0.09375 -0.07031,-0.1054687 -0.117188,-0.1054687 -0.05859,0 -0.07031,0.011719 -0.105469,0.035156 -0.03516,0.046875 -0.597656,2.32031251 -0.597656,2.34375001 0,0.0585938 0.04687,0.10546875 0.117188,0.10546875 0.04687,0 0.05859,-0.0117188 0.175781,-0.15234375 l 0.492187,-0.57421875 c 0.421875,0.5859375 1.101563,0.7265625 1.675782,0.7265625 1.359375,0 2.53125,-1.32421876 2.53125,-2.56640626 0,-0.6796875 -0.339844,-1.0195312 -0.492188,-1.1601562 -0.222656,-0.234375 -0.375,-0.2695313 -1.265625,-0.5039063 -0.210937,-0.058594 -0.574219,-0.1523437 -0.65625,-0.1757812 -0.269531,-0.09375 -0.609375,-0.375 -0.609375,-0.9023438 0,-0.8085937 0.796875,-1.6523437 1.734375,-1.6523437 0.832031,0 1.441406,0.421875 1.441406,1.5351562 0,0.3164063 -0.04687,0.5039063 -0.04687,0.5625 0,0.011719 0,0.09375 0.128907,0.09375 0.09375,0 0.105468,-0.023437 0.140625,-0.1992187 z m 0,0"
         style="fill:#000000;fill-opacity:1;fill-rule:nonzero;stroke:none" />
    </g>
    <g
       id="g8"
       aria-label="grCS"
       transform="matrix(1.3333333,0,0,1.3333333,293.63733,90.341333)">
      <path
         id="path9"
         d="m 2.2143828,-1.7120547 c -0.8671875,0 -0.8671875,-0.9960937 -0.8671875,-1.2304687 0,-0.2695313 0.011719,-0.5859375 0.1523438,-0.8320313 0.082031,-0.1171875 0.3164062,-0.3984375 0.7148437,-0.3984375 0.8671875,0 0.8671875,0.9960938 0.8671875,1.21875 0,0.2695313 -0.011719,0.5976563 -0.1640625,0.84375 -0.082031,0.1171875 -0.3046875,0.3984375 -0.703125,0.3984375 z m -1.1601562,0.3867188 c 0,-0.035156 0,-0.2695313 0.1757812,-0.46875 0.3867188,0.28125 0.796875,0.3046875 0.984375,0.3046875 0.9257813,0 1.6054688,-0.6796875 1.6054688,-1.453125 0,-0.3632813 -0.1523438,-0.7382813 -0.3984375,-0.9609375 0.3515625,-0.3398438 0.7148437,-0.3867188 0.890625,-0.3867188 0.023437,0 0.070312,0 0.1054687,0 -0.1171875,0.046875 -0.1640625,0.1523438 -0.1640625,0.2695313 0,0.1757812 0.1289063,0.2929687 0.2929688,0.2929687 0.09375,0 0.28125,-0.070312 0.28125,-0.2929687 0,-0.1757813 -0.1171875,-0.4921875 -0.5039063,-0.4921875 -0.1992187,0 -0.6328125,0.058594 -1.0546875,0.46875 -0.421875,-0.328125 -0.84375,-0.3632813 -1.0546875,-0.3632813 -0.9257812,0 -1.61718749,0.6914063 -1.61718749,1.453125 0,0.4453125 0.22265625,0.8203125 0.46874999,1.03125 -0.12890624,0.1523438 -0.30468749,0.4804688 -0.30468749,0.8203125 0,0.31640626 0.12890625,0.69140626 0.43359379,0.89062501 -0.59765629,0.17578125 -0.91406254,0.59765625 -0.91406254,0.99609375 0,0.71484374 0.98437504,1.26562504 2.20312504,1.26562504 1.171875,0 2.203125,-0.5039063 2.203125,-1.28906254 0,-0.33984375 -0.140625,-0.85546875 -0.6445313,-1.125 -0.5273437,-0.28125 -1.1015625,-0.28125 -1.7109375,-0.28125 -0.2460937,0 -0.6796875,0 -0.75,-0.0117188 C 1.2651641,-0.70424219 1.0542266,-1.0089297 1.0542266,-1.3253359 Z m 1.4414062,3.1523437 c -1.0078125,0 -1.69921874,-0.515625 -1.69921874,-1.04296874 0,-0.45703125 0.37500004,-0.8203125 0.82031254,-0.85546875 h 0.5859375 c 0.8554687,0 1.96875,0 1.96875,0.85546875 0,0.53906254 -0.703125,1.04296874 -1.6757813,1.04296874 z m 4.1484375,-5.1328125 v -1.1015625 l -1.3828125,0.1171875 v 0.3046875 c 0.6914063,0 0.7734375,0.070312 0.7734375,0.5625 v 2.66015626 c 0,0.45703125 -0.1054687,0.45703125 -0.7734375,0.45703125 v 0.3046875 c 0.3867188,-0.01171875 0.8554688,-0.03515625 1.1367188,-0.03515625 0.3984375,0 0.8671875,0 1.265625,0.03515625 v -0.3046875 H 7.4526641 c -0.7382813,0 -0.7617188,-0.1171875 -0.7617188,-0.46875 V -2.3097109 c 0,-0.984375 0.421875,-1.875 1.1835938,-1.875 0.058594,0 0.082031,0 0.1054687,0.011719 -0.035156,0.011719 -0.234375,0.1289063 -0.234375,0.3867188 0,0.28125 0.2109375,0.4335937 0.4335938,0.4335937 0.1757812,0 0.421875,-0.1289062 0.421875,-0.4453125 0,-0.3164062 -0.3046875,-0.609375 -0.7265625,-0.609375 -0.7382813,0 -1.0898438,0.6679688 -1.2304688,1.1015622 z m 0,0"
         style="fill:#000000;fill-opacity:1;fill-rule:nonzero;stroke:none" />
      <path
         id="path10"
         d="m 17.082547,-6.6808047 c 0,-0.1757812 0,-0.328125 -0.164063,-0.328125 -0.01172,0 -0.164062,0 -0.175781,0.1757813 -0.03516,0.28125 -0.257812,0.28125 -0.328125,0.28125 -0.351562,0 -0.703125,-0.1523438 -0.902344,-0.2460938 -0.503906,-0.2109375 -0.9375,-0.2109375 -1.089843,-0.2109375 -1.664063,0 -3.515625,1.0429688 -3.515625,3.5859375 0,2.54296876 1.804687,3.60937501 3.527343,3.60937501 0.527344,0 1.242188,-0.10546875 1.96875,-0.55078125 0.457032,-0.28125 0.960938,-0.78515626 0.960938,-0.92578126 0,-0.140625 -0.140625,-0.1992187 -0.210938,-0.1992187 -0.07031,0 -0.105468,0.035156 -0.199218,0.140625 -0.585938,0.65624996 -1.464844,1.05468746 -2.355469,1.05468746 -1.546875,0 -1.933594,-1.55859376 -1.933594,-3.10546876 0,-1.9570312 0.714844,-3.2695312 1.78125,-3.2695312 0.75,0 1.945313,0.7265625 2.285156,1.78125 0.02344,0.09375 0.05859,0.1992187 0.1875,0.1992187 0.164063,0 0.164063,-0.1640625 0.164063,-0.328125 z m -0.339844,1.0195313 c -0.117187,-0.1640625 -0.257812,-0.2929688 -0.503906,-0.5507813 0.04687,0 0.128906,0 0.1875,0 0.105469,0 0.234375,-0.011719 0.316406,-0.070312 z m -3.539062,-0.7734375 c -0.234375,0.2226562 -0.890625,1.0898437 -0.890625,3.0351562 0,0.984375 0.152343,2.3671875 1.054687,3.08203126 -1.640625,-0.52734375 -2.109375,-1.87499996 -2.109375,-3.09374996 0,-1.828125 1.007813,-2.71875 1.945313,-3.0351563 z m 0,0"
         style="fill:#000000;fill-opacity:1;fill-rule:nonzero;stroke:none" />
      <path
         id="path11"
         d="m 24.160672,-6.9268984 c 0,-0.023437 -0.01172,-0.09375 -0.105469,-0.09375 -0.04687,0 -0.05859,0.011719 -0.175781,0.140625 l -0.480469,0.5742187 c -0.257812,-0.46875 -0.773437,-0.7148437 -1.429687,-0.7148437 -1.265625,0 -2.460938,1.1367187 -2.460938,2.34375 0,0.8085937 0.527344,1.265625 1.042969,1.4179687 l 1.066406,0.28125 c 0.363281,0.082031 0.914063,0.234375 0.914063,1.0546875 0,0.890625 -0.820313,1.82812501 -1.792969,1.82812501 -0.644531,0 -1.746094,-0.2109375 -1.746094,-1.45312501 0,-0.234375 0.04687,-0.4804687 0.05859,-0.5390625 0.01172,-0.035156 0.02344,-0.046875 0.02344,-0.070312 0,-0.09375 -0.07031,-0.1054687 -0.117187,-0.1054687 -0.05859,0 -0.07031,0.011719 -0.105469,0.035156 -0.03516,0.046875 -0.597656,2.32031251 -0.597656,2.34375001 0,0.0585938 0.04687,0.10546875 0.117187,0.10546875 0.04687,0 0.05859,-0.0117188 0.175782,-0.15234375 l 0.492187,-0.57421875 c 0.421875,0.5859375 1.101563,0.7265625 1.675781,0.7265625 1.359375,0 2.53125,-1.32421876 2.53125,-2.56640626 0,-0.6796875 -0.339843,-1.0195312 -0.492187,-1.1601562 -0.222656,-0.234375 -0.375,-0.2695313 -1.265625,-0.5039063 -0.210938,-0.058594 -0.574219,-0.1523437 -0.65625,-0.1757812 -0.269531,-0.09375 -0.609375,-0.375 -0.609375,-0.9023438 0,-0.8085937 0.796875,-1.6523437 1.734375,-1.6523437 0.832031,0 1.441406,0.421875 1.441406,1.5351562 0,0.3164063 -0.04687,0.5039063 -0.04687,0.5625 0,0.011719 0,0.09375 0.128906,0.09375 0.09375,0 0.105469,-0.023437 0.140625,-0.1992187 z m 0,0"
         style="fill:#000000;fill-opacity:1;fill-rule:nonzero;stroke:none" />
    </g>
    <path
       id="path12"
       d="m -101.8378,28.65817 h 56.32205"
       style="fill:none;stroke:#000000;stroke-width:0.39848;stroke-linecap:butt;stroke-linejoin:miter;stroke-miterlimit:10;stroke-dasharray:none;stroke-opacity:1"
       transform="matrix(1.3333333,0,0,-1.3333333,165.94933,48.884)" />
    <path
       id="path13"
       d="M -2.07213,2.39091 C -1.69356,0.95633 -0.84995,0.27893 0,0 -0.84995,-0.27893 -1.69356,-0.95633 -2.07213,-2.39091"
       style="fill:none;stroke:#000000;stroke-width:0.39848;stroke-linecap:round;stroke-linejoin:round;stroke-miterlimit:10;stroke-dasharray:none;stroke-opacity:1"
       transform="matrix(1.3333333,0,0,-1.3333333,105.52732,10.673107)" />
    <path
       id="path14"
       d="m 1.1733047,-0.60942969 c 0.1757812,-0.1875 0.3046875,-0.31640625 0.9023437,-0.79687501 0.140625,-0.1171875 0.6679688,-0.5273437 0.8671875,-0.7265625 0.421875,-0.421875 0.6914063,-0.7734375 0.6914063,-0.8554687 0,-0.082031 -0.09375,-0.082031 -0.1171875,-0.082031 -0.058594,0 -0.082031,0.011719 -0.1171875,0.070312 -0.2226563,0.3164063 -0.3632813,0.421875 -0.5273438,0.421875 -0.09375,0 -0.1992187,-0.011719 -0.3984375,-0.2109375 -0.2460937,-0.234375 -0.3984375,-0.28125 -0.5507812,-0.28125 -0.5625,0 -0.93750001,0.5976563 -0.93750001,0.8085938 0,0.070312 0.0703125,0.082031 0.11718751,0.082031 0.082031,0 0.09375,-0.011719 0.1289062,-0.09375 0.1054688,-0.2460937 0.4921875,-0.2578125 0.5976563,-0.2578125 0.1640625,0 0.3515625,0.046875 0.4453125,0.058594 0.3867187,0.09375 0.4335937,0.09375 0.609375,0.09375 -0.1875,0.1875 -0.3046875,0.3046875 -0.9726563,0.84375 -0.5390625,0.421875 -0.7265625,0.59765621 -0.8671875,0.73828121 -0.41015621,0.41015625 -0.62109371,0.71484375 -0.62109371,0.78515625 0,0.08203125 0.09375,0.08203125 0.1171875,0.08203125 0.0703125,0 0.09375,-0.01171875 0.12890625,-0.0703124975 0.1875,-0.2695312525 0.39843746,-0.4218750025 0.63281246,-0.4218750025 0.082031,0 0.1875,0 0.375,0.17578125 0.2226563,0.2109375 0.3632813,0.31640625 0.5859375,0.31640625 0.7382813,0 1.2070313,-0.84375 1.2070313,-1.07812501 0,-0.082031 -0.070312,-0.09375 -0.1171875,-0.09375 -0.082031,0 -0.09375,0.035156 -0.1289063,0.11718751 -0.1289062,0.33984375 -0.5390625,0.515625 -0.8789062,0.515625 -0.1640625,0 -0.3398438,-0.0351563 -0.515625,-0.0820313 -0.3164063,-0.0703125 -0.375,-0.0703125 -0.4921875,-0.0703125 -0.023437,0 -0.1171875,0 -0.1640625,0.011719 z m 0,0"
       style="fill:#000000;fill-opacity:1;fill-rule:nonzero;stroke:none"
       aria-label="z"
       transform="matrix(1.3333333,0,0,1.3333333,65.252,7.5586667)" />
    <path
       id="path15"
       d="m -37.73058,22.33528 v -42.3349"
       style="fill:none;stroke:#000000;stroke-width:0.39848;stroke-linecap:butt;stroke-linejoin:miter;stroke-miterlimit:10;stroke-dasharray:none;stroke-opacity:1"
       transform="matrix(1.3333333,0,0,-1.3333333,165.94933,48.884)" />
    <path
       id="path16"
       d="M -2.07213,2.39091 C -1.69356,0.95633 -0.84995,0.27893 0,0 -0.84995,-0.27893 -1.69356,-0.95633 -2.07213,-2.39091"
       style="fill:none;stroke:#000000;stroke-width:0.39848;stroke-linecap:round;stroke-linejoin:round;stroke-miterlimit:10;stroke-dasharray:none;stroke-opacity:1"
       transform="matrix(0,1.3333333,1.3333333,0,115.64189,75.815827)" />
    <path
       id="path17"
       d="m 2.1683281,-2.5319375 h 0.8320313 c -0.1054688,0.421875 -0.2578125,1.0546875 -0.2578125,1.60546875 0,0.28125 0.035156,0.46875 0.070312,0.62109375 0.1171875,0.3515625 0.2109375,0.375 0.3164062,0.375 0.1640625,0 0.328125,-0.15234375 0.328125,-0.31640625 0,-0.0585938 -0.011719,-0.0820313 -0.058594,-0.15234375 -0.1289063,-0.2578125 -0.2578125,-0.65625 -0.2578125,-1.2304687 0,-0.1289063 0,-0.4101563 0.1054687,-0.9023438 h 0.8671875 c 0.1289063,0 0.1875,0 0.2578125,-0.058594 0.09375,-0.070312 0.1171875,-0.1757813 0.1171875,-0.2109375 0,-0.1992188 -0.1757812,-0.1992188 -0.2929687,-0.1992188 h -2.636718 c -0.28125,0 -0.4804687,0.058594 -0.79687497,0.3515625 -0.17578125,0.1640625 -0.4453125,0.5390625 -0.4453125,0.5976563 0,0.082031 0.09375,0.082031 0.1171875,0.082031 0.0703125,0 0.0820313,-0.011719 0.12890625,-0.070313 0.3515625,-0.4921875 0.78515622,-0.4921875 0.93750002,-0.4921875 h 0.421875 c -0.2109375,0.7617188 -0.5859375,1.59375 -0.796875,2.00390625 -0.046875,0.09375 -0.1171875,0.24609375 -0.14062502,0.26953125 0,0.0234375 -0.0117188,0.0585938 -0.0117188,0.10546875 0,0.10546875 0.0820313,0.22265625 0.24609382,0.22265625 0.2695312,0 0.3515624,-0.31640625 0.5156249,-0.9375 z m 0,0"
       style="fill:#000000;fill-opacity:1;fill-rule:nonzero;stroke:none"
       aria-label="π"
       transform="matrix(1.3333333,0,0,1.3333333,118.75733,49.594667)" />
    <path
       id="path18"
       d="m 111.74916,22.33528 c 8.1846,-13.71881 8.1846,-30.89642 1.32642,-42.3912"
       style="fill:none;stroke:#000000;stroke-width:0.39848;stroke-linecap:butt;stroke-linejoin:miter;stroke-miterlimit:10;stroke-dasharray:none;stroke-opacity:1"
       transform="matrix(1.3333333,0,0,-1.3333333,165.94933,48.884)" />
    <path
       id="path19"
       d="M -2.07213,2.39091 C -1.69356,0.95633 -0.84995,0.27893 0,0 -0.84995,-0.27893 -1.69356,-0.95633 -2.07213,-2.39091"
       style="fill:none;stroke:#000000;stroke-width:0.39848;stroke-linecap:round;stroke-linejoin:round;stroke-miterlimit:10;stroke-dasharray:none;stroke-opacity:1"
       transform="matrix(-0.68312,1.1449733,1.1449733,0.68312,316.58068,75.85336)" />
    <g
       id="g19"
       aria-label="grπ"
       transform="matrix(1.3333333,0,0,1.3333333,326.43333,49.630667)">
      <path
         id="path20"
         d="m 1.0080078,-1.2435078 c 0.1054688,0.058594 0.3515625,0.2226562 0.7617188,0.2226562 0.7148437,0 1.2304687,-0.4921875 1.2304687,-1.03125 0,-0.2695312 -0.1171875,-0.4921875 -0.2929687,-0.6679687 0.3164062,-0.2226563 0.5859375,-0.234375 0.7148437,-0.234375 -0.035156,0.035156 -0.070312,0.058594 -0.070312,0.1757812 0,0.1289063 0.1054688,0.2226563 0.2226563,0.2226563 0.1054687,0 0.2226562,-0.070312 0.2226562,-0.234375 0,-0.1640625 -0.1289062,-0.3515625 -0.4101562,-0.3515625 -0.1054688,0 -0.4804688,0.011719 -0.8085938,0.3164062 -0.2109375,-0.1523437 -0.5039062,-0.2460937 -0.8085937,-0.2460937 -0.7148438,0 -1.24218754,0.4804687 -1.24218754,1.0195312 0,0.2695313 0.140625,0.5273438 0.33984375,0.703125 -0.0585938,0.070312 -0.2109375,0.2929688 -0.2109375,0.56250004 0,0.09375 0.0234375,0.421875 0.29296875,0.62109375 -0.31640625,0.10546875 -0.6796875,0.33984375 -0.6796875,0.703125 0,0.50390621 0.77343754,0.89062501 1.71093754,0.89062501 0.890625,0 1.7109375,-0.3515625 1.7109375,-0.90234376 0,-0.2109375 -0.082031,-0.5859375 -0.46875,-0.796875 -0.4101563,-0.22265625 -0.8203125,-0.22265625 -1.5,-0.22265625 -0.1523438,0 -0.4101563,0 -0.4570313,0 -0.2226562,-0.046875 -0.35156249,-0.2578125 -0.35156249,-0.46875 0,-0.16406249 0.046875,-0.22265629 0.0937495,-0.28124999 z m 0.7617188,0.011719 c -0.6796875,0 -0.6796875,-0.6679687 -0.6796875,-0.8203125 0,-0.1054687 0,-0.3867187 0.140625,-0.5742187 0.09375,-0.1171875 0.28125,-0.2460938 0.5390625,-0.2460938 0.6796875,0 0.6796875,0.6796875 0.6796875,0.8203125 0,0.1171875 0,0.3867188 -0.140625,0.5742188 -0.09375,0.1171875 -0.28125,0.2460937 -0.5390625,0.2460937 z m 0,1.20703129 c 0.6210937,0 1.4882812,0 1.4882812,0.55078125 0,0.375 -0.5507812,0.69140626 -1.2773437,0.69140626 -0.7265625,0 -1.27734379,-0.32812501 -1.27734379,-0.69140626 0,-0.24609375 0.22265625,-0.5390625 0.66796879,-0.55078125 z M 5.3556641,-1.5950703 c 0,-0.5859375 0.28125,-1.2890625 0.9375,-1.2890625 -0.058594,0.046875 -0.1171875,0.140625 -0.1171875,0.2578125 0,0.2226562 0.1757812,0.3164062 0.3164062,0.3164062 0.1640625,0 0.3164063,-0.1054687 0.3164063,-0.3164062 0,-0.2460938 -0.2226563,-0.4453125 -0.5507813,-0.4453125 -0.3515625,0 -0.7265625,0.2109375 -0.9375,0.7382812 h -0.011719 v -0.7382812 l -0.9960938,0.070312 v 0.2578125 c 0.46875,0 0.5273438,0.046875 0.5273438,0.3867187 v 1.80468754 c 0,0.3046875 -0.070312,0.3046875 -0.5273438,0.3046875 v 0.24609375 c 0.035156,0 0.515625,-0.0234375 0.796875,-0.0234375 0.3046875,0 0.609375,0.01171875 0.9023438,0.0234375 v -0.24609375 h -0.140625 c -0.515625,0 -0.515625,-0.0820313 -0.515625,-0.31640625 z m 0,0"
         style="fill:#000000;fill-opacity:1;fill-rule:nonzero;stroke:none" />
      <path
         id="path21"
         d="m 10.611523,-2.5325703 h 0.832032 c -0.105469,0.421875 -0.257813,1.0546875 -0.257813,1.60546874 0,0.28125 0.03516,0.46875 0.07031,0.62109375 0.117187,0.3515625 0.210937,0.375 0.316406,0.375 0.164062,0 0.328125,-0.15234375 0.328125,-0.31640625 0,-0.0585938 -0.01172,-0.0820313 -0.05859,-0.15234375 -0.128906,-0.2578125 -0.257812,-0.65624999 -0.257812,-1.23046879 0,-0.1289062 0,-0.4101562 0.105468,-0.9023437 h 0.867188 c 0.128906,0 0.1875,0 0.257812,-0.058594 0.09375,-0.070312 0.117188,-0.1757812 0.117188,-0.2109375 0,-0.1992187 -0.175781,-0.1992187 -0.292969,-0.1992187 h -2.636719 c -0.2812496,0 -0.4804683,0.058594 -0.7968746,0.3515625 -0.1757812,0.1640625 -0.4453125,0.5390625 -0.4453125,0.5976562 0,0.082031 0.09375,0.082031 0.1171875,0.082031 0.070312,0 0.082031,-0.011719 0.1289063,-0.070313 0.3515625,-0.4921875 0.7851562,-0.4921875 0.9375,-0.4921875 H 10.36543 c -0.210938,0.7617187 -0.5859378,1.59374999 -0.7968753,2.00390624 -0.046875,0.09375 -0.1171875,0.24609375 -0.140625,0.26953125 0,0.0234375 -0.011719,0.0585938 -0.011719,0.10546875 0,0.10546875 0.082031,0.22265625 0.2460938,0.22265625 0.2695312,0 0.3515625,-0.31640625 0.5156255,-0.9375 z m 0,0"
         style="fill:#000000;fill-opacity:1;fill-rule:nonzero;stroke:none" />
    </g>
    <path
       id="path22"
       d="M 11.4126,3.45927 H 58.4368"
       style="fill:none;stroke:#000000;stroke-width:0.39848;stroke-linecap:butt;stroke-linejoin:miter;stroke-miterlimit:10;stroke-dasharray:none;stroke-opacity:1"
       transform="matrix(1.3333333,0,0,-1.3333333,165.94933,48.884)" />
    <path
       id="path23"
       d="M -2.07213,2.39091 C -1.69356,0.95633 -0.84995,0.27893 0,0 -0.84995,-0.27893 -1.69356,-0.95633 -2.07213,-2.39091"
       style="fill:none;stroke:#000000;stroke-width:0.39848;stroke-linecap:round;stroke-linejoin:round;stroke-miterlimit:10;stroke-dasharray:none;stroke-opacity:1"
       transform="matrix(1.3333333,0,0,-1.3333333,244.13071,44.27164)" />
    <path
       id="path24"
       d="m 1.0087578,-1.2424453 c 0.1054688,0.058594 0.3515625,0.2226562 0.7617188,0.2226562 0.7148437,0 1.2304687,-0.4921875 1.2304687,-1.03125 0,-0.2695312 -0.1171875,-0.4921875 -0.2929687,-0.6679687 0.3164062,-0.2226563 0.5859375,-0.234375 0.7148437,-0.234375 -0.035156,0.035156 -0.070312,0.058594 -0.070312,0.1757812 0,0.1289063 0.1054688,0.2226563 0.2226563,0.2226563 0.1054687,0 0.2226562,-0.070312 0.2226562,-0.234375 0,-0.1640625 -0.1289062,-0.3515625 -0.4101562,-0.3515625 -0.1054688,0 -0.4804688,0.011719 -0.8085938,0.3164062 -0.2109375,-0.1523437 -0.5039062,-0.2460937 -0.8085937,-0.2460937 -0.7148438,0 -1.24218754,0.4804687 -1.24218754,1.0195312 0,0.2695313 0.140625,0.5273438 0.33984375,0.703125 -0.0585938,0.070312 -0.2109375,0.2929688 -0.2109375,0.56250004 0,0.09375 0.0234375,0.421875 0.29296875,0.62109375 -0.31640625,0.10546875 -0.6796875,0.33984375 -0.6796875,0.703125 0,0.50390621 0.77343754,0.89062501 1.71093754,0.89062501 0.890625,0 1.7109375,-0.3515625 1.7109375,-0.90234376 0,-0.2109375 -0.082031,-0.5859375 -0.46875,-0.796875 -0.4101563,-0.22265625 -0.8203125,-0.22265625 -1.5,-0.22265625 -0.1523438,0 -0.4101563,0 -0.4570313,0 -0.2226562,-0.046875 -0.35156249,-0.2578125 -0.35156249,-0.46875 0,-0.16406249 0.046875,-0.22265629 0.0937495,-0.28124999 z m 0.7617188,0.011719 c -0.6796875,0 -0.6796875,-0.6679687 -0.6796875,-0.8203125 0,-0.1054687 0,-0.3867187 0.140625,-0.5742187 0.09375,-0.1171875 0.28125,-0.2460938 0.5390625,-0.2460938 0.6796875,0 0.6796875,0.6796875 0.6796875,0.8203125 0,0.1171875 0,0.3867188 -0.140625,0.5742188 -0.09375,0.1171875 -0.28125,0.2460937 -0.5390625,0.2460937 z m 0,1.20703129 c 0.6210937,0 1.4882812,0 1.4882812,0.55078125 0,0.375 -0.5507812,0.69140626 -1.2773437,0.69140626 -0.7265625,0 -1.27734379,-0.32812501 -1.27734379,-0.69140626 0,-0.24609375 0.22265625,-0.5390625 0.66796879,-0.55078125 z M 5.3534844,-1.5940078 c 0,-0.5859375 0.28125,-1.2890625 0.9375,-1.2890625 -0.058594,0.046875 -0.1171875,0.140625 -0.1171875,0.2578125 0,0.2226562 0.1757812,0.3164062 0.3164062,0.3164062 0.1640625,0 0.3164063,-0.1054687 0.3164063,-0.3164062 0,-0.2460938 -0.2226563,-0.4453125 -0.5507813,-0.4453125 -0.3515625,0 -0.7265625,0.2109375 -0.9375,0.7382812 h -0.011719 v -0.7382812 l -0.9960938,0.070312 v 0.2578125 c 0.46875,0 0.5273438,0.046875 0.5273438,0.3867187 v 1.80468754 c 0,0.3046875 -0.070312,0.3046875 -0.5273438,0.3046875 v 0.2460937475 c 0.035156,0 0.515625,-0.0234374975 0.796875,-0.0234374975 0.3046875,0 0.609375,0.01171875 0.9023438,0.0234374975 V -0.24635156 h -0.140625 c -0.515625,0 -0.515625,-0.0820313 -0.515625,-0.31640625 z m 0,0"
       style="fill:#000000;fill-opacity:1;fill-rule:nonzero;stroke:none"
       aria-label="gr"
       transform="matrix(1.3333333,0,0,1.3333333,208.05733,39.348)" />
    <path
       id="path25"
       d="m 103.08537,-20.3981 c -7.06225,11.83696 -7.06225,29.01457 0.91815,42.3912"
       style="fill:none;stroke:#000000;stroke-width:0.39848;stroke-linecap:butt;stroke-linejoin:miter;stroke-miterlimit:10;stroke-dasharray:none;stroke-opacity:1"
       transform="matrix(1.3333333,0,0,-1.3333333,165.94933,48.884)" />
    <path
       id="path26"
       d="M -2.07213,2.39091 C -1.69356,0.95633 -0.84995,0.27893 0,0 -0.84995,-0.27893 -1.69356,-0.95633 -2.07213,-2.39091"
       style="fill:none;stroke:#000000;stroke-width:0.39848;stroke-linecap:round;stroke-linejoin:round;stroke-miterlimit:10;stroke-dasharray:none;stroke-opacity:1"
       transform="matrix(0.68308,-1.145,-1.145,-0.68308,304.75679,19.33176)" />
    <g
       id="g26"
       aria-label="grz"
       transform="matrix(1.3333333,0,0,1.3333333,276.688,49.630667)">
      <path
         id="path27"
         d="m 1.0074375,-1.2435078 c 0.1054688,0.058594 0.3515625,0.2226562 0.7617188,0.2226562 0.7148437,0 1.2304687,-0.4921875 1.2304687,-1.03125 0,-0.2695312 -0.1171875,-0.4921875 -0.2929687,-0.6679687 0.3164062,-0.2226563 0.5859375,-0.234375 0.7148437,-0.234375 -0.035156,0.035156 -0.070312,0.058594 -0.070312,0.1757812 0,0.1289063 0.1054688,0.2226563 0.2226563,0.2226563 0.1054687,0 0.2226562,-0.070312 0.2226562,-0.234375 0,-0.1640625 -0.1289062,-0.3515625 -0.4101562,-0.3515625 -0.1054688,0 -0.4804688,0.011719 -0.8085938,0.3164062 -0.2109375,-0.1523437 -0.5039062,-0.2460937 -0.8085937,-0.2460937 -0.7148438,0 -1.24218755,0.4804687 -1.24218755,1.0195312 0,0.2695313 0.140625,0.5273438 0.33984375,0.703125 -0.0585938,0.070312 -0.2109375,0.2929688 -0.2109375,0.56250004 0,0.09375 0.0234375,0.421875 0.29296875,0.62109375 -0.31640625,0.10546875 -0.6796875,0.33984375 -0.6796875,0.703125 0,0.50390621 0.77343755,0.89062501 1.71093755,0.89062501 0.890625,0 1.7109375,-0.3515625 1.7109375,-0.90234376 0,-0.2109375 -0.082031,-0.5859375 -0.46875,-0.796875 -0.4101563,-0.22265625 -0.8203125,-0.22265625 -1.5,-0.22265625 -0.1523438,0 -0.4101563,0 -0.4570313,0 -0.2226562,-0.046875 -0.3515625,-0.2578125 -0.3515625,-0.46875 0,-0.16406249 0.046875,-0.22265629 0.0937495,-0.28124999 z m 0.7617188,0.011719 c -0.6796875,0 -0.6796875,-0.6679687 -0.6796875,-0.8203125 0,-0.1054687 0,-0.3867187 0.140625,-0.5742187 0.09375,-0.1171875 0.28125,-0.2460938 0.5390625,-0.2460938 0.6796875,0 0.6796875,0.6796875 0.6796875,0.8203125 0,0.1171875 0,0.3867188 -0.140625,0.5742188 -0.09375,0.1171875 -0.28125,0.2460937 -0.5390625,0.2460937 z m 0,1.20703129 c 0.6210937,0 1.4882812,0 1.4882812,0.55078125 0,0.375 -0.5507812,0.69140626 -1.2773437,0.69140626 -0.7265625,0 -1.2773438,-0.32812501 -1.2773438,-0.69140626 0,-0.24609375 0.22265625,-0.5390625 0.6679688,-0.55078125 z M 5.3550938,-1.5950703 c 0,-0.5859375 0.28125,-1.2890625 0.9375,-1.2890625 -0.058594,0.046875 -0.1171875,0.140625 -0.1171875,0.2578125 0,0.2226562 0.1757812,0.3164062 0.3164062,0.3164062 0.1640625,0 0.3164063,-0.1054687 0.3164063,-0.3164062 0,-0.2460938 -0.2226563,-0.4453125 -0.5507813,-0.4453125 -0.3515625,0 -0.7265625,0.2109375 -0.9375,0.7382812 h -0.011719 v -0.7382812 l -0.9960938,0.070312 v 0.2578125 c 0.46875,0 0.5273438,0.046875 0.5273438,0.3867187 v 1.80468754 c 0,0.3046875 -0.070312,0.3046875 -0.5273438,0.3046875 v 0.24609375 c 0.035156,0 0.515625,-0.0234375 0.796875,-0.0234375 0.3046875,0 0.609375,0.01171875 0.9023438,0.0234375 v -0.24609375 h -0.140625 c -0.515625,0 -0.515625,-0.0820313 -0.515625,-0.31640625 z m 0,0"
         style="fill:#000000;fill-opacity:1;fill-rule:nonzero;stroke:none" />
      <path
         id="path28"
         d="m 9.6177891,-0.61069531 c 0.1757812,-0.1875 0.3046875,-0.31640625 0.9023439,-0.79687499 0.140625,-0.1171875 0.667969,-0.5273438 0.867187,-0.7265625 0.421875,-0.421875 0.691407,-0.7734375 0.691407,-0.8554688 0,-0.082031 -0.09375,-0.082031 -0.117188,-0.082031 -0.05859,0 -0.08203,0.011719 -0.117187,0.070312 -0.222657,0.3164062 -0.363282,0.421875 -0.527344,0.421875 -0.09375,0 -0.199219,-0.011719 -0.398438,-0.2109375 -0.246093,-0.234375 -0.398437,-0.28125 -0.550781,-0.28125 -0.5624999,0 -0.9374999,0.5976562 -0.9374999,0.8085937 0,0.070312 0.070312,0.082031 0.1171875,0.082031 0.082031,0 0.09375,-0.011719 0.1289062,-0.09375 0.1054688,-0.2460938 0.4921872,-0.2578125 0.5976562,-0.2578125 0.164063,0 0.351563,0.046875 0.445313,0.058594 0.386718,0.09375 0.433593,0.09375 0.609375,0.09375 -0.1875,0.1875 -0.304688,0.3046875 -0.972657,0.84375 -0.5390622,0.421875 -0.7265622,0.59765629 -0.8671872,0.73828129 -0.4101562,0.41015625 -0.6210937,0.71484375 -0.6210937,0.78515625 0,0.08203125 0.09375,0.08203125 0.1171875,0.08203125 0.070312,0 0.09375,-0.01171875 0.1289062,-0.0703125 0.1875,-0.26953125 0.3984375,-0.421875 0.6328125,-0.421875 0.082031,0 0.1875,0 0.3749997,0.17578125 0.222657,0.2109375 0.363282,0.31640625 0.585938,0.31640625 0.738281,0 1.207031,-0.84375 1.207031,-1.07812499 0,-0.082031 -0.07031,-0.09375 -0.117187,-0.09375 -0.08203,0 -0.09375,0.035156 -0.128907,0.11718749 -0.128906,0.33984375 -0.539062,0.515625 -0.878906,0.515625 -0.164062,0 -0.339844,-0.0351563 -0.515625,-0.0820313 -0.3164062,-0.0703125 -0.3749999,-0.0703125 -0.4921874,-0.0703125 -0.023437,0 -0.1171875,0 -0.1640625,0.0117191 z m 0,0"
         style="fill:#000000;fill-opacity:1;fill-rule:nonzero;stroke:none" />
    </g>
  </g>
</svg>
