<?xml version="1.0" encoding="UTF-8" standalone="no"?>
<!DOCTYPE svg PUBLIC "-//W3C//DTD SVG 1.1//EN" "http://www.w3.org/Graphics/SVG/1.1/DTD/svg11.dtd">
<svg xmlns="http://www.w3.org/2000/svg" xmlns:xlink="http://www.w3.org/1999/xlink" version="1.1" width="422.8111pt" height="239.61943pt" viewBox="0 0 422.8111 239.61943">
<g enable-background="new">
<symbol id="font_0_1">
<path d="M .33500005 .011000037 C .337 .00999999 .34600003 0 .347 0 L .36900003 0 C .37200005 0 .38 .0009999275 .38 .00999999 C .38 .013999939 .37800003 .016000033 .37600006 .018999935 C .34000004 .054999949 .286 .110000018 .224 .22000003 C .116 .41199995 .076000008 .65900006 .076000008 .89900007 C .076000008 1.343 .20200002 1.6040001 .37700004 1.781 C .38 1.784 .38 1.7870001 .38 1.789 C .38 1.799 .37300004 1.799 .361 1.799 C .348 1.799 .34600003 1.799 .337 1.791 C .24200002 1.7090001 .13500002 1.57 .066 1.3590001 C .023000002 1.227 0 1.066 0 .90000006 C 0 .663 .042999999 .39499999 .20000002 .16299999 C .227 .12399995 .26400004 .082999948 .26400004 .08200002 C .27400003 .06999993 .28800003 .05400002 .296 .04699993 L .33500005 .011000037 Z "/>
</symbol>
<symbol id="font_0_3">
<path d="M .541 .11400002 C .492 .073000017 .439 .042999984 .388 .042999984 C .34800003 .042999984 .319 .060000004 .284 .07999998 C .25500003 .097 .224 .11400002 .18400002 .11400002 C .15900001 .11400002 .133 .106000009 .11100001 .096000019 C .091000009 .085999969 .071 .07499999 .054 .06099999 L 0 .01699996 L .014 0 C .063 .04100001 .116000007 .07099998 .16700001 .07099998 C .20700002 .07099998 .23600002 .05400002 .27100004 .03399998 C .3 .01699996 .33100004 0 .37100003 0 C .39600004 0 .42200003 .008000016 .44400005 .018000007 C .46400003 .027999998 .48400004 .038999976 .50100007 .052999975 L .555 .097 L .541 .11400002 Z "/>
</symbol>
<use xlink:href="#font_0_1" transform="matrix(27.673888,0,0,-27.673888,16.853522,59.875574)"/>
<use xlink:href="#font_0_3" transform="matrix(27.673888,0,0,-27.673888,35.566667,18.096487)"/>
<symbol id="font_1_2">
<path d="M .458 .411 L .374 .61 C .37100003 .61800006 .36900003 .62200006 .36900003 .623 C .36900003 .629 .386 .648 .428 .652 C .43800003 .65300008 .448 .65400007 .448 .671 C .448 .683 .43600003 .683 .433 .683 C .39200003 .683 .349 .68 .307 .68 C .282 .68 .22000002 .683 .19500003 .683 C .18900001 .683 .17700002 .683 .17700002 .66300007 C .17700002 .652 .18700002 .652 .20000002 .652 C .26 .652 .266 .642 .275 .62 L .393 .34100003 L .18200001 .11400001 L .16900002 .10300001 C .12 .05 .073 .034 .022000002 .031000002 C .0090000019 .030000002 0 .030000002 0 .011000001 C 0 .010000001 0 0 .013000002 0 C .042999999 0 .076000008 .003 .107 .003 C .14400001 .003 .18300002 0 .21900001 0 C .22500001 0 .237 0 .237 .020000002 C .237 .030000002 .22700002 .031000002 .22500001 .031000002 C .21600002 .032 .18500002 .034 .18500002 .062000004 C .18500002 .078 .20000002 .094000007 .21200001 .10700001 L .314 .215 L .404 .31300003 L .505 .074 C .509 .063 .51 .062000004 .51 .060000004 C .51 .052 .491 .035 .45200003 .031000002 C .441 .030000002 .432 .029000001 .432 .012 C .432 0 .44300003 0 .44700004 0 C .47500003 0 .545 .003 .573 .003 C .598 .003 .65900006 0 .684 0 C .69100007 0 .703 0 .703 .019000002 C .703 .031000002 .693 .031000002 .685 .031000002 C .61800006 .032 .616 .035 .59900006 .075 C .56 .16800002 .49300004 .324 .47 .384 C .538 .45400004 .643 .573 .675 .601 C .704 .625 .74200007 .64900007 .80200007 .652 C .81500008 .65300008 .824 .65300008 .824 .67200008 C .824 .67300006 .824 .683 .81100007 .683 C .781 .683 .748 .68 .717 .68 C .68 .68 .642 .683 .606 .683 C .6 .683 .587 .683 .587 .66300007 C .587 .656 .592 .65300008 .59900006 .652 C .60800006 .651 .639 .64900007 .639 .62100008 C .639 .60700008 .628 .59400007 .62 .58500006 L .458 .411 Z "/>
</symbol>
<use xlink:href="#font_1_2" transform="matrix(27.673888,0,0,-27.673888,29.147194,41.91664)"/>
<symbol id="font_2_3">
<path d="M .19700001 .0029999996 C .23600002 .0029999996 .283 .023000002 .33200003 .063 C .337 .067 .34600003 .069000009 .347 .062000004 C .35 .037 .358 .0029999996 .358 .0029999996 C .366 0 .37100003 .0010000002 .377 .0029999996 C .39900003 .021000002 .43400003 .036000004 .49500004 .043 C .50100007 .049000004 .50100007 .064 .49500004 .07000001 C .43100003 .075 .42200003 .094 .42200003 .143 L .42200003 .33500005 C .42200003 .36500005 .426 .43800003 .426 .43800003 C .426 .44100005 .423 .44400005 .418 .44400005 C .41300003 .44300003 .398 .44200004 .38300003 .44200004 C .351 .44200004 .315 .44300003 .28100003 .44400005 C .275 .43800003 .275 .41700004 .28100003 .41100005 C .33 .40800003 .343 .39600004 .343 .33 L .343 .13700001 C .343 .118 .34100003 .11 .327 .098000008 C .29 .066 .252 .05 .22700002 .05 C .19700001 .05 .14700002 .064 .14700002 .153 L .14700002 .33500005 C .14700002 .36500005 .15100001 .43800003 .15100001 .43800003 C .15100001 .44100005 .14800002 .44400005 .143 .44400005 C .13800001 .44300003 .123 .44200004 .108 .44200004 C .076 .44200004 .04 .44300003 .005999999 .44400005 C 0 .43800003 0 .41700004 .005999999 .41100005 C .053999999 .40700004 .068 .39600004 .068 .33100004 L .068 .139 C .068 .07000001 .098000008 .0029999996 .19700001 .0029999996 Z "/>
</symbol>
<symbol id="font_2_2">
<path d="M .16400002 .36 C .158 .35300002 .15200001 .351 .15200001 .36 C .15100001 .38700003 .14900002 .42600004 .14400001 .43600003 C .142 .441 .14000002 .44400005 .13200002 .44400005 C .104 .43300004 .078 .42400003 .009 .41500003 C .0069999995 .409 .009 .39300005 .011 .38700003 C .065 .38200004 .076 .37700004 .076 .319 L .076 .124000009 C .076 .042000005 .066 .038000004 .005999999 .033 C 0 .027 0 .006 .005999999 0 C .036 .001 .076 .002 .116000007 .002 C .15600002 .002 .18600002 .001 .21600002 0 C .22200002 .006 .22200002 .027 .21600002 .033 C .165 .038000004 .15500002 .042000005 .15500002 .124000009 L .15500002 .28800003 C .15500002 .30900003 .16400002 .321 .172 .33 C .21000001 .367 .255 .38900004 .294 .38900004 C .314 .38900004 .335 .37600003 .347 .35300002 C .357 .33300004 .359 .30600003 .359 .27600003 L .359 .124000009 C .359 .042000005 .349 .038000004 .297 .033 C .292 .027 .292 .006 .297 0 C .327 .001 .359 .002 .39900003 .002 C .439 .002 .47500003 .001 .50500008 0 C .51000007 .006 .51000007 .027 .50500008 .033 C .449 .038000004 .43800003 .042000005 .43800003 .124000009 L .43800003 .27300004 C .43800003 .328 .43400003 .37600003 .411 .40700004 C .39400003 .42900003 .363 .441 .328 .441 C .279 .441 .22300002 .42800004 .16400002 .36 Z "/>
</symbol>
<symbol id="font_2_1">
<path d="M .157 .124000009 L .157 .323 C .157 .37300004 .161 .43700005 .161 .43700005 C .161 .441 .156 .44400005 .148 .44400005 C .120000008 .43300004 .08 .42400003 .011 .41500003 C .009 .409 .011 .39300005 .013 .38700003 C .068 .38200004 .07800001 .37600003 .07800001 .319 L .07800001 .124000009 C .07800001 .041 .067 .038000004 .006000001 .033 C 0 .027 0 .006 .006000001 0 C .039 .001 .07800001 .002 .118 .002 C .158 .002 .19600001 .001 .22900002 0 C .235 .006 .235 .027 .22900002 .033 C .168 .037 .157 .041 .157 .124000009 M .066 .601 C .066 .575 .09 .549 .11400001 .549 C .142 .549 .16600001 .576 .16600001 .597 C .16600001 .621 .14500001 .649 .118 .649 C .09400001 .649 .066 .625 .066 .601 Z "/>
</symbol>
<symbol id="font_2_4">
<path d="M .32000003 .41000004 C .374 .40600003 .38000003 .39400003 .35900004 .34300003 L .27800004 .147 C .26200003 .108 .25700004 .108 .24100001 .15 L .16900002 .34300003 C .15100001 .391 .14700002 .40300004 .20000002 .41000004 C .20600002 .416 .20600002 .437 .20000002 .44300003 C .16700001 .442 .13200002 .441 .099 .441 C .066 .441 .036000004 .442 .0060000007 .44300003 C 0 .437 0 .416 .0060000007 .41000004 C .059000005 .404 .066 .388 .086 .337 L .21400002 .021000002 C .22000002 .006 .22600001 0 .23900002 0 C .24900002 0 .256 .006 .263 .023000002 L .39600004 .336 C .41500003 .38000003 .42600004 .405 .48200003 .41000004 C .48800005 .416 .48800005 .437 .48200003 .44300003 C .462 .442 .43800003 .441 .41200004 .441 C .379 .441 .34500004 .442 .32000003 .44300003 C .314 .437 .314 .416 .32000003 .41000004 Z "/>
</symbol>
<use xlink:href="#font_2_3" transform="matrix(19.371666,0,0,-19.371666,51.71521,46.31848)"/>
<use xlink:href="#font_2_2" transform="matrix(19.371666,0,0,-19.371666,62.001569,46.105394)"/>
<use xlink:href="#font_2_1" transform="matrix(19.371666,0,0,-19.371666,72.5785,46.105394)"/>
<use xlink:href="#font_2_4" transform="matrix(19.371666,0,0,-19.371666,77.46016,46.29911)"/>
<symbol id="font_1_1">
<path d="M .117000009 .194 C .117000009 .26 .092 .29900003 .05300001 .29900003 C .020000004 .29900003 0 .274 0 .246 C 0 .21900001 .020000004 .193 .05300001 .193 C .065000008 .193 .078 .197 .08800001 .206 C .091 .208 .092 .209 .093 .209 C .094000007 .209 .095000009 .208 .095000009 .194 C .095000009 .12 .06000001 .060000004 .027000003 .026999996 C .016000003 .016000003 .016000003 .013999999 .016000003 .0109999929 C .016000003 .003999993 .021000006 0 .026 0 C .037 0 .117000009 .077 .117000009 .194 Z "/>
</symbol>
<use xlink:href="#font_1_1" transform="matrix(27.673888,0,0,-27.673888,90.75495,47.2577)"/>
<symbol id="font_3_3">
<path d="M .333 .07800001 L .317 .092999998 C .317 .09200001 .279 .044999958 .23500002 .044999958 C .21200001 .044999958 .187 .060000004 .17000002 .06999999 C .143 .085999969 .125 .092999998 .10800001 .092999998 C .07000001 .092999998 .051 .07099998 0 .014999986 L .016000003 0 C .016000003 .0009999871 .054000006 .047999979 .098000008 .047999979 C .12100001 .047999979 .14600002 .032999994 .163 .023000002 C .19 .0069999697 .208 0 .22500003 0 C .263 0 .282 .021999956 .333 .07800001 Z "/>
</symbol>
<use xlink:href="#font_3_3" transform="matrix(27.673888,0,0,-27.673888,104.727489,26.004155)"/>
<symbol id="font_1_3">
<path d="M .305 .31300003 C .311 .33900003 .334 .43100003 .404 .43100003 C .409 .43100003 .433 .43100003 .454 .418 C .426 .41300003 .40600003 .388 .40600003 .36400003 C .40600003 .34800003 .417 .32900004 .444 .32900004 C .46600003 .32900004 .498 .34700004 .498 .38700003 C .498 .43900005 .439 .45300005 .405 .45300005 C .347 .45300005 .312 .40000005 .3 .37700004 C .275 .44300003 .221 .45300005 .19200002 .45300005 C .08800001 .45300005 .031000002 .32400004 .031000002 .29900003 C .031000002 .28900004 .041 .28900004 .043000007 .28900004 C .051000008 .28900004 .054000006 .291 .056 .3 C .09 .40600003 .156 .43100003 .19000001 .43100003 C .209 .43100003 .244 .42200003 .244 .36400003 C .244 .33300004 .22700002 .26600004 .19000001 .126 C .17400001 .064 .13900002 .022000002 .095000009 .022000002 C .08900001 .022000002 .06600001 .022000002 .045 .035 C .07000001 .040000004 .09200001 .061 .09200001 .089 C .09200001 .116000007 .07000001 .124000009 .055000009 .124000009 C .025 .124000009 0 .098000008 0 .06600001 C 0 .020000002 .050000006 0 .094000007 0 C .16000001 0 .19600001 .07000001 .19900002 .076000008 C .21100001 .039 .24700003 0 .307 0 C .41 0 .467 .12900001 .467 .15400002 C .467 .16400002 .458 .16400002 .455 .16400002 C .446 .16400002 .444 .16000001 .442 .15300001 C .409 .046 .341 .022000002 .30900003 .022000002 C .27 .022000002 .254 .054 .254 .08800001 C .254 .11000001 .26 .13200002 .271 .17600002 L .305 .31300003 Z "/>
</symbol>
<use xlink:href="#font_1_3" transform="matrix(27.673888,0,0,-27.673888,101.47476,42.221055)"/>
<symbol id="font_4_3">
<path d="M .22600001 .63600006 C .22600001 .66300007 .224 .66400006 .19600001 .66400006 C .132 .601 .041 .6 0 .6 L 0 .564 C .023999997 .564 .09000001 .564 .14500001 .592 L .14500001 .082 C .14500001 .049000004 .14500001 .036000004 .04500001 .036000004 L .0069999995 .036000004 L .0069999995 0 C .024999999 .001 .148 .004 .185 .004 C .21600002 .004 .34200005 .001 .36400003 0 L .36400003 .036000004 L .32600004 .036000004 C .22600001 .036000004 .22600001 .049000004 .22600001 .082 L .22600001 .63600006 Z "/>
</symbol>
<use xlink:href="#font_4_3" transform="matrix(19.371666,0,0,-19.371666,118.600399,46.06665)"/>
<symbol id="font_0_2">
<path d="M .38 .90000006 C .38 1.187 .313 1.4920001 .11600001 1.717 C .10200001 1.733 .065 1.7720001 .041000006 1.7930001 C .033999999 1.799 .032 1.799 .019000002 1.799 C .009 1.799 0 1.799 0 1.789 C 0 1.7850001 .0040000008 1.781 .006000001 1.779 C .040000004 1.7440001 .09400001 1.689 .156 1.579 C .264 1.3870001 .304 1.1400001 .304 .90000006 C .304 .46599997 .18400002 .20099998 .0040000008 .018000007 C .0020000004 .016000033 0 .013000011 0 .00999999 C 0 0 .009 0 .019000002 0 C .032 0 .033999999 0 .043 .008000016 C .13800001 .09000003 .24500002 .22899997 .314 .44000007 C .358 .577 .38 .73899999 .38 .90000006 Z "/>
</symbol>
<use xlink:href="#font_0_2" transform="matrix(27.673888,0,0,-27.673888,129.90183,59.875574)"/>
<symbol id="font_3_1">
<path d="M .23200003 .00999999 C .23200003 .012999982 .23200003 .014999986 .215 .03199999 C .09 .15799999 .058 .347 .058 .5 C .058 .674 .096 .84800007 .21900001 .97300007 C .23200003 .985 .23200003 .98700007 .23200003 .99 C .23200003 .99700006 .22800002 1 .222 1 C .21200001 1 .12200001 .93200007 .06299999 .805 C .012000002 .69500008 0 .584 0 .5 C 0 .422 .011 .301 .066 .188 C .126 .065 .21200001 0 .222 0 C .22800002 0 .23200003 .0029999912 .23200003 .00999999 Z "/>
</symbol>
<use xlink:href="#font_3_1" transform="matrix(27.673888,0,0,-27.673888,38.58416,218.45735)"/>
<use xlink:href="#font_1_2" transform="matrix(27.673888,0,0,-27.673888,47.35275,211.53888)"/>
<use xlink:href="#font_1_1" transform="matrix(27.673888,0,0,-27.673888,72.56365,216.87995)"/>
<use xlink:href="#font_1_3" transform="matrix(27.673888,0,0,-27.673888,83.301128,211.84329)"/>
<symbol id="font_4_2">
<path d="M .46400006 .33900003 C .46400006 .44900004 .45100004 .528 .40500004 .598 C .374 .644 .31200005 .684 .23200001 .684 C 0 .684 0 .41100005 0 .33900003 C 0 .26700003 0 0 .23200001 0 C .46400006 0 .46400006 .26700003 .46400006 .33900003 M .23200001 .028 C .186 .028 .125 .055 .105000007 .13700001 C .091000009 .19600001 .091000009 .27800004 .091000009 .35200004 C .091000009 .42500005 .091000009 .50100007 .106000009 .556 C .127 .635 .19100002 .656 .23200001 .656 C .286 .656 .338 .623 .356 .565 C .37200005 .51100006 .37300004 .43900005 .37300004 .35200004 C .37300004 .27800004 .37300004 .20400001 .36 .141 C .34000004 .050000006 .272 .028 .23200001 .028 Z "/>
</symbol>
<use xlink:href="#font_4_2" transform="matrix(19.371666,0,0,-19.371666,99.29066,216.07909)"/>
<symbol id="font_3_2">
<path d="M .232 .5 C .232 .578 .22100002 .699 .16600001 .81200006 C .106 .93500009 .020000004 1 .009999998 1 C .0040000008 1 0 .99600008 0 .99 C 0 .98700007 0 .985 .019000002 .967 C .117000009 .86800006 .174 .709 .174 .5 C .174 .329 .137 .153 .012999997 .026999996 C 0 .014999986 0 .012999982 0 .00999999 C 0 .003999993 .0040000008 0 .009999998 0 C .020000004 0 .11000001 .06799999 .169 .195 C .22 .305 .232 .416 .232 .5 Z "/>
</symbol>
<use xlink:href="#font_3_2" transform="matrix(27.673888,0,0,-27.673888,112.27463,218.45735)"/>
<use xlink:href="#font_0_1" transform="matrix(27.673888,0,0,-27.673888,306.99238,229.50058)"/>
<use xlink:href="#font_0_3" transform="matrix(27.673888,0,0,-27.673888,325.70829,187.7187)"/>
<use xlink:href="#font_1_2" transform="matrix(27.673888,0,0,-27.673888,319.28605,211.53888)"/>
<use xlink:href="#font_4_3" transform="matrix(19.371666,0,0,-19.371666,343.57814,215.69165)"/>
<use xlink:href="#font_1_1" transform="matrix(27.673888,0,0,-27.673888,356.26045,216.87995)"/>
<use xlink:href="#font_3_3" transform="matrix(27.673888,0,0,-27.673888,370.23576,195.62639)"/>
<use xlink:href="#font_1_3" transform="matrix(27.673888,0,0,-27.673888,366.98307,211.84329)"/>
<use xlink:href="#font_4_3" transform="matrix(19.371666,0,0,-19.371666,384.10868,215.69165)"/>
<use xlink:href="#font_0_2" transform="matrix(27.673888,0,0,-27.673888,395.4073,229.50058)"/>
<path transform="matrix(2.7777777,0,0,-2.7777777,211.40555,119.811107)" stroke-width=".39848" stroke-linecap="butt" stroke-miterlimit="10" stroke-linejoin="miter" fill="none" stroke="#000000" d="M -47.79189 17.73375 L -47.79189 -21.32045 "/>
<path transform="matrix(0,2.7777777,2.7777777,0,78.650318,179.588)" stroke-width=".39848" stroke-linecap="round" stroke-linejoin="round" fill="none" stroke="#000000" d="M -2.07213 2.39091 C -1.69356 .95633 -.84995 .27893 0 0 C -.84995 -.27893 -1.69356 -.95633 -2.07213 -2.39091 "/>
<symbol id="font_5_1">
<path d="M .076000008 .072 C .069000009 .044 .067 .036 .027 .036 C .014 .036 0 .036 0 .015000001 C 0 .003999993 .009000001 0 .014 0 C .04 0 .07300001 .003999993 .10000001 .003999993 C .134 .003999993 .172 0 .20500002 0 C .21400002 0 .22500001 .0029999912 .22500001 .022 C .22500001 .036 .21100001 .036 .19900002 .036 C .17700002 .036 .15 .036 .15 .047999994 C .15 .053000004 .157 .079 .16100002 .094000007 C .17300001 .147 .187 .201 .19800002 .243 C .21000001 .223 .24100001 .184 .301 .184 C .423 .184 .558 .319 .558 .46800003 C .558 .58500006 .477 .635 .408 .635 C .34600003 .635 .293 .59300008 .266 .56500008 C .24900002 .62200006 .193 .635 .163 .635 C .124000009 .635 .10000001 .609 .08400001 .582 C .064 .548 .048 .488 .048 .48200003 C .048 .469 .062000004 .469 .065000008 .469 C .079 .469 .080000009 .47200004 .087000008 .499 C .102000009 .55700007 .12100001 .607 .16000001 .607 C .186 .607 .193 .58500006 .193 .558 C .193 .54700008 .19100002 .53400006 .19000001 .528 L .076000008 .072 M .265 .515 C .323 .592 .373 .607 .405 .607 C .444 .607 .47800002 .578 .47800002 .51 C .47800002 .469 .456 .367 .426 .30900003 C .401 .26 .352 .21200001 .301 .21200001 C .23000002 .21200001 .21200001 .289 .21200001 .29900003 C .21200001 .303 .21400002 .31 .21500002 .314 L .265 .515 Z "/>
</symbol>
<use xlink:href="#font_5_1" transform="matrix(19.371666,0,0,-19.371666,33.877859,131.38864)"/>
<use xlink:href="#font_2_3" transform="matrix(13.836944,0,0,-13.836944,45.5823,130.57988)"/>
<use xlink:href="#font_2_2" transform="matrix(13.836944,0,0,-13.836944,52.929719,130.42768)"/>
<use xlink:href="#font_2_1" transform="matrix(13.836944,0,0,-13.836944,60.48469,130.42768)"/>
<use xlink:href="#font_2_4" transform="matrix(13.836944,0,0,-13.836944,63.9716,130.56604)"/>
<path transform="matrix(2.7777777,0,0,-2.7777777,211.40555,119.811107)" stroke-width=".39848" stroke-linecap="butt" stroke-dasharray="2.78941,1.59395" stroke-miterlimit="10" stroke-linejoin="miter" fill="none" stroke="#000000" d="M -26.8394 17.73375 L 30.92715 -17.52617 "/>
<path transform="matrix(2.3708888,1.4471388,1.4471388,-2.3708888,297.78666,168.78325)" stroke-width=".39848" stroke-linecap="round" stroke-linejoin="round" fill="none" stroke="#000000" d="M -2.07213 2.39091 C -1.69356 .95633 -.84995 .27893 0 0 C -.84995 -.27893 -1.69356 -.95633 -2.07213 -2.39091 "/>
<symbol id="font_4_1">
<path d="M .11500001 .65900006 C .11500001 .69500008 .08400001 .71400007 .058 .71400007 C .029 .71400007 0 .693 0 .65900006 L .039000006 .21800001 C .04100001 .19600001 .044 .194 .058 .194 C .07100001 .194 .074 .19600001 .076000008 .21700001 L .11500001 .65900006 M .11500001 .058000003 C .11500001 .089 .089 .115 .058 .115 C .023000002 .115 0 .087000008 0 .058000003 C 0 .023000002 .027999998 0 .05700001 0 C .09 0 .11500001 .025 .11500001 .058000003 Z "/>
</symbol>
<use xlink:href="#font_4_1" transform="matrix(19.371666,0,0,-19.371666,226.0591,113.31944)"/>
<path transform="matrix(2.7777777,0,0,-2.7777777,211.40555,119.811107)" stroke-width=".39848" stroke-linecap="butt" stroke-miterlimit="10" stroke-linejoin="miter" fill="none" stroke="#000000" d="M 28.14517 -30.5325 L -27.50899 -30.5325 "/>
<path transform="matrix(-2.7777777,0,0,2.7777777,134.43828,204.6236)" stroke-width=".39848" stroke-linecap="round" stroke-linejoin="round" fill="none" stroke="#000000" d="M -2.07213 2.39091 C -1.69356 .95633 -.84995 .27893 0 0 C -.84995 -.27893 -1.69356 -.95633 -2.07213 -2.39091 "/>
<use xlink:href="#font_5_1" transform="matrix(19.371666,0,0,-19.371666,206.01119,223.21086)"/>
</g>
</svg>
