<?xml version="1.0" encoding="UTF-8" standalone="no"?>
<!-- Created with Inkscape (http://www.inkscape.org/) -->

<svg
   version="1.1"
   id="svg1"
   width="126.408"
   height="89.557335"
   viewBox="0 0 126.408 89.557335"
   sodipodi:docname="Draft.pdf"
   inkscape:export-filename="../68d636aa/.svg"
   inkscape:export-xdpi="96"
   inkscape:export-ydpi="96"
   xmlns:inkscape="http://www.inkscape.org/namespaces/inkscape"
   xmlns:sodipodi="http://sodipodi.sourceforge.net/DTD/sodipodi-0.dtd"
   xmlns="http://www.w3.org/2000/svg"
   xmlns:svg="http://www.w3.org/2000/svg">
  <defs
     id="defs1" />
  <sodipodi:namedview
     id="namedview1"
     pagecolor="#ffffff"
     bordercolor="#000000"
     borderopacity="0.25"
     inkscape:showpageshadow="2"
     inkscape:pageopacity="0.0"
     inkscape:pagecheckerboard="0"
     inkscape:deskcolor="#d1d1d1">
    <inkscape:page
       x="0"
       y="0"
       inkscape:label="1"
       id="page1"
       width="126.408"
       height="89.557335"
       margin="0"
       bleed="0" />
  </sodipodi:namedview>
  <g
     id="g1"
     inkscape:groupmode="layer"
     inkscape:label="1">
    <g
       id="g2"
       aria-label="U(L)"
       transform="matrix(1.3333333,0,0,1.3333333,5.6986667,14.806667)">
      <path
         id="path2"
         d="m 6.3285391,-5.7524609 c 0.09375,-0.4101563 0.28125,-0.7148438 1.078125,-0.7382813 0.046875,0 0.1640625,-0.011719 0.1640625,-0.1992187 0,-0.011719 0,-0.1171875 -0.1289063,-0.1171875 -0.328125,0 -0.6796875,0.035156 -1.0195312,0.035156 -0.3398438,0 -0.703125,-0.035156 -1.03125,-0.035156 -0.058594,0 -0.1757813,0 -0.1757813,0.1992187 0,0.1171875 0.09375,0.1171875 0.1757813,0.1171875 0.5625,0.011719 0.6796875,0.2109375 0.6796875,0.4335938 0,0.035156 -0.023437,0.1757812 -0.035156,0.2109375 l -0.890625,3.5507812 c -0.3398437,1.33593751 -1.4882812,2.20312501 -2.484375,2.20312501 -0.6796875,0 -1.21875,-0.43359375 -1.21875,-1.28906251 0,-0.023437 0,-0.3398437 0.1171875,-0.7734375 l 0.9609375,-3.8789062 c 0.09375,-0.3632813 0.1054688,-0.4570313 0.8320313,-0.4570313 0.2695312,0 0.3398437,0 0.3398437,-0.1992187 0,-0.1171875 -0.1054687,-0.1171875 -0.140625,-0.1171875 -0.2695312,0 -0.9960937,0.035156 -1.265625,0.035156 -0.2929687,0 -0.9960937,-0.035156 -1.28906249,-0.035156 -0.0820313,0 -0.1875,0 -0.1875,0.1992187 0,0.1171875 0.09375,0.1171875 0.28124999,0.1171875 0.011719,0 0.2109375,0 0.375,0.011719 0.1757813,0.023437 0.2695313,0.035156 0.2695313,0.1640625 0,0.058594 -0.1054688,0.4804687 -0.1757813,0.703125 l -0.2109375,0.8789062 c -0.09375,0.3867188 -0.57421874,2.2734375 -0.60937499,2.4609375 -0.0703125,0.28125 -0.0703125,0.4335938 -0.0703125,0.5742188 0,1.21874996 0.90234379,1.92187496 1.95703129,1.92187496 1.2539062,0 2.484375,-1.125 2.8125,-2.44921876 z m 0,0"
         style="fill:#000000;fill-opacity:1;fill-rule:nonzero;stroke:none" />
      <path
         id="path3"
         d="m 11.180102,2.3920703 c 0,-0.035156 0,-0.046875 -0.164063,-0.2226562 -1.2421874,-1.25390629 -1.5703124,-3.12890629 -1.5703124,-4.6640625 0,-1.7226563 0.3867187,-3.4570313 1.6054684,-4.7109375 0.128907,-0.1171875 0.128907,-0.1289063 0.128907,-0.1640625 0,-0.070312 -0.03516,-0.1054688 -0.09375,-0.1054688 -0.105469,0 -0.996094,0.6796875 -1.5820317,1.9453125 -0.515625,1.1015625 -0.6328125,2.203125 -0.6328125,3.0351563 0,0.7851562 0.1171875,1.99218746 0.65625,3.11718746 0.5976562,1.21875004 1.4531252,1.87500004 1.5585942,1.87500004 0.05859,0 0.09375,-0.035156 0.09375,-0.1054688 z m 0,0"
         style="fill:#000000;fill-opacity:1;fill-rule:nonzero;stroke:none" />
      <path
         id="path4"
         d="m 15.489672,-6.0219922 c 0.09375,-0.3632812 0.117187,-0.46875 1.054687,-0.46875 0.304688,0 0.375,0 0.375,-0.1875 0,-0.1289062 -0.105468,-0.1289062 -0.152343,-0.1289062 -0.328125,0 -1.148438,0.035156 -1.476563,0.035156 -0.304687,0 -1.03125,-0.035156 -1.324219,-0.035156 -0.07031,0 -0.1875,0 -0.1875,0.1992187 0,0.1171875 0.08203,0.1171875 0.28125,0.1171875 0.01172,0 0.199219,0 0.375,0.011719 0.175782,0.023437 0.269532,0.035156 0.269532,0.1640625 0,0.035156 -0.01172,0.070312 -0.04687,0.1875 l -1.335938,5.35546871 c -0.09375,0.38671875 -0.117187,0.46875 -0.902344,0.46875 -0.164062,0 -0.269531,0 -0.269531,0.19921875 0,0.10546875 0.09375,0.10546875 0.269531,0.10546875 h 4.617188 c 0.234375,0 0.246094,0 0.304687,-0.1640625 L 18.126396,-2.318867 c 0.04687,-0.1054687 0.04687,-0.1289062 0.04687,-0.140625 0,-0.035156 -0.03516,-0.1054687 -0.128907,-0.1054687 -0.08203,0 -0.09375,0.046875 -0.164062,0.2109375 -0.339844,0.9140625 -0.773438,2.05078121 -2.496094,2.05078121 h -0.9375 c -0.140625,0 -0.164062,0 -0.222656,-0.0117188 -0.105469,-0.0117188 -0.128906,-0.0234375 -0.128906,-0.10546875 0,-0.0234375 0,-0.046875 0.04687,-0.22265625 z m 0,0"
         style="fill:#000000;fill-opacity:1;fill-rule:nonzero;stroke:none" />
      <path
         id="path5"
         d="m 21.425219,-2.4946484 c 0,-0.7734375 -0.117188,-1.9804688 -0.65625,-3.1054688 -0.597657,-1.21875 -1.464844,-1.875 -1.558594,-1.875 -0.05859,0 -0.105469,0.046875 -0.105469,0.1054688 0,0.035156 0,0.046875 0.199219,0.234375 0.972656,0.984375 1.535156,2.5664062 1.535156,4.640625 0,1.71093746 -0.363281,3.45703121 -1.59375,4.7226562 -0.140625,0.1171875 -0.140625,0.1289063 -0.140625,0.1640625 0,0.058594 0.04687,0.1054688 0.105469,0.1054688 0.09375,0 0.996094,-0.6796875 1.582031,-1.94531254 0.503906,-1.1015625 0.632813,-2.20312496 0.632813,-3.04687496 z m 0,0"
         style="fill:#000000;fill-opacity:1;fill-rule:nonzero;stroke:none" />
    </g>
    <path
       id="path6"
       d="m 3.7273125,-6.0223047 c 0.09375,-0.3632812 0.1171875,-0.46875 1.0546875,-0.46875 0.3046875,0 0.375,0 0.375,-0.1875 0,-0.1289062 -0.1054688,-0.1289062 -0.1523438,-0.1289062 -0.328125,0 -1.1484374,0.035156 -1.4765624,0.035156 -0.3046875,0 -1.03125,-0.035156 -1.3242188,-0.035156 -0.070312,0 -0.1875,0 -0.1875,0.1992187 0,0.1171875 0.082031,0.1171875 0.28125,0.1171875 0.011719,0 0.1992188,0 0.375,0.011719 0.1757813,0.023437 0.2695313,0.035156 0.2695313,0.1640625 0,0.035156 -0.011719,0.070312 -0.046875,0.1875 l -1.3359376,5.35546871 c -0.09375,0.38671875 -0.1171875,0.46875 -0.9023437,0.46875 -0.1640625,0 -0.26953125,0 -0.26953125,0.19921875 0,0.10546875 0.09375,0.10546875 0.26953125,0.10546875 h 4.6171875 c 0.234375,0 0.2460937,0 0.3046875,-0.1640625 L 6.3640312,-2.3191797 c 0.046875,-0.1054687 0.046875,-0.1289062 0.046875,-0.140625 0,-0.035156 -0.035156,-0.1054687 -0.1289062,-0.1054687 -0.082031,0 -0.09375,0.046875 -0.1640625,0.2109375 C 5.7780937,-1.4402734 5.3445,-0.30355469 3.6218438,-0.30355469 h -0.9375 c -0.140625,0 -0.1640625,0 -0.2226563,-0.0117188 -0.1054687,-0.0117188 -0.1289062,-0.0234375 -0.1289062,-0.10546875 0,-0.0234375 0,-0.046875 0.046875,-0.22265625 z m 0,0"
       style="fill:#000000;fill-opacity:1;fill-rule:nonzero;stroke:none"
       aria-label="L"
       transform="matrix(1.3333333,0,0,1.3333333,16.124,84.713333)" />
    <path
       id="path7"
       d="m 1.7808203,-1.1473047 c -0.3984375,0.66796876 -0.78515624,0.80859376 -1.21874999,0.84375001 -0.12890625,0 -0.2109375,0 -0.2109375,0.19921875 0,0.05859375 0.046875,0.10546875 0.12890625,0.10546875 0.26953125,0 0.57421874,-0.03515625 0.85546874,-0.03515625 0.328125,0 0.6796875,0.03515625 0.9960938,0.03515625 0.058594,0 0.1875,0 0.1875,-0.1875 0,-0.1171875 -0.09375,-0.1171875 -0.1640625,-0.1171875 -0.2226563,-0.0234375 -0.4570313,-0.10546875 -0.4570313,-0.3515625 0,-0.1171875 0.058594,-0.234375 0.1289063,-0.37500001 l 0.7617187,-1.265625 h 2.4960938 c 0.023437,0.1992188 0.1640625,1.55859376 0.1640625,1.66406251 0,0.29296875 -0.515625,0.328125 -0.7148438,0.328125 -0.140625,0 -0.2460937,0 -0.2460937,0.19921875 0,0.10546875 0.1289062,0.10546875 0.140625,0.10546875 0.4101562,0 0.84375,-0.03515625 1.2539062,-0.03515625 0.2460938,0 0.8671875,0.03515625 1.125,0.03515625 0.058594,0 0.1757813,0 0.1757813,-0.19921875 0,-0.10546875 -0.1054688,-0.10546875 -0.234375,-0.10546875 -0.609375,0 -0.609375,-0.0703125 -0.6445313,-0.36328125 L 5.6948828,-6.8894922 c -0.011719,-0.1992187 -0.011719,-0.2460937 -0.1875,-0.2460937 -0.1640625,0 -0.1992187,0.070312 -0.2578125,0.1757812 z m 1.1953125,-1.4648437 1.96875,-3.28125 0.3164063,3.28125 z m 0,0"
       style="fill:#000000;fill-opacity:1;fill-rule:nonzero;stroke:none"
       aria-label="A"
       transform="matrix(1.3333333,0,0,1.3333333,110.74667,84.713333)" />
    <path
       id="path8"
       d="M -19.93538,16.15631 30.86308,-21.1927"
       style="fill:none;stroke:#000000;stroke-width:0.39848;stroke-linecap:butt;stroke-linejoin:miter;stroke-miterlimit:10;stroke-dasharray:none;stroke-opacity:1"
       transform="matrix(1.3333333,0,0,-1.3333333,63.204,44.778667)" />
    <path
       id="path9"
       d="M -2.07213,2.39091 C -1.69356,0.95633 -0.84995,0.27893 0,0 -0.84995,-0.27893 -1.69356,-0.95633 -2.07213,-2.39091"
       style="fill:none;stroke:#000000;stroke-width:0.39848;stroke-linecap:round;stroke-linejoin:round;stroke-miterlimit:10;stroke-dasharray:none;stroke-opacity:1"
       transform="matrix(1.0741733,0.78977333,0.78977333,-1.0741733,104.56879,73.192933)" />
    <g
       id="g9"
       aria-label="˜&#10;ϕ"
       transform="matrix(1.3333333,0,0,1.3333333,75.221333,40.917333)">
      <path
         id="path10"
         d="m 3.1298984,-4.6870234 c -0.2109375,0.2109375 -0.4101562,0.3164062 -0.609375,0.3164062 -0.1757812,0 -0.3867187,-0.1054687 -0.4453125,-0.140625 -0.2460937,-0.1171875 -0.3984375,-0.1757812 -0.5507812,-0.1757812 -0.28125,0 -0.3867188,0.1054687 -0.82031251,0.5507812 l 0.12890625,0.140625 C 1.0439609,-4.2065547 1.2431797,-4.3120234 1.4423984,-4.3120234 c 0.1757813,0 0.3867188,0.1054687 0.4453125,0.140625 0.2460938,0.1171875 0.3984375,0.1757812 0.5507813,0.1757812 0.28125,0 0.3867187,-0.1054687 0.8203125,-0.5625 z m 0,0"
         style="fill:#000000;fill-opacity:1;fill-rule:nonzero;stroke:none" />
      <path
         id="path11"
         d="m 2.3798984,-2.9057734 c 0,-0.09375 -0.082031,-0.09375 -0.1171875,-0.09375 -0.1054687,0 -0.1171875,0.035156 -0.140625,0.1523437 l -0.3984375,1.59375 c -1.24218746,0.058594 -2.28515621,0.94921876 -2.28515621,1.87500001 0,0.79687499 0.71484375,1.26562499 1.48828125,1.30078129 -0.0585938,0.2109375 -0.10546875,0.4335937 -0.1640625,0.6445312 -0.0820313,0.328125 -0.140625,0.5859375 -0.140625,0.609375 0,0.082031 0.09375,0.082031 0.10546875,0.082031 0.10546875,0 0.1171875,-0.011719 0.15234375,-0.1640625 L 1.1728672,1.9223516 c 1.1953125,-0.046875 2.2851562,-0.92578129 2.2851562,-1.87500004 0,-0.7265625 -0.6445312,-1.25390626 -1.4882812,-1.28906246 z M 0.97364844,1.7231328 c -0.5390625,-0.023437 -1.03125,-0.3164062 -1.03125,-0.97265624 0,-0.703125 0.52734375,-1.6875 1.72265626,-1.79296876 z m 0.93749996,-2.765625 c 0.5390625,0.011719 1.0429688,0.30468751 1.0429688,0.97265626 0,0.76171875 -0.609375,1.69921874 -1.734375,1.79296874 z m 0,0"
         style="fill:#000000;fill-opacity:1;fill-rule:nonzero;stroke:none" />
    </g>
    <path
       id="path12"
       d="M -31.92064,-19.3112 V 15.75783"
       style="fill:none;stroke:#000000;stroke-width:0.39848;stroke-linecap:butt;stroke-linejoin:miter;stroke-miterlimit:10;stroke-dasharray:none;stroke-opacity:1"
       transform="matrix(1.3333333,0,0,-1.3333333,63.204,44.778667)" />
    <path
       id="path13"
       d="M -2.07213,2.39091 C -1.69356,0.95633 -0.84995,0.27893 0,0 -0.84995,-0.27893 -1.69356,-0.95633 -2.07213,-2.39091"
       style="fill:none;stroke:#000000;stroke-width:0.39848;stroke-linecap:round;stroke-linejoin:round;stroke-miterlimit:10;stroke-dasharray:none;stroke-opacity:1"
       transform="matrix(0,-1.3333333,-1.3333333,0,20.643147,23.502587)" />
    <path
       id="path14"
       d="m 2.2610781,-4.3606016 c 0,-0.1054687 -0.082031,-0.2578125 -0.28125,-0.2578125 -0.1875,0 -0.3867187,0.1757813 -0.3867187,0.375 0,0.1171875 0.082031,0.2695313 0.2695312,0.2695313 0.2109375,0 0.3984375,-0.1992188 0.3984375,-0.3867188 z m -1.42968747,3.53906254 c -0.0234375,0.09375 -0.0585938,0.17578125 -0.0585938,0.29296875 0,0.328125 0.28125007,0.59765625 0.66796867,0.59765625 0.6914064,0 0.9960939,-0.9609375 0.9960939,-1.06640625 0,-0.09375 -0.082031,-0.09375 -0.1054688,-0.09375 -0.1054687,0 -0.1054687,0.046875 -0.140625,0.11718748 -0.1523437,0.5625 -0.4570313,0.84375 -0.7382812,0.84375 -0.140625,0 -0.1757813,-0.0820313 -0.1757813,-0.24609375 0,-0.15234375 0.058594,-0.29296875 0.1171875,-0.4453125 0.070312,-0.18750003 0.140625,-0.37500003 0.2226563,-0.55078123 0.058594,-0.1640625 0.3164062,-0.8085938 0.3398437,-0.890625 0.023437,-0.070312 0.046875,-0.1523438 0.046875,-0.2226563 0,-0.328125 -0.2812501,-0.5859375 -0.6679687,-0.5859375 -0.69140632,0 -1.00781257,0.9492188 -1.00781257,1.0664063 0,0.082031 0.09375,0.082031 0.1171875,0.082031 0.09375,0 0.10546875,-0.035156 0.12890625,-0.1054687 0.17578125,-0.5976563 0.48046882,-0.8554688 0.73828132,-0.8554688 0.1171875,0 0.1757812,0.058594 0.1757812,0.2460938 0,0.1640625 -0.035156,0.2695312 -0.2109375,0.703125 z m 0,0"
       style="fill:#000000;fill-opacity:1;fill-rule:nonzero;stroke:none"
       aria-label="i"
       transform="matrix(1.3333333,0,0,1.3333333,23.758667,49.958667)" />
    <path
       id="path15"
       d="M -24.05725,-27.46057 H 30.78563"
       style="fill:none;stroke:#000000;stroke-width:0.39848;stroke-linecap:butt;stroke-linejoin:miter;stroke-miterlimit:10;stroke-dasharray:none;stroke-opacity:1"
       transform="matrix(1.3333333,0,0,-1.3333333,63.204,44.778667)" />
    <path
       id="path16"
       d="M -2.07213,2.39091 C -1.69356,0.95633 -0.84995,0.27893 0,0 -0.84995,-0.27893 -1.69356,-0.95633 -2.07213,-2.39091"
       style="fill:none;stroke:#000000;stroke-width:0.39848;stroke-linecap:round;stroke-linejoin:round;stroke-miterlimit:10;stroke-dasharray:none;stroke-opacity:1"
       transform="matrix(1.3333333,0,0,-1.3333333,104.51715,81.39276)" />
    <path
       id="path17"
       d="m 3.4338828,-4.7465313 c 0,-0.09375 -0.082031,-0.09375 -0.1171875,-0.09375 -0.1054687,0 -0.1171875,0.035156 -0.140625,0.1523438 l -0.3984375,1.59375 c -1.2421875,0.058594 -2.28515624,0.9492187 -2.28515624,1.875 0,0.796875 0.71484374,1.265625 1.48828124,1.30078125 C 1.9221641,0.29253125 1.8752891,0.5151875 1.8166953,0.726125 1.7346641,1.05425 1.6760703,1.3120625 1.6760703,1.3355 c 0,0.082031 0.09375,0.082031 0.1054688,0.082031 0.1054687,0 0.1171875,-0.011719 0.1523437,-0.1640625 L 2.2268516,0.08159375 c 1.1953125,-0.046875 2.2851562,-0.92578125 2.2851562,-1.87500005 0,-0.7265625 -0.6445312,-1.2539062 -1.4882812,-1.2890625 z m -1.40625,4.6289063 C 1.4885703,-0.1410625 0.99638281,-0.43403125 0.99638281,-1.0902813 c 0,-0.703125 0.52734379,-1.6875 1.72265629,-1.7929687 z m 0.9375,-2.765625 c 0.5390625,0.011719 1.0429688,0.3046875 1.0429688,0.9726562 0,0.7617188 -0.609375,1.6992188 -1.734375,1.7929688 z m 0,0"
       style="fill:#000000;fill-opacity:1;fill-rule:nonzero;stroke:none"
       aria-label="ϕ"
       transform="matrix(1.3333333,0,0,1.3333333,64.761333,76.469333)" />
  </g>
</svg>
