<svg xmlns="http://www.w3.org/2000/svg" xmlns:xlink="http://www.w3.org/1999/xlink" xmlns:inkscape="http://www.inkscape.org/namespaces/inkscape" version="1.1" width="160.928" height="78.602" viewBox="0 0 160.928 78.602">
<defs>
<path id="font_0_1" d="M.5149994-1.7478027C.5169983-1.7487946 .526001-1.7587891 .5269928-1.7587891H.548996C.5519867-1.7587891 .55999758-1.7577973 .55999758-1.7487946 .55999758-1.7447968 .55799868-1.7427979 .55599978-1.7397919 .519989-1.7037964 .46598817-1.6488037 .4039917-1.5388184 .29599-1.3468323 .2559967-1.0998688 .2559967-.8598938 .2559967-.41593934 .38198854-.154953 .5569916 .022033692 .55999758 .025024414 .55999758 .028030396 .55999758 .030029297 .55999758 .040039064 .5529938 .040039064 .54100039 .040039064 .5279999 .040039064 .526001 .040039064 .5169983 .0320282 .42199708-.049972536 .31498719-.18894959 .24598694-.39993287 .20298767-.5319214 .17999268-.6929016 .17999268-.8588867 .17999268-1.0958557 .22299195-1.3638306 .37998963-1.5958099 .40699769-1.6348114 .44400025-1.6757965 .44400025-1.6768036 .45399476-1.688797 .46798707-1.7048035 .47599793-1.711792L.5149994-1.7478027Z"/>
<path id="font_0_3" d="M.54100039 .7217102C.49198915 .68070986 .43899537 .6513672 .3880005 .6513672 .34799195 .6513672 .31900025 .66796877 .28399659 .68769839 .25498963 .70469668 .22399903 .7217102 .18399048 .7217102 .15899658 .7217102 .1329956 .71369937 .11099243 .70370486 .09098816 .6937103 .070999149 .68270877 .053985597 .6689453L0 .6253662 .01399231 .60835269C.06298828 .649353 .115997318 .67871096 .16699219 .67871096 .20698548 .67871096 .23599243 .6621094 .2709961 .6423645 .2999878 .6253662 .33099366 .60835269 .37098695 .60835269 .3959961 .60835269 .42199708 .6163635 .44400025 .62635806 .46398927 .63635256 .48399354 .6473541 .5009918 .6611328L.5549927 .70469668 .54100039 .7217102Z"/>
<path id="font_1_2" d="M.4850006 .41075135 .40098573 .6096344C.397995 .61763 .3959961 .6216278 .3959961 .6226196 .3959961 .62861636 .41299439 .6476135 .45498658 .6516113 .46499635 .65260317 .47499085 .6536102 .47499085 .6706085 .47499085 .6826172 .46299745 .6826172 .45999146 .6826172 .4189911 .6826172 .37599183 .6796112 .33399964 .6796112 .30899049 .6796112 .24699402 .6826172 .22200012 .6826172 .21598816 .6826172 .20399475 .6826172 .20399475 .6626129 .20399475 .6516113 .21398926 .6516113 .22698975 .6516113 .2869873 .6516113 .29299928 .6416168 .3019867 .6196289L.41999818 .34080506 .20899964 .11393738 .19599915 .10295105C.14698792 .049987794 .099990848 .033996583 .04899597 .0309906 .035995485 .02999878 .026992798 .02999878 .026992798 .010986328 .026992798 .009994507 .026992798 0 .039993287 0 .069992069 0 .102996829 .0029907227 .13398743 .0029907227 .17098999 .0029907227 .20999146 0 .24598694 0 .2519989 0 .2639923 0 .2639923 .019989014 .2639923 .02999878 .2539978 .0309906 .2519989 .0309906 .24299622 .03199768 .21199036 .033996583 .21199036 .061965944 .21199036 .07795715 .22698975 .093948367 .23899842 .10694885L.34098817 .21487427 .43099977 .31282044 .5319977 .07395935C.5359955 .06297302 .5369873 .061965944 .5369873 .05996704 .5369873 .051986696 .5179901 .034988405 .47898866 .0309906 .46798707 .02999878 .45899964 .0289917 .45899964 .011993408 .45899964 0 .46998597 0 .47399903 0 .5019989 0 .57199099 .0029907227 .59999087 .0029907227 .625 .0029907227 .6859894 0 .71099856 0 .71798709 0 .7299957 0 .7299957 .018997193 .7299957 .0309906 .7200012 .0309906 .71199038 .0309906 .644989 .03199768 .6429901 .034988405 .6259918 .07496643 .58699038 .16790772 .519989 .32380677 .49699403 .3837738 .5649872 .45373536 .66999819 .5726471 .70199587 .6006317 .73098757 .62461856 .7689972 .64860537 .82899478 .6516113 .84199526 .65260317 .8509979 .65260317 .8509979 .6716156 .8509979 .6726074 .8509979 .6826172 .83799746 .6826172 .80799868 .6826172 .7749939 .6796112 .74398806 .6796112 .70700076 .6796112 .6689911 .6826172 .6329956 .6826172 .6269989 .6826172 .6139984 .6826172 .6139984 .6626129 .6139984 .65560916 .61898806 .65260317 .6259918 .6516113 .6349945 .65060427 .66600039 .64860537 .66600039 .6206207 .66600039 .6066284 .6549988 .5936432 .6469879 .5846405L.4850006 .41075135Z"/>
<path id="font_2_1" d="M.33499146 .63612368C.33499146 .6630554 .33299256 .6640625 .30499269 .6640625 .24099732 .6014404 .1499939 .6004486 .10899353 .6004486V.5644531C.1329956 .5644531 .19898987 .5644531 .2539978 .592453V.08203125C.2539978 .04899597 .2539978 .035995485 .1539917 .035995485H.115997318V0C.13398743 .0009918213 .25698854 .0039978029 .2939911 .0039978029 .32499696 .0039978029 .45098878 .0009918213 .47299195 0V.035995485H.43499757C.33499146 .035995485 .33499146 .04899597 .33499146 .08203125V.63612368Z"/>
<path id="font_1_1" d="M.20298767 .0009918213C.20298767 .066986087 .17799378 .10598755 .13899231 .10598755 .10598755 .10598755 .085998538 .08099365 .085998538 .052993776 .085998538 .025985718 .10598755 0 .13899231 0 .15098572 0 .1639862 .0039978029 .17399597 .0129852299 .1769867 .01499939 .17799378 .015991211 .1789856 .015991211 .17999268 .015991211 .18099976 .01499939 .18099976 .0009918213 .18099976-.07316589 .1459961-.13328552 .11299133-.16635132 .101989749-.17736817 .101989749-.17936707 .101989749-.18237305 .101989749-.18936157 .10699463-.19335938 .11199951-.19335938 .12298584-.19335938 .20298767-.116256717 .20298767 .0009918213Z"/>
<path id="font_3_1" d="M.41600038 .6529541 .3999939 .66796877C.3999939 .66696169 .3619995 .6199646 .31799317 .6199646 .29499818 .6199646 .269989 .634964 .25299073 .6449585 .22599793 .66096499 .20799256 .66796877 .19099427 .66796877 .15299988 .66796877 .13398743 .6459656 .08299255 .5899658L.09899902 .57496646C.09899902 .57595828 .13699341 .6229553 .18099976 .6229553 .20399475 .6229553 .22898865 .60795596 .24598694 .5979614 .272995 .58195498 .29100038 .57496646 .30799867 .57496646 .34599305 .57496646 .36499024 .59695437 .41600038 .6529541Z"/>
<path id="font_1_3" d="M.33399964 .30233766C.33999635 .32835389 .36299134 .42037965 .43299867 .42037965 .43798829 .42037965 .46199037 .42037965 .48298646 .40734864 .45498658 .402359 .43499757 .37734986 .43499757 .35334779 .43499757 .33735658 .44599916 .31835938 .47299195 .31835938 .49499513 .31835938 .5269928 .3363495 .5269928 .37635804 .5269928 .42837525 .46798707 .4423828 .43399049 .4423828 .37599183 .4423828 .34098817 .38935853 .32899476 .36634828 .3039856 .43237306 .25 .4423828 .22099304 .4423828 .116989139 .4423828 .05999756 .3133545 .05999756 .28834535 .05999756 .27833558 .069992069 .27833558 .07199097 .27833558 .07998657 .27833558 .08299255 .28033448 .084991458 .28933717 .11898804 .39535523 .18499756 .42037965 .21899414 .42037965 .23799134 .42037965 .272995 .4113617 .272995 .35334779 .272995 .32235719 .2559967 .25532533 .21899414 .11528015 .20298767 .053268434 .16799927 .011245728 .12399292 .011245728 .117996219 .011245728 .09498596 .011245728 .07398987 .024276734 .09899902 .029266358 .12098694 .05027771 .12098694 .07827759 .12098694 .105270389 .09899902 .11328125 .083999637 .11328125 .053985597 .11328125 .0289917 .08728027 .0289917 .055267335 .0289917 .009246826 .07899475-.0107421879 .12298584-.0107421879 .18899536-.0107421879 .22499085 .059280397 .22799683 .0652771 .23999024 .028274537 .27598573-.0107421879 .33599855-.0107421879 .43899537-.0107421879 .49598695 .118270877 .49598695 .14328003 .49598695 .1532898 .4869995 .1532898 .48399354 .1532898 .47499085 .1532898 .47299195 .14929199 .47099305 .14228821 .43798829 .03527832 .36999513 .011245728 .33799745 .011245728 .29899598 .011245728 .2829895 .043273927 .2829895 .07727051 .2829895 .09927368 .2889862 .121276859 .2999878 .16529846L.33399964 .30233766Z"/>
<path id="font_0_2" d="M.41600038-.8588867C.41600038-.5719147 .34899903-.2669525 .1519928-.04197693 .13798523-.025970459 .100997928 .013031006 .07699585 .0340271 .069992069 .040039064 .067993167 .040039064 .054992677 .040039064 .04499817 .040039064 .035995485 .040039064 .035995485 .030029297 .035995485 .026031495 .039993287 .022033692 .041992189 .02003479 .07598877-.014968872 .12998963-.06996155 .19198609-.17996216 .2999878-.37193299 .33999635-.61891177 .33999635-.8588867 .33999635-1.2928467 .21998596-1.5578156 .039993287-1.740799 .037994386-1.7427979 .035995485-1.7458038 .035995485-1.7487946 .035995485-1.7587891 .04499817-1.7587891 .054992677-1.7587891 .067993167-1.7587891 .069992069-1.7587891 .07899475-1.7507935 .17399597-1.668808 .2809906-1.5298157 .34999085-1.3188324 .3939972-1.1818543 .41600038-1.019867 .41600038-.8588867Z"/>
<path id="font_2_2" d="M.5049896 .18203736H.47099305C.46798707 .16001892 .45799256 .100997928 .44499208 .09098816 .43699647 .084991458 .3600006 .084991458 .34599305 .084991458H.1619873C.2669983 .17803955 .3019867 .20603943 .3619995 .25306703 .43598939 .312088 .5049896 .374115 .5049896 .46914674 .5049896 .5900879 .39898683 .6640625 .2709961 .6640625 .14698792 .6640625 .06298828 .57710269 .06298828 .4851532 .06298828 .43414308 .10598755 .42915345 .115997318 .42915345 .13999939 .42915345 .16899109 .44615174 .16899109 .48214723 .16899109 .5001526 .1619873 .53515627 .10998535 .53515627 .14099121 .6060791 .20899964 .62805178 .2559967 .62805178 .35598756 .62805178 .4079895 .5501404 .4079895 .46914674 .4079895 .38212586 .34599305 .3130951 .31399537 .27708436L.07299805 .038986207C.06298828 .02999878 .06298828 .027999878 .06298828 0H.47499085L.5049896 .18203736Z"/>
<path id="font_4_1" d="M.40699769 .39465333H.5049896C.5249939 .39465333 .5379944 .39465333 .5379944 .4166565 .5379944 .43066407 .5249939 .43066407 .5069885 .43066407H.4139862C.43699647 .5580139 .44499208 .6040497 .45298768 .63305667 .45799256 .6550598 .47999574 .6760864 .5039978 .6760864 .5049896 .6760864 .5319977 .6760864 .5509949 .6640625 .5099945 .651062 .5069885 .61505129 .5069885 .60905459 .5069885 .5870514 .5239868 .572052 .5469971 .572052 .57398989 .572052 .60398867 .59506228 .60398867 .63305667 .60398867 .6790924 .5549927 .70410159 .5039978 .70410159 .45999146 .70410159 .41099549 .6790924 .38398744 .62905886 .3639984 .5920563 .35598756 .5469818 .33499146 .43066407H.2559967C.23599243 .43066407 .22299195 .43066407 .22299195 .4086609 .22299195 .39465333 .23599243 .39465333 .2539978 .39465333H.32798768C.32699586 .38865663 .2639923 .028869629 .23999024-.078063968 .23498535-.10006714 .21798706-.17610169 .16999817-.17610169 .16899109-.17610169 .14498902-.17610169 .12599182-.1640625 .16699219-.15107727 .16999817-.11506653 .16999817-.109069827 .16999817-.08706665 .15299988-.07206726 .12998963-.07206726 .102996829-.07206726 .07299805-.095077518 .07299805-.1330719 .07299805-.17811585 .11999512-.20410156 .16999817-.20410156 .23399353-.20410156 .27799989-.13807678 .2899933-.11607361 .32598878-.049087526 .34899903 .07385254 .35099793 .08584595L.40699769 .39465333Z"/>
<path id="font_4_3" d="M.07499695-.12220764C.067993167-.15031433 .06599426-.15834046 .025985718-.15834046 .0129852299-.15834046-.0010070801-.15834046-.0010070801-.17933655-.0010070801-.19033814 .0079956059-.19433594 .0129852299-.19433594 .038986207-.19433594 .07199097-.19033814 .09899902-.19033814 .1329956-.19033814 .17098999-.19433594 .20399475-.19433594 .21299744-.19433594 .22399903-.19134522 .22399903-.17234802 .22399903-.15834046 .20999146-.15834046 .19799805-.15834046 .17599488-.15834046 .14898682-.15834046 .14898682-.14630127 .14898682-.14128113 .1559906-.11517334 .1599884-.100112918 .17199707-.046920778 .18598938 .007232666 .19699097 .049240114 .20899964 .02923584 .23999024-.009765625 .2999878-.009765625 .42199708-.009765625 .5569916 .12527466 .5569916 .27433778 .5569916 .39138795 .47599793 .44140626 .40699769 .44140626 .34498597 .44140626 .2919922 .3993988 .2649994 .37138368 .24798584 .42840577 .19198609 .44140626 .1619873 .44140626 .12298584 .44140626 .09899902 .41540528 .08299255 .38838197 .06298828 .35437013 .04699707 .29434205 .04699707 .28834535 .04699707 .27534486 .06098938 .27534486 .06399536 .27534486 .07798767 .27534486 .07899475 .27833558 .085998538 .3053589 .100997928 .3633728 .11999512 .4133911 .15899658 .4133911 .18499756 .4133911 .19198609 .39138795 .19198609 .36437989 .19198609 .3533783 .18998719 .34036256 .18899536 .33436585L.07499695-.12220764M.2639923 .32136537C.32199098 .39839173 .37199403 .4133911 .4039917 .4133911 .44299317 .4133911 .47698976 .38438417 .47698976 .31636048 .47698976 .27534486 .45498658 .17329407 .4249878 .11526489 .3999939 .06625366 .35099793 .018234253 .2999878 .018234253 .22898865 .018234253 .21099854 .09526062 .21099854 .105270389 .21099854 .10926819 .21299744 .11627197 .21398926 .120269779L.2639923 .32136537Z"/>
<path id="font_5_1" d="M.397995 .63591006C.397995 .6660156 .394989 .6660156 .3619995 .6660156 .29100038 .6016083 .17999268 .6016083 .1599884 .6016083H.14299011V.5576172H.1599884C.18299866 .5576172 .24798584 .5606079 .30599977 .58561709V.08596802C.30599977 .054977418 .30599977 .04399109 .19999695 .04399109H.1499939V0C.20498657 .0039978029 .2939911 .0039978029 .35198976 .0039978029 .4099884 .0039978029 .49899293 .0039978029 .55400088 0V.04399109H.5039978C.397995 .04399109 .397995 .054977418 .397995 .08596802V.63591006Z"/>
<path id="font_4_2" d="M.5319977 .36935426C.5359955 .3843689 .5359955 .38937379 .5359955 .39038087 .5359955 .4123993 .5179901 .4223938 .5019989 .4223938 .47898866 .4223938 .45999146 .4033966 .45599366 .3843689 .43899537 .4113922 .40499879 .44140626 .35299684 .44140626 .22799683 .44140626 .09700012 .3072815 .09700012 .1641388 .09700012 .061019899 .16699219 0 .24899292 0 .29499818 0 .33898927 .022994996 .37399293 .054016115L.35198976-.036026C.34098817-.07803345 .33399964-.105041507 .29599-.13903809 .2519989-.17610169 .20899964-.17610169 .18399048-.17610169 .13798523-.17610169 .125-.17308045 .10699463-.16903687 .13198853-.15704346 .13899231-.13304138 .13899231-.11903381 .13899231-.09503174 .11999512-.08203125 .099990848-.08203125 .07199097-.08203125 .042999269-.105041507 .042999269-.14303589 .042999269-.20310974 .1289978-.20410156 .18499756-.20410156 .34199525-.20410156 .40899659-.1240387 .4229889-.06703186L.5319977 .36935426M.3939972 .13310242C.3899994 .11808777 .3899994 .11608887 .37298585 .096069339 .33799745 .054016115 .2899933 .027999878 .2519989 .027999878 .20098877 .027999878 .1769867 .07104492 .1769867 .12309265 .1769867 .16714478 .20399475 .2792511 .22999573 .32330323 .27198792 .39338685 .31900025 .4133911 .35299684 .4133911 .4229889 .4133911 .44198609 .33831788 .44198609 .3283081 .44198609 .3263092 .44198609 .3243103 .43899537 .31329347L.3939972 .13310242Z"/>
<path id="font_5_2" d="M.58898928 .19296265H.5469971C.5439911 .17396546 .5339966 .11198425 .5179901 .101989749 .5099945 .09599304 .42599488 .09599304 .41099549 .09599304H.21499634C.2809906 .14497376 .35499574 .20095825 .4149933 .24093628 .5049896 .30291749 .58898928 .36090089 .58898928 .46687318 .58898928 .59495547 .46798707 .6660156 .32499696 .6660156 .18998719 .6660156 .09098816 .58795168 .09098816 .48986817 .09098816 .4378662 .1349945 .42886354 .14898682 .42886354 .17599488 .42886354 .20799256 .4468689 .20799256 .48786927 .20799256 .52386477 .18199158 .543869 .15098572 .546875 .1789856 .59194949 .23699951 .6220093 .3039856 .6220093 .40098573 .6220093 .48199464 .5639038 .48199464 .4658661 .48199464 .3818817 .42399598 .31791688 .34700013 .2529297L.102996829 .04598999C.09298706 .036987306 .09199524 .036987306 .09098816 .02999878V0H.55599978L.58898928 .19296265Z"/>
</defs>
<use data-text="&#xfffd;" xlink:href="#font_0_1" transform="matrix(9.9626,0,0,-9.9626,4.274,7.4949877)"/>
<use data-text="&#xfffd;" xlink:href="#font_0_3" transform="matrix(9.9626,0,0,-9.9626,12.804,16.035988)"/>
<use data-text="X" xlink:href="#font_1_2" transform="matrix(9.9626,0,0,-9.9626,10.224,18.55399)"/>
<use data-text="1" xlink:href="#font_2_1" transform="matrix(6.9738,0,0,-6.9738,18.478,20.047989)"/>
<use data-text="," xlink:href="#font_1_1" transform="matrix(9.9626,0,0,-9.9626,22.947,18.55399)"/>
<use data-text="&#x02dc;" xlink:href="#font_3_1" transform="matrix(9.9626,0,0,-9.9626,28.008,18.55399)"/>
<use data-text="x" xlink:href="#font_1_3" transform="matrix(9.9626,0,0,-9.9626,27.375,18.55399)"/>
<use data-text="1" xlink:href="#font_2_1" transform="matrix(6.9738,0,0,-6.9738,33.069,20.047989)"/>
<use data-text="&#xfffd;" xlink:href="#font_0_2" transform="matrix(9.9626,0,0,-9.9626,37.538003,7.4949877)"/>
<use data-text="&#xfffd;" xlink:href="#font_0_1" transform="matrix(9.9626,0,0,-9.9626,117.439998,7.4949877)"/>
<use data-text="&#xfffd;" xlink:href="#font_0_3" transform="matrix(9.9626,0,0,-9.9626,125.97099,16.035988)"/>
<use data-text="X" xlink:href="#font_1_2" transform="matrix(9.9626,0,0,-9.9626,123.38999,18.55399)"/>
<use data-text="2" xlink:href="#font_2_2" transform="matrix(6.9738,0,0,-6.9738,131.64398,20.047989)"/>
<use data-text="," xlink:href="#font_1_1" transform="matrix(9.9626,0,0,-9.9626,136.11298,18.55399)"/>
<use data-text="&#x02dc;" xlink:href="#font_3_1" transform="matrix(9.9626,0,0,-9.9626,141.17398,18.55399)"/>
<use data-text="x" xlink:href="#font_1_3" transform="matrix(9.9626,0,0,-9.9626,140.54099,18.55399)"/>
<use data-text="2" xlink:href="#font_2_2" transform="matrix(6.9738,0,0,-6.9738,146.23499,20.047989)"/>
<use data-text="&#xfffd;" xlink:href="#font_0_2" transform="matrix(9.9626,0,0,-9.9626,150.70398,7.4949877)"/>
<use data-text="X" xlink:href="#font_1_2" transform="matrix(9.9626,0,0,-9.9626,75.946,74.968997)"/>
<path transform="matrix(1,0,0,-1,80.464,41.032999)" stroke-width=".39848" stroke-linecap="butt" stroke-miterlimit="10" stroke-linejoin="miter" fill="none" stroke="#000000" d="M-32.50317 28.60277C-16.97441 30.94754 16.97441 30.94754 32.1092 28.66226"/>
<path transform="matrix(.98874,.14929,.14929,-.98874,112.77017,12.400497)" stroke-width=".39848" stroke-linecap="round" stroke-linejoin="round" fill="none" stroke="#000000" d="M-2.07213 2.39091C-1.69356 .95633-.84995 .27893 0 0-.84995-.27893-1.69356-.95633-2.07213-2.39091"/>
<use data-text="f" xlink:href="#font_4_1" transform="matrix(6.9738,0,0,-6.9738,78.131,6.9799959)"/>
<path transform="matrix(1,0,0,-1,80.464,41.032999)" stroke-width=".39848" stroke-linecap="butt" stroke-miterlimit="10" stroke-linejoin="miter" fill="none" stroke="#000000" d="M-43.75333 12.17113-8.45343-23.0151"/>
<path transform="matrix(.70822,.70593,.70593,-.70822,72.15165,64.18873)" stroke-width=".39848" stroke-linecap="round" stroke-linejoin="round" fill="none" stroke="#000000" d="M-2.07213 2.39091C-1.69356 .95633-.84995 .27893 0 0-.84995-.27893-1.69356-.95633-2.07213-2.39091"/>
<use data-text="p" xlink:href="#font_4_3" transform="matrix(6.9738,0,0,-6.9738,44.170999,51.934)"/>
<use data-text="1" xlink:href="#font_5_1" transform="matrix(4.9813,0,0,-4.9813,48.277997,52.931)"/>
<path transform="matrix(1,0,0,-1,80.464,41.032999)" stroke-width=".39848" stroke-linecap="butt" stroke-miterlimit="10" stroke-linejoin="miter" fill="none" stroke="#000000" d="M32.50317 14.15636C9.75053 8.17868-9.75053 8.17868-32.1178 14.05511"/>
<path transform="matrix(-.96713,-.25409,-.25409,.96713,48.153509,26.927258)" stroke-width=".39848" stroke-linecap="round" stroke-linejoin="round" fill="none" stroke="#000000" d="M-2.07213 2.39091C-1.69356 .95633-.84995 .27893 0 0-.84995-.27893-1.69356-.95633-2.07213-2.39091"/>
<use data-text="g" xlink:href="#font_4_2" transform="matrix(6.9738,0,0,-6.9738,78.395999,36.698999)"/>
<path transform="matrix(1,0,0,-1,80.464,41.032999)" stroke-width=".39848" stroke-linecap="butt" stroke-miterlimit="10" stroke-linejoin="miter" fill="none" stroke="#000000" d="M43.75333 12.17113 8.45343-23.0151"/>
<path transform="matrix(-.70822,.70593,.70593,.70822,88.776348,64.18873)" stroke-width=".39848" stroke-linecap="round" stroke-linejoin="round" fill="none" stroke="#000000" d="M-2.07213 2.39091C-1.69356 .95633-.84995 .27893 0 0-.84995-.27893-1.69356-.95633-2.07213-2.39091"/>
<use data-text="p" xlink:href="#font_4_3" transform="matrix(6.9738,0,0,-6.9738,108.76199,51.934)"/>
<use data-text="2" xlink:href="#font_5_2" transform="matrix(4.9813,0,0,-4.9813,112.868999,52.931)"/>
</svg>
