<?xml version="1.0" encoding="UTF-8" standalone="no"?>
<!-- Created with Inkscape (http://www.inkscape.org/) -->

<svg
   version="1.1"
   id="svg1"
   width="181.48436"
   height="58.628906"
   viewBox="0 0 181.48436 58.628906"
   sodipodi:docname="Draft.pdf"
   xmlns:inkscape="http://www.inkscape.org/namespaces/inkscape"
   xmlns:sodipodi="http://sodipodi.sourceforge.net/DTD/sodipodi-0.dtd"
   xmlns="http://www.w3.org/2000/svg"
   xmlns:svg="http://www.w3.org/2000/svg">
  <defs
     id="defs1" />
  <sodipodi:namedview
     id="namedview1"
     pagecolor="#ffffff"
     bordercolor="#000000"
     borderopacity="0.25"
     inkscape:showpageshadow="2"
     inkscape:pageopacity="0.0"
     inkscape:pagecheckerboard="0"
     inkscape:deskcolor="#d1d1d1">
    <inkscape:page
       x="-6.0585938"
       y="-3.7851562"
       inkscape:label="1"
       id="page1"
       width="194.51199"
       height="66.961334"
       margin="0"
       bleed="0" />
  </sodipodi:namedview>
  <g
     id="g1"
     inkscape:groupmode="layer"
     inkscape:label="1"
     transform="translate(-6.0585938,-3.7851563)">
    <g
       id="g2"
       aria-label="π&#10;−1&#10;(U)"
       transform="matrix(1.3333333,0,0,1.3333333,5.6986667,16.121333)">
      <path
         id="path2"
         d="m 2.6371328,-3.7150234 h 1.125 c -0.328125,1.4765625 -0.4101562,1.8984375 -0.4101562,2.5664062 0,0.15234376 0,0.42187501 0.070312,0.76171876 0.1054687,0.43359375 0.2109375,0.4921875 0.3632812,0.4921875 0.1992188,0 0.4101563,-0.17578125 0.4101563,-0.375 0,-0.0585938 0,-0.0820313 -0.058594,-0.22265625 -0.292968,-0.71484371 -0.292968,-1.35937501 -0.292968,-1.64062501 0,-0.5273437 0.070312,-1.0664062 0.1757812,-1.5820312 h 1.1367188 c 0.1289062,0 0.4921875,0 0.4921875,-0.3398438 0,-0.234375 -0.2109375,-0.234375 -0.3984375,-0.234375 H 1.9105703 c -0.2109375,0 -0.5976562,0 -1.03124999,0.46875 -0.3515625,0.3867188 -0.609375,0.84375 -0.609375,0.890625 0,0.011719 0,0.1054688 0.1171875,0.1054688 0.0820313,0 0.10546875,-0.046875 0.1640625,-0.1289063 C 1.0316641,-3.7150234 1.6176016,-3.7150234 1.8168203,-3.7150234 h 0.5625 c -0.3164062,1.2070312 -0.8554687,2.4140625 -1.2773437,3.31640621 -0.070312,0.15234375 -0.070312,0.1640625 -0.070312,0.234375 0,0.19921875 0.1523437,0.26953125 0.28125,0.26953125 0.3046875,0 0.3867187,-0.26953125 0.5039062,-0.64453125 0.140625,-0.45703125 0.140625,-0.48046871 0.2695313,-0.97265621 z m 0,0"
         style="fill:#000000;fill-opacity:1;fill-rule:nonzero;stroke:none" />
      <path
         id="path3"
         d="m 11.226977,-5.1857266 c 0.105468,0 0.269531,0 0.269531,-0.1757812 0,-0.1757813 -0.152344,-0.1757813 -0.269531,-0.1757813 H 7.0668203 c -0.1054687,0 -0.28125,0 -0.28125,0.1757813 0,0.1757812 0.1640625,0.1757812 0.28125,0.1757812 z m 0,0"
         style="fill:#000000;fill-opacity:1;fill-rule:nonzero;stroke:none" />
      <path
         id="path4"
         d="m 14.596117,-8.0451016 c 0,-0.1875 -0.01172,-0.1992187 -0.210937,-0.1992187 -0.445313,0.4335937 -1.078125,0.4453125 -1.359375,0.4453125 v 0.2460937 c 0.164062,0 0.621093,0 1.007812,-0.1875 v 3.5507813 c 0,0.234375 0,0.328125 -0.691406,0.328125 H 13.07268 v 0.2460937 c 0.128906,-0.011719 0.984375,-0.023437 1.242187,-0.023437 0.210938,0 1.089844,0.011719 1.242188,0.023437 v -0.2460937 h -0.257813 c -0.703125,0 -0.703125,-0.09375 -0.703125,-0.328125 z m 0,0"
         style="fill:#000000;fill-opacity:1;fill-rule:nonzero;stroke:none" />
      <path
         id="path5"
         d="m 20.024828,2.3904453 c 0,-0.035156 0,-0.046875 -0.164062,-0.2226562 -1.242188,-1.25390629 -1.570313,-3.12890629 -1.570313,-4.6640625 0,-1.7226563 0.386719,-3.4570313 1.605469,-4.7109375 0.128906,-0.1171875 0.128906,-0.1289063 0.128906,-0.1640625 0,-0.070312 -0.03516,-0.1054688 -0.09375,-0.1054688 -0.105469,0 -0.996094,0.6796875 -1.582031,1.9453125 -0.515625,1.1015625 -0.632813,2.203125 -0.632813,3.0351563 0,0.7851562 0.117188,1.99218746 0.65625,3.11718746 0.597657,1.21875004 1.453125,1.87500004 1.558594,1.87500004 0.05859,0 0.09375,-0.035156 0.09375,-0.1054688 z m 0,0"
         style="fill:#000000;fill-opacity:1;fill-rule:nonzero;stroke:none" />
      <path
         id="path6"
         d="m 26.935961,-5.7540859 c 0.09375,-0.4101563 0.28125,-0.7148438 1.078125,-0.7382813 0.04687,0 0.164062,-0.011719 0.164062,-0.1992187 0,-0.011719 0,-0.1171875 -0.128906,-0.1171875 -0.328125,0 -0.679687,0.035156 -1.019531,0.035156 -0.339844,0 -0.703125,-0.035156 -1.03125,-0.035156 -0.05859,0 -0.175781,0 -0.175781,0.1992187 0,0.1171875 0.09375,0.1171875 0.175781,0.1171875 0.5625,0.011719 0.679687,0.2109375 0.679687,0.4335938 0,0.035156 -0.02344,0.1757812 -0.03516,0.2109375 l -0.890625,3.5507812 c -0.339844,1.33593751 -1.488281,2.20312501 -2.484375,2.20312501 -0.679687,0 -1.21875,-0.43359375 -1.21875,-1.28906251 0,-0.023437 0,-0.3398437 0.117188,-0.7734375 l 0.960937,-3.8789062 c 0.09375,-0.3632813 0.105469,-0.4570313 0.832031,-0.4570313 0.269532,0 0.339844,0 0.339844,-0.1992187 0,-0.1171875 -0.105469,-0.1171875 -0.140625,-0.1171875 -0.269531,0 -0.996094,0.035156 -1.265625,0.035156 -0.292969,0 -0.996094,-0.035156 -1.289062,-0.035156 -0.08203,0 -0.1875,0 -0.1875,0.1992187 0,0.1171875 0.09375,0.1171875 0.28125,0.1171875 0.01172,0 0.210937,0 0.375,0.011719 0.175781,0.023437 0.269531,0.035156 0.269531,0.1640625 0,0.058594 -0.105469,0.4804687 -0.175781,0.703125 l -0.210938,0.8789062 c -0.09375,0.3867188 -0.574219,2.2734375 -0.609375,2.4609375 -0.07031,0.28125 -0.07031,0.4335938 -0.07031,0.5742188 0,1.21874996 0.902343,1.92187496 1.957031,1.92187496 1.253906,0 2.484375,-1.125 2.8125,-2.44921876 z m 0,0"
         style="fill:#000000;fill-opacity:1;fill-rule:nonzero;stroke:none" />
      <path
         id="path7"
         d="m 31.377367,-2.4962734 c 0,-0.7734375 -0.117187,-1.9804688 -0.65625,-3.1054688 -0.597656,-1.21875 -1.464844,-1.875 -1.558594,-1.875 -0.05859,0 -0.105468,0.046875 -0.105468,0.1054688 0,0.035156 0,0.046875 0.199218,0.234375 0.972657,0.984375 1.535157,2.5664062 1.535157,4.640625 0,1.71093746 -0.363282,3.45703121 -1.59375,4.7226562 -0.140625,0.1171875 -0.140625,0.1289063 -0.140625,0.1640625 0,0.058594 0.04687,0.1054688 0.105468,0.1054688 0.09375,0 0.996094,-0.6796875 1.582032,-1.94531254 0.503906,-1.1015625 0.632812,-2.20312496 0.632812,-3.04687496 z m 0,0"
         style="fill:#000000;fill-opacity:1;fill-rule:nonzero;stroke:none" />
    </g>
    <g
       id="g7"
       aria-label="U×R&#10;k"
       transform="matrix(1.3333333,0,0,1.3333333,145.93067,16.121333)">
      <path
         id="path8"
         d="m 6.3273906,-5.7540859 c 0.09375,-0.4101563 0.28125,-0.7148438 1.078125,-0.7382813 0.046875,0 0.1640625,-0.011719 0.1640625,-0.1992187 0,-0.011719 0,-0.1171875 -0.1289062,-0.1171875 -0.328125,0 -0.6796875,0.035156 -1.0195313,0.035156 -0.3398437,0 -0.703125,-0.035156 -1.03125,-0.035156 -0.058594,0 -0.1757812,0 -0.1757812,0.1992187 0,0.1171875 0.09375,0.1171875 0.1757812,0.1171875 0.5625,0.011719 0.6796875,0.2109375 0.6796875,0.4335938 0,0.035156 -0.023437,0.1757812 -0.035156,0.2109375 l -0.890625,3.5507812 c -0.3398438,1.33593751 -1.4882813,2.20312501 -2.484375,2.20312501 -0.6796875,0 -1.21875,-0.43359375 -1.21875,-1.28906251 0,-0.023437 0,-0.3398437 0.1171875,-0.7734375 l 0.9609375,-3.8789062 c 0.09375,-0.3632813 0.1054687,-0.4570313 0.8320312,-0.4570313 0.2695313,0 0.3398438,0 0.3398438,-0.1992187 0,-0.1171875 -0.1054688,-0.1171875 -0.140625,-0.1171875 -0.2695313,0 -0.9960938,0.035156 -1.265625,0.035156 -0.2929688,0 -0.9960938,-0.035156 -1.28906252,-0.035156 -0.0820313,0 -0.1875,0 -0.1875,0.1992187 0,0.1171875 0.09375,0.1171875 0.28125002,0.1171875 0.011719,0 0.2109375,0 0.375,0.011719 0.1757812,0.023437 0.2695312,0.035156 0.2695312,0.1640625 0,0.058594 -0.1054687,0.4804687 -0.1757812,0.703125 l -0.2109375,0.8789062 c -0.09375,0.3867188 -0.57421877,2.2734375 -0.60937502,2.4609375 -0.0703125,0.28125 -0.0703125,0.4335938 -0.0703125,0.5742188 0,1.21874996 0.90234372,1.92187496 1.95703122,1.92187496 1.2539063,0 2.484375,-1.125 2.8125,-2.44921876 z m 0,0"
         style="fill:#000000;fill-opacity:1;fill-rule:nonzero;stroke:none" />
      <path
         id="path9"
         d="m 13.982664,-2.7658047 -1.992187,-1.9804687 c -0.128907,-0.1289063 -0.140625,-0.140625 -0.222657,-0.140625 -0.105468,0 -0.199218,0.082031 -0.199218,0.1992187 0,0.070312 0.02344,0.082031 0.128906,0.1992188 l 1.992187,1.9921875 -1.992187,2.00390621 c -0.105469,0.1171875 -0.128906,0.12890625 -0.128906,0.19921875 0,0.1171875 0.09375,0.19921875 0.199218,0.19921875 0.08203,0 0.09375,-0.01171875 0.222657,-0.140625 l 1.980468,-1.98046871 2.0625,2.06249996 c 0.01172,0.0117188 0.08203,0.05859375 0.152344,0.05859375 0.117188,0 0.199219,-0.08203125 0.199219,-0.19921875 0,-0.0117188 0,-0.0585938 -0.03516,-0.10546875 -0.01172,-0.0234375 -1.59375,-1.58203121 -2.097657,-2.09765621 l 1.828125,-1.8164063 c 0.04687,-0.058594 0.199219,-0.1875 0.246094,-0.2460937 0.01172,-0.023437 0.05859,-0.058594 0.05859,-0.1289063 0,-0.1171875 -0.08203,-0.1992187 -0.199219,-0.1992187 -0.08203,0 -0.128906,0.035156 -0.234375,0.140625 z m 0,0"
         style="fill:#000000;fill-opacity:1;fill-rule:nonzero;stroke:none" />
      <path
         id="path10"
         d="m 22.73657,-3.1290859 h 0.351563 l 1.5,2.30859371 c 0.09375,0.1640625 0.339844,0.55078125 0.445312,0.703125 0.07031,0.1171875025 0.105469,0.1171875025 0.328125,0.1171875025 h 1.382813 c 0.175781,0 0.328125,0 0.328125,-0.1757812525 0,-0.0820313 -0.07031,-0.15234375 -0.152344,-0.17578125 -0.375,-0.0820313 -0.855469,-0.73828121 -1.101562,-1.05468751 -0.07031,-0.09375 -0.5625,-0.75 -1.230469,-1.828125 0.890625,-0.1640625 1.746094,-0.5390625 1.746094,-1.7226562 0,-1.3828125 -1.464844,-1.8632813 -2.648438,-1.8632813 h -3.117187 c -0.1875,0 -0.339844,0 -0.339844,0.1757813 0,0.1640625 0.1875,0.1640625 0.269531,0.1640625 0.5625,0 0.609375,0.070312 0.609375,0.5742187 v 4.99218751 c 0,0.4921875 -0.04687,0.5625 -0.609375,0.5625 -0.08203,0 -0.269531,0 -0.269531,0.17578125 0,0.1757812525 0.152344,0.1757812525 0.339844,0.1757812525 h 2.71875 c 0.1875,0 0.328125,0 0.328125,-0.1757812525 0,-0.17578125 -0.164063,-0.17578125 -0.269532,-0.17578125 -0.574218,0 -0.609375,-0.0820313 -0.609375,-0.5625 z m 1.921875,-0.4921875 c 0.28125,-0.3632813 0.304688,-0.890625 0.304688,-1.3242188 0,-0.4804687 -0.05859,-1.0078125 -0.375,-1.4179687 0.410156,0.082031 1.394531,0.3984375 1.394531,1.40625 0,0.6445312 -0.304687,1.1484375 -1.324219,1.3359375 z M 22.73657,-5.9415859 c 0,-0.1992188 0,-0.5390625 0.621094,-0.5390625 0.84375,0 1.253906,0.3515625 1.253906,1.5351562 0,1.2773438 -0.304687,1.4648438 -1.875,1.4648438 z m -1.359375,5.58984371 c 0.08203,-0.17578125 0.08203,-0.45703125 0.08203,-0.55078125 V -5.9298672 c 0,-0.09375 0,-0.3632812 -0.08203,-0.5507812 h 1.136719 c -0.128906,0.1640625 -0.128906,0.3632812 -0.128906,0.515625 v 5.06249996 c 0,0.10546875 0,0.375 0.08203,0.55078125 z m 2.121094,-2.77734371 c 0.07031,-0.011719 0.117188,-0.023437 0.1875,-0.023437 0.152344,0 0.375,-0.011719 0.527344,-0.035156 0.140625,0.234375 1.21875,2.015625 2.050781,2.83593751 h -0.972656 z m 0,0"
         style="fill:#000000;fill-opacity:1;fill-rule:nonzero;stroke:none" />
      <path
         id="path11"
         d="m 29.439695,-8.2443203 c 0.01172,-0.011719 0.03516,-0.1054688 0.03516,-0.1171875 0,-0.035156 -0.03516,-0.09375 -0.117188,-0.09375 -0.140625,0 -0.714844,0.058594 -0.890625,0.070312 -0.05859,0.011719 -0.152344,0.011719 -0.152344,0.1640625 0,0.09375 0.09375,0.09375 0.175782,0.09375 0.339843,0 0.339843,0.046875 0.339843,0.1054687 0,0.046875 -0.01172,0.09375 -0.03516,0.1523438 l -0.972656,3.9492187 c -0.03516,0.1289063 -0.03516,0.140625 -0.03516,0.1523438 0,0.1054687 0.08203,0.2226562 0.234375,0.2226562 0.1875,0 0.28125,-0.140625 0.316406,-0.2929687 0.01172,-0.023437 0.316406,-1.2539063 0.339844,-1.3476563 0.503906,0.046875 0.902343,0.1992188 0.902343,0.5625 0,0.035156 0,0.070312 -0.02344,0.140625 -0.02344,0.1054688 -0.02344,0.140625 -0.02344,0.2226563 0,0.4921875 0.398438,0.7148437 0.738282,0.7148437 0.679687,0 0.890625,-1.0546875 0.890625,-1.0664062 0,-0.09375 -0.09375,-0.09375 -0.117188,-0.09375 -0.09375,0 -0.105469,0.035156 -0.140625,0.1640625 -0.08203,0.3046875 -0.269531,0.796875 -0.609375,0.796875 -0.1875,0 -0.246094,-0.1757813 -0.246094,-0.3632813 0,-0.1171875 0,-0.1289062 0.04687,-0.3046875 0,-0.023437 0.03516,-0.140625 0.03516,-0.2226562 0,-0.6210938 -0.84375,-0.7148438 -1.136719,-0.7382813 0.199219,-0.1289062 0.457031,-0.3515625 0.585937,-0.4570312 0.351563,-0.3398438 0.703125,-0.6679688 1.089844,-0.6679688 0.08203,0 0.175781,0.023437 0.234375,0.09375 -0.304687,0.046875 -0.363281,0.28125 -0.363281,0.3867188 0,0.1523437 0.117187,0.2578125 0.269531,0.2578125 0.199219,0 0.398438,-0.1523438 0.398438,-0.4453125 0,-0.2226563 -0.164063,-0.4804688 -0.527344,-0.4804688 -0.398438,0 -0.761719,0.28125 -1.125,0.609375 -0.292969,0.28125 -0.515625,0.4921875 -0.808594,0.609375 z m 0,0"
         style="fill:#000000;fill-opacity:1;fill-rule:nonzero;stroke:none" />
    </g>
    <path
       id="path12"
       d="m 6.3286641,-5.7540156 c 0.09375,-0.4101563 0.28125,-0.7148438 1.078125,-0.7382813 0.046875,0 0.1640625,-0.011719 0.1640625,-0.1992187 0,-0.011719 0,-0.1171875 -0.1289063,-0.1171875 -0.328125,0 -0.6796875,0.035156 -1.0195312,0.035156 -0.3398438,0 -0.703125,-0.035156 -1.03125,-0.035156 -0.058594,0 -0.1757813,0 -0.1757813,0.1992187 0,0.1171875 0.09375,0.1171875 0.1757813,0.1171875 0.5625,0.011719 0.6796875,0.2109375 0.6796875,0.4335938 0,0.035156 -0.023437,0.1757812 -0.035156,0.2109375 l -0.890625,3.5507812 c -0.3398437,1.33593753 -1.4882812,2.20312503 -2.484375,2.20312503 -0.6796875,0 -1.21875,-0.43359375 -1.21875,-1.28906253 0,-0.023437 0,-0.3398437 0.1171875,-0.7734375 l 0.9609375,-3.8789062 c 0.09375,-0.3632813 0.1054688,-0.4570313 0.8320313,-0.4570313 0.2695312,0 0.3398437,0 0.3398437,-0.1992187 0,-0.1171875 -0.1054687,-0.1171875 -0.140625,-0.1171875 -0.2695312,0 -0.9960937,0.035156 -1.265625,0.035156 -0.2929687,0 -0.9960937,-0.035156 -1.28906249,-0.035156 -0.0820313,0 -0.1875,0 -0.1875,0.1992187 0,0.1171875 0.09375,0.1171875 0.28124999,0.1171875 0.011719,0 0.2109375,0 0.375,0.011719 0.1757813,0.023437 0.2695313,0.035156 0.2695313,0.1640625 0,0.058594 -0.1054688,0.4804687 -0.1757813,0.703125 l -0.2109375,0.8789062 c -0.09375,0.3867188 -0.57421874,2.2734375 -0.60937499,2.4609375 -0.0703125,0.28125 -0.0703125,0.4335938 -0.0703125,0.5742188 0,1.21874998 0.90234379,1.92187498 1.95703129,1.92187498 1.2539062,0 2.484375,-1.125 2.8125,-2.44921878 z m 0,0"
       style="fill:#000000;fill-opacity:1;fill-rule:nonzero;stroke:none"
       aria-label="U"
       transform="matrix(1.3333333,0,0,1.3333333,92.136,62.117333)" />
    <path
       id="path13"
       d="M -39.05083,6.69662 -8.64685,-13.24942"
       style="fill:none;stroke:#000000;stroke-width:0.39848;stroke-linecap:butt;stroke-linejoin:miter;stroke-miterlimit:10;stroke-dasharray:none;stroke-opacity:1"
       transform="matrix(1.3333333,0,0,-1.3333333,97.256,33.48)" />
    <path
       id="path14"
       d="M -2.07213,2.39091 C -1.69356,0.95633 -0.84995,0.27893 0,0 -0.84995,-0.27893 -1.69356,-0.95633 -2.07213,-2.39091"
       style="fill:none;stroke:#000000;stroke-width:0.39848;stroke-linecap:round;stroke-linejoin:round;stroke-miterlimit:10;stroke-dasharray:none;stroke-opacity:1"
       transform="matrix(1.1147867,0.73134667,0.73134667,-1.1147867,85.948947,51.2916)" />
    <path
       id="path15"
       d="m 2.1676172,-2.5312891 h 0.8320312 c -0.1054687,0.421875 -0.2578125,1.0546875 -0.2578125,1.60546879 0,0.28125 0.035156,0.46875 0.070312,0.62109375 0.1171875,0.3515625 0.2109375,0.375 0.3164063,0.375 0.1640625,0 0.328125,-0.15234375 0.328125,-0.31640625 0,-0.0585937 -0.011719,-0.0820312 -0.058594,-0.15234375 C 3.269179,-0.65628906 3.1402727,-1.0547266 3.1402727,-1.6289453 c 0,-0.1289063 0,-0.4101563 0.1054688,-0.9023438 H 4.112929 c 0.1289062,0 0.1875,0 0.2578125,-0.058594 0.09375,-0.070312 0.1171875,-0.1757813 0.1171875,-0.2109375 0,-0.1992188 -0.1757813,-0.1992188 -0.2929688,-0.1992188 h -2.636718 c -0.28125,0 -0.4804688,0.058594 -0.79687501,0.3515625 -0.17578125,0.1640625 -0.4453125,0.5390625 -0.4453125,0.5976563 0,0.082031 0.09375,0.082031 0.1171875,0.082031 0.0703125,0 0.0820312,-0.011719 0.12890625,-0.070312 0.3515625,-0.4921875 0.78515626,-0.4921875 0.93749996,-0.4921875 h 0.421875 c -0.2109375,0.7617188 -0.5859375,1.59375004 -0.796875,2.00390629 -0.046875,0.09375 -0.1171875,0.24609375 -0.14062496,0.26953125 0,0.0234375 -0.0117188,0.0585937 -0.0117188,0.10546875 0,0.10546875 0.0820312,0.22265625 0.24609366,0.22265625 0.2695313,0 0.3515625,-0.31640625 0.515625,-0.9375 z m 0,0"
       style="fill:#000000;fill-opacity:1;fill-rule:nonzero;stroke:none"
       aria-label="π"
       transform="matrix(1.3333333,0,0,1.3333333,56.02,45.113333)" />
    <path
       id="path16"
       d="M 32.03346,15.51021 H -31.4273"
       style="fill:none;stroke:#000000;stroke-width:0.39848;stroke-linecap:butt;stroke-linejoin:miter;stroke-miterlimit:10;stroke-dasharray:none;stroke-opacity:1"
       transform="matrix(1.3333333,0,0,-1.3333333,97.256,33.48)" />
    <path
       id="path17"
       d="M -2.07213,2.39091 C -1.69356,0.95633 -0.84995,0.27893 0,0 -0.84995,-0.27893 -1.69356,-0.95633 -2.07213,-2.39091"
       style="fill:none;stroke:#000000;stroke-width:0.39848;stroke-linecap:round;stroke-linejoin:round;stroke-miterlimit:10;stroke-dasharray:none;stroke-opacity:1"
       transform="matrix(-1.3333333,0,0,1.3333333,55.08728,12.79972)" />
    <path
       id="path18"
       d="m 2.2038828,0.05977344 c 0.082031,0.01171875 0.1640625,0.01171875 0.234375,0.01171875 1.2539063,0 2.4140625,-1.03125 2.4140625,-2.13281249 0,-0.609375 -0.375,-1.0078125 -0.9140625,-1.0078125 -0.9726562,0 -1.4765625,1.21875 -1.6757812,1.7460937 -0.082031,0.2578125 -0.234375,0.75000004 -0.28125,0.87890629 -0.7617188,-0.10546875 -1.25390629,-0.45703125 -1.25390629,-0.97265629 0,0 0.0351563,-0.7851562 0.60937499,-1.4179687 0.046875,-0.046875 0.046875,-0.058594 0.046875,-0.082031 0,-0.082031 -0.082031,-0.082031 -0.1054687,-0.082031 -0.058594,0 -0.09375,0 -0.2226563,0.1523437 -0.38671874,0.4804688 -0.57421874,1.2070313 -0.57421874,1.5 0,0.62109379 0.45703125,1.16015629 1.34765624,1.35937504 C 1.4890391,1.0910234 1.4421641,1.2199297 1.4421641,1.2785234 c 0,0.1992188 0.1640625,0.234375 0.234375,0.234375 0.082031,0 0.2226562,-0.058594 0.28125,-0.1640625 0.046875,-0.09375 0.1054687,-0.45703121 0.2460937,-1.28906246 z m 0.09375,-0.46875 c 0.140625,-0.80859374 0.1875,-1.11328124 0.5273438,-1.57031254 0.3164062,-0.421875 0.6796875,-0.6210937 1.03125,-0.6210937 0.4804687,0 0.7382812,0.3164062 0.7382812,0.6796875 0,0.703125 -0.8789062,1.51171874 -2.0742187,1.51171874 -0.070312,0 -0.1640625,0 -0.2226563,0 z m 0,0"
       style="fill:#000000;fill-opacity:1;fill-rule:nonzero;stroke:none"
       aria-label="φ"
       transform="matrix(1.3333333,0,0,1.3333333,93.901333,7.8773333)" />
    <path
       id="path19"
       d="M 41.70625,8.35712 8.85434,-13.23578"
       style="fill:none;stroke:#000000;stroke-width:0.39848;stroke-linecap:butt;stroke-linejoin:miter;stroke-miterlimit:10;stroke-dasharray:none;stroke-opacity:1"
       transform="matrix(1.3333333,0,0,-1.3333333,97.256,33.48)" />
    <path
       id="path20"
       d="M -2.07213,2.39091 C -1.69356,0.95633 -0.84995,0.27893 0,0 -0.84995,-0.27893 -1.69356,-0.95633 -2.07213,-2.39091"
       style="fill:none;stroke:#000000;stroke-width:0.39848;stroke-linecap:round;stroke-linejoin:round;stroke-miterlimit:10;stroke-dasharray:none;stroke-opacity:1"
       transform="matrix(-1.1141333,0.73232,0.73232,1.1141333,108.83984,51.2736)" />
    <g
       id="g20"
       aria-label="proj&#10;1"
       transform="matrix(1.3333333,0,0,1.3333333,133.856,46.248)">
      <path
         id="path21"
         d="m 1.9331953,1.1001328 c -0.4453125,0 -0.515625,0 -0.515625,-0.30468749 v -1.13671875 c 0.035156,0.0351563 0.3632813,0.41015625 0.9492188,0.41015625 0.9140625,0 1.6992187,-0.69140625 1.6992187,-1.58203121 0,-0.8554688 -0.703125,-1.5585938 -1.59375,-1.5585938 -0.3984375,0 -0.796875,0.140625 -1.0898437,0.421875 v -0.421875 l -1.04296879,0.070312 v 0.2578125 c 0.4921875,0 0.52734375,0.035156 0.52734375,0.328125 v 3.21093751 c 0,0.30468749 -0.0703125,0.30468749 -0.52734375,0.30468749 v 0.2460938 c 0.0117188,0 0.50390625,-0.023437 0.79687499,-0.023437 0.2578125,0 0.7382813,0.023437 0.796875,0.023437 z m -0.515625,-3.421875 c 0.2109375,-0.3515625 0.609375,-0.5273437 0.984375,-0.5273437 0.5859375,0 1.03125,0.609375 1.03125,1.3359375 0,0.79687496 -0.515625,1.38281246 -1.1132812,1.38281246 -0.609375,0 -0.8789063,-0.5390625 -0.9023438,-0.57421875 z m 4.3652344,0.7265625 c 0,-0.5859375 0.28125,-1.2890625 0.9375,-1.2890625 -0.058594,0.046875 -0.1171875,0.140625 -0.1171875,0.2578125 0,0.2226563 0.1757812,0.3164063 0.3164062,0.3164063 0.1640625,0 0.3164063,-0.1054688 0.3164063,-0.3164063 0,-0.2460937 -0.2226563,-0.4453125 -0.5507813,-0.4453125 -0.3515625,0 -0.7265625,0.2109375 -0.9375,0.7382813 h -0.011719 v -0.7382813 l -0.9960938,0.070312 v 0.2578125 c 0.46875,0 0.5273438,0.046875 0.5273438,0.3867188 v 1.80468746 c 0,0.3046875 -0.070312,0.3046875 -0.5273438,0.3046875 v 0.24609375 c 0.035156,0 0.515625,-0.0234375 0.796875,-0.0234375 0.3046875,0 0.609375,0.01171875 0.9023438,0.0234375 v -0.24609375 h -0.140625 c -0.515625,0 -0.515625,-0.0820312 -0.515625,-0.31640625 z m 5.4228513,0.1054688 c 0,-0.8671875 -0.75,-1.6171875 -1.7109372,-1.6171875 -0.9609375,0 -1.7109375,0.75 -1.7109375,1.6171875 0,0.86718746 0.7734375,1.55859371 1.7109375,1.55859371 0.9375002,0 1.7109372,-0.69140625 1.7109372,-1.55859371 z m -1.7109372,1.33593746 c -0.2578125,0 -0.6328125,-0.0820313 -0.8671875,-0.421875 -0.1875,-0.29296875 -0.2109375,-0.65624996 -0.2109375,-0.97265626 0,-0.3046875 0.011719,-0.7148437 0.2578125,-1.0078125 0.1757812,-0.2109375 0.46875,-0.3632812 0.8203125,-0.3632812 0.4101562,0 0.7031252,0.1992187 0.8554692,0.4101562 0.199218,0.28125 0.222656,0.6210938 0.222656,0.9609375 0,0.328125 -0.02344,0.70312501 -0.222656,0.98437501 -0.1875,0.26953125 -0.5156255,0.41015625 -0.8554692,0.41015625 z M 13.61093,-4.3022109 c 0,-0.234375 -0.199219,-0.3984375 -0.398438,-0.3984375 -0.246094,0 -0.410156,0.1992187 -0.410156,0.3984375 0,0.2460937 0.199219,0.3984375 0.398437,0.3984375 0.246094,0 0.410157,-0.1875 0.410157,-0.3984375 z m -1.101563,1.3007812 v 0.2578125 c 0.515625,0 0.574219,0.046875 0.574219,0.3867188 v 2.69531246 c 0,0.2578125 -0.05859,0.89062504 -0.527344,0.89062504 -0.01172,0 -0.1875,0 -0.339844,-0.070312 0.01172,-0.011719 0.164063,-0.09375 0.164063,-0.30468754 0,-0.1875 -0.128906,-0.328125 -0.328125,-0.328125 -0.199219,0 -0.328125,0.140625 -0.328125,0.33984375 0,0.37499999 0.421875,0.55078129 0.84375,0.55078129 0.5625,0 1.042969,-0.43359379 1.042969,-1.10156254 V -3.0717422 Z m 0,0"
         style="fill:#000000;fill-opacity:1;fill-rule:nonzero;stroke:none" />
      <path
         id="path22"
         d="m 16.364836,-1.311 c 0,-0.1523437 -0.01172,-0.1523437 -0.175781,-0.1523437 -0.351563,0.3164062 -0.902344,0.3164062 -1.007813,0.3164062 h -0.08203 v 0.22265625 h 0.08203 c 0.117188,0 0.433594,-0.0117188 0.726563,-0.14062495 v 2.4843749 c 0,0.1640625 0,0.2109375 -0.527344,0.2109375 h -0.246094 v 0.2226563 c 0.269531,-0.023437 0.714844,-0.023437 1.007813,-0.023437 0.28125,0 0.726562,0 0.996093,0.023437 V 1.6304062 H 16.89218 c -0.527344,0 -0.527344,-0.046875 -0.527344,-0.2109375 z m 0,0"
         style="fill:#000000;fill-opacity:1;fill-rule:nonzero;stroke:none" />
    </g>
  </g>
</svg>
