<?xml version="1.0" encoding="UTF-8" standalone="no"?>
<!-- Created with Inkscape (http://www.inkscape.org/) -->

<svg
   width="36.694912mm"
   height="14.704367mm"
   viewBox="0 0 36.694912 14.704367"
   version="1.1"
   id="svg1"
   inkscape:export-filename="bitmap.svg"
   inkscape:export-xdpi="96"
   inkscape:export-ydpi="96"
   xmlns:inkscape="http://www.inkscape.org/namespaces/inkscape"
   xmlns:sodipodi="http://sodipodi.sourceforge.net/DTD/sodipodi-0.dtd"
   xmlns="http://www.w3.org/2000/svg"
   xmlns:svg="http://www.w3.org/2000/svg"
   xmlns:ns1="http://www.iki.fi/pav/software/textext/">
  <sodipodi:namedview
     id="namedview1"
     pagecolor="#ffffff"
     bordercolor="#000000"
     borderopacity="0.25"
     inkscape:showpageshadow="2"
     inkscape:pageopacity="0.0"
     inkscape:pagecheckerboard="0"
     inkscape:deskcolor="#d1d1d1"
     inkscape:document-units="mm"
     inkscape:zoom="4.5959456"
     inkscape:cx="217.90946"
     inkscape:cy="194.08411"
     inkscape:window-width="1376"
     inkscape:window-height="1027"
     inkscape:window-x="39"
     inkscape:window-y="31"
     inkscape:window-maximized="0"
     inkscape:current-layer="layer1">
    <inkscape:page
       x="0"
       y="5.5831462e-16"
       width="36.694912"
       height="14.704368"
       id="page2"
       margin="0"
       bleed="0" />
  </sodipodi:namedview>
  <defs
     id="defs1">
    <inkscape:path-effect
       effect="bspline"
       id="path-effect2"
       is_visible="true"
       lpeversion="1.3"
       weight="33.333333"
       steps="2"
       helper_size="0"
       apply_no_weight="true"
       apply_with_weight="true"
       only_selected="false"
       uniform="false" />
    <inkscape:path-effect
       effect="bspline"
       id="path-effect1"
       is_visible="true"
       lpeversion="1.3"
       weight="33.333333"
       steps="2"
       helper_size="0"
       apply_no_weight="true"
       apply_with_weight="true"
       only_selected="false"
       uniform="false" />
  </defs>
  <g
     inkscape:label="Layer 1"
     inkscape:groupmode="layer"
     id="layer1"
     transform="translate(-40.9051,-48.999662)">
    <path
       style="fill:#010101;fill-opacity:0;stroke:#000000;stroke-width:0.264999"
       d="m 38.18494,47.577334 c -5.926925,5.214398 -9.036131,16.226171 -3.432939,20.889964 5.603193,4.663792 19.91821,2.979672 25.84511,-2.234813 5.9269,-5.214486 3.465495,-13.958952 -2.137641,-18.622768 -5.603137,-4.663816 -14.347605,-5.246781 -20.27453,-0.03238 z"
       id="path1"
       inkscape:path-effect="#path-effect1"
       inkscape:original-d="M 35.367221,41.779959 C 32.258015,52.791732 29.148809,63.803505 26.039603,74.815278 40.355194,73.131092 54.670211,71.446971 68.985515,69.762816 66.524012,61.017999 64.062607,52.273533 61.601151,43.52889 52.856333,42.945901 44.111865,42.362937 35.367221,41.779959 Z"
       transform="matrix(0.71660152,0,0,0.5331925,18.203335,25.671004)" />
    <path
       style="fill:#010101;fill-opacity:0;stroke:#000000;stroke-width:0.264999"
       d="m 74.685727,56.840178 c -2.13758,-5.473498 -5.764986,-9.878207 -7.57869,-9.165622 -1.813703,0.712584 -1.813703,6.54223 0.323919,12.015779 2.137622,5.473549 6.412696,10.590684 8.226393,9.878092 1.813696,-0.712592 1.165957,-7.254751 -0.971622,-12.728249 z"
       id="path2"
       inkscape:path-effect="#path-effect2"
       inkscape:original-d="m 76.175554,55.771388 c -3.627406,-4.404709 -7.254814,-8.809416 -10.88222,-13.214125 0,5.829877 0,11.659523 0,17.489283 4.275244,5.117338 8.550318,10.234473 12.825476,15.351707 -0.647766,-6.542418 -1.295503,-13.084577 -1.943256,-19.626865 z"
       transform="matrix(0,0.76184229,-0.60824519,0,106.47083,-0.44098792)" />
    <circle
       style="fill:#010101;fill-opacity:1;stroke:#000000;stroke-width:0.137511;stroke-opacity:0.00353358"
       id="path3"
       cx="64.102867"
       cy="56.888454"
       r="0.26554322" />
    <g
       id="g6959"
       transform="matrix(0.352778,0,0,0.352778,50.333477,55.273428)"
       ns1:version="1.12.0"
       ns1:texconverter="pdflatex"
       ns1:pdfconverter="inkscape"
       ns1:text="$X$"
       ns1:preamble="/Users/yiranmao/Library/Application Support/org.inkscape.Inkscape/config/inkscape/extensions/textext/default_packages.tex"
       ns1:scale="1.0"
       ns1:alignment="middle center"
       ns1:jacobian_sqrt="0.352778">
      <defs
         id="defs1835" />
      <g
         fill="#000000"
         fill-opacity="1"
         id="g7951"
         transform="translate(-148.978,-127.953)">
        <g
           transform="translate(148.712,134.765)"
           id="g594">
          <path
             d="M 4.828125,-4.09375 4,-6.078125 c -0.03125,-0.078125 -0.046875,-0.125 -0.046875,-0.125 0,-0.0625 0.15625,-0.25 0.578125,-0.296875 0.109375,-0.015625 0.203125,-0.015625 0.203125,-0.1875 0,-0.125 -0.125,-0.125 -0.15625,-0.125 -0.40625,0 -0.828125,0.03125 -1.25,0.03125 -0.25,0 -0.859375,-0.03125 -1.109375,-0.03125 -0.0625,0 -0.1875,0 -0.1875,0.203125 C 2.03125,-6.5 2.140625,-6.5 2.265625,-6.5 c 0.59375,0 0.65625,0.09375 0.75,0.3125 l 1.171875,2.78125 -2.109375,2.265625 -0.125,0.109375 C 1.46875,-0.5 1,-0.34375 0.484375,-0.3125 c -0.125,0.015625 -0.21875,0.015625 -0.21875,0.203125 0,0.015625 0,0.109375 0.140625,0.109375 0.296875,0 0.625,-0.03125 0.921875,-0.03125 C 1.703125,-0.03125 2.09375,0 2.453125,0 2.515625,0 2.625,0 2.625,-0.203125 2.625,-0.296875 2.53125,-0.3125 2.515625,-0.3125 c -0.09375,0 -0.40625,-0.03125 -0.40625,-0.3125 0,-0.15625 0.15625,-0.3125 0.265625,-0.4375 L 3.40625,-2.140625 4.296875,-3.125 l 1,2.390625 c 0.046875,0.109375 0.0625,0.109375 0.0625,0.140625 0,0.078125 -0.203125,0.25 -0.578125,0.28125 C 4.671875,-0.296875 4.578125,-0.296875 4.578125,-0.125 4.578125,0 4.6875,0 4.71875,0 5,0 5.703125,-0.03125 5.984375,-0.03125 6.234375,-0.03125 6.84375,0 7.09375,0 c 0.0625,0 0.1875,0 0.1875,-0.1875 0,-0.125 -0.109375,-0.125 -0.1875,-0.125 -0.65625,0 -0.6875,-0.03125 -0.859375,-0.4375 C 5.859375,-1.671875 5.1875,-3.234375 4.953125,-3.828125 5.625,-4.53125 6.671875,-5.71875 7,-5.984375 7.28125,-6.234375 7.671875,-6.46875 8.265625,-6.5 c 0.125,-0.015625 0.21875,-0.015625 0.21875,-0.203125 0,0 0,-0.109375 -0.125,-0.109375 -0.296875,0 -0.640625,0.03125 -0.9375,0.03125 -0.375,0 -0.75,-0.03125 -1.109375,-0.03125 -0.0625,0 -0.1875,0 -0.1875,0.203125 0,0.0625 0.046875,0.09375 0.109375,0.109375 0.09375,0.015625 0.40625,0.03125 0.40625,0.3125 0,0.140625 -0.109375,0.265625 -0.1875,0.359375 z m 0,0"
             id="path5091" />
        </g>
      </g>
    </g>
    <g
       id="g9062"
       transform="matrix(0.352778,0,0,0.352778,69.789944,52.394985)"
       ns1:version="1.12.0"
       ns1:texconverter="pdflatex"
       ns1:pdfconverter="inkscape"
       ns1:text="$Y$"
       ns1:preamble="/Users/yiranmao/Library/Application Support/org.inkscape.Inkscape/config/inkscape/extensions/textext/default_packages.tex"
       ns1:scale="1.0"
       ns1:alignment="middle center"
       ns1:jacobian_sqrt="0.352778">
      <defs
         id="defs6590" />
      <g
         fill="#000000"
         fill-opacity="1"
         id="g2017"
         transform="translate(-149.056,-127.953)">
        <g
           transform="translate(148.712,134.765)"
           id="g2359">
          <path
             d="M 5.953125,-5.671875 6.09375,-5.8125 C 6.390625,-6.109375 6.71875,-6.453125 7.390625,-6.5 7.5,-6.515625 7.59375,-6.515625 7.59375,-6.6875 c 0,-0.078125 -0.046875,-0.125 -0.125,-0.125 -0.265625,0 -0.546875,0.03125 -0.8125,0.03125 -0.34375,0 -0.6875,-0.03125 -1,-0.03125 -0.0625,0 -0.1875,0 -0.1875,0.1875 0,0.109375 0.09375,0.125 0.140625,0.125 0.078125,0 0.359375,0.015625 0.359375,0.234375 0,0.171875 -0.234375,0.421875 -0.265625,0.46875 L 3.390625,-3.125 2.296875,-6.09375 C 2.234375,-6.234375 2.234375,-6.25 2.234375,-6.265625 2.234375,-6.5 2.71875,-6.5 2.828125,-6.5 c 0.125,0 0.234375,0 0.234375,-0.203125 0,-0.109375 -0.125,-0.109375 -0.15625,-0.109375 -0.28125,0 -0.96875,0.03125 -1.25,0.03125 -0.25,0 -0.875,-0.03125 -1.125,-0.03125 -0.046875,0 -0.1875,0 -0.1875,0.203125 C 0.34375,-6.5 0.453125,-6.5 0.578125,-6.5 c 0.59375,0 0.640625,0.09375 0.734375,0.34375 L 2.53125,-2.875 c 0.015625,0.03125 0.046875,0.140625 0.046875,0.15625 0,0.03125 -0.40625,1.640625 -0.453125,1.828125 C 2,-0.34375 1.984375,-0.3125 1.1875,-0.3125 c -0.1875,0 -0.265625,0 -0.265625,0.203125 C 0.921875,0 1.03125,0 1.0625,0 c 0.265625,0 0.96875,-0.03125 1.25,-0.03125 0.28125,0 1,0.03125 1.28125,0.03125 0.0625,0 0.1875,0 0.1875,-0.203125 C 3.78125,-0.3125 3.6875,-0.3125 3.5,-0.3125 c -0.015625,0 -0.203125,0 -0.375,-0.015625 C 2.90625,-0.34375 2.84375,-0.375 2.84375,-0.484375 c 0,-0.078125 0.09375,-0.421875 0.140625,-0.625 l 0.359375,-1.40625 c 0.046875,-0.203125 0.0625,-0.21875 0.140625,-0.3125 z m 0,0"
             id="path5776" />
        </g>
      </g>
    </g>
  </g>
</svg>
